<?xml version="1.0" encoding="UTF-8" standalone="no"?>
<svg
   xmlns:dc="http://purl.org/dc/elements/1.1/"
   xmlns:cc="http://creativecommons.org/ns#"
   xmlns:rdf="http://www.w3.org/1999/02/22-rdf-syntax-ns#"
   xmlns:svg="http://www.w3.org/2000/svg"
   xmlns="http://www.w3.org/2000/svg"
   xmlns:sodipodi="http://sodipodi.sourceforge.net/DTD/sodipodi-0.dtd"
   xmlns:inkscape="http://www.inkscape.org/namespaces/inkscape"
   viewBox="0 0 16 16"
   version="1.1"
   id="svg6"
   sodipodi:docname="geany-close-all.svg"
   inkscape:version="1.0.2 (e86c870879, 2021-01-15)">
  <metadata
     id="metadata10">
    <rdf:RDF>
      <cc:Work
         rdf:about="">
        <dc:format>image/svg+xml</dc:format>
        <dc:type
           rdf:resource="http://purl.org/dc/dcmitype/StillImage" />
        <dc:title></dc:title>
      </cc:Work>
    </rdf:RDF>
  </metadata>
  <sodipodi:namedview
     pagecolor="#ffffff"
     bordercolor="#666666"
     borderopacity="1"
     objecttolerance="10"
     gridtolerance="10"
     guidetolerance="10"
     inkscape:pageopacity="0"
     inkscape:pageshadow="2"
     inkscape:window-width="1920"
     inkscape:window-height="1007"
     id="namedview8"
     showgrid="false"
     inkscape:zoom="39.25"
     inkscape:cx="8"
     inkscape:cy="8"
     inkscape:window-x="0"
     inkscape:window-y="0"
     inkscape:window-maximized="1"
     inkscape:current-layer="svg6" />
  <defs
     id="defs3051">
    <style
       type="text/css"
       id="current-color-scheme">
      .ColorScheme-Text {
        color:#eff0f1;
      }
      .ColorScheme-NegativeText {
        color:#da4453;
      }
      </style>
  </defs>
  <path
     style="color:#dfdfdf;fill:currentColor;stroke-width:1.49862"
     class="ColorScheme-Text"
     d="M 12.500729,2 A 1.4992717,1.4981719 0 0 0 11.440698,2.4389172 L 8.0029161,5.8741768 4.5797757,2.4535477 A 1.4992717,1.4981719 0 0 0 4.5651297,2.4389178 1.4992717,1.4981719 0 0 0 3.5138835,2.0058527 l -0.014609,0.020483 A 1.4992717,1.4981719 0 0 0 2,3.5245066 1.4992717,1.4981719 0 0 0 2.439245,4.5837602 L 5.8770183,8.0190206 2.439245,11.454281 a 1.4992717,1.4981719 0 0 0 -0.433382,1.047548 1.4992717,1.4981719 0 0 0 1.4992651,1.49817 1.4992717,1.4981719 0 0 0 1.0600274,-0.438918 l 3.437773,-3.435257 3.4231415,3.420623 a 1.4992717,1.4981719 0 0 0 1.074652,0.453552 1.4992717,1.4981719 0 0 0 1.499272,-1.49817 1.4992717,1.4981719 0 0 0 -0.439238,-1.059255 L 10.111267,7.9985368 13.534406,4.5779084 A 1.4992717,1.4981719 0 0 0 14,3.4981717 1.4992717,1.4981719 0 0 0 12.500729,2 Z"
     id="path5" />
</svg>
