<?xml version="1.0" encoding="UTF-8" standalone="no"?>
<svg
   xmlns:dc="http://purl.org/dc/elements/1.1/"
   xmlns:cc="http://creativecommons.org/ns#"
   xmlns:rdf="http://www.w3.org/1999/02/22-rdf-syntax-ns#"
   xmlns:svg="http://www.w3.org/2000/svg"
   xmlns="http://www.w3.org/2000/svg"
   xmlns:sodipodi="http://sodipodi.sourceforge.net/DTD/sodipodi-0.dtd"
   xmlns:inkscape="http://www.inkscape.org/namespaces/inkscape"
   viewBox="0 0 16 16"
   version="1.1"
   id="svg6"
   sodipodi:docname="kontes_close.svg"
   inkscape:version="1.0.2 (e86c870879, 2021-01-15)">
  <metadata
     id="metadata10">
    <rdf:RDF>
      <cc:Work
         rdf:about="">
        <dc:format>image/svg+xml</dc:format>
        <dc:type
           rdf:resource="http://purl.org/dc/dcmitype/StillImage" />
        <dc:title></dc:title>
      </cc:Work>
    </rdf:RDF>
  </metadata>
  <sodipodi:namedview
     pagecolor="#ffffff"
     bordercolor="#666666"
     borderopacity="1"
     objecttolerance="10"
     gridtolerance="10"
     guidetolerance="10"
     inkscape:pageopacity="0"
     inkscape:pageshadow="2"
     inkscape:window-width="1920"
     inkscape:window-height="1007"
     id="namedview8"
     showgrid="false"
     inkscape:zoom="39.25"
     inkscape:cx="3.8853503"
     inkscape:cy="8"
     inkscape:window-x="0"
     inkscape:window-y="0"
     inkscape:window-maximized="1"
     inkscape:current-layer="svg6" />
  <defs
     id="defs3051">
    <style
       type="text/css"
       id="current-color-scheme">
      .ColorScheme-Text {
        color:#eff0f1;
      }
      .ColorScheme-NegativeText {
        color:#da4453;
      }
      </style>
  </defs>
  <path
     style="color:#dfdfdf;fill:currentColor;stroke-width:1.49862"
     class="ColorScheme-Text"
     d="M 12.500734,2 A 1.4992717,1.4981719 0 0 0 11.440703,2.4389172 L 8.0029211,5.8741768 4.579781,2.4535477 A 1.4992717,1.4981719 0 0 0 4.565131,2.4389177 1.4992717,1.4981719 0 0 0 3.513884,2.0058526 l -0.01461,0.020483 A 1.4992717,1.4981719 0 0 0 2,3.5245065 1.4992717,1.4981719 0 0 0 2.439245,4.5837601 L 5.877018,8.0190205 2.439245,11.454282 A 1.4992717,1.4981719 0 0 0 2.005863,12.50183 1.4992717,1.4981719 0 0 0 3.505128,14 1.4992717,1.4981719 0 0 0 4.565155,13.561082 L 8.0029285,10.125824 11.42607,13.546448 A 1.4992717,1.4981719 0 0 0 12.500722,14 1.4992717,1.4981719 0 0 0 13.999994,12.50183 1.4992717,1.4981719 0 0 0 13.560756,11.442575 L 10.111272,7.9985368 13.534411,4.5779084 A 1.4992717,1.4981719 0 0 0 14.000005,3.4981717 1.4992717,1.4981719 0 0 0 12.500734,2 Z"
     id="path5" />
</svg>
