<?xml version="1.0" encoding="UTF-8" standalone="no"?>
<svg
   xmlns:dc="http://purl.org/dc/elements/1.1/"
   xmlns:cc="http://creativecommons.org/ns#"
   xmlns:rdf="http://www.w3.org/1999/02/22-rdf-syntax-ns#"
   xmlns:svg="http://www.w3.org/2000/svg"
   xmlns="http://www.w3.org/2000/svg"
   xmlns:sodipodi="http://sodipodi.sourceforge.net/DTD/sodipodi-0.dtd"
   xmlns:inkscape="http://www.inkscape.org/namespaces/inkscape"
   version="1.1"
   viewBox="0 0 32 32"
   id="svg32"
   sodipodi:docname="applications-all.svg"
   inkscape:version="1.0.2 (e86c870879, 2021-01-15)">
  <metadata
     id="metadata36">
    <rdf:RDF>
      <cc:Work
         rdf:about="">
        <dc:format>image/svg+xml</dc:format>
        <dc:type
           rdf:resource="http://purl.org/dc/dcmitype/StillImage" />
      </cc:Work>
    </rdf:RDF>
  </metadata>
  <sodipodi:namedview
     pagecolor="#ffffff"
     bordercolor="#666666"
     borderopacity="1"
     objecttolerance="10"
     gridtolerance="10"
     guidetolerance="10"
     inkscape:pageopacity="0"
     inkscape:pageshadow="2"
     inkscape:window-width="1920"
     inkscape:window-height="1005"
     id="namedview34"
     showgrid="true"
     inkscape:zoom="19.625"
     inkscape:cx="6.3949045"
     inkscape:cy="16"
     inkscape:window-x="0"
     inkscape:window-y="0"
     inkscape:window-maximized="1"
     inkscape:current-layer="svg32">
    <inkscape:grid
       type="xygrid"
       id="grid861" />
  </sodipodi:namedview>
  <defs
     id="defs12">
    <linearGradient
       id="b"
       x1="-41.259998"
       x2="-2.994"
       y1="-.88300002"
       y2="37.956001"
       gradientTransform="matrix(.73180945 0 0 .72091894 416.0252 517.69779)"
       gradientUnits="userSpaceOnUse">
      <stop
         stop-color="#21c9fb"
         offset="0"
         id="stop2" />
      <stop
         stop-color="#1a86f2"
         offset="1"
         id="stop4" />
    </linearGradient>
    <linearGradient
       id="a"
       x1="4"
       x2="44"
       y1="4"
       y2="44"
       gradientTransform="matrix(.69444447 0 0 .69444447 384.01587 515.24246)"
       gradientUnits="userSpaceOnUse">
      <stop
         offset="0"
         id="stop7" />
      <stop
         stop-opacity="0"
         offset="1"
         id="stop9" />
    </linearGradient>
  </defs>
  <g
     transform="translate(-384.57143,-515.798)"
     id="g30">
    <path
       d="m 386.57143,521.798 v 20 c 0,2 2,4 3.92143,4 h 20.0538 c 2.02477,0 4.02477,-2 4.02477,-4 v -20 c 0,-2 -2,-4 -3.9905,-4 h -20.09724 c -1.91226,0 -3.91226,2 -3.91226,4 z"
       fill="url(#b)"
       stroke-linejoin="bevel"
       stroke-width="1.4"
       id="path14"
       sodipodi:nodetypes="ccccccccc" />
    <path
       d="m 389.57143,542.798 2.77778,3 h 22.22222 v -22 l -3,-3 v 10 h -10 v -8 l -2,-2 v 10 h -10 l 2,2 h 8 v 10 z"
       fill="url(#a)"
       fill-rule="evenodd"
       opacity="0.2"
       id="path16" />
    <rect
       x="390.57144"
       y="544.79797"
       width="20.000011"
       height="0.99997365"
       opacity="0.15"
       id="rect18"
       ry="0.4532665" />
    <g
       fill="#ffffff"
       id="g28">
      <path
         d="m 389.57143,520.798 v 10 h 10 v -10 z m 1,1 h 8 v 8 h -8 z"
         id="path20" />
      <path
         d="m 401.57143,520.798 v 10 h 10 v -10 z m 1,1 h 8 v 8 h -8 z"
         id="path22" />
      <path
         d="m 389.57143,532.798 v 10 h 10 v -10 z m 1,1 h 8 v 8 h -8 z"
         id="path24" />
      <path
         d="m 401.57143,532.798 v 10 h 10 v -10 z m 1,1 h 8 v 8 h -8 z"
         id="path26" />
    </g>
  </g>
</svg>
