<?xml version="1.0" encoding="UTF-8" standalone="no"?>
<svg
   xmlns:dc="http://purl.org/dc/elements/1.1/"
   xmlns:cc="http://creativecommons.org/ns#"
   xmlns:rdf="http://www.w3.org/1999/02/22-rdf-syntax-ns#"
   xmlns:svg="http://www.w3.org/2000/svg"
   xmlns="http://www.w3.org/2000/svg"
   xmlns:xlink="http://www.w3.org/1999/xlink"
   xmlns:sodipodi="http://sodipodi.sourceforge.net/DTD/sodipodi-0.dtd"
   xmlns:inkscape="http://www.inkscape.org/namespaces/inkscape"
   width="32"
   version="1.1"
   height="32"
   viewBox="0 0 32 32"
   id="svg42"
   sodipodi:docname="applications-engineering.svg"
   inkscape:version="1.0.2 (e86c870879, 2021-01-15)">
  <sodipodi:namedview
     pagecolor="#ffffff"
     bordercolor="#666666"
     borderopacity="1"
     objecttolerance="10"
     gridtolerance="10"
     guidetolerance="10"
     inkscape:pageopacity="0"
     inkscape:pageshadow="2"
     inkscape:window-width="1920"
     inkscape:window-height="1005"
     id="namedview44"
     showgrid="true"
     inkscape:zoom="19.625"
     inkscape:cx="6.3949045"
     inkscape:cy="16"
     inkscape:window-x="0"
     inkscape:window-y="0"
     inkscape:window-maximized="1"
     inkscape:current-layer="layer1">
    <inkscape:grid
       type="xygrid"
       id="grid869" />
  </sodipodi:namedview>
  <defs
     id="defs5455">
    <linearGradient
       inkscape:collect="always"
       id="linearGradient4430">
      <stop
         style="stop-color:#404245"
         id="stop4432" />
      <stop
         offset="1"
         style="stop-color:#585d60"
         id="stop4434" />
    </linearGradient>
    <linearGradient
       inkscape:collect="always"
       xlink:href="#linearGradient4400"
       id="linearGradient4244"
       y1="521.79803"
       x1="397.57144"
       y2="537.79797"
       x2="413.57141"
       gradientUnits="userSpaceOnUse"
       gradientTransform="matrix(1 0 0 1 -384.57143 -512.798)" />
    <linearGradient
       inkscape:collect="always"
       xlink:href="#linearGradient4159"
       id="linearGradient4191"
       y1="525.79797"
       y2="527.79797"
       x2="0"
       gradientUnits="userSpaceOnUse"
       gradientTransform="matrix(1 0 0 1 -0.000012 3)" />
    <linearGradient
       inkscape:collect="always"
       id="linearGradient4159">
      <stop
         style="stop-color:#2a2c2f"
         id="stop4161" />
      <stop
         offset="1"
         style="stop-color:#424649"
         id="stop4163" />
    </linearGradient>
    <linearGradient
       inkscape:collect="always"
       xlink:href="#linearGradient4430"
       id="linearGradient4329"
       y1="28"
       x1="15"
       y2="8"
       x2="14"
       gradientUnits="userSpaceOnUse" />
    <linearGradient
       inkscape:collect="always"
       id="linearGradient4400">
      <stop
         style="stop-color:#020303"
         id="stop4402" />
      <stop
         offset="1"
         style="stop-color:#424649;stop-opacity:0"
         id="stop4404" />
    </linearGradient>
    <linearGradient
       inkscape:collect="always"
       id="linearGradient4303">
      <stop
         style="stop-color:#989a9b"
         id="stop4305" />
      <stop
         offset="1"
         style="stop-color:#f6f6f7"
         id="stop4307" />
    </linearGradient>
    <linearGradient
       inkscape:collect="always"
       xlink:href="#linearGradient4303"
       id="linearGradient4556"
       y1="25"
       y2="6.00003"
       x2="0"
       gradientUnits="userSpaceOnUse"
       gradientTransform="matrix(1 0 0 1 384.57143 518.798)" />
    <linearGradient
       inkscape:collect="always"
       xlink:href="#linearGradient4430"
       id="linearGradient4583"
       y1="26"
       y2="6"
       x2="0"
       gradientUnits="userSpaceOnUse"
       gradientTransform="matrix(1 0 0 1 0 2)" />
    <linearGradient
       inkscape:collect="always"
       id="linearGradient4303-6">
      <stop
         style="stop-color:#c6cdd1"
         id="stop4305-7" />
      <stop
         offset="1"
         style="stop-color:#e0e5e7"
         id="stop4307-0" />
    </linearGradient>
    <linearGradient
       inkscape:collect="always"
       id="linearGradient4643-8"
       xlink:href="#linearGradient4303-6"
       y1="543.79797"
       y2="502.65509"
       x2="0"
       gradientUnits="userSpaceOnUse"
       gradientTransform="matrix(0.66666726 0 0 0.63518419 128.19014 198.51873)" />
    <linearGradient
       inkscape:collect="always"
       id="linearGradient4183"
       xlink:href="#linearGradient4293"
       y1="525.79797"
       y2="540.79797"
       x1="391.57144"
       gradientUnits="userSpaceOnUse"
       x2="406.57147"
       gradientTransform="matrix(1 0 0 1 -0.000007 0.000029)" />
    <linearGradient
       inkscape:collect="always"
       id="linearGradient4293">
      <stop
         id="stop4295" />
      <stop
         offset="1"
         style="stop-opacity:0"
         id="stop4297" />
    </linearGradient>
    <linearGradient
       inkscape:collect="always"
       xlink:href="#linearGradient4159"
       id="linearGradient4251"
       y1="543.79797"
       y2="523.79797"
       x2="0"
       gradientUnits="userSpaceOnUse" />
  </defs>
  <metadata
     id="metadata5458">
    <rdf:RDF>
      <cc:Work
         rdf:about="">
        <dc:format>image/svg+xml</dc:format>
        <dc:type
           rdf:resource="http://purl.org/dc/dcmitype/StillImage" />
      </cc:Work>
    </rdf:RDF>
  </metadata>
  <g
     inkscape:label="Capa 1"
     inkscape:groupmode="layer"
     id="layer1"
     transform="translate(-384.57143,-515.798)">
    <rect
       width="32"
       x="384.57144"
       y="517.79797"
       rx="2.0000117"
       height="28"
       style="fill:url(#linearGradient4643-8)"
       id="rect4641-5"
       ry="2.0000265" />
    <path
       inkscape:connector-curvature="0"
       style="opacity:0.2;fill:url(#linearGradient4183);fill-rule:evenodd"
       id="path4167"
       d="m 385.57142,543.79803 30,-20 1.00001,1 -1e-5,20.99997 -29,3e-5 z" />
    <rect
       width="32.000011"
       x="384.57141"
       y="517.79797"
       height="4"
       style="fill:#566069"
       id="rect4647-8"
       ry="2"
       rx="1.9707466" />
    <rect
       width="28.000042"
       x="386.57144"
       y="521.79797"
       height="0.99997365"
       style="fill:#3daee9"
       id="rect4649-8"
       ry="0.44093585" />
    <rect
       width="30"
       x="385.57141"
       y="523.79797"
       height="20.000031"
       style="fill:url(#linearGradient4251)"
       id="rect4653-5" />
    <rect
       width="2"
       x="413.57141"
       y="518.79797"
       rx="1"
       height="2"
       style="fill:#eff0f1"
       id="rect4661-1" />
    <path
       style="opacity:0.2;fill:url(#linearGradient4244);fill-rule:evenodd"
       id="path4236"
       d="M 17,9 12.556641,27.755859 14.800781,30 H 30 v -8 z"
       transform="translate(384.57143,515.798)" />
    <path
       inkscape:connector-curvature="0"
       style="fill:url(#linearGradient4329);stroke-width:0.1;stroke-linecap:square"
       id="rect4315"
       d="m 8,8 v 3 H 1 v 1 H 8 V 24 H 1 v 1 h 7 v 3 h 1 v -3 h 14 v 3 h 1 v -3 h 7 V 24 H 24 V 12 h 7 V 11 H 24 V 8 h -1 v 3 H 9 V 8 Z m 1,4 H 23 V 24 H 9 Z"
       transform="translate(384.57143,515.798)" />
    <path
       inkscape:connector-curvature="0"
       style="fill:url(#linearGradient4583);stroke-width:0.1;stroke-linecap:square"
       id="path4560"
       d="M 10.783203,8 C 8.980226,12.020931 5.3282608,14.90882 1,15.736328 v 1.027344 C 5.890172,15.899421 9.9979265,12.592731 11.886719,8 Z M 31,19.236328 C 26.112033,20.10242 22.006847,23.408824 20.119141,28 h 1.103515 C 23.024484,23.98056 26.673937,21.092928 31,20.263672 Z"
       transform="translate(384.57143,515.798)" />
    <path
       inkscape:connector-curvature="0"
       style="fill:url(#linearGradient4556);stroke-width:0.1;stroke-linecap:square"
       id="rect4530"
       d="m 399.57143,524.798 v 2.17383 a 3,3 0 0 0 -2,2.82617 3,3 0 0 0 1.52539,2.60937 l -1.44336,5.39063 h -1.08203 v 1 h 0.81445 l -0.80859,3.01562 0.57227,1.71875 1.26953,-4.73437 h 4.30273 l 1.26758,4.73437 0.57226,-1.71875 -0.80859,-3.01562 h 0.81836 v -1 h -1.08594 l -1.44336,-5.38867 a 3,3 0 0 0 1.5293,-2.61133 3,3 0 0 0 -2,-2.82422 V 524.798 Z m 0.46875,7.94922 a 3,3 0 0 0 0.53125,0.0508 3,3 0 0 0 0.5293,-0.0469 l 1.35156,5.04688 h -3.76563 z" />
    <circle
       cx="400.57144"
       cy="529.79773"
       style="color:#000000;color-interpolation:sRGB;color-interpolation-filters:linearRGB;fill:url(#linearGradient4191);color-rendering:auto;image-rendering:auto;shape-rendering:auto;text-rendering:auto"
       r="1"
       id="path4234" />
  </g>
</svg>
