<?xml version="1.0" encoding="UTF-8" standalone="no"?>
<!-- Created with Inkscape (http://www.inkscape.org/) -->

<svg
   width="32"
   height="32"
   id="svg5453"
   version="1.1"
   inkscape:version="1.3.2 (091e20ef0f, 2023-11-25)"
   sodipodi:docname="applications-education.svg"
   xmlns:inkscape="http://www.inkscape.org/namespaces/inkscape"
   xmlns:sodipodi="http://sodipodi.sourceforge.net/DTD/sodipodi-0.dtd"
   xmlns:xlink="http://www.w3.org/1999/xlink"
   xmlns="http://www.w3.org/2000/svg"
   xmlns:svg="http://www.w3.org/2000/svg"
   xmlns:rdf="http://www.w3.org/1999/02/22-rdf-syntax-ns#"
   xmlns:cc="http://creativecommons.org/ns#"
   xmlns:dc="http://purl.org/dc/elements/1.1/">
  <defs
     id="defs5455">
    <linearGradient
       inkscape:collect="always"
       id="linearGradient2">
      <stop
         style="stop-color:#262b2f;stop-opacity:1;"
         offset="0"
         id="stop1" />
      <stop
         style="stop-color:#40474b;stop-opacity:1;"
         offset="1"
         id="stop2" />
    </linearGradient>
    <linearGradient
       gradientUnits="userSpaceOnUse"
       y2="503.798"
       x2="384.57144"
       y1="543.79797"
       x1="434.57144"
       id="linearGradient4586"
       xlink:href="#linearGradient4273"
       inkscape:collect="always"
       gradientTransform="translate(-1.1547241e-5,-1.6784668e-7)" />
    <linearGradient
       inkscape:collect="always"
       id="linearGradient4273">
      <stop
         style="stop-color:#343b40;stop-opacity:1"
         offset="0"
         id="stop4275" />
      <stop
         style="stop-color:#555e63;stop-opacity:1"
         offset="1"
         id="stop4277" />
    </linearGradient>
    <linearGradient
       id="linearGradient4152-0"
       inkscape:collect="always">
      <stop
         id="stop4154-0"
         offset="0"
         style="stop-color:#bd8d48;stop-opacity:1" />
      <stop
         id="stop4156-8"
         offset="1"
         style="stop-color:#e8b971;stop-opacity:1" />
    </linearGradient>
    <linearGradient
       inkscape:collect="always"
       xlink:href="#linearGradient2"
       id="linearGradient3085"
       gradientUnits="userSpaceOnUse"
       gradientTransform="matrix(1,0,0,1.050001,-36.00001,-25.190442)"
       x1="434.57144"
       y1="543.79797"
       x2="384.57144"
       y2="503.798" />
    <linearGradient
       inkscape:collect="always"
       xlink:href="#linearGradient4152-0"
       id="linearGradient3087"
       gradientUnits="userSpaceOnUse"
       gradientTransform="matrix(1,0,0,1.0500001,348.57142,499.59799)"
       x1="24"
       y1="43.999973"
       x2="24"
       y2="4" />
  </defs>
  <sodipodi:namedview
     id="base"
     pagecolor="#ffffff"
     bordercolor="#666666"
     borderopacity="1.0"
     inkscape:pageopacity="0"
     inkscape:pageshadow="2"
     inkscape:zoom="15.999999"
     inkscape:cx="18.187501"
     inkscape:cy="23.312501"
     inkscape:document-units="px"
     inkscape:current-layer="g3068"
     showgrid="false"
     fit-margin-top="0"
     fit-margin-left="0"
     fit-margin-right="0"
     fit-margin-bottom="0"
     inkscape:window-width="1920"
     inkscape:window-height="994"
     inkscape:window-x="0"
     inkscape:window-y="0"
     inkscape:window-maximized="1"
     inkscape:showpageshadow="false"
     borderlayer="true"
     showguides="false"
     inkscape:snap-bbox="true"
     inkscape:pagecheckerboard="0"
     inkscape:deskcolor="#d1d1d1">
    <inkscape:grid
       type="xygrid"
       id="grid4063"
       originx="0"
       originy="0"
       spacingy="1"
       spacingx="1"
       units="px"
       visible="false" />
    <sodipodi:guide
       position="4.2167969e-05,32.000026"
       orientation="32,0"
       id="guide4625"
       inkscape:locked="false" />
    <sodipodi:guide
       position="4.2167969e-05,2.6367188e-05"
       orientation="0,31.999969"
       id="guide4627"
       inkscape:locked="false" />
    <sodipodi:guide
       position="32.000012,2.6367188e-05"
       orientation="-32,0"
       id="guide4629"
       inkscape:locked="false" />
    <sodipodi:guide
       position="32.000012,32.000026"
       orientation="0,-31.999969"
       id="guide4631"
       inkscape:locked="false" />
    <sodipodi:guide
       position="2.0000422,30.000026"
       orientation="28,0"
       id="guide4633"
       inkscape:locked="false" />
    <sodipodi:guide
       position="2.0000422,2.0000264"
       orientation="0,27.999969"
       id="guide4635"
       inkscape:locked="false" />
    <sodipodi:guide
       position="30,17"
       orientation="-28,0"
       id="guide4637"
       inkscape:locked="false" />
    <sodipodi:guide
       position="30.000012,30.000026"
       orientation="0,-27.999969"
       id="guide4639"
       inkscape:locked="false" />
    <sodipodi:guide
       position="9.0000117,24.000271"
       orientation="14,0"
       id="guide4429"
       inkscape:locked="false" />
    <sodipodi:guide
       position="9.0000117,10.000271"
       orientation="0,14.000031"
       id="guide4431"
       inkscape:locked="false" />
    <sodipodi:guide
       position="22.812501,-3.5000022"
       orientation="-14,0"
       id="guide4433"
       inkscape:locked="false" />
    <sodipodi:guide
       position="23.000042,24.000271"
       orientation="0,-14.000031"
       id="guide4435"
       inkscape:locked="false" />
  </sodipodi:namedview>
  <metadata
     id="metadata5458">
    <rdf:RDF>
      <cc:Work
         rdf:about="">
        <dc:format>image/svg+xml</dc:format>
        <dc:type
           rdf:resource="http://purl.org/dc/dcmitype/StillImage" />
      </cc:Work>
    </rdf:RDF>
  </metadata>
  <g
     inkscape:label="Capa 1"
     inkscape:groupmode="layer"
     id="layer1"
     transform="translate(-384.57143,-515.798)">
    <g
       id="g3068"
       transform="matrix(0.66666621,0,0,0.66666621,152.19064,181.9329)">
      <rect
         y="503.798"
         x="348.57144"
         height="42.000034"
         width="48.000011"
         id="rect4567"
         style="fill:url(#linearGradient3085);fill-opacity:1;stroke:none"
         ry="4.406251"
         rx="4.406251" />
      <path
         id="rect4778"
         d="m 351.72143,503.798 c -1.56838,-0.0515 -3.0504,1.38476 -3.15001,3 v 36.00002 c 0.17301,1.51523 1.60401,2.87786 3.04951,2.99998 h 41.95052 c 1.76525,-0.26766 2.81621,-1.56918 3.00002,-3.14998 l -5e-5,-35.85002 c 0.01,-1.57727 -1.44956,-2.82562 -2.99997,-3 v 0 h -41.95052 z m -0.14994,3 h 41.99996 v 36.00002 h -41.99996 z"
         style="fill:url(#linearGradient3087);fill-opacity:1;stroke:none"
         inkscape:connector-curvature="0"
         sodipodi:nodetypes="cccccccccccccccc" />
      <path
         id="rect4553"
         d="m 351.57149,506.72982 0,36.0682 0,0 41.99996,0 0,0 0,-36.0682 0,0 z m 1.49994,1.56818 39.00002,0 0,33.00002 -39.00002,0 z"
         style="text-decoration:none;color:#000000;fill:#aa7f41;fill-opacity:0.49803922;fill-rule:nonzero;stroke:none;visibility:visible;display:inline;overflow:visible;enable-background:accumulate"
         inkscape:connector-curvature="0"
         sodipodi:nodetypes="ccccccccccccc" />
      <rect
         y="539.79803"
         x="377.07144"
         height="1.4999862"
         width="5.9999447"
         id="rect4568"
         style="text-decoration:none;color:#000000;fill:#007ad9;fill-opacity:1;fill-rule:nonzero;stroke:none;visibility:visible;display:inline;overflow:visible;enable-background:accumulate" />
      <rect
         y="539.79803"
         x="384.57144"
         height="1.500013"
         width="5.9999857"
         id="rect4570"
         style="text-decoration:none;color:#000000;fill:#d6d6d6;fill-opacity:1;fill-rule:nonzero;stroke:none;visibility:visible;display:inline;overflow:visible;enable-background:accumulate" />
      <path
         style="opacity:0.2;stroke-width:0.59026"
         d="m 364.17155,522.76616 h 16.79965 v 6.38739 c 0,0 -1.19988,3.48414 -8.39983,3.48414 -7.19991,0 -8.39982,-3.48414 -8.39982,-3.48414 z"
         id="path1" />
      <path
         style="fill:#656565;stroke-width:0.59026;fill-opacity:1"
         d="m 364.17155,522.18543 h 16.79965 v 6.38744 c 0,0 -1.19988,3.48408 -8.39983,3.48408 -7.19991,0 -8.39982,-3.48408 -8.39982,-3.48408 z"
         id="path2" />
      <path
         style="opacity:0.2;stroke-width:0.59026"
         d="m 372.28918,516.38641 a 2.5246472,1.2216944 0 0 0 -1.50205,0.3493 l -9.47739,4.58701 a 2.5246472,1.2216944 0 0 0 0,1.72626 l 9.47739,4.5859 a 2.5246472,1.2216944 0 0 0 3.56853,0 l 9.47753,-4.5859 a 2.5246472,1.2216944 0 0 0 0,-1.72626 l -9.47753,-4.58701 a 2.5246472,1.2216944 0 0 0 -2.06648,-0.3493 z"
         id="path3" />
      <path
         style="fill:#7e7e7e;stroke-width:0.59026;fill-opacity:1"
         d="m 372.28918,515.80569 a 2.5246472,1.2216944 0 0 0 -1.50205,0.34941 l -9.47739,4.58691 a 2.5246472,1.2216944 0 0 0 0,1.72627 l 9.47739,4.58588 a 2.5246472,1.2216944 0 0 0 3.56853,0 l 9.47753,-4.58588 a 2.5246472,1.2216944 0 0 0 0,-1.72627 l -9.47753,-4.58691 a 2.5246472,1.2216944 0 0 0 -2.06648,-0.34941 z"
         id="path4" />
      <path
         style="opacity:0.2;stroke-width:0.59026"
         d="m 372.48223,521.03092 -8.82749,1.28947 c -0.831,0.0675 -1.3873,0.54445 -1.63011,0.98225 -0.24572,0.44315 -0.25313,0.87433 -0.25313,0.87433 a 0.60004874,0.58073143 0 0 0 0,0.0138 v 3.83226 a 0.45006996,0.4839427 0 0 0 -0.29165,0.35722 l -0.90009,4.83937 a 0.45006996,0.4839427 0 0 0 0.44185,0.57838 h 2.69999 a 0.45006996,0.4839427 0 0 0 0.44167,-0.57838 l -0.90002,-4.83937 a 0.45006996,0.4839427 0 0 0 -0.29168,-0.35722 v -3.8175 c 0,0 0.005,-0.17276 0.11047,-0.35495 0.10043,-0.18217 0.21205,-0.34367 0.68668,-0.37536 a 0.60004874,0.58073143 0 0 0 0.049,-0.005 l 8.84395,-1.29168 a 0.59998876,0.58067339 0 0 0 0.50389,-0.6601 0.59998876,0.58067339 0 0 0 -0.68199,-0.48775 z"
         id="path5" />
      <path
         style="fill:none;stroke:#cccccc;stroke-width:1.18057;stroke-linecap:round;stroke-linejoin:round;stroke-opacity:1"
         d="m 372.57137,521.02414 -8.84472,1.29155 c -1.32293,0.0879 -1.35512,1.29511 -1.35512,1.29511 v 4.96207"
         id="path6" />
      <path
         style="fill:#e8b971;stroke-width:0.59026;fill-opacity:1"
         d="m 361.92151,527.41161 a 0.45006996,0.4839427 0 0 0 -0.44128,0.38923 l -0.90002,4.83899 a 0.45006996,0.4839427 0 0 0 0.4412,0.57838 h 2.70026 a 0.45006996,0.4839427 0 0 0 0.44131,-0.57838 l -0.9001,-4.83899 a 0.45006996,0.4839427 0 0 0 -0.4413,-0.38923 z"
         id="path7" />
      <path
         style="opacity:0.1;fill:#ffffff;stroke-width:0.59026"
         d="m 372.28895,515.80604 a 2.5246472,1.2216944 0 0 0 -1.50221,0.34936 l -9.47677,4.58631 a 2.5246472,1.2216944 0 0 0 -0.65983,1.15348 2.5246472,1.2216944 0 0 1 0.65983,-0.57281 l 9.47677,-4.58636 a 2.5246472,1.2216944 0 0 1 1.50221,-0.34924 2.5246472,1.2216944 0 0 1 2.06714,0.34924 l 9.47682,4.58636 a 2.5246472,1.2216944 0 0 1 0.66555,0.57281 2.5246472,1.2216944 0 0 0 -0.66555,-1.15348 l -9.47682,-4.58631 a 2.5246472,1.2216944 0 0 0 -2.06714,-0.34936 z"
         id="path8" />
    </g>
  </g>
</svg>
