<?xml version="1.0" encoding="UTF-8" standalone="no"?>
<svg
   viewBox="0 0 22 22"
   version="1.1"
   id="svg1"
   sodipodi:docname="folder-wireguard-symbolic22.svg"
   xml:space="preserve"
   inkscape:version="1.4.2 (ebf0e940d0, 2025-05-08)"
   xmlns:inkscape="http://www.inkscape.org/namespaces/inkscape"
   xmlns:sodipodi="http://sodipodi.sourceforge.net/DTD/sodipodi-0.dtd"
   xmlns="http://www.w3.org/2000/svg"
   xmlns:svg="http://www.w3.org/2000/svg"><sodipodi:namedview
     id="namedview1"
     pagecolor="#505050"
     bordercolor="#ffffff"
     borderopacity="1"
     inkscape:showpageshadow="0"
     inkscape:pageopacity="0"
     inkscape:pagecheckerboard="1"
     inkscape:deskcolor="#505050"
     inkscape:zoom="52.545455"
     inkscape:cx="10.990484"
     inkscape:cy="11"
     inkscape:window-width="2556"
     inkscape:window-height="1364"
     inkscape:window-x="0"
     inkscape:window-y="0"
     inkscape:window-maximized="1"
     inkscape:current-layer="svg1" /><defs
     id="defs3051"><style
       type="text/css"
       id="current-color-scheme">
      .ColorScheme-Text {
        color:#eff0f1
      }
      </style></defs><path
     d="m 18.986211,10.76228 c 0,0 0.36874,-7.76228 -8.16227,-7.76228 -7.5466604,0 -7.7810304,7.44667 -7.7810304,7.44667 0,0 -1.10934,8.55288 7.9529004,8.55288 8.69663,0 7.9904,-8.23727 7.9904,-8.23727 M 8.4365106,8.04986 c 1.5999504,-0.9781 3.6467704,-0.38124 4.4123804,1.09059 0.14374,0.27812 0.16249,0.70936 0.0719,0.99997 -0.31874,1.01248 -1.06872,1.57808 -2.09682,1.8187 0.30312,-0.25936 0.54374,-0.55311 0.62186,-0.96247 0.0812,-0.39061 -0.006,-0.79685 -0.24374,-1.11872 -0.37499,-0.51561 -1.04372,-0.71873 -1.6437104,-0.49998 -0.63435,0.24061 -0.98122,0.81872 -0.91872,1.5312 0.0594,0.65936 0.55936,1.08747 1.4968304,1.24997 -0.1406204,0.075 -0.2468704,0.12812 -0.3531104,0.18749 -0.42812,0.23437 -0.80311,0.55936 -1.09685,0.9531 -0.0937,0.12812 -0.15937,0.1375 -0.30624,0.05 -1.8812,-1.14684 -2.00307,-4.04051 0.0562,-5.29985 m -1.41246,7.12167 c -0.30312,0.0781 -0.59686,0.19062 -0.90623,0.29062 0.15,-1.02185 1.34684,-1.96245 2.35931,-1.8562 -0.29374,0.40312 -0.46248,0.88435 -0.49373,1.38121 -0.33437,0.0656 -0.64998,0.10625 -0.95935,0.18437 M 13.467601,5.19994 c 0.29999,0.0125 0.59998,0.006 0.89997,0.0125 0.075,0.006 0.15,0.0156 0.22187,0.0312 -0.0656,0.10312 -0.14374,0.19999 -0.22499,0.29061 -0.10625,0.1 -0.22812,0.19687 -0.38124,0.0469 -0.0375,-0.0375 -0.125,-0.0281 -0.19062,-0.0281 -0.29687,-0.003 -0.59686,-0.0125 -0.89373,-0.003 -0.25936,0.009 -0.51561,0.0344 -0.76872,0.0781 -0.0469,0.009 -0.11875,0.16562 -0.0969,0.22499 0.05,0.1375 0.12812,0.29062 0.2375,0.37812 0.41249,0.32499 0.8531,0.61873 1.26559,0.9406 0.40311,0.31561 0.7781,0.65935 1.00622,1.13434 0.29686,0.61873 0.30624,1.26559 0.17812,1.9187 -0.21562,1.08747 -0.76561,1.98744 -1.65621,2.64055 -0.35936,0.26249 -0.8031,0.41249 -1.21246,0.60311 -0.36249,0.16562 -0.73436,0.30936 -1.09685,0.47498 -0.6531,0.29687 -1.0218404,1.00622 -0.9124704,1.7437 0.1,0.67498 0.6937304,1.24059 1.3718404,1.35622 0.8156,0.14062 1.6562,-0.39062 1.85619,-1.21872 0.225,-0.93122 -0.28124,-1.76558 -1.23121,-2.01557 -0.0406,-0.0125 -0.0844,-0.0219 -0.17187,-0.0437 0.25312,-0.11249 0.47186,-0.19374 0.67498,-0.30624 0.35311,-0.19374 0.69998,-0.39999 1.03747,-0.61561 0.1,-0.0625 0.15312,-0.0625 0.24062,0.009 0.65311,0.56248 1.04059,1.26559 1.14997,2.12494 0.18124,1.42183 -0.49374,2.73117 -1.76245,3.3999 -1.96557,1.03747 -4.3717604,-0.14374 -4.8061204,-2.32181 -0.37186,-1.86557 0.94685,-3.55927 2.5311804,-3.88739 0.68123,-0.14062 1.30621,-0.42499 1.79057,-0.94997 0.3125,-0.33749 0.46562,-0.62811 0.51562,-0.76248 0.0969,-0.24687 0.14687,-0.50624 0.14374,-0.77185 -0.009,-0.22812 -0.0625,-0.45312 -0.15937,-0.66248 -0.16562,-0.37812 -0.79998,-0.9781 -0.95622,-1.1031 l -1.48746,-1.16872 c -0.0531,-0.0437 -0.1125,-0.0406 -0.24062,-0.0312 -0.15312,0.009 -0.5437304,0.0312 -0.7124804,-0.0125 C 9.7645606,6.60283 10.133301,6.45284 10.292671,6.33097 9.8083106,6.00285 9.2552006,6.1216 8.7489606,6.02472 c 0.11562,-0.21874 0.69686,-0.5531 1.0281,-0.5906 -0.0188,-0.18437 -0.05,-0.36874 -0.0906,-0.54999 -0.0188,-0.075 -0.10312,-0.14687 -0.17499,-0.18749 -0.175,-0.10312 -0.36249,-0.1875 -0.56248,-0.29062 0.18124,-0.11562 0.39061,-0.18124 0.6031,-0.18749 0.20312,-0.006 0.40624,0.0125 0.6062404,0.0594 0.35936,0.0813 0.64685,0.0281 0.93122,-0.21562 -0.22499,-0.0906 -0.44999,-0.17499 -0.66873,-0.27187 Q 10.097391,3.64513 9.7927106,3.46233 c 0.5656104,0.0781 1.1156004,0.29061 1.6937004,0.21249 l 0.0156,-0.0781 -1.34059,-0.31249 c 0.8031,-0.075 1.54996,-0.0844 2.25619,0.25936 0.19999,0.0969 0.40624,0.17812 0.59686,0.2875 0.0937,0.0531 0.15624,0.15937 0.23124,0.24374 0.0594,0.0656 0.10937,0.15312 0.18437,0.19374 0.28124,0.15 0.59373,0.15625 0.91247,0.15 l 0.006,-0.10625 c 0.31874,0.1 0.67811,0.46874 0.67811,0.73748 -0.51561,0 -1.03435,-0.003 -1.54996,0.003 -0.0562,0 -0.10937,0.0406 -0.16562,0.0625 0.05,0.0281 0.10312,0.0812 0.15625,0.0844 m -0.66561,-0.76561 c -0.0375,0.0219 -0.0469,0.0719 -0.025,0.10938 0.003,0.006 0.009,0.0125 0.0156,0.0187 0.0312,0.0562 0.10624,0.0781 0.16249,0.0437 0.05,-0.025 0.1,-0.0531 0.15937,-0.0844 -0.05,-0.0406 -0.0875,-0.075 -0.12812,-0.10937 -0.0719,-0.0563 -0.12812,-0.0219 -0.18437,0.0219"
     id="path1-7"
     class="ColorScheme-Text"
     style="fill:currentColor" /></svg>
