<?xml version="1.0" encoding="UTF-8" standalone="no"?>
<svg
   viewBox="0 0 22 22"
   version="1.1"
   id="svg1"
   sodipodi:docname="folder-wireshark-symbolic22.svg"
   xml:space="preserve"
   inkscape:version="1.4.2 (ebf0e940d0, 2025-05-08)"
   xmlns:inkscape="http://www.inkscape.org/namespaces/inkscape"
   xmlns:sodipodi="http://sodipodi.sourceforge.net/DTD/sodipodi-0.dtd"
   xmlns="http://www.w3.org/2000/svg"
   xmlns:svg="http://www.w3.org/2000/svg"><sodipodi:namedview
     id="namedview1"
     pagecolor="#505050"
     bordercolor="#ffffff"
     borderopacity="1"
     inkscape:showpageshadow="0"
     inkscape:pageopacity="0"
     inkscape:pagecheckerboard="1"
     inkscape:deskcolor="#505050"
     inkscape:zoom="52.545455"
     inkscape:cx="10.990484"
     inkscape:cy="11"
     inkscape:window-width="2556"
     inkscape:window-height="1364"
     inkscape:window-x="0"
     inkscape:window-y="0"
     inkscape:window-maximized="1"
     inkscape:current-layer="svg1" /><defs
     id="defs3051"><style
       type="text/css"
       id="current-color-scheme">
      .ColorScheme-Text {
        color:#eff0f1
      }
      </style></defs><path
     d="M 4.9666667,3 C 3.8866667,3 3,3.88 3,4.9666667 V 17.033333 C 3,18.12 3.88,19 4.9666667,19 H 17.033333 C 18.113333,19 19,18.12 19,17.033333 V 4.9666667 C 18.99984,3.88 18.12,3 17.033333,3 Z m 0,0.7266667 H 17.033333 c 0.693334,0 1.233334,0.5453333 1.233334,1.24 V 14.3 H 14.753333 C 14.53,13.769333 13.04,9.9866667 14.942,7.0333333 A 0.344,0.34466667 0 0 0 14.646667,6.504 C 11.153333,6.5591333 9.18,8.6306667 8.1533333,10.644 c -0.9,1.76 -1.0866666,3.273333 -1.1266666,3.686667 h -3.3 V 4.9973333 c 0,-0.6933333 0.5446666,-1.24 1.2333333,-1.24 z M 14.033333,7.22 c -1.746666,3.493333 0.165334,7.6 0.165334,7.6 a 0.344,0.34466667 0 0 0 0.312666,0.200667 H 18.258 V 17.054 c 0,0.693333 -0.544667,1.24 -1.233333,1.24 H 4.958 c -0.6933333,0 -1.2333333,-0.545333 -1.2333333,-1.24 V 15.020667 H 7.318 a 0.344,0.34466667 0 0 0 0.3426667,-0.318 c 0,0 0.1506666,-1.866667 1.1066666,-3.746667 C 9.6606667,9.2093333 11.214,7.5093333 14.040667,7.2426667 Z"
     id="path1-7"
     style="fill:currentColor"
     class="ColorScheme-Text" /></svg>
