<?xml version="1.0" encoding="UTF-8" standalone="no"?>
<svg
   viewBox="0 0 22 22"
   version="1.1"
   id="svg1"
   sodipodi:docname="folder-hospital-symbolic22.svg"
   xml:space="preserve"
   inkscape:version="1.4.2 (ebf0e940d0, 2025-05-08)"
   xmlns:inkscape="http://www.inkscape.org/namespaces/inkscape"
   xmlns:sodipodi="http://sodipodi.sourceforge.net/DTD/sodipodi-0.dtd"
   xmlns="http://www.w3.org/2000/svg"
   xmlns:svg="http://www.w3.org/2000/svg"><sodipodi:namedview
     id="namedview1"
     pagecolor="#505050"
     bordercolor="#ffffff"
     borderopacity="1"
     inkscape:showpageshadow="0"
     inkscape:pageopacity="0"
     inkscape:pagecheckerboard="1"
     inkscape:deskcolor="#505050"
     inkscape:zoom="52.545455"
     inkscape:cx="10.990484"
     inkscape:cy="11"
     inkscape:window-width="2556"
     inkscape:window-height="1364"
     inkscape:window-x="0"
     inkscape:window-y="0"
     inkscape:window-maximized="1"
     inkscape:current-layer="svg1" /><defs
     id="defs3051"><style
       type="text/css"
       id="current-color-scheme">
      .ColorScheme-Text {
        color:#eff0f1
      }
      </style><style
       type="text/css"
       id="current-color-scheme-5">.ColorScheme-Text {color:#fcfcfc;}</style></defs><path
     d="M 3,19 V 7 A 0.8,0.8 0 0 1 3.8,6.2 H 7 V 3 h 8 v 3.2 h 3.2 A 0.8,0.8 0 0 1 19,7 V 19 H 12.6 V 15 H 9.4 v 4 H 3 M 8.6,4.6 v 4.8 h 1.6 V 7.8 h 1.6 v 1.6 h 1.6 V 4.6 H 11.8 V 6.2 H 10.2 V 4.6 H 8.6 m -4,12.8 H 7.8 V 15 H 4.6 v 2.4 m 0,-4 H 7.8 V 11 H 4.6 v 2.4 m 9.6,4 h 3.2 V 15 h -3.2 v 2.4 m 0,-4 h 3.2 V 11 h -3.2 v 2.4 m -4.8,0 h 3.2 V 11 H 9.4 Z"
     id="path1"
     style="fill:currentColor"
     class="ColorScheme-Text" /></svg>
