<?xml version="1.0" encoding="UTF-8" standalone="no"?>
<svg
   viewBox="0 0 22 22"
   version="1.1"
   id="svg1"
   sodipodi:docname="folder-markdown-symbolic22.svg"
   xml:space="preserve"
   inkscape:version="1.4.2 (ebf0e940d0, 2025-05-08)"
   xmlns:inkscape="http://www.inkscape.org/namespaces/inkscape"
   xmlns:sodipodi="http://sodipodi.sourceforge.net/DTD/sodipodi-0.dtd"
   xmlns="http://www.w3.org/2000/svg"
   xmlns:svg="http://www.w3.org/2000/svg"><sodipodi:namedview
     id="namedview1"
     pagecolor="#505050"
     bordercolor="#ffffff"
     borderopacity="1"
     inkscape:showpageshadow="0"
     inkscape:pageopacity="0"
     inkscape:pagecheckerboard="1"
     inkscape:deskcolor="#505050"
     inkscape:zoom="52.545455"
     inkscape:cx="10.990484"
     inkscape:cy="11"
     inkscape:window-width="2556"
     inkscape:window-height="1364"
     inkscape:window-x="0"
     inkscape:window-y="0"
     inkscape:window-maximized="1"
     inkscape:current-layer="svg1" /><defs
     id="defs3051"><style
       type="text/css"
       id="current-color-scheme">
      .ColorScheme-Text {
        color:#eff0f1
      }
      </style></defs><path
     d="M 17.848,15.4 H 4.152 C 3.52,15.4 3,14.896 3,14.272 V 6.928 C 3,6.304 3.52,5.8 4.152,5.8 H 17.848 C 18.48,5.8 19,6.304 19,6.928 v 7.344 C 19,14.896 18.48,15.4 17.848,15.4 M 4.152,6.552 c -0.208,0 -0.384,0.168 -0.384,0.376 v 7.352 c 0,0.2 0.176,0.368 0.384,0.368 h 13.696 c 0.208,0 0.384,-0.168 0.384,-0.368 V 6.928 c 0,-0.208 -0.176,-0.376 -0.384,-0.376 H 4.152 m 1.16,6.6 V 8.048 h 1.536 l 1.536,1.88 1.536,-1.88 h 1.544 v 5.104 H 9.92 v -2.928 l -1.536,1.88 -1.536,-1.88 v 2.928 H 5.312 m 9.608,0 -2.32,-2.48 h 1.552 V 8.048 h 1.536 v 2.624 h 1.544 l -2.312,2.48"
     id="path1"
     style="fill:currentColor"
     class="ColorScheme-Text" /></svg>
