<?xml version="1.0" encoding="UTF-8" standalone="no"?>
<svg
   viewBox="0 0 22 22"
   version="1.1"
   id="svg1"
   sodipodi:docname="folder-3Dmodels-symbolic22.svg"
   xml:space="preserve"
   inkscape:version="1.4.2 (ebf0e940d0, 2025-05-08)"
   xmlns:inkscape="http://www.inkscape.org/namespaces/inkscape"
   xmlns:sodipodi="http://sodipodi.sourceforge.net/DTD/sodipodi-0.dtd"
   xmlns="http://www.w3.org/2000/svg"
   xmlns:svg="http://www.w3.org/2000/svg"><sodipodi:namedview
     id="namedview1"
     pagecolor="#505050"
     bordercolor="#ffffff"
     borderopacity="1"
     inkscape:showpageshadow="0"
     inkscape:pageopacity="0"
     inkscape:pagecheckerboard="1"
     inkscape:deskcolor="#505050"
     inkscape:zoom="52.545455"
     inkscape:cx="10.990484"
     inkscape:cy="11"
     inkscape:window-width="2556"
     inkscape:window-height="1364"
     inkscape:window-x="0"
     inkscape:window-y="0"
     inkscape:window-maximized="1"
     inkscape:current-layer="svg1" /><defs
     id="defs3051"><style
       type="text/css"
       id="current-color-scheme">
      .ColorScheme-Text {
        color:#eff0f1
      }
      </style></defs><path
     d="M 16.6,6.2 A 0.8,0.8 0 0 0 17.4,5.4 0.8,0.8 0 0 0 16.6,4.6 0.8,0.8 0 0 0 15.8,5.4 0.8,0.8 0 0 0 16.6,6.2 M 16.6,3 A 2.4,2.4 0 0 1 19,5.4 v 4.8 H 15.8 V 7 H 6.2 v 3.2 H 3 V 5.4 A 2.4,2.4 0 0 1 5.4,3 h 11.2 m -0.8,13 c 0,0.304 -0.168,0.568 -0.424,0.704 l -3.92,2.152 C 11.32,18.952 11.168,19 11,19 10.832,19 10.672,18.952 10.544,18.856 L 6.624,16.704 C 6.368,16.568 6.2,16.304 6.2,16 v -4.2 c 0,-0.304 0.168,-0.568 0.424,-0.704 l 3.92,-1.952 C 10.672,9.048 10.832,9 11,9 c 0.168,0 0.32,0.048 0.456,0.144 l 3.92,1.952 c 0.256,0.136 0.424,0.4 0.424,0.704 V 16 M 11,10.72 8.632,11.8 11,13.08 13.368,11.8 11,10.72 m -3.2,4.808 2.4,1.304 V 14.464 L 7.8,13.168 v 2.36 m 6.4,0 v -2.36 l -2.4,1.296 v 2.368 z"
     id="path2"
     style="fill:currentColor"
     class="ColorScheme-Text" /></svg>
