<?xml version="1.0" encoding="UTF-8" standalone="no"?>
<svg
   viewBox="0 0 22 22"
   version="1.1"
   id="svg1"
   sodipodi:docname="folder-kubernetes-symbolic22.svg"
   xml:space="preserve"
   inkscape:version="1.4.2 (ebf0e940d0, 2025-05-08)"
   xmlns:inkscape="http://www.inkscape.org/namespaces/inkscape"
   xmlns:sodipodi="http://sodipodi.sourceforge.net/DTD/sodipodi-0.dtd"
   xmlns="http://www.w3.org/2000/svg"
   xmlns:svg="http://www.w3.org/2000/svg"><sodipodi:namedview
     id="namedview1"
     pagecolor="#505050"
     bordercolor="#ffffff"
     borderopacity="1"
     inkscape:showpageshadow="0"
     inkscape:pageopacity="0"
     inkscape:pagecheckerboard="1"
     inkscape:deskcolor="#505050"
     inkscape:zoom="52.649549"
     inkscape:cx="6.9231362"
     inkscape:cy="11.700005"
     inkscape:window-width="2556"
     inkscape:window-height="1364"
     inkscape:window-x="0"
     inkscape:window-y="0"
     inkscape:window-maximized="1"
     inkscape:current-layer="svg1" /><defs
     id="defs3051"><style
       type="text/css"
       id="current-color-scheme">
      .ColorScheme-Text {
        color:#eff0f1
      }
      </style></defs><path
     d="m 9.8024746,12.579482 0.00464,0.0066 -0.6660122,1.608695 A 3.4473949,3.4473949 0 0 1 7.7577716,12.46348 l 1.7186974,-0.291338 0.00264,0.0034 a 0.29333857,0.29333857 0 0 1 0.3226728,0.404007 z M 9.2471313,11.160123 a 0.29333857,0.29333857 0 0 0 0.1153352,-0.504009 l 0.00136,-0.0074 L 8.05647,9.4793999 A 3.4287279,3.4287279 0 0 0 7.5697944,11.649439 L 9.2458249,11.166097 Z M 10.010479,9.8400992 a 0.29333857,0.29333857 0 0 0 0.466008,-0.2246705 l 0.0066,-0.00336 0.100002,-1.7466977 A 3.4293945,3.4293945 0 0 0 8.5764265,8.8267216 l 1.4313585,1.0153512 0.0026,-0.00136 z m 0.506675,1.8333658 0.482009,0.232672 0.481342,-0.231338 0.120002,-0.520009 -0.333339,-0.415341 h -0.53601 l -0.333339,0.415341 0.119335,0.519343 z m 1.000018,-2.0633699 a 0.29333857,0.29333857 0 0 0 0.466675,0.2240041 l 0.0054,0.002 1.422692,-1.0086845 A 3.4587285,3.4587285 0 0 0 11.41717,7.8660641 l 0.09867,1.7433646 z m 7.250796,3.9800719 -3.848735,4.787419 a 1.0666857,1.0666857 0 0 1 -0.832015,0.396006 l -6.1741103,0.002 A 1.0666857,1.0666857 0 0 1 7.0817594,18.378252 L 3.2310239,13.5915 A 1.0553522,1.0553522 0 0 1 3.0263536,12.698151 L 4.3997114,6.7280438 C 4.4717127,6.4147048 4.6830498,6.1520335 4.9750551,6.0126977 L 10.536488,3.3546502 a 1.0706858,1.0706858 0 0 1 0.923349,0 l 5.563433,2.6567141 c 0.292006,0.1393358 0.503343,0.4026739 0.575344,0.7153461 l 1.374691,5.9701066 c 0.072,0.313339 -0.0034,0.642012 -0.205337,0.89335 z m -2.192706,-1.371358 c -0.028,-0.0066 -0.06866,-0.01734 -0.09667,-0.02266 -0.116002,-0.022 -0.210004,-0.01666 -0.319339,-0.02534 -0.233338,-0.02466 -0.425341,-0.04466 -0.596677,-0.09867 -0.07,-0.02666 -0.120003,-0.110002 -0.144003,-0.144002 l -0.134002,-0.03934 a 4.3000768,4.3000768 0 0 0 -0.07,-1.554695 4.3100769,4.3100769 0 0 0 -0.624011,-1.4420265 c 0.03466,-0.031336 0.100002,-0.088668 0.118002,-0.1060014 0.0054,-0.060001 6.66e-4,-0.1220022 0.06267,-0.1880034 0.131335,-0.1233355 0.296005,-0.2253374 0.495342,-0.3480062 0.09467,-0.056001 0.182003,-0.091335 0.276672,-0.1613362 0.02134,-0.016 0.05066,-0.041334 0.07334,-0.059334 0.160002,-0.1273358 0.19667,-0.346673 0.082,-0.4906756 -0.114668,-0.1440025 -0.337339,-0.1573361 -0.496675,-0.030001 -0.02266,0.018 -0.05334,0.041334 -0.074,0.058668 -0.08934,0.077334 -0.14467,0.153336 -0.220004,0.2333375 -0.164003,0.1666697 -0.300006,0.3053389 -0.448674,0.4060074 -0.06467,0.037334 -0.159337,0.024667 -0.202005,0.022001 l -0.126677,0.090003 a 4.3634113,4.3634113 0 0 0 -2.764048,-1.335353 l -0.008,-0.1486693 c -0.04334,-0.041334 -0.09533,-0.076668 -0.108668,-0.1666696 -0.01466,-0.1786699 0.01,-0.37134 0.038,-0.6033441 0.01534,-0.1086686 0.04066,-0.1986702 0.04534,-0.3166724 6.66e-4,-0.026667 -6.66e-4,-0.066001 -6.66e-4,-0.094668 0,-0.2040037 -0.149336,-0.3700066 -0.33334,-0.3700066 -0.183336,0 -0.332673,0.1660029 -0.332673,0.3700066 l 6.68e-4,0.00933 c 0,0.027334 -0.0014,0.061334 0,0.085335 0.004,0.1180021 0.02934,0.2080038 0.04466,0.3166723 0.028,0.2320042 0.052,0.4246743 0.03734,0.6040108 a 0.36333982,0.36333982 0 0 1 -0.108002,0.1720031 l -0.008,0.1406692 A 4.2827432,4.2827432 0 0 0 7.8557734,8.3167389 5.5820997,5.5820997 0 0 1 7.7357712,8.231404 C 7.6757702,8.239404 7.6157689,8.258071 7.5377675,8.21207 7.3890982,8.1120686 7.2530957,7.9733995 7.0890928,7.8067297 7.0137581,7.7267283 6.9590905,7.6507269 6.8697555,7.5740589 c -0.02,-0.017334 -0.051334,-0.041334 -0.074002,-0.058668 A 0.39600707,0.39600707 0 0 0 6.5637501,7.4273896 0.32067239,0.32067239 0 0 0 6.298412,7.544725 C 6.1837433,7.6887276 6.22041,7.9087315 6.380414,8.0360673 l 0.00466,0.00334 0.069334,0.055334 c 0.094668,0.070001 0.1813366,0.1060018 0.276005,0.1613362 0.1993368,0.1233355 0.3640065,0.2253373 0.4953422,0.3480062 0.050667,0.054668 0.060001,0.1506694 0.066668,0.1920034 l 0.1066685,0.095335 A 4.3080769,4.3080769 0 0 0 6.7190835,11.895472 l -0.1386692,0.04 c -0.036667,0.048 -0.088668,0.122669 -0.1433358,0.14467 -0.1713364,0.054 -0.3640065,0.07334 -0.5966774,0.098 -0.1093352,0.0093 -0.2033369,0.004 -0.3200057,0.026 -0.024667,0.0046 -0.060001,0.01334 -0.088668,0.02 l -0.00266,0.0014 -0.00466,0.0014 c -0.1966702,0.04734 -0.3226724,0.228004 -0.282005,0.405341 0.040667,0.178003 0.2326708,0.286005 0.4300076,0.243338 l 0.00466,-6.67e-4 0.00666,-0.002 0.086002,-0.01934 c 0.1133353,-0.03066 0.1960035,-0.07534 0.298672,-0.114669 0.2200039,-0.07867 0.4026738,-0.144669 0.5800103,-0.17067 0.074668,-0.006 0.153336,0.046 0.1920034,0.06734 l 0.1446693,-0.02466 a 4.3334107,4.3334107 0 0 0 1.9200345,2.397376 l -0.06,0.145336 c 0.022,0.056 0.046,0.132669 0.029336,0.188003 -0.064672,0.168004 -0.1753365,0.344673 -0.3013388,0.54201 -0.060668,0.09067 -0.1233355,0.161336 -0.1786698,0.266005 -0.013334,0.02466 -0.030001,0.06334 -0.042667,0.08933 -0.085335,0.183337 -0.022667,0.394008 0.1420026,0.473342 0.1653363,0.08 0.3706733,-0.0046 0.4600085,-0.188003 v -0.0014 c 0.013336,-0.026 0.030664,-0.06 0.041336,-0.08467 0.046664,-0.108002 0.062664,-0.20067 0.096002,-0.305339 0.088002,-0.221337 0.1366689,-0.453341 0.2580041,-0.59801 0.033336,-0.04 0.086669,-0.05467 0.143336,-0.07 l 0.075336,-0.136669 a 4.3020768,4.3020768 0 0 0 3.0727209,0.008 l 0.07066,0.128003 c 0.05734,0.01866 0.120003,0.028 0.17067,0.103335 0.09067,0.154669 0.15267,0.338005 0.228004,0.560009 0.03334,0.104002 0.04934,0.196671 0.09667,0.304673 0.01066,0.02466 0.02866,0.06 0.04134,0.086 0.08867,0.184003 0.294672,0.268005 0.460008,0.188003 0.16467,-0.07866 0.227338,-0.290004 0.142003,-0.473341 -0.01334,-0.026 -0.03,-0.064 -0.04334,-0.08934 -0.05534,-0.104002 -0.118002,-0.174003 -0.178669,-0.265338 -0.126669,-0.197337 -0.230672,-0.360673 -0.295339,-0.528676 -0.02666,-0.08667 0.0046,-0.140003 0.02534,-0.196004 -0.012,-0.01466 -0.03934,-0.096 -0.05534,-0.134669 a 4.3327441,4.3327441 0 0 0 1.920034,-2.41471 c 0.04266,0.0066 0.117336,0.02 0.142003,0.02534 0.05,-0.03334 0.096,-0.076 0.18667,-0.06934 0.177336,0.026 0.360007,0.092 0.58001,0.17067 0.102669,0.04 0.18467,0.08534 0.298672,0.115335 0.024,0.0066 0.05867,0.01266 0.08667,0.01866 l 0.006,0.002 0.0046,6.67e-4 c 0.198003,0.04266 0.38934,-0.06534 0.430008,-0.243337 0.04,-0.177337 -0.08534,-0.358007 -0.282006,-0.405341 z M 13.933215,9.4800927 12.633192,10.644114 v 0.0034 a 0.29333857,0.29333857 0 0 0 0.115335,0.504675 l 0.002,0.0066 1.684031,0.485342 a 3.4660619,3.4660619 0 0 0 -0.072,-1.11602 3.472062,3.472062 0 0 0 -0.42934,-1.0486855 z m -2.675381,3.5500633 a 0.29133853,0.29133853 0 0 0 -0.269338,-0.154669 0.29333857,0.29333857 0 0 0 -0.248004,0.155336 h -0.0014 L 9.8937835,14.55885 a 3.4427281,3.4427281 0 0 0 2.2173725,0.002 l -0.846682,-1.530694 z m 1.258689,-0.862014 a 0.29333857,0.29333857 0 0 0 -0.180003,0.024 0.29333857,0.29333857 0 0 0 -0.14267,0.38134 l -0.002,0.0026 0.673346,1.625363 A 3.4333946,3.4333946 0 0 0 14.252554,12.45812 L 12.51919,12.164782 Z"
     id="path1"
     style="fill:currentColor"
     class="ColorScheme-Text" /></svg>
