<?xml version="1.0" encoding="UTF-8" standalone="no"?>
<svg
   viewBox="0 0 22 22"
   version="1.1"
   id="svg1"
   sodipodi:docname="folder-toy-symbolic22.svg"
   xml:space="preserve"
   inkscape:version="1.4.2 (ebf0e940d0, 2025-05-08)"
   xmlns:inkscape="http://www.inkscape.org/namespaces/inkscape"
   xmlns:sodipodi="http://sodipodi.sourceforge.net/DTD/sodipodi-0.dtd"
   xmlns="http://www.w3.org/2000/svg"
   xmlns:svg="http://www.w3.org/2000/svg"><sodipodi:namedview
     id="namedview1"
     pagecolor="#505050"
     bordercolor="#ffffff"
     borderopacity="1"
     inkscape:showpageshadow="0"
     inkscape:pageopacity="0"
     inkscape:pagecheckerboard="1"
     inkscape:deskcolor="#505050"
     inkscape:zoom="52.545455"
     inkscape:cx="10.990484"
     inkscape:cy="11"
     inkscape:window-width="2556"
     inkscape:window-height="1364"
     inkscape:window-x="0"
     inkscape:window-y="0"
     inkscape:window-maximized="1"
     inkscape:current-layer="svg1" /><defs
     id="defs3051"><style
       type="text/css"
       id="current-color-scheme">
      .ColorScheme-Text {
        color:#eff0f1
      }
      </style><style
       type="text/css"
       id="current-color-scheme-5">.ColorScheme-Text {color:#fcfcfc;}</style></defs><path
     d="M 14.333333,17.337777 C 13.595556,17.337777 13,16.591111 13,15.666667 c 0,-0.915556 0.595556,-1.662223 1.333333,-1.662223 0.737778,0 1.333334,0.746667 1.333334,1.662223 0,0.924444 -0.595556,1.67111 -1.333334,1.67111 M 11,10.333333 c -1.102223,0 -2,-0.746666 -2,-1.662222 C 9,7.746667 9.897777,7 11,7 c 1.102223,0 2,0.746667 2,1.671111 0,0.915556 -0.897777,1.662222 -2,1.662222 m -3.333333,7.004444 c -0.737778,0 -1.333334,-0.746666 -1.333334,-1.67111 0,-0.915556 0.595556,-1.662223 1.333334,-1.662223 0.737777,0 1.333333,0.746667 1.333333,1.662223 0,0.924444 -0.595556,1.67111 -1.333333,1.67111 M 11,7.666667 c 0.364444,0 0.666667,0.302222 0.666667,0.666666 C 11.666667,8.697777 11.364444,9 11,9 10.635556,9 10.333333,8.697777 10.333333,8.333333 10.333333,7.968889 10.635556,7.666667 11,7.666667 M 17,11 c -0.284444,0 -0.56,0.06223 -0.808889,0.177777 -0.426667,-0.542221 -1.004444,-1.004444 -1.697778,-1.36 0.506667,-0.71111 0.80889,-1.573333 0.80889,-2.506666 0,-0.01777 0,-0.03556 0,-0.05333 C 16.271111,7.053333 17,6.191111 17,5.151111 17,3.9688889 16.031111,3 14.848889,3 14.235556,3 13.666667,3.2577777 13.293333,3.6666667 12.626667,3.2488889 11.844444,3 11,3 10.155556,3 9.364444,3.2488889 8.706667,3.6666667 8.333333,3.2577777 7.764444,3 7.151111,3 5.9688889,3 5,3.9688889 5,5.151111 c 0,1.031112 0.7288889,1.893333 1.688889,2.106666 0,0.01777 0,0.03556 0,0.05333 0,0.933333 0.311111,1.804445 0.808888,2.506666 -0.684444,0.355556 -1.262221,0.817779 -1.6888881,1.36 C 5.56,11.062223 5.2844444,11 5,11 c -1.1111111,0 -2,0.888889 -2,2 0,1.111111 0.8888889,2 2,2 0.017777,0 0.035556,0 0.053333,0 C 5.0177773,15.213333 5,15.444444 5,15.666667 5,17.506667 6.191111,19 7.666667,19 c 0.897777,0 1.688889,-0.56 2.177777,-1.413333 0.373333,0.05333 0.755556,0.08 1.155556,0.08 0.4,0 0.782223,-0.02667 1.155556,-0.08 C 12.644444,18.44 13.435556,19 14.333333,19 15.808889,19 17,17.506667 17,15.666667 17,15.444444 16.982227,15.213333 16.946667,15 c 0.01777,0 0.03556,0 0.05333,0 1.111111,0 2,-0.888889 2,-2 0,-1.111111 -0.888889,-2 -2,-2"
     id="path1"
     style="fill:currentColor"
     class="ColorScheme-Text" /></svg>
