<?xml version="1.0" encoding="UTF-8" standalone="no"?>
<svg
   viewBox="0 0 22 22"
   version="1.1"
   id="svg1"
   sodipodi:docname="folder-health-symbolic22.svg"
   xml:space="preserve"
   inkscape:version="1.4.2 (ebf0e940d0, 2025-05-08)"
   xmlns:inkscape="http://www.inkscape.org/namespaces/inkscape"
   xmlns:sodipodi="http://sodipodi.sourceforge.net/DTD/sodipodi-0.dtd"
   xmlns="http://www.w3.org/2000/svg"
   xmlns:svg="http://www.w3.org/2000/svg"><sodipodi:namedview
     id="namedview1"
     pagecolor="#505050"
     bordercolor="#ffffff"
     borderopacity="1"
     inkscape:showpageshadow="0"
     inkscape:pageopacity="0"
     inkscape:pagecheckerboard="1"
     inkscape:deskcolor="#505050"
     inkscape:zoom="52.545455"
     inkscape:cx="10.990484"
     inkscape:cy="11"
     inkscape:window-width="2556"
     inkscape:window-height="1364"
     inkscape:window-x="0"
     inkscape:window-y="0"
     inkscape:window-maximized="1"
     inkscape:current-layer="svg1" /><defs
     id="defs3051"><style
       type="text/css"
       id="current-color-scheme">
      .ColorScheme-Text {
        color:#eff0f1
      }
      </style></defs><path
     d="m 16.6,7.8 c 0.448,0 0.8,0.344 0.8,0.8 a 0.8,0.8 0 0 1 -0.8,0.8 c -0.456,0 -0.8,-0.36 -0.8,-0.8 0,-0.456 0.344,-0.8 0.8,-0.8 M 3,3 v 7.2 c 0,2.368 1.752,4.4 4.112,4.728 C 7.608,17.336 9.736,19 12.2,19 a 5.2,5.2 0 0 0 5.2,-5.2 V 10.848 C 18.328,10.512 19,9.632 19,8.6 A 2.4,2.4 0 0 0 16.6,6.2 2.4,2.4 0 0 0 14.2,8.6 c 0,1.032 0.672,1.92 1.6,2.248 v 2.88 c 0,2 -1.6,3.6 -3.6,3.6 -1.6,0 -2.944,-0.968 -3.424,-2.408 C 11,14.44 12.6,12.44 12.6,10.2 V 3 H 9.4 V 5.4 H 11 v 4.8 A 3.2,3.2 0 0 1 7.8,13.4 3.2,3.2 0 0 1 4.6,10.2 V 5.4 H 6.2 V 3 Z"
     id="path1-7"
     style="fill:currentColor"
     class="ColorScheme-Text" /></svg>
