<?xml version="1.0" encoding="UTF-8" standalone="no"?>
<svg
   viewBox="0 0 22 22"
   version="1.1"
   id="svg1"
   sodipodi:docname="folder-pihole-symbolic22.svg"
   xml:space="preserve"
   inkscape:version="1.4.2 (ebf0e940d0, 2025-05-08)"
   xmlns:inkscape="http://www.inkscape.org/namespaces/inkscape"
   xmlns:sodipodi="http://sodipodi.sourceforge.net/DTD/sodipodi-0.dtd"
   xmlns="http://www.w3.org/2000/svg"
   xmlns:svg="http://www.w3.org/2000/svg"><sodipodi:namedview
     id="namedview1"
     pagecolor="#505050"
     bordercolor="#ffffff"
     borderopacity="1"
     inkscape:showpageshadow="0"
     inkscape:pageopacity="0"
     inkscape:pagecheckerboard="1"
     inkscape:deskcolor="#505050"
     inkscape:zoom="52.545455"
     inkscape:cx="10.990484"
     inkscape:cy="11"
     inkscape:window-width="2556"
     inkscape:window-height="1364"
     inkscape:window-x="0"
     inkscape:window-y="0"
     inkscape:window-maximized="1"
     inkscape:current-layer="svg1" /><defs
     id="defs3051"><style
       type="text/css"
       id="current-color-scheme">
      .ColorScheme-Text {
        color:#eff0f1
      }
      </style></defs><path
     d="m 5.998422,3 c 0.1586666,3.1946667 2.1706666,4.704 4.168,4.9173333 0.11,-1.128 -2.8793334,-3.7333333 -2.8793334,-3.7333333 -0.00533,-0.00733 0.006,-0.016667 0.012667,-0.00933 0,0 3.0986664,2.6733333 3.6153334,3.7633333 1.841334,-0.1 3.464,-1.298 3.333334,-3.2746667 0,0 -2.746667,-0.4086666 -3.333334,3.0786667 C 10.755755,4.8353333 9.0977552,3 5.998422,3 Z m 5.104,5.1213333 v 0.00133 a 2.4533333,2.4533333 0 0 0 -1.7273334,0.718 L 6.3957553,11.818 a 2.4553333,2.4553333 0 0 0 -0.5733333,0.904 2.2066667,2.2066667 0 0 0 -0.158,0.836667 2.454,2.454 0 0 0 0.718,1.741333 l 2.9759999,2.977333 A 2.46,2.46 0 0 0 10.859089,18.984 l 0.0013,6.67e-4 c 0.062,0.0067 0.124666,0.01 0.186666,0.01133 l -0.06667,-0.0053 c 0.04,0.002 0.078,0.006 0.118,0.006 l -0.05133,-6.97e-4 0.05533,0.004 -0.0027,-0.0033 a 2.4533333,2.4533333 0 0 0 1.740001,-0.718 l 2.979336,-2.9767 a 2.4553333,2.4553333 0 0 0 0.670667,-1.258667 l 0.008,-0.042 a 2.4546667,2.4546667 0 0 0 0.038,-0.360666 l 0.002,-0.04067 c 0,-0.01133 0.002,-0.03333 0.0027,-0.04 h -0.0013 a 2.4553333,2.4553333 0 0 0 -0.718,-1.738 l -2.9774,-2.9786637 a 2.4626667,2.4626667 0 0 0 -1.042667,-0.618 L 11.754422,8.212 a 2.2866667,2.2866667 0 0 0 -0.630667,-0.088667 z m 2.110001,2.2379997 c 0.01533,1.165334 -0.886668,2.052 -0.886668,3.204 0.109334,1.484667 1.155334,2.138 2.177334,2.097334 -0.02333,0.002 -0.04533,0.0047 -0.06933,0.006 -1.231333,0.09 -2.139334,-0.884 -3.334667,-0.884 C 9.6124249,14.892 8.9590916,15.94 9.0010916,16.962667 l -0.00533,-0.06933 C 8.9070886,15.662 9.8810886,14.753333 9.8810886,13.558667 9.7657552,12.012 8.6364219,11.369333 7.5744219,11.470667 c 0.066667,-0.0073 0.1353333,-0.014 0.2066667,-0.018 C 9.0124219,11.364 9.9204219,12.338 11.115755,12.338 c 1.388001,-0.103333 2.049334,-1.024 2.096668,-1.978667 z M 5.998422,3 c 0.1586666,3.1946667 2.1706666,4.704 4.168,4.9173333 0.11,-1.128 -2.8793334,-3.7333333 -2.8793334,-3.7333333 -0.00533,-0.00733 0.006,-0.016667 0.012667,-0.00933 0,0 3.0986664,2.6733333 3.6153334,3.7633333 1.841334,-0.1 3.464,-1.298 3.333334,-3.2746667 0,0 -2.746667,-0.4086666 -3.333334,3.0786667 C 10.755755,4.8353333 9.0977552,3 5.998422,3 Z m 5.104,5.1213333 v 0.00133 a 2.4533333,2.4533333 0 0 0 -1.7273334,0.718 L 6.3957553,11.818 a 2.4553333,2.4553333 0 0 0 -0.5733333,0.904 2.2066667,2.2066667 0 0 0 -0.158,0.836667 2.454,2.454 0 0 0 0.718,1.741333 l 2.9759999,2.977333 A 2.46,2.46 0 0 0 10.859089,18.984 l 0.0013,6.67e-4 c 0.062,0.0067 0.124666,0.01 0.186666,0.01133 l -0.06667,-0.0053 c 0.04,0.002 0.078,0.006 0.118,0.006 l -0.05133,-6.97e-4 0.05533,0.004 -0.0027,-0.0033 a 2.4533333,2.4533333 0 0 0 1.740001,-0.718 l 2.979336,-2.9767 a 2.4553333,2.4553333 0 0 0 0.670667,-1.258667 l 0.008,-0.042 a 2.4546667,2.4546667 0 0 0 0.038,-0.360666 l 0.002,-0.04067 c 0,-0.01133 0.002,-0.03333 0.0027,-0.04 h -0.0013 a 2.4553333,2.4553333 0 0 0 -0.718,-1.738 l -2.9774,-2.9786637 a 2.4626667,2.4626667 0 0 0 -1.042667,-0.618 L 11.754422,8.212 a 2.2866667,2.2866667 0 0 0 -0.630667,-0.088667 z m 2.110001,2.2379997 c 0.01533,1.165334 -0.886668,2.052 -0.886668,3.204 0.109334,1.484667 1.155334,2.138 2.177334,2.097334 -0.02333,0.002 -0.04533,0.0047 -0.06933,0.006 -1.231333,0.09 -2.139334,-0.884 -3.334667,-0.884 C 9.6124249,14.892 8.9590916,15.94 9.0010916,16.962667 l -0.00533,-0.06933 C 8.9070886,15.662 9.8810886,14.753333 9.8810886,13.558667 9.7657552,12.012 8.6364219,11.369333 7.5744219,11.470667 c 0.066667,-0.0073 0.1353333,-0.014 0.2066667,-0.018 C 9.0124219,11.364 9.9204219,12.338 11.115755,12.338 c 1.388001,-0.103333 2.049334,-1.024 2.096668,-1.978667 z"
     id="path1-7"
     style="fill:currentColor"
     class="ColorScheme-Text" /></svg>
