<?xml version="1.0" encoding="UTF-8" standalone="no"?>
<svg
   viewBox="0 0 22 22"
   version="1.1"
   id="svg1"
   sodipodi:docname="folder-orcaslicer-symbolic22.svg"
   xml:space="preserve"
   inkscape:version="1.4.2 (ebf0e940d0, 2025-05-08)"
   xmlns:inkscape="http://www.inkscape.org/namespaces/inkscape"
   xmlns:sodipodi="http://sodipodi.sourceforge.net/DTD/sodipodi-0.dtd"
   xmlns="http://www.w3.org/2000/svg"
   xmlns:svg="http://www.w3.org/2000/svg"><sodipodi:namedview
     id="namedview1"
     pagecolor="#505050"
     bordercolor="#ffffff"
     borderopacity="1"
     inkscape:showpageshadow="0"
     inkscape:pageopacity="0"
     inkscape:pagecheckerboard="1"
     inkscape:deskcolor="#505050"
     inkscape:zoom="52.545455"
     inkscape:cx="10.990484"
     inkscape:cy="11"
     inkscape:window-width="2556"
     inkscape:window-height="1364"
     inkscape:window-x="0"
     inkscape:window-y="0"
     inkscape:window-maximized="1"
     inkscape:current-layer="svg1" /><defs
     id="defs3051"><style
       type="text/css"
       id="current-color-scheme">
      .ColorScheme-Text {
        color:#eff0f1
      }
      </style><style
       type="text/css"
       id="current-color-scheme-5">.ColorScheme-Text {color:#fcfcfc;}</style></defs><path
     d="m 17.419147,9.947029 -0.008,-0.02267 c 0,-0.004 -0.004,-0.01067 -0.004,-0.01507 l -0.01507,-0.04147 C 17.000453,8.787096 16.409253,7.8344026 15.6486,7.032336 L 19,3.6621092 C 18.747693,3.4098159 18.476573,3.1838825 18.19792,2.9692425 16.819707,1.9224025 15.144013,1.3462692 13.41936,1.3500292 11.962081,1.3460292 10.531147,1.7529492 9.2922676,2.5173625 8.5203211,2.3140292 7.7295345,2.2161225 6.931228,2.2198825 5.6245616,2.2305492 4.3329617,2.5211359 3.146802,3.0671492 c -0.128,0.060267 -0.18076,0.2071067 -0.1242667,0.3351333 0.033867,0.0716 0.097867,0.1242667 0.1732134,0.1393334 1.2878397,0.26736 2.4325862,0.99788 3.2233594,2.0522533 C 5.4513483,7.442776 5.2442416,9.600469 5.8429748,11.600003 c 0.3690267,1.223826 1.0242399,2.353506 1.9355197,3.279853 l -3.2572528,3.355147 -0.0904,0.09413 0.1393334,0.131733 c 0.008,0.004 0.010667,0.01067 0.0188,0.01507 l 0.008,0.008 c 1.4497597,1.36692 3.3664528,2.135093 5.365999,2.142627 4.3982269,-0.01067 7.9529459,-3.584854 7.9416529,-7.98308 0,-0.926347 -0.173214,-1.837614 -0.48576,-2.696174 m -5.02708,-5.8103331 c 1.005413,-0.5761334 2.056014,-0.6250934 2.349734,-0.1129334 0.289946,0.51212 -0.289946,1.39704 -1.295374,1.9694002 -1.005414,0.5761466 -2.056013,0.6250933 -2.34596,0.1129333 -0.29372,-0.5121201 0.286174,-1.3932668 1.2916,-1.9694135 m 3.132973,3.0915602 c 0.704173,0.7531199 1.250187,1.6418133 1.622987,2.6396933 -3.765614,3.020013 -7.8098661,5.731253 -12.0198121,8.065933 z"
     style="fill:currentColor"
     id="path1"
     class="ColorScheme-Text" /></svg>
