<?xml version="1.0" encoding="UTF-8" standalone="no"?>
<svg
   viewBox="0 0 22 22"
   version="1.1"
   id="svg1"
   sodipodi:docname="folder-freecad-symbolic22.svg"
   xml:space="preserve"
   inkscape:version="1.4.2 (ebf0e940d0, 2025-05-08)"
   xmlns:inkscape="http://www.inkscape.org/namespaces/inkscape"
   xmlns:sodipodi="http://sodipodi.sourceforge.net/DTD/sodipodi-0.dtd"
   xmlns="http://www.w3.org/2000/svg"
   xmlns:svg="http://www.w3.org/2000/svg"><sodipodi:namedview
     id="namedview1"
     pagecolor="#505050"
     bordercolor="#ffffff"
     borderopacity="1"
     inkscape:showpageshadow="0"
     inkscape:pageopacity="0"
     inkscape:pagecheckerboard="1"
     inkscape:deskcolor="#505050"
     inkscape:zoom="52.545455"
     inkscape:cx="10.990484"
     inkscape:cy="11"
     inkscape:window-width="2556"
     inkscape:window-height="1364"
     inkscape:window-x="0"
     inkscape:window-y="0"
     inkscape:window-maximized="1"
     inkscape:current-layer="svg1" /><defs
     id="defs3051"><style
       type="text/css"
       id="current-color-scheme">
      .ColorScheme-Text {
        color:#eff0f1
      }
      </style><style
       type="text/css"
       id="current-color-scheme-5">.ColorScheme-Text {color:#fcfcfc;}</style></defs><path
     d="M 17.027684,9.510613 18.767524,8.24696 C 18.913761,8.142027 19,7.97324 19,7.793253 L 18.996,4.5985067 V 1.4 H 6.198456 L 3,4.5985067 V 20.598507 h 6.438151 c 0.243717,0 0.457446,-0.157494 0.532445,-0.386227 l 0.577444,-1.781107 c 0.05627,-0.168746 0.187477,-0.303733 0.359968,-0.359973 l 0.446207,-0.14624 c 0.16873,-0.05627 0.356221,-0.02627 0.502458,0.0788 l 1.514856,1.102413 c 0.194983,0.14248 0.461206,0.14248 0.659936,0 L 15.388831,18.12 c 0.194984,-0.142493 0.277476,-0.39372 0.202489,-0.6262 l -0.577444,-1.78112 c -0.05627,-0.168733 -0.02627,-0.356213 0.0788,-0.502453 l 0.273729,-0.37872 c 0.104934,-0.14624 0.27373,-0.23248 0.453714,-0.23248 h 1.874822 c 0.243718,0 0.457447,-0.157494 0.532446,-0.386227 l 0.517445,-1.597373 c 0.07493,-0.23248 -0.008,-0.483707 -0.202477,-0.6262 L 17.027497,10.886813 C 16.88126,10.78188 16.795021,10.61308 16.795021,10.433093 V 9.964387 c 0,-0.179987 0.08627,-0.34872 0.232476,-0.45372 M 15.797611,7.8008 H 9.396965 v 2.399813 h 3.198456 V 13.39912 H 9.396965 V 17.4 H 6.198523 V 4.5985067 h 9.599088 z"
     style="fill:currentColor"
     id="path1"
     class="ColorScheme-Text" /></svg>
