<?xml version="1.0" encoding="UTF-8" standalone="no"?>
<svg
   viewBox="0 0 22 22"
   version="1.1"
   id="svg1"
   sodipodi:docname="folder-certificate-symbolic22.svg"
   xml:space="preserve"
   inkscape:version="1.4.2 (ebf0e940d0, 2025-05-08)"
   xmlns:inkscape="http://www.inkscape.org/namespaces/inkscape"
   xmlns:sodipodi="http://sodipodi.sourceforge.net/DTD/sodipodi-0.dtd"
   xmlns="http://www.w3.org/2000/svg"
   xmlns:svg="http://www.w3.org/2000/svg"><sodipodi:namedview
     id="namedview1"
     pagecolor="#505050"
     bordercolor="#ffffff"
     borderopacity="1"
     inkscape:showpageshadow="0"
     inkscape:pageopacity="0"
     inkscape:pagecheckerboard="1"
     inkscape:deskcolor="#505050"
     inkscape:zoom="52.545455"
     inkscape:cx="11.009516"
     inkscape:cy="11"
     inkscape:window-width="2556"
     inkscape:window-height="1364"
     inkscape:window-x="0"
     inkscape:window-y="0"
     inkscape:window-maximized="1"
     inkscape:current-layer="svg1" /><defs
     id="defs3051"><style
       type="text/css"
       id="current-color-scheme">
      .ColorScheme-Text {
        color:#eff0f1
      }
      </style></defs><path
     d="M 12.357143,11.380952 V 9.8571429 L 10.833333,10.619048 9.3095238,9.8571429 v 1.5238091 l -1.5238095,0.761905 1.5238095,0.761905 v 1.523809 l 1.5238092,-0.761904 1.52381,0.761904 v -1.523809 l 1.523809,-0.761905 M 12.357143,3 H 7.0238095 A 1.5238095,1.5238095 0 0 0 5.5,4.5238095 V 15.190476 a 1.5238095,1.5238095 0 0 0 1.5238095,1.52381 h 0.7619048 v -1.52381 H 7.0238095 V 4.5238095 h 4.5714285 v 3.0476191 h 3.047619 v 7.6190474 h -0.761905 v 1.52381 h 0.761905 a 1.5238095,1.5238095 0 0 0 1.52381,-1.52381 V 6.8095238 M 12.357143,11.380952 V 9.8571429 L 10.833333,10.619048 9.3095238,9.8571429 v 1.5238091 l -1.5238095,0.761905 1.5238095,0.761905 v 1.523809 l 1.5238092,-0.761904 1.52381,0.761904 v -1.523809 l 1.523809,-0.761905 M 9.3095238,19 10.833333,18.238095 12.357143,19 V 15.190476 H 9.3095238 M 12.357143,11.380952 V 9.8571429 L 10.833333,10.619048 9.3095238,9.8571429 v 1.5238091 l -1.5238095,0.761905 1.5238095,0.761905 v 1.523809 l 1.5238092,-0.761904 1.52381,0.761904 v -1.523809 l 1.523809,-0.761905 z"
     id="path2"
     style="fill:currentColor"
     class="ColorScheme-Text" /></svg>
