<?xml version="1.0" encoding="UTF-8" standalone="no"?>
<svg
   viewBox="0 0 64 64"
   version="1.1"
   id="svg12"
   sodipodi:docname="folder-design.svg"
   inkscape:version="1.2 (dc2aedaf03, 2022-05-15)"
   xmlns:inkscape="http://www.inkscape.org/namespaces/inkscape"
   xmlns:sodipodi="http://sodipodi.sourceforge.net/DTD/sodipodi-0.dtd"
   xmlns="http://www.w3.org/2000/svg"
   xmlns:svg="http://www.w3.org/2000/svg"
   xmlns:rdf="http://www.w3.org/1999/02/22-rdf-syntax-ns#"
   xmlns:cc="http://creativecommons.org/ns#"
   xmlns:dc="http://purl.org/dc/elements/1.1/">
  <metadata
     id="metadata16">
    <rdf:RDF>
      <cc:Work
         rdf:about="">
        <dc:format>image/svg+xml</dc:format>
        <dc:type
           rdf:resource="http://purl.org/dc/dcmitype/StillImage" />
      </cc:Work>
    </rdf:RDF>
  </metadata>
  <sodipodi:namedview
     pagecolor="#ffffff"
     bordercolor="#666666"
     borderopacity="1"
     objecttolerance="10"
     gridtolerance="10"
     guidetolerance="10"
     inkscape:pageopacity="0"
     inkscape:pageshadow="2"
     inkscape:window-width="1920"
     inkscape:window-height="1000"
     id="namedview14"
     showgrid="true"
     inkscape:zoom="5.6568543"
     inkscape:cx="46.050329"
     inkscape:cy="33.14563"
     inkscape:window-x="0"
     inkscape:window-y="0"
     inkscape:window-maximized="1"
     inkscape:current-layer="svg12"
     inkscape:document-rotation="0"
     inkscape:lockguides="false"
     inkscape:showpageshadow="2"
     inkscape:pagecheckerboard="0"
     inkscape:deskcolor="#d1d1d1">
    <inkscape:grid
       type="xygrid"
       id="grid841" />
  </sodipodi:namedview>
  <defs
     id="defs3051">
    <style
       type="text/css"
       id="current-color-scheme">
      .ColorScheme-Text {
        color:#31363b;
      }
      .ColorScheme-Background {
        color:#eff0f1;
      }
      .ColorScheme-Highlight {
        color:#3daee9;
      }
      .ColorScheme-ViewText {
        color:#31363b;
      }
      .ColorScheme-ViewBackground {
        color:#fcfcfc;
      }
      .ColorScheme-ViewHover {
        color:#93cee9;
      }
      .ColorScheme-ViewFocus{
        color:#3daee9;
      }
      .ColorScheme-ButtonText {
        color:#31363b;
      }
      .ColorScheme-ButtonBackground {
        color:#eff0f1;
      }
      .ColorScheme-ButtonHover {
        color:#93cee9;
      }
      .ColorScheme-ButtonFocus{
        color:#3daee9;
      }
      </style>
  </defs>
  <path
     style="fill:currentColor;fill-opacity:1;stroke:none"
     d="m 9,6.000034 c -3,0 -5,2 -4.992,5.197014 L 4,20 c -0.5255187,0 -1,0.363715 -1,1 l 0.008,0.197048 H 3.01 c -5e-5,0.004 -0.002,0.008 -0.002,0.01172 L 3,53 c 0,3 2,5 5,5 v 0 h 48 v 0 c 3,0 5,-2 5,-5 l 0.008,-31.791232 v -0.01172 L 61,17 c 0,-0.484427 -0.416433,-1 -1,-1 v 0 0 l 0.008,-0.802952 C 60,12 58,10 55,10 H 32 C 32,8 30,6 28,6.000034 Z"
     class="ColorScheme-Highlight"
     id="path4"
     sodipodi:nodetypes="ccccccsccccccccccccccccc" />
  <path
     style="fill-opacity:0.33;fill-rule:evenodd"
     d="M 9,6 C 6,6 4,8 4.0000003,11 v 9 H 22 l 4,-4 h 34 v -1 0 0 c 0,-3 -2,-5 -5,-5 L 32,9.9999657 C 32,8 30,6 28,5.9999657 Z"
     id="path6"
     sodipodi:nodetypes="ccccccccccccc" />
  <path
     style="fill:#737373;fill-opacity:0.2;fill-rule:evenodd;opacity:0.01"
     d="m 28,6 3,5 h 2 22 V 10 H 33 32 C 32,8 30,6 28,6 Z m -2,10 -4,4 H 4 c -0.5804871,0 -1,0.403257 -1,1 h 20 z"
     id="path8"
     sodipodi:nodetypes="cccccccccccccc" />
  <path
     style="fill-opacity:0.2;fill-rule:evenodd"
     d="m 26,16 -6,3 H 4 v 1 H 22 Z M 5,57 c 0,0.416776 2,1 3,1 h 2 42 3 c 2.476706,0 4,-0.558829 4,-1 H 52 10 Z"
     class="ColorScheme-Text"
     id="path10"
     sodipodi:nodetypes="ccccccccccccccc" />
  <path
     style="color:#232629;fill:#e5e5e5;fill-opacity:1;stroke:none"
     d="m 31.801213,22.1 c -0.50689,0 -0.92188,0.409126 -0.92188,0.916016 v 0.83789 c -1.633389,0.41943 -2.808589,1.868131 -2.808589,3.609375 0,1.21888 0.581934,2.303638 1.490234,2.986328 0.09669,0.114271 0.15625,0.258772 0.15625,0.419922 0,0.04688 4.1e-5,0.09277 -0.0059,0.136719 l -4.037109,8.556641 h -1.669922 c -0.27249,0 -0.496094,0.219697 -0.496094,0.492187 v 0.002 c 0,0.27249 0.223604,0.492188 0.496094,0.492188 h 1.205078 l -3.117188,6.607422 c -0.19631,0.41899 -0.09867,0.903287 0.208985,1.216797 L 21.1,50.812938 22.998437,48.756297 c 0.50396,0.13185 1.042945,-0.108347 1.271485,-0.591797 l 3.59375,-7.615234 h 3.158201 v 0.654297 c 0,0.41606 0.33882,0.751953 0.75781,0.751953 h 0.041 c 0.41899,0 0.75977,-0.335893 0.75977,-0.751953 v -0.654297 h 3.23047 l 3.59179,7.615234 c 0.22562,0.48638 0.76851,0.723647 1.26954,0.591797 l 1.89843,2.056641 -1.19726,-2.439453 c 0.30472,-0.31351 0.40334,-0.794877 0.20703,-1.216797 l -3.11719,-6.607422 h 1.13086 c 0.27542,0 0.49609,-0.219698 0.49609,-0.492188 0,-0.27249 -0.22067,-0.49124 -0.49609,-0.49414 h -1.5957 l -4.03516,-8.556641 c -0.006,-0.04395 -0.006,-0.08984 -0.006,-0.136719 0,-0.15822 0.0586,-0.305651 0.15235,-0.419922 0.9083,-0.68269 1.49414,-1.767448 1.49414,-2.986328 0,-1.765071 -1.23047,-3.23164 -2.88282,-3.628906 v -0.818359 c 0,-0.50689 -0.4101,-0.916016 -0.91992,-0.916016 z m 0.87695,3.378906 c 0.77718,0.326475 1.32227,1.091537 1.32227,1.984375 0,1.18958 -0.96667,2.154297 -2.16211,2.154297 -1.2013,0 -2.16211,-0.964717 -2.16211,-2.154297 0,-0.863919 0.51356,-1.604318 1.25391,-1.947265 0.10977,0.381986 0.44956,0.667969 0.87109,0.667969 0.43244,-1e-6 0.77929,-0.303272 0.87695,-0.705079 z m -0.85742,7.154297 h 0.0176 0.0176 c 0.1172,0 0.2207,0.05468 0.28516,0.136719 l 3.20508,6.792969 h -2.76563 v -0.794922 c 0,-0.41899 -0.34077,-0.75586 -0.75976,-0.75586 h -0.041 c -0.41898,10e-7 -0.75781,0.3398 -0.75781,0.75586 v 0.794922 h -2.693357 l 3.205077,-6.792969 c 0.0674,-0.08497 0.16991,-0.136719 0.28711,-0.136719 z"
     class="ColorScheme-Text"
     id="path8133" />
</svg>
