<?xml version="1.0" encoding="UTF-8" standalone="no"?>
<svg
   xmlns:dc="http://purl.org/dc/elements/1.1/"
   xmlns:cc="http://creativecommons.org/ns#"
   xmlns:rdf="http://www.w3.org/1999/02/22-rdf-syntax-ns#"
   xmlns:svg="http://www.w3.org/2000/svg"
   xmlns="http://www.w3.org/2000/svg"
   xmlns:sodipodi="http://sodipodi.sourceforge.net/DTD/sodipodi-0.dtd"
   xmlns:inkscape="http://www.inkscape.org/namespaces/inkscape"
   inkscape:version="1.0.2 (e86c870879, 2021-01-15)"
   sodipodi:docname="folder-development.svg"
   id="svg14"
   version="1.1"
   viewBox="0 0 64 64">
  <metadata
     id="metadata18">
    <rdf:RDF>
      <cc:Work
         rdf:about="">
        <dc:format>image/svg+xml</dc:format>
        <dc:type
           rdf:resource="http://purl.org/dc/dcmitype/StillImage" />
      </cc:Work>
    </rdf:RDF>
  </metadata>
  <sodipodi:namedview
     inkscape:current-layer="svg14"
     inkscape:window-maximized="1"
     inkscape:window-y="0"
     inkscape:window-x="0"
     inkscape:cy="24.849451"
     inkscape:cx="16.245523"
     inkscape:zoom="6.9384853"
     showgrid="true"
     id="namedview16"
     inkscape:window-height="1007"
     inkscape:window-width="1920"
     inkscape:pageshadow="2"
     inkscape:pageopacity="0"
     guidetolerance="10"
     gridtolerance="10"
     objecttolerance="10"
     borderopacity="1"
     bordercolor="#666666"
     pagecolor="#ffffff"
     inkscape:document-rotation="0">
    <inkscape:grid
       type="xygrid"
       id="grid835" />
  </sodipodi:namedview>
  <defs
     id="defs3051">
    <style
       id="current-color-scheme"
       type="text/css">
      .ColorScheme-Text {
        color:#31363b;
      }
      .ColorScheme-Background {
        color:#eff0f1;
      }
      .ColorScheme-Highlight {
        color:#3daee9;
      }
      .ColorScheme-ViewText {
        color:#31363b;
      }
      .ColorScheme-ViewBackground {
        color:#fcfcfc;
      }
      .ColorScheme-ViewHover {
        color:#93cee9;
      }
      .ColorScheme-ViewFocus{
        color:#3daee9;
      }
      .ColorScheme-ButtonText {
        color:#31363b;
      }
      .ColorScheme-ButtonBackground {
        color:#eff0f1;
      }
      .ColorScheme-ButtonHover {
        color:#93cee9;
      }
      .ColorScheme-ButtonFocus{
        color:#3daee9;
      }
      </style>
  </defs>
  <path
     id="path4"
     class="ColorScheme-Highlight"
     d="M 9,6 C 6,6 4,8 4,11 v 9 0 C 3.3790248,19.99963 3,20.390263 3,21 H 3.00195 C 3.0019031,21.004 3,21.008019 3,21.011719 V 53 c 0,3 2,5 5,5 v 0 h 48 v 0 c 3,0 5,-2 5,-5 V 21.011719 21 17 c 0,-0.710874 -0.46875,-1 -1,-1 l -0.007,-0.0089 v 0 L 60,16 c 0,-3 -1,-6 -5,-6 H 32 C 32,8 31,6 28,6 Z"
     style="fill:currentColor;fill-opacity:1;stroke:none"
     sodipodi:nodetypes="ccccccsccccccccccccccccc" />
  <path
     id="path6"
     d="M 9,6 C 6,6 4,8 4,11 v 9 h 18 l 4,-4 h 34 l -0.007,-0.0089 L 60,16 v 0 c 0,-4.244895 -2,-6 -5,-6 H 32 C 32,8 31,6 28,6 Z"
     style="fill-opacity:0.33;fill-rule:evenodd"
     sodipodi:nodetypes="ccccccscccccc" />
  <path
     id="path8"
     d="m 28,6 c 3,0 4,2 4,5 v 0 H 55 V 10 H 32 v 0 C 32,8 30.407336,6.0814742 28,6 Z m -2,10 -4,4 H 4 l -1,1 h 20 z"
     style="opacity:0.01;fill:#ffffff;fill-opacity:0.2;fill-rule:evenodd"
     sodipodi:nodetypes="cccccccccccccc" />
  <path
     id="path10"
     class="ColorScheme-Text"
     d="m 26,16 -6,3 H 4 v 1 H 22 Z M 5.1,57 c 0,0.219986 1.1655165,1 3,1 v 0 h 48 v 0 c 1.636205,0 2.9,-0.777203 3,-1 v 0 z"
     style="fill-opacity:0.2;fill-rule:evenodd"
     sodipodi:nodetypes="cccccccccccccc" />
  <path
     id="path12"
     class="ColorScheme-Background"
     d="M 22 27 L 22 32 L 22 45.75 L 22 47 L 42 47 L 42 45.75 L 42 39.5 L 42 32 L 42 27 L 22 27 z M 23 32 L 41 32 L 41 46 C 35.08178 45.9387 28.91614 45.87139 23 46 L 23 32 z M 30 36 L 30 42 L 35 39 L 30 36 z "
     style="fill:#e5e5e5;fill-opacity:1;stroke:none" />
</svg>
