<?xml version="1.0" encoding="UTF-8" standalone="no"?>
<svg
   viewBox="0 0 22 22"
   version="1.1"
   id="svg1"
   sodipodi:docname="folder-tools-symbolic22.svg"
   xml:space="preserve"
   inkscape:version="1.4.2 (ebf0e940d0, 2025-05-08)"
   xmlns:inkscape="http://www.inkscape.org/namespaces/inkscape"
   xmlns:sodipodi="http://sodipodi.sourceforge.net/DTD/sodipodi-0.dtd"
   xmlns="http://www.w3.org/2000/svg"
   xmlns:svg="http://www.w3.org/2000/svg"><sodipodi:namedview
     id="namedview1"
     pagecolor="#505050"
     bordercolor="#ffffff"
     borderopacity="1"
     inkscape:showpageshadow="0"
     inkscape:pageopacity="0"
     inkscape:pagecheckerboard="1"
     inkscape:deskcolor="#505050"
     inkscape:zoom="52.545455"
     inkscape:cx="10.990484"
     inkscape:cy="11"
     inkscape:window-width="2556"
     inkscape:window-height="1364"
     inkscape:window-x="0"
     inkscape:window-y="0"
     inkscape:window-maximized="1"
     inkscape:current-layer="svg1" /><defs
     id="defs3051"><style
       type="text/css"
       id="current-color-scheme">
      .ColorScheme-Text {
        color:#eff0f1
      }
      </style></defs><path
     d="m 18.767384,17.630444 -1.13591,1.13591 a 0.79993659,0.79993659 0 0 1 -1.127911,0 L 7.0003168,9.2791062 A 3.0477584,3.0477584 0 0 1 6.2003802,9.3990967 3.1997464,3.1997464 0 0 1 3.1766199,5.1594325 L 5.2084588,7.1912714 5.6324252,6.767305 6.7683351,5.6313951 7.1923015,5.2074287 5.1604626,3.1755897 A 3.1997464,3.1997464 0 0 1 9.4001265,6.1993501 3.0477584,3.0477584 0 0 1 9.280136,6.9992866 l 9.487248,9.5032474 a 0.79993659,0.79993659 0 0 1 0,1.12791 M 3.2326154,16.502534 a 0.79993659,0.79993659 0 0 0 0,1.12791 l 1.13591,1.13591 a 0.79993659,0.79993659 0 0 0 1.1279106,0 L 9.8720891,14.3987 7.6082686,12.13488 M 17.399492,2.9996037 14.199746,4.5994769 v 1.5998732 l -1.735863,1.7358624 1.599873,1.5998734 1.735863,-1.7358627 h 1.599873 l 1.599873,-3.1997463 z"
     id="path1-7"
     style="fill:currentColor"
     class="ColorScheme-Text" /></svg>
