<?xml version="1.0" encoding="UTF-8" standalone="no"?>
<svg
   viewBox="0 0 22 22"
   version="1.1"
   id="svg1"
   sodipodi:docname="folder-webmin-symbolic22.svg"
   xml:space="preserve"
   inkscape:version="1.4.2 (ebf0e940d0, 2025-05-08)"
   xmlns:inkscape="http://www.inkscape.org/namespaces/inkscape"
   xmlns:sodipodi="http://sodipodi.sourceforge.net/DTD/sodipodi-0.dtd"
   xmlns="http://www.w3.org/2000/svg"
   xmlns:svg="http://www.w3.org/2000/svg"><sodipodi:namedview
     id="namedview1"
     pagecolor="#505050"
     bordercolor="#ffffff"
     borderopacity="1"
     inkscape:showpageshadow="0"
     inkscape:pageopacity="0"
     inkscape:pagecheckerboard="1"
     inkscape:deskcolor="#505050"
     inkscape:zoom="52.545455"
     inkscape:cx="10.990484"
     inkscape:cy="11"
     inkscape:window-width="2556"
     inkscape:window-height="1364"
     inkscape:window-x="0"
     inkscape:window-y="0"
     inkscape:window-maximized="1"
     inkscape:current-layer="svg1" /><defs
     id="defs3051"><style
       type="text/css"
       id="current-color-scheme">
      .ColorScheme-Text {
        color:#eff0f1
      }
      </style></defs><path
     d="m 19.639205,12.090731 c -0.1186,-0.6201 -0.37952,-1.14194 -0.77259,-1.55195 -0.30497,-0.31852 -0.37613,-0.36596 -1.5655,-1.0538403 -0.79292,-0.45745 -1.16227,-0.6777 -1.25715,-0.7387 -0.003,-0.0949 0,-0.41001 0.0136,-1.13516 0.0305,-1.48418 0.0305,-1.78576 -0.0102,-2.01618 -0.11182,-0.64382 -0.37952,-1.17243 -0.84714,-1.66038 -0.46761,-0.48795 -0.99284,-0.78275 -1.60616,-0.90135 -0.25414,-0.0474 -0.7997,-0.044 -1.08434,0.0102 -0.5591,0.10505 -1.01317,0.31175 -1.4774,0.67093 l -0.11182,0.0881 -0.0576,-0.0441 c -0.41679,-0.30496 -0.89118,-0.52522 -1.37235,-0.63365 -0.3117499,-0.0712 -0.8403599,-0.0813 -1.1521099,-0.0271 -0.60993,0.10843 -1.10127,0.37952 -1.59939,0.88102 -0.42017,0.42357 -0.6777,0.86408 -0.80647,1.38591 -0.0915,0.36258 -0.0949,0.45745 -0.0813,2.01957 l 0.0102,1.37236 -0.25075,0.14909 c -0.74209,0.44051 -1.98907,1.2131003 -2.11784,1.3079803 -0.18298,0.13554 -0.45745,0.4134 -0.58621,0.59638 -0.26431,0.37274 -0.45068,0.83697 -0.532,1.33848 -0.15588,0.93184 0.13893,1.82303 0.82002,2.51429 0.22365,0.22364 0.37274,0.34224 0.61672,0.48456 0.14232,0.0847 0.36596,0.19315 0.51167,0.25075 -0.007,0.0542 -0.017,0.19654 -0.0203,0.30836 -0.0271,0.67771 0.14232,1.31475 0.50829,1.88742 0.13554,0.21009 0.47439,0.56927 0.67431,0.71159 0.3863,0.27447 0.86069,0.46423 1.36897,0.55572 0.19993,0.0339 0.27448,0.0407 0.54895,0.0305 0.33546,-0.0102 0.49472,-0.0373 0.76581,-0.13216 0.22025,-0.0745 0.33885,-0.13893 1.5959999,-0.84035 l 1.12499,-0.62688 0.82342,0.48795 c 1.34525,0.79291 1.4198,0.83697 1.60955,0.93184 0.30158,0.1491 0.61672,0.24059 0.93863,0.27448 0.0915,0.0102 0.18298,0.0136 0.27447,0.0136 0.32869,0 0.66415,-0.061 1.01995,-0.17959 0.26769,-0.0915 0.62349,-0.27447 0.83019,-0.42357 0.46423,-0.34224 0.85053,-0.90135 1.03351,-1.49096 0.11521,-0.37951 0.13215,-0.51167 0.13554,-1.03011 l 0.003,-0.39646 0.0949,-0.0339 c 0.51505,-0.19314 1.01995,-0.55233 1.35541,-0.96573 0.34224,-0.42018 0.53878,-0.8268 0.64043,-1.32153 0.0508,-0.24397 0.0441,-0.78275 -0.0102,-1.06739 m -7.13626,-0.19653 c -0.16943,0.0847 -0.27109,0.1762 -0.3863,0.35579 -0.11859,0.18298 -0.16942,0.3558 -0.16942,0.55572 0,0.26092 0.0779,0.45407 0.2643,0.65738 0.16943,0.18298 0.21348,0.21348 1.59939,1.01995 1.51807,0.88441 1.64344,1.00978 1.73155,1.37236 0.0373,0.1457 0.0237,0.35918 -0.0271,0.49133 -0.12199,0.30836 -0.2948,0.48795 -0.56928,0.58283 -0.13554,0.0474 -0.31852,0.061 -0.45067,0.0373 -0.24398,-0.044 -0.49473,-0.18298 -2.65662,-1.45707 -0.471,-0.27448 -0.66415,-0.34564 -0.96234,-0.34564 -0.007,0 -0.0102,0 0,0.0102 -0.32191,0.003 -0.37952,0.0373 -1.36558,0.59638 -0.7861399,0.44729 -1.4841799,0.83697 -1.6603899,0.92846 -0.24058,0.12199 -0.56588,0.22365 -0.72514,0.22365 -0.0813,0 -0.22365,-0.0407 -0.3253,-0.0881 -0.18637,-0.0915 -0.39646,-0.31513 -0.48795,-0.52522 -0.0542,-0.12538 -0.0712,-0.38629 -0.0305,-0.52861 0.0678,-0.2372 0.17621,-0.37274 0.47101,-0.57944 0.25414,-0.17959 0.46762,-0.30836 1.44013,-0.86069 0.88102,-0.49812 1.13516,-0.64721 1.2435899,-0.72515 0.13893,-0.0983 0.28464,-0.28125 0.35919,-0.44051 0.061,-0.13215 0.0711,-0.17959 0.0779,-0.33546 0.0102,-0.23381 -0.0373,-0.39985 -0.17281,-0.60655 -0.22365,-0.34224 -0.5624999,-0.49812 -0.9521799,-0.44051 -0.21687,0.0339 -0.34225,0.0847 -0.74209,0.31174 -0.52184,0.29142 -0.63366,0.3558 -1.31476,0.75904 -0.6777,0.39984 -0.85391,0.49472 -1.06061,0.56249 -0.49811,0.16604 -0.7692,0.13555 -1.00639,-0.10504 -0.19993,-0.20331 -0.30836,-0.45406 -0.30836,-0.70143 0,-0.22025 0.0576,-0.38968 0.1762,-0.52522 0.14571,-0.16604 0.36935,-0.31852 1.19616,-0.80308 0.31513,-0.18637 0.78953,-0.46762 1.05383,-0.62688 l 0.58622,-0.3558 c 0.30497,-0.18298 0.49134,-0.4439003 0.57266,-0.7997003 0.007,-0.0305 0.0203,-0.0915 0.0339,-1.70443 0.0136,-1.49096 0.0169,-1.60617 0.0474,-1.75526 0.0644,-0.31514 0.15587,-0.50828 0.30835,-0.66755 0.14571,-0.14909 0.37274,-0.23719 0.6235,-0.23719 0.27108,0 0.5353799,0.10504 0.7048099,0.28125 0.17621,0.18298 0.23381,0.36596 0.25414,0.81324 0.0102,0.14571 0.007,0.89458 0,1.66717 -0.0102,1.21309 -0.0102,1.43335 0.0136,1.57228 0.0508,0.30497 0.21009,0.5624903 0.44728,0.7251403 0.23381,0.15927 0.52523,0.21009 0.82003,0.14571 0.40324,-0.0915 0.71159,-0.4303403 0.78275,-0.8708503 0.0203,-0.12199 0.0271,-0.50828 0.0407,-1.72138 0.0136,-1.43335 0.017,-1.56212 0.0474,-1.71121 0.0644,-0.31514 0.15249,-0.50828 0.30836,-0.66754 0.14571,-0.1491 0.37274,-0.2372 0.62349,-0.2372 0.27108,0 0.53539,0.10504 0.70482,0.28125 0.17281,0.17959 0.23381,0.36596 0.25414,0.80308 0.007,0.13893 0.007,0.89796 -0.003,1.68749 v 0.044 c -0.0169,1.56551 -0.0169,1.56551 0.10843,1.83659 0.12538,0.2744703 0.2677,0.3761303 0.87086,0.7251503 0.74548,0.42695 1.92469,1.1216 2.06701,1.2131 0.33546,0.21686 0.51844,0.3829 0.59299,0.54555 0.0813,0.17959 0.0881,0.42696 0.0237,0.64382 -0.0712,0.22703 -0.30158,0.50828 -0.49812,0.60655 -0.0983,0.0474 -0.0983,0.0474 -0.28124,0.0474 -0.22365,0 -0.44729,-0.0508 -0.67094,-0.1491 -0.0644,-0.0271 -0.57944,-0.31513 -1.24698,-0.70142 -1.52484,-0.87763 -1.52484,-0.87763 -1.81964,-0.92169 -0.18976,-0.0305 -0.37274,0 -0.55572,0.0915"
     style="fill:currentColor"
     id="path1-7"
     class="ColorScheme-Text" /></svg>
