<svg xmlns="http://www.w3.org/2000/svg" viewBox="0 0 16 16">
  <defs id="defs3051">
    <style type="text/css" id="current-color-scheme">.ColorScheme-Text {color:#fcfcfc;}</style>
  </defs>
  <path
     style="fill:currentColor"
     d="M 2.9978816,12 H 5 L 7,10 6,9 Z M 12.982051,12 10,9 7,12 Z M 5.5,4 C 4.7,4 4,4.7 4,5.5 4,6.3 4.7,7 5.5,7 6.3,7 7,6.3 7,5.5 7,4.7 6.3,4 5.5,4 Z M 4,2 C 2.892,2 2,2.892 2,4 v 8 c 0,1.108 0.892,2 2,2 h 8 c 1.108,0 2,-0.892 2,-2 V 4 C 14,2.892 13.108,2 12,2 Z m 0,1 8,0 c 0.554,0 1,0.446 1,1 v 8 c 0,0.456911 -0.383925,0.9375 -1,0.9375 H 4 C 3.3525635,12.9375 3,12.468666 3,12 V 4 C 3,3.446 3.446,3 4,3 Z"
     class="ColorScheme-Text"
     id="path1" />
</svg>
