<?xml version="1.0" encoding="UTF-8" standalone="no"?>
<svg
   viewBox="0 0 22 22"
   version="1.1"
   id="svg1"
   sodipodi:docname="folder-food-symbolic22.svg"
   xml:space="preserve"
   inkscape:version="1.4.2 (ebf0e940d0, 2025-05-08)"
   xmlns:inkscape="http://www.inkscape.org/namespaces/inkscape"
   xmlns:sodipodi="http://sodipodi.sourceforge.net/DTD/sodipodi-0.dtd"
   xmlns="http://www.w3.org/2000/svg"
   xmlns:svg="http://www.w3.org/2000/svg"><sodipodi:namedview
     id="namedview1"
     pagecolor="#505050"
     bordercolor="#ffffff"
     borderopacity="1"
     inkscape:showpageshadow="0"
     inkscape:pageopacity="0"
     inkscape:pagecheckerboard="1"
     inkscape:deskcolor="#505050"
     inkscape:zoom="52.545455"
     inkscape:cx="10.990484"
     inkscape:cy="11"
     inkscape:window-width="2556"
     inkscape:window-height="1364"
     inkscape:window-x="0"
     inkscape:window-y="0"
     inkscape:window-maximized="1"
     inkscape:current-layer="svg1" /><defs
     id="defs3051"><style
       type="text/css"
       id="current-color-scheme">
      .ColorScheme-Text {
        color:#eff0f1
      }
      </style><style
       type="text/css"
       id="current-color-scheme-5">.ColorScheme-Text {color:#fcfcfc;}</style></defs><path
     d="m 3.8,3.8063148 a 0.8,0.8 0 0 0 -0.8,0.8 v 3.1999987 1.2 c 0,1.3519995 0.824,2.5039995 2,2.9760015 v 5.023998 a 1.2,1.2 0 0 0 1.2,1.200002 1.2,1.2 0 0 0 1.2,-1.200002 v -5.023998 c 1.176,-0.472002 2,-1.624002 2,-2.9760015 v -1.2 -3.1999987 a 0.8,0.8 0 0 0 -0.8,-0.8 0.8,0.8 0 0 0 -0.8,0.8 v 3.1999987 a 0.4,0.4 0 0 1 -0.4,0.4 0.4,0.4 0 0 1 -0.4,-0.4 V 4.6063148 a 0.8,0.8 0 0 0 -0.8,-0.8 0.8,0.8 0 0 0 -0.8,0.8 v 3.1999987 a 0.4,0.4 0 0 1 -0.4,0.4 0.4,0.4 0 0 1 -0.4,-0.4 V 4.6063148 a 0.8,0.8 0 0 0 -0.8,-0.8 m 13.504,0 c -0.104,0 -0.208,0.072 -0.304,0.128 L 14.2,5.6063147 V 8.6063135 H 11 v 1.5999995 h 0.8 l 0.8,8.000002 h 4.8 l 0.8,-8.000002 H 19 V 8.6063135 h -3.2 v -2.127999 l 2,-1.1999998 c 0.4,-0.2239999 0.504,-0.6719999 0.272,-1.0719999 -0.168,-0.288 -0.464,-0.44 -0.768,-0.4 z"
     id="path1"
     style="fill:currentColor"
     class="ColorScheme-Text" /></svg>
