<?xml version="1.0" encoding="UTF-8" standalone="no"?>
<svg
   viewBox="0 0 22 22"
   version="1.1"
   id="svg1"
   sodipodi:docname="folder-fluidd-symbolic22.svg"
   xml:space="preserve"
   inkscape:version="1.4.2 (ebf0e940d0, 2025-05-08)"
   xmlns:inkscape="http://www.inkscape.org/namespaces/inkscape"
   xmlns:sodipodi="http://sodipodi.sourceforge.net/DTD/sodipodi-0.dtd"
   xmlns="http://www.w3.org/2000/svg"
   xmlns:svg="http://www.w3.org/2000/svg"><sodipodi:namedview
     id="namedview1"
     pagecolor="#505050"
     bordercolor="#ffffff"
     borderopacity="1"
     inkscape:showpageshadow="0"
     inkscape:pageopacity="0"
     inkscape:pagecheckerboard="1"
     inkscape:deskcolor="#505050"
     inkscape:zoom="52.545455"
     inkscape:cx="10.990484"
     inkscape:cy="11"
     inkscape:window-width="2556"
     inkscape:window-height="1364"
     inkscape:window-x="0"
     inkscape:window-y="0"
     inkscape:window-maximized="1"
     inkscape:current-layer="svg1" /><defs
     id="defs3051"><style
       type="text/css"
       id="current-color-scheme">
      .ColorScheme-Text {
        color:#eff0f1
      }
      </style></defs><path
     d="m 11,9.7764212 -8,-5.14465 8,-2.94492 8,2.94492 z m 4.0627,3.1706198 -0.72369,0.60188 -2.84103,2.36095 c -0.043,0.0358 -0.0896,0.0681 -0.13613,0.0932 l -0.0143,0.007 -0.004,0.004 h -0.004 l -0.0108,0.004 -0.007,0.004 -0.004,0.004 -0.007,0.004 h -0.004 c -0.086,0.0358 -0.17914,0.0573 -0.2687,0.0609 h -0.0717 c -0.0931,-0.004 -0.18272,-0.0251 -0.2687,-0.0609 h -0.004 l -0.0108,-0.004 -0.007,-0.004 -0.0107,-0.004 -0.0108,-0.004 -0.007,-0.004 -0.0143,-0.007 c -0.0466,-0.0251 -0.0932,-0.0573 -0.13614,-0.0932 l -3.80474,-3.16704 -1.83789,1.19301 6.1442,6.09405 2.85535,-2.83028 3.0524,-3.02731 0.004,-0.004 z m -3.63279,-2.52933 c -0.0143,0.0107 -0.0287,0.0179 -0.0466,0.0287 -0.004,0 -0.007,0.004 -0.007,0.004 -0.0143,0.007 -0.0287,0.0179 -0.0466,0.0251 0,0 -0.004,0 -0.004,0.004 -0.1039,0.0502 -0.21496,0.0716 -0.32602,0.0716 -0.14689,0 -0.29736,-0.0466 -0.42991,-0.13255 L 6.82593,8.0110312 3.967,9.4727412 l 7.03269,5.8504298 7.03627,-5.8504298 -2.86251,-1.46171 z"
     style="fill:currentColor"
     id="path1-7"
     class="ColorScheme-Text" /></svg>
