<?xml version="1.0" encoding="UTF-8" standalone="no"?>
<svg
   viewBox="0 0 22 22"
   version="1.1"
   id="svg1"
   sodipodi:docname="folder-xbox-symbolic22.svg"
   xml:space="preserve"
   inkscape:version="1.4.2 (ebf0e940d0, 2025-05-08)"
   xmlns:inkscape="http://www.inkscape.org/namespaces/inkscape"
   xmlns:sodipodi="http://sodipodi.sourceforge.net/DTD/sodipodi-0.dtd"
   xmlns="http://www.w3.org/2000/svg"
   xmlns:svg="http://www.w3.org/2000/svg"><sodipodi:namedview
     id="namedview1"
     pagecolor="#505050"
     bordercolor="#ffffff"
     borderopacity="1"
     inkscape:showpageshadow="0"
     inkscape:pageopacity="0"
     inkscape:pagecheckerboard="1"
     inkscape:deskcolor="#505050"
     inkscape:zoom="52.545455"
     inkscape:cx="10.990484"
     inkscape:cy="11"
     inkscape:window-width="2556"
     inkscape:window-height="1364"
     inkscape:window-x="0"
     inkscape:window-y="0"
     inkscape:window-maximized="1"
     inkscape:current-layer="svg1" /><defs
     id="defs3051"><style
       type="text/css"
       id="current-color-scheme">
      .ColorScheme-Text {
        color:#eff0f1
      }
      </style></defs><path
     d="m 8.4037213,13.665085 c -1.5974862,0 -2.1965435,1.797172 -3.7940297,2.595915 -1.5974861,0 -2.7956007,-2.396229 0.3993716,-9.1855444 H 5.208749 L 5.560196,6.4124988 c 0,0 2.2444681,-1.333901 3.3067964,-0.3514469 h 4.2652886 c 1.062328,-0.9824541 3.306796,0.3514469 3.306796,0.3514469 l 0.351447,0.6629568 h 0.199685 C 20.185182,13.864771 18.987067,16.261 17.389581,16.261 15.792095,15.462257 15.193038,13.665085 13.595551,13.665085 H 8.4037213 M 10.999636,6.676084 A 0.79874309,0.79874309 0 0 0 10.200894,7.4748271 0.79874309,0.79874309 0 0 0 10.999636,8.2735702 0.79874309,0.79874309 0 0 0 11.798379,7.4748271 0.79874309,0.79874309 0 0 0 10.999636,6.676084 Z"
     id="path1"
     style="fill:currentColor"
     class="ColorScheme-Text" /></svg>
