<?xml version="1.0" encoding="UTF-8" standalone="no"?>
<svg
   viewBox="0 0 22 22"
   version="1.1"
   id="svg1"
   sodipodi:docname="folder-home-assisstant-symbolic22.svg"
   xml:space="preserve"
   inkscape:version="1.4.2 (ebf0e940d0, 2025-05-08)"
   xmlns:inkscape="http://www.inkscape.org/namespaces/inkscape"
   xmlns:sodipodi="http://sodipodi.sourceforge.net/DTD/sodipodi-0.dtd"
   xmlns="http://www.w3.org/2000/svg"
   xmlns:svg="http://www.w3.org/2000/svg"><sodipodi:namedview
     id="namedview1"
     pagecolor="#505050"
     bordercolor="#ffffff"
     borderopacity="1"
     inkscape:showpageshadow="0"
     inkscape:pageopacity="0"
     inkscape:pagecheckerboard="1"
     inkscape:deskcolor="#505050"
     inkscape:zoom="52.545455"
     inkscape:cx="10.990484"
     inkscape:cy="11"
     inkscape:window-width="2556"
     inkscape:window-height="1364"
     inkscape:window-x="0"
     inkscape:window-y="0"
     inkscape:window-maximized="1"
     inkscape:current-layer="svg1" /><defs
     id="defs3051"><style
       type="text/css"
       id="current-color-scheme">
      .ColorScheme-Text {
        color:#eff0f1
      }
      </style></defs><path
     d="m 18.29375,10.05835 -6.5875,-6.75997 c -0.3875,-0.39784 -1.025,-0.39784 -1.4125,0 l -6.5875,6.75997 C 3.31875,10.45619 3,11.24544 3,11.81011 v 6.16001 c 0,0.56467 0.45,1.02667 1,1.02667 h 6.15 L 7.44063,16.21516 c -0.14063,0.0481 -0.2875,0.077 -0.44375,0.077 -0.75313,0 -1.36563,-0.62884 -1.36563,-1.40205 0,-0.77321 0.6125,-1.40204 1.36563,-1.40204 0.75312,0 1.36562,0.62883 1.36562,1.40204 0,0.16042 -0.0281,0.31121 -0.075,0.45559 l 2.10938,2.16563 V 9.58031 C 9.94375,9.35252 9.63125,8.87447 9.63125,8.32264 c 0,-0.77321 0.6125,-1.40205 1.36563,-1.40205 0.75312,0 1.36562,0.62884 1.36562,1.40205 0,0.55183 -0.3125,1.02988 -0.76562,1.25767 v 5.56326 l 2.09687,-2.15279 c -0.0406,-0.13475 -0.0625,-0.27592 -0.0625,-0.42351 0,-0.77321 0.6125,-1.40204 1.36563,-1.40204 0.75312,0 1.36562,0.62883 1.36562,1.40204 0,0.77322 -0.6125,1.40205 -1.36562,1.40205 -0.16563,0 -0.325,-0.0321 -0.47188,-0.0898 l -2.92812,3.00621 v 2.1143 H 18 c 0.55,0 1,-0.462 1,-1.02667 v -6.16002 c 0,-0.56466 -0.31875,-1.35392 -0.70625,-1.75496"
     style="fill:currentColor"
     id="path1"
     class="ColorScheme-Text" /></svg>
