<?xml version="1.0" encoding="UTF-8" standalone="no"?>
<svg
   viewBox="0 0 22 22"
   version="1.1"
   id="svg1"
   sodipodi:docname="folder-raspberrypi-symbolic22.svg"
   xml:space="preserve"
   inkscape:version="1.4.2 (ebf0e940d0, 2025-05-08)"
   xmlns:inkscape="http://www.inkscape.org/namespaces/inkscape"
   xmlns:sodipodi="http://sodipodi.sourceforge.net/DTD/sodipodi-0.dtd"
   xmlns="http://www.w3.org/2000/svg"
   xmlns:svg="http://www.w3.org/2000/svg"><sodipodi:namedview
     id="namedview1"
     pagecolor="#505050"
     bordercolor="#ffffff"
     borderopacity="1"
     inkscape:showpageshadow="0"
     inkscape:pageopacity="0"
     inkscape:pagecheckerboard="1"
     inkscape:deskcolor="#505050"
     inkscape:zoom="52.545455"
     inkscape:cx="10.990484"
     inkscape:cy="11"
     inkscape:window-width="2556"
     inkscape:window-height="1364"
     inkscape:window-x="0"
     inkscape:window-y="0"
     inkscape:window-maximized="1"
     inkscape:current-layer="svg1" /><defs
     id="defs3051"><style
       type="text/css"
       id="current-color-scheme">
      .ColorScheme-Text {
        color:#eff0f1
      }
      </style></defs><path
     d="m 16.187991,10.267995 -0.11246,-0.20307 c 0.003,-1.4496003 -0.6592,-2.0400603 -1.43086,-2.4899403 0.23431,-0.0625 0.47487,-0.11559 0.54047,-0.41239 0.40302,-0.10309 0.48425,-0.29367 0.52486,-0.49361 0.10622,-0.0719 0.45613,-0.2718 0.41864,-0.61233 0.19682,-0.13747 0.30616,-0.31554 0.24993,-0.56547 0.21244,-0.23431 0.26867,-0.42801 0.17807,-0.60609 0.25306,-0.32178 0.14059,-0.48736 0.0312,-0.65294 0.1937,-0.35303 0.025,-0.72793 -0.50611,-0.66545 -0.21244,-0.31553 -0.67169,-0.24368 -0.74354,-0.24368 -0.0812,-0.1 -0.18433,-0.18745 -0.50924,-0.14683 -0.20932,-0.19058 -0.44363,-0.15621 -0.68731,-0.0656 -0.28742,-0.22806 -0.47799,-0.0437 -0.69356,0.025 -0.34678,-0.11247 -0.42801,0.0437 -0.59983,0.10622 -0.37803,-0.0812 -0.49362,0.0937 -0.67794,0.27805 l -0.21245,-0.003 c -0.57171,0.33741 -0.85601,1.02472 -0.95598,1.37775 -0.1,-0.35303 -0.38427,-1.04034 -0.95599,-1.37775 l -0.2124399,0.003 c -0.1812,-0.18432 -0.2968,-0.35927 -0.67794,-0.27805 -0.17183,-0.0625 -0.24993,-0.21869 -0.59984,-0.10622 -0.14371,-0.0437 -0.27492,-0.13746 -0.42801,-0.13434 -0.0812,0.003 -0.1687,0.0312 -0.26555,0.10935 -0.24368,-0.0937 -0.47799,-0.12497 -0.68731,0.0656 -0.32491,-0.0437 -0.42801,0.0437 -0.50924,0.14683 -0.0719,0 -0.5311,-0.0719 -0.74354,0.24368 -0.53111,-0.0625 -0.69981,0.31242 -0.50924,0.66232 -0.10934,0.16871 -0.22181,0.33429 0.0312,0.65607 -0.0906,0.17808 -0.0344,0.37178 0.17808,0.60609 -0.0562,0.24993 0.0531,0.428 0.24993,0.56547 -0.0375,0.34365 0.31554,0.5436 0.41864,0.61233 0.0406,0.19994 0.12496,0.38739 0.52485,0.49361 0.0656,0.2968 0.30617,0.34991 0.54048,0.41239 -0.77166,0.44988 -1.43398,1.04034 -1.43086,2.4899403 l -0.11247,0.20307 c -0.88725,0.53736 -1.68391,2.27125 -0.43738,3.67712 0.0812,0.4405 0.21869,0.75604 0.34054,1.10595 0.1812,1.41211 1.36837,2.0713 1.68078,2.14941 0.45925,0.3499 0.94662,0.68106 1.60894,0.91225 0.6217,0.64357 1.2965199,0.88725 1.9775799,0.88725 h 0.0312 c 0.67794,0 1.35276,-0.24368 1.97759,-0.88725 0.65919,-0.23119 1.14968,-0.56235 1.60893,-0.91225 0.31241,-0.0781 1.49959,-0.74043 1.68079,-2.14941 0.12184,-0.34991 0.2593,-0.66545 0.34053,-1.10595 1.24966,-1.40899 0.44988,-3.13976 -0.43426,-3.67712 m -0.79978,-0.24993 c -0.0469,0.58422 -3.04291,-2.0338203 -2.52743,-2.1212903 1.40587,-0.23431 2.5743,0.59983 2.52743,2.1212903 m -3.28972,-6.1014503 c 0.025,0.13121 0.0562,0.21556 0.0875,0.24056 0.16558,-0.1812 0.30304,-0.36553 0.5186,-0.54048 0,0.1031 -0.05,0.21557 0.0781,0.29367 0.11247,-0.15621 0.2718,-0.29679 0.47799,-0.41864 -0.1,0.17183 -0.0156,0.22807 0.0375,0.29992 0.15621,-0.13746 0.30929,-0.27492 0.59671,-0.38427 -0.0812,0.0968 -0.19057,0.1937 -0.0719,0.30929 0.16245,-0.10309 0.32491,-0.20619 0.7123,-0.27805 -0.0875,0.0968 -0.26555,0.19683 -0.1562,0.29367 0.20306,-0.0812 0.428,-0.13746 0.67793,-0.1687 -0.11871,0.1 -0.21869,0.19682 -0.12184,0.27492 0.21869,-0.0687 0.51861,-0.15933 0.81228,-0.0812 l -0.18745,0.19057 c -0.0219,0.025 0.43426,0.0219 0.7373,0.025 -0.10935,0.15621 -0.22181,0.30304 -0.28742,0.5686 0.0281,0.0281 0.17807,0.0125 0.31866,0 -0.14371,0.30929 -0.39364,0.38427 -0.44988,0.5186 0.0875,0.0687 0.20932,0.05 0.34366,0.003 -0.1031,0.21556 -0.32179,0.36552 -0.49361,0.54048 0.0437,0.0312 0.11871,0.05 0.29991,0.0281 -0.15933,0.17183 -0.3499,0.32804 -0.57796,0.46862 0.0406,0.0469 0.17807,0.0469 0.30929,0.0469 -0.2062,0.20619 -0.47175,0.30929 -0.71856,0.44363 0.12185,0.0875 0.21245,0.0656 0.30929,0.0625 -0.17495,0.14683 -0.47487,0.22494 -0.75291,0.30929 0.0531,0.0812 0.10622,0.10622 0.21869,0.13121 -0.29367,0.16558 -0.71231,0.0875 -0.83103,0.17183 0.0281,0.0812 0.10935,0.13746 0.2062,0.1812 -0.47175,0.0281 -1.76514,-0.0187 -2.01195,-1.0091 0.47799,-0.5436 1.36212,-1.17468 2.88046,-1.95884 -1.18093,0.39989 -2.24938,0.93725 -3.13977,1.67455 -1.05908,-0.48737 -0.33428,-1.73703 0.17808,-2.23689 m -1.0997,3.58339 c 0.74355,-0.009 1.66517,0.55297 1.66205,1.08408 -0.003,0.46862 -0.6467,0.84664 -1.6558,0.84039 -0.98723,-0.0125 -1.6526699,-0.47799 -1.6495499,-0.93099 0.003,-0.37177 0.8060299,-1.01535 1.6432999,-0.99348 m -3.7583399,-0.40301 c 0.11247,-0.0219 0.16558,-0.0469 0.21869,-0.13122 -0.27805,-0.0875 -0.57797,-0.16558 -0.75292,-0.30929 0.0969,0.003 0.1812,0.0219 0.30929,-0.0625 -0.24993,-0.13434 -0.51236,-0.24056 -0.71855,-0.44363 0.12809,-0.003 0.26555,-0.003 0.30929,-0.0469 -0.22807,-0.14059 -0.41864,-0.29679 -0.57797,-0.46862 0.1812,0.0219 0.25618,0.003 0.29992,-0.0281 -0.17183,-0.17495 -0.39052,-0.32491 -0.49362,-0.54048 0.13434,0.0469 0.25618,0.0625 0.34366,-0.003 -0.0594,-0.13122 -0.30929,-0.20932 -0.44988,-0.51861 0.14059,0.0125 0.29055,0.0281 0.31866,0 -0.0687,-0.26555 -0.17807,-0.41551 -0.28742,-0.57172 0.29992,-0.003 0.75605,0.003 0.7373,-0.025 l -0.18745,-0.19057 c 0.29367,-0.0812 0.59359,0.0125 0.81228,0.0812 0.0968,-0.0781 -0.003,-0.17495 -0.12184,-0.27492 0.24993,0.0344 0.47487,0.0906 0.67794,0.1687 0.10934,-0.0968 -0.0719,-0.19682 -0.15621,-0.29367 0.38427,0.0719 0.54985,0.17496 0.7123,0.27805 0.11872,-0.11247 0.006,-0.20931 -0.0719,-0.30929 0.2843,0.10935 0.43426,0.24993 0.59359,0.3874 0.0531,-0.0719 0.13746,-0.12497 0.0375,-0.29992 0.20619,0.11872 0.3624,0.2593 0.47799,0.41863 0.12809,-0.0812 0.075,-0.19057 0.0781,-0.29367 0.21557,0.17496 0.34991,0.35928 0.51861,0.54048 0.0344,-0.025 0.0625,-0.10622 0.0875,-0.24056 0.5092299,0.49674 1.2371599,1.7464 0.1874499,2.24314 -0.8935099,-0.7373 -1.9619699,-1.27153 -3.1397699,-1.67454 1.51521,0.78103 2.39934,1.41523 2.88046,1.95259 -0.2468,0.99347 -1.5402,1.03721 -2.01195,1.00909 0.0969,-0.0469 0.17808,-0.0968 0.2062,-0.1812 -0.12497,-0.0812 -0.5436,-0.006 -0.83727,-0.17182 m 1.74015,0.75916 c 0.5186,0.0875 -2.48057,2.7023903 -2.52744,2.1213 -0.0437,-1.52459 1.12469,-2.35873 2.52744,-2.1213 m -3.14602,5.8296603 c -0.73105,-0.58734 -0.96223,-2.3025 0.3874,-3.07416 0.8154,-0.21557 0.27492,3.36782 -0.3874,3.07416 m 2.83985,3.07103 c -0.40926,0.24993 -1.40899,0.14683 -2.11817,-0.87164 -0.47799,-0.85601 -0.41864,-1.72452 -0.0812,-1.97758 0.50299,-0.30617 1.27778,0.10622 1.87449,0.79978 0.52173,0.6217 0.75917,1.72453 0.32491,2.04944 m -0.80603,-3.73648 c -0.74667,-0.49049 -0.88413,-1.6183 -0.30304,-2.50244 0.58109,-0.8810003 1.67766,-1.2027903 2.42433,-0.7123003 0.7466699,0.4904903 0.8841399,1.6183103 0.3030499,2.5024403 -0.5810999,0.88101 -1.6776699,1.19967 -2.4243399,0.7123 m 3.1303899,5.48287 c -0.90288,0.0375 -1.7901299,-0.74042 -1.7776399,-1.00909 -0.0125,-0.39677 1.1028299,-0.70606 1.8276299,-0.68732 0.73105,-0.0312 1.71203,0.23432 1.71203,0.59047 0.0125,0.34053 -0.88726,1.11844 -1.76202,1.10594 m 1.86199,-3.9083 v 0.009 c 0,0.92163 -0.82165,1.67767 -1.81825,1.67767 -0.9966,0 -1.8182499,-0.75604 -1.8182499,-1.67767 v -0.0187 c 0,-0.92162 0.8216499,-1.67767 1.8182499,-1.67767 0.9966,0 1.81825,0.75605 1.81825,1.67767 z m -1.14031,-2.37747 c -0.58109,-0.88101 -0.44363,-2.01195 0.30304,-2.5024403 0.7498,-0.49049 1.84325,-0.1687 2.42434,0.7123003 0.58109,0.88101 0.44362,2.01195 -0.30305,2.50244 -0.74667,0.48737 -1.84324,0.16558 -2.42433,-0.7123 m 3.68336,3.71773 c -0.77791,1.08095 -1.83387,1.12157 -2.22439,0.82165 -0.40926,-0.3874 -0.0968,-1.59019 0.4655,-2.24938 0.6467,-0.73105 1.33401,-1.2028 1.812,-0.83103 0.32179,0.32179 0.51236,1.53396 -0.0531,2.25876 m 0.61234,-2.29312 c -0.66232,0.29367 -1.2028,-3.29285 -0.3874,-3.07416 1.34963,0.77166 1.1122,2.48682 0.3874,3.07416"
     style="fill:currentColor"
     id="path1-7"
     class="ColorScheme-Text" /></svg>
