<?xml version="1.0" encoding="UTF-8" standalone="no"?>
<svg
   viewBox="0 0 22 22"
   version="1.1"
   id="svg1"
   sodipodi:docname="folder-lan-symbolic22.svg"
   xml:space="preserve"
   inkscape:version="1.4.2 (ebf0e940d0, 2025-05-08)"
   xmlns:inkscape="http://www.inkscape.org/namespaces/inkscape"
   xmlns:sodipodi="http://sodipodi.sourceforge.net/DTD/sodipodi-0.dtd"
   xmlns="http://www.w3.org/2000/svg"
   xmlns:svg="http://www.w3.org/2000/svg"><sodipodi:namedview
     id="namedview1"
     pagecolor="#505050"
     bordercolor="#ffffff"
     borderopacity="1"
     inkscape:showpageshadow="0"
     inkscape:pageopacity="0"
     inkscape:pagecheckerboard="1"
     inkscape:deskcolor="#505050"
     inkscape:zoom="52.545455"
     inkscape:cx="10.990484"
     inkscape:cy="11"
     inkscape:window-width="2556"
     inkscape:window-height="1364"
     inkscape:window-x="0"
     inkscape:window-y="0"
     inkscape:window-maximized="1"
     inkscape:current-layer="svg1" /><defs
     id="defs3051"><style
       type="text/css"
       id="current-color-scheme">
      .ColorScheme-Text {
        color:#eff0f1
      }
      </style><style
       type="text/css"
       id="current-color-scheme-5">.ColorScheme-Text {color:#fcfcfc;}</style></defs><path
     d="M 9.4,3 C 8.512,3 7.8,3.712 7.8,4.6 V 7 c 0,0.888 0.712,1.6 1.6,1.6 h 0.8 v 1.6 H 3 v 1.6 h 3.2 v 1.6 H 5.4 c -0.888,0 -1.6,0.712 -1.6,1.6 v 2.4 c 0,0.888 0.712,1.6 1.6,1.6 h 3.2 c 0.888,0 1.6,-0.712 1.6,-1.6 V 15 c 0,-0.888 -0.712,-1.6 -1.6,-1.6 H 7.8 v -1.6 h 6.4 v 1.6 h -0.8 c -0.888,0 -1.6,0.712 -1.6,1.6 v 2.4 c 0,0.888 0.712,1.6 1.6,1.6 h 3.2 c 0.888,0 1.6,-0.712 1.6,-1.6 V 15 c 0,-0.888 -0.712,-1.6 -1.6,-1.6 H 15.8 V 11.8 H 19 V 10.2 H 11.8 V 8.6 h 0.8 c 0.888,0 1.6,-0.712 1.6,-1.6 V 4.6 C 14.2,3.712 13.488,3 12.6,3 H 9.4 m 0,1.6 h 3.2 V 7 H 9.4 V 4.6 M 5.4,15 h 3.2 v 2.4 H 5.4 V 15 m 8,0 h 3.2 v 2.4 h -3.2 z"
     id="path1"
     class="ColorScheme-Text"
     style="fill:currentColor" /></svg>
