<?xml version="1.0" encoding="UTF-8" standalone="no"?>
<svg
   viewBox="0 0 22 22"
   version="1.1"
   id="svg1"
   sodipodi:docname="folder-openSCAD-symbolic22.svg"
   xml:space="preserve"
   inkscape:version="1.4.2 (ebf0e940d0, 2025-05-08)"
   xmlns:inkscape="http://www.inkscape.org/namespaces/inkscape"
   xmlns:sodipodi="http://sodipodi.sourceforge.net/DTD/sodipodi-0.dtd"
   xmlns="http://www.w3.org/2000/svg"
   xmlns:svg="http://www.w3.org/2000/svg"><sodipodi:namedview
     id="namedview1"
     pagecolor="#505050"
     bordercolor="#ffffff"
     borderopacity="1"
     inkscape:showpageshadow="0"
     inkscape:pageopacity="0"
     inkscape:pagecheckerboard="1"
     inkscape:deskcolor="#505050"
     inkscape:zoom="52.545455"
     inkscape:cx="10.990484"
     inkscape:cy="11"
     inkscape:window-width="2556"
     inkscape:window-height="1364"
     inkscape:window-x="0"
     inkscape:window-y="0"
     inkscape:window-maximized="1"
     inkscape:current-layer="svg1" /><defs
     id="defs3051"><style
       type="text/css"
       id="current-color-scheme">
      .ColorScheme-Text {
        color:#eff0f1
      }
      </style><style
       type="text/css"
       id="current-color-scheme-5">.ColorScheme-Text {color:#fcfcfc;}</style></defs><path
     d="m 11.043061,4.1 c -0.857996,0.010667 -1.6519905,0.1886667 -2.2306531,0.4673333 -0.5966632,0.288 -0.9506611,0.676 -0.9506611,1.0846654 0,0.3293333 0.2499984,0.6533333 0.6499956,0.9313331 0.1613321,-0.1186666 0.3286655,-0.2046667 0.4859975,-0.2813333 0.1566653,-0.077333 0.370664,-0.097999 0.6506626,-0.1 0.2799987,-0.00267 0.5706625,0.06 0.5706625,0.06 0.0053,6.665e-4 0.998662,0.4293332 0.998662,0.4293332 L 11.813723,6.412665 h 0.0013 c 0,0 0.394664,-0.1773331 0.845328,-0.172 0.03,0 0.06001,0.002 0.09067,0.00402 0.124666,0.00867 0.236665,0.025333 0.436664,0.071333 0.199998,0.046667 0.393997,0.1593334 0.517996,0.26 0.374666,-0.27 0.597998,-0.586 0.597998,-0.9093333 0,-0.411332 -0.333998,-0.8019986 -0.909329,-1.0926653 -0.574628,-0.2906913 -1.378622,-0.473358 -2.26795,-0.473358 h -0.08333 z m 4.866635,0.095333 C 15.693031,4.182 15.614367,4.208666 15.446368,4.282 15.109035,4.4653333 14.763705,4.6486666 14.416373,4.832 a 6.5812932,6.58133 0 0 1 3.149981,5.37333 c 0.278665,-0.142 0.554661,-0.2846662 0.819328,-0.4239996 C 19.157011,9.2186639 19.208345,7.7326652 18.503683,6.3186651 17.877019,5.062 16.817024,4.1933333 15.910364,4.1953333 Z M 8.6997413,4.44 A 6.4319608,6.4319967 0 0 0 4.5817667,9.8799972 C 4.8650983,9.7373304 5.1530966,9.5973304 5.4444282,9.4686638 l 0.00133,-0.00133 h 0.00133 c 0.1359991,-0.057333 0.2786651,-0.085333 0.4246642,-0.088667 0.1466658,-0.00333 0.296665,0.019333 0.4479973,0.062667 0.3026647,0.086667 0.6106629,0.2573334 0.9033279,0.484 0.586663,0.4533332 1.1286598,1.1426652 1.4753236,1.9219982 0.3839973,0.862 0.5599974,1.688 0.5299974,2.373334 -0.03,0.685997 -0.2746652,1.249997 -0.7586626,1.511998 l -0.6513288,0.311334 a 6.395961,6.3959968 0 0 0 3.1626458,0.832 6.395961,6.3959968 0 0 0 3.555979,-1.074001 c -0.496663,0.192666 -0.98666,0.212 -1.390658,-0.004 -0.359997,-0.193334 -0.609996,-0.555333 -0.72133,-1.027333 -0.08066,-0.275335 -0.06001,-0.476667 -0.06867,-0.764666 0.01,-0.316666 0.094,-0.619332 0.137999,-0.832 0.06933,-0.289332 0.251331,-0.769332 0.516664,-1.243332 0.265332,-0.473334 0.651329,-0.939999 1.073992,-1.338666 0.423333,-0.398667 0.835329,-0.644 1.135995,-0.7213332 0.299996,-0.077333 0.494662,-0.1133335 0.695328,-0.116 0.2,-0.002 0.405331,0.030667 0.613996,0.14 0.514664,0.2733332 0.775328,0.8633332 0.791995,1.5713312 0.04933,-0.150668 0.072,-0.773331 0.086,-1.016665 A 6.4239609,6.4239968 0 0 0 13.993042,4.772 c 0.297999,0.2566666 0.477998,0.5599987 0.477998,0.8946652 0,0.4119999 -0.272665,0.79 -0.61333,1.0153333 a 4.1333082,4.1333312 0 0 1 -0.998661,0.496 4.8486373,4.8486644 0 0 1 -1.473991,0.2513334 c -0.491998,0.00133 -0.833327,0.008 -1.109326,-0.04 A 8.225283,8.2253293 0 0 1 9.7130691,7.2786652 C 9.4797372,7.2339985 9.4904039,7.2433319 9.3077372,7.1786652 8.9144065,7.0386652 8.7910745,6.9853319 8.3897439,6.7213319 7.9890794,6.4573318 7.6964145,6.073332 7.6964145,5.6519987 7.6964145,5.1613333 8.0977453,4.7406667 8.6997413,4.44 Z m 0.9986612,1.933332 c 0.036,0.2213332 0.097999,0.4859999 0.108,0.7539999 0.1166667,0.026667 0.2359985,0.051333 0.3586645,0.071333 0.306665,-0.1513333 0.575328,-0.282 0.846661,-0.4133333 l -0.83133,-0.3586663 c -0.002,0 -0.06001,-0.010002 -0.143331,-0.021998 A 6.1072961,6.1073303 0 0 0 9.6984025,6.373332 Z m 2.1939855,0.1939998 -0.57933,0.2700001 0.01467,0.4253333 c 0.562664,-0.021333 1.087327,-0.116 1.532657,-0.2706667 0.01333,-0.1986666 0.072,-0.3933333 0.101331,-0.5493333 -0.0967,-0.024667 -0.203332,-0.022 -0.461997,-0.024 -0.258665,-0.002 -0.606664,0.1486667 -0.606664,0.1486667 z m 1.233327,-0.076667 c -0.02667,0.082 -0.05467,0.1666667 -0.07133,0.26 -0.0093,0.049333 -0.01333,0.112 -0.01867,0.1706666 0.177998,-0.071333 0.337997,-0.1513333 0.48333,-0.2393333 A 1.1633262,1.1633328 0 0 0 13.125715,6.4906648 Z M 11.147727,6.907332 c -0.193999,0.093333 -0.426665,0.204 -0.655996,0.318 0.225331,0.02 0.449997,0.038667 0.667996,0.044 z M 5.8784255,9.5466638 a 0.97266077,0.9726662 0 0 0 -0.3659977,0.074 c -0.5033304,0.222 -1.0046606,0.4733332 -1.4753243,0.7253332 0.070667,0.0067 0.1386657,0.01667 0.1999988,0.02467 0.2586649,0.03467 0.5406632,0.145333 1.0059937,0.508 0.1866656,0.146 0.3946644,0.362001 0.5986632,0.613333 0.2179987,0.258666 0.4066641,0.562666 0.5766631,0.825333 0.1153319,0.192 0.2173318,0.383334 0.2999982,0.565333 0.1006663,0.210667 0.1733323,0.427333 0.2513317,0.630001 0.074667,0.204 0.1199987,0.411333 0.173999,0.606666 0.052,0.19 0.069333,0.382 0.1,0.562665 0.021333,0.178667 0.03,0.346667 0.026667,0.502667 -0.00733,0.299334 -0.029333,0.569333 -0.112,0.809999 -0.026667,0.07667 -0.061332,0.149335 -0.1026665,0.218668 A 50.966356,50.966643 0 0 0 8.3897428,15.585994 C 9.2230719,15.135328 9.2964039,13.600663 8.5464093,11.915329 7.9597461,10.596664 6.7784201,9.5326638 5.8784255,9.5466638 Z m 9.6266065,0.444 c 0.123335,0.2313332 0.225333,0.6026662 0.08667,1.0886662 -0.04401,0.114667 -0.08,0.251333 -0.143332,0.370665 -0.351999,0.733334 -1.003995,1.073334 -1.19266,1.159334 0,0.03133 -0.0013,0.07467 -0.026,0.308666 -0.02467,0.233334 -0.042,0.331334 -0.116,0.573334 -0.07333,0.243333 -0.151331,0.418666 -0.255999,0.586666 -0.05133,0.06667 -0.100005,0.171334 -0.33733,0.433334 -0.290665,0.180666 -0.671997,0.301999 -0.875328,0.301999 0.113334,0.378 0.296665,0.684666 0.580663,0.837332 0.44733,0.238668 1.035993,0.159334 1.634658,-0.184666 0.337997,-0.194666 0.675329,-0.473999 0.98666,-0.82 0.233332,-0.269998 0.443997,-0.557331 0.781329,-1.146665 0.336663,-0.588 0.542663,-1.376 0.526663,-2.029334 -0.01468,-0.669331 -0.256004,-1.188665 -0.702667,-1.426665 A 0.98532737,0.98533286 0 0 0 15.971696,9.9346638 c -0.165333,0 -0.328665,0.04 -0.466664,0.056 z m -0.189331,0.031333 c -0.33333,0.11 -0.673329,0.313333 -0.998661,0.583333 0.114668,0.128 0.246667,0.237333 0.407332,0.358 a 2.4866515,2.4866654 0 0 0 0.605996,0.334665 l 0.032,-0.07533 a 2.0933206,2.0933323 0 0 0 0.064,-0.189334 c 0.09133,-0.319999 0.06799,-0.576666 0.0079,-0.769332 A 1.0933267,1.0933328 0 0 0 15.315701,10.022 Z m -11.4519298,0.488 A 0.53333009,0.53333308 0 0 0 3.5517731,10.61333 c -0.3153315,0.246 -0.5193302,0.612001 -0.5486634,1.262666 -0.028667,0.651333 0.1406658,1.456667 0.5159968,2.3 0.3353314,0.753332 0.8653282,1.423332 1.4253247,1.855999 0.5606632,0.433333 1.1513264,0.629333 1.65399,0.4 0.4133308,-0.228667 0.4913304,-0.666001 0.5053302,-1.251334 0.014,-0.585332 -0.1606656,-1.398666 -0.5379966,-2.229332 C 6.2497567,12.255329 5.5930939,11.363996 5.1397633,11.009997 4.6864328,10.656664 4.4464343,10.56733 4.215769,10.536664 A 1.9966545,1.9966656 0 0 0 3.8637712,10.509997 Z M 14.180375,10.72533 c -0.387998,0.388001 -0.722662,0.797999 -0.96666,1.197332 l 0.96266,0.528667 a 2.1599869,2.159999 0 0 0 0.353998,-0.208 2.3353191,2.335332 0 0 0 0.709996,-0.794666 2.8899825,2.8899987 0 0 1 -0.62933,-0.359333 c -0.237333,-0.177333 -0.339331,-0.26 -0.430664,-0.364 z m -1.049327,1.355333 a 4.9966364,4.9966644 0 0 0 -0.438666,1.143333 l 1.303327,-0.669334 c -0.273332,-0.146666 -0.579996,-0.312 -0.864661,-0.473999 z m 0.94666,0.623333 -1.483323,0.772667 -0.02001,0.09733 c 0.150665,0.03533 0.316664,0.08533 0.52133,0.194001 0.284665,0.151333 0.417996,0.26 0.520664,0.353333 0.03467,-0.04533 0.06867,-0.09267 0.102,-0.144666 0.227998,-0.365334 0.314664,-0.770668 0.348665,-1.057334 0.0077,-0.072 0.0067,-0.145334 0.01067,-0.215333 z"
     id="path1"
     style="fill:currentColor"
     class="ColorScheme-Text" /></svg>
