<?xml version="1.0" encoding="UTF-8" standalone="no"?>
<svg
   viewBox="0 0 22 22"
   version="1.1"
   id="svg1"
   sodipodi:docname="folder-bitwarden-symbolic22.svg"
   xml:space="preserve"
   inkscape:version="1.4.2 (ebf0e940d0, 2025-05-08)"
   xmlns:inkscape="http://www.inkscape.org/namespaces/inkscape"
   xmlns:sodipodi="http://sodipodi.sourceforge.net/DTD/sodipodi-0.dtd"
   xmlns="http://www.w3.org/2000/svg"
   xmlns:svg="http://www.w3.org/2000/svg"><sodipodi:namedview
     id="namedview1"
     pagecolor="#505050"
     bordercolor="#ffffff"
     borderopacity="1"
     inkscape:showpageshadow="0"
     inkscape:pageopacity="0"
     inkscape:pagecheckerboard="1"
     inkscape:deskcolor="#505050"
     inkscape:zoom="52.545455"
     inkscape:cx="10.990484"
     inkscape:cy="11"
     inkscape:window-width="2556"
     inkscape:window-height="1364"
     inkscape:window-x="0"
     inkscape:window-y="0"
     inkscape:window-maximized="1"
     inkscape:current-layer="svg1" /><defs
     id="defs3051"><style
       type="text/css"
       id="current-color-scheme">
      .ColorScheme-Text {
        color:#eff0f1
      }
      </style></defs><path
     d="M 18.762747,1.5236002 A 0.76977024,0.76977024 0 0 0 18.200591,1.2872392 H 3.7985414 A 0.76577765,0.76577765 0 0 0 3.2371841,1.5236002 0.76657617,0.76657617 0 0 0 3.0000246,2.084159 v 9.582201 c 0,0.714673 0.1389419,1.423756 0.4176243,2.128048 0.2786824,0.702695 0.6252387,1.325538 1.0380719,1.872522 0.4128332,0.542991 0.9039211,1.074804 1.4756591,1.591444 a 17.413257,17.413257 0 0 0 1.5810634,1.284814 c 0.4831027,0.340966 0.9861683,0.662769 1.5115924,0.967802 0.5246257,0.304235 0.8983316,0.509454 1.1179233,0.616455 0.220391,0.107001 0.399259,0.192442 0.530216,0.248339 a 0.73144143,0.73144143 0 0 0 0.649992,0 c 0.134151,-0.05829 0.310623,-0.141338 0.532611,-0.248339 0.219592,-0.107001 0.593298,-0.314616 1.118722,-0.616455 a 20.206469,20.206469 0 0 0 1.512391,-0.967802 17.480332,17.480332 0 0 0 1.58266,-1.285613 c 0.571738,-0.51664 1.062028,-1.046057 1.474861,-1.591444 0.412833,-0.545387 0.757793,-1.16823 1.038072,-1.872522 0.279481,-0.701896 0.418423,-1.410979 0.418423,-2.128047 V 2.0865546 A 0.758591,0.758591 0 0 0 18.762747,1.5236002 Z M 16.906196,11.756593 c 0,3.468757 -5.90663,6.457606 -5.90663,6.457606 V 3.3394275 h 5.90663 v 8.4163665 z"
     id="path2"
     style="fill:currentColor"
     class="ColorScheme-Text" /></svg>
