<?xml version="1.0" encoding="UTF-8" standalone="no"?>
<svg
   viewBox="0 0 22 22"
   version="1.1"
   id="svg1"
   sodipodi:docname="folder-shopping-symbolic22.svg"
   xml:space="preserve"
   inkscape:version="1.4.2 (ebf0e940d0, 2025-05-08)"
   xmlns:inkscape="http://www.inkscape.org/namespaces/inkscape"
   xmlns:sodipodi="http://sodipodi.sourceforge.net/DTD/sodipodi-0.dtd"
   xmlns="http://www.w3.org/2000/svg"
   xmlns:svg="http://www.w3.org/2000/svg"><sodipodi:namedview
     id="namedview1"
     pagecolor="#505050"
     bordercolor="#ffffff"
     borderopacity="1"
     inkscape:showpageshadow="0"
     inkscape:pageopacity="0"
     inkscape:pagecheckerboard="1"
     inkscape:deskcolor="#505050"
     inkscape:zoom="52.545455"
     inkscape:cx="10.990484"
     inkscape:cy="11"
     inkscape:window-width="2556"
     inkscape:window-height="1364"
     inkscape:window-x="0"
     inkscape:window-y="0"
     inkscape:window-maximized="1"
     inkscape:current-layer="svg1" /><defs
     id="defs3051"><style
       type="text/css"
       id="current-color-scheme">
      .ColorScheme-Text {
        color:#eff0f1
      }
      </style><style
       type="text/css"
       id="current-color-scheme-5">.ColorScheme-Text {color:#fcfcfc;}</style></defs><path
     d="M 17.222223,6.094444 H 15.444444 C 15.444444,3.6055556 13.488889,1.65 11,1.65 8.5111111,1.65 6.5555556,3.6055556 6.5555556,6.094444 H 4.7777777 C 3.8,6.094444 3,6.894444 3,7.872223 v 10.666666 c 0,0.977778 0.8,1.777778 1.7777777,1.777778 H 17.222223 C 18.2,20.316667 19,19.516667 19,18.538889 V 7.872223 C 19,6.894444 18.2,6.094444 17.222223,6.094444 M 11,3.4277777 c 1.511111,0 2.666667,1.1555556 2.666667,2.6666663 H 8.3333333 C 8.3333333,4.5833333 9.4888889,3.4277777 11,3.4277777 M 17.222223,18.538889 H 4.7777777 V 7.872223 H 17.222223 V 18.538889 M 11,11.427777 c -1.5111111,0 -2.6666667,-1.155554 -2.6666667,-2.666666 H 6.5555556 c 0,2.488889 1.9555555,4.444445 4.4444444,4.444445 2.488889,0 4.444444,-1.955556 4.444444,-4.444445 h -1.777777 c 0,1.511112 -1.155556,2.666666 -2.666667,2.666666 z"
     id="path1"
     style="fill:currentColor"
     class="ColorScheme-Text" /></svg>
