<?xml version="1.0" encoding="UTF-8" standalone="no"?>
<svg
   viewBox="0 0 22 22"
   version="1.1"
   id="svg1"
   sodipodi:docname="folder-fitbit-symbolic22.svg"
   xml:space="preserve"
   inkscape:version="1.4.2 (ebf0e940d0, 2025-05-08)"
   xmlns:inkscape="http://www.inkscape.org/namespaces/inkscape"
   xmlns:sodipodi="http://sodipodi.sourceforge.net/DTD/sodipodi-0.dtd"
   xmlns="http://www.w3.org/2000/svg"
   xmlns:svg="http://www.w3.org/2000/svg"><sodipodi:namedview
     id="namedview1"
     pagecolor="#505050"
     bordercolor="#ffffff"
     borderopacity="1"
     inkscape:showpageshadow="0"
     inkscape:pageopacity="0"
     inkscape:pagecheckerboard="1"
     inkscape:deskcolor="#505050"
     inkscape:zoom="52.545455"
     inkscape:cx="10.990484"
     inkscape:cy="11"
     inkscape:window-width="2556"
     inkscape:window-height="1364"
     inkscape:window-x="0"
     inkscape:window-y="0"
     inkscape:window-maximized="1"
     inkscape:current-layer="svg1" /><defs
     id="defs3051"><style
       type="text/css"
       id="current-color-scheme">
      .ColorScheme-Text {
        color:#eff0f1
      }
      </style><style
       type="text/css"
       id="current-color-scheme-5">.ColorScheme-Text {color:#fcfcfc;}</style></defs><path
     d="m 11.865333,4.19 c 0,0.650667 -0.54,1.19 -1.190666,1.19 -0.648,0 -1.189334,-0.54 -1.189334,-1.19 0,-0.648667 0.542,-1.19 1.189334,-1.19 0.650666,0 1.190666,0.542 1.190666,1.19 z m -1.190666,2.162 c -0.701334,0 -1.242,0.54 -1.242,1.244 0,0.702 0.54,1.243333 1.243333,1.243333 0.702,0 1.243333,-0.540666 1.243333,-1.243333 0,-0.702667 -0.55,-1.244 -1.25,-1.244 z m 0,3.352667 c -0.701334,0 -1.296667,0.594 -1.296667,1.296666 0,0.702667 0.596,1.296667 1.298,1.296667 0.702,0 1.297333,-0.594 1.297333,-1.296667 0,-0.702666 -0.596,-1.296666 -1.297333,-1.296666 z m 0,3.404666 c -0.701334,0 -1.242,0.54 -1.242,1.242667 0,0.702667 0.54,1.244 1.243333,1.244 0.702,0 1.243333,-0.540667 1.243333,-1.244 0,-0.648 -0.55,-1.242667 -1.25,-1.242667 z m 0,3.460667 c -0.648,0 -1.189334,0.539333 -1.189334,1.189333 0,0.646667 0.542,1.187334 1.189334,1.187334 0.651333,0 1.190666,-0.539334 1.190666,-1.189334 0,-0.648666 -0.54,-1.187333 -1.190666,-1.187333 z M 13.973333,6.188667 C 13.216,6.188667 12.568,6.84 12.568,7.596 c 0,0.756 0.648667,1.404667 1.405333,1.404667 0.756667,0 1.404,-0.65 1.404,-1.404667 0,-0.756667 -0.648,-1.406 -1.404,-1.406 z m 0,3.353333 c -0.810666,0 -1.46,0.648667 -1.46,1.46 0,0.810667 0.65,1.458 1.46,1.458 0.81,0 1.459334,-0.647333 1.459334,-1.459333 C 15.432667,10.19 14.783333,9.542 13.973333,9.542 Z m 0,3.405333 C 13.216,12.947333 12.568,13.598 12.568,14.352 c 0,0.756667 0.648667,1.406 1.405333,1.406 0.756667,0 1.404,-0.650667 1.404,-1.406 0,-0.755333 -0.647333,-1.404667 -1.404,-1.404667 z m 3.404,-3.568666 c -0.864,0 -1.62,0.703333 -1.62,1.622666 0,0.864667 0.700667,1.622 1.62,1.622 C 18.298,12.623333 19,11.913333 19,10.994 18.945333,10.072667 18.243333,9.373333 17.377333,9.373333 Z M 7.324,6.514667 c -0.594667,0 -1.08,0.486666 -1.08,1.082 0,0.594 0.486,1.08 1.08,1.08 0.595333,0 1.079333,-0.486 1.079333,-1.08 0,-0.595334 -0.484666,-1.08 -1.079333,-1.08 z m 0,3.351333 c -0.648667,0 -1.135333,0.486 -1.135333,1.135333 0,0.65 0.480666,1.135334 1.13,1.135334 0.649333,0 1.13,-0.486667 1.13,-1.135334 0,-0.65 -0.49,-1.135333 -1.14,-1.135333 z m 0,3.404667 c -0.594667,0 -1.08,0.487333 -1.08,1.08 0,0.596666 0.486,1.082 1.08,1.082 0.595333,0 1.079333,-0.49 1.079333,-1.09 0,-0.6 -0.484666,-1.08 -1.079333,-1.08 z m -3.35,-3.242 c -0.542,0 -0.974,0.430666 -0.974,0.972666 0,0.54 0.432,0.972667 0.9733333,0.972667 0.54,0 0.9726667,-0.432 0.9726667,-0.972667 0,-0.540666 -0.432,-0.972666 -0.972,-0.972666 z"
     id="path1"
     style="fill:currentColor"
     class="ColorScheme-Text" /></svg>
