<?xml version="1.0" encoding="UTF-8" standalone="no"?>
<svg
   viewBox="0 0 32 32"
   version="1.1"
   id="svg12"
   sodipodi:docname="folder-gimp.svg"
   inkscape:version="1.3.2 (091e20ef0f, 2023-11-25)"
   xmlns:inkscape="http://www.inkscape.org/namespaces/inkscape"
   xmlns:sodipodi="http://sodipodi.sourceforge.net/DTD/sodipodi-0.dtd"
   xmlns="http://www.w3.org/2000/svg"
   xmlns:svg="http://www.w3.org/2000/svg"
   xmlns:rdf="http://www.w3.org/1999/02/22-rdf-syntax-ns#"
   xmlns:cc="http://creativecommons.org/ns#"
   xmlns:dc="http://purl.org/dc/elements/1.1/">
  <metadata
     id="metadata16">
    <rdf:RDF>
      <cc:Work
         rdf:about="">
        <dc:format>image/svg+xml</dc:format>
        <dc:type
           rdf:resource="http://purl.org/dc/dcmitype/StillImage" />
      </cc:Work>
    </rdf:RDF>
  </metadata>
  <sodipodi:namedview
     pagecolor="#ffffff"
     bordercolor="#666666"
     borderopacity="1"
     objecttolerance="10"
     gridtolerance="10"
     guidetolerance="10"
     inkscape:pageopacity="0"
     inkscape:pageshadow="2"
     inkscape:window-width="1920"
     inkscape:window-height="994"
     id="namedview14"
     showgrid="true"
     inkscape:zoom="9.8125"
     inkscape:cx="20.89172"
     inkscape:cy="27.006369"
     inkscape:window-x="0"
     inkscape:window-y="0"
     inkscape:window-maximized="1"
     inkscape:current-layer="svg12"
     inkscape:document-rotation="0"
     inkscape:lockguides="false"
     inkscape:showpageshadow="2"
     inkscape:pagecheckerboard="0"
     inkscape:deskcolor="#d1d1d1">
    <inkscape:grid
       type="xygrid"
       id="grid841"
       originx="0"
       originy="0"
       spacingy="1"
       spacingx="1"
       units="px"
       visible="true" />
  </sodipodi:namedview>
  <defs
     id="defs3051">
    <style
       type="text/css"
       id="current-color-scheme">
      .ColorScheme-Text {
        color:#31363b;
      }
      .ColorScheme-Background {
        color:#eff0f1;
      }
      .ColorScheme-Highlight {
        color:#3daee9;
      }
      .ColorScheme-ViewText {
        color:#31363b;
      }
      .ColorScheme-ViewBackground {
        color:#fcfcfc;
      }
      .ColorScheme-ViewHover {
        color:#93cee9;
      }
      .ColorScheme-ViewFocus{
        color:#3daee9;
      }
      .ColorScheme-ButtonText {
        color:#31363b;
      }
      .ColorScheme-ButtonBackground {
        color:#eff0f1;
      }
      .ColorScheme-ButtonHover {
        color:#93cee9;
      }
      .ColorScheme-ButtonFocus{
        color:#3daee9;
      }
      </style>
  </defs>
  <path
     style="fill:currentColor;fill-opacity:1;stroke:none"
     d="m 2,7 v 3 c -1,0 -1,0 -1,1 v 14 c 0,3 1,4 4,4 h 7 1 14 c 2.978306,0 4,-1 4,-4 V 8.9896483 9 C 31,8 31,8 30,8 30,5 28,5 25,5 H 16 C 16,5 16,3 14,3 H 6 C 2.9885736,3 2,4 2,7 Z"
     class="ColorScheme-Highlight"
     id="path4"
     sodipodi:nodetypes="ccccccccccccccccc" />
  <path
     style="fill-opacity:0.33;fill-rule:evenodd"
     d="M 6,3 C 3,3 2,4.03267 2,7 v 3 h 9 L 13,8 H 30 C 30,5 28,5 25,5 h -9 c 0,0 0,-2 -2,-2 z"
     id="path6"
     sodipodi:nodetypes="cccccccccc" />
  <path
     style="opacity:0.01;fill:#ffffff;fill-opacity:0.2;fill-rule:evenodd"
     d="m 14,3 1,3 H 27 V 5 H 16 c 0,0 0,-2 -2,-2 z m -1,5 -2,2 H 2 c -1,0 -1,0 -1,1 h 11 z"
     id="path8"
     sodipodi:nodetypes="cccccccccccc" />
  <path
     style="fill-opacity:0.2;fill-rule:evenodd"
     d="M 13,8 11,9 H 2 v 1 h 9 z M 1.738392,28 C 2.2760062,28.56082 3,29 5,29 h 22 c 1.852094,0 2.518009,-0.336138 3.224022,-1 z"
     class="ColorScheme-Text"
     id="path10"
     sodipodi:nodetypes="ccccccccccc" />
  <path
     d="m 21.514308,13.913769 c -0.0577,-0.489244 -0.103395,-0.875662 -0.388144,-0.911564 -0.258379,-0.03151 -0.418602,0.275769 -0.622444,0.856117 -0.437924,1.248641 -1.699384,2.253763 -3.227433,2.583752 -0.268603,-0.168538 -0.579933,-0.266729 -0.912631,-0.266729 -0.388151,0 -0.747434,0.132388 -1.042861,0.356125 -1.383506,-0.130188 -2.394786,-1.698073 -2.404997,-1.714439 l -0.415415,-0.656808 v 3.048083 c -0.100446,0.17318 -0.170903,0.366874 -0.204088,0.574249 -0.581751,-0.420612 -1.26056,-0.515135 -1.744371,-0.176354 -0.276338,0.193694 -0.457472,0.497798 -0.524053,0.879815 -0.09678,0.555681 0.0611,1.193441 0.432922,1.749852 0.44086,0.659742 1.09126,1.044681 1.676876,1.062036 v 0 c 0.392013,0.35027 1.048999,0.848274 1.65485,1.142363 1.137165,0.552495 2.196161,0.826805 3.148344,0.826568 1.38215,0 2.458467,-0.524685 3.300906,-1.668288 1.602254,-1.950378 1.432698,-6.454779 1.272539,-7.684803 z m -3.787147,4.215634 c 0,0.808239 -0.611537,1.465539 -1.363505,1.465539 -0.751979,0 -1.363513,-0.6573 -1.363513,-1.465539 0,-0.808248 0.611534,-1.465545 1.363513,-1.465545 0.751968,0 1.363505,0.657297 1.363505,1.465545 z m -4.777966,0.336091 c -0.06639,-0.09941 -0.138624,-0.191003 -0.213612,-0.277962 -0.0054,-0.0447 -0.0073,-0.08941 -0.0073,-0.13434 0,-0.631407 0.495633,-1.145079 1.104896,-1.145079 0.341786,0 0.659038,0.16463 0.866743,0.437712 -0.09817,0.240103 -0.153624,0.504875 -0.153624,0.783578 0,0.230328 0.03921,0.450404 0.107488,0.655831 -0.221583,0.359786 -0.517468,0.565453 -0.826067,0.565453 -0.192029,0 -0.381334,-0.0828 -0.552,-0.233758 -0.07709,-0.223002 -0.186353,-0.442839 -0.325887,-0.651435 z m -2.119338,1.485337 c -0.295436,-0.44211 -0.428152,-0.956029 -0.355198,-1.374927 0.03004,-0.172695 0.110883,-0.410109 0.32541,-0.560328 0.12523,-0.08767 0.273839,-0.128967 0.433596,-0.128967 0.448374,0 0.985821,0.324618 1.346478,0.863936 0.295207,0.441856 0.428138,0.955534 0.355191,1.374436 -0.03006,0.172926 -0.110902,0.410348 -0.325425,0.560805 -0.475863,0.33366 -1.291008,-0.0033 -1.780052,-0.734955 z m 8.814896,1.291621 c -1.539674,1.523373 -3.074057,1.598675 -5.665192,0.409392 -0.369798,-0.225279 -0.62426,-0.362041 -0.960954,-0.728292 l 0.0803,-0.08599 c 0.188791,-0.270857 0.1813,-0.288424 0.283282,-0.622711 0.02576,-0.148735 0.03216,-0.303359 0.02232,-0.460661 0.137029,0.0535 0.278152,0.085 0.42269,0.085 0.395868,0 0.767203,-0.207123 1.058994,-0.57571 0.329965,0.495355 0.868555,0.819967 1.47759,0.819967 1.0024,0 1.818005,-0.876637 1.818005,-1.954049 0,-0.498286 -0.222115,-0.953954 -0.222115,-0.953954 1.771645,-0.73603 2.166835,-1.242052 2.869109,-2.178835 v 0 0 c 0,0 0.262601,3.88859 -1.169451,6.112062 z"
     id="path2-3"
     sodipodi:nodetypes="ccccscccccccccccccccsssssccsscscscccsccccccsccccccccccscsscc"
     style="color:#e4e4e4;fill:currentColor;fill-opacity:1;stroke-width:1.48133"
     class="ColorScheme-Text" />
  <path
     d="m 10.645663,17.464001 a 0.61932985,0.7812001 0 1 0 0,1.562397 0.61932985,0.7812001 0 1 0 0,-1.562397 z"
     id="path4-3"
     style="color:#e4e4e4;fill:currentColor;fill-opacity:1;stroke-width:0.38291"
     class="ColorScheme-Text" />
  <path
     d="m 16.116765,17.240802 c -0.0237,0 -0.0456,0.0052 -0.06878,0.007 0.195097,0.0357 0.344142,0.217843 0.344142,0.439035 0,0.246413 -0.18497,0.446398 -0.412888,0.446398 -0.227913,0 -0.412883,-0.199985 -0.412883,-0.446398 0,-0.12075 0.04493,-0.230121 0.117058,-0.310469 -0.234941,0.157577 -0.392449,0.436352 -0.392449,0.756867 0,0.493051 0.36973,0.8928 0.825765,0.8928 0.456045,0 0.825774,-0.399749 0.825774,-0.8928 0,-0.493048 -0.369729,-0.892798 -0.825774,-0.892798 z"
     id="path6-5"
     style="color:#e4e4e4;fill:currentColor;fill-opacity:1;stroke-width:0.38291"
     class="ColorScheme-Text" />
  <path
     d="m 13.742676,17.240802 c -0.02039,0 -0.03973,0.0046 -0.06003,0.0063 0.170732,0.03124 0.301197,0.190607 0.301197,0.384124 0,0.215612 -0.161848,0.390598 -0.361272,0.390598 -0.199428,0 -0.361274,-0.174986 -0.361274,-0.390598 0,-0.105572 0.03933,-0.201329 0.102408,-0.27163 -0.205624,0.13794 -0.343527,0.38167 -0.343527,0.662231 0,0.431446 0.323497,0.781202 0.722543,0.781202 0.399062,0 0.72256,-0.349756 0.72256,-0.781202 0,-0.431441 -0.323498,-0.781201 -0.72256,-0.781201 z"
     id="path8-6"
     style="color:#e4e4e4;fill:currentColor;fill-opacity:1;stroke-width:0.38291"
     class="ColorScheme-Text" />
  <path
     d="M 21.670152,21.798546 C 21.361162,21.457937 20.928011,21.385172 20.5919,21.6173 c -0.0052,0.0032 -0.0055,0.0054 -0.0094,0.0075 -0.371109,-0.303431 -0.940685,-0.653848 -1.609888,-0.970129 -0.47233,-0.223172 -0.02574,-0.142012 -0.415002,-0.257187 l -1.202751,0.669142 c 0,0 0.246401,0.217709 1.152472,0.646029 0.635868,0.300431 1.234974,0.509785 1.691823,0.608441 -0.01882,0.175662 -5.54e-4,0.366276 0.05785,0.560012 0.201712,0.667372 1.36114,1.011541 1.492729,1.048591 l 0.249814,0.0703 4.06e-4,-0.286134 c 5.48e-4,-0.363146 -0.02122,-1.574902 -0.329887,-1.915505 z"
     id="path10-2"
     style="color:#e4e4e4;fill:currentColor;fill-opacity:1;stroke-width:1.33141"
     sodipodi:nodetypes="cccccccccccccc"
     class="ColorScheme-Text" />
  <path
     d="m 15.23897,20.733174 c 0,0 3.149302,0.219398 3.149302,-0.555768 0,-0.38525 -0.22979,-0.784102 -0.22979,-0.784102 0,0 0.921974,0.528535 0.782225,1.232287 -0.02145,0.107805 -0.06493,0.220068 -0.136661,0.335914 -0.689534,1.110419 -3.565076,-0.228331 -3.565076,-0.228331 z"
     id="path12"
     style="color:#e4e4e4;fill:currentColor;fill-opacity:1;stroke-width:0.38291"
     class="ColorScheme-Text" />
</svg>
