<?xml version="1.0" encoding="UTF-8" standalone="no"?>
<svg
   xmlns:dc="http://purl.org/dc/elements/1.1/"
   xmlns:cc="http://creativecommons.org/ns#"
   xmlns:rdf="http://www.w3.org/1999/02/22-rdf-syntax-ns#"
   xmlns:svg="http://www.w3.org/2000/svg"
   xmlns="http://www.w3.org/2000/svg"
   xmlns:sodipodi="http://sodipodi.sourceforge.net/DTD/sodipodi-0.dtd"
   xmlns:inkscape="http://www.inkscape.org/namespaces/inkscape"
   viewBox="0 0 32 32"
   version="1.1"
   id="svg12"
   sodipodi:docname="folder-html.svg"
   inkscape:version="1.0.2 (e86c870879, 2021-01-15)">
  <metadata
     id="metadata16">
    <rdf:RDF>
      <cc:Work
         rdf:about="">
        <dc:format>image/svg+xml</dc:format>
        <dc:type
           rdf:resource="http://purl.org/dc/dcmitype/StillImage" />
      </cc:Work>
    </rdf:RDF>
  </metadata>
  <sodipodi:namedview
     pagecolor="#ffffff"
     bordercolor="#666666"
     borderopacity="1"
     objecttolerance="10"
     gridtolerance="10"
     guidetolerance="10"
     inkscape:pageopacity="0"
     inkscape:pageshadow="2"
     inkscape:window-width="1920"
     inkscape:window-height="1011"
     id="namedview14"
     showgrid="true"
     inkscape:zoom="9.8125"
     inkscape:cx="20.878003"
     inkscape:cy="10.726948"
     inkscape:window-x="0"
     inkscape:window-y="0"
     inkscape:window-maximized="1"
     inkscape:current-layer="svg12"
     inkscape:document-rotation="0"
     inkscape:lockguides="false">
    <inkscape:grid
       type="xygrid"
       id="grid841" />
  </sodipodi:namedview>
  <defs
     id="defs3051">
    <style
       type="text/css"
       id="current-color-scheme">
      .ColorScheme-Text {
        color:#31363b;
      }
      .ColorScheme-Background {
        color:#eff0f1;
      }
      .ColorScheme-Highlight {
        color:#3daee9;
      }
      .ColorScheme-ViewText {
        color:#31363b;
      }
      .ColorScheme-ViewBackground {
        color:#fcfcfc;
      }
      .ColorScheme-ViewHover {
        color:#93cee9;
      }
      .ColorScheme-ViewFocus{
        color:#3daee9;
      }
      .ColorScheme-ButtonText {
        color:#31363b;
      }
      .ColorScheme-ButtonBackground {
        color:#eff0f1;
      }
      .ColorScheme-ButtonHover {
        color:#93cee9;
      }
      .ColorScheme-ButtonFocus{
        color:#3daee9;
      }
      </style>
  </defs>
  <path
     style="fill:currentColor;fill-opacity:1;stroke:none"
     d="m 2,7 v 3 c -1,0 -1,0 -1,1 v 14 c 0,3 1,4 4,4 h 7 1 14 c 2.978306,0 4,-1 4,-4 V 8.9896483 9 C 31,8 31,8 30,8 30,5 28,5 25,5 H 16 C 16,5 16,3 14,3 H 6 C 2.9885736,3 2,4 2,7 Z"
     class="ColorScheme-Highlight"
     id="path4"
     sodipodi:nodetypes="ccccccccccccccccc" />
  <path
     style="fill-opacity:0.33;fill-rule:evenodd"
     d="M 6,3 C 3,3 2,4.03267 2,7 v 3 h 9 L 13,8 H 30 C 30,5 28,5 25,5 h -9 c 0,0 0,-2 -2,-2 z"
     id="path6"
     sodipodi:nodetypes="cccccccccc" />
  <path
     style="opacity:0.01;fill:#ffffff;fill-opacity:0.2;fill-rule:evenodd"
     d="m 14,3 1,3 H 27 V 5 H 16 c 0,0 0,-2 -2,-2 z m -1,5 -2,2 H 2 c -1,0 -1,0 -1,1 h 11 z"
     id="path8"
     sodipodi:nodetypes="cccccccccccc" />
  <path
     style="fill-opacity:0.2;fill-rule:evenodd"
     d="M 13,8 11,9 H 2 v 1 h 9 z M 1.738392,28 C 2.2760062,28.56082 3,29 5,29 h 22 c 1.852094,0 2.518009,-0.336138 3.224022,-1 z"
     class="ColorScheme-Text"
     id="path10"
     sodipodi:nodetypes="ccccccccccc" />
  <path
     id="path12"
     class="ColorScheme-Background"
     d="m 16.000002,13.000002 a 5.0000062,4.9999866 0 0 0 -0.960938,0.09375 5.0000062,4.9999866 0 0 0 -0.0332,0.0059 c -0.166142,0.03094 -0.328534,0.06906 -0.490234,0.119141 -0.158542,0.04911 -0.311422,0.111612 -0.462891,0.175781 -0.123794,0.05244 -0.242804,0.111867 -0.361328,0.173828 a 5.0000062,4.9999866 0 0 0 -0.134765,0.07227 c -0.106101,0.05968 -0.209372,0.122406 -0.310547,0.189453 a 5.0000062,4.9999866 0 0 0 -0.148438,0.103516 c -0.0973,0.06965 -0.19319,0.140511 -0.285156,0.216797 a 5.0000062,4.9999866 0 0 0 -0.117188,0.103515 c -0.09616,0.08494 -0.191851,0.169736 -0.28125,0.261719 -0.213265,0.219435 -0.401791,0.461532 -0.572265,0.716797 a 5.0000062,4.9999866 0 0 0 -0.05664,0.08008 c -0.07611,0.118937 -0.144937,0.241742 -0.210937,0.367188 a 5.0000062,4.9999866 0 0 0 -0.04297,0.08203 c -0.0625,0.124372 -0.119775,0.250904 -0.171875,0.380859 a 5.0000062,4.9999866 0 0 0 -0.04297,0.115234 c -0.03207,0.08614 -0.07031,0.16954 -0.09766,0.257813 -0.01378,0.04451 -0.02101,0.09003 -0.0332,0.134766 a 5.0000062,4.9999866 0 0 0 -0.01367,0.05273 c -0.03133,0.121128 -0.06057,0.243063 -0.08203,0.367187 A 5.0000062,4.9999866 0 0 0 11.03321,17.4727 c -4.11e-4,0.004 -0.0015,0.0077 -0.002,0.01172 -1.28e-4,0.0013 1.28e-4,0.0026 0,0.0039 A 5.0000062,4.9999866 0 0 0 11,18.000002 a 5.0000062,4.9999866 0 0 0 0.09375,0.960938 5.0000062,4.9999866 0 0 0 0.0059,0.0332 c 0.03094,0.166142 0.06906,0.328539 0.119141,0.490234 0.04911,0.158542 0.111612,0.311422 0.175781,0.462891 0.05245,0.123794 0.111867,0.242804 0.173828,0.361328 a 5.0000062,4.9999866 0 0 0 0.07227,0.134765 c 0.05968,0.106101 0.122406,0.209372 0.189453,0.310547 a 5.0000062,4.9999866 0 0 0 0.103516,0.148438 c 0.06965,0.0973 0.140511,0.19319 0.216797,0.285156 a 5.0000062,4.9999866 0 0 0 0.103515,0.117188 c 0.08494,0.09617 0.169736,0.191852 0.261719,0.28125 0.219435,0.213266 0.461532,0.401791 0.716797,0.572265 a 5.0000062,4.9999866 0 0 0 0.08008,0.05664 c 0.118937,0.07611 0.241742,0.144937 0.367188,0.210937 a 5.0000062,4.9999866 0 0 0 0.08203,0.04297 c 0.124373,0.06251 0.250904,0.119775 0.380859,0.171875 a 5.0000062,4.9999866 0 0 0 0.115234,0.04297 c 0.08615,0.03207 0.169539,0.07031 0.257813,0.09766 0.0445,0.01378 0.09003,0.02101 0.134766,0.0332 a 5.0000062,4.9999866 0 0 0 0.05273,0.01367 c 0.121128,0.03133 0.243063,0.06057 0.367187,0.08203 a 5.0000062,4.9999866 0 0 0 0.402344,0.05664 c 0.004,4.11e-4 0.0077,0.0015 0.01172,0.002 a 5.0000062,4.9999866 0 0 0 0.0039,0 5.0000062,4.9999866 0 0 0 0.511682,0.03121 5.0000062,4.9999866 0 0 0 0.960938,-0.09375 5.0000062,4.9999866 0 0 0 0.0332,-0.0059 c 0.166143,-0.03094 0.328534,-0.06906 0.490234,-0.119141 0.27698,-0.08616 0.548906,-0.206984 0.804687,-0.339844 0.03338,-0.01734 0.06885,-0.03301 0.101563,-0.05078 a 5.0000062,4.9999866 0 0 0 0.75,-0.505859 c 0.02108,-0.01697 0.04365,-0.03153 0.06445,-0.04883 a 5.0000062,4.9999866 0 0 0 0.574219,-0.574219 c 0.04012,-0.04623 0.08268,-0.08901 0.121094,-0.136719 a 5.0000062,4.9999866 0 0 0 0.421881,-0.624958 c 0.03854,-0.06633 0.07776,-0.130974 0.113281,-0.199219 a 5.0000062,4.9999866 0 0 0 0.291015,-0.685547 c 0.01541,-0.0451 0.04054,-0.08517 0.05469,-0.130859 0.01378,-0.0445 0.02101,-0.09003 0.0332,-0.134766 0.0011,-0.004 0.0028,-0.0077 0.0039,-0.01172 a 5.0000062,4.9999866 0 0 0 0.0098,-0.04102 c 0.03133,-0.121126 0.06057,-0.243063 0.08203,-0.367187 a 5.0000062,4.9999866 0 0 0 0.05664,-0.402344 5.0000062,4.9999866 0 0 0 0.002,-0.01172 c 1.28e-4,-0.0013 -1.28e-4,-0.0026 0,-0.0039 a 5.0000062,4.9999866 0 0 0 0.03118,-0.511718 5.0000062,4.9999866 0 0 0 -0.09375,-0.960938 5.0000062,4.9999866 0 0 0 -0.0059,-0.0332 c -0.03094,-0.166142 -0.06906,-0.328534 -0.119141,-0.490234 -0.0118,-0.03809 -0.03415,-0.07162 -0.04687,-0.109375 a 5.0000062,4.9999866 0 0 0 -0.285156,-0.677734 c -0.03628,-0.07084 -0.07187,-0.140135 -0.111328,-0.208985 a 5.0000062,4.9999866 0 0 0 -0.398438,-0.589843 c -0.02894,-0.03718 -0.05019,-0.08095 -0.08008,-0.117188 -0.05273,-0.06389 -0.112742,-0.119494 -0.169922,-0.177734 A 5.0000062,4.9999866 0 0 0 18.84762,13.898445 c -0.03856,-0.02736 -0.07588,-0.05577 -0.115234,-0.08203 a 5.0000062,4.9999866 0 0 0 -0.08984,-0.05664 c -0.219114,-0.13943 -0.446679,-0.266794 -0.689453,-0.369141 -0.04479,-0.01896 -0.09401,-0.03265 -0.140625,-0.05078 -0.109054,-0.04242 -0.218449,-0.08698 -0.328125,-0.121094 -0.04451,-0.01378 -0.09003,-0.02101 -0.134766,-0.0332 -0.004,-0.0011 -0.0077,-0.0028 -0.01172,-0.0039 a 5.0000062,4.9999866 0 0 0 -0.04102,-0.0098 C 17.175708,13.14053 17.053774,13.11129 16.92965,13.08983 a 5.0000062,4.9999866 0 0 0 -0.402344,-0.05664 5.0000062,4.9999866 0 0 0 -0.01172,-0.002 c -0.0013,-1.28e-4 -0.0026,1.28e-4 -0.0039,0 A 5.0000062,4.9999866 0 0 0 16.000002,13 Z m 0,1 a 4.0000062,3.9999905 0 0 1 2.117188,0.613281 c -0.0023,0.0048 -0.0063,0.0052 -0.0078,0.01172 0.01824,0.03706 0.06445,0.04061 0.107422,0.04883 a 4.0000062,3.9999905 0 0 1 0.06641,0.04492 c 0.02501,0.03437 0.05495,0.08537 0.06055,0.109375 0.007,0.0254 0.0109,0.113365 0,0.140625 -0.0282,0.0727 -0.10388,0.0643 -0.1875,0.0625 -0.0228,0 -0.0416,0.002 -0.0625,0 -0.1409,-0.009 -0.28012,-0.05392 -0.34375,0.04687 0.004,0.0773 0.0173,0.12025 0,0.1875 -0.0127,0.0491 -0.0652,0.0823 -0.0625,0.125 10e-4,0.0218 0.04147,0.06385 0.04687,0.09375 0.004,0.0164 -0.007,0.048 0,0.0625 0.0237,0.0446 0.0832,-0.007 0.125,0 0.04,0.006 0.07813,0.0649 0.07813,0.109375 0,0.0318 -0.01125,0.0941 -0.03125,0.125 -0.04,0.06 -0.114615,0.04542 -0.171875,0.07813 -0.0472,0.0273 -0.06565,0.09341 -0.09375,0.140625 -0.03,0.0509 -0.05878,0.0679 -0.04687,0.140625 -0.0409,0.0809 -0.0874,0.132795 -0.171875,0.171875 -0.0245,0.0109 -0.05542,0.03057 -0.07813,0.04687 -0.0182,0.0127 -0.037,0.0334 -0.0625,0.0625 -0.0318,0.0354 -0.07655,0.05082 -0.09375,0.07813 -0.0128,0.0209 -0.002,0.06565 -0.01563,0.09375 -0.02,0.0382 -0.05272,0.07119 -0.07813,0.109375 -0.0118,0.0182 -0.03428,0.0389 -0.04687,0.0625 -0.0291,0.0527 -0.068,0.0943 -0.0625,0.140625 0.004,0.0445 0.0598,0.05475 0.0625,0.09375 0.002,0.0218 -0.01663,0.0389 -0.01563,0.0625 10e-4,0.0345 0.01292,0.05092 0.01563,0.07813 0.006,0.0672 -0.03418,0.0943 -0.04687,0.140625 -0.006,0.0218 0.005,0.0453 0,0.0625 -0.0109,0.0336 -0.0616,0.05385 -0.0625,0.09375 -0.001,0.0282 0.04417,0.05385 0.04687,0.09375 0.002,0.0272 -0.02113,0.05272 -0.01563,0.07813 0.01,0.0491 0.102445,0.11808 0.140625,0.15625 0.0518,0.0518 0.10228,0.0861 0.125,0.140625 0.0191,0.0463 0.027,0.12171 0.0625,0.15625 0.0263,0.0254 0.0757,0.0362 0.109375,0.0625 0.0318,0.0245 0.07569,0.0362 0.109375,0.0625 0.0555,0.0436 0.13056,0.13137 0.21875,0.125 0.0464,-0.004 0.08881,-0.02225 0.140625,-0.03125 0.0536,-0.009 0.117325,-0.03675 0.171875,-0.03125 0.0418,0.005 0.0814,0.03405 0.125,0.03125 0.0455,-0.003 0.10444,-0.02417 0.15625,-0.04687 0.09,-0.0391 0.228475,-0.11288 0.359375,-0.09375 0.1,0.0146 0.101875,0.127355 0.171875,0.171875 0.08,0.007 0.139495,-0.0154 0.203125,0 0.0482,0.0118 0.104825,0.102465 0.109375,0.140625 0.005,0.0391 -0.02585,0.06925 -0.03125,0.09375 -0.0127,0.0527 -0.02225,0.12263 -0.03125,0.15625 -0.007,0.0264 -0.01653,0.05183 -0.01563,0.07813 0,0.0237 0.038,0.0785 0.0625,0.109375 0.03,0.0382 0.073,0.06761 0.109375,0.109375 0.0664,0.0763 0.09429,0.18037 0.140625,0.28125 0.0118,0.0255 -0.0109,0.0307 0,0.0625 -0.02,0.15268 -0.0719,0.252845 -0.171875,0.421875 -0.0473,0.0545 -0.09475,0.11935 -0.09375,0.1875 -0.004,0.16358 0.08543,0.24812 0.07813,0.40625 -2.65e-4,0.0035 2.48e-4,0.0025 0,0.0059 a 4.0000062,3.9999905 0 0 1 -3.21876,1.634704 4.0000062,3.9999905 0 0 1 -1.177734,-0.175781 c 2.12e-4,-0.0051 0.0064,-0.0064 0.0059,-0.01172 -0.002,-0.0264 -0.02598,-0.0389 -0.04687,-0.0625 -0.0172,-0.02 -0.004,-0.0443 -0.01563,-0.0625 -0.0218,-0.0318 -0.0534,-0.04745 -0.0625,-0.09375 0.0654,-0.0127 0.15546,0.07327 0.25,0.04687 0.0446,-0.0127 0.119725,-0.0988 0.140625,-0.140625 0.006,-0.0127 -0.007,-0.06263 0,-0.07813 0.008,-0.0172 0.02855,-0.02225 0.03125,-0.03125 0.006,-0.0245 -0.005,-0.03158 0,-0.04687 0.0163,-0.0464 0.06655,-0.07579 0.09375,-0.109375 0.0209,-0.0255 0.0434,-0.05183 0.0625,-0.07813 0.0218,-0.0282 0.03238,-0.0379 0.04687,-0.0625 0.0137,-0.0827 -0.05135,-0.14606 -0.03125,-0.21875 0.0218,-0.0818 0.13967,-0.134615 0.21875,-0.171875 0.0273,-0.0128 0.05542,-0.03868 0.07813,-0.04687 0.0545,-0.0191 0.120975,-0.01315 0.171875,-0.03125 0.0854,-0.0309 0.11444,-0.124975 0.15625,-0.203125 0.02,-0.0363 0.04317,-0.06745 0.04687,-0.09375 0.003,-0.0236 -0.005,-0.05082 0,-0.07813 0.005,-0.0272 0.008,-0.04812 0.01563,-0.07813 0.01,-0.0391 0.01563,-0.11262 0.01563,-0.15625 0,-0.0363 -0.01473,-0.04543 -0.01563,-0.07813 -0.006,-0.11814 0.03452,-0.12298 0.07813,-0.1875 0.0218,-0.0318 0.03148,-0.08669 0.04687,-0.109375 0.0736,-0.10905 0.19659,-0.162735 0.1875,-0.328125 -0.004,-0.0545 -0.0225,-0.17023 -0.0625,-0.1875 -0.0228,-0.01 -0.0757,-0.003 -0.109375,-0.01563 -0.10727,-0.04 -0.185065,-0.162785 -0.296875,-0.171875 -0.0237,-0.001 -0.0362,0.001 -0.0625,0 -0.0437,-0.001 -0.0915,-0.04147 -0.140625,-0.04687 -0.0309,-0.004 -0.0912,0.009 -0.109375,0 -0.0282,-0.0136 -0.02417,-0.06273 -0.04687,-0.07813 -0.0182,-0.0127 -0.05002,-0.02135 -0.07813,-0.03125 -0.0446,-0.0172 -0.0732,-0.02765 -0.125,-0.03125 -0.0163,-0.001 -0.06002,0.003 -0.07813,0 -0.0282,-0.005 -0.05182,-0.03057 -0.07813,-0.04687 -0.0327,-0.02 -0.0489,-0.0343 -0.0625,-0.0625 0.03,-0.0982 -0.07385,-0.114635 -0.09375,-0.171875 -0.009,-0.0264 0.009,-0.07015 0,-0.09375 -0.0118,-0.0337 -0.04092,-0.05003 -0.07813,-0.07813 -0.0654,-0.0509 -0.12512,-0.09761 -0.21875,-0.109375 -0.0418,-0.005 -0.09061,0.003 -0.140625,0 -0.0527,-0.004 -0.11626,-0.03272 -0.15625,-0.07813 -0.0382,-0.0446 -0.04453,-0.08851 -0.07813,-0.109375 -0.0318,-0.02 -0.0876,-0.02607 -0.109375,-0.04687 -0.01,-0.009 -0.007,-0.02607 -0.01563,-0.04687 -0.0163,-0.0328 -0.05125,-0.03813 -0.03125,-0.07813 -0.0364,-0.0182 -0.0234,0.02293 -0.0625,0.01563 -0.0355,-0.05 -0.06059,-0.0779 -0.140625,-0.0625 -0.0364,0.007 -0.06671,0.0616 -0.109375,0.0625 -0.0355,0.001 -0.063,-0.0561 -0.109375,-0.0625 -0.0355,-0.005 -0.0848,0.03675 -0.109375,0.03125 -0.0391,-0.007 -0.04273,-0.05453 -0.07813,-0.07813 -0.0264,-0.0173 -0.07925,-0.0634 -0.09375,-0.0625 -0.0455,0.001 -0.0779,0.0961 -0.140625,0.0625 -0.0309,-0.0391 0.05203,-0.04182 0.01563,-0.07813 -0.0273,-0.0272 -0.0407,0.001 -0.0625,0.01563 -0.0255,0.0172 -0.05002,0.03698 -0.07813,0.04687 -0.0627,0.0236 -0.10717,0.02147 -0.15625,0.04687 -0.0455,0.0236 -0.05182,0.06301 -0.07813,0.109375 -0.0209,0.0382 -0.06195,0.09195 -0.09375,0.09375 -0.0382,0.002 -0.07479,-0.0479 -0.109375,-0.0625 -0.10453,-0.0455 -0.16365,0.03035 -0.25,0.03125 -0.08,10e-4 -0.19113,-0.127695 -0.1875,-0.203125 0.002,-0.0464 0.02585,-0.114625 0.03125,-0.171875 0.005,-0.0455 0.04598,-0.0832 0.04687,-0.125 0.001,-0.0554 -0.0886,-0.103015 -0.125,-0.109375 -0.05141,-0.0093 -0.111609,1.84e-4 -0.173828,0.0059 a 4.0000062,3.9999905 0 0 1 0.380859,-1.152343 c 0.0033,9.2e-4 0.0088,0.0056 0.01172,0.0059 0.0291,0.001 0.0352,-0.03585 0.0625,-0.03125 0.0273,0.005 0.07362,0.06105 0.07813,0.09375 0.004,0.0409 -0.02753,0.0796 -0.01563,0.125 0.0427,0.0437 0.12659,0.06835 0.1875,0.09375 0.04,-0.0327 0.006,-0.10899 0,-0.15625 -0.001,-0.0209 0.002,-0.0434 0,-0.0625 -0.005,-0.0327 -0.01563,-0.06565 -0.01563,-0.09375 0,-0.12996 0.10023,-0.183475 0.1875,-0.234375 0.0372,-0.0218 0.07661,-0.06183 0.109375,-0.07813 0.0463,-0.0227 0.07119,-0.02518 0.109375,-0.04687 0.0691,-0.0391 0.13386,-0.0805 0.1875,-0.125 0.0245,-0.0591 -0.002,-0.12934 0,-0.1875 0.0245,-0.0154 0.0361,0.002 0.0625,0 0.0418,-0.009 0.05452,-0.07015 0.07813,-0.09375 0.0136,-0.0136 0.06172,-0.01775 0.07813,-0.03125 0.0418,-0.0328 0.04172,-0.07925 0.07813,-0.09375 0.0127,-0.005 0.0424,-0.01023 0.0625,-0.01563 0.0273,-0.007 0.06569,-0.03158 0.109375,-0.04687 0.0282,-0.01 0.0985,-0.005 0.109375,-0.01563 0.0136,-0.0136 -0.004,-0.07285 0,-0.09375 0.0218,-0.10269 0.173815,-0.106085 0.265625,-0.140625 0.0636,-0.0245 0.132215,-0.0761 0.203125,-0.0625 -0.0137,0.0491 -0.0743,0.03475 -0.0625,0.09375 0.0154,0.0827 0.111535,-0.01955 0.140625,-0.03125 0.0555,-0.0236 0.161655,-0.0362 0.234375,-0.0625 0.0636,-0.0227 0.169355,-0.067 0.109375,-0.140625 -0.05,-0.003 -0.06579,0.0443 -0.109375,0.0625 -0.03,0.005 -0.0371,-0.01383 -0.0625,-0.01563 -0.0246,-10e-4 -0.038,0.02013 -0.0625,0.01563 -0.0246,-0.005 -0.0589,-0.04903 -0.0625,-0.07813 -0.01,-0.0763 0.0785,-0.0999 0.109375,-0.15625 -0.0209,-0.0691 -0.113695,-0.004 -0.171875,-0.03125 0.006,-0.0409 0.02993,-0.08565 0.07813,-0.09375 0.0391,-0.006 0.13261,0.01245 0.15625,0.03125 0.0136,0.0118 -0.005,0.0434 0.01563,0.0625 0.0236,0.0209 0.06285,0.005 0.09375,0 0.0109,-0.0518 -0.0716,-0.0289 -0.0625,-0.0625 0.0618,-0.04 0.17455,-0.02135 0.25,-0.03125 0.0436,-0.006 0.0859,-0.0416 0.125,-0.0625 0.0363,-0.0209 0.07121,-0.05022 0.109375,-0.01563 0.0109,0.0372 -0.02608,0.05903 -0.04687,0.07813 -0.07,0.0618 -0.13296,0.131335 -0.1875,0.203125 0.0336,0.0327 0.08429,0.009 0.140625,0.01563 0.0218,0.003 0.05542,0.01202 0.07813,0.01563 0.0273,0.005 0.05632,-0.005 0.07813,0 0.0382,0.009 0.03993,0.0625 0.07813,0.0625 0.0618,0 0.06675,-0.05195 0.03125,-0.09375 0.0109,-0.0428 0.03112,-0.0794 0.01563,-0.109375 -0.0282,-0.0564 -0.135175,0.009 -0.140625,-0.0625 -0.004,-0.0454 0.0461,-0.05925 0.0625,-0.09375 -0.007,-0.0872 0.0716,-0.0928 0.0625,-0.171875 -0.005,-0.0328 -0.0398,-0.0317 -0.0625,-0.0625 -0.0118,-0.0163 -0.01775,-0.0507 -0.03125,-0.0625 -0.01172,-0.0099 -0.02814,-0.0134 -0.04297,-0.01953 a 4.0000062,3.9999905 0 0 1 0.746048,-0.07427 z m -2.638672,1 c 0.01214,-0.0015 0.03093,0.0019 0.04492,0 0.0209,-10e-4 0.0397,0 0.0625,0 0.0227,0 0.0534,-0.009 0.0625,0 -0.01373,0.05643 -0.135204,0.03796 -0.189453,0.01758 a 4.0000062,3.9999905 0 0 1 0.01953,-0.01758 z m 5.34375,0.06055 a 4.0000062,3.9999905 0 0 1 0.451172,0.486328 c -0.0328,0 -0.06565,0.01563 -0.09375,0.01563 -0.04,0.001 -0.121875,-0.02022 -0.171875,-0.01563 -0.03,0.002 -0.05003,0.01383 -0.07813,0.01563 -0.0791,0.006 -0.12569,-0.005 -0.1875,0 -0.0446,0.003 -0.130055,0.02787 -0.171875,0.04687 -0.0209,0.01 -0.0352,0.03327 -0.0625,0.04687 -0.0127,0.006 -0.03047,0.008 -0.04687,0.01563 -0.0254,0.0118 -0.06925,0.04058 -0.09375,0.04687 -0.0354,0.009 -0.0761,-0.003 -0.140625,0 -0.0464,0.002 -0.12409,-0.007 -0.125,-0.0625 -10e-4,-0.0845 0.154385,-0.048 0.234375,-0.0625 0.03,-0.006 0.04172,-0.0416 0.07813,-0.0625 0.0173,-0.01 0.03047,-0.02045 0.04687,-0.03125 0.0272,-0.0191 0.07362,-0.05632 0.07813,-0.07813 0.003,-0.02 -0.01843,-0.048 -0.01563,-0.0625 0.004,-0.0191 0.038,-0.038 0.0625,-0.0625 0.0382,-0.0382 0.06209,-0.08479 0.109375,-0.109375 0.0318,-0.0172 0.09481,-0.02148 0.109375,-0.04687 0.004,-0.0291 -9.9e-4,-0.0362 0,-0.0625 0.01125,-0.01024 0.01394,-0.01238 0.01758,-0.01758 z m 0.529297,0.595703 a 4.0000062,3.9999905 0 0 1 0.169922,0.25 c -0.0046,-1.06e-4 -0.0081,8.75e-4 -0.01367,0 -0.0309,-0.003 -0.08391,-1.95e-4 -0.109375,-0.01563 -0.0246,-0.0154 -0.08745,-0.0416 -0.09375,-0.0625 -0.01,-0.0336 0.07633,-0.08121 0.07813,-0.109375 0.002,-0.0218 -0.02675,-0.0298 -0.03125,-0.0625 z m -7.21875,2.007812 c 0.0242,0.0353 0.05048,0.06987 0.07813,0.08594 0.002,0.0291 -0.009,0.05633 0,0.07813 0.0236,0.0318 0.07121,0.0416 0.109375,0.0625 0.0463,0.0254 0.06569,0.0894 0.109375,0.109375 0.0154,0.006 0.0389,-0.007 0.0625,0 0.06,0.0182 0.0732,0.10925 0.125,0.09375 0.0336,-0.01 0.04138,-0.06105 0.04687,-0.09375 0.0227,-0.0245 0.04262,-0.0625 0.07813,-0.0625 0.0564,-0.001 0.07285,0.0696 0.09375,0.125 0.0118,0.0309 0.03867,0.06105 0.04687,0.09375 0.0136,0.0563 0.0118,0.21638 0,0.25 -0.0146,0.0418 -0.0748,0.06389 -0.109375,0.109375 -0.0163,0.0218 -0.03417,0.048 -0.04687,0.0625 -0.0218,0.0272 -0.0461,0.038 -0.0625,0.0625 -0.009,0.0136 -0.007,0.0434 -0.01563,0.0625 -0.0273,0.0581 -0.06958,0.101895 -0.04687,0.171875 0.009,0.0282 0.04687,0.06015 0.04687,0.09375 0,0.04 -0.08745,0.05015 -0.09375,0.09375 -0.005,0.0318 0.03688,0.0979 0.04687,0.140625 0.007,0.0318 0.05903,0.05722 0.07813,0.07813 0.0318,0.0354 0.06475,0.0796 0.09375,0.125 0.0573,0.0882 0.08429,0.19491 0.140625,0.28125 0.03,0.0445 0.0894,0.0777 0.109375,0.125 0.01,0.0236 -0.009,0.07205 0,0.09375 0.0327,0.0736 0.191985,0.15115 0.265625,0.1875 0.0345,0.0173 0.06195,0.02877 0.09375,0.04687 0.0482,0.0273 0.147335,0.0823 0.171875,0.125 0.0218,0.0382 0.03588,0.12661 0.04687,0.1875 0.0136,0.08 -0.004,0.148035 0,0.234375 0.002,0.0473 0.01563,0.0777 0.01563,0.125 0,0.0163 10e-4,0.0461 0,0.0625 -10e-4,0.0563 0.005,0.114625 0,0.171875 -0.0015,0.02317 -7.5e-4,0.0475 0,0.07031 a 4.0000062,3.9999905 0 0 1 -1.5,-3.117195 4.0000062,3.9999905 0 0 1 0.01563,-0.335938 z m 1.25,0.195313 c 0.0437,-0.02 0.0354,0.057 0,0.0625 -0.0337,0.005 -0.0327,-0.047 0,-0.0625 z"
     style="color:#eff0f1;fill:#e4e5e5;fill-opacity:1;stroke:none" />
</svg>
