<?xml version="1.0" encoding="UTF-8" standalone="no"?>
<svg
   viewBox="0 0 32 32"
   version="1.1"
   id="svg12"
   sodipodi:docname="folder-appimage.svg"
   inkscape:version="1.2 (dc2aedaf03, 2022-05-15)"
   xmlns:inkscape="http://www.inkscape.org/namespaces/inkscape"
   xmlns:sodipodi="http://sodipodi.sourceforge.net/DTD/sodipodi-0.dtd"
   xmlns="http://www.w3.org/2000/svg"
   xmlns:svg="http://www.w3.org/2000/svg"
   xmlns:rdf="http://www.w3.org/1999/02/22-rdf-syntax-ns#"
   xmlns:cc="http://creativecommons.org/ns#"
   xmlns:dc="http://purl.org/dc/elements/1.1/">
  <metadata
     id="metadata16">
    <rdf:RDF>
      <cc:Work
         rdf:about="">
        <dc:format>image/svg+xml</dc:format>
        <dc:type
           rdf:resource="http://purl.org/dc/dcmitype/StillImage" />
      </cc:Work>
    </rdf:RDF>
  </metadata>
  <sodipodi:namedview
     pagecolor="#ffffff"
     bordercolor="#666666"
     borderopacity="1"
     objecttolerance="10"
     gridtolerance="10"
     guidetolerance="10"
     inkscape:pageopacity="0"
     inkscape:pageshadow="2"
     inkscape:window-width="1920"
     inkscape:window-height="1000"
     id="namedview14"
     showgrid="true"
     inkscape:zoom="9.8125"
     inkscape:cx="20.942675"
     inkscape:cy="10.751592"
     inkscape:window-x="0"
     inkscape:window-y="0"
     inkscape:window-maximized="1"
     inkscape:current-layer="svg12"
     inkscape:document-rotation="0"
     inkscape:lockguides="false"
     inkscape:showpageshadow="2"
     inkscape:pagecheckerboard="0"
     inkscape:deskcolor="#d1d1d1">
    <inkscape:grid
       type="xygrid"
       id="grid841" />
  </sodipodi:namedview>
  <defs
     id="defs3051">
    <style
       type="text/css"
       id="current-color-scheme">
      .ColorScheme-Text {
        color:#31363b;
      }
      .ColorScheme-Background {
        color:#eff0f1;
      }
      .ColorScheme-Highlight {
        color:#3daee9;
      }
      .ColorScheme-ViewText {
        color:#31363b;
      }
      .ColorScheme-ViewBackground {
        color:#fcfcfc;
      }
      .ColorScheme-ViewHover {
        color:#93cee9;
      }
      .ColorScheme-ViewFocus{
        color:#3daee9;
      }
      .ColorScheme-ButtonText {
        color:#31363b;
      }
      .ColorScheme-ButtonBackground {
        color:#eff0f1;
      }
      .ColorScheme-ButtonHover {
        color:#93cee9;
      }
      .ColorScheme-ButtonFocus{
        color:#3daee9;
      }
      </style>
  </defs>
  <path
     style="fill:currentColor;fill-opacity:1;stroke:none"
     d="m 2,7 v 3 c -1,0 -1,0 -1,1 v 14 c 0,3 1,4 4,4 h 7 1 14 c 2.978306,0 4,-1 4,-4 V 8.9896483 9 C 31,8 31,8 30,8 30,5 28,5 25,5 H 16 C 16,5 16,3 14,3 H 6 C 2.9885736,3 2,4 2,7 Z"
     class="ColorScheme-Highlight"
     id="path4"
     sodipodi:nodetypes="ccccccccccccccccc" />
  <path
     style="fill-opacity:0.33;fill-rule:evenodd"
     d="M 6,3 C 3,3 2,4.03267 2,7 v 3 h 9 L 13,8 H 30 C 30,5 28,5 25,5 h -9 c 0,0 0,-2 -2,-2 z"
     id="path6"
     sodipodi:nodetypes="cccccccccc" />
  <path
     style="opacity:0.01;fill:#ffffff;fill-opacity:0.2;fill-rule:evenodd"
     d="m 14,3 1,3 H 27 V 5 H 16 c 0,0 0,-2 -2,-2 z m -1,5 -2,2 H 2 c -1,0 -1,0 -1,1 h 11 z"
     id="path8"
     sodipodi:nodetypes="cccccccccccc" />
  <path
     style="fill-opacity:0.2;fill-rule:evenodd"
     d="M 13,8 11,9 H 2 v 1 h 9 z M 1.738392,28 C 2.2760062,28.56082 3,29 5,29 h 22 c 1.852094,0 2.518009,-0.336138 3.224022,-1 z"
     class="ColorScheme-Text"
     id="path10"
     sodipodi:nodetypes="ccccccccccc" />
  <path
     style="color:#31363b;fill:#e5e5e5;fill-opacity:1;stroke:none"
     d="m 15,12 v 2 H 14 L 16.5,16.5 19,14 h -1 v -2 z m 1,5 v 1.050781 c -0.312974,0.06458 -0.610665,0.18856 -0.876953,0.365235 l -0.744141,-0.744141 -0.707031,0.707031 0.744141,0.744141 C 14.240718,19.38963 14.118068,19.687304 14.054688,20 H 13 v 1 h 1.050781 c 0.06458,0.312974 0.18856,0.610665 0.365235,0.876953 l -0.744141,0.744141 0.707031,0.707031 0.744141,-0.744141 C 15.38963,22.759282 15.687304,22.881932 16,22.945312 V 24 h 1 v -1.050781 c 0.312974,-0.06458 0.610665,-0.18856 0.876953,-0.365235 l 0.744141,0.744141 0.707031,-0.707031 -0.744141,-0.744141 C 18.759282,21.61037 18.881932,21.312696 18.945312,21 H 20 v -1 h -1.050781 c -0.06458,-0.312974 -0.18856,-0.610665 -0.365235,-0.876953 l 0.744141,-0.744141 -0.707031,-0.707031 -0.744141,0.744141 C 17.61037,18.240718 17.312696,18.118068 17,18.054688 V 17 Z m 0.5,2 c 0.405488,-1e-6 0.793703,0.164162 1.076172,0.455078 C 17.847971,19.735007 18.000001,20.109827 18,20.5 c 1e-6,0.405488 -0.164162,0.793703 -0.455078,1.076172 C 17.264993,21.847971 16.890173,22.000001 16.5,22 c -0.405488,1e-6 -0.793703,-0.164162 -1.076172,-0.455078 C 15.152029,21.264993 14.999999,20.890173 15,20.5 c -10e-7,-0.405488 0.164162,-0.793703 0.455078,-1.076172 C 15.735007,19.152029 16.109827,18.999999 16.5,19 Z"
     class="ColorScheme-Text"
     id="path20640" />
</svg>
