<?xml version="1.0" encoding="UTF-8" standalone="no"?>
<svg
   viewBox="0 0 24 24"
   version="1.1"
   id="svg1"
   sodipodi:docname="network-wired-activated.svg"
   width="24"
   height="24"
   inkscape:version="1.3.2 (091e20ef0f, 2023-11-25)"
   xmlns:inkscape="http://www.inkscape.org/namespaces/inkscape"
   xmlns:sodipodi="http://sodipodi.sourceforge.net/DTD/sodipodi-0.dtd"
   xmlns="http://www.w3.org/2000/svg"
   xmlns:svg="http://www.w3.org/2000/svg">
  <sodipodi:namedview
     id="namedview1"
     pagecolor="#ffffff"
     bordercolor="#999999"
     borderopacity="1"
     inkscape:showpageshadow="2"
     inkscape:pageopacity="0"
     inkscape:pagecheckerboard="0"
     inkscape:deskcolor="#d1d1d1"
     inkscape:zoom="12.245804"
     inkscape:cx="13.555664"
     inkscape:cy="18.618622"
     inkscape:window-width="1920"
     inkscape:window-height="996"
     inkscape:window-x="0"
     inkscape:window-y="0"
     inkscape:window-maximized="1"
     inkscape:current-layer="svg1"
     showgrid="true">
    <inkscape:grid
       id="grid1"
       units="px"
       originx="0"
       originy="0"
       spacingx="1"
       spacingy="1"
       empcolor="#0099e5"
       empopacity="0.30196078"
       color="#0099e5"
       opacity="0.14902"
       empspacing="5"
       dotted="false"
       gridanglex="30"
       gridanglez="30"
       visible="true" />
  </sodipodi:namedview>
  <defs
     id="defs3051">
    <style
       type="text/css"
       id="current-color-scheme">.ColorScheme-Text { color:#d3dae3; }
</style>
  </defs>
  <g
     id="22-22-network-wired-activated"
     transform="translate(1,1)">
    <rect
       style="fill:none;fill-opacity:1;stroke:none"
       id="rect4509"
       width="22"
       height="22"
       x="0"
       y="0" />
    <path
       style="stroke-width:0.99922;stroke:none;fill-opacity:1;fill:currentColor;"
       d="M 5,3 C 4,3 3,4 3,5 v 8 c 0,1 1.045976,2 2.021841,2.00007 L 8.815913,15 c 0,0 0,1 0.99844,1 v 0 1 H 3.524181 c -0.698908,0 -0.698908,1 0,1 h 6.290172 c 0,0 0,1 0.99844,1 v 0 c 0.998439,0 0.998439,-1 0.998439,-1 h 5.890796 c 0.798752,0 0.798752,-1 0,-1 h -5.890796 v -1 c 0.99844,0 0.99844,-1 0.99844,-1 v 0 0 0 0 0 L 11.786271,14 V 4 c 0.698908,0 0.698908,-1 0,-1 z m 0.521061,1 h 5.266771 0.998439 v 10 l 1.023401,1 h 0.973479 c 0.698908,0 0.698908,-1 0,-1 l -8.390569,10e-6 C 4.548401,14 4,13.49345 4,12.5 v -7 C 4,4.5 4.522621,4 5.521061,4 Z"
       id="rect4144-9-6"
       class="ColorScheme-Text "
       sodipodi:nodetypes="ccccccccccccccccccccccccccccccccccccccc" />
    <path
       class="ColorScheme-Text "
       d="M 15.00624,2 C 14.59022,2 14,2.5 14,3 v 3 c 0,0.5 0.59022,1 1.00624,1 H 16 v 3 c 0,0.7 1,0.7 1,0 V 7 h 1.00156 C 18.50078,7 19,6.5 19,6 V 3 C 19,2.5 18.50078,2 18.00156,2 Z M 15,3 H 18.00156 18 v 2 1 h -3 l 0.0062,-1 z"
       stroke-opacity="0"
       stroke-width="0.334742"
       id="path5-3"
       style="fill-opacity:1;fill:currentColor;"
       sodipodi:nodetypes="ssscccccssssscccccccc" />
    <path
       d="m 16.497092,11.500756 c -0.445809,0.0137 -0.869587,0.196993 -1.184728,0.512618 -0.683152,0.683283 -0.683152,1.79098 0,2.474267 0.683298,0.683145 1.790981,0.683145 2.474261,0 0.683158,-0.683287 0.683158,-1.790984 0,-2.474267 -0.340807,-0.341312 -0.80741,-0.526782 -1.289539,-0.512618 z"
       id="use44033-3"
       sodipodi:nodetypes="sccccss"
       style="fill:#00b4b4;fill-opacity:1;stroke-width:1.16651"
       class="ColorScheme-Text" />
  </g>
</svg>
