<?xml version="1.0" encoding="UTF-8" standalone="no"?>
<svg
   width="24"
   height="24"
   version="1.1"
   id="svg1"
   sodipodi:docname="network-wired.svg"
   inkscape:version="1.3.2 (091e20ef0f, 2023-11-25)"
   xmlns:inkscape="http://www.inkscape.org/namespaces/inkscape"
   xmlns:sodipodi="http://sodipodi.sourceforge.net/DTD/sodipodi-0.dtd"
   xmlns="http://www.w3.org/2000/svg"
   xmlns:svg="http://www.w3.org/2000/svg">
  <defs
     id="defs1" />
  <sodipodi:namedview
     id="namedview1"
     pagecolor="#ffffff"
     bordercolor="#999999"
     borderopacity="1"
     inkscape:showpageshadow="2"
     inkscape:pageopacity="0"
     inkscape:pagecheckerboard="0"
     inkscape:deskcolor="#d1d1d1"
     inkscape:zoom="24.491608"
     inkscape:cx="11.024184"
     inkscape:cy="11.514148"
     inkscape:window-width="1920"
     inkscape:window-height="996"
     inkscape:window-x="0"
     inkscape:window-y="0"
     inkscape:window-maximized="1"
     inkscape:current-layer="svg1"
     showgrid="true">
    <inkscape:grid
       id="grid1"
       units="px"
       originx="0"
       originy="0"
       spacingx="1"
       spacingy="1"
       empcolor="#0099e5"
       empopacity="0.30196078"
       color="#0099e5"
       opacity="0.14902"
       empspacing="5"
       dotted="false"
       gridanglex="30"
       gridanglez="30"
       visible="true" />
  </sodipodi:namedview>
  <style
     type="text/css"
     id="current-color-scheme">.ColorScheme-Text { color:#d3dae3; }
.ColorScheme-Background { color:#eff0f1; }
.ColorScheme-Highlight { color:#3498db; }
.ColorScheme-ViewText { color:#31363b; }
.ColorScheme-ViewBackground { color:#fcfcfc; }
.ColorScheme-ViewHover { color:#93cee9; }
.ColorScheme-ViewFocus { color:#3daee9; }
.ColorScheme-ButtonText { color:#31363b; }
.ColorScheme-ButtonBackground { color:#eff0f1; }
.ColorScheme-ButtonHover { color:#93cee9; }
.ColorScheme-ButtonFocus { color:#3daee9; }
.ColorScheme-NegativeText { color: #e74c3c; }
</style>
  <rect
     style="fill:none;fill-opacity:1;stroke:none"
     id="rect4509-9-6"
     width="22"
     height="22"
     x="0"
     y="0" />
  <path
     style="stroke-width:0.99922;stroke:none;fill-opacity:1;fill:currentColor;"
     d="m 6.0000025,4 c -1,0 -2,1 -2,2 v 8 c 0,1 1.04598,2 2.02184,2.00007 L 9.8159125,16 c 0,0 0,1 0.9984405,1 v 0 1 H 4.5241825 c -0.69891,0 -0.69891,1 0,1 h 6.2901705 c 0,0 0,1 0.99844,1 v 0 c 0.99844,0 0.99844,-1 0.99844,-1 h 5.8908 c 0.798749,0 0.798749,-1 0,-1 h -5.8908 v -1 c 0.99844,0 0.99844,-1 0.99844,-1 v 0 0 0 0 0 l -1.0234,-1 V 5 c 0.69891,0 0.69891,-1 0,-1 z m 0.52106,1 h 5.2667705 0.99844 v 10 l 1.0234,1 h 0.97348 c 0.69891,0 0.69891,-1 0,-1 l -8.3905705,10e-6 C 5.5484025,15 5.0000025,14.49345 5.0000025,13.5 v -7 c 0,-1 0.52262,-1.5 1.52106,-1.5 z"
     id="rect4144-9-6-6"
     class="ColorScheme-Text "
     sodipodi:nodetypes="ccccccccccccccccccccccccccccccccccccccc" />
  <path
     class="ColorScheme-Text "
     d="m 16.006242,3 c -0.41602,0 -1.00624,0.5 -1.00624,1 v 3 c 0,0.5 0.59022,1 1.00624,1 h 0.99376 v 2 h 1 v 2 h -1 v 2 c 0,0.7 1,0.7 1,0 V 10 8 h 1.00156 c 0.49922,0 0.99844,-0.5 0.99844,-1 V 4 c 0,-0.5 -0.49922,-1 -0.99844,-1 z m -0.006,1 h 3.001561 -0.002 v 2 1 h -3 l 0.006,-1 z"
     stroke-opacity="0"
     stroke-width="0.334742"
     id="path5-3-2"
     style="fill-opacity:1;fill:currentColor;"
     sodipodi:nodetypes="sssccccccccccssssscccccccc" />
</svg>
