<?xml version="1.0" encoding="UTF-8" standalone="no"?>
<svg
   xmlns:dc="http://purl.org/dc/elements/1.1/"
   xmlns:cc="http://creativecommons.org/ns#"
   xmlns:rdf="http://www.w3.org/1999/02/22-rdf-syntax-ns#"
   xmlns:svg="http://www.w3.org/2000/svg"
   xmlns="http://www.w3.org/2000/svg"
   xmlns:xlink="http://www.w3.org/1999/xlink"
   xmlns:sodipodi="http://sodipodi.sourceforge.net/DTD/sodipodi-0.dtd"
   xmlns:inkscape="http://www.inkscape.org/namespaces/inkscape"
   width="64"
   height="64"
   version="1.1"
   id="svg144"
   sodipodi:docname="computer-laptop.svg"
   inkscape:version="0.92.5 (2060ec1f9f, 2020-04-08)">
  <metadata
     id="metadata148">
    <rdf:RDF>
      <cc:Work
         rdf:about="">
        <dc:format>image/svg+xml</dc:format>
        <dc:type
           rdf:resource="http://purl.org/dc/dcmitype/StillImage" />
        <dc:title></dc:title>
      </cc:Work>
    </rdf:RDF>
  </metadata>
  <sodipodi:namedview
     pagecolor="#ffffff"
     bordercolor="#666666"
     borderopacity="1"
     objecttolerance="10"
     gridtolerance="10"
     guidetolerance="10"
     inkscape:pageopacity="0"
     inkscape:pageshadow="2"
     inkscape:window-width="1366"
     inkscape:window-height="711"
     id="namedview146"
     showgrid="false"
     inkscape:zoom="8.0625"
     inkscape:cx="32"
     inkscape:cy="32"
     inkscape:window-x="0"
     inkscape:window-y="25"
     inkscape:window-maximized="1"
     inkscape:current-layer="svg144" />
  <defs
     id="defs88">
    <linearGradient
       id="a">
      <stop
         stop-color="#2e5d89"
         id="stop2" />
      <stop
         offset="1"
         stop-color="#1b92f4"
         id="stop4" />
    </linearGradient>
    <linearGradient
       id="o"
       xlink:href="#a"
       y1="512.798"
       y2="527.798"
       x1="400.571"
       x2="415.571"
       gradientUnits="userSpaceOnUse"
       gradientTransform="matrix(1.18182 0 0 1.18182 -74.286 -95.236)" />
    <linearGradient
       id="m">
      <stop
         stop-color="#2a2c2f"
         id="stop8" />
      <stop
         offset="1"
         stop-color="#424649"
         id="stop10" />
    </linearGradient>
    <linearGradient
       id="n">
      <stop
         stop-color="#7e8f9e"
         id="stop13" />
      <stop
         offset="1"
         stop-color="#84ced5"
         id="stop15" />
    </linearGradient>
    <linearGradient
       xlink:href="#b"
       id="r"
       y1="535.798"
       x1="394.571"
       y2="522.798"
       x2="404.571"
       gradientUnits="userSpaceOnUse"
       gradientTransform="matrix(1.1,0,0,1.14286,-49.457,-68.685)" />
    <linearGradient
       id="b">
      <stop
         stop-color="#e4a56d"
         id="stop19" />
      <stop
         offset="1"
         stop-color="#a7bd78"
         id="stop21" />
    </linearGradient>
    <linearGradient
       xlink:href="#c"
       id="s"
       x1="404.571"
       x2="421.571"
       gradientUnits="userSpaceOnUse"
       gradientTransform="matrix(1.07952,0,0,1.14286,-41.173,-68.685)" />
    <linearGradient
       id="c">
      <stop
         stop-color="#c3a278"
         id="stop25" />
      <stop
         offset="1"
         stop-color="#68a"
         id="stop27" />
    </linearGradient>
    <linearGradient
       xlink:href="#d"
       id="t"
       y1="536.798"
       x1="430.571"
       y2="524.798"
       x2="437.5"
       gradientUnits="userSpaceOnUse"
       gradientTransform="matrix(1.1078,0,0,1.14286,-53.449,-68.685)" />
    <linearGradient
       id="d">
      <stop
         stop-color="#6588af"
         id="stop31" />
      <stop
         offset="1"
         stop-color="#8ba8cd"
         id="stop33" />
    </linearGradient>
    <linearGradient
       xlink:href="#e"
       id="u"
       x1="421.571"
       x2="438.571"
       gradientUnits="userSpaceOnUse"
       gradientTransform="matrix(1.04899,0,0,1.1,-27.651,-45.98)" />
    <linearGradient
       id="e">
      <stop
         stop-color="#89ad8b"
         id="stop37" />
      <stop
         offset="1"
         stop-color="#82b3c7"
         id="stop39" />
    </linearGradient>
    <linearGradient
       xlink:href="#f"
       id="v"
       y1="525.798"
       x1="387.571"
       y2="513.798"
       x2="401.571"
       gradientUnits="userSpaceOnUse"
       gradientTransform="matrix(1.1,0,0,1.27514,-49.457,-135.418)" />
    <linearGradient
       id="f">
      <stop
         stop-color="#e1b16f"
         id="stop43" />
      <stop
         offset="1"
         stop-color="#99bf83"
         id="stop45" />
    </linearGradient>
    <linearGradient
       xlink:href="#g"
       id="w"
       y1="510.798"
       x1="404.571"
       y2="498.798"
       x2="391.571"
       gradientUnits="userSpaceOnUse"
       gradientTransform="matrix(1.1,0,0,1.1,-426.028,-537.778)" />
    <linearGradient
       id="g">
      <stop
         stop-color="#99c487"
         id="stop49" />
      <stop
         offset="1"
         stop-color="#b4d99e"
         id="stop51" />
    </linearGradient>
    <linearGradient
       xlink:href="#h"
       id="x"
       y1="501.798"
       x1="404.571"
       y2="501.616"
       x2="421.571"
       gradientUnits="userSpaceOnUse"
       gradientTransform="matrix(1.11765,0,0,1.1,-56.597,-45.98)" />
    <linearGradient
       id="h">
      <stop
         stop-color="#75d5c7"
         id="stop55" />
      <stop
         offset="1"
         stop-color="#66afb9"
         id="stop57" />
    </linearGradient>
    <linearGradient
       xlink:href="#i"
       id="y"
       y1="495.798"
       x1="428.571"
       y2="504.798"
       x2="438.571"
       gradientUnits="userSpaceOnUse"
       gradientTransform="matrix(1.04899,0,0,1.0625,-404.222,-519.036)" />
    <linearGradient
       id="i">
      <stop
         stop-color="#5c7b9e"
         id="stop61" />
      <stop
         offset="1"
         stop-color="#839dc0"
         id="stop63" />
    </linearGradient>
    <linearGradient
       xlink:href="#j"
       id="z"
       x1="421.571"
       x2="406.571"
       gradientUnits="userSpaceOnUse"
       gradientTransform="matrix(1.0871,0,0,1.1,-44.37,-45.98)" />
    <linearGradient
       id="j">
      <stop
         stop-color="#7fbcc6"
         id="stop67" />
      <stop
         offset="1"
         stop-color="#8ee4e3"
         id="stop69" />
    </linearGradient>
    <linearGradient
       xlink:href="#k"
       id="A"
       x1="421.571"
       x2="436.571"
       gradientUnits="userSpaceOnUse"
       gradientTransform="matrix(1.0871,0,0,1.1,-44.37,-45.98)" />
    <linearGradient
       id="k">
      <stop
         stop-color="#84d5d7"
         id="stop73" />
      <stop
         offset="1"
         stop-color="#84a8ba"
         id="stop75" />
    </linearGradient>
    <linearGradient
       xlink:href="#a"
       id="B"
       y1="512.798"
       x1="400.571"
       y2="527.798"
       gradientUnits="userSpaceOnUse"
       x2="415.571"
       gradientTransform="translate(57.625 10.5)" />
    <linearGradient
       xlink:href="#l"
       id="C"
       y1="544.663"
       x1="409.495"
       y2="503.798"
       gradientUnits="userSpaceOnUse"
       x2="409.571"
       gradientTransform="matrix(1.08333,0,0,1.02778,-34.048,-14.995)" />
    <linearGradient
       xlink:href="#m"
       id="D"
       y1="540.798"
       y2="536.798"
       x2="0"
       gradientUnits="userSpaceOnUse" />
    <linearGradient
       id="l">
      <stop
         stop-color="#197cf1"
         id="stop81" />
      <stop
         offset="1"
         stop-color="#20bcfa"
         id="stop83" />
    </linearGradient>
    <linearGradient
       xlink:href="#m"
       id="p"
       gradientUnits="userSpaceOnUse"
       gradientTransform="matrix(1.08333,0,0,1.02778,-34.048,-15.995)"
       x1="409.495"
       y1="544.663"
       x2="409.571"
       y2="503.798" />
    <linearGradient
       xlink:href="#n"
       id="q"
       gradientUnits="userSpaceOnUse"
       gradientTransform="matrix(1.0871,0,0,1.1,-44.37,-45.98)"
       y1="541.798"
       x2="0"
       y2="489.798" />
  </defs>
  <g
     transform="translate(-376.571,-491.798)"
     id="g142">
    <path
       d="m 388.571,501.798 a 5.983,5.983 0 0 0 -5.53,3.66 6.01,6.01 0 0 0 -0.47,2.34 v 31 h 52 v -31 a 5.983,5.983 0 0 0 -3.66,-5.53 6.01,6.01 0 0 0 -2.34,-0.47 z"
       id="path90"
       style="fill:url(#p)"
       inkscape:connector-curvature="0" />
    <path
       d="m 388.571,503.798 c -0.554,0 -1.081,0.11 -1.56,0.312 a 3.989,3.989 0 0 0 -1.27,0.858 c -0.361,0.361 -0.655,0.79 -0.857,1.27 a 4.008,4.008 0 0 0 -0.313,1.56 v 29 h 47.832 V 506.96 c -0.052,-0.24 -0.05,-0.5 -0.144,-0.723 a 3.989,3.989 0 0 0 -0.857,-1.27 3.989,3.989 0 0 0 -1.27,-0.857 4.009,4.009 0 0 0 -1.56,-0.312 z"
       id="path92"
       style="fill:url(#q)"
       inkscape:connector-curvature="0" />
    <path
       d="m 395.571,520.798 -11,9.41 v 6.59 h 11 z"
       id="path94"
       style="fill:url(#r);fill-rule:evenodd"
       inkscape:connector-curvature="0" />
    <path
       d="m 395.571,521.798 v 15 h 18.352 z"
       id="path96"
       style="fill:url(#s);fill-rule:evenodd"
       inkscape:connector-curvature="0" />
    <path
       d="m 432.571,520.798 -19,16 h 19 z"
       id="path98"
       style="fill:url(#t);fill-rule:evenodd"
       inkscape:connector-curvature="0" />
    <path
       d="m 414.571,530.198 v -24.4 l 18,15 -18,16 z"
       id="path100"
       style="fill:url(#u);fill-rule:evenodd"
       inkscape:connector-curvature="0" />
    <path
       d="m 384.571,511.798 v 21 l 11,-11 z"
       id="path102"
       style="fill:url(#v);fill-rule:evenodd"
       inkscape:connector-curvature="0" />
    <path
       d="m 12,12 c -0.554,0 -1.082,0.11 -1.56,0.313 A 3.989,3.989 0 0 0 9.17,13.17 C 8.808,13.531 8.514,13.96 8.313,14.44 A 4.008,4.008 0 0 0 8,16 v 4.543 L 19,30 V 12 Z"
       transform="translate(376.571,491.798)"
       id="path104"
       style="fill:url(#w);fill-rule:evenodd"
       inkscape:connector-curvature="0" />
    <path
       d="m 395.571,503.798 v 18 l 19,-16 -3,-2 z"
       id="path106"
       style="fill:url(#x);fill-rule:evenodd"
       inkscape:connector-curvature="0" />
    <path
       d="M 56,29 V 16 c 0,-0.554 -0.11,-1.082 -0.313,-1.56 A 3.989,3.989 0 0 0 54.83,13.17 3.989,3.989 0 0 0 53.56,12.313 4.008,4.008 0 0 0 52,12 H 40.549 L 38,14 Z"
       transform="translate(376.571,491.798)"
       id="path108"
       style="fill:url(#y);fill-rule:evenodd"
       inkscape:connector-curvature="0" />
    <path
       d="m 411.571,503.798 3,2 v -2 z"
       id="path110"
       style="fill:url(#z);fill-rule:evenodd"
       inkscape:connector-curvature="0" />
    <path
       d="m 414.571,503.798 v 2 l 3,-2 z"
       id="path112"
       style="fill:url(#A);fill-rule:evenodd"
       inkscape:connector-curvature="0" />
    <path
       d="m 384.571,532.798 h 48 v 4 h -48 z"
       id="path114"
       inkscape:connector-curvature="0"
       style="fill:#ffffff;fill-opacity:0.78399999" />
    <circle
       r="1"
       cy="534.79797"
       cx="429.57101"
       id="circle116"
       style="fill:#4d4d4d" />
    <path
       d="m 386.571,533.798 v 1 h 1 v -1 z m 1,1 v 1 h 1 v -1 z"
       id="path118"
       inkscape:connector-curvature="0"
       style="fill:#4d4d4d" />
    <path
       d="m 386.571,505.798 h 20 v 17 h -20 z"
       id="path120"
       inkscape:connector-curvature="0"
       style="fill:#ffffff;fill-opacity:0.78399999" />
    <path
       d="m 387.571,506.798 v 4 h 4.167 v -3 h -1.042 l -1.041,-1 z"
       id="path122"
       inkscape:connector-curvature="0"
       style="fill:#3580ca" />
    <path
       d="m 395.571,506.798 v 5 h 4 v -3 l -2,-2 z"
       id="path124"
       inkscape:connector-curvature="0"
       style="fill:#ff9955" />
    <path
       d="m 397.571,506.798 2,2 h -2 z"
       id="path126"
       inkscape:connector-curvature="0"
       style="fill:#d45500;fill-rule:evenodd" />
    <path
       d="m 387.571,507.798 h 5 v 4 h -5 z"
       id="path128"
       inkscape:connector-curvature="0"
       style="fill:#7aabdc" />
    <path
       d="m 401.571,506.798 v 5 h 4 v -3 l -2,-2 z"
       id="path130"
       inkscape:connector-curvature="0"
       style="fill:#71c837" />
    <path
       d="m 403.571,506.798 2,2 h -2 z"
       id="path132"
       inkscape:connector-curvature="0"
       style="fill:#447821;fill-rule:evenodd" />
    <path
       d="m 380.571,540.798 v 2 a 2,2 0 0 0 2,2 h 52 a 2,2 0 0 0 2,-2 v -2 z"
       id="path134"
       style="fill:url(#C)"
       inkscape:connector-curvature="0" />
    <circle
       cx="384.57101"
       cy="542.79797"
       r="1"
       id="circle136"
       style="fill:#ffffff;fill-opacity:0.78399999" />
    <path
       d="m 380.571,540.798 h 56 l -2,-2 h -52 z"
       id="path138"
       style="fill:url(#D);fill-rule:evenodd"
       inkscape:connector-curvature="0" />
    <path
       d="m 380.571,541.798 v 1 a 2,2 0 0 0 2,2 h 52 a 2,2 0 0 0 2,-2 v -1 a 2,2 0 0 1 -2,2 h -52 a 2,2 0 0 1 -2,-2 z"
       id="path140"
       inkscape:connector-curvature="0"
       style="fill:#0b66cb" />
  </g>
</svg>
