<?xml version="1.0" encoding="UTF-8" standalone="no"?>
<svg
   xmlns:dc="http://purl.org/dc/elements/1.1/"
   xmlns:cc="http://creativecommons.org/ns#"
   xmlns:rdf="http://www.w3.org/1999/02/22-rdf-syntax-ns#"
   xmlns:svg="http://www.w3.org/2000/svg"
   xmlns="http://www.w3.org/2000/svg"
   xmlns:xlink="http://www.w3.org/1999/xlink"
   xmlns:sodipodi="http://sodipodi.sourceforge.net/DTD/sodipodi-0.dtd"
   xmlns:inkscape="http://www.inkscape.org/namespaces/inkscape"
   width="64"
   height="64"
   version="1.1"
   id="svg53"
   sodipodi:docname="input-touchpad.svg"
   inkscape:version="0.92.5 (2060ec1f9f, 2020-04-08)">
  <metadata
     id="metadata57">
    <rdf:RDF>
      <cc:Work
         rdf:about="">
        <dc:format>image/svg+xml</dc:format>
        <dc:type
           rdf:resource="http://purl.org/dc/dcmitype/StillImage" />
        <dc:title></dc:title>
      </cc:Work>
    </rdf:RDF>
  </metadata>
  <sodipodi:namedview
     pagecolor="#ffffff"
     bordercolor="#666666"
     borderopacity="1"
     objecttolerance="10"
     gridtolerance="10"
     guidetolerance="10"
     inkscape:pageopacity="0"
     inkscape:pageshadow="2"
     inkscape:window-width="1366"
     inkscape:window-height="711"
     id="namedview55"
     showgrid="false"
     inkscape:zoom="3.6875"
     inkscape:cx="2.8474576"
     inkscape:cy="32"
     inkscape:window-x="0"
     inkscape:window-y="25"
     inkscape:window-maximized="1"
     inkscape:current-layer="svg53" />
  <defs
     id="defs33">
    <linearGradient
       id="a">
      <stop
         stop-color="#566069"
         id="stop2" />
      <stop
         offset="1"
         stop-color="#18222a"
         id="stop4" />
    </linearGradient>
    <linearGradient
       id="c">
      <stop
         stop-color="#253440"
         id="stop7" />
      <stop
         offset="1"
         stop-color="#566069"
         stop-opacity=".463"
         id="stop9" />
    </linearGradient>
    <linearGradient
       id="b">
      <stop
         stop-color="#18222a"
         id="stop12" />
      <stop
         offset="1"
         stop-color="#566069"
         id="stop14" />
    </linearGradient>
    <linearGradient
       id="d">
      <stop
         stop-color="#197cf1"
         id="stop17" />
      <stop
         offset="1"
         stop-color="#21c9fb"
         id="stop19" />
    </linearGradient>
    <linearGradient
       id="g"
       xlink:href="#b"
       y1="543.798"
       y2="519.798"
       gradientUnits="userSpaceOnUse"
       x2="0"
       gradientTransform="matrix(2,0,0,2,-392.573,-539.798)" />
    <linearGradient
       id="h"
       xlink:href="#c"
       y1="543.798"
       y2="539.798"
       gradientUnits="userSpaceOnUse"
       x2="0"
       gradientTransform="matrix(2,0,0,2,-743.144,-1031.596)" />
    <linearGradient
       id="j"
       xlink:href="#d"
       y1="19"
       y2="10"
       x1="20"
       gradientUnits="userSpaceOnUse"
       x2="8"
       gradientTransform="matrix(2,0,0,2,378.571,489.298)" />
    <linearGradient
       id="i"
       xlink:href="#e"
       y1="9"
       y2="23"
       x1="9"
       gradientUnits="userSpaceOnUse"
       x2="23"
       gradientTransform="matrix(2,0,0,2,378.571,488.798)" />
    <linearGradient
       id="e">
      <stop
         stop-color="#292c2f"
         id="stop26" />
      <stop
         offset="1"
         stop-opacity="0"
         id="stop28" />
    </linearGradient>
    <linearGradient
       xlink:href="#c"
       id="k"
       gradientUnits="userSpaceOnUse"
       gradientTransform="matrix(2,0,0,2,-392.573,-539.798)"
       y1="543.798"
       x2="0"
       y2="539.798" />
    <radialGradient
       cx="400.571"
       cy="531.798"
       r="14"
       id="f"
       xlink:href="#a"
       gradientUnits="userSpaceOnUse"
       gradientTransform="matrix(2,0,0,2,-392.573,-539.8)" />
  </defs>
  <g
     transform="translate(-376.571,-491.798)"
     id="g51">
    <rect
       width="52"
       x="382.57101"
       y="497.798"
       rx="5"
       height="52"
       id="rect35"
       style="fill:url(#f)" />
    <rect
       width="48"
       x="384.57101"
       y="499.798"
       rx="4"
       height="48"
       id="rect37"
       style="fill:url(#g)" />
    <rect
       width="22"
       x="410.57101"
       y="539.79797"
       rx="2"
       height="8"
       ry="0"
       id="rect39"
       style="fill:#83878a" />
    <path
       d="m 34,54 a 1.994,1.994 0 0 0 2,2 h 18 a 1.994,1.994 0 0 0 2,-2 z"
       transform="translate(376.571,491.798)"
       id="path41"
       style="fill:url(#h)"
       inkscape:connector-curvature="0" />
    <path
       d="m 421.571,549.798 h 8 a 5.004,5.004 0 0 0 3.54,-1.461 4.989,4.989 0 0 0 1.46,-3.539 v -9.865 l -27.062,-24.385 -2.938,0.25 h -2 l -2,4 4,4 v 14 z"
       id="path43"
       style="opacity:0.2;fill:url(#i);fill-rule:evenodd"
       inkscape:connector-curvature="0" />
    <path
       d="m 404.571,509.298 a 4,4 0 0 0 -4,4 4,4 0 0 0 3,3.871 v -2.144 a 2,2 0 0 1 -1,-1.727 2,2 0 0 1 2,-2 2,2 0 0 1 2,2 2,2 0 0 1 -0.02,0.27 l 1.688,1.312 a 4,4 0 0 0 0.332,-1.582 4,4 0 0 0 -4,-4 z m 0,4 0.012,19.5 5.989,-8 h 9 l -15,-11.5 z"
       id="path45"
       style="fill:url(#j)"
       inkscape:connector-curvature="0" />
    <rect
       ry="0"
       height="8"
       rx="2"
       y="539.79797"
       x="384.57101"
       width="22"
       id="rect47"
       style="fill:#83878a" />
    <path
       d="m 384.571,545.798 a 1.994,1.994 0 0 0 2,2 h 18 a 1.994,1.994 0 0 0 2,-2 z"
       id="path49"
       style="fill:url(#k)"
       inkscape:connector-curvature="0" />
  </g>
</svg>
