<?xml version="1.0" encoding="UTF-8" standalone="no"?>
<svg
   xmlns:dc="http://purl.org/dc/elements/1.1/"
   xmlns:cc="http://creativecommons.org/ns#"
   xmlns:rdf="http://www.w3.org/1999/02/22-rdf-syntax-ns#"
   xmlns:svg="http://www.w3.org/2000/svg"
   xmlns="http://www.w3.org/2000/svg"
   xmlns:xlink="http://www.w3.org/1999/xlink"
   xmlns:sodipodi="http://sodipodi.sourceforge.net/DTD/sodipodi-0.dtd"
   xmlns:inkscape="http://www.inkscape.org/namespaces/inkscape"
   width="64"
   height="64"
   version="1.1"
   id="svg72"
   sodipodi:docname="video-television.svg"
   inkscape:version="0.92.5 (2060ec1f9f, 2020-04-08)">
  <metadata
     id="metadata76">
    <rdf:RDF>
      <cc:Work
         rdf:about="">
        <dc:format>image/svg+xml</dc:format>
        <dc:type
           rdf:resource="http://purl.org/dc/dcmitype/StillImage" />
        <dc:title></dc:title>
      </cc:Work>
    </rdf:RDF>
  </metadata>
  <sodipodi:namedview
     pagecolor="#ffffff"
     bordercolor="#666666"
     borderopacity="1"
     objecttolerance="10"
     gridtolerance="10"
     guidetolerance="10"
     inkscape:pageopacity="0"
     inkscape:pageshadow="2"
     inkscape:window-width="1085"
     inkscape:window-height="480"
     id="namedview74"
     showgrid="false"
     inkscape:zoom="3.6875"
     inkscape:cx="32"
     inkscape:cy="32"
     inkscape:window-x="0"
     inkscape:window-y="25"
     inkscape:window-maximized="0"
     inkscape:current-layer="svg72" />
  <defs
     id="defs34">
    <linearGradient
       id="a">
      <stop
         stop-color="#2a2c2f"
         id="stop2" />
      <stop
         offset="1"
         stop-color="#424649"
         id="stop4" />
    </linearGradient>
    <linearGradient
       id="h"
       xlink:href="#a"
       y1="536.798"
       y2="503.798"
       gradientUnits="userSpaceOnUse"
       x2="0"
       gradientTransform="matrix(1.08333,0,0,1.0909,-412.619,-539.598)" />
    <linearGradient
       id="g"
       xlink:href="#b"
       y1="547.798"
       y2="536.798"
       gradientUnits="userSpaceOnUse"
       x2="0"
       gradientTransform="matrix(0.5,0,0,0.72727,198.286,146.402)" />
    <linearGradient
       id="b">
      <stop
         stop-color="#c6cdd1"
         id="stop9" />
      <stop
         offset="1"
         stop-color="#e0e5e7"
         id="stop11" />
    </linearGradient>
    <linearGradient
       id="e">
      <stop
         stop-color="#ee6406"
         id="stop14" />
      <stop
         offset="1"
         stop-color="#ffce0d"
         id="stop16" />
    </linearGradient>
    <linearGradient
       id="d">
      <stop
         stop-opacity="0"
         id="stop19" />
      <stop
         offset="1"
         stop-opacity=".453"
         id="stop21" />
    </linearGradient>
    <linearGradient
       id="c">
      <stop
         stop-color="#21c9fb"
         id="stop24" />
      <stop
         offset="1"
         stop-color="#197cf1"
         id="stop26" />
    </linearGradient>
    <linearGradient
       xlink:href="#c"
       id="i"
       y1="535.798"
       y2="505.798"
       x2="0"
       gradientUnits="userSpaceOnUse"
       gradientTransform="matrix(1.18182,0,0,1.2,-74.286,-103.16)" />
    <linearGradient
       xlink:href="#e"
       id="l"
       y1="21"
       x1="33"
       y2="12"
       x2="24"
       gradientUnits="userSpaceOnUse"
       gradientTransform="matrix(1.28571,0,0,1.28571,377.714,494.798)" />
    <linearGradient
       xlink:href="#e"
       id="k"
       x1="428.571"
       x2="388.571"
       gradientUnits="userSpaceOnUse"
       gradientTransform="matrix(1.24,0,0,1,-98.497,0.5)" />
    <linearGradient
       xlink:href="#b"
       id="f"
       y1="547.798"
       y2="536.798"
       gradientUnits="userSpaceOnUse"
       x2="0"
       gradientTransform="matrix(0.5,0,0,0.72727,210.286,146.402)" />
    <radialGradient
       cx="408.571"
       cy="520.798"
       xlink:href="#d"
       id="j"
       r="22"
       gradientUnits="userSpaceOnUse"
       gradientTransform="matrix(1.18182,0,0,0.81818,-74.286,95.69)" />
  </defs>
  <g
     transform="translate(-376.571,-491.798)"
     id="g70">
    <path
       d="m 411.571,536.798 v 8 h 6 v -8 z"
       id="path36"
       style="fill:url(#f)"
       inkscape:connector-curvature="0" />
    <path
       d="m 399.571,536.798 v 8 h 6 v -8 z"
       id="path38"
       style="fill:url(#g)"
       inkscape:connector-curvature="0" />
    <path
       d="M 6,11 A 5.983,5.983 0 0 0 0.47,14.66 6.01,6.01 0 0 0 0,17 V 40 A 5.983,5.983 0 0 0 3.66,45.53 6.01,6.01 0 0 0 6,46 H 58 A 5.983,5.983 0 0 0 63.53,42.34 6.01,6.01 0 0 0 64,40 V 17 A 5.983,5.983 0 0 0 60.34,11.47 6.01,6.01 0 0 0 58,11 Z"
       transform="translate(376.571,491.798)"
       id="path40"
       style="fill:url(#h)"
       inkscape:connector-curvature="0" />
    <path
       d="m 384.571,503.798 h 48 v 33 h -48 z"
       id="path42"
       style="fill:url(#i)"
       inkscape:connector-curvature="0" />
    <path
       d="m 384.571,503.798 h 48 v 33 h -48 z"
       id="path44"
       style="opacity:0.85;fill:url(#j)"
       inkscape:connector-curvature="0" />
    <path
       d="m 384.571,531.798 h 48 v 4.8 h -48 z m 0,-27.808 h 48 v 4.808 h -48 z"
       id="path46"
       inkscape:connector-curvature="0"
       style="opacity:0.85;fill-opacity:0.62099998" />
    <path
       d="m 385.191,533.798 c -0.343,0 -0.62,0.223 -0.62,0.5 0,0.277 0.277,0.5 0.62,0.5 h 30.38 v -1 z"
       id="path48"
       style="fill:url(#k)"
       inkscape:connector-curvature="0" />
    <path
       d="m 408.571,512.798 a 8.98,8.98 0 0 0 -9,9 c 0,4.986 4.014,9 9,9 4.986,0 9,-4.014 9,-9 0,-4.986 -4.014,-9 -9,-9 z m 0,1 a 8,8 0 0 1 8,8 8,8 0 0 1 -8,8 8,8 0 0 1 -8,-8 8,8 0 0 1 8,-8 z"
       id="path50"
       inkscape:connector-curvature="0"
       style="opacity:0.85;fill:#ffffff;fill-opacity:0.453" />
    <path
       d="m 408.571,512.798 v 1 a 8,8 0 0 1 8,8 h 1 c 0,-4.986 -4.014,-9 -9,-9 z"
       id="path52"
       style="opacity:0.85;fill:url(#l)"
       inkscape:connector-curvature="0" />
    <g
       transform="translate(0,-2)"
       id="g58">
      <rect
         width="5.9089999"
         x="405.617"
         y="520.79797"
         rx="2.9549999"
         height="6"
         ry="3"
         id="rect54"
         style="opacity:0.8" />
      <path
         d="m 410.344,523.798 -2.954,-1.8 v 3.6 z"
         id="path56"
         inkscape:connector-curvature="0"
         style="fill:#ffffff;fill-rule:evenodd" />
    </g>
    <path
       d="m 416.571,533.798 v 1 h 15.385 c 0.341,0 0.615,-0.223 0.615,-0.5 0,-0.277 -0.274,-0.5 -0.615,-0.5 z"
       id="path60"
       inkscape:connector-curvature="0"
       style="fill:#999999" />
    <rect
       width="3"
       x="414.57101"
       y="532.79797"
       rx="1.5"
       height="3"
       id="rect62"
       style="fill:#ffffff" />
    <path
       d="m 394.571,543.798 h 28 v 1 h -28 z"
       id="path64"
       inkscape:connector-curvature="0"
       style="fill:#99a1a7" />
    <rect
       width="4"
       x="434.57101"
       y="505.798"
       rx="2"
       height="28"
       id="rect66"
       style="fill:#1e2426" />
    <rect
       width="4"
       x="378.57101"
       y="505.798"
       rx="2"
       height="28"
       id="rect68"
       style="fill:#1e2426" />
  </g>
</svg>
