<?xml version="1.0" encoding="UTF-8" standalone="no"?>
<svg
   width="48"
   height="48"
   version="1.1"
   id="svg32"
   sodipodi:docname="anjuta.svg"
   inkscape:version="1.2.1 (9c6d41e410, 2022-07-14)"
   xmlns:inkscape="http://www.inkscape.org/namespaces/inkscape"
   xmlns:sodipodi="http://sodipodi.sourceforge.net/DTD/sodipodi-0.dtd"
   xmlns:xlink="http://www.w3.org/1999/xlink"
   xmlns="http://www.w3.org/2000/svg"
   xmlns:svg="http://www.w3.org/2000/svg">
  <sodipodi:namedview
     id="namedview34"
     pagecolor="#ffffff"
     bordercolor="#666666"
     borderopacity="1.0"
     inkscape:showpageshadow="2"
     inkscape:pageopacity="0.0"
     inkscape:pagecheckerboard="0"
     inkscape:deskcolor="#d1d1d1"
     showgrid="false"
     inkscape:zoom="4.9166667"
     inkscape:cx="24"
     inkscape:cy="24.20339"
     inkscape:window-width="1920"
     inkscape:window-height="1011"
     inkscape:window-x="0"
     inkscape:window-y="0"
     inkscape:window-maximized="1"
     inkscape:current-layer="svg32" />
  <defs
     id="defs20">
    <linearGradient
       id="linearGradient4178">
      <stop
         style="stop-color:#cebee5;stop-opacity:1"
         offset="0"
         id="stop2" />
      <stop
         style="stop-color:#f1f1f1;stop-opacity:1"
         offset="1"
         id="stop4" />
    </linearGradient>
    <linearGradient
       id="linearGradient4170">
      <stop
         style="stop-color:#000000;stop-opacity:1;"
         offset="0"
         id="stop7" />
      <stop
         style="stop-color:#000000;stop-opacity:0;"
         offset="1"
         id="stop9" />
    </linearGradient>
    <linearGradient
       gradientTransform="translate(-0.13681623,0.08656289)"
       xlink:href="#linearGradient4300-1"
       id="linearGradient4205"
       x1="408.708"
       y1="543.711"
       x2="408.708"
       y2="503.711"
       gradientUnits="userSpaceOnUse" />
    <linearGradient
       id="linearGradient4300-1">
      <stop
         offset="0"
         style="stop-color:#65257e;stop-opacity:1"
         id="stop13" />
      <stop
         offset="1"
         style="stop-color:#ae79c4;stop-opacity:1"
         id="stop15" />
    </linearGradient>
    <linearGradient
       xlink:href="#linearGradient4170"
       id="linearGradient4176"
       x1="15.425"
       y1="13.05"
       x2="39"
       y2="36.625"
       gradientUnits="userSpaceOnUse" />
    <linearGradient
       xlink:href="#linearGradient4178"
       id="linearGradient4184"
       x1="30.207"
       y1="43"
       x2="14"
       y2="10"
       gradientUnits="userSpaceOnUse" />
  </defs>
  <g
     transform="matrix(1.0500054,0,0,1.0500054,-404.85847,-526.07673)"
     id="g30">
    <rect
       style="opacity:1;fill:url(#linearGradient4205);fill-opacity:1;stroke-width:2.8;stroke-opacity:0.550265"
       height="40"
       rx="20"
       y="503.88"
       x="388.44"
       width="40"
       id="rect22" />
    <path
       d="m 388.44634,523.38456 c -0.004,0.16686 -0.0117,0.33212 -0.0117,0.5 0,11.07999 8.92001,20 20,20 11.07999,0 20,-8.92001 20,-20 0,-0.16788 -0.008,-0.33315 -0.0117,-0.5 -0.26418,10.84657 -9.07584,19.5 -19.98828,19.5 -10.91244,0 -19.7241,-8.65343 -19.98828,-19.5 z"
       style="opacity:0.15;fill:#000000;fill-opacity:1;stroke-width:2.8;stroke-opacity:0.550265"
       id="path24" />
    <path
       style="opacity:0.2;fill:url(#linearGradient4176);fill-opacity:1;stroke:none;stroke-width:4;stroke-linecap:round;stroke-linejoin:round;stroke-miterlimit:4;stroke-dasharray:none;stroke-opacity:1"
       d="m 27.101562,9.0351562 -5.728515,7.2167968 -9.412109,8.207031 2.972656,15.28711 7.410156,4.277344 c 0.501868,0.03739 1.007782,0.0625 1.519531,0.0625 11.079992,0 20,-8.920009 20,-20 0,-2.048532 -0.307903,-4.020766 -0.875,-5.878907 z"
       transform="translate(384.57143,499.798)"
       id="path26" />
    <path
       style="fill:url(#linearGradient4184);fill-opacity:1;stroke:none;stroke-width:0.164641"
       d="m 27.123047,9 c 0,0 -3.197146,2.19297 -3.416016,3.4375 0,0 -6.763911,-2.13813 -12.707031,3.5625 h 3 c 0,0 -7.8632812,4.914062 -8,8 0.1367188,-0.08594 1.4453179,-0.768373 2,-1 0,0 -1.9098715,4.399143 -0.4570344,8.691405 2.8470154,6.156502 9.0419944,10.394532 16.3203124,10.394532 0.219669,0 0.432725,-0.02361 0.650391,-0.03125 0.25069,-0.85842 1.411268,-5.282144 -0.722656,-8.03711 C 21.954126,31.640988 18.74891,25.19366 23,23 c 0,0 2.686737,3.770819 5.841797,4.136719 0,0 0.36829,3.232347 4.181641,1.179687 1.01775,-0.54548 1.39615,-2.350063 0.36914,-3.814453 l -0.808594,-1.169922 c 0,0 -2.677304,-6.429571 -4.583984,-8.332031 0,0 -1,-3 0,-5 0,0 -1.13297,0.84125 -1.5,1.5 0,0 0.255167,-2.13663 0.623047,-2.5 z"
       transform="translate(384.57143,499.798)"
       id="path28" />
  </g>
</svg>
