<?xml version="1.0" encoding="UTF-8" standalone="no"?>
<svg
   xmlns:dc="http://purl.org/dc/elements/1.1/"
   xmlns:cc="http://creativecommons.org/ns#"
   xmlns:rdf="http://www.w3.org/1999/02/22-rdf-syntax-ns#"
   xmlns:svg="http://www.w3.org/2000/svg"
   xmlns="http://www.w3.org/2000/svg"
   xmlns:xlink="http://www.w3.org/1999/xlink"
   xmlns:sodipodi="http://sodipodi.sourceforge.net/DTD/sodipodi-0.dtd"
   xmlns:inkscape="http://www.inkscape.org/namespaces/inkscape"
   height="32"
   width="32"
   version="1.1"
   id="svg81"
   sodipodi:docname="preferences-desktop-effects.svg"
   inkscape:version="0.92.5 (2060ec1f9f, 2020-04-08)">
  <metadata
     id="metadata85">
    <rdf:RDF>
      <cc:Work
         rdf:about="">
        <dc:format>image/svg+xml</dc:format>
        <dc:type
           rdf:resource="http://purl.org/dc/dcmitype/StillImage" />
        <dc:title></dc:title>
      </cc:Work>
    </rdf:RDF>
  </metadata>
  <sodipodi:namedview
     pagecolor="#ffffff"
     bordercolor="#666666"
     borderopacity="1"
     objecttolerance="10"
     gridtolerance="10"
     guidetolerance="10"
     inkscape:pageopacity="0"
     inkscape:pageshadow="2"
     inkscape:window-width="1085"
     inkscape:window-height="480"
     id="namedview83"
     showgrid="false"
     inkscape:zoom="7.375"
     inkscape:cx="1.4237288"
     inkscape:cy="16"
     inkscape:window-x="0"
     inkscape:window-y="25"
     inkscape:window-maximized="0"
     inkscape:current-layer="svg81" />
  <defs
     id="defs35">
    <linearGradient
       xlink:href="#a"
       id="h"
       gradientUnits="userSpaceOnUse"
       gradientTransform="matrix(0.66667,0,0,0.85555,-256.38,-429.026)"
       x1="418.17"
       y1="503.079"
       x2="384.571"
       y2="531.458" />
    <linearGradient
       id="a">
      <stop
         stop-color="#1abc9c"
         id="stop3" />
      <stop
         offset="1"
         stop-color="#2980b9"
         id="stop5" />
    </linearGradient>
    <linearGradient
       xlink:href="#b"
       id="i"
       y1="521.633"
       x1="404.045"
       y2="528.35"
       x2="430.736"
       gradientUnits="userSpaceOnUse"
       gradientTransform="matrix(0.66667,0,0,0.85555,-256.38,-429.027)" />
    <linearGradient
       id="b">
      <stop
         stop-color="#cc4a5e"
         id="stop9" />
      <stop
         offset="1"
         stop-color="#aa478a"
         id="stop11" />
    </linearGradient>
    <linearGradient
       xlink:href="#c"
       id="j"
       y1="542.224"
       x1="398.092"
       y2="524.9"
       x2="394.003"
       gradientUnits="userSpaceOnUse"
       gradientTransform="matrix(0.66667,0,0,0.85555,-256.38,-429.027)" />
    <linearGradient
       id="c">
      <stop
         stop-color="#334545"
         id="stop15" />
      <stop
         offset="1"
         stop-color="#536161"
         id="stop17" />
    </linearGradient>
    <linearGradient
       xlink:href="#c"
       id="k"
       y1="568.798"
       x1="431.571"
       y2="562.798"
       x2="439.571"
       gradientUnits="userSpaceOnUse"
       gradientTransform="matrix(-0.66667,0,0,0.85555,303.047,-463.249)" />
    <linearGradient
       xlink:href="#c"
       id="l"
       y1="581.87"
       x1="406.537"
       y2="572.678"
       x2="423.32"
       gradientUnits="userSpaceOnUse"
       gradientTransform="matrix(-0.66667,0,0,0.85555,303.048,-463.249)" />
    <linearGradient
       xlink:href="#c"
       id="m"
       y1="572.334"
       x1="423.054"
       y2="566.766"
       x2="431.225"
       gradientUnits="userSpaceOnUse"
       gradientTransform="matrix(-0.66667,0,0,0.85555,303.047,-463.249)" />
    <linearGradient
       xlink:href="#c"
       id="n"
       y1="577.102"
       x1="431.313"
       y2="571.445"
       x2="440.632"
       gradientUnits="userSpaceOnUse"
       gradientTransform="matrix(-0.66667,0,0,0.85555,303.048,-463.249)" />
    <linearGradient
       xlink:href="#c"
       id="o"
       y1="577.362"
       x1="430.567"
       y2="591.328"
       x2="423.75"
       gradientUnits="userSpaceOnUse"
       gradientTransform="matrix(-0.66667,0,0,0.85555,303.048,-463.249)" />
    <linearGradient
       id="d">
      <stop
         stop-color="#383e51"
         id="stop25" />
      <stop
         offset="1"
         stop-color="#655c6f"
         stop-opacity="0"
         id="stop27" />
    </linearGradient>
    <linearGradient
       id="e">
      <stop
         stop-color="#eff0f1"
         id="stop30" />
      <stop
         offset="1"
         stop-color="#fcfcfc"
         id="stop32" />
    </linearGradient>
  </defs>
  <linearGradient
     id="g">
    <stop
       offset="0"
       stop-color="#eff0f1"
       id="stop37" />
    <stop
       offset="1"
       stop-color="#fcfcfc"
       id="stop39" />
  </linearGradient>
  <linearGradient
     id="f">
    <stop
       offset="0"
       stop-color="#334545"
       id="stop42" />
    <stop
       offset="1"
       stop-color="#536161"
       id="stop44" />
  </linearGradient>
  <linearGradient
     id="q"
     gradientUnits="userSpaceOnUse"
     x1="16"
     x2="16"
     xlink:href="#g"
     y1="21"
     y2="7" />
  <linearGradient
     id="p"
     gradientUnits="userSpaceOnUse"
     x1="394.571"
     x2="408.571"
     y1="523.798"
     y2="537.798"
     gradientTransform="translate(-384.571,-515.798)">
    <stop
       offset="0"
       stop-color="#292c2f"
       id="stop48" />
    <stop
       offset="1"
       stop-color="#292c2f"
       stop-opacity="0"
       id="stop50" />
  </linearGradient>
  <path
     d="M 5,2 A 5.004,5.004 0 0 0 1.46,3.461 4.99,4.99 0 0 0 0,7.001 v 18 A 5.004,5.004 0 0 0 1.46,28.539 4.99,4.99 0 0 0 5,30 H 27 A 5.004,5.004 0 0 0 30.54,28.54 4.99,4.99 0 0 0 32,25 V 7 A 5.004,5.004 0 0 0 30.54,3.461 4.99,4.99 0 0 0 27,2.001 Z"
     id="path53"
     style="fill:url(#h)"
     inkscape:connector-curvature="0" />
  <path
     d="M 25.746,30 H 27 A 5.004,5.004 0 0 0 30.54,28.54 4.989,4.989 0 0 0 32,25 V 7 A 5.005,5.005 0 0 0 30.54,3.46 C 30.463,3.385 30.352,3.352 30.271,3.281 L 9.977,18.316 25.747,30 Z"
     id="path55"
     style="fill:url(#i)"
     inkscape:connector-curvature="0" />
  <path
     d="m 0.117,25.58 c 0.057,0.47 0.098,0.949 0.276,1.37 A 4.989,4.989 0 0 0 3.051,29.607 5.004,5.004 0 0 0 5,30 H 25.895 L 10,18.256 Z"
     id="path57"
     style="fill:url(#j)"
     inkscape:connector-curvature="0" />
  <path
     d="M 15.506,22.335 10,18.255 v 8.16 z"
     id="path59"
     style="fill:url(#k)"
     inkscape:connector-curvature="0" />
  <path
     d="M 21.011,26.413 V 30 h 4.841 l -4.84,-3.587 z"
     id="path61"
     style="fill:url(#l)"
     inkscape:connector-curvature="0" />
  <path
     d="M 15.506,22.335 V 30 h 0.666 l 4.84,-3.586 -5.506,-4.08 z"
     id="path63"
     style="fill:url(#m)"
     inkscape:connector-curvature="0" />
  <path
     d="M 10,26.414 V 30 h 4.84 z"
     id="path65"
     style="fill:url(#n)"
     inkscape:connector-curvature="0" />
  <path
     d="M 21.011,26.413 16.171,30 h 4.84 z"
     id="path67"
     style="fill:url(#o)"
     inkscape:connector-curvature="0" />
  <path
     d="M 32,9.971 V 7.001 A 5.005,5.005 0 0 0 30.54,3.461 C 30.463,3.385 30.352,3.352 30.271,3.281 L 9.977,18.318 Z"
     id="path69"
     inkscape:connector-curvature="0"
     style="fill:#aa478a" />
  <path
     d="m 0.124,26 c 0.067,0.317 0.146,0.658 0.269,0.95 A 4.989,4.989 0 0 0 3.051,29.608 5.004,5.004 0 0 0 5,30 h 22 a 5.004,5.004 0 0 0 3.54,-1.46 4.989,4.989 0 0 0 1.067,-1.59 5.35,5.35 0 0 0 0.285,-0.95 z"
     id="path71"
     inkscape:connector-curvature="0"
     style="fill:#ffffff;fill-opacity:0.78399999" />
  <circle
     cx="28"
     cy="28"
     r="1"
     id="circle73"
     style="fill:#4d4d4d" />
  <path
     d="m 2,27 v 1 h 1 v -1 z m 1,1 v 1 h 1 v -1 z"
     id="path75"
     inkscape:connector-curvature="0"
     style="fill:#4d4d4d" />
  <path
     d="M 20.846,30 H 27 a 5.004,5.004 0 0 0 0.5,-0.023 5.004,5.004 0 0 0 0.494,-0.075 5.004,5.004 0 0 0 0.485,-0.123 5.004,5.004 0 0 0 0.47,-0.172 5.004,5.004 0 0 0 0.451,-0.216 5.004,5.004 0 0 0 0.426,-0.26 5.004,5.004 0 0 0 0.399,-0.303 5.004,5.004 0 0 0 0.314,-0.289 4.99,4.99 0 0 0 0.336,-0.37 4.99,4.99 0 0 0 0.295,-0.401 4.99,4.99 0 0 0 0.254,-0.428 4.99,4.99 0 0 0 0.21,-0.453 4.99,4.99 0 0 0 0.165,-0.471 4.99,4.99 0 0 0 0.115,-0.484 4.99,4.99 0 0 0 0.068,-0.494 A 4.99,4.99 0 0 0 32,25 V 18.846 L 20.16,7.006 17.328,9.828 14.5,7 15.031,9.031 13,8.5 l 2.828,2.828 -0.5,0.5 L 10.5,7 11.031,9.031 9,8.5 l 3,3 H 11 L 13.328,13.828 9,18.154 Z"
     id="path77"
     style="opacity:0.2;fill:url(#p)"
     inkscape:connector-curvature="0" />
  <path
     d="M 10.5,7 9.969,7.969 9,8.5 9.969,9.031 10.5,10 11.031,9.031 12,8.5 11.031,7.969 Z m 4,0 L 13.969,7.969 13,8.5 13.969,9.031 14.5,10 15.031,9.031 16,8.5 15.031,7.969 Z M 20.154,7 9,18.154 11.846,21 23,9.846 Z m 0,1.422 1.422,1.424 -3.326,3.33 -1.424,-1.424 z M 12.5,10 11.969,10.969 11,11.5 11.969,12.031 12.5,13 13.031,12.031 14,11.5 13.031,10.969 Z"
     id="path79"
     style="fill:url(#q)"
     inkscape:connector-curvature="0" />
</svg>
