<?xml version="1.0" encoding="UTF-8" standalone="no"?>
<svg
   xmlns:dc="http://purl.org/dc/elements/1.1/"
   xmlns:cc="http://creativecommons.org/ns#"
   xmlns:rdf="http://www.w3.org/1999/02/22-rdf-syntax-ns#"
   xmlns:svg="http://www.w3.org/2000/svg"
   xmlns="http://www.w3.org/2000/svg"
   xmlns:xlink="http://www.w3.org/1999/xlink"
   xmlns:sodipodi="http://sodipodi.sourceforge.net/DTD/sodipodi-0.dtd"
   xmlns:inkscape="http://www.inkscape.org/namespaces/inkscape"
   height="32"
   width="32"
   version="1.1"
   id="svg38"
   sodipodi:docname="systemsettings.svg"
   inkscape:version="0.92.5 (2060ec1f9f, 2020-04-08)">
  <metadata
     id="metadata44">
    <rdf:RDF>
      <cc:Work
         rdf:about="">
        <dc:format>image/svg+xml</dc:format>
        <dc:type
           rdf:resource="http://purl.org/dc/dcmitype/StillImage" />
        <dc:title></dc:title>
      </cc:Work>
    </rdf:RDF>
  </metadata>
  <defs
     id="defs42">
    <linearGradient
       inkscape:collect="always"
       xlink:href="#a"
       id="linearGradient880"
       gradientUnits="userSpaceOnUse"
       y1="-1"
       x2="17"
       y2="18" />
  </defs>
  <sodipodi:namedview
     pagecolor="#ffffff"
     bordercolor="#666666"
     borderopacity="1"
     objecttolerance="10"
     gridtolerance="10"
     guidetolerance="10"
     inkscape:pageopacity="0"
     inkscape:pageshadow="2"
     inkscape:window-width="1366"
     inkscape:window-height="711"
     id="namedview40"
     showgrid="true"
     inkscape:zoom="5.7452426"
     inkscape:cx="16"
     inkscape:cy="16"
     inkscape:window-x="0"
     inkscape:window-y="25"
     inkscape:window-maximized="1"
     inkscape:current-layer="svg38">
    <inkscape:grid
       type="xygrid"
       id="grid851" />
  </sodipodi:namedview>
  <linearGradient
     id="a"
     gradientUnits="userSpaceOnUse"
     x2="17"
     y1="-1"
     y2="18"
     gradientTransform="translate(40)">
    <stop
       offset="0"
       stop-color="#fff"
       id="stop2" />
    <stop
       offset="1"
       stop-color="#fff"
       stop-opacity="0"
       id="stop4" />
  </linearGradient>
  <linearGradient
     id="b"
     gradientUnits="userSpaceOnUse"
     x1="9"
     x2="30"
     y1="9"
     y2="30">
    <stop
       offset="0"
       id="stop7" />
    <stop
       offset="1"
       stop-opacity="0"
       id="stop9" />
  </linearGradient>
  <rect
     height="28"
     rx="5"
     width="28"
     x="2"
     y="2"
     id="rect12"
     style="fill:#2d3033"
     ry="5" />
  <path
     style="fill:url(#b)"
     d="M 14.544922 30 L 25 30 C 25.6925 30 26.350625 29.859766 26.949219 29.607422 C 27.547812 29.355078 28.087187 28.990938 28.539062 28.539062 C 28.990938 28.087187 29.355078 27.547812 29.607422 26.949219 C 29.859766 26.350625 30 25.6925 30 25 L 30 17.171875 L 23.414062 10.585938 L 22 12 L 6 12 L 5.2714844 12.728516 L 11 18.455078 L 11 20 L 6 20 L 5.2714844 20.728516 L 14.544922 30 z "
     id="path16" />
  <g
     transform="translate(-30)"
     id="g24">
    <path
       d="M36 19c-1.352-.02-1.352 2.02 0 2h6v-2z"
       fill="#3daee9"
       id="path18" />
    <circle
       cx="42"
       cy="20"
       fill="#fafafa"
       r="2"
       id="circle20" />
    <path
       d="M42 19v2h14c1.352.02 1.352-2.02 0-2z"
       fill="#fcfcfc"
       opacity=".2"
       id="path22" />
  </g>
  <g
     transform="translate(-30)"
     id="g32">
    <path
       d="M36 11c-1.352-.02-1.352 2.02 0 2h16v-2z"
       fill="#3daee9"
       id="path26" />
    <circle
       cx="52"
       cy="12"
       fill="#fafafa"
       r="2"
       id="circle28" />
    <path
       d="M52 11v2h4c1.352.02 1.352-2.02 0-2z"
       fill="#fcfcfc"
       opacity=".2"
       id="path30" />
  </g>
  <path
     style="opacity:0.3;vector-effect:none;fill:#ffffff;fill-opacity:1;fill-rule:nonzero;stroke:none;stroke-width:1;stroke-linecap:round;stroke-linejoin:round;stroke-miterlimit:4;stroke-dasharray:none;stroke-dashoffset:0;stroke-opacity:1;paint-order:stroke fill markers"
     d="M 7 2 C 6.3075 2 5.649375 2.1402344 5.0507812 2.3925781 C 4.4521875 2.6449219 3.9128125 3.0090625 3.4609375 3.4609375 C 3.0090625 3.9128125 2.6449219 4.4521875 2.3925781 5.0507812 C 2.2696875 5.3422945 2.2674279 5.6830026 2.2011719 6 L 29.798828 6 C 29.732572 5.6830026 29.730312 5.3422945 29.607422 5.0507812 C 29.355078 4.4521875 28.990938 3.9128125 28.539062 3.4609375 C 28.087187 3.0090625 27.547812 2.6449219 26.949219 2.3925781 C 26.350625 2.1402344 25.6925 2 25 2 L 7 2 z "
     id="path863" />
  <path
     id="path867"
     d="M 7,30 C 6.3075,30 5.649375,29.859766 5.0507812,29.607422 4.4521875,29.355078 3.9128125,28.990937 3.4609375,28.539062 3.0090625,28.087187 2.6449219,27.547812 2.3925781,26.949219 2.2696875,26.657705 2.2674279,26.316997 2.2011719,26 H 29.798828 c -0.06626,0.316997 -0.06852,0.657705 -0.191406,0.949219 -0.252344,0.598593 -0.616484,1.137968 -1.06836,1.589843 -0.451875,0.451875 -0.99125,0.816016 -1.589843,1.06836 C 26.350625,29.859766 25.6925,30 25,30 Z"
     style="opacity:0.3;vector-effect:none;fill:#000000;fill-opacity:1;fill-rule:nonzero;stroke:none;stroke-width:1;stroke-linecap:round;stroke-linejoin:round;stroke-miterlimit:4;stroke-dasharray:none;stroke-dashoffset:0;stroke-opacity:1;paint-order:stroke fill markers"
     inkscape:connector-curvature="0" />
  <path
     style="opacity:0.27600002;fill:url(#linearGradient880)"
     d="M 7,2 C 6.3075,2 5.649375,2.1402344 5.050781,2.3925781 4.452188,2.6449219 3.912813,3.0090625 3.460938,3.4609375 3.009062,3.9128125 2.644922,4.4521875 2.392578,5.0507812 2.140234,5.649375 2,6.3075 2,7 v 18 c 0,0.6925 0.140234,1.350625 0.392578,1.949219 0.252344,0.598593 0.616484,1.137968 1.06836,1.589843 0.451875,0.451876 0.99125,0.816016 1.589843,1.06836 C 5.649375,29.859766 6.3075,30 7,30 h 18 c 0.6925,0 1.350625,-0.140234 1.949219,-0.392578 0.598594,-0.252344 1.137968,-0.616484 1.589843,-1.06836 0.451876,-0.451875 0.816016,-0.99125 1.06836,-1.589843 C 29.859766,26.350625 30,25.6925 30,25 V 7 C 30,6.3075 29.859766,5.649375 29.607422,5.0507812 29.355078,4.4521875 28.990938,3.9128125 28.539062,3.4609375 28.087187,3.0090625 27.547813,2.6449219 26.949219,2.3925781 26.350625,2.1402344 25.6925,2 25,2 Z"
     id="path872"
     inkscape:connector-curvature="0" />
</svg>
