<?xml version="1.0" encoding="UTF-8" standalone="no"?>
<svg
   xmlns:dc="http://purl.org/dc/elements/1.1/"
   xmlns:cc="http://creativecommons.org/ns#"
   xmlns:rdf="http://www.w3.org/1999/02/22-rdf-syntax-ns#"
   xmlns:svg="http://www.w3.org/2000/svg"
   xmlns="http://www.w3.org/2000/svg"
   xmlns:xlink="http://www.w3.org/1999/xlink"
   xmlns:sodipodi="http://sodipodi.sourceforge.net/DTD/sodipodi-0.dtd"
   xmlns:inkscape="http://www.inkscape.org/namespaces/inkscape"
   width="32"
   height="32"
   version="1.1"
   id="svg69"
   sodipodi:docname="preferences-desktop.svg"
   inkscape:version="0.92.5 (2060ec1f9f, 2020-04-08)">
  <metadata
     id="metadata73">
    <rdf:RDF>
      <cc:Work
         rdf:about="">
        <dc:format>image/svg+xml</dc:format>
        <dc:type
           rdf:resource="http://purl.org/dc/dcmitype/StillImage" />
        <dc:title></dc:title>
      </cc:Work>
    </rdf:RDF>
  </metadata>
  <sodipodi:namedview
     pagecolor="#ffffff"
     bordercolor="#666666"
     borderopacity="1"
     objecttolerance="10"
     gridtolerance="10"
     guidetolerance="10"
     inkscape:pageopacity="0"
     inkscape:pageshadow="2"
     inkscape:window-width="1366"
     inkscape:window-height="711"
     id="namedview71"
     showgrid="false"
     inkscape:zoom="7.375"
     inkscape:cx="1.7627119"
     inkscape:cy="16"
     inkscape:window-x="0"
     inkscape:window-y="25"
     inkscape:window-maximized="1"
     inkscape:current-layer="svg69" />
  <defs
     id="defs37">
    <linearGradient
       id="a">
      <stop
         stop-color="#1abc9c"
         id="stop2" />
      <stop
         offset="1"
         stop-color="#2980b9"
         id="stop4" />
    </linearGradient>
    <linearGradient
       xlink:href="#b"
       id="g"
       y1="521.633"
       x1="404.045"
       y2="528.35"
       x2="430.736"
       gradientUnits="userSpaceOnUse"
       gradientTransform="matrix(0.66667,0,0,0.85555,-256.38,-429.027)" />
    <linearGradient
       id="b">
      <stop
         stop-color="#cc4a5e"
         id="stop8" />
      <stop
         offset="1"
         stop-color="#aa478a"
         id="stop10" />
    </linearGradient>
    <linearGradient
       xlink:href="#c"
       id="h"
       y1="542.224"
       x1="398.092"
       y2="524.9"
       x2="394.003"
       gradientUnits="userSpaceOnUse"
       gradientTransform="matrix(0.66667,0,0,0.85555,-256.38,-429.027)" />
    <linearGradient
       id="c">
      <stop
         stop-color="#334545"
         id="stop14" />
      <stop
         offset="1"
         stop-color="#536161"
         id="stop16" />
    </linearGradient>
    <linearGradient
       xlink:href="#c"
       id="i"
       y1="568.798"
       x1="431.571"
       y2="562.798"
       x2="439.571"
       gradientUnits="userSpaceOnUse"
       gradientTransform="matrix(-0.66667,0,0,0.85555,303.047,557.113)" />
    <linearGradient
       xlink:href="#c"
       id="j"
       y1="581.87"
       x1="406.537"
       y2="572.678"
       x2="423.32"
       gradientUnits="userSpaceOnUse"
       gradientTransform="matrix(-0.66667,0,0,0.85555,303.048,557.113)" />
    <linearGradient
       xlink:href="#c"
       id="k"
       y1="572.334"
       x1="423.054"
       y2="566.766"
       x2="431.225"
       gradientUnits="userSpaceOnUse"
       gradientTransform="matrix(-0.66667,0,0,0.85555,303.047,557.113)" />
    <linearGradient
       xlink:href="#c"
       id="l"
       y1="577.102"
       x1="431.313"
       y2="571.445"
       x2="440.632"
       gradientUnits="userSpaceOnUse"
       gradientTransform="matrix(-0.66667,0,0,0.85555,303.048,557.113)" />
    <linearGradient
       xlink:href="#c"
       id="m"
       y1="577.362"
       x1="430.567"
       y2="591.328"
       x2="423.75"
       gradientUnits="userSpaceOnUse"
       gradientTransform="matrix(-0.66667,0,0,0.85555,303.048,557.113)" />
    <linearGradient
       xlink:href="#d"
       id="n"
       y1="8"
       x1="9"
       y2="22"
       x2="23"
       gradientUnits="userSpaceOnUse"
       gradientTransform="translate(0,1020.362)" />
    <linearGradient
       id="d">
      <stop
         stop-color="#383e51"
         id="stop25" />
      <stop
         offset="1"
         stop-color="#655c6f"
         stop-opacity="0"
         id="stop27" />
    </linearGradient>
    <linearGradient
       xlink:href="#e"
       id="o"
       y1="22"
       y2="8"
       x2="0"
       gradientUnits="userSpaceOnUse"
       gradientTransform="translate(0,1020.362)" />
    <linearGradient
       id="e">
      <stop
         stop-color="#eff0f1"
         id="stop31" />
      <stop
         offset="1"
         stop-color="#fcfcfc"
         id="stop33" />
    </linearGradient>
    <linearGradient
       xlink:href="#a"
       id="f"
       gradientUnits="userSpaceOnUse"
       gradientTransform="matrix(0.66667,0,0,0.85555,-256.38,591.336)"
       x1="418.17"
       y1="503.079"
       x2="384.571"
       y2="531.458" />
  </defs>
  <g
     transform="translate(0,-1020.362)"
     id="g67">
    <path
       d="m 5,1022.362 a 5.004,5.004 0 0 0 -3.54,1.461 4.99,4.99 0 0 0 -1.46,3.54 v 18 a 5.004,5.004 0 0 0 1.46,3.538 4.99,4.99 0 0 0 3.54,1.461 h 22 a 5.004,5.004 0 0 0 3.54,-1.46 4.99,4.99 0 0 0 1.46,-3.54 v -18 a 5.004,5.004 0 0 0 -1.46,-3.539 4.99,4.99 0 0 0 -3.54,-1.46 z"
       id="path39"
       style="fill:url(#f)"
       inkscape:connector-curvature="0" />
    <path
       d="M 25.746,30 H 27 A 5.004,5.004 0 0 0 30.54,28.54 4.989,4.989 0 0 0 32,25 V 7 A 5.005,5.005 0 0 0 30.54,3.46 C 30.463,3.385 30.352,3.352 30.271,3.281 L 9.977,18.316 25.747,30 Z"
       transform="translate(0,1020.362)"
       id="path41"
       style="fill:url(#g)"
       inkscape:connector-curvature="0" />
    <path
       d="m 0.117,25.58 c 0.057,0.47 0.098,0.949 0.276,1.37 A 4.989,4.989 0 0 0 3.051,29.607 5.004,5.004 0 0 0 5,30 H 25.895 L 10,18.256 Z"
       transform="translate(0,1020.362)"
       id="path43"
       style="fill:url(#h)"
       inkscape:connector-curvature="0" />
    <path
       d="M 15.506,1042.697 10,1038.617 v 8.16 z"
       id="path45"
       style="fill:url(#i)"
       inkscape:connector-curvature="0" />
    <path
       d="m 21.011,1046.775 v 3.587 h 4.841 l -4.84,-3.587 z"
       id="path47"
       style="fill:url(#j)"
       inkscape:connector-curvature="0" />
    <path
       d="m 15.506,1042.697 v 7.665 h 0.666 l 4.84,-3.586 -5.506,-4.08 z"
       id="path49"
       style="fill:url(#k)"
       inkscape:connector-curvature="0" />
    <path
       d="m 10,1046.776 v 3.586 h 4.84 z"
       id="path51"
       style="fill:url(#l)"
       inkscape:connector-curvature="0" />
    <path
       d="m 21.011,1046.775 -4.84,3.587 h 4.84 z"
       id="path53"
       style="fill:url(#m)"
       inkscape:connector-curvature="0" />
    <path
       d="m 32,1030.333 v -2.97 a 5.005,5.005 0 0 0 -1.46,-3.54 c -0.077,-0.076 -0.188,-0.109 -0.269,-0.18 L 9.977,1038.68 Z"
       id="path55"
       inkscape:connector-curvature="0"
       style="fill:#aa478a" />
    <path
       d="m 0.124,1046.362 c 0.067,0.317 0.146,0.658 0.269,0.95 a 4.989,4.989 0 0 0 2.658,2.658 5.004,5.004 0 0 0 1.949,0.392 h 22 a 5.004,5.004 0 0 0 3.54,-1.46 4.989,4.989 0 0 0 1.067,-1.59 5.35,5.35 0 0 0 0.285,-0.95 z"
       id="path57"
       inkscape:connector-curvature="0"
       style="fill:#ffffff;fill-opacity:0.78399999" />
    <circle
       r="1"
       cy="1048.3621"
       cx="28"
       id="circle59"
       style="fill:#4d4d4d" />
    <path
       d="m 2,1047.362 v 1 h 1 v -1 z m 1,1 v 1 h 1 v -1 z"
       id="path61"
       inkscape:connector-curvature="0"
       style="fill:#4d4d4d" />
    <path
       d="m 19,1050.362 h 8 a 5.004,5.004 0 0 0 3.54,-1.46 c 0.45,-0.453 0.718,-1.043 1.067,-1.59 0.372,-0.583 0.393,-1.238 0.393,-1.95 v -6 l -9,-9 v 1 H 9 l 9,9 h -4 l -1,1 h -1 l -1,1 z"
       id="path63"
       style="opacity:0.2;fill:url(#n);fill-rule:evenodd"
       inkscape:connector-curvature="0" />
    <path
       d="m 17.5,1028.362 a 2.492,2.492 0 0 0 -2.45,2 H 9 v 1 h 6.05 c 0.231,1.144 1.236,2 2.45,2 a 2.492,2.492 0 0 0 2.45,-2 H 23 v -1 h -3.05 a 2.492,2.492 0 0 0 -2.45,-2 z m -6,9 a 2.495,2.495 0 0 0 -2.5,2.5 c 0,1.385 1.115,2.5 2.5,2.5 a 2.492,2.492 0 0 0 2.45,-2 H 23 v -1 h -9.05 a 2.492,2.492 0 0 0 -2.45,-2 z m 0,1 c 0.831,0 1.5,0.67 1.5,1.5 0,0.831 -0.669,1.5 -1.5,1.5 -0.831,0 -1.5,-0.669 -1.5,-1.5 0,-0.83 0.669,-1.5 1.5,-1.5 z"
       id="path65"
       style="fill:url(#o)"
       inkscape:connector-curvature="0" />
  </g>
</svg>
