<?xml version="1.0" encoding="UTF-8" standalone="no"?>
<svg
   xmlns:dc="http://purl.org/dc/elements/1.1/"
   xmlns:cc="http://creativecommons.org/ns#"
   xmlns:rdf="http://www.w3.org/1999/02/22-rdf-syntax-ns#"
   xmlns:svg="http://www.w3.org/2000/svg"
   xmlns="http://www.w3.org/2000/svg"
   xmlns:xlink="http://www.w3.org/1999/xlink"
   xmlns:sodipodi="http://sodipodi.sourceforge.net/DTD/sodipodi-0.dtd"
   xmlns:inkscape="http://www.inkscape.org/namespaces/inkscape"
   height="32"
   width="32"
   version="1.1"
   id="svg45"
   sodipodi:docname="preferences-system-backup.svg"
   inkscape:version="0.92.5 (2060ec1f9f, 2020-04-08)">
  <metadata
     id="metadata49">
    <rdf:RDF>
      <cc:Work
         rdf:about="">
        <dc:format>image/svg+xml</dc:format>
        <dc:type
           rdf:resource="http://purl.org/dc/dcmitype/StillImage" />
        <dc:title></dc:title>
      </cc:Work>
    </rdf:RDF>
  </metadata>
  <sodipodi:namedview
     pagecolor="#ffffff"
     bordercolor="#666666"
     borderopacity="1"
     objecttolerance="10"
     gridtolerance="10"
     guidetolerance="10"
     inkscape:pageopacity="0"
     inkscape:pageshadow="2"
     inkscape:window-width="1085"
     inkscape:window-height="480"
     id="namedview47"
     showgrid="false"
     inkscape:zoom="7.375"
     inkscape:cx="1.4237288"
     inkscape:cy="16"
     inkscape:window-x="0"
     inkscape:window-y="25"
     inkscape:window-maximized="0"
     inkscape:current-layer="svg45" />
  <defs
     id="defs3">
    <linearGradient
       xlink:href="#a"
       id="c"
       gradientUnits="userSpaceOnUse"
       gradientTransform="matrix(0.58696,0,0,0.53846,-227.988,-270.353)"
       x1="388.423"
       y1="557.798"
       x2="388.423"
       y2="505.798" />
  </defs>
  <linearGradient
     id="g"
     gradientUnits="userSpaceOnUse"
     x1="-11.306"
     x2="-11.306"
     y1="23.62"
     y2="7.62">
    <stop
       offset="0"
       stop-color="#3e3e3e"
       id="stop5" />
    <stop
       offset="1"
       stop-color="#5c5c5c"
       id="stop7" />
  </linearGradient>
  <linearGradient
     id="f"
     gradientUnits="userSpaceOnUse"
     x1="10"
     x2="24"
     xlink:href="#b"
     y1="9"
     y2="23" />
  <linearGradient
     id="b">
    <stop
       offset="0"
       stop-color="#292c2f"
       id="stop11" />
    <stop
       offset="1"
       stop-opacity="0"
       id="stop13" />
  </linearGradient>
  <linearGradient
     id="a"
     gradientTransform="matrix(.58696 0 0 .53846 -227.988 -270.353)"
     gradientUnits="userSpaceOnUse"
     x1="388.423"
     x2="388.423"
     y1="557.798"
     y2="505.798">
    <stop
       offset="0"
       stop-color="#7f8c8d"
       id="stop16" />
    <stop
       offset="1"
       stop-color="#afb0b3"
       id="stop18" />
  </linearGradient>
  <linearGradient
     id="d"
     gradientUnits="userSpaceOnUse"
     x1="-421.447"
     x2="-410.447"
     xlink:href="#b"
     y1="-504.204"
     y2="-493.204" />
  <linearGradient
     id="e"
     gradientTransform="matrix(0.52174,0,0,0.53846,-0.696,-1.23)"
     gradientUnits="userSpaceOnUse"
     x1="1.333"
     x2="1.333"
     y1="48.714"
     y2="9.714">
    <stop
       offset="0"
       stop-color="#eef1f2"
       id="stop22" />
    <stop
       offset="1"
       stop-color="#f9fafb"
       id="stop24" />
  </linearGradient>
  <path
     d="M 9,2 C 6.23,2 4,4.23 4,7 V 30 H 28 V 7 C 28,4.23 25.77,2 23,2 Z"
     id="path27"
     style="fill:url(#c)"
     inkscape:connector-curvature="0" />
  <path
     d="m 7,27 h 18 v 3 H 7 Z"
     id="path29"
     inkscape:connector-curvature="0"
     style="fill:#292c2e" />
  <path
     d="m 9,28 h 9 v 1 H 9 Z m 10,0 h 4 v 1 h -4 z"
     id="path31"
     inkscape:connector-curvature="0"
     style="fill:#f6b44d" />
  <path
     d="m 24,27 h 4 v 3 H 24 Z M 4,27 h 4 v 3 H 4 Z"
     id="path33"
     inkscape:connector-curvature="0"
     style="opacity:0.2;fill:#292c2f" />
  <path
     d="m 4,27 h 4 v 3 H 7 Z m 20,0 h 4 v 3 h -4 z"
     id="path35"
     inkscape:connector-curvature="0"
     style="opacity:0.2;fill:#292c2f" />
  <path
     d="M 24.535,5.465 28,8.928 V 30 H 14 L 6,22 Z"
     id="path37"
     style="opacity:0.2;fill:url(#d)"
     inkscape:connector-curvature="0" />
  <path
     d="M 11,4 A 5,5 0 0 0 6,9 v 4.768 A 3,3 0 0 1 6.996,15.885 2,2 0 0 1 7,16 2,2 0 0 1 6.99,16.2 3,3 0 0 1 6.99,16.205 3,3 0 0 1 6,18.23 V 22 l 3,3 h 14 l 3,-3 V 18.232 A 3,3 0 0 1 25.004,16.115 2,2 0 0 1 25,16 2,2 0 0 1 25.01,15.795 3,3 0 0 1 26,13.77 V 9 A 5,5 0 0 0 21,4 Z"
     id="path39"
     style="fill:url(#e)"
     inkscape:connector-curvature="0" />
  <path
     d="M 17.676,27 H 28 V 14.676 L 21.663,8.338 16,6 l -6,3 -1.56,5 1.899,5.662 z"
     id="path41"
     style="opacity:0.2;fill:url(#f)"
     inkscape:connector-curvature="0" />
  <path
     d="m 16,6 c -4.432,0 -8,3.568 -8,8 0,4.432 3.568,8 8,8 4.432,0 8,-3.568 8,-8 0,-4.432 -3.568,-8 -8,-8 m 0,1 c 3.878,0 7,3.122 7,7 0,3.878 -3.122,7 -7,7 -3.878,0 -7,-3.122 -7,-7 0,-3.878 3.122,-7 7,-7 m -1,1 v 7 h 6 V 14 H 16 V 8 Z"
     id="path43"
     style="fill:url(#g)"
     inkscape:connector-curvature="0" />
</svg>
