<?xml version="1.0" encoding="UTF-8" standalone="no"?>
<svg
   xmlns:dc="http://purl.org/dc/elements/1.1/"
   xmlns:cc="http://creativecommons.org/ns#"
   xmlns:rdf="http://www.w3.org/1999/02/22-rdf-syntax-ns#"
   xmlns:svg="http://www.w3.org/2000/svg"
   xmlns="http://www.w3.org/2000/svg"
   xmlns:xlink="http://www.w3.org/1999/xlink"
   xmlns:sodipodi="http://sodipodi.sourceforge.net/DTD/sodipodi-0.dtd"
   xmlns:inkscape="http://www.inkscape.org/namespaces/inkscape"
   width="32"
   height="32"
   version="1.1"
   id="svg56"
   sodipodi:docname="applications-multimedia.svg"
   inkscape:version="0.92.5 (2060ec1f9f, 2020-04-08)">
  <metadata
     id="metadata60">
    <rdf:RDF>
      <cc:Work
         rdf:about="">
        <dc:format>image/svg+xml</dc:format>
        <dc:type
           rdf:resource="http://purl.org/dc/dcmitype/StillImage" />
        <dc:title></dc:title>
      </cc:Work>
    </rdf:RDF>
  </metadata>
  <sodipodi:namedview
     pagecolor="#ffffff"
     bordercolor="#666666"
     borderopacity="1"
     objecttolerance="10"
     gridtolerance="10"
     guidetolerance="10"
     inkscape:pageopacity="0"
     inkscape:pageshadow="2"
     inkscape:window-width="1085"
     inkscape:window-height="480"
     id="namedview58"
     showgrid="false"
     inkscape:zoom="7.375"
     inkscape:cx="1.4237288"
     inkscape:cy="16"
     inkscape:window-x="0"
     inkscape:window-y="25"
     inkscape:window-maximized="0"
     inkscape:current-layer="svg56" />
  <defs
     id="defs28">
    <linearGradient
       id="a">
      <stop
         stop-color="#2a2c2f"
         id="stop2" />
      <stop
         offset="1"
         stop-color="#424649"
         id="stop4" />
    </linearGradient>
    <linearGradient
       xlink:href="#a"
       id="f"
       y1="545.798"
       y2="539.798"
       x2="0"
       gradientUnits="userSpaceOnUse"
       gradientTransform="translate(0,-8)" />
    <linearGradient
       xlink:href="#a"
       id="h"
       y1="-533.798"
       y2="-523.798"
       x2="0"
       gradientUnits="userSpaceOnUse"
       gradientTransform="translate(0,2)" />
    <linearGradient
       id="d">
      <stop
         stop-color="#21c9fb"
         id="stop9" />
      <stop
         offset="1"
         stop-color="#197cf1"
         id="stop11" />
    </linearGradient>
    <linearGradient
       xlink:href="#b"
       id="g"
       y1="524.798"
       x1="393.571"
       y2="538.798"
       x2="407.571"
       gradientUnits="userSpaceOnUse"
       gradientTransform="translate(0,-2)" />
    <linearGradient
       id="b">
      <stop
         stop-color="#292c2f"
         id="stop15" />
      <stop
         offset="1"
         stop-opacity="0"
         id="stop17" />
    </linearGradient>
    <linearGradient
       id="i"
       xlink:href="#c"
       y1="542.798"
       y2="538.798"
       gradientUnits="userSpaceOnUse"
       x2="0"
       gradientTransform="translate(0,2)" />
    <linearGradient
       id="c">
      <stop
         stop-color="#c6cdd1"
         id="stop21" />
      <stop
         offset="1"
         stop-color="#e0e5e7"
         id="stop23" />
    </linearGradient>
    <linearGradient
       xlink:href="#a"
       id="j"
       x1="0"
       y1="25"
       x2="0"
       y2="2"
       gradientUnits="userSpaceOnUse"
       gradientTransform="translate(384.571,515.798)" />
    <linearGradient
       xlink:href="#d"
       id="e"
       gradientUnits="userSpaceOnUse"
       y1="541.798"
       x2="0"
       y2="517.798" />
  </defs>
  <g
     transform="translate(-384.571,-515.798)"
     id="g54">
    <path
       d="m 388.571,518.798 c -0.415,0 -0.81,0.11 -1.17,0.313 -0.359,0.201 -0.681,0.495 -0.953,0.857 -0.542,0.723 -0.877,1.722 -0.877,2.83 v 14 h 30 v -14 c 0,-1.108 -0.334,-2.107 -0.877,-2.83 a 3.117,3.117 0 0 0 -0.953,-0.857 2.371,2.371 0 0 0 -1.17,-0.313 z"
       id="path30"
       style="fill:url(#e)"
       inkscape:connector-curvature="0" />
    <path
       d="m 384.571,534.798 h 32 v 3 h -32 z"
       id="path32"
       style="fill:url(#f)"
       inkscape:connector-curvature="0" />
    <rect
       width="12"
       x="394.57101"
       y="520.79797"
       rx="6"
       height="12"
       id="rect34"
       style="opacity:0.3;fill:#ebf9fe" />
    <path
       d="m 404.571,523.698 -7,7.1 10,10 h 9 v -5 z"
       id="path36"
       style="opacity:0.2;fill:url(#g);fill-rule:evenodd"
       inkscape:connector-curvature="0" />
    <rect
       width="10"
       x="395.57101"
       y="-531.79797"
       rx="5"
       height="10"
       transform="scale(1,-1)"
       id="rect38"
       style="fill:url(#h)" />
    <path
       d="m 398.571,523.798 v 6 l 4.5,-3 z"
       id="path40"
       inkscape:connector-curvature="0"
       style="fill:#ffffff;fill-rule:evenodd" />
    <path
       d="m 397.571,540.798 h 6 v 4 h -6 z"
       id="path42"
       style="fill:url(#i)"
       inkscape:connector-curvature="0" />
    <path
       d="m 394.571,544.798 h 12 v 1 h -12 z"
       id="path44"
       inkscape:connector-curvature="0"
       style="fill:#99a1a7" />
    <path
       d="m 386.571,535.798 h 15 v 1 h -15 z"
       id="path46"
       inkscape:connector-curvature="0"
       style="fill:#3092df" />
    <path
       d="m 400.571,535.798 h 14 v 1 h -14 z"
       id="path48"
       inkscape:connector-curvature="0"
       style="fill:#1c1e20" />
    <path
       d="m 399.571,535.798 h 1 v 1 h -1 z"
       id="path50"
       inkscape:connector-curvature="0"
       style="fill:#daebf9" />
    <path
       d="m 388.571,517.798 c -2.216,0 -4,1.784 -4,4 v 15 c 0,2.216 1.784,4 4,4 h 24 c 2.216,0 4,-1.784 4,-4 v -15 c 0,-2.216 -1.784,-4 -4,-4 z m 0,1 h 24 c 1.662,0 3,1.784 3,4 v 14 h -30 v -14 c 0,-2.216 1.338,-4 3,-4 z"
       id="path52"
       style="fill:url(#j);paint-order:stroke fill markers"
       inkscape:connector-curvature="0" />
  </g>
</svg>
