<?xml version="1.0" encoding="UTF-8" standalone="no"?>
<svg
   xmlns:dc="http://purl.org/dc/elements/1.1/"
   xmlns:cc="http://creativecommons.org/ns#"
   xmlns:rdf="http://www.w3.org/1999/02/22-rdf-syntax-ns#"
   xmlns:svg="http://www.w3.org/2000/svg"
   xmlns="http://www.w3.org/2000/svg"
   xmlns:xlink="http://www.w3.org/1999/xlink"
   xmlns:sodipodi="http://sodipodi.sourceforge.net/DTD/sodipodi-0.dtd"
   xmlns:inkscape="http://www.inkscape.org/namespaces/inkscape"
   width="32"
   height="32"
   version="1.1"
   id="svg78"
   sodipodi:docname="preferences-desktop-plasma.svg"
   inkscape:version="0.92.5 (2060ec1f9f, 2020-04-08)">
  <metadata
     id="metadata82">
    <rdf:RDF>
      <cc:Work
         rdf:about="">
        <dc:format>image/svg+xml</dc:format>
        <dc:type
           rdf:resource="http://purl.org/dc/dcmitype/StillImage" />
        <dc:title></dc:title>
      </cc:Work>
    </rdf:RDF>
  </metadata>
  <sodipodi:namedview
     pagecolor="#ffffff"
     bordercolor="#666666"
     borderopacity="1"
     objecttolerance="10"
     gridtolerance="10"
     guidetolerance="10"
     inkscape:pageopacity="0"
     inkscape:pageshadow="2"
     inkscape:window-width="1076"
     inkscape:window-height="480"
     id="namedview80"
     showgrid="false"
     inkscape:zoom="7.375"
     inkscape:cx="1.7627119"
     inkscape:cy="16"
     inkscape:window-x="0"
     inkscape:window-y="25"
     inkscape:window-maximized="0"
     inkscape:current-layer="svg78" />
  <defs
     id="defs46">
    <linearGradient
       id="e">
      <stop
         stop-color="#1abc9c"
         id="stop2" />
      <stop
         offset="1"
         stop-color="#2980b9"
         id="stop4" />
    </linearGradient>
    <linearGradient
       id="a">
      <stop
         stop-color="#cc4a5e"
         id="stop7" />
      <stop
         offset="1"
         stop-color="#aa478a"
         id="stop9" />
    </linearGradient>
    <linearGradient
       id="b">
      <stop
         stop-color="#334545"
         id="stop12" />
      <stop
         offset="1"
         stop-color="#536161"
         id="stop14" />
    </linearGradient>
    <linearGradient
       id="c">
      <stop
         stop-color="#383e51"
         id="stop17" />
      <stop
         offset="1"
         stop-color="#655c6f"
         stop-opacity="0"
         id="stop19" />
    </linearGradient>
    <linearGradient
       id="d">
      <stop
         stop-color="#eff0f1"
         id="stop22" />
      <stop
         offset="1"
         stop-color="#fcfcfc"
         id="stop24" />
    </linearGradient>
    <linearGradient
       xlink:href="#e"
       id="g"
       gradientUnits="userSpaceOnUse"
       gradientTransform="matrix(0.66667,0,0,0.85555,-256.38,-429.026)"
       x1="418.17"
       y1="503.079"
       x2="384.571"
       y2="531.458" />
    <linearGradient
       xlink:href="#b"
       id="j"
       y1="568.798"
       x1="431.571"
       y2="562.798"
       x2="439.571"
       gradientUnits="userSpaceOnUse"
       gradientTransform="matrix(-0.66667,0,0,0.85555,303.047,-463.249)" />
    <linearGradient
       xlink:href="#b"
       id="k"
       y1="581.87"
       x1="406.537"
       y2="572.678"
       x2="423.32"
       gradientUnits="userSpaceOnUse"
       gradientTransform="matrix(-0.66667,0,0,0.85555,303.048,-463.249)" />
    <linearGradient
       xlink:href="#b"
       id="l"
       y1="572.334"
       x1="423.054"
       y2="566.766"
       x2="431.225"
       gradientUnits="userSpaceOnUse"
       gradientTransform="matrix(-0.66667,0,0,0.85555,303.047,-463.249)" />
    <linearGradient
       xlink:href="#b"
       id="m"
       y1="577.102"
       x1="431.313"
       y2="571.445"
       x2="440.632"
       gradientUnits="userSpaceOnUse"
       gradientTransform="matrix(-0.66667,0,0,0.85555,303.048,-463.249)" />
    <linearGradient
       xlink:href="#b"
       id="n"
       y1="577.362"
       x1="430.567"
       y2="591.328"
       x2="423.75"
       gradientUnits="userSpaceOnUse"
       gradientTransform="matrix(-0.66667,0,0,0.85555,303.048,-463.249)" />
    <linearGradient
       id="f"
       gradientUnits="userSpaceOnUse"
       x1="393.571"
       x2="407.571"
       y1="522.798"
       y2="536.798"
       gradientTransform="translate(-384.571 -515.798)">
      <stop
         offset="0"
         stop-color="#292c2f"
         id="stop33" />
      <stop
         offset="1"
         stop-opacity="0"
         id="stop35" />
    </linearGradient>
    <linearGradient
       id="p"
       gradientUnits="userSpaceOnUse"
       x2="0"
       y1="536.798"
       y2="522.798"
       gradientTransform="translate(-384.571,-515.798)">
      <stop
         offset="0"
         stop-color="#eff0f1"
         id="stop38" />
      <stop
         offset="1"
         stop-color="#fcfcfc"
         id="stop40" />
    </linearGradient>
    <linearGradient
       xlink:href="#a"
       id="h"
       gradientUnits="userSpaceOnUse"
       gradientTransform="matrix(0.66667,0,0,0.85555,-256.38,-429.027)"
       x1="404.045"
       y1="521.633"
       x2="430.736"
       y2="528.35" />
    <linearGradient
       xlink:href="#b"
       id="i"
       gradientUnits="userSpaceOnUse"
       gradientTransform="matrix(0.66667,0,0,0.85555,-256.38,-429.027)"
       x1="398.092"
       y1="542.224"
       x2="394.003"
       y2="524.9" />
    <linearGradient
       xlink:href="#f"
       id="o"
       gradientUnits="userSpaceOnUse"
       gradientTransform="translate(-384.571,-515.798)"
       x1="393.571"
       y1="522.798"
       x2="407.571"
       y2="536.798" />
  </defs>
  <path
     d="M 5,2 A 5.004,5.004 0 0 0 1.46,3.461 4.99,4.99 0 0 0 0,7.001 v 18 A 5.004,5.004 0 0 0 1.46,28.539 4.99,4.99 0 0 0 5,30 H 27 A 5.004,5.004 0 0 0 30.54,28.54 4.99,4.99 0 0 0 32,25 V 7 A 5.004,5.004 0 0 0 30.54,3.461 4.99,4.99 0 0 0 27,2.001 Z"
     id="path48"
     style="fill:url(#g)"
     inkscape:connector-curvature="0" />
  <path
     d="M 25.746,30 H 27 A 5.004,5.004 0 0 0 30.54,28.54 4.989,4.989 0 0 0 32,25 V 7 A 5.005,5.005 0 0 0 30.54,3.46 C 30.463,3.385 30.352,3.352 30.271,3.281 L 9.977,18.316 25.747,30 Z"
     id="path50"
     style="fill:url(#h)"
     inkscape:connector-curvature="0" />
  <path
     d="m 0.117,25.58 c 0.057,0.47 0.098,0.949 0.276,1.37 A 4.989,4.989 0 0 0 3.051,29.607 5.004,5.004 0 0 0 5,30 H 25.895 L 10,18.256 Z"
     id="path52"
     style="fill:url(#i)"
     inkscape:connector-curvature="0" />
  <path
     d="M 15.506,22.335 10,18.255 v 8.16 z"
     id="path54"
     style="fill:url(#j)"
     inkscape:connector-curvature="0" />
  <path
     d="M 21.011,26.413 V 30 h 4.841 l -4.84,-3.587 z"
     id="path56"
     style="fill:url(#k)"
     inkscape:connector-curvature="0" />
  <path
     d="M 15.506,22.335 V 30 h 0.666 l 4.84,-3.586 -5.506,-4.08 z"
     id="path58"
     style="fill:url(#l)"
     inkscape:connector-curvature="0" />
  <path
     d="M 10,26.414 V 30 h 4.84 z"
     id="path60"
     style="fill:url(#m)"
     inkscape:connector-curvature="0" />
  <path
     d="M 21.011,26.413 16.171,30 h 4.84 z"
     id="path62"
     style="fill:url(#n)"
     inkscape:connector-curvature="0" />
  <path
     d="M 32,9.971 V 7.001 A 5.005,5.005 0 0 0 30.54,3.461 C 30.463,3.385 30.352,3.352 30.271,3.281 L 9.977,18.318 Z"
     id="path64"
     inkscape:connector-curvature="0"
     style="fill:#aa478a" />
  <path
     d="m 2,27 v 1 h 1 v -1 z m 1,1 v 1 h 1 v -1 z"
     id="path66"
     inkscape:connector-curvature="0"
     style="fill:#4d4d4d" />
  <path
     d="M 12,7.1 V 8.6 L 19,15.613 18,17 30,29 a 5.004,5.004 0 0 0 0.225,-0.172 5.004,5.004 0 0 0 0.314,-0.289 4.99,4.99 0 0 0 0.336,-0.37 4.99,4.99 0 0 0 0.295,-0.401 4.99,4.99 0 0 0 0.254,-0.428 4.99,4.99 0 0 0 0.21,-0.453 4.99,4.99 0 0 0 0.165,-0.471 4.99,4.99 0 0 0 0.115,-0.484 4.99,4.99 0 0 0 0.068,-0.494 A 4.99,4.99 0 0 0 32,25 V 21 L 23,12 20,14.137 13,7.1 Z M 11.24,12.635 9.385,14.49 14,19.105 13.012,20.488 22.525,30 h 6.08 l -0.2,-0.201 z"
     id="path68"
     style="opacity:0.2;fill:url(#o);fill-rule:evenodd"
     inkscape:connector-curvature="0" />
  <path
     d="m 12.5,7 a 0.873,0.873 0 0 0 -0.875,0.875 c 0,0.485 0.39,0.875 0.875,0.875 0.485,0 0.875,-0.39 0.875,-0.875 A 0.873,0.873 0 0 0 12.5,7 Z m 5.5,0 -2,2 3,3 -3,3 2,2 3,-3 2,-2 -2,-2 z m -7.688,5.25 A 1.31,1.31 0 0 0 9,13.563 a 1.31,1.31 0 0 0 1.313,1.312 1.31,1.31 0 0 0 1.312,-1.313 1.31,1.31 0 0 0 -1.313,-1.312 z m 3.938,5.25 c -0.97,0 -1.75,0.78 -1.75,1.75 0,0.97 0.78,1.75 1.75,1.75 C 15.22,21 16,20.22 16,19.25 16,18.28 15.22,17.5 14.25,17.5 Z"
     id="path70"
     style="fill:url(#p)"
     inkscape:connector-curvature="0" />
  <path
     d="m 0.124,26 c 0.067,0.317 0.146,0.658 0.269,0.95 A 4.989,4.989 0 0 0 3.051,29.608 5.004,5.004 0 0 0 5,30 h 22 a 5.004,5.004 0 0 0 3.54,-1.46 4.989,4.989 0 0 0 1.067,-1.59 5.35,5.35 0 0 0 0.285,-0.95 z"
     id="path72"
     inkscape:connector-curvature="0"
     style="fill:#ffffff;fill-opacity:0.78399999" />
  <circle
     cx="28"
     cy="28"
     r="1"
     id="circle74"
     style="fill:#4d4d4d" />
  <path
     d="m 2,27 v 1 h 1 v -1 z m 1,1 v 1 h 1 v -1 z"
     id="path76"
     inkscape:connector-curvature="0"
     style="fill:#4d4d4d" />
</svg>
