<?xml version="1.0" encoding="UTF-8" standalone="no"?>
<svg
   xmlns:dc="http://purl.org/dc/elements/1.1/"
   xmlns:cc="http://creativecommons.org/ns#"
   xmlns:rdf="http://www.w3.org/1999/02/22-rdf-syntax-ns#"
   xmlns:svg="http://www.w3.org/2000/svg"
   xmlns="http://www.w3.org/2000/svg"
   xmlns:sodipodi="http://sodipodi.sourceforge.net/DTD/sodipodi-0.dtd"
   xmlns:inkscape="http://www.inkscape.org/namespaces/inkscape"
   height="32"
   width="32"
   version="1.1"
   id="svg48"
   sodipodi:docname="utilities-log-viewer.svg"
   inkscape:version="1.0.2 (e86c870879, 2021-01-15)">
  <metadata
     id="metadata54">
    <rdf:RDF>
      <cc:Work
         rdf:about="">
        <dc:format>image/svg+xml</dc:format>
        <dc:type
           rdf:resource="http://purl.org/dc/dcmitype/StillImage" />
      </cc:Work>
    </rdf:RDF>
  </metadata>
  <defs
     id="defs52" />
  <sodipodi:namedview
     pagecolor="#ffffff"
     bordercolor="#666666"
     borderopacity="1"
     objecttolerance="10"
     gridtolerance="10"
     guidetolerance="10"
     inkscape:pageopacity="0"
     inkscape:pageshadow="2"
     inkscape:window-width="1920"
     inkscape:window-height="1007"
     id="namedview50"
     showgrid="true"
     inkscape:zoom="19.625"
     inkscape:cx="6.3949045"
     inkscape:cy="18.038217"
     inkscape:window-x="0"
     inkscape:window-y="0"
     inkscape:window-maximized="1"
     inkscape:current-layer="svg48">
    <inkscape:grid
       type="xygrid"
       id="grid879" />
  </sodipodi:namedview>
  <linearGradient
     id="b"
     gradientTransform="matrix(1 0 0 .99 -386.57 -492.862)"
     gradientUnits="userSpaceOnUse"
     x1="386.57"
     x2="386.57"
     y1="527.133"
     y2="504.911">
    <stop
       offset="0"
       stop-color="#1d1e1e"
       id="stop2" />
    <stop
       offset="1"
       stop-color="#44484c"
       id="stop4" />
  </linearGradient>
  <linearGradient
     id="a"
     gradientUnits="userSpaceOnUse"
     x1="-2"
     x2="-2"
     y1="30"
     y2="2">
    <stop
       offset="0"
       stop-color="#c6cdd1"
       id="stop7" />
    <stop
       offset="1"
       stop-color="#e0e5e7"
       id="stop9" />
  </linearGradient>
  <path
     d="M 6,2 C 3,2 2,3 2,5.9223617 V 27 c 0,2 1,3 3.1359132,3 H 27.026193 C 29,30 30,29 30,27 V 6 C 30,3 29,2 26,2 Z"
     fill="url(#a)"
     id="path12"
     sodipodi:nodetypes="ccccccccc" />
  <path
     d="M2 7h28v20H2z"
     fill="url(#b)"
     id="path14" />
  <path
     d="m 6,2 h 20 c 3,0 4,1 4,4 H 2 C 2,3 3,2 6,2 Z"
     fill="#566069"
     id="path16"
     sodipodi:nodetypes="ccccc" />
  <path
     d="M2 6h28v1H2z"
     fill="#3daee9"
     id="path18" />
  <rect
     fill="#eff0f1"
     height="2"
     rx="1"
     width="2"
     x="27"
     y="3"
     id="rect20" />
  <circle
     cx="7.5"
     cy="21.5"
     fill="#eff0f1"
     r="3.5"
     id="circle22" />
  <circle
     cx="7.5"
     cy="21.5"
     fill="#3daefd"
     r="2.5"
     id="circle24" />
  <path
     d="M13 11h2v1h-2zm3 0h3v1h-3z"
     fill="#da4453"
     id="path26" />
  <path
     d="M22 11h3v1h-3zm0 2h6v1h-6zm4-2h2v1h-2z"
     fill="#95a5a6"
     id="path28" />
  <path
     d="M13 13h4v1h-4zm5 0h2v1h-2z"
     fill="#bdc3c7"
     id="path30" />
  <path
     d="M13 20h2v1h-2zm3 0h3v1h-3z"
     fill="#3daefd"
     id="path32" />
  <path
     d="M22 20h4v1h-4z"
     fill="#95a5a6"
     id="path34" />
  <path
     d="M13 22h3v1h-3z"
     fill="#bdc3c7"
     id="path36" />
  <path
     d="M22 22h3v1h-3zm4 0h1v1h-1zm1-2h1v1h-1z"
     fill="#95a5a6"
     id="path38" />
  <g
     fill-rule="evenodd"
     id="g44">
    <path
       d="M7.5 8.92l-3.501 1.467s.416 1.902.867 3c.225.551.5 1.121.889 1.617s.965.99 1.745.99 1.354-.494 1.743-.99.664-1.066.889-1.617c.451-1.102.869-3 .869-3z"
       fill="#eff0f1"
       id="path40" />
    <path
       d="M5 11l2.5-1 2.5 1s-.928 4-2.5 4S5 11 5 11"
       fill="#da4453"
       id="path42" />
  </g>
  <path
     d="m 3,29 h 26 c 0,0 0,1 -2,1 H 5 C 3,30 3,29 3,29 Z"
     fill="#99a1a7"
     id="path46"
     sodipodi:nodetypes="ccccc" />
</svg>
