<?xml version="1.0" encoding="UTF-8" standalone="no"?>
<svg
   xmlns:dc="http://purl.org/dc/elements/1.1/"
   xmlns:cc="http://creativecommons.org/ns#"
   xmlns:rdf="http://www.w3.org/1999/02/22-rdf-syntax-ns#"
   xmlns:svg="http://www.w3.org/2000/svg"
   xmlns="http://www.w3.org/2000/svg"
   xmlns:xlink="http://www.w3.org/1999/xlink"
   xmlns:sodipodi="http://sodipodi.sourceforge.net/DTD/sodipodi-0.dtd"
   xmlns:inkscape="http://www.inkscape.org/namespaces/inkscape"
   height="32"
   width="32"
   version="1.1"
   id="svg67"
   sodipodi:docname="yast-disk.svg"
   inkscape:version="0.92.5 (2060ec1f9f, 2020-04-08)">
  <metadata
     id="metadata71">
    <rdf:RDF>
      <cc:Work
         rdf:about="">
        <dc:format>image/svg+xml</dc:format>
        <dc:type
           rdf:resource="http://purl.org/dc/dcmitype/StillImage" />
        <dc:title></dc:title>
      </cc:Work>
    </rdf:RDF>
  </metadata>
  <sodipodi:namedview
     pagecolor="#ffffff"
     bordercolor="#666666"
     borderopacity="1"
     objecttolerance="10"
     gridtolerance="10"
     guidetolerance="10"
     inkscape:pageopacity="0"
     inkscape:pageshadow="2"
     inkscape:window-width="1085"
     inkscape:window-height="480"
     id="namedview69"
     showgrid="false"
     inkscape:zoom="7.375"
     inkscape:cx="1.4237288"
     inkscape:cy="16"
     inkscape:window-x="0"
     inkscape:window-y="25"
     inkscape:window-maximized="0"
     inkscape:current-layer="svg67" />
  <defs
     id="defs3">
    <linearGradient
       xlink:href="#a"
       id="c"
       gradientUnits="userSpaceOnUse"
       gradientTransform="matrix(0.58696,0,0,0.53846,-227.988,-270.353)"
       x1="388.423"
       y1="557.798"
       x2="388.423"
       y2="505.798" />
  </defs>
  <linearGradient
     id="b"
     gradientUnits="userSpaceOnUse">
    <stop
       offset="0"
       stop-color="#292c2f"
       id="stop5" />
    <stop
       offset="1"
       stop-opacity="0"
       id="stop7" />
  </linearGradient>
  <linearGradient
     id="d"
     x1="-421.447"
     x2="-410.447"
     xlink:href="#b"
     y1="-504.204"
     y2="-493.204" />
  <linearGradient
     id="f"
     gradientUnits="userSpaceOnUse"
     x1="16"
     x2="16"
     y1="22"
     y2="6">
    <stop
       offset="0"
       stop-color="#73ba25"
       id="stop11" />
    <stop
       offset="1"
       stop-color="#81c13b"
       id="stop13" />
  </linearGradient>
  <linearGradient
     id="g"
     gradientUnits="userSpaceOnUse"
     x1="16"
     x2="16"
     y1="22"
     y2="6">
    <stop
       offset="0"
       stop-color="#173f4f"
       id="stop16" />
    <stop
       offset="1"
       stop-color="#2f5361"
       id="stop18" />
  </linearGradient>
  <linearGradient
     id="h"
     gradientUnits="userSpaceOnUse"
     x1="16"
     x2="16"
     y1="22"
     y2="6">
    <stop
       offset="0"
       stop-color="#35b9ab"
       id="stop21" />
    <stop
       offset="1"
       stop-color="#4ac0b4"
       id="stop23" />
  </linearGradient>
  <linearGradient
     id="i"
     x1="9.088"
     x2="23.102"
     xlink:href="#b"
     y1="9.986"
     y2="24" />
  <linearGradient
     id="k"
     x1="16"
     x2="25"
     xlink:href="#b"
     y1="14"
     y2="23" />
  <linearGradient
     id="j"
     x1="8"
     x2="21"
     xlink:href="#b"
     y1="14"
     y2="27" />
  <linearGradient
     id="e"
     gradientTransform="matrix(0.52174,0,0,0.53846,-0.696,-1.23)"
     gradientUnits="userSpaceOnUse"
     x1="1.333"
     x2="1.333"
     y1="48.714"
     y2="9.714">
    <stop
       offset="0"
       stop-color="#eef1f2"
       id="stop29" />
    <stop
       offset="1"
       stop-color="#f9fafb"
       id="stop31" />
  </linearGradient>
  <linearGradient
     id="a"
     gradientTransform="matrix(.58696 0 0 .53846 -227.988 -270.353)"
     gradientUnits="userSpaceOnUse"
     x1="388.423"
     x2="388.423"
     y1="557.798"
     y2="505.798">
    <stop
       offset="0"
       stop-color="#7f8c8d"
       id="stop34" />
    <stop
       offset="1"
       stop-color="#afb0b3"
       id="stop36" />
  </linearGradient>
  <path
     d="M 9,2 C 6.23,2 4,4.23 4,7 V 30 H 28 V 7 C 28,4.23 25.77,2 23,2 Z"
     id="path39"
     style="fill:url(#c)"
     inkscape:connector-curvature="0" />
  <path
     d="m 7,27 h 18 v 3 H 7 Z"
     id="path41"
     inkscape:connector-curvature="0"
     style="fill:#292c2e" />
  <path
     d="m 9,28 h 9 v 1 H 9 Z m 10,0 h 4 v 1 h -4 z"
     id="path43"
     inkscape:connector-curvature="0"
     style="fill:#f6b44d" />
  <path
     d="m 24,27 h 4 v 3 H 24 Z M 4,27 h 4 v 3 H 4 Z"
     id="path45"
     inkscape:connector-curvature="0"
     style="opacity:0.2;fill:#292c2f" />
  <path
     d="m 4,27 h 4 v 3 H 7 Z m 20,0 h 4 v 3 h -4 z"
     id="path47"
     inkscape:connector-curvature="0"
     style="opacity:0.2;fill:#292c2f" />
  <path
     d="M 24.535,5.465 28,8.928 V 30 H 14 L 6,22 Z"
     id="path49"
     style="opacity:0.2;fill:url(#d)"
     inkscape:connector-curvature="0" />
  <path
     d="M 11,4 A 5,5 0 0 0 6,9 v 4.768 A 3,3 0 0 1 6.996,15.885 2,2 0 0 1 7,16 2,2 0 0 1 6.99,16.2 3,3 0 0 1 6.99,16.205 3,3 0 0 1 6,18.23 V 22 l 3,3 h 14 l 3,-3 V 18.232 A 3,3 0 0 1 25.004,16.115 2,2 0 0 1 25,16 2,2 0 0 1 25.01,15.795 3,3 0 0 1 26,13.77 V 9 A 5,5 0 0 0 21,4 Z"
     id="path51"
     style="fill:url(#e)"
     inkscape:connector-curvature="0" />
  <path
     d="M 16,6 A 8,8 0 0 0 9.088,9.986 L 16,13.441 22.908,9.986 A 8,8 0 0 0 16,6 Z"
     id="path53"
     style="fill:url(#f)"
     inkscape:connector-curvature="0" />
  <path
     d="M 8.635,10.877 A 8,8 0 0 0 8,14 a 8,8 0 0 0 7.5,7.975 v -7.666 z"
     id="path55"
     style="fill:url(#g)"
     inkscape:connector-curvature="0" />
  <path
     d="m 23.357,10.879 -6.857,3.43 v 7.673 A 8,8 0 0 0 24,14 8,8 0 0 0 23.357,10.879 Z"
     id="path57"
     style="fill:url(#h)"
     inkscape:connector-curvature="0" />
  <path
     d="m 21.65,8.35 0.05,0.064 a 8,8 0 0 1 1.208,1.572 L 16,13.441 9.088,9.986 l 2.234,2.235 4.178,2.088 1,1 v -1 L 23.357,10.879 28,15.52 V 14.7 Z"
     id="path59"
     style="opacity:0.2;fill:url(#i)"
     inkscape:connector-curvature="0" />
  <path
     d="m 15.5,14.309 v 7.666 A 8,8 0 0 1 10.434,19.736 L 17.695,27 h 3.823 L 16.5,21.982 V 15.31 Z m -5.066,5.427 a 8,8 0 0 1 -0.082,-0.088 l -0.004,0.004 z"
     id="path61"
     style="opacity:0.2;fill:url(#j)"
     inkscape:connector-curvature="0" />
  <path
     d="M 23.357,10.879 A 8,8 0 0 1 24,14 8,8 0 0 1 16.5,21.982 L 21.518,27 H 28 V 15.521 Z"
     id="path63"
     style="opacity:0.2;fill:url(#k)"
     inkscape:connector-curvature="0" />
  <path
     d="m 4,29 h 3 v 1 H 4 Z m 21,0 h 3 v 1 h -3 z"
     id="path65"
     inkscape:connector-curvature="0"
     style="opacity:0.2;fill:#292c2f" />
</svg>
