<?xml version="1.0" encoding="UTF-8" standalone="no"?>
<svg
   width="22"
   height="22"
   version="1.1"
   id="svg1"
   sodipodi:docname="applications-development-symbolic.svg"
   inkscape:version="1.4 (unknown)"
   xmlns:inkscape="http://www.inkscape.org/namespaces/inkscape"
   xmlns:sodipodi="http://sodipodi.sourceforge.net/DTD/sodipodi-0.dtd"
   xmlns="http://www.w3.org/2000/svg"
   xmlns:svg="http://www.w3.org/2000/svg">
  <defs
     id="defs1" />
  <sodipodi:namedview
     id="namedview1"
     pagecolor="#ffffff"
     bordercolor="#000000"
     borderopacity="0.25"
     inkscape:showpageshadow="2"
     inkscape:pageopacity="0.0"
     inkscape:pagecheckerboard="0"
     inkscape:deskcolor="#d1d1d1"
     showgrid="true"
     inkscape:zoom="14.142136"
     inkscape:cx="8.3085047"
     inkscape:cy="11.844039"
     inkscape:window-width="1920"
     inkscape:window-height="998"
     inkscape:window-x="0"
     inkscape:window-y="0"
     inkscape:window-maximized="1"
     inkscape:current-layer="svg1">
    <inkscape:grid
       id="grid1"
       units="px"
       originx="0"
       originy="0"
       spacingx="1"
       spacingy="1"
       empcolor="#0099e5"
       empopacity="0.30196078"
       color="#0099e5"
       opacity="0.14901961"
       empspacing="5"
       enabled="true"
       visible="true" />
  </sodipodi:namedview>
  <path
     d="m 10.211978,2.0054185 c -1.9340182,0.087051 -4.08211,1.4588866 -6.0926207,4.098242 a 0.63642163,0.598553 0 0 0 0.8078828,0.8813758 c 0,0 1.3919694,-0.64916 2.6672327,-0.7714914 0.637631,-0.061174 1.1952695,0.017272 1.5511859,0.2571584 0.3558509,0.2399008 0.638839,0.6609533 0.638839,1.6529192 V 11.621097 H 9.0909685 c -0.7050828,0 -1.2727153,0.533856 -1.2727153,1.196985 v 5.98493 C 7.8182532,19.466142 8.3858857,20 9.0909685,20 h 5.0908665 c 0.705083,0 1.272717,-0.533858 1.272717,-1.196988 v -5.98493 c 0,-0.663129 -0.567634,-1.196985 -1.272717,-1.196985 H 13.371474 V 7.8945192 c 0.003,-0.1460068 0.07961,-0.5526596 0.25604,-0.832275 C 13.772769,6.832135 13.996937,6.73682 14.306105,6.6881861 l 0.897375,0.7551288 a 0.63642163,0.598553 0 0 0 0.425064,0.1519577 h 1.735098 A 0.63642163,0.598553 0 0 0 18,6.9967806 V 2.6436996 A 0.63642163,0.598553 0 0 0 17.363642,2.0452065 H 15.628544 A 0.63642163,0.598553 0 0 0 15.270601,2.1480731 L 14.345882,2.7348717 C 14.141103,2.669588 13.809907,2.5575262 13.112943,2.3888707 12.234541,2.1762979 11.157415,1.9629112 10.212041,2.0054639 Z m 0.05966,1.1946532 c 0.67444,-0.030358 1.703149,0.1493119 2.525576,0.3483454 0.822403,0.1990234 1.444292,0.4067841 1.444292,0.4067841 a 0.63642163,0.598553 0 0 0 0.56924,-0.070144 L 15.822447,3.2421459 H 16.72728 V 6.3982454 H 15.869682 L 14.877862,5.5636232 A 0.63642163,0.598553 0 0 0 14.452796,5.4116664 c -0.913745,0 -1.585046,0.5088493 -1.919011,1.038013 -0.333959,0.5291638 -0.426765,1.0569166 -0.435011,1.4190279 a 0.63642163,0.598553 0 0 0 0,0.014029 v 3.7381887 h -1.04154 V 8.1234508 c 0,-1.2355307 -0.439456,-2.1341084 -1.1683165,-2.6254715 C 9.1600583,5.0066292 8.2739682,4.9458222 7.4652859,5.0233994 7.1081613,5.0576591 7.1075635,5.1449533 6.7767197,5.2221225 8.087745,4.0301993 9.3478612,3.2414676 10.271727,3.1998132 Z M 9.0909006,12.818102 h 5.0908784 v 5.984921 H 9.0909006 Z"
     fill="#dedede"
     id="path1"
     style="stroke-width:1.23428" />
</svg>
