<svg xmlns="http://www.w3.org/2000/svg" viewBox="0 0 22 22">
  <defs id="defs3051">
    <style type="text/css" id="current-color-scheme">
      .ColorScheme-Text {
        color:#eff0f1;
      }
      </style>
  </defs>
  <path
     style="fill:currentColor;fill-opacity:1;stroke:none" 
     d="M 6,4 C 4.338,4 3,5.3116157 3,6.9414062 V 12.058594 C 3,13.688384 4.338,15 6,15 h 4 v 2 H 7 v 1 h 8 v -1 h -3 v -2 h 4 c 1.662,0 3,-1.311616 3,-2.941406 V 6.9414062 C 19,5.3116156 17.662,4 16,4 Z m 0,1 h 10 c 0.554,0 1.054516,0.2224844 1.416016,0.5839844 C 17.777516,5.9454844 18,6.446 18,7 v 5 c 0,0.554 -0.222484,1.054516 -0.583984,1.416016 C 17.054516,13.777516 16.554,14 16,14 H 6 C 5.446,14 4.945484,13.777516 4.583984,13.416016 4.222484,13.054516 4,12.554 4,12 V 7 C 4,6.446 4.222484,5.9454844 4.583984,5.5839844 4.945484,5.2224844 5.446,5 6,5 Z"
     id="rect4211"
    class="ColorScheme-Text"
      />
</svg>
