<?xml version="1.0" encoding="UTF-8" standalone="no"?>
<!-- Generator: Adobe Illustrator 19.0.0, SVG Export Plug-In . SVG Version: 6.00 Build 0)  -->

<svg
   version="1.1"
   id="Layer_1"
   x="0px"
   y="0px"
   viewBox="0 0 48 48"
   xml:space="preserve"
   sodipodi:docname="0cc-famitracker.svg"
   width="48"
   height="48"
   inkscape:version="1.4 (e7c3feb100, 2024-10-09)"
   xmlns:inkscape="http://www.inkscape.org/namespaces/inkscape"
   xmlns:sodipodi="http://sodipodi.sourceforge.net/DTD/sodipodi-0.dtd"
   xmlns:xlink="http://www.w3.org/1999/xlink"
   xmlns="http://www.w3.org/2000/svg"
   xmlns:svg="http://www.w3.org/2000/svg"><defs
   id="defs250"><linearGradient
   id="linearGradient1"
   inkscape:collect="always"><stop
     style="stop-color:#ffffff;stop-opacity:1;"
     offset="0"
     id="stop1" /><stop
     style="stop-color:#eab8ea;stop-opacity:1;"
     offset="1"
     id="stop3" /></linearGradient>
	
		

	
	
	
	
	
	

		
		
		
	
		
	
		
			
	
		
	<filter
   id="filter1233-7-3"
   x="-0.090926088"
   y="-0.087357096"
   width="1.1818522"
   height="1.1747142"
   color-interpolation-filters="sRGB"><feGaussianBlur
     stdDeviation="1.2350037"
     id="feGaussianBlur385-5-6" /></filter><filter
   id="filter402"
   x="-0.21788193"
   y="-0.087357096"
   width="1.435764"
   height="1.1747142"
   color-interpolation-filters="sRGB"><feGaussianBlur
     stdDeviation="1.2350037"
     id="feGaussianBlur400" /></filter><filter
   id="filter406"
   x="-0.21788193"
   y="-0.087357096"
   width="1.435764"
   height="1.1747142"
   color-interpolation-filters="sRGB"><feGaussianBlur
     stdDeviation="1.2350037"
     id="feGaussianBlur404" /></filter><linearGradient
   gradientTransform="translate(-0.13681623,0.08656289)"
   xlink:href="#linearGradient4300-1"
   id="linearGradient4205-3"
   x1="408.70801"
   y1="543.711"
   x2="408.70801"
   y2="503.711"
   gradientUnits="userSpaceOnUse" /><linearGradient
   id="linearGradient4300-1"><stop
     offset="0"
     style="stop-color:#65257e;stop-opacity:1"
     id="stop13" /><stop
     offset="1"
     style="stop-color:#ae79c4;stop-opacity:1"
     id="stop15" /></linearGradient><linearGradient
   xlink:href="#linearGradient4178"
   id="linearGradient4184-6"
   x1="30.207001"
   y1="43"
   x2="14"
   y2="10"
   gradientUnits="userSpaceOnUse" /><linearGradient
   id="linearGradient4178"><stop
     style="stop-color:#cebee5;stop-opacity:1"
     offset="0"
     id="stop2" /><stop
     style="stop-color:#f1f1f1;stop-opacity:1"
     offset="1"
     id="stop4" /></linearGradient><linearGradient
   inkscape:collect="always"
   xlink:href="#linearGradient1"
   id="linearGradient3"
   x1="16.926458"
   y1="10.156886"
   x2="42.881199"
   y2="41.530052"
   gradientUnits="userSpaceOnUse"
   gradientTransform="translate(-3.6736732,-3.3518169)" /></defs><sodipodi:namedview
   id="namedview248"
   pagecolor="#ffffff"
   bordercolor="#000000"
   borderopacity="1"
   inkscape:showpageshadow="2"
   inkscape:pageopacity="0.0"
   inkscape:pagecheckerboard="0"
   inkscape:deskcolor="#d1d1d1"
   showgrid="false"
   inkscape:zoom="9.9258922"
   inkscape:cx="23.524334"
   inkscape:cy="33.296755"
   inkscape:window-width="1920"
   inkscape:window-height="1004"
   inkscape:window-x="0"
   inkscape:window-y="0"
   inkscape:window-maximized="1"
   inkscape:current-layer="Layer_1" />
<style
   type="text/css"
   id="style230">
	.st0{fill:#B19DCB;}
	.st1{opacity:0.4;fill:#666699;}
	.st2{fill:#583494;}
	.st3{opacity:0.4;fill:#3D296D;}
</style>


<g
   id="g1"
   transform="translate(-0.32632256,-0.64818382)"><ellipse
     cx="24.326323"
     cy="24.648184"
     opacity="0.99"
     id="circle2-3"
     style="fill:#aa87de;fill-opacity:1;stroke-width:1.58695"
     rx="20.999996"
     ry="21" /><g
     id="g924"
     style="opacity:0.440563;stroke-width:2.1034"
     transform="matrix(1.8151727,0,0,1.7786881,-6.2179895,-5.6451313)"><path
       style="fill:#6b00d4;fill-opacity:0.309001;stroke-width:0.864889"
       d="m 10.890981,9.676859 c -0.9111662,0 -1.6447052,0.733537 -1.6447052,1.644705 v 3.700584 c 0,0.911168 0.733539,1.644704 1.6447052,1.644704 h 1.644705 c 0.911166,0 1.644705,-0.733536 1.644705,-1.644704 v -3.700584 c 0,-0.911168 -0.733539,-1.644705 -1.644705,-1.644705 z m 5.756465,0 c -0.911166,0 -1.644703,0.733537 -1.644703,1.644705 v 3.700584 c 0,0.911168 0.733537,1.644704 1.644703,1.644704 h 1.644704 c 0.776262,0 1.419441,-0.534142 1.594111,-1.25521 l -1.232727,-0.528427 c -0.112352,0.32011 -0.413112,0.550109 -0.77256,0.550109 h -0.822352 c -0.455582,0 -0.822353,-0.366769 -0.822353,-0.822353 v -2.87823 c 0,-0.455585 0.366771,-0.822353 0.822353,-0.822353 h 0.822352 c 0.359448,0 0.660201,0.229992 0.77256,0.550108 L 19.886261,10.93207 C 19.711589,10.211001 19.068412,9.676859 18.29215,9.676859 Z m 5.756463,0 c -0.911164,0 -1.644702,0.733537 -1.644702,1.644705 v 3.700584 c 0,0.911168 0.733538,1.644704 1.644702,1.644704 h 1.644705 c 0.776262,0 1.419441,-0.534142 1.594112,-1.25521 L 24.41,14.883215 c -0.112352,0.32011 -0.413115,0.550109 -0.772562,0.550109 h -0.82235 c -0.455584,0 -0.822355,-0.366769 -0.822355,-0.822353 v -2.87823 c 0,-0.455585 0.366771,-0.822353 0.822355,-0.822353 h 0.82235 c 0.359447,0 0.660201,0.229992 0.772562,0.550108 L 25.642726,10.93207 C 25.468053,10.211001 24.824876,9.676859 24.048614,9.676859 Z m -11.101752,1.233529 h 0.822353 c 0.455584,0 0.822352,0.366768 0.822352,0.822353 v 2.87823 c 0,0.455584 -0.366768,0.822353 -0.822352,0.822353 h -0.822353 c -0.455583,0 -0.822352,-0.366769 -0.822352,-0.822353 v -2.87823 c 0,-0.455585 0.366769,-0.822353 0.822352,-0.822353 z m 2.467058,6.989993 c -0.911168,0 -1.644705,0.733537 -1.644705,1.644705 v 5.345287 h 1.233528 v -3.289409 h 2.467055 v -1.233527 h -2.467055 v -1.233528 h 3.700584 v -1.233528 z m 4.522935,0 v 1.233528 h 1.644705 v 5.756464 h 1.233529 v -5.756464 h 1.644704 v -1.233528 z"
       id="path918" /><path
       d="m 11.506435,9.95294 c -0.911166,0 -1.6447052,0.733537 -1.6447052,1.644705 v 3.700584 c 0,0.911168 0.7335392,1.644704 1.6447052,1.644704 h 1.644705 c 0.911166,0 1.644705,-0.733536 1.644705,-1.644704 v -3.700584 c 0,-0.911168 -0.733539,-1.644705 -1.644705,-1.644705 z m 5.756465,0 c -0.911166,0 -1.644703,0.733537 -1.644703,1.644705 v 3.700584 c 0,0.911168 0.733537,1.644704 1.644703,1.644704 h 1.644704 c 0.776262,0 1.419441,-0.534142 1.594111,-1.25521 l -1.232727,-0.528427 c -0.112352,0.32011 -0.413112,0.550109 -0.77256,0.550109 h -0.822352 c -0.455582,0 -0.822353,-0.366769 -0.822353,-0.822353 v -2.87823 c 0,-0.455585 0.366771,-0.822353 0.822353,-0.822353 h 0.822352 c 0.359448,0 0.660201,0.229992 0.77256,0.550108 l 1.232727,-0.528426 C 20.327043,10.487082 19.683866,9.95294 18.907604,9.95294 Z m 5.756463,0 c -0.911164,0 -1.644702,0.733537 -1.644702,1.644705 v 3.700584 c 0,0.911168 0.733538,1.644704 1.644702,1.644704 h 1.644705 c 0.776262,0 1.419441,-0.534142 1.594112,-1.25521 l -1.232726,-0.528427 c -0.112352,0.32011 -0.413115,0.550109 -0.772562,0.550109 h -0.82235 c -0.455584,0 -0.822355,-0.366769 -0.822355,-0.822353 v -2.87823 c 0,-0.455585 0.366771,-0.822353 0.822355,-0.822353 h 0.82235 c 0.359447,0 0.660201,0.229992 0.772562,0.550108 L 26.25818,11.208151 C 26.083507,10.487082 25.44033,9.95294 24.664068,9.95294 Z m -11.101752,1.233529 h 0.822353 c 0.455584,0 0.822352,0.366768 0.822352,0.822353 v 2.87823 c 0,0.455584 -0.366768,0.822353 -0.822352,0.822353 h -0.822353 c -0.455583,0 -0.822352,-0.366769 -0.822352,-0.822353 v -2.87823 c 0,-0.455585 0.366769,-0.822353 0.822352,-0.822353 z m 2.467058,6.989993 c -0.911168,0 -1.644705,0.733537 -1.644705,1.644705 v 5.345287 h 1.233528 v -3.289409 h 2.467055 V 20.643518 H 13.973492 V 19.40999 h 3.700584 v -1.233528 z m 4.522935,0 v 1.233528 h 1.644705 v 5.756464 h 1.233529 V 19.40999 h 1.644704 v -1.233528 z"
       id="path920"
       style="fill:#6700cc;fill-opacity:0.3" /></g><path
     d="m 12.430565,11.118141 c -1.653922,0 -2.9854232,1.304734 -2.9854232,2.92542 v 6.582182 c 0,1.620685 1.3315012,2.925417 2.9854232,2.925417 h 2.985425 c 1.653923,0 2.985423,-1.304732 2.985423,-2.925417 v -6.582182 c 0,-1.620686 -1.3315,-2.92542 -2.985423,-2.92542 z m 10.448977,0 c -1.653921,0 -2.985418,1.304734 -2.985418,2.92542 v 6.582182 c 0,1.620685 1.331497,2.925417 2.985418,2.925417 h 2.985422 c 1.40905,0 2.576532,-0.950072 2.893591,-2.232631 l -2.237614,-0.939901 c -0.203937,0.569374 -0.74987,0.978471 -1.402331,0.978471 h -1.492711 c -0.82696,0 -1.492713,-0.65237 -1.492713,-1.462713 v -5.119469 c 0,-0.810347 0.665753,-1.462717 1.492713,-1.462717 h 1.492711 c 0.652461,0 1.198375,0.409085 1.402331,0.978478 l 2.237614,-0.939905 c -0.317066,-1.282559 -1.484541,-2.232632 -2.893591,-2.232632 z m 10.448975,0 c -1.653919,0 -2.985418,1.304734 -2.985418,2.92542 v 6.582182 c 0,1.620685 1.331499,2.925417 2.985418,2.925417 h 2.985424 c 1.409044,0 2.576532,-0.950072 2.893586,-2.232631 l -2.237606,-0.939901 c -0.20394,0.569374 -0.74988,0.978471 -1.402337,0.978471 h -1.492709 c -0.826958,0 -1.492714,-0.65237 -1.492714,-1.462713 v -5.119469 c 0,-0.810347 0.665756,-1.462717 1.492714,-1.462717 h 1.492709 c 0.652457,0 1.198383,0.409085 1.402337,0.978478 l 2.237606,-0.939905 C 38.89047,12.068214 37.722985,11.118141 36.313941,11.118141 Z M 13.176921,13.3122 h 1.492713 c 0.826964,0 1.492712,0.65237 1.492712,1.462717 v 5.119469 c 0,0.810343 -0.665748,1.462713 -1.492712,1.462713 h -1.492713 c -0.826963,0 -1.492711,-0.65237 -1.492711,-1.462713 v -5.119469 c 0,-0.810347 0.665748,-1.462717 1.492711,-1.462717 z m 4.478136,12.433024 c -1.653928,0 -2.985423,1.30473 -2.985423,2.925416 v 9.507595 h 2.239067 V 32.327403 H 21.38683 V 30.13335 h -4.478129 v -2.194064 h 6.717198 v -2.194062 z m 8.209907,0 v 2.194062 h 2.985424 v 10.238949 h 2.239067 V 27.939286 h 2.98542 v -2.194062 z"
     id="path10"
     style="fill:url(#linearGradient3);fill-opacity:1" /></g></svg>
