<?xml version="1.0" encoding="UTF-8" standalone="no"?>
<svg
   height="48"
   width="48"
   version="1.1"
   id="svg25"
   sodipodi:docname="1cestart.svg"
   inkscape:version="1.4 (e7c3feb100, 2024-10-09)"
   xmlns:inkscape="http://www.inkscape.org/namespaces/inkscape"
   xmlns:sodipodi="http://sodipodi.sourceforge.net/DTD/sodipodi-0.dtd"
   xmlns:xlink="http://www.w3.org/1999/xlink"
   xmlns="http://www.w3.org/2000/svg"
   xmlns:svg="http://www.w3.org/2000/svg">
  <defs
     id="defs29">
    <linearGradient
       inkscape:collect="always"
       id="linearGradient1417">
      <stop
         style="stop-color:#b380ff;stop-opacity:1"
         offset="0"
         id="stop1413" />
      <stop
         style="stop-color:#1a80e2;stop-opacity:1"
         offset="1"
         id="stop1415" />
    </linearGradient>
    <linearGradient
       xlink:href="#1"
       id="0-6"
       y1="543.79797"
       x2="0"
       y2="503.798"
       gradientUnits="userSpaceOnUse"
       gradientTransform="translate(5.325e-4)" />
    <linearGradient
       id="1">
      <stop
         stop-color="#197cf1"
         id="stop3-3" />
      <stop
         offset="1"
         stop-color="#20bcfa"
         id="stop5-6" />
    </linearGradient>
    <linearGradient
       inkscape:collect="always"
       xlink:href="#linearGradient1417"
       id="linearGradient614"
       gradientUnits="userSpaceOnUse"
       gradientTransform="matrix(1.9252296,0,0,1.9252296,9.155983,2.9646979)"
       x1="17.249893"
       y1="29.643475"
       x2="17.249893"
       y2="3.0563629" />
    <clipPath
       clipPathUnits="userSpaceOnUse"
       id="clipPath1518">
      <path
         sodipodi:nodetypes="ccccsccccccccccccccsccccsccccccccccsccccscccccccccccsccccscccccc"
         id="path1520"
         d="m 24.50871,5.8844622 c -2.741607,0 -5.470924,0.548943 -8.010878,1.621463 -2.53998,1.072554 -4.859542,2.6516748 -6.8174348,4.6475258 -1.957644,1.995757 -3.525686,4.383345 -4.593207,7.010325 -1.064741,2.626367 -1.614087,5.459505 -1.614087,8.311166 0,2.852648 0.548049,5.685106 1.615446,8.312395 1.067458,2.627014 2.635499,5.014473 4.593207,7.010324 1.9577058,1.995701 4.2774868,3.574757 6.8174348,4.647527 2.481932,1.048078 5.145947,1.590844 7.82416,1.615445 0.06328,0.0023 0.123931,0.0037 0.186886,0.006 6.512212,0.308447 11.759387,-2.275831 15.599867,-6.027678 2.625286,-2.564727 4.687956,-5.59344 6.570232,-8.679961 1.882375,3.086521 3.944795,6.115325 6.570233,8.679961 3.84048,3.751911 9.087654,6.335993 15.599867,6.027678 0.06297,-0.0023 0.123591,-0.003 0.186898,-0.006 2.678116,-0.02268 5.336062,-0.567367 7.81799,-1.615445 2.539968,-1.072521 4.865708,-2.651675 6.823299,-4.647527 l 0.01172,-0.02419 c 1.94959,-1.992117 3.516738,-4.366987 4.581168,-6.986252 1.06474,-2.626364 1.61409,-5.459505 1.61409,-8.311167 0,-2.852674 -0.54808,-5.685411 -1.61544,-8.312394 l -0.0181,-0.03591 c -1.06772,-2.610924 -2.629345,-4.987306 -4.576735,-6.974823 -1.956662,-1.993693 -4.277492,-3.5738308 -6.81744,-4.6478328 -2.539949,-1.070917 -5.268163,-1.62026 -8.008713,-1.62026 -6.860954,0 -12.279413,2.821568 -16.280992,6.7449138 -2.314662,2.265279 -4.191073,4.857695 -5.891573,7.508746 -1.7005,-2.651059 -3.576914,-5.243475 -5.888492,-7.508753 C 36.785305,8.7040762 31.36592,5.8832822 24.505275,5.8832822 Z m -0.07235,6.1724218 c 5.473394,0 8.969453,1.961443 12.176023,5.207978 2.541865,2.573438 4.770664,6.074283 6.980085,9.891613 -2.521561,4.459881 -4.958616,8.533369 -7.697318,11.296147 -3.019117,3.045532 -6.14773,4.724988 -11.259728,4.430253 h -0.198905 c -1.949527,0 -3.914857,-0.411455 -5.708253,-1.1935 -1.769447,-0.771552 -3.402236,-1.917928 -4.749985,-3.321377 l -0.05425,-0.05424 C 12.566091,36.887905 11.473573,35.165801 10.745227,33.32025 10.01997,31.471608 9.6434522,29.459398 9.6434522,27.471877 c 0,-1.988414 0.3764858,-4.000653 1.1030718,-5.84682 0.726526,-1.84645 1.818457,-3.56149 3.176638,-4.991021 l 0.05425,-0.06028 c 1.347623,-1.403365 2.980443,-2.549763 4.749985,-3.32138 1.793087,-0.780809 3.755918,-1.191277 5.7064,-1.191277 z m 44.484631,0 c 1.949556,0 3.914849,0.411455 5.70825,1.1935 1.76942,0.771552 3.402229,1.917925 4.749978,3.321377 l 0.05431,0.06028 c 1.358181,1.429622 2.450109,3.144537 3.176629,4.991017 0.725272,1.845555 1.101781,3.857764 1.101781,5.845285 0,1.988474 -0.376478,4.000344 -1.10307,5.846825 -0.726531,1.846416 -1.818429,3.567348 -3.17664,4.996883 l -0.05431,0.05424 c -1.347628,1.403358 -2.980448,2.54973 -4.749989,3.321377 -1.793518,0.782045 -3.758687,1.193496 -5.708243,1.193496 h -0.198919 c -5.110756,0.293177 -8.240171,-1.385712 -11.258487,-4.4318 -2.737466,-2.762158 -5.175571,-6.835952 -7.697008,-11.295527 2.209731,-3.81764 4.437975,-7.320491 6.981007,-9.891303 3.206574,-3.24669 6.703249,-5.209524 12.175102,-5.209524 z"
         inkscape:connector-curvature="0"
         style="fill:#ffffff;stroke-width:3.08621" />
    </clipPath>
  </defs>
  <sodipodi:namedview
     id="namedview27"
     pagecolor="#ffffff"
     bordercolor="#666666"
     borderopacity="1.0"
     inkscape:showpageshadow="2"
     inkscape:pageopacity="0.0"
     inkscape:pagecheckerboard="0"
     inkscape:deskcolor="#d1d1d1"
     showgrid="false"
     inkscape:zoom="9.8333334"
     inkscape:cx="38.745762"
     inkscape:cy="32.847457"
     inkscape:window-width="1920"
     inkscape:window-height="998"
     inkscape:window-x="0"
     inkscape:window-y="0"
     inkscape:window-maximized="1"
     inkscape:current-layer="svg25">
    <inkscape:grid
       type="xygrid"
       id="grid803"
       originx="80"
       originy="15"
       spacingy="1"
       spacingx="1"
       units="px"
       visible="false" />
  </sodipodi:namedview>
  <linearGradient
     id="a"
     gradientUnits="userSpaceOnUse"
     x1="-20"
     x2="-20"
     xlink:href="#b"
     y1="44"
     y2="4"
     gradientTransform="matrix(1.0499999,0,0,1.0499999,-1.1999973,-1.1999973)" />
  <linearGradient
     id="b"
     gradientUnits="userSpaceOnUse"
     x2="0"
     y1="543.79999"
     y2="503.79999">
    <stop
       offset="0"
       stop-color="#197cf1"
       id="stop3" />
    <stop
       offset="1"
       stop-color="#20bcfa"
       id="stop5" />
  </linearGradient>
  <linearGradient
     id="c"
     gradientUnits="userSpaceOnUse"
     x1="19"
     x2="44"
     y1="19"
     y2="44"
     gradientTransform="matrix(1.0499999,0,0,1.0499999,-1.1999973,-1.1999973)">
    <stop
       offset="0"
       stop-color="#292c2f"
       id="stop8" />
    <stop
       offset="1"
       stop-color="#292c2f"
       stop-opacity="0"
       id="stop10" />
  </linearGradient>
  <g
     id="g1"
     transform="matrix(0.75,0,0,0.75,-7.3270125,-2.8601696)">
    <rect
       style="fill:url(#linearGradient614);fill-opacity:1;stroke-width:5.17443;stroke-linecap:round;stroke-linejoin:round"
       id="rect849-3"
       width="56"
       height="56"
       x="13.76935"
       y="7.8135595"
       rx="27.999998"
       ry="27.999998" />
    <path
       d="m 19.52347,23.813559 v 5.333333 h 5.333333 v 18.666667 h 5.333334 v -24 z m 26.666667,0 c -6.627467,0 -12,5.372533 -12,12 0,6.582533 5.301733,11.920133 11.8672,11.992133 v 0.0079 H 62 c 0.84654,-1.682933 1.51174,-3.4672 1.9896,-5.333333 H 46.190937 c -3.681867,0 -6.666667,-2.9848 -6.666667,-6.666667 0,-3.681867 2.9848,-6.666667 6.666667,-6.666667 2.647733,0.0033 5.042533,1.573334 6.1016,4 h 5.586003 c -1.244003,-5.456 -6.092003,-9.328 -11.688003,-9.333333 z"
       fill="#ffffff"
       id="path2"
       style="stroke-width:1.33333" />
  </g>
</svg>
