<?xml version="1.0" encoding="UTF-8" standalone="no"?>
<svg
   width="48"
   height="48"
   viewBox="0 0 12.699752 12.699752"
   version="1.1"
   id="svg3"
   sodipodi:docname="amazon-store.svg"
   inkscape:version="1.3.2 (091e20ef0f, 2023-11-25)"
   xmlns:inkscape="http://www.inkscape.org/namespaces/inkscape"
   xmlns:sodipodi="http://sodipodi.sourceforge.net/DTD/sodipodi-0.dtd"
   xmlns="http://www.w3.org/2000/svg"
   xmlns:svg="http://www.w3.org/2000/svg">
  <defs
     id="defs3" />
  <sodipodi:namedview
     id="namedview3"
     pagecolor="#ffffff"
     bordercolor="#999999"
     borderopacity="1"
     inkscape:showpageshadow="2"
     inkscape:pageopacity="0"
     inkscape:pagecheckerboard="0"
     inkscape:deskcolor="#d1d1d1"
     inkscape:zoom="6.2265625"
     inkscape:cx="29.069009"
     inkscape:cy="47.297365"
     inkscape:window-width="1920"
     inkscape:window-height="994"
     inkscape:window-x="0"
     inkscape:window-y="0"
     inkscape:window-maximized="1"
     inkscape:current-layer="svg3" />
  <g
     id="g4"
     transform="matrix(0.77773537,0,0,0.77773537,-0.23443133,-0.23443133)">
    <circle
       cx="8.4659996"
       cy="8.4659996"
       r="7.1440001"
       fill="#f2f2f2"
       style="paint-order:stroke fill markers"
       id="circle1" />
    <g
       fill-rule="evenodd"
       id="g3">
      <path
         fill="#201f1f"
         d="m 9.073,7.87 c 0,0.446 0.011,0.816 -0.204,1.21 -0.173,0.321 -0.448,0.518 -0.754,0.518 -0.419,0 -0.662,-0.333 -0.662,-0.825 0,-0.972 0.833,-1.149 1.62,-1.149 v 0.247 m 1.099,2.778 A 0.22,0.22 0 0 1 9.915,10.677 C 9.554,10.363 9.489,10.217 9.289,9.917 8.691,10.555 8.269,10.746 7.493,10.746 6.576,10.746 5.861,10.155 5.861,8.97 5.861,8.045 6.341,7.415 7.023,7.107 7.613,6.834 8.44,6.787 9.072,6.711 V 6.563 C 9.072,6.293 9.092,5.972 8.941,5.738 8.808,5.528 8.553,5.442 8.329,5.442 7.913,5.442 7.543,5.664 7.453,6.126 7.433,6.229 7.363,6.33 7.263,6.335 L 6.206,6.217 C 6.117,6.195 6.019,6.12 6.043,5.977 6.288,4.64 7.445,4.235 8.481,4.235 c 0.53,0 1.223,0.147 1.64,0.567 0.531,0.518 0.48,1.209 0.48,1.96 v 1.776 c 0,0.535 0.212,0.768 0.411,1.057 0.07,0.102 0.086,0.227 -0.002,0.303 a 52.39,52.39 0 0 0 -0.836,0.757 L 10.17,10.651"
         id="path1" />
      <path
         fill="#ff9900"
         d="m 11.886,11.625 c -0.927,0.7 -2.27,1.074 -3.428,1.074 A 6.117,6.117 0 0 1 4.271,11.061 c -0.087,-0.08 -0.01,-0.19 0.095,-0.128 a 8.27,8.27 0 0 0 4.19,1.139 8.138,8.138 0 0 0 3.196,-0.67 c 0.157,-0.068 0.289,0.105 0.135,0.222"
         id="path2" />
      <path
         fill="#ff9900"
         d="m 12.272,11.173 c -0.118,-0.155 -0.784,-0.074 -1.081,-0.037 -0.092,0.011 -0.106,-0.07 -0.023,-0.129 0.529,-0.381 1.4,-0.272 1.5,-0.143 0.101,0.128 -0.026,1.021 -0.525,1.447 -0.076,0.066 -0.148,0.031 -0.114,-0.056 0.11,-0.286 0.362,-0.927 0.243,-1.082"
         id="path3" />
    </g>
  </g>
</svg>
