<?xml version="1.0" encoding="UTF-8" standalone="no"?>
<svg
   width="48"
   height="48"
   version="1.1"
   id="svg5"
   sodipodi:docname="apifox.svg"
   inkscape:version="1.4 (unknown)"
   xmlns:inkscape="http://www.inkscape.org/namespaces/inkscape"
   xmlns:sodipodi="http://sodipodi.sourceforge.net/DTD/sodipodi-0.dtd"
   xmlns:xlink="http://www.w3.org/1999/xlink"
   xmlns="http://www.w3.org/2000/svg"
   xmlns:svg="http://www.w3.org/2000/svg">
  <defs
     id="defs5">
    <linearGradient
       id="linearGradient5"
       inkscape:collect="always">
      <stop
         style="stop-color:#b92d3a;stop-opacity:1"
         offset="0"
         id="stop5" />
      <stop
         style="stop-color:#dd5498;stop-opacity:1"
         offset="1"
         id="stop6" />
    </linearGradient>
    <linearGradient
       inkscape:collect="always"
       xlink:href="#linearGradient5"
       id="linearGradient6"
       x1="30.750063"
       y1="58.991772"
       x2="31.504652"
       y2="4.0179834"
       gradientUnits="userSpaceOnUse" />
  </defs>
  <sodipodi:namedview
     id="namedview5"
     pagecolor="#ffffff"
     bordercolor="#000000"
     borderopacity="0.25"
     inkscape:showpageshadow="2"
     inkscape:pageopacity="0.0"
     inkscape:pagecheckerboard="0"
     inkscape:deskcolor="#d1d1d1"
     inkscape:zoom="8.3085047"
     inkscape:cx="13.841239"
     inkscape:cy="30.390547"
     inkscape:window-width="1920"
     inkscape:window-height="996"
     inkscape:window-x="0"
     inkscape:window-y="0"
     inkscape:window-maximized="1"
     inkscape:current-layer="svg5" />
  <g
     id="g5"
     transform="matrix(0.74747475,0,0,0.75,1.0151586,0.74999991)">
    <path
       style="opacity:0.2;stroke-width:0.950539"
       d="M 30.750063,3.949158 C 29.919037,3.964056 29.103228,4.1782841 28.371206,4.5741785 L 9.6099863,15.266918 c -1.2652045,0.679591 -2.5345008,1.869841 -3.0836665,3.182526 -0.6005702,1.435123 -0.5714419,2.557979 -0.468158,3.40557 l 0.106902,20.939379 c 0.037887,1.552821 0.7623964,3.00787 1.9768628,3.97127 2.4320774,1.928689 19.7590244,11.560744 19.7590244,11.560744 0.867206,0.490719 1.855294,0.721363 2.849112,0.665363 0.993803,0.056 1.981907,-0.174644 2.849113,-0.665363 0,0 17.326945,-9.632055 19.759109,-11.560744 1.214667,-0.962442 1.93908,-2.418449 1.977154,-3.97127 l 0.106614,-20.939379 c 0.10281,-0.847591 0.132327,-1.970447 -0.468345,-3.40557 -0.549261,-1.312685 -1.818172,-2.502935 -3.083286,-3.182526 L 33.128919,4.5741785 C 32.396897,4.1782841 31.581089,3.96406 30.750063,3.949158 Z"
       id="path1" />
    <path
       style="fill:url(#linearGradient6);stroke-width:0.950539"
       d="M 30.750063,3 C 29.919037,3.014619 29.103228,3.2288425 28.371206,3.6247357 L 9.6099863,14.317761 c -1.2652045,0.679592 -2.5345008,1.869841 -3.0836665,3.182527 -0.6005702,1.435122 -0.5714419,2.557978 -0.468158,3.405569 l 0.106902,20.939381 c 0.037887,1.55282 0.7623964,3.007868 1.9768628,3.971267 2.4320774,1.928691 19.7590244,11.560745 19.7590244,11.560745 0.867206,0.49071 1.855294,0.721363 2.849112,0.665363 0.993803,0.056 1.981907,-0.174653 2.849113,-0.665363 0,0 17.326945,-9.632054 19.759109,-11.560745 1.214667,-0.96244 1.93908,-2.418447 1.977154,-3.971267 l 0.106614,-20.939381 c 0.10281,-0.847591 0.132327,-1.970447 -0.468345,-3.405569 -0.549261,-1.312686 -1.818172,-2.502935 -3.083286,-3.182527 L 33.128919,3.6247357 C 32.396897,3.2288425 31.581089,3.0146171 30.750063,3 Z"
       id="path2" />
    <path
       style="opacity:0.2;fill:#ffffff;stroke-width:0.950539"
       d="M 30.750063,3 C 29.919037,3.014619 29.104176,3.2288425 28.372155,3.6247357 L 9.6106525,14.317761 c -1.2652033,0.679592 -2.5353579,1.869841 -3.0845236,3.182527 -0.5082336,1.214914 -0.5589701,2.193503 -0.501951,2.983192 0.045881,-0.59512 0.1806753,-1.266163 0.501951,-2.034036 0.5491657,-1.312685 1.8193203,-2.502935 3.0845236,-3.182526 L 28.372155,4.5738937 c 0.732021,-0.3958945 1.546882,-0.6101186 2.377908,-0.6247357 0.831026,0.014619 1.645873,0.2288412 2.377909,0.6247357 L 51.889474,15.266918 c 1.265104,0.679591 2.534973,1.869841 3.084234,3.182526 0.321748,0.767873 0.45597,1.438916 0.502616,2.034036 0.05616,-0.789689 0.0059,-1.768278 -0.502616,-2.983192 -0.549261,-1.312686 -1.81913,-2.502935 -3.084234,-3.182527 L 33.127972,3.6247357 C 32.395936,3.2288425 31.581089,3.0146171 30.750063,3 Z"
       id="path3" />
    <path
       style="opacity:0.2;stroke-width:0.950539"
       d="m 37.750058,15.339051 c 1.175901,1.502161 1.917622,3.29102 2.147417,5.177728 0.0087,0.06557 0.01748,0.131903 0.02423,0.198363 4.15e-4,0.0052 4.15e-4,0.01 0,0.01477 0.007,0.06814 0.01357,0.136837 0.01865,0.205781 v 0.03528 c 0.006,0.06814 0.0091,0.135802 0.01309,0.203923 0.0043,0.06813 0.0089,0.137661 0.01115,0.205764 0,0.0481 -0.0013,0.09646 0.0038,0.144603 -4.21e-4,0.008 -4.21e-4,0.01635 0,0.02416 v 0.0871 0.159429 c 0.003,2.156251 -0.663399,4.259978 -1.909433,6.028627 0.137087,0.641992 0.206206,1.297748 0.206374,1.953933 2.54e-4,0.442668 -0.03019,0.883524 -0.09295,1.32178 0.603465,-0.141275 1.190057,-0.341831 1.753253,-0.598789 0.418306,-0.189443 0.822994,-0.409533 1.208496,-0.658111 0.07888,0.271664 0.146084,0.548151 0.198941,0.830515 0.112587,0.583943 0.168334,1.177778 0.16733,1.772267 2.54e-4,0.472644 -0.03479,0.945282 -0.105974,1.412606 0.833594,-0.08568 1.650628,-0.281877 2.431872,-0.582099 0.410003,-0.157221 0.808438,-0.342955 1.191766,-0.556143 0.05752,0.31766 0.09861,0.638374 0.122704,0.960277 0.01792,0.233706 0.02595,0.470045 0.02595,0.708155 4.19e-4,0.650792 -0.06591,1.298482 -0.200796,1.935393 0.981678,-0.03998 1.95065,-0.230833 2.872512,-0.567269 0.66119,-1.751959 0.998646,-3.607814 0.996546,-5.478054 0.0075,-0.410353 -0.0041,-0.815215 -0.03538,-1.216102 -0.09235,-1.193036 -0.323549,-2.372121 -0.687919,-3.513 -0.144889,0.38685 -0.328493,0.758113 -0.548467,1.108596 -0.284588,-1.863342 -0.944521,-3.649971 -1.941049,-5.255588 -0.996612,-1.605624 -2.309263,-2.996197 -3.859767,-4.089547 -1.076054,-0.761871 -2.255656,-1.370425 -3.502784,-1.807473 -0.167773,-0.0592 -0.33768,-0.115353 -0.509413,-0.166848 z m -14.288171,0.01859 c -1.452002,0.653536 -2.811866,1.490948 -4.04569,2.491542 -3.126452,2.529278 -5.325487,6.006831 -6.258163,9.895709 -0.329634,1.378734 -0.495858,2.789547 -0.49455,4.206317 -0.0052,3.050476 0.767452,6.053254 2.24595,8.729666 0.10019,-0.879095 0.326153,-1.740358 0.671172,-2.556424 1.113948,2.66462 2.880395,5.013652 5.13892,6.83504 2.258485,1.821404 4.938168,3.058802 7.799455,3.600137 -0.491624,-0.633603 -0.897668,-1.326727 -1.210355,-2.063311 1.523309,0.489175 3.108435,0.756262 4.709427,0.795291 0.14179,0 0.285005,0.0058 0.427629,0.0058 2.543489,0.0039 5.054529,-0.573322 7.336517,-1.685128 -0.37996,-0.21228 -0.745122,-0.449009 -1.09137,-0.711872 2.534354,-0.961233 4.776036,-2.551975 6.511021,-4.617877 0.804231,-0.956415 1.49034,-2.004298 2.043297,-3.121835 -0.861206,0.310028 -1.762487,0.494472 -2.677291,0.546877 -0.194635,0.01336 -0.391955,0.01859 -0.587518,0.01859 h -0.195215 c 0.12014,-0.46193 0.203588,-0.932415 0.250996,-1.407048 0.03028,-0.306549 0.04653,-0.617711 0.04653,-0.932476 1.72e-4,-0.351637 -0.01961,-0.701723 -0.05943,-1.051117 -0.921188,0.452546 -1.912666,0.751252 -2.932013,0.886129 -0.283567,0.03817 -0.569363,0.06255 -0.860818,0.0742 0.09284,-0.45653 0.150594,-0.917783 0.172908,-1.38295 0.0078,-0.154476 0.01115,-0.311029 0.01115,-0.467164 5.9e-4,-0.668146 -0.07137,-1.334185 -0.213807,-1.987299 -0.721175,0.421071 -1.495748,0.744291 -2.303579,0.962134 -0.292043,0.07857 -0.589818,0.145014 -0.892431,0.196506 l -0.0077,-0.01114 c 0.08805,-0.435933 0.145531,-0.877871 0.169193,-1.321775 0.01003,-0.166189 0.01309,-0.331602 0.01309,-0.506095 1.59e-4,-0.564835 -0.05017,-1.127492 -0.152461,-1.683272 -0.995009,1.033239 -2.191756,1.854439 -3.517666,2.415533 -1.325986,0.561176 -2.754267,0.849025 -4.196276,0.847196 -1.702598,0.0026 -3.381175,-0.399267 -4.893491,-1.173471 0.688184,-0.264186 1.342921,-0.608218 1.950325,-1.023308 -1.613154,-0.76698 -2.973959,-1.968847 -3.926686,-3.468503 -0.952735,-1.499576 -1.458055,-3.235646 -1.45764,-5.007182 -3.03e-4,-0.567683 0.05128,-1.13409 0.154319,-1.692538 0.101101,-0.55352 0.252798,-1.095918 0.453655,-1.622099 0.197903,-0.519001 0.442318,-1.020369 0.730678,-1.496034 0.326437,-0.542573 0.707711,-1.049973 1.137847,-1.516428 z"
       id="path4" />
    <path
       style="fill:#ffffff;stroke-width:0.950539"
       d="m 37.750058,14.389895 c 1.175901,1.502145 1.917622,3.291019 2.147417,5.177728 0.0087,0.06557 0.01748,0.131903 0.02423,0.198362 4.15e-4,0.0052 4.15e-4,0.01 0,0.01477 0.007,0.06814 0.01357,0.136837 0.01865,0.205781 v 0.03528 c 0.006,0.06814 0.0091,0.135802 0.01309,0.203923 0.0043,0.06813 0.0089,0.137661 0.01115,0.205765 0,0.0481 -0.0013,0.09646 0.0038,0.144601 -4.21e-4,0.008 -4.21e-4,0.01635 0,0.02416 v 0.08706 0.159439 c 0.003,2.156251 -0.663399,4.259977 -1.909433,6.028626 0.137087,0.641992 0.206206,1.297749 0.206374,1.953932 2.54e-4,0.442669 -0.03019,0.883519 -0.09295,1.321781 0.603465,-0.141274 1.190057,-0.341831 1.753253,-0.598789 0.418306,-0.189444 0.822994,-0.409539 1.208496,-0.658111 0.07888,0.271664 0.146084,0.548152 0.198941,0.830514 0.112587,0.583944 0.168334,1.177778 0.16733,1.772268 2.54e-4,0.472645 -0.03479,0.945283 -0.105974,1.412606 0.833594,-0.08568 1.650628,-0.281877 2.431872,-0.582107 0.410003,-0.157212 0.808438,-0.342948 1.191766,-0.556134 0.05752,0.317659 0.09861,0.638372 0.122704,0.960276 0.01792,0.233698 0.02595,0.470045 0.02595,0.708155 4.19e-4,0.650792 -0.06591,1.298482 -0.200796,1.935393 0.981678,-0.03998 1.95065,-0.230834 2.872512,-0.567269 0.66119,-1.75196 0.998646,-3.607814 0.996546,-5.478055 0.0075,-0.410352 -0.0041,-0.815214 -0.03538,-1.216102 -0.09235,-1.193036 -0.323549,-2.37212 -0.687919,-3.512999 -0.144889,0.386851 -0.328493,0.758108 -0.548467,1.108596 -0.284575,-1.863343 -0.944508,-3.649973 -1.941035,-5.25559 -0.996612,-1.605623 -2.309264,-2.996196 -3.859767,-4.089545 -1.076054,-0.761872 -2.255657,-1.370426 -3.502784,-1.807473 -0.167773,-0.05918 -0.33768,-0.115354 -0.509413,-0.166849 z m -14.288171,0.01859 c -1.452002,0.653536 -2.811866,1.490947 -4.04569,2.491541 -3.126452,2.529279 -5.325487,6.006831 -6.258163,9.895709 -0.329634,1.378735 -0.495858,2.789548 -0.49455,4.206317 -0.0052,3.050476 0.767452,6.053254 2.24595,8.729666 0.10019,-0.8791 0.326153,-1.740368 0.671172,-2.556424 1.113948,2.664612 2.880395,5.013652 5.13892,6.83504 2.258485,1.821404 4.938168,3.058802 7.799455,3.600131 -0.491624,-0.633597 -0.897668,-1.326721 -1.210355,-2.063306 1.523309,0.489164 3.108435,0.756259 4.709427,0.795292 0.14179,0 0.285005,0.0058 0.427629,0.0058 2.543489,0.0039 5.054529,-0.573321 7.336517,-1.685125 -0.37996,-0.212294 -0.745122,-0.449024 -1.09137,-0.711884 2.534354,-0.961234 4.776036,-2.551975 6.511021,-4.617877 0.804231,-0.956416 1.49034,-2.004304 2.043297,-3.121836 -0.861206,0.310025 -1.762487,0.494472 -2.677291,0.546874 -0.194635,0.01336 -0.391955,0.0186 -0.587518,0.0186 h -0.195215 c 0.12014,-0.461931 0.203588,-0.932418 0.250996,-1.407049 0.03028,-0.306547 0.04653,-0.617709 0.04653,-0.932474 1.72e-4,-0.351638 -0.01961,-0.701723 -0.05943,-1.051118 -0.921188,0.452544 -1.912666,0.751251 -2.932013,0.886127 -0.283567,0.03817 -0.569363,0.06255 -0.860818,0.0742 0.09284,-0.456533 0.150594,-0.917784 0.172908,-1.382952 0.0078,-0.154476 0.01115,-0.311028 0.01115,-0.467163 5.9e-4,-0.668145 -0.07137,-1.334188 -0.213807,-1.987301 -0.721175,0.421071 -1.495748,0.744293 -2.303579,0.962135 -0.292043,0.07857 -0.589818,0.145014 -0.892431,0.196505 l -0.0077,-0.01112 c 0.08805,-0.435932 0.145531,-0.877868 0.169193,-1.321773 0.01003,-0.16619 0.01309,-0.331603 0.01309,-0.506097 1.59e-4,-0.564833 -0.05017,-1.127491 -0.152461,-1.683272 -0.995009,1.033238 -2.191756,1.854441 -3.517666,2.415534 -1.325986,0.561177 -2.754267,0.849026 -4.196276,0.847196 -1.702598,0.0026 -3.381175,-0.399266 -4.893491,-1.17347 0.688184,-0.264189 1.342921,-0.608221 1.950325,-1.02331 -1.613154,-0.76698 -2.973959,-1.968848 -3.926686,-3.468503 -0.952735,-1.499575 -1.458055,-3.235647 -1.45764,-5.007181 -3.03e-4,-0.567684 0.05128,-1.134091 0.154319,-1.692539 0.101101,-0.553519 0.252798,-1.095917 0.453655,-1.622098 0.197903,-0.518999 0.442318,-1.020369 0.730678,-1.496034 0.326437,-0.542574 0.707711,-1.049973 1.137847,-1.516428 z"
       id="path5" />
  </g>
</svg>
