<?xml version="1.0" encoding="UTF-8" standalone="no"?>
<svg
   width="48"
   height="48"
   viewBox="0 0 12.699999 12.7"
   version="1.1"
   id="svg1443"
   inkscape:version="1.4.2 (unknown)"
   sodipodi:docname="zen-browser.svg"
   xmlns:inkscape="http://www.inkscape.org/namespaces/inkscape"
   xmlns:sodipodi="http://sodipodi.sourceforge.net/DTD/sodipodi-0.dtd"
   xmlns:xlink="http://www.w3.org/1999/xlink"
   xmlns="http://www.w3.org/2000/svg"
   xmlns:svg="http://www.w3.org/2000/svg"
   xmlns:rdf="http://www.w3.org/1999/02/22-rdf-syntax-ns#"
   xmlns:cc="http://creativecommons.org/ns#"
   xmlns:dc="http://purl.org/dc/elements/1.1/">
  <defs
     id="defs1437">
    <filter
       color-interpolation-filters="sRGB"
       height="1.1311001"
       width="1.1106"
       y="-0.065563001"
       x="-0.055319"
       id="c-9">
      <feGaussianBlur
         id="feGaussianBlur1093"
         stdDeviation="1.1062912" />
    </filter>
    <linearGradient
       gradientUnits="userSpaceOnUse"
       gradientTransform="matrix(0.13235,0,0,0.13075,-32.379,1.0873)"
       y2="269.48999"
       y1="235.14999"
       x2="657.65002"
       x1="319.20999"
       id="a-12">
      <stop
         id="stop1076"
         offset="0"
         stop-color="#e54c18" />
      <stop
         id="stop1078"
         offset="1"
         stop-color="#fec350" />
    </linearGradient>
    <linearGradient
       xlink:href="#a-7"
       id="c-36"
       x1="8.6850004"
       x2="8.7620001"
       y1="16.868999"
       y2="4.5339999"
       gradientTransform="matrix(1.0634748,0,0,1.0634748,-0.80999368,1.8113865)"
       gradientUnits="userSpaceOnUse" />
    <linearGradient
       id="a-7">
      <stop
         offset="0"
         style="stop-color:#2369ff;stop-opacity:1;"
         id="stop8" />
      <stop
         offset="1"
         style="stop-color:#7fa8ff;stop-opacity:1"
         id="stop10" />
    </linearGradient>
  </defs>
  <sodipodi:namedview
     id="base"
     pagecolor="#ffffff"
     bordercolor="#666666"
     borderopacity="1.0"
     inkscape:pageopacity="0.0"
     inkscape:pageshadow="2"
     inkscape:zoom="5.6"
     inkscape:cx="26.875"
     inkscape:cy="46.875"
     inkscape:document-units="px"
     inkscape:current-layer="layer1"
     inkscape:document-rotation="0"
     showgrid="false"
     units="px"
     inkscape:window-width="1920"
     inkscape:window-height="998"
     inkscape:window-x="0"
     inkscape:window-y="0"
     inkscape:window-maximized="1"
     inkscape:showpageshadow="2"
     inkscape:pagecheckerboard="0"
     inkscape:deskcolor="#d1d1d1">
    <inkscape:grid
       id="grid1"
       units="px"
       originx="0"
       originy="0"
       spacingx="0.26458332"
       spacingy="0.26458334"
       empcolor="#0099e5"
       empopacity="0.30196078"
       color="#0099e5"
       opacity="0.14901961"
       empspacing="5"
       enabled="true"
       visible="false" />
  </sodipodi:namedview>
  <metadata
     id="metadata1440">
    <rdf:RDF>
      <cc:Work
         rdf:about="">
        <dc:format>image/svg+xml</dc:format>
        <dc:type
           rdf:resource="http://purl.org/dc/dcmitype/StillImage" />
      </cc:Work>
    </rdf:RDF>
  </metadata>
  <g
     inkscape:label="Capa 1"
     inkscape:groupmode="layer"
     id="layer1">
    <rect
       ry="3.114213"
       rx="3.1143858"
       y="0.78102475"
       x="0.7807253"
       height="11.13795"
       width="11.138549"
       id="rect1634"
       style="opacity:0.295;fill:none;fill-opacity:1;stroke:#000000;stroke-width:0.0471161;stroke-linecap:round;stroke-linejoin:round;stroke-miterlimit:4;stroke-dasharray:none;stroke-opacity:0.02" />
    <rect
       style="opacity:0.295;fill:none;fill-opacity:1;stroke:#000000;stroke-width:0.0942319;stroke-linecap:round;stroke-linejoin:round;stroke-miterlimit:4;stroke-dasharray:none;stroke-opacity:0.02"
       id="rect1638"
       width="11.138549"
       height="11.13795"
       x="0.7807253"
       y="0.78102475"
       rx="3.1143858"
       ry="3.114213" />
    <rect
       ry="3.114213"
       rx="3.1143858"
       y="0.78102475"
       x="0.7807253"
       height="11.13795"
       width="11.138549"
       id="rect1640"
       style="opacity:0.295;fill:none;fill-opacity:1;stroke:#000000;stroke-width:0.141348;stroke-linecap:round;stroke-linejoin:round;stroke-miterlimit:4;stroke-dasharray:none;stroke-opacity:0.02" />
    <rect
       style="opacity:0.295;fill:none;fill-opacity:1;stroke:#000000;stroke-width:0.188464;stroke-linecap:round;stroke-linejoin:round;stroke-miterlimit:4;stroke-dasharray:none;stroke-opacity:0.02"
       id="rect1642"
       width="11.138549"
       height="11.13795"
       x="0.7807253"
       y="0.78102475"
       rx="3.1143858"
       ry="3.114213" />
    <rect
       ry="3.114213"
       rx="3.1143858"
       y="0.78102475"
       x="0.7807253"
       height="11.13795"
       width="11.138549"
       id="rect1644"
       style="opacity:0.295;fill:none;fill-opacity:1;stroke:#000000;stroke-width:0.23558;stroke-linecap:round;stroke-linejoin:round;stroke-miterlimit:4;stroke-dasharray:none;stroke-opacity:0.02" />
    <rect
       style="opacity:0.295;fill:none;fill-opacity:1;stroke:#000000;stroke-width:0.282696;stroke-linecap:round;stroke-linejoin:round;stroke-miterlimit:4;stroke-dasharray:none;stroke-opacity:0.02"
       id="rect1646"
       width="11.138549"
       height="11.13795"
       x="0.7807253"
       y="0.78102475"
       rx="3.1143858"
       ry="3.114213" />
    <rect
       ry="3.114213"
       rx="3.1143858"
       y="0.78102475"
       x="0.7807253"
       height="11.13795"
       width="11.138549"
       id="rect1648"
       style="opacity:0.295;fill:none;fill-opacity:1;stroke:#000000;stroke-width:0.329813;stroke-linecap:round;stroke-linejoin:round;stroke-miterlimit:4;stroke-dasharray:none;stroke-opacity:0.02" />
    <rect
       style="opacity:0.295;fill:none;fill-opacity:1;stroke:#000000;stroke-width:0.376927;stroke-linecap:round;stroke-linejoin:round;stroke-miterlimit:4;stroke-dasharray:none;stroke-opacity:0.02"
       id="rect1650"
       width="11.138549"
       height="11.13795"
       x="0.7807253"
       y="0.78102475"
       rx="3.1143858"
       ry="3.114213" />
    <rect
       ry="3.114213"
       rx="3.1143858"
       y="0.78102475"
       x="0.7807253"
       height="11.13795"
       width="11.138549"
       id="rect1652"
       style="opacity:0.295;fill:none;fill-opacity:1;stroke:#000000;stroke-width:0.471161;stroke-linecap:round;stroke-linejoin:round;stroke-miterlimit:4;stroke-dasharray:none;stroke-opacity:0.02" />
    <rect
       style="opacity:0.295;fill:none;fill-opacity:1;stroke:#000000;stroke-width:0.565391;stroke-linecap:round;stroke-linejoin:round;stroke-miterlimit:4;stroke-dasharray:none;stroke-opacity:0.02"
       id="rect1654"
       width="11.138549"
       height="11.13795"
       x="0.7807253"
       y="0.78102475"
       rx="3.1143858"
       ry="3.114213" />
    <rect
       ry="3.114213"
       rx="3.1143858"
       y="0.78102475"
       x="0.7807253"
       height="11.13795"
       width="11.138549"
       id="rect1656"
       style="opacity:0.295;fill:none;fill-opacity:1;stroke:#000000;stroke-width:0.659623;stroke-linecap:round;stroke-linejoin:round;stroke-miterlimit:4;stroke-dasharray:none;stroke-opacity:0.02" />
    <rect
       style="opacity:0.295;fill:none;fill-opacity:1;stroke:#000000;stroke-width:0.753857;stroke-linecap:round;stroke-linejoin:round;stroke-miterlimit:4;stroke-dasharray:none;stroke-opacity:0.02"
       id="rect1658"
       width="11.138549"
       height="11.13795"
       x="0.7807253"
       y="0.78102475"
       rx="3.1143858"
       ry="3.114213" />
    <rect
       ry="3.114213"
       rx="3.1143858"
       y="0.78102475"
       x="0.7807253"
       height="11.13795"
       width="11.138549"
       id="rect1660"
       style="opacity:0.295;fill:none;fill-opacity:1;stroke:#000000;stroke-width:0.848089;stroke-linecap:round;stroke-linejoin:round;stroke-miterlimit:4;stroke-dasharray:none;stroke-opacity:0.02" />
    <rect
       style="opacity:0.295;fill:none;fill-opacity:1;stroke:#000000;stroke-width:0.942319;stroke-linecap:round;stroke-linejoin:round;stroke-miterlimit:4;stroke-dasharray:none;stroke-opacity:0.02"
       id="rect1662"
       width="11.138549"
       height="11.13795"
       x="0.7807253"
       y="0.78102475"
       rx="3.1143858"
       ry="3.114213" />
    <rect
       ry="3.114213"
       rx="3.1143858"
       y="0.78102475"
       x="0.7807253"
       height="11.13795"
       width="11.138549"
       id="rect1664"
       style="opacity:0.295;fill:none;fill-opacity:1;stroke:#000000;stroke-width:1.03655;stroke-linecap:round;stroke-linejoin:round;stroke-miterlimit:4;stroke-dasharray:none;stroke-opacity:0.02" />
    <rect
       style="opacity:0.295;fill:none;fill-opacity:1;stroke:#000000;stroke-width:1.225;stroke-linecap:round;stroke-linejoin:round;stroke-miterlimit:4;stroke-dasharray:none;stroke-opacity:0.02"
       id="rect1666"
       width="11.138549"
       height="11.13795"
       x="0.7807253"
       y="0.78102475"
       rx="3.1143858"
       ry="3.114213" />
    <rect
       ry="3.114213"
       rx="3.1143858"
       y="0.78102475"
       x="0.7807253"
       height="11.13795"
       width="11.138549"
       id="rect1668"
       style="opacity:0.295;fill:none;fill-opacity:1;stroke:#000000;stroke-width:1.41348;stroke-linecap:round;stroke-linejoin:round;stroke-miterlimit:4;stroke-dasharray:none;stroke-opacity:0.02" />
    <rect
       style="opacity:0.295;fill:none;fill-opacity:1;stroke:#000000;stroke-width:1.60194;stroke-linecap:round;stroke-linejoin:round;stroke-miterlimit:4;stroke-dasharray:none;stroke-opacity:0.02"
       id="rect1670"
       width="11.138549"
       height="11.13795"
       x="0.7807253"
       y="0.78102475"
       rx="3.1143858"
       ry="3.114213" />
    <rect
       ry="3.114213"
       rx="3.1143858"
       y="0.78102475"
       x="0.7807253"
       height="11.13795"
       width="11.138549"
       id="rect1672"
       style="opacity:0.295;fill:none;fill-opacity:1;stroke:#000000;stroke-width:1.79042;stroke-linecap:round;stroke-linejoin:round;stroke-miterlimit:4;stroke-dasharray:none;stroke-opacity:0.02" />
    <rect
       style="opacity:0.295;fill:none;fill-opacity:1;stroke:#000000;stroke-width:1.97887;stroke-linecap:round;stroke-linejoin:round;stroke-miterlimit:4;stroke-dasharray:none;stroke-opacity:0.02"
       id="rect1674"
       width="11.138549"
       height="11.13795"
       x="0.7807253"
       y="0.78102475"
       rx="3.1143858"
       ry="3.114213" />
    <rect
       ry="3.114213"
       rx="3.1143858"
       y="0.78102475"
       x="0.7807253"
       height="11.13795"
       width="11.138549"
       id="rect1676"
       style="opacity:0.295;fill:none;fill-opacity:1;stroke:#000000;stroke-width:2.16734;stroke-linecap:round;stroke-linejoin:round;stroke-miterlimit:4;stroke-dasharray:none;stroke-opacity:0.02" />
    <rect
       style="opacity:0.295;fill:none;fill-opacity:1;stroke:#000000;stroke-width:2.3558;stroke-linecap:round;stroke-linejoin:round;stroke-miterlimit:4;stroke-dasharray:none;stroke-opacity:0.02"
       id="rect1678"
       width="11.138549"
       height="11.13795"
       x="0.7807253"
       y="0.78102475"
       rx="3.1143858"
       ry="3.114213" />
    <rect
       ry="3.114213"
       rx="3.1143861"
       y="0.78102678"
       x="0.78072685"
       height="11.13795"
       width="11.138549"
       id="rect849"
       style="fill:#535d6c;fill-opacity:1;stroke-width:1.29783;stroke-linecap:round;stroke-linejoin:round" />
    <g
       id="g2"
       transform="matrix(0.23151041,0,0,0.22882882,-0.59531102,-14.860287)"
       style="stroke-width:1.14952">
      <path
         style="opacity:0.1;stroke-width:1.14952"
         d="M 30,87.5 A 6.5,6.5 0 0 0 23.5,94 6.5,6.5 0 0 0 30,100.5 6.5,6.5 0 0 0 36.5,94 6.5,6.5 0 0 0 30,87.5 Z m 0,1.5 a 5,5 0 0 1 5,5 5,5 0 0 1 -5,5 5,5 0 0 1 -5,-5 5,5 0 0 1 5,-5 z m 0,-6.5 A 11.5,11.5 0 0 0 18.5,94 11.5,11.5 0 0 0 30,105.5 11.5,11.5 0 0 0 41.5,94 11.5,11.5 0 0 0 30,82.5 Z m 0.023,2.542 a 8.9817,8.9817 0 0 1 8.982,8.981 8.9817,8.9817 0 0 1 -8.982,8.982 8.9817,8.9817 0 0 1 -8.981,-8.982 8.9817,8.9817 0 0 1 8.981,-8.981 z M 30,76 A 18,18 0 0 0 12,94 18,18 0 0 0 30,112 18,18 0 0 0 48,94 18,18 0 0 0 30,76 Z m 0,4 A 14,14 0 0 1 44,94 14,14 0 0 1 30,108 14,14 0 0 1 16,94 14,14 0 0 1 30,80 Z"
         id="path3" />
      <path
         style="fill:#f7866e;fill-opacity:1;stroke-width:1.14952"
         d="M 30,86.5 A 6.5,6.5 0 0 0 23.5,93 6.5,6.5 0 0 0 30,99.5 6.5,6.5 0 0 0 36.5,93 6.5,6.5 0 0 0 30,86.5 Z m 0,1.5 a 5,5 0 0 1 5,5 5,5 0 0 1 -5,5 5,5 0 0 1 -5,-5 5,5 0 0 1 5,-5 z m 0,-6.5 A 11.5,11.5 0 0 0 18.5,93 11.5,11.5 0 0 0 30,104.5 11.5,11.5 0 0 0 41.5,93 11.5,11.5 0 0 0 30,81.5 Z m 0.023,2.542 a 8.9817,8.9817 0 0 1 8.982,8.981 8.9817,8.9817 0 0 1 -8.982,8.982 8.9817,8.9817 0 0 1 -8.981,-8.982 8.9817,8.9817 0 0 1 8.981,-8.981 z M 30,75 A 18,18 0 0 0 12,93 18,18 0 0 0 30,111 18,18 0 0 0 48,93 18,18 0 0 0 30,75 Z m 0,4 A 14,14 0 0 1 44,93 14,14 0 0 1 30,107 14,14 0 0 1 16,93 14,14 0 0 1 30,79 Z"
         id="path4" />
      <path
         style="opacity:0.2;fill:#ffffff;stroke-width:1.14952"
         d="M 30,75 A 18,18 0 0 0 12,93 18,18 0 0 0 12.0352,93.5 18,18 0 0 1 30,76 18,18 0 0 1 47.982,93.254 18,18 0 0 0 48,93 18,18 0 0 0 30,75 Z m 0,6.5 A 11.5,11.5 0 0 0 18.5,93 11.5,11.5 0 0 0 18.543,93.5 11.5,11.5 0 0 1 30,82.5 11.5,11.5 0 0 1 41.477,93.275 11.5,11.5 0 0 0 41.5,93 11.5,11.5 0 0 0 30,81.5 Z m 0,5 A 6.5,6.5 0 0 0 23.5,93 6.5,6.5 0 0 0 23.557,93.5 6.5,6.5 0 0 1 30,87.5 6.5,6.5 0 0 1 36.463,93.334 6.5,6.5 0 0 0 36.5,93 6.5,6.5 0 0 0 30,86.5 Z m 13.98,6.758 A 14,14 0 0 1 30,107 14,14 0 0 1 16.039,93.5 14,14 0 0 0 16,94 14,14 0 0 0 30,108 14,14 0 0 0 44,94 14,14 0 0 0 43.98,93.258 Z m -9.027,0.099 A 5,5 0 0 1 30,98 5,5 0 0 1 25.066,93.5 5,5 0 0 0 25,94 a 5,5 0 0 0 5,5 5,5 0 0 0 5,-5 5,5 0 0 0 -0.047,-0.643 z m -13.861,0.166 a 8.9817,8.9817 0 0 0 -0.049,0.5 8.9817,8.9817 0 0 0 8.98,8.983 8.9817,8.9817 0 0 0 8.983,-8.983 8.9817,8.9817 0 0 0 -0.029,-0.302 8.9817,8.9817 0 0 1 -8.954,8.285 8.9817,8.9817 0 0 1 -8.931,-8.483 z"
         id="path5" />
    </g>
  </g>
</svg>
