<?xml version="1.0" encoding="UTF-8" standalone="no"?>
<svg
   width="48"
   height="48"
   version="1.1"
   id="svg4"
   sodipodi:docname="auryo.svg"
   inkscape:version="1.3.2 (091e20ef0f, 2023-11-25)"
   xmlns:inkscape="http://www.inkscape.org/namespaces/inkscape"
   xmlns:sodipodi="http://sodipodi.sourceforge.net/DTD/sodipodi-0.dtd"
   xmlns="http://www.w3.org/2000/svg"
   xmlns:svg="http://www.w3.org/2000/svg">
  <defs
     id="defs4" />
  <sodipodi:namedview
     id="namedview4"
     pagecolor="#ffffff"
     bordercolor="#999999"
     borderopacity="1"
     inkscape:showpageshadow="2"
     inkscape:pageopacity="0"
     inkscape:pagecheckerboard="0"
     inkscape:deskcolor="#d1d1d1"
     inkscape:zoom="5.953125"
     inkscape:cx="29.900262"
     inkscape:cy="35.779528"
     inkscape:window-width="1920"
     inkscape:window-height="994"
     inkscape:window-x="0"
     inkscape:window-y="0"
     inkscape:window-maximized="1"
     inkscape:current-layer="svg4" />
  <ellipse
     style="opacity:0.2;stroke-width:0.743392"
     cx="23.999994"
     cy="24.368422"
     id="circle1"
     rx="20.999994"
     ry="20.631578" />
  <ellipse
     cx="23.999994"
     cy="23.631578"
     id="circle2"
     rx="20.999994"
     ry="20.631578"
     style="fill:#53536c" />
  <path
     style="opacity:0.2;stroke-width:0.743392"
     d="m 24,11.842105 a 9.7500001,9.5789474 0 0 0 -9.749998,9.578948 v 3.105674 a 4.1249998,4.0526316 0 0 0 -3.000001,3.894326 4.1249998,4.0526316 0 0 0 4.124998,4.052631 4.1249998,4.0526316 0 0 0 1.875004,-0.447574 v 0.447574 h 2.249999 v -4.052631 -4.052632 h -2.249999 v 0.443256 A 4.1249998,4.0526316 0 0 0 16.500001,24.523849 V 21.421053 A 7.4999997,7.3684211 0 0 1 24,14.052632 a 7.4999997,7.3684211 0 0 1 7.499999,7.368421 v 3.105674 a 4.1249998,4.0526316 0 0 0 -3.000001,3.894326 4.1249998,4.0526316 0 0 0 4.125003,4.052631 4.1249998,4.0526316 0 0 0 4.124998,-4.052631 4.1249998,4.0526316 0 0 0 -3.000001,-3.897204 V 21.421053 A 9.7500001,9.5789474 0 0 0 24,11.842105 Z m -8.625001,14.736842 a 1.8750001,1.8421053 0 0 1 1.875004,1.842106 1.8750001,1.8421053 0 0 1 -1.875004,1.842105 1.8750001,1.8421053 0 0 1 -1.875,-1.842105 1.8750001,1.8421053 0 0 1 1.875,-1.842106 z m 17.250002,0 a 1.8750001,1.8421053 0 0 1 1.874998,1.842106 1.8750001,1.8421053 0 0 1 -1.874998,1.842105 1.8750001,1.8421053 0 0 1 -1.875004,-1.842105 1.8750001,1.8421053 0 0 1 1.875004,-1.842106 z"
     id="path2" />
  <path
     style="fill:#2993e4;stroke-width:0.743392"
     d="m 24,11.105263 a 9.7500001,9.5789474 0 0 0 -9.749998,9.578948 v 3.105674 a 4.1249998,4.0526316 0 0 0 -3.000001,3.894326 4.1249998,4.0526316 0 0 0 4.124998,4.052631 4.1249998,4.0526316 0 0 0 1.875004,-0.447574 v 0.447574 h 2.249999 v -4.052631 -4.052632 h -2.249999 v 0.443256 A 4.1249998,4.0526316 0 0 0 16.500001,23.787007 V 20.684211 A 7.4999997,7.3684211 0 0 1 24,13.315789 a 7.4999997,7.3684211 0 0 1 7.499999,7.368422 v 3.105674 a 4.1249998,4.0526316 0 0 0 -3.000001,3.894326 4.1249998,4.0526316 0 0 0 4.125003,4.052631 4.1249998,4.0526316 0 0 0 4.124998,-4.052631 4.1249998,4.0526316 0 0 0 -3.000001,-3.897204 V 20.684211 A 9.7500001,9.5789474 0 0 0 24,11.105263 Z m -8.625001,14.736842 a 1.8750001,1.8421053 0 0 1 1.875004,1.842106 1.8750001,1.8421053 0 0 1 -1.875004,1.842105 1.8750001,1.8421053 0 0 1 -1.875,-1.842105 1.8750001,1.8421053 0 0 1 1.875,-1.842106 z m 17.250002,0 a 1.8750001,1.8421053 0 0 1 1.874998,1.842106 1.8750001,1.8421053 0 0 1 -1.874998,1.842105 1.8750001,1.8421053 0 0 1 -1.875004,-1.842105 1.8750001,1.8421053 0 0 1 1.875004,-1.842106 z"
     id="path3" />
  <path
     style="opacity:0.1;fill:#ffffff;stroke-width:0.743392"
     d="M 24,3.0000002 A 21,20.631579 0 0 0 3,23.631579 21,20.631579 0 0 0 3.0161135,24.063323 21,20.631579 0 0 1 24,3.7368423 21,20.631579 0 0 1 44.98389,23.936677 21,20.631579 0 0 0 45,23.631579 21,20.631579 0 0 0 24,3.0000002 Z"
     id="path4" />
</svg>
