<?xml version="1.0" encoding="UTF-8" standalone="no"?>
<svg
   version="1.1"
   id="svg2"
   height="48"
   width="48"
   sodipodi:docname="babe.svg"
   inkscape:version="1.2.1 (9c6d41e410, 2022-07-14)"
   xmlns:inkscape="http://www.inkscape.org/namespaces/inkscape"
   xmlns:sodipodi="http://sodipodi.sourceforge.net/DTD/sodipodi-0.dtd"
   xmlns:xlink="http://www.w3.org/1999/xlink"
   xmlns="http://www.w3.org/2000/svg"
   xmlns:svg="http://www.w3.org/2000/svg"
   xmlns:rdf="http://www.w3.org/1999/02/22-rdf-syntax-ns#"
   xmlns:cc="http://creativecommons.org/ns#"
   xmlns:dc="http://purl.org/dc/elements/1.1/">
  <sodipodi:namedview
     id="namedview17"
     pagecolor="#ffffff"
     bordercolor="#666666"
     borderopacity="1.0"
     inkscape:showpageshadow="2"
     inkscape:pageopacity="0.0"
     inkscape:pagecheckerboard="0"
     inkscape:deskcolor="#d1d1d1"
     showgrid="false"
     inkscape:zoom="4.9166667"
     inkscape:cx="24"
     inkscape:cy="24.101695"
     inkscape:window-width="1920"
     inkscape:window-height="1000"
     inkscape:window-x="0"
     inkscape:window-y="0"
     inkscape:window-maximized="1"
     inkscape:current-layer="svg2" />
  <metadata
     id="metadata28">
    <rdf:RDF>
      <cc:Work
         rdf:about="">
        <dc:format>image/svg+xml</dc:format>
        <dc:type
           rdf:resource="http://purl.org/dc/dcmitype/StillImage" />
      </cc:Work>
    </rdf:RDF>
  </metadata>
  <defs
     id="defs4">
    <linearGradient
       id="linearGradient4235">
      <stop
         offset="0"
         style="stop-color:#f85b79;stop-opacity:1;"
         id="stop4237" />
      <stop
         offset="1"
         style="stop-color:#f85b79;stop-opacity:1;"
         id="stop4243" />
    </linearGradient>
    <linearGradient
       gradientUnits="userSpaceOnUse"
       y2="44"
       x2="18"
       y1="4"
       x1="18"
       id="linearGradient4233"
       xlink:href="#linearGradient4235"
       gradientTransform="matrix(1.0500001,0,0,1.0500003,-1.2000008,-1.2000006)" />
    <linearGradient
       gradientUnits="userSpaceOnUse"
       y2="44"
       x2="-16"
       y1="4"
       x1="-56"
       id="linearGradient4702"
       xlink:href="#m"
       gradientTransform="translate(60,0)" />
    <linearGradient
       gradientUnits="userSpaceOnUse"
       x2="35"
       y2="32"
       x1="10"
       y1="7"
       id="m"
       gradientTransform="translate(85,55)">
      <stop
         id="stop27"
         stop-color="#383e51" />
      <stop
         id="stop29"
         stop-opacity="0"
         stop-color="#655c6f"
         offset="1" />
    </linearGradient>
  </defs>
  <rect
     width="41.999992"
     height="42"
     rx="20.999996"
     ry="21"
     x="3"
     y="3"
     id="rect5505-21"
     style="color:#000000;display:inline;overflow:visible;visibility:visible;fill:url(#linearGradient4233);fill-opacity:1;fill-rule:nonzero;stroke:none;stroke-width:1.12001;marker:none;enable-background:accumulate" />
  <path
     id="path4694"
     d="m 8,29 15,15 21,0 0,-24 -4,-4 -5,0 -2,-2 -5,3 2,2 -2,0 -1.5,-1 -2.5,0 -4,-4 -5,3 2,2 -1,0 -3,-3 0,3 -5,0 2,2 -2,3 2,2 z"
     style="fill:url(#linearGradient4702);fill-opacity:1;fill-rule:evenodd;stroke:none;stroke-width:1px;stroke-linecap:butt;stroke-linejoin:miter;stroke-opacity:1;opacity:0.2" />
  <path
     id="rect3834-3-39-6"
     d="M 15 14 L 15 17 L 20 17 L 20 14 L 15 14 z M 28 14 L 28 17 L 33 17 L 33 14 L 28 14 z M 8 16 L 8 19 L 13 19 L 13 16 L 8 16 z M 35 16 L 35 19 L 40 19 L 40 16 L 35 16 z M 21.5 18 L 21.5 21 L 26.5 21 L 26.5 18 L 21.5 18 z M 15 19 L 15 22 L 20 22 L 20 19 L 15 19 z M 28 19 L 28 22 L 33 22 L 33 19 L 28 19 z M 8 21 L 8 24 L 13 24 L 13 21 L 8 21 z M 35 21 L 35 24 L 40 24 L 40 21 L 35 21 z M 21.5 23 L 21.5 26 L 26.5 26 L 26.5 23 L 21.5 23 z M 15 24 L 15 27 L 20 27 L 20 24 L 15 24 z M 28 24 L 28 27 L 33 27 L 33 24 L 28 24 z M 8 26 L 8 29 L 13 29 L 13 26 L 8 26 z M 35 26 L 35 29 L 40 29 L 40 26 L 35 26 z M 21.5 28 L 21.5 31 L 26.5 31 L 26.5 28 L 21.5 28 z M 15 29 L 15 32 L 20 32 L 20 29 L 15 29 z M 28 29 L 28 32 L 33 32 L 33 29 L 28 29 z M 21.5 33 L 21.5 36 L 26.5 36 L 26.5 33 L 21.5 33 z "
     style="color:#000000;display:inline;overflow:visible;visibility:visible;fill:#fffbfb;fill-opacity:1;fill-rule:nonzero;stroke:none;stroke-width:1.13690269;marker:none;enable-background:accumulate" />
</svg>
