<?xml version="1.0" encoding="UTF-8" standalone="no"?>
<svg
   width="48"
   height="48"
   version="1.1"
   id="svg5"
   sodipodi:docname="blackmagic-Fusion8.svg"
   inkscape:version="1.3.2 (091e20ef0f, 2023-11-25)"
   xmlns:inkscape="http://www.inkscape.org/namespaces/inkscape"
   xmlns:sodipodi="http://sodipodi.sourceforge.net/DTD/sodipodi-0.dtd"
   xmlns="http://www.w3.org/2000/svg"
   xmlns:svg="http://www.w3.org/2000/svg">
  <defs
     id="defs5" />
  <sodipodi:namedview
     id="namedview5"
     pagecolor="#ffffff"
     bordercolor="#999999"
     borderopacity="1"
     inkscape:showpageshadow="2"
     inkscape:pageopacity="0"
     inkscape:pagecheckerboard="0"
     inkscape:deskcolor="#d1d1d1"
     inkscape:zoom="5.953125"
     inkscape:cx="16.965879"
     inkscape:cy="30.572178"
     inkscape:window-width="1920"
     inkscape:window-height="994"
     inkscape:window-x="0"
     inkscape:window-y="0"
     inkscape:window-maximized="1"
     inkscape:current-layer="svg5" />
  <path
     style="opacity:0.2;stroke-width:0.743374"
     d="M 24.802684,3.7525235 A 20.998709,20.630616 0 0 0 18.565763,4.4404026 20.998709,20.630616 0 0 0 3.7160901,29.707728 20.998709,20.630616 0 0 0 29.434236,44.297096 20.998709,20.630616 0 0 0 44.28391,19.029771 20.998709,20.630616 0 0 0 24.802684,3.7525235 Z"
     id="path1" />
  <path
     d="M 24.802709,3.0150596 A 20.999354,20.63125 0 0 0 18.565596,3.7029599 20.999354,20.63125 0 0 0 3.7154668,28.971061 20.999354,20.63125 0 0 0 29.434403,43.560878 20.999354,20.63125 0 0 0 44.284533,18.292777 20.999354,20.63125 0 0 0 24.802709,3.0150596 Z"
     id="path2"
     style="fill:#00aad4;fill-opacity:1" />
  <path
     style="opacity:0.2;stroke-width:0.743374"
     d="m 30.105281,11.844398 c -1.015327,0.02749 -2.023895,0.350061 -2.846104,0.939746 -0.953464,0.683821 -1.629189,1.668083 -2.372974,2.570272 -0.371892,0.451095 -0.766883,0.886778 -1.223107,1.254914 -0.456222,0.368135 -0.966352,0.743508 -1.546828,0.81886 -1.171137,0.152028 -2.39019,-0.433774 -3.4496,-0.797273 -1.101405,-0.414448 -2.18647,-0.934405 -3.358784,-1.056316 -1.617491,-0.168205 -3.301288,0.494089 -4.357777,1.713995 -1.0564859,1.219906 -1.456568,3.331679 -1.035612,4.881501 0.420958,1.54982 1.651227,2.862408 3.184473,3.397766 1.533245,0.53536 3.326412,0.277183 4.641947,-0.666313 0.953465,-0.68382 1.62919,-1.668083 2.372973,-2.570272 0.795291,-0.972202 1.630474,-1.929569 2.769935,-2.368794 0.544572,-0.209915 1.173143,-0.148471 1.754829,-0.05469 0.581689,0.09379 1.14407,0.27776 1.694772,0.484985 1.101405,0.414447 2.186469,0.932965 3.358784,1.054876 1.61749,0.168206 3.301289,-0.492649 4.357776,-1.712555 1.056487,-1.219906 1.456569,-2.669683 1.035613,-4.219505 -0.420957,-1.549821 -1.651226,-2.862409 -3.184473,-3.397767 -0.574967,-0.20076 -1.186646,-0.289928 -1.795843,-0.273432 z m 0.610821,11.052455 c -0.746564,0.02026 -1.487168,0.257713 -2.091732,0.692218 -0.701077,0.503868 -1.199139,1.229113 -1.74604,1.893884 -0.273451,0.332386 -0.563928,0.654097 -0.899387,0.925356 -0.335458,0.271258 -0.718065,0.492104 -1.136684,0.602992 -0.418618,0.110887 -0.861311,0.107963 -1.289023,0.03885 -0.427711,-0.0691 -0.84308,-0.20277 -1.248009,-0.355463 -0.809855,-0.305382 -1.606189,-0.688735 -2.468185,-0.778565 -1.189331,-0.12394 -2.426686,0.363231 -3.203515,1.26211 -0.776828,0.898878 -1.071222,2.183837 -0.761696,3.325811 0.309528,1.141975 1.213363,2.109596 2.340749,2.504071 1.127387,0.394476 2.445676,0.204468 3.412981,-0.49074 0.701077,-0.503868 1.199139,-1.229112 1.74604,-1.893885 0.27345,-0.332385 0.563929,-0.654097 0.899387,-0.925355 0.335457,-0.271258 0.718065,-0.492104 1.136683,-0.602992 0.418618,-0.110887 0.861312,-0.107963 1.289023,-0.03885 0.427712,0.06911 0.843081,0.202771 1.248009,0.355463 0.809857,0.305383 1.606189,0.688736 2.468186,0.778565 1.189331,0.12394 2.426686,-0.363231 3.203515,-1.26211 0.776829,-0.898878 1.071222,-2.183838 0.761695,-3.325811 -0.309528,-1.141975 -1.21336,-2.109597 -2.340748,-2.504071 -0.42277,-0.147929 -0.87331,-0.213632 -1.321249,-0.201478 z m -8.012449,11.055334 c -0.171486,0.01042 -0.342211,0.03831 -0.508285,0.08203 -0.664296,0.174876 -1.251301,0.616515 -1.595166,1.201666 -0.343864,0.585152 -0.440197,1.305994 -0.262199,1.958645 0.177996,0.65265 0.627517,1.229365 1.223107,1.567203 0.595591,0.337837 1.329296,0.43248 1.993591,0.257603 0.664296,-0.174876 1.251301,-0.616516 1.595166,-1.201667 0.343865,-0.58515 0.440196,-1.305993 0.262198,-1.958644 -0.177996,-0.652652 -0.627516,-1.229366 -1.223106,-1.567204 -0.446694,-0.253377 -0.970847,-0.37089 -1.485306,-0.339632 z"
     id="path3" />
  <path
     style="fill:#ffffff;stroke-width:0.743374"
     d="m 30.105281,11.107241 c -1.015327,0.02749 -2.023895,0.350062 -2.846104,0.939747 -0.953464,0.683821 -1.629189,1.668083 -2.372974,2.570272 -0.371892,0.451095 -0.766883,0.886778 -1.223107,1.254914 -0.456222,0.368135 -0.966352,0.743508 -1.546828,0.81886 -1.171137,0.152028 -2.39019,-0.433774 -3.4496,-0.797273 -1.101405,-0.414448 -2.18647,-0.934405 -3.358784,-1.056316 -1.617491,-0.168206 -3.301288,0.494089 -4.357777,1.713994 -1.0564859,1.219906 -1.456568,3.33168 -1.035612,4.881502 0.420958,1.54982 1.651227,2.862408 3.184473,3.397766 1.533245,0.53536 3.326412,0.277183 4.641947,-0.666313 0.953465,-0.68382 1.62919,-1.668083 2.372973,-2.570272 0.795291,-0.972202 1.630474,-1.929569 2.769935,-2.368794 0.544572,-0.209915 1.173143,-0.148471 1.754829,-0.05469 0.581689,0.09379 1.14407,0.27776 1.694772,0.484985 1.101405,0.414447 2.186469,0.932965 3.358784,1.054876 1.61749,0.168206 3.301289,-0.492649 4.357776,-1.712555 1.056487,-1.219906 1.456569,-2.669683 1.035613,-4.219505 -0.420957,-1.549821 -1.651226,-2.862409 -3.184473,-3.397767 -0.574967,-0.20076 -1.186646,-0.289928 -1.795843,-0.273433 z m 0.610821,11.052456 c -0.746564,0.02026 -1.487168,0.257713 -2.091732,0.692218 -0.701077,0.503868 -1.199139,1.229113 -1.74604,1.893884 -0.273451,0.332386 -0.563928,0.654097 -0.899387,0.925355 -0.335458,0.271259 -0.718065,0.492105 -1.136684,0.602993 -0.418618,0.110887 -0.861311,0.107963 -1.289023,0.03885 -0.427711,-0.0691 -0.84308,-0.20277 -1.248009,-0.355463 -0.809855,-0.305382 -1.606189,-0.688735 -2.468185,-0.778565 -1.189331,-0.12394 -2.426686,0.363231 -3.203515,1.26211 -0.776828,0.898878 -1.071222,2.183837 -0.761696,3.32581 0.309528,1.141976 1.213363,2.109597 2.340749,2.504072 1.127387,0.394476 2.445676,0.204468 3.412981,-0.49074 0.701077,-0.503868 1.199139,-1.229112 1.74604,-1.893885 0.27345,-0.332385 0.563929,-0.654097 0.899387,-0.925355 0.335457,-0.271258 0.718065,-0.492104 1.136683,-0.602992 0.418618,-0.110887 0.861312,-0.107963 1.289023,-0.03885 0.427712,0.06911 0.843081,0.202771 1.248009,0.355463 0.809857,0.305383 1.606189,0.688736 2.468186,0.778565 1.189331,0.12394 2.426686,-0.363231 3.203515,-1.26211 0.776829,-0.898878 1.071222,-2.183838 0.761695,-3.325811 -0.309528,-1.141975 -1.21336,-2.109597 -2.340748,-2.504071 -0.42277,-0.147929 -0.87331,-0.213632 -1.321249,-0.201478 z m -8.012449,11.055334 c -0.171486,0.01042 -0.342211,0.03831 -0.508285,0.08203 -0.664296,0.174876 -1.251301,0.616515 -1.595166,1.201666 -0.343864,0.585152 -0.440197,1.305994 -0.262199,1.958645 0.177996,0.65265 0.627517,1.229365 1.223107,1.567203 0.595591,0.337837 1.329296,0.43248 1.993591,0.257603 0.664296,-0.174876 1.251301,-0.616516 1.595166,-1.201667 0.343865,-0.58515 0.440196,-1.305993 0.262198,-1.958644 -0.177996,-0.652652 -0.627516,-1.229366 -1.223106,-1.567204 -0.446694,-0.253377 -0.970847,-0.37089 -1.485306,-0.339632 z"
     id="path4" />
  <path
     style="opacity:0.1;fill:#ffffff;stroke-width:0.743374"
     d="M 24,3.0006685 A 20.999355,20.631251 0 0 0 3.000645,23.63192 20.999355,20.631251 0 0 0 3.0167693,24.063702 20.999355,20.631251 0 0 1 24,3.7374988 20.999355,20.631251 0 0 1 44.983605,23.936967 20.999355,20.631251 0 0 0 44.999355,23.63192 20.999355,20.631251 0 0 0 24,3.0006685 Z"
     id="path5" />
</svg>
