<?xml version="1.0" encoding="UTF-8" standalone="no"?>
<svg
   width="48"
   height="48"
   version="1.1"
   id="svg8"
   sodipodi:docname="blackmagicraw-speedtest.svg"
   inkscape:version="1.3.2 (091e20ef0f, 2023-11-25)"
   xmlns:inkscape="http://www.inkscape.org/namespaces/inkscape"
   xmlns:sodipodi="http://sodipodi.sourceforge.net/DTD/sodipodi-0.dtd"
   xmlns="http://www.w3.org/2000/svg"
   xmlns:svg="http://www.w3.org/2000/svg">
  <defs
     id="defs8" />
  <sodipodi:namedview
     id="namedview8"
     pagecolor="#ffffff"
     bordercolor="#999999"
     borderopacity="1"
     inkscape:showpageshadow="2"
     inkscape:pageopacity="0"
     inkscape:pagecheckerboard="0"
     inkscape:deskcolor="#d1d1d1"
     inkscape:zoom="5.953125"
     inkscape:cx="22.509186"
     inkscape:cy="24.188976"
     inkscape:window-width="1920"
     inkscape:window-height="994"
     inkscape:window-x="0"
     inkscape:window-y="0"
     inkscape:window-maximized="1"
     inkscape:current-layer="svg8" />
  <ellipse
     style="opacity:0.2;stroke-width:0.730468"
     cx="24.000071"
     cy="24.36207"
     id="circle1"
     rx="20.999998"
     ry="20.63793" />
  <ellipse
     cx="24.000071"
     cy="23.63793"
     id="circle2"
     rx="20.999998"
     ry="20.63793"
     style="fill:#383e61;fill-opacity:1" />
  <path
     style="opacity:0.21115974;fill:#88ffff;stroke-width:0.730468;stroke:#008080;stroke-opacity:1;fill-opacity:1"
     d="m 24.000048,7.1275883 10.500001,3.0956847 5.250002,8.255179 -15.750003,5.159465 z"
     id="path2" />
  <path
     style="opacity:0.2;stroke-width:0.730468"
     d="m 24.025953,6.620776 c -9.984515,0 -18.0785168,7.954458 -18.0785168,17.766825 0.00394,4.710573 1.9119267,9.226132 5.3032418,12.555018 0.723979,0.620614 1.314803,0.129916 2.075253,-0.554409 l 2.591891,-2.5458 c 0.708761,-0.676288 0.21627,-1.861094 -0.774261,-1.862671 -0.29783,-0.0016 -0.58282,0.11619 -0.79009,0.325287 l -2.37459,2.335059 C 9.7224878,32.06981 8.4251305,28.843385 8.1982567,25.448365 h 3.2654203 c 0.620161,0.0093 1.125039,-0.490458 1.115331,-1.103191 -0.0094,-0.599434 -0.508637,-1.077969 -1.115331,-1.069225 H 8.2011347 c 0.2469402,-3.495547 1.6546341,-6.653991 3.8425203,-9.128095 l 2.309816,2.271409 c 0.432349,0.437522 1.149171,0.434954 1.583072,-0.0062 0.425159,-0.430352 0.416785,-1.116054 -0.01878,-1.53172 l -2.311247,-2.270026 c 2.517519,-2.150183 5.731353,-3.5336339 9.288227,-3.7763109 v 3.2063129 c -0.02105,1.461041 2.231659,1.461041 2.21053,0 V 8.8326211 c 3.563549,0.230219 6.791936,1.5978969 9.322776,3.7451499 l -2.345807,2.303958 c -0.435504,0.415665 -0.443887,1.101365 -0.01878,1.531716 0.433888,0.440618 1.150715,0.443193 1.583051,0.0062 l 2.354449,-2.315257 c 2.190006,2.466942 3.600494,5.633313 3.841078,9.171943 h -0.01733 -3.262539 c -0.606707,-0.0092 -1.105872,0.469802 -1.115342,1.069231 -0.0096,0.612737 0.495186,1.112106 1.115342,1.10318 h 3.265421 c -0.05483,0.820731 -0.174208,1.631444 -0.352585,2.425582 l -2.521378,-0.66332 -0.28496,1.049429 2.5257,0.664741 c -0.288048,0.963546 -0.668281,1.895182 -1.138366,2.784815 l -2.29399,-1.301183 -0.552635,0.941942 2.306947,1.308256 c -0.432933,0.693841 -0.921947,1.35791 -1.469365,1.981481 l -2.374556,-2.335076 c -0.207268,-0.2091 -0.492262,-0.326453 -0.790095,-0.325288 -0.990523,0.0022 -1.483016,1.186375 -0.77425,1.862669 l 2.591893,2.545794 c 0.760458,0.68432 1.351267,1.175025 2.075241,0.554417 3.391325,-3.32889 5.299197,-7.844458 5.303249,-12.55502 0,-0.373929 -0.0037,-0.743463 -0.02598,-1.111661 C 41.49012,13.893587 33.589483,6.6314976 24.025953,6.620776 Z"
     id="path3" />
  <path
     style="fill:#008080;stroke-width:0.730468"
     d="m 24.025953,5.8965551 c -9.984515,0 -18.0785168,7.9544479 -18.0785168,17.7668189 0.00394,4.710571 1.9119267,9.22614 5.3032418,12.555035 0.723979,0.620606 1.314803,0.129896 2.075253,-0.554425 l 2.591891,-2.545802 c 0.708761,-0.676288 0.21627,-1.861098 -0.774261,-1.862666 -0.29783,-0.0016 -0.58282,0.116186 -0.79009,0.325282 l -2.37459,2.335076 C 9.7224878,31.345594 8.4251305,28.119161 8.1982567,24.724135 h 3.2654203 c 0.620161,0.0093 1.125039,-0.490447 1.115331,-1.103181 -0.0094,-0.599437 -0.508637,-1.077974 -1.115331,-1.069232 H 8.2011347 C 8.4480749,19.05618 9.8557688,15.897729 12.043655,13.423631 l 2.309816,2.271408 c 0.432349,0.437525 1.149171,0.434959 1.583072,-0.0062 0.425159,-0.430354 0.416786,-1.116057 -0.01878,-1.53172 l -2.311241,-2.2699 c 2.517525,-2.1501619 5.73136,-3.5336142 9.288236,-3.776291 v 3.206378 c -0.02105,1.461037 2.231657,1.461037 2.210527,0 V 8.1085315 c 3.563549,0.2302187 6.791936,1.5978966 9.322777,3.7451475 l -2.345811,2.303953 c -0.4355,0.415675 -0.443883,1.101374 -0.0188,1.531727 0.433888,0.440615 1.150721,0.443168 1.583062,0.0062 l 2.354445,-2.315274 c 2.190002,2.466949 3.60049,5.633325 3.841067,9.17195 h 2.210539 C 41.49012,13.169359 33.589483,5.9072753 24.025953,5.8965551 Z"
     id="path4" />
  <path
     style="opacity:0.2;fill:none;stroke:#000000;stroke-width:2.19144;stroke-linecap:round;stroke-linejoin:round"
     d="m 39.473735,19.293105 -15.45874,5.064"
     id="path5" />
  <path
     style="fill:#008080;stroke:#008080;stroke-width:2.19144;stroke-linecap:round;stroke-linejoin:round;stroke-opacity:1"
     d="m 39.473735,18.568956 -15.45874,5.064008"
     id="path6" />
  <path
     style="fill:#c83771;stroke-width:0.730468"
     d="m 36.562352,22.551722 c -0.606701,-0.0091 -1.105867,0.469796 -1.115345,1.069232 -0.0096,0.612735 0.495184,1.112105 1.115345,1.103181 h 3.26541 c -0.0548,0.82073 -0.174206,1.631439 -0.352586,2.425573 l -2.521381,-0.663322 -0.284959,1.049434 2.525701,0.66474 c -0.288046,0.963554 -0.668276,1.89518 -1.138365,2.784814 l -2.293986,-1.301186 -0.552628,0.941946 2.30695,1.308264 c -0.432931,0.693842 -0.921964,1.357897 -1.469381,1.98148 l -2.37459,-2.335076 c -0.20726,-0.209096 -0.492248,-0.326448 -0.790088,-0.325282 -0.99052,0.0022 -1.483009,1.186375 -0.774252,1.862665 l 2.59189,2.545803 c 0.760462,0.684321 1.351273,1.175027 2.075255,0.554421 3.391315,-3.328895 5.299193,-7.844464 5.303238,-12.555035 0,-0.373919 -0.0037,-0.743454 -0.02599,-1.111652 h -2.227793 z"
     id="path7" />
  <path
     style="opacity:0.1;fill:#ffffff;stroke-width:0.730468"
     d="M 24.000048,3.0000041 A 20.999979,20.637913 0 0 0 3.0000688,23.637917 20.999979,20.637913 0 0 0 3.0158999,24.059401 20.999979,20.637913 0 0 1 24.000048,3.7241418 20.999979,20.637913 0 0 1 44.984215,23.940586 20.999979,20.637913 0 0 0 45.000043,23.637917 20.999979,20.637913 0 0 0 24.000048,3.0000041 Z"
     id="path8" />
</svg>
