<?xml version="1.0" encoding="UTF-8" standalone="no"?>
<svg
   xmlns:dc="http://purl.org/dc/elements/1.1/"
   xmlns:cc="http://creativecommons.org/ns#"
   xmlns:rdf="http://www.w3.org/1999/02/22-rdf-syntax-ns#"
   xmlns:svg="http://www.w3.org/2000/svg"
   xmlns="http://www.w3.org/2000/svg"
   xmlns:xlink="http://www.w3.org/1999/xlink"
   xmlns:sodipodi="http://sodipodi.sourceforge.net/DTD/sodipodi-0.dtd"
   xmlns:inkscape="http://www.inkscape.org/namespaces/inkscape"
   width="48"
   height="48"
   id="svg2"
   version="1.1"
   sodipodi:docname="systemsettings.svg"
   inkscape:version="0.92.5 (2060ec1f9f, 2020-04-08)">
  <metadata
     id="metadata44">
    <rdf:RDF>
      <cc:Work
         rdf:about="">
        <dc:format>image/svg+xml</dc:format>
        <dc:type
           rdf:resource="http://purl.org/dc/dcmitype/StillImage" />
        <dc:title></dc:title>
      </cc:Work>
    </rdf:RDF>
  </metadata>
  <sodipodi:namedview
     pagecolor="#ffffff"
     bordercolor="#666666"
     borderopacity="1"
     objecttolerance="10"
     gridtolerance="10"
     guidetolerance="10"
     inkscape:pageopacity="0"
     inkscape:pageshadow="2"
     inkscape:window-width="1076"
     inkscape:window-height="480"
     id="namedview42"
     showgrid="false"
     inkscape:zoom="4.9166667"
     inkscape:cx="2.6440678"
     inkscape:cy="24"
     inkscape:window-x="0"
     inkscape:window-y="25"
     inkscape:window-maximized="0"
     inkscape:current-layer="svg2" />
  <defs
     id="defs4">
    <linearGradient
       id="linearGradient4298">
      <stop
         offset="0"
         id="stop4300"
         stop-color="#000"
         stop-opacity="1" />
      <stop
         offset="1"
         id="stop4302"
         stop-color="#000"
         stop-opacity="0" />
    </linearGradient>
    <linearGradient
       id="linearGradient4214">
      <stop
         offset="0"
         id="stop4216"
         stop-color="#fff"
         stop-opacity="1" />
      <stop
         offset="1"
         id="stop4218"
         stop-color="#fff"
         stop-opacity="0" />
    </linearGradient>
    <linearGradient
       id="a"
       y1="547.634"
       y2="499.679"
       x2="388.865"
       gradientUnits="userSpaceOnUse"
       gradientTransform="translate(-384.57 -499.8)"
       x1="428.816">
      <stop
         stop-color="#2a2c2f"
         id="stop7" />
      <stop
         offset="1"
         stop-color="#536161"
         id="stop9" />
    </linearGradient>
    <linearGradient
       id="b"
       y1="44"
       y2="12"
       x2="14"
       gradientUnits="userSpaceOnUse"
       x1="36">
      <stop
         stop-color="#bfc9c9"
         id="stop12"
         stop-opacity="1" />
      <stop
         offset="1"
         stop-color="#fbfbfb"
         id="stop14"
         stop-opacity="1" />
    </linearGradient>
    <linearGradient
       id="c"
       y1="529.8"
       x1="418.57"
       y2="539.825"
       x2="419.974"
       gradientUnits="userSpaceOnUse"
       gradientTransform="translate(-384.57 -499.8)">
      <stop
         stop-color="#292c2f"
         id="stop17" />
      <stop
         offset="1"
         stop-opacity="0"
         id="stop19" />
    </linearGradient>
    <linearGradient
       xlink:href="#linearGradient4214"
       id="linearGradient4220"
       x1="1"
       y1="0"
       x2="25"
       y2="27"
       gradientUnits="userSpaceOnUse" />
    <linearGradient
       id="c-6"
       y1="527.014"
       x1="406.501"
       y2="539.825"
       x2="419.974"
       gradientUnits="userSpaceOnUse"
       gradientTransform="translate(-404.99 -523.8)">
      <stop
         stop-color="#292c2f"
         id="stop17-7" />
      <stop
         offset="1"
         stop-opacity="0"
         id="stop19-5" />
    </linearGradient>
    <linearGradient
       xlink:href="#linearGradient4298"
       id="linearGradient4304"
       x1="26.929"
       y1="5.995"
       x2="47.121"
       y2="37.127"
       gradientUnits="userSpaceOnUse" />
    <linearGradient
       xlink:href="#linearGradient4298"
       id="linearGradient890"
       gradientUnits="userSpaceOnUse"
       x1="26.929"
       y1="5.995"
       x2="47.121"
       y2="37.127" />
    <linearGradient
       xlink:href="#linearGradient4214"
       id="linearGradient907"
       gradientUnits="userSpaceOnUse"
       x1="1"
       y1="0"
       x2="25"
       y2="27" />
    <style
       id="current-color-scheme"
       type="text/css" />
    <linearGradient
       inkscape:collect="always"
       xlink:href="#linearGradient4298"
       id="linearGradient881"
       gradientUnits="userSpaceOnUse"
       x1="26.929"
       y1="5.995"
       x2="47.121"
       y2="37.127" />
    <linearGradient
       inkscape:collect="always"
       xlink:href="#linearGradient4214"
       id="linearGradient883"
       gradientUnits="userSpaceOnUse"
       x1="1"
       y1="0"
       x2="25"
       y2="27" />
  </defs>
  <rect
     id="rect23"
     height="40"
     rx="6"
     y="4"
     x="4"
     width="40"
     ry="6"
     style="fill:#2d3033;fill-opacity:1" />
  <path
     style="color:#000000;clip-rule:nonzero;display:inline;overflow:visible;visibility:visible;opacity:0.4;isolation:auto;mix-blend-mode:normal;color-interpolation:sRGB;color-interpolation-filters:linearRGB;solid-color:#000000;solid-opacity:1;fill:url(#linearGradient881);fill-opacity:1;fill-rule:evenodd;stroke:none;stroke-width:1;stroke-linecap:butt;stroke-linejoin:miter;stroke-miterlimit:4;stroke-dasharray:none;stroke-dashoffset:0;stroke-opacity:1;color-rendering:auto;image-rendering:auto;shape-rendering:auto;text-rendering:auto"
     d="m 43.598,40 c 0.224,-0.63 0.4,-1.286 0.4,-1.994 L 43.996,26.875 34.031,16.891 9.281,19.742 18,28.461 9.23,29.688 19.545,40 Z"
     id="path893"
     display="inline"
     overflow="visible"
     visibility="visible"
     stroke-miterlimit="4"
     inkscape:connector-curvature="0" />
  <rect
     style="color:#000000;clip-rule:nonzero;display:inline;overflow:visible;visibility:visible;opacity:0.194;isolation:auto;mix-blend-mode:normal;color-interpolation:sRGB;color-interpolation-filters:linearRGB;solid-color:#000000;solid-opacity:1;fill:#ffffff;fill-opacity:1;fill-rule:evenodd;stroke:none;stroke-width:1;stroke-linecap:butt;stroke-linejoin:miter;stroke-miterlimit:4;stroke-dasharray:none;stroke-dashoffset:0;stroke-opacity:1;marker:none;color-rendering:auto;image-rendering:auto;shape-rendering:auto;text-rendering:auto"
     id="rect4159"
     width="30"
     height="2"
     x="9"
     y="18"
     rx="1"
     ry="0.95599997"
     display="inline"
     overflow="visible"
     visibility="visible"
     stroke-miterlimit="4" />
  <path
     id="path4172"
     d="m 9.961,17.988 c -0.557,0 -1.005,0.448 -1.005,1.006 0,0.557 0.448,1.005 1.005,1.005 h 21.057 v -2.011 z"
     style="color:#000000;clip-rule:nonzero;display:inline;overflow:visible;visibility:visible;opacity:1;isolation:auto;mix-blend-mode:normal;color-interpolation:sRGB;color-interpolation-filters:linearRGB;solid-color:#000000;solid-opacity:1;fill:#3daee9;fill-opacity:1;fill-rule:evenodd;stroke:none;stroke-width:1;stroke-linecap:butt;stroke-linejoin:miter;stroke-miterlimit:4;stroke-dasharray:none;stroke-dashoffset:0;stroke-opacity:1;marker:none;color-rendering:auto;image-rendering:auto;shape-rendering:auto;text-rendering:auto"
     display="inline"
     overflow="visible"
     visibility="visible"
     stroke-miterlimit="4"
     inkscape:connector-curvature="0" />
  <path
     style="color:#000000;clip-rule:nonzero;display:inline;overflow:visible;visibility:visible;opacity:0.3;isolation:auto;mix-blend-mode:normal;color-interpolation:sRGB;color-interpolation-filters:linearRGB;solid-color:#000000;solid-opacity:1;fill:#ffffff;fill-opacity:1;fill-rule:evenodd;stroke:none;stroke-width:1;stroke-linecap:butt;stroke-linejoin:miter;stroke-miterlimit:4;stroke-dasharray:none;stroke-dashoffset:0;stroke-opacity:1;marker:none;color-rendering:auto;image-rendering:auto;shape-rendering:auto;text-rendering:auto"
     d="m 9.96,17.988 c -0.556,0 -1.005,0.449 -1.005,1.006 0,0.095 0.03,0.179 0.055,0.266 a 0.988,0.988 0 0 1 0.95,-0.74 h 21.058 v -0.532 z"
     id="path4242"
     display="inline"
     overflow="visible"
     visibility="visible"
     stroke-miterlimit="4"
     inkscape:connector-curvature="0" />
  <circle
     r="2.9119999"
     cy="18.938999"
     cx="31.972"
     id="circle4174"
     style="color:#000000;clip-rule:nonzero;display:inline;overflow:visible;visibility:visible;opacity:1;isolation:auto;mix-blend-mode:normal;color-interpolation:sRGB;color-interpolation-filters:linearRGB;solid-color:#000000;solid-opacity:1;fill:#fafafa;fill-opacity:1;fill-rule:evenodd;stroke:none;stroke-width:1;stroke-linecap:butt;stroke-linejoin:miter;stroke-miterlimit:4;stroke-dasharray:none;stroke-dashoffset:0;stroke-opacity:1;marker:none;color-rendering:auto;image-rendering:auto;shape-rendering:auto;text-rendering:auto"
     display="inline"
     overflow="visible"
     visibility="visible"
     stroke-miterlimit="4" />
  <rect
     ry="0.82300001"
     rx="1"
     y="28"
     x="9"
     height="2"
     width="30"
     id="rect4225"
     style="color:#000000;clip-rule:nonzero;display:inline;overflow:visible;visibility:visible;opacity:0.194;isolation:auto;mix-blend-mode:normal;color-interpolation:sRGB;color-interpolation-filters:linearRGB;solid-color:#000000;solid-opacity:1;fill:#ffffff;fill-opacity:1;fill-rule:evenodd;stroke:none;stroke-width:1;stroke-linecap:butt;stroke-linejoin:miter;stroke-miterlimit:4;stroke-dasharray:none;stroke-dashoffset:0;stroke-opacity:1;marker:none;color-rendering:auto;image-rendering:auto;shape-rendering:auto;text-rendering:auto"
     display="inline"
     overflow="visible"
     visibility="visible"
     stroke-miterlimit="4" />
  <path
     style="color:#000000;clip-rule:nonzero;display:inline;overflow:visible;visibility:visible;opacity:1;isolation:auto;mix-blend-mode:normal;color-interpolation:sRGB;color-interpolation-filters:linearRGB;solid-color:#000000;solid-opacity:1;fill:#3daee9;fill-opacity:1;fill-rule:evenodd;stroke:none;stroke-width:1;stroke-linecap:butt;stroke-linejoin:miter;stroke-miterlimit:4;stroke-dasharray:none;stroke-dashoffset:0;stroke-opacity:1;marker:none;color-rendering:auto;image-rendering:auto;shape-rendering:auto;text-rendering:auto"
     d="m 9.961,27.988 c -0.557,0 -1.005,0.448 -1.005,1.006 0,0.557 0.448,1.005 1.005,1.005 h 11.057 v -2.011 z"
     id="path4227"
     display="inline"
     overflow="visible"
     visibility="visible"
     stroke-miterlimit="4"
     inkscape:connector-curvature="0" />
  <path
     id="path4247"
     d="m 9.96,27.988 c -0.556,0 -1.005,0.449 -1.005,1.006 0,0.095 0.03,0.179 0.055,0.266 a 0.988,0.988 0 0 1 0.95,-0.74 h 11.058 v -0.532 z"
     style="color:#000000;clip-rule:nonzero;display:inline;overflow:visible;visibility:visible;opacity:0.3;isolation:auto;mix-blend-mode:normal;color-interpolation:sRGB;color-interpolation-filters:linearRGB;solid-color:#000000;solid-opacity:1;fill:#ffffff;fill-opacity:1;fill-rule:evenodd;stroke:none;stroke-width:1;stroke-linecap:butt;stroke-linejoin:miter;stroke-miterlimit:4;stroke-dasharray:none;stroke-dashoffset:0;stroke-opacity:1;marker:none;color-rendering:auto;image-rendering:auto;shape-rendering:auto;text-rendering:auto"
     display="inline"
     overflow="visible"
     visibility="visible"
     stroke-miterlimit="4"
     inkscape:connector-curvature="0" />
  <circle
     style="color:#000000;clip-rule:nonzero;display:inline;overflow:visible;visibility:visible;opacity:1;isolation:auto;mix-blend-mode:normal;color-interpolation:sRGB;color-interpolation-filters:linearRGB;solid-color:#000000;solid-opacity:1;fill:#fafafa;fill-opacity:1;fill-rule:evenodd;stroke:none;stroke-width:1;stroke-linecap:butt;stroke-linejoin:miter;stroke-miterlimit:4;stroke-dasharray:none;stroke-dashoffset:0;stroke-opacity:1;marker:none;color-rendering:auto;image-rendering:auto;shape-rendering:auto;text-rendering:auto"
     id="circle4229"
     cx="19.972"
     cy="28.938999"
     r="2.9119999"
     display="inline"
     overflow="visible"
     visibility="visible"
     stroke-miterlimit="4" />
  <path
     style="color:#000000;clip-rule:nonzero;display:inline;overflow:visible;visibility:visible;opacity:0.15;isolation:auto;mix-blend-mode:normal;color-interpolation:sRGB;color-interpolation-filters:linearRGB;solid-color:#000000;solid-opacity:1;fill:#000000;fill-opacity:1;fill-rule:evenodd;stroke:none;stroke-width:1;stroke-linecap:butt;stroke-linejoin:miter;stroke-miterlimit:4;stroke-dasharray:none;stroke-dashoffset:0;stroke-opacity:1;marker:none;color-rendering:auto;image-rendering:auto;shape-rendering:auto;text-rendering:auto"
     d="m 34.877,18.725 a 2.912,2.912 0 0 1 -2.904,2.752 2.912,2.912 0 0 1 -2.905,-2.7 2.912,2.912 0 0 0 -0.007,0.162 2.912,2.912 0 0 0 2.912,2.913 2.912,2.912 0 0 0 2.912,-2.913 2.912,2.912 0 0 0 -0.008,-0.214 z"
     id="circle4231"
     display="inline"
     overflow="visible"
     visibility="visible"
     stroke-miterlimit="4"
     inkscape:connector-curvature="0" />
  <path
     id="path4240"
     d="m 22.877,28.725 a 2.912,2.912 0 0 1 -2.904,2.752 2.912,2.912 0 0 1 -2.905,-2.7 2.912,2.912 0 0 0 -0.007,0.162 2.912,2.912 0 0 0 2.912,2.913 2.912,2.912 0 0 0 2.912,-2.913 2.912,2.912 0 0 0 -0.008,-0.214 z"
     style="color:#000000;clip-rule:nonzero;display:inline;overflow:visible;visibility:visible;opacity:0.15;isolation:auto;mix-blend-mode:normal;color-interpolation:sRGB;color-interpolation-filters:linearRGB;solid-color:#000000;solid-opacity:1;fill:#000000;fill-opacity:1;fill-rule:evenodd;stroke:none;stroke-width:1;stroke-linecap:butt;stroke-linejoin:miter;stroke-miterlimit:4;stroke-dasharray:none;stroke-dashoffset:0;stroke-opacity:1;marker:none;color-rendering:auto;image-rendering:auto;shape-rendering:auto;text-rendering:auto"
     display="inline"
     overflow="visible"
     visibility="visible"
     stroke-miterlimit="4"
     inkscape:connector-curvature="0" />
  <path
     d="M 10,4 A 5.983,5.983 0 0 0 4.47,7.66 C 4.427,7.764 4.44,7.893 4.402,8 H 43.598 C 43.559,7.893 43.573,7.764 43.529,7.66 A 5.983,5.983 0 0 0 40.339,4.47 6.01,6.01 0 0 0 38,4 Z"
     id="path864"
     stroke-miterlimit="4"
     inkscape:connector-curvature="0"
     style="opacity:0.3;vector-effect:none;fill:#ffffff;fill-opacity:1;fill-rule:nonzero;stroke:none;stroke-width:1;stroke-linecap:round;stroke-linejoin:round;stroke-miterlimit:4;stroke-dasharray:none;stroke-dashoffset:0;stroke-opacity:1;paint-order:stroke fill markers" />
  <path
     d="M 10,44 A 5.983,5.983 0 0 1 4.47,40.34 C 4.427,40.236 4.44,40.107 4.402,40 h 39.196 c -0.039,0.107 -0.025,0.236 -0.069,0.34 A 5.983,5.983 0 0 1 40.339,43.53 6.01,6.01 0 0 1 38,44 Z"
     id="path864-3"
     stroke-miterlimit="4"
     inkscape:connector-curvature="0"
     style="opacity:0.3;vector-effect:none;fill:#000000;fill-opacity:1;fill-rule:nonzero;stroke:none;stroke-width:1;stroke-linecap:round;stroke-linejoin:round;stroke-miterlimit:4;stroke-dasharray:none;stroke-dashoffset:0;stroke-opacity:1;paint-order:stroke fill markers" />
  <path
     d="M 10,4 A 5.983,5.983 0 0 0 4.47,7.66 6.01,6.01 0 0 0 4,10 V 38 A 5.983,5.983 0 0 0 7.66,43.53 6.01,6.01 0 0 0 10,44 H 38 A 5.983,5.983 0 0 0 43.53,40.34 6.01,6.01 0 0 0 44,38 V 10 A 5.983,5.983 0 0 0 40.34,4.47 6.01,6.01 0 0 0 38,4 Z"
     id="path899"
     style="opacity:0.27600002;fill:url(#linearGradient883);fill-opacity:1"
     inkscape:connector-curvature="0" />
  <rect
     ry="6"
     width="40"
     x="4"
     y="4"
     rx="6"
     height="40"
     id="rect851"
     style="fill:#2d3033;fill-opacity:1" />
  <path
     stroke-miterlimit="4"
     visibility="visible"
     overflow="visible"
     display="inline"
     id="path853"
     d="m 43.598,40 c 0.224,-0.63 0.4,-1.286 0.4,-1.994 L 43.996,26.875 34.031,16.891 9.281,19.742 18,28.461 9.23,29.688 19.545,40 Z"
     style="color:#000000;clip-rule:nonzero;display:inline;overflow:visible;visibility:visible;opacity:0.4;isolation:auto;mix-blend-mode:normal;color-interpolation:sRGB;color-interpolation-filters:linearRGB;solid-color:#000000;solid-opacity:1;fill:url(#linearGradient890);fill-opacity:1;fill-rule:evenodd;stroke:none;stroke-width:1;stroke-linecap:butt;stroke-linejoin:miter;stroke-miterlimit:4;stroke-dasharray:none;stroke-dashoffset:0;stroke-opacity:1;color-rendering:auto;image-rendering:auto;shape-rendering:auto;text-rendering:auto"
     inkscape:connector-curvature="0" />
  <rect
     stroke-miterlimit="4"
     visibility="visible"
     overflow="visible"
     display="inline"
     ry="0.95599997"
     rx="1"
     y="18"
     x="9"
     height="2"
     width="30"
     id="rect855"
     style="color:#000000;clip-rule:nonzero;display:inline;overflow:visible;visibility:visible;opacity:0.194;isolation:auto;mix-blend-mode:normal;color-interpolation:sRGB;color-interpolation-filters:linearRGB;solid-color:#000000;solid-opacity:1;fill:#ffffff;fill-opacity:1;fill-rule:evenodd;stroke:none;stroke-width:1;stroke-linecap:butt;stroke-linejoin:miter;stroke-miterlimit:4;stroke-dasharray:none;stroke-dashoffset:0;stroke-opacity:1;marker:none;color-rendering:auto;image-rendering:auto;shape-rendering:auto;text-rendering:auto" />
  <path
     stroke-miterlimit="4"
     visibility="visible"
     overflow="visible"
     display="inline"
     style="color:#000000;clip-rule:nonzero;display:inline;overflow:visible;visibility:visible;opacity:1;isolation:auto;mix-blend-mode:normal;color-interpolation:sRGB;color-interpolation-filters:linearRGB;solid-color:#000000;solid-opacity:1;fill:#3daee9;fill-opacity:1;fill-rule:evenodd;stroke:none;stroke-width:1;stroke-linecap:butt;stroke-linejoin:miter;stroke-miterlimit:4;stroke-dasharray:none;stroke-dashoffset:0;stroke-opacity:1;marker:none;color-rendering:auto;image-rendering:auto;shape-rendering:auto;text-rendering:auto"
     d="m 9.961,17.988 c -0.557,0 -1.005,0.448 -1.005,1.006 0,0.557 0.448,1.005 1.005,1.005 h 21.057 v -2.011 z"
     id="path857"
     inkscape:connector-curvature="0" />
  <path
     stroke-miterlimit="4"
     visibility="visible"
     overflow="visible"
     display="inline"
     id="path859"
     d="m 9.96,17.988 c -0.556,0 -1.005,0.449 -1.005,1.006 0,0.095 0.03,0.179 0.055,0.266 a 0.988,0.988 0 0 1 0.95,-0.74 h 21.058 v -0.532 z"
     style="color:#000000;clip-rule:nonzero;display:inline;overflow:visible;visibility:visible;opacity:0.3;isolation:auto;mix-blend-mode:normal;color-interpolation:sRGB;color-interpolation-filters:linearRGB;solid-color:#000000;solid-opacity:1;fill:#ffffff;fill-opacity:1;fill-rule:evenodd;stroke:none;stroke-width:1;stroke-linecap:butt;stroke-linejoin:miter;stroke-miterlimit:4;stroke-dasharray:none;stroke-dashoffset:0;stroke-opacity:1;marker:none;color-rendering:auto;image-rendering:auto;shape-rendering:auto;text-rendering:auto"
     inkscape:connector-curvature="0" />
  <circle
     stroke-miterlimit="4"
     visibility="visible"
     overflow="visible"
     display="inline"
     style="color:#000000;clip-rule:nonzero;display:inline;overflow:visible;visibility:visible;opacity:1;isolation:auto;mix-blend-mode:normal;color-interpolation:sRGB;color-interpolation-filters:linearRGB;solid-color:#000000;solid-opacity:1;fill:#fafafa;fill-opacity:1;fill-rule:evenodd;stroke:none;stroke-width:1;stroke-linecap:butt;stroke-linejoin:miter;stroke-miterlimit:4;stroke-dasharray:none;stroke-dashoffset:0;stroke-opacity:1;marker:none;color-rendering:auto;image-rendering:auto;shape-rendering:auto;text-rendering:auto"
     id="circle861"
     cx="31.972"
     cy="18.938999"
     r="2.9119999" />
  <rect
     stroke-miterlimit="4"
     visibility="visible"
     overflow="visible"
     display="inline"
     style="color:#000000;clip-rule:nonzero;display:inline;overflow:visible;visibility:visible;opacity:0.194;isolation:auto;mix-blend-mode:normal;color-interpolation:sRGB;color-interpolation-filters:linearRGB;solid-color:#000000;solid-opacity:1;fill:#ffffff;fill-opacity:1;fill-rule:evenodd;stroke:none;stroke-width:1;stroke-linecap:butt;stroke-linejoin:miter;stroke-miterlimit:4;stroke-dasharray:none;stroke-dashoffset:0;stroke-opacity:1;marker:none;color-rendering:auto;image-rendering:auto;shape-rendering:auto;text-rendering:auto"
     id="rect863"
     width="30"
     height="2"
     x="9"
     y="28"
     rx="1"
     ry="0.82300001" />
  <path
     stroke-miterlimit="4"
     visibility="visible"
     overflow="visible"
     display="inline"
     id="path865"
     d="m 9.961,27.988 c -0.557,0 -1.005,0.448 -1.005,1.006 0,0.557 0.448,1.005 1.005,1.005 h 11.057 v -2.011 z"
     style="color:#000000;clip-rule:nonzero;display:inline;overflow:visible;visibility:visible;opacity:1;isolation:auto;mix-blend-mode:normal;color-interpolation:sRGB;color-interpolation-filters:linearRGB;solid-color:#000000;solid-opacity:1;fill:#3daee9;fill-opacity:1;fill-rule:evenodd;stroke:none;stroke-width:1;stroke-linecap:butt;stroke-linejoin:miter;stroke-miterlimit:4;stroke-dasharray:none;stroke-dashoffset:0;stroke-opacity:1;marker:none;color-rendering:auto;image-rendering:auto;shape-rendering:auto;text-rendering:auto"
     inkscape:connector-curvature="0" />
  <path
     stroke-miterlimit="4"
     visibility="visible"
     overflow="visible"
     display="inline"
     style="color:#000000;clip-rule:nonzero;display:inline;overflow:visible;visibility:visible;opacity:0.3;isolation:auto;mix-blend-mode:normal;color-interpolation:sRGB;color-interpolation-filters:linearRGB;solid-color:#000000;solid-opacity:1;fill:#ffffff;fill-opacity:1;fill-rule:evenodd;stroke:none;stroke-width:1;stroke-linecap:butt;stroke-linejoin:miter;stroke-miterlimit:4;stroke-dasharray:none;stroke-dashoffset:0;stroke-opacity:1;marker:none;color-rendering:auto;image-rendering:auto;shape-rendering:auto;text-rendering:auto"
     d="m 9.96,27.988 c -0.556,0 -1.005,0.449 -1.005,1.006 0,0.095 0.03,0.179 0.055,0.266 a 0.988,0.988 0 0 1 0.95,-0.74 h 11.058 v -0.532 z"
     id="path867"
     inkscape:connector-curvature="0" />
  <circle
     stroke-miterlimit="4"
     visibility="visible"
     overflow="visible"
     display="inline"
     r="2.9119999"
     cy="28.938999"
     cx="19.972"
     id="circle869"
     style="color:#000000;clip-rule:nonzero;display:inline;overflow:visible;visibility:visible;opacity:1;isolation:auto;mix-blend-mode:normal;color-interpolation:sRGB;color-interpolation-filters:linearRGB;solid-color:#000000;solid-opacity:1;fill:#fafafa;fill-opacity:1;fill-rule:evenodd;stroke:none;stroke-width:1;stroke-linecap:butt;stroke-linejoin:miter;stroke-miterlimit:4;stroke-dasharray:none;stroke-dashoffset:0;stroke-opacity:1;marker:none;color-rendering:auto;image-rendering:auto;shape-rendering:auto;text-rendering:auto" />
  <path
     stroke-miterlimit="4"
     visibility="visible"
     overflow="visible"
     display="inline"
     id="path871"
     d="m 34.877,18.725 a 2.912,2.912 0 0 1 -2.904,2.752 2.912,2.912 0 0 1 -2.905,-2.7 2.912,2.912 0 0 0 -0.007,0.162 2.912,2.912 0 0 0 2.912,2.913 2.912,2.912 0 0 0 2.912,-2.913 2.912,2.912 0 0 0 -0.008,-0.214 z"
     style="color:#000000;clip-rule:nonzero;display:inline;overflow:visible;visibility:visible;opacity:0.15;isolation:auto;mix-blend-mode:normal;color-interpolation:sRGB;color-interpolation-filters:linearRGB;solid-color:#000000;solid-opacity:1;fill:#000000;fill-opacity:1;fill-rule:evenodd;stroke:none;stroke-width:1;stroke-linecap:butt;stroke-linejoin:miter;stroke-miterlimit:4;stroke-dasharray:none;stroke-dashoffset:0;stroke-opacity:1;marker:none;color-rendering:auto;image-rendering:auto;shape-rendering:auto;text-rendering:auto"
     inkscape:connector-curvature="0" />
  <path
     stroke-miterlimit="4"
     visibility="visible"
     overflow="visible"
     display="inline"
     style="color:#000000;clip-rule:nonzero;display:inline;overflow:visible;visibility:visible;opacity:0.15;isolation:auto;mix-blend-mode:normal;color-interpolation:sRGB;color-interpolation-filters:linearRGB;solid-color:#000000;solid-opacity:1;fill:#000000;fill-opacity:1;fill-rule:evenodd;stroke:none;stroke-width:1;stroke-linecap:butt;stroke-linejoin:miter;stroke-miterlimit:4;stroke-dasharray:none;stroke-dashoffset:0;stroke-opacity:1;marker:none;color-rendering:auto;image-rendering:auto;shape-rendering:auto;text-rendering:auto"
     d="m 22.877,28.725 a 2.912,2.912 0 0 1 -2.904,2.752 2.912,2.912 0 0 1 -2.905,-2.7 2.912,2.912 0 0 0 -0.007,0.162 2.912,2.912 0 0 0 2.912,2.913 2.912,2.912 0 0 0 2.912,-2.913 2.912,2.912 0 0 0 -0.008,-0.214 z"
     id="path873"
     inkscape:connector-curvature="0" />
  <path
     stroke-miterlimit="4"
     id="path875"
     d="M 10,4 A 5.983,5.983 0 0 0 4.47,7.66 C 4.427,7.764 4.44,7.893 4.402,8 H 43.598 C 43.559,7.893 43.573,7.764 43.529,7.66 A 5.983,5.983 0 0 0 40.339,4.47 6.01,6.01 0 0 0 38,4 Z"
     inkscape:connector-curvature="0"
     style="opacity:0.3;vector-effect:none;fill:#ffffff;fill-opacity:1;fill-rule:nonzero;stroke:none;stroke-width:1;stroke-linecap:round;stroke-linejoin:round;stroke-miterlimit:4;stroke-dasharray:none;stroke-dashoffset:0;stroke-opacity:1;paint-order:stroke fill markers" />
  <path
     stroke-miterlimit="4"
     id="path877"
     d="M 10,44 A 5.983,5.983 0 0 1 4.47,40.34 C 4.427,40.236 4.44,40.107 4.402,40 h 39.196 c -0.039,0.107 -0.025,0.236 -0.069,0.34 A 5.983,5.983 0 0 1 40.339,43.53 6.01,6.01 0 0 1 38,44 Z"
     inkscape:connector-curvature="0"
     style="opacity:0.3;vector-effect:none;fill:#000000;fill-opacity:1;fill-rule:nonzero;stroke:none;stroke-width:1;stroke-linecap:round;stroke-linejoin:round;stroke-miterlimit:4;stroke-dasharray:none;stroke-dashoffset:0;stroke-opacity:1;paint-order:stroke fill markers" />
  <path
     id="path879"
     d="M 10,4 A 5.983,5.983 0 0 0 4.47,7.66 6.01,6.01 0 0 0 4,10 V 38 A 5.983,5.983 0 0 0 7.66,43.53 6.01,6.01 0 0 0 10,44 H 38 A 5.983,5.983 0 0 0 43.53,40.34 6.01,6.01 0 0 0 44,38 V 10 A 5.983,5.983 0 0 0 40.34,4.47 6.01,6.01 0 0 0 38,4 Z"
     style="opacity:0.27600002;fill:url(#linearGradient907);fill-opacity:1"
     inkscape:connector-curvature="0" />
</svg>
