<?xml version="1.0" encoding="UTF-8" standalone="no"?>
<svg
   xmlns:dc="http://purl.org/dc/elements/1.1/"
   xmlns:cc="http://creativecommons.org/ns#"
   xmlns:rdf="http://www.w3.org/1999/02/22-rdf-syntax-ns#"
   xmlns:svg="http://www.w3.org/2000/svg"
   xmlns="http://www.w3.org/2000/svg"
   xmlns:sodipodi="http://sodipodi.sourceforge.net/DTD/sodipodi-0.dtd"
   xmlns:inkscape="http://www.inkscape.org/namespaces/inkscape"
   width="48"
   height="48"
   version="1.1"
   id="svg37"
   sodipodi:docname="cantor.svg"
   inkscape:version="1.0.2 (e86c870879, 2021-01-15)">
  <metadata
     id="metadata41">
    <rdf:RDF>
      <cc:Work
         rdf:about="">
        <dc:format>image/svg+xml</dc:format>
        <dc:type
           rdf:resource="http://purl.org/dc/dcmitype/StillImage" />
      </cc:Work>
    </rdf:RDF>
  </metadata>
  <sodipodi:namedview
     pagecolor="#ffffff"
     bordercolor="#666666"
     borderopacity="1"
     objecttolerance="10"
     gridtolerance="10"
     guidetolerance="10"
     inkscape:pageopacity="0"
     inkscape:pageshadow="2"
     inkscape:window-width="1920"
     inkscape:window-height="1005"
     id="namedview39"
     showgrid="true"
     inkscape:zoom="13.083333"
     inkscape:cx="9.5923567"
     inkscape:cy="24"
     inkscape:window-x="0"
     inkscape:window-y="0"
     inkscape:window-maximized="1"
     inkscape:current-layer="svg37">
    <inkscape:grid
       type="xygrid"
       id="grid866" />
  </sodipodi:namedview>
  <defs
     id="defs17">
    <linearGradient
       id="a"
       y1="543.8"
       y2="503.8"
       x1="434.57"
       gradientUnits="userSpaceOnUse"
       x2="384.57"
       gradientTransform="matrix(.6875 0 0 .9 128.18 52.38)">
      <stop
         stop-color="#343b40"
         id="stop2" />
      <stop
         offset="1"
         stop-color="#555e63"
         id="stop4" />
    </linearGradient>
    <linearGradient
       id="b"
       y1="543.8"
       y2="503.8"
       x2="0"
       gradientUnits="userSpaceOnUse"
       gradientTransform="matrix(1.15625 0 0 1-63.34 0)">
      <stop
         stop-color="#bd8d48"
         id="stop7" />
      <stop
         offset="1"
         stop-color="#e8b971"
         id="stop9" />
    </linearGradient>
    <linearGradient
       id="c"
       y1="17.14"
       y2="33.14"
       x1="37.581"
       gradientUnits="userSpaceOnUse"
       x2="53.58"
       gradientTransform="translate(362.99 498.66)">
      <stop
         stop-color="#383e51"
         id="stop12" />
      <stop
         offset="1"
         stop-color="#655c6f"
         stop-opacity="0"
         id="stop14" />
    </linearGradient>
  </defs>
  <g
     transform="translate(-384.57,-499.8)"
     id="g35">
    <rect
       width="37"
       x="390.57001"
       y="503.79999"
       fill="url(#b)"
       rx="3.0000074"
       height="40"
       id="rect19"
       ry="3.0000122" />
    <rect
       width="33"
       x="392.57001"
       y="505.79999"
       fill="url(#a)"
       height="36"
       id="rect21" />
    <path
       fill="#aa7f41"
       d="m 392.57,505.8 v 36 h 33 v -36 z m 1,1 h 31 v 34 h -31 z"
       id="path23" />
    <g
       color="#000000"
       id="g29">
      <rect
         width="4"
         x="418.57001"
         y="539.79999"
         fill="#ffffff"
         height="1"
         id="rect25" />
      <rect
         width="4"
         x="413.57001"
         y="539.79999"
         fill="#007ad9"
         height="1"
         id="rect27" />
    </g>
    <path
       opacity="0.2"
       fill="url(#c)"
       fill-rule="evenodd"
       d="m 416.57,518.8 -1,2 v -1 h -7 l -4,7 h -1 l -1,-2 h -2 l 5,5 h -5 l 14,14 h 9.99 c 0.006,0 0.01,-3.568 0.01,-8 v -9 z"
       id="path31" />
    <path
       fill="#d6d6d6"
       d="m 416.57,518.8 -8,0.004 -4.441,7.691 -1.555,-2.695 h -2 v 1 h 1.428 l 2.133,3.693 5.02,-8.693 h 6.42 v 1 h 1 z m -5,3 c -1.662,0 -3,1.338 -3,3 0,1.662 1.338,3 3,3 0.773,0 1.469,-0.298 2,-0.775 v 0.775 h 1 v -6 h -1 v 0.775 c -0.531,-0.477 -1.227,-0.775 -2,-0.775 m 0,1 c 1.108,0 2,0.892 2,2 0,1.108 -0.892,2 -2,2 -1.108,0 -2,-0.892 -2,-2 0,-1.108 0.892,-2 2,-2 m -10.99,5.99 c -0.006,0 -0.01,0.223 -0.01,0.5 0,0.277 0.004,0.5 0.01,0.5 h 15.98 c 0.006,0 0.01,-0.223 0.01,-0.5 0,-0.277 -0.004,-0.5 -0.01,-0.5 z m 7,2 c -0.006,0 -0.01,0.223 -0.01,0.5 0,0.277 0.004,0.5 0.01,0.5 h 1.98 c 0.006,0 0.01,-0.223 0.01,-0.5 0,-0.277 -0.004,-0.5 -0.01,-0.5 z"
       id="path33" />
  </g>
</svg>
