<?xml version="1.0" encoding="UTF-8" standalone="no"?>
<svg
   height="48"
   viewBox="0 0 48 48"
   width="48"
   version="1.1"
   id="svg29"
   sodipodi:docname="com.icons8.Lunacy.svg"
   inkscape:version="1.3.2 (091e20ef0f, 2023-11-25)"
   xmlns:inkscape="http://www.inkscape.org/namespaces/inkscape"
   xmlns:sodipodi="http://sodipodi.sourceforge.net/DTD/sodipodi-0.dtd"
   xmlns="http://www.w3.org/2000/svg"
   xmlns:svg="http://www.w3.org/2000/svg">
  <defs
     id="defs33" />
  <sodipodi:namedview
     id="namedview31"
     pagecolor="#ffffff"
     bordercolor="#666666"
     borderopacity="1.0"
     inkscape:showpageshadow="2"
     inkscape:pageopacity="0.0"
     inkscape:pagecheckerboard="0"
     inkscape:deskcolor="#d1d1d1"
     showgrid="false"
     inkscape:zoom="4.9166667"
     inkscape:cx="24"
     inkscape:cy="24.305085"
     inkscape:window-width="1920"
     inkscape:window-height="994"
     inkscape:window-x="0"
     inkscape:window-y="0"
     inkscape:window-maximized="1"
     inkscape:current-layer="svg29" />
  <linearGradient
     id="a"
     gradientUnits="userSpaceOnUse"
     x1="4"
     x2="44"
     y1="4"
     y2="44">
    <stop
       offset="0"
       stop-color="#3498db"
       id="stop2" />
    <stop
       offset="1"
       stop-color="#0352b5"
       id="stop4" />
  </linearGradient>
  <linearGradient
     id="b"
     gradientUnits="userSpaceOnUse"
     x1="4"
     x2="44"
     y1="39.5"
     y2="39.5">
    <stop
       offset="0"
       stop-color="#194f95"
       id="stop7" />
    <stop
       offset="1"
       stop-color="#114795"
       id="stop9" />
  </linearGradient>
  <linearGradient
     id="c"
     gradientUnits="userSpaceOnUse"
     x1="15"
     x2="38"
     y1="13"
     y2="36"
     gradientTransform="matrix(0.88127783,0,0,0.98239049,1.5099546,0.7748184)">
    <stop
       offset="0"
       stop-color="#194f95"
       id="stop12" />
    <stop
       offset="1"
       stop-color="#194f95"
       stop-opacity="0"
       id="stop14" />
  </linearGradient>
  <g
     stroke-width="2"
     id="g27"
     transform="matrix(1.05,0,0,1.05,-1.2,-1.2)">
    <rect
       fill="url(#a)"
       height="40"
       ry="20"
       width="40"
       x="4"
       y="4"
       id="rect17"
       rx="20"
       style="fill:url(#a)" />
    <path
       d="m 21.779348,11.581114 v 3.929562 l 2.643834,2.947171 v 3.820195 3.056539 l -3.525111,-3.929562 c -2.103522,0 -4.120309,0.880353 -5.607818,2.446382 -1.487422,1.566029 -2.323683,3.689334 -2.323683,5.903937 0,2.134931 -0.772763,4.185411 0.615691,5.73317 L 22.767344,44 H 40.286183 V 21.405019 l -8.812778,-9.823905 z"
       fill="url(#c)"
       id="path21"
       style="fill:url(#c);stroke-width:1.86093"
       sodipodi:nodetypes="cccccccscccccc" />
  </g>
  <path
     d="m 12.627119,10.769 z m 0,0 z m 0,0 v 25.3 h 11.499997 v -25.3 z m 11.499997,25.3 h 12.649992 v -12.65 z m 8.654196,-25.239356 c -1.186799,2.171196 -2.971203,3.95785 -5.143549,5.145803 2.172346,1.187949 3.955622,2.974601 5.143549,5.145796 1.187967,-2.172346 2.97462,-3.957847 5.145807,-5.145796 -2.172363,-1.187953 -3.95784,-2.974607 -5.145807,-5.145803 z"
     id="path1"
     sodipodi:nodetypes="ccsscscsccscscsccccccccccccccccc"
     style="fill:#ececec;fill-opacity:1;stroke-width:1.14996" />
</svg>
