<?xml version="1.0" encoding="UTF-8" standalone="no"?>
<svg
   width="62"
   height="62"
   version="1.1"
   id="svg6"
   sodipodi:docname="vectr.svg"
   inkscape:version="1.4 (unknown)"
   xmlns:inkscape="http://www.inkscape.org/namespaces/inkscape"
   xmlns:sodipodi="http://sodipodi.sourceforge.net/DTD/sodipodi-0.dtd"
   xmlns:xlink="http://www.w3.org/1999/xlink"
   xmlns="http://www.w3.org/2000/svg"
   xmlns:svg="http://www.w3.org/2000/svg">
  <defs
     id="defs6">
    <linearGradient
       id="linearGradient1"
       inkscape:collect="always">
      <stop
         style="stop-color:#ffc433;stop-opacity:1;"
         offset="0"
         id="stop1" />
      <stop
         style="stop-color:#ffe680;stop-opacity:1"
         offset="1"
         id="stop2" />
    </linearGradient>
    <linearGradient
       inkscape:collect="always"
       xlink:href="#linearGradient1"
       id="linearGradient2"
       x1="34.921291"
       y1="14"
       x2="35.330322"
       y2="47"
       gradientUnits="userSpaceOnUse" />
  </defs>
  <sodipodi:namedview
     id="namedview6"
     pagecolor="#ffffff"
     bordercolor="#000000"
     borderopacity="0.25"
     inkscape:showpageshadow="2"
     inkscape:pageopacity="0.0"
     inkscape:pagecheckerboard="0"
     inkscape:deskcolor="#d1d1d1"
     inkscape:zoom="6.0546875"
     inkscape:cx="21.058065"
     inkscape:cy="33.940645"
     inkscape:window-width="1920"
     inkscape:window-height="998"
     inkscape:window-x="0"
     inkscape:window-y="0"
     inkscape:window-maximized="1"
     inkscape:current-layer="svg6" />
  <path
     style="opacity:0.2"
     d="M 3.043,30.328 A 28,28 0 0 0 3,31.5 28,28 0 0 0 31,59.5 28,28 0 0 0 59,31.5 28,28 0 0 0 58.958,30.672 28,28 0 0 1 31,57.5 28,28 0 0 1 3.044,30.328 Z"
     id="path1" />
  <path
     style="fill:#2d3d53;fill-opacity:1"
     d="m 31,2.5 a 28,28 0 0 0 -28,28 28,28 0 0 0 28,28 28,28 0 0 0 28,-28 28,28 0 0 0 -28,-28 z"
     id="path2" />
  <path
     style="opacity:0.1;fill:#ffffff"
     d="M 30.998047,2.5 A 28,28 0 0 0 3,30.5 28,28 0 0 0 3.0214844,30.90625 28,28 0 0 1 30.998047,3.5 H 31 A 28,28 0 0 1 58.976562,31.085938 28,28 0 0 0 58.998047,30.5 28,28 0 0 0 31,2.5 Z"
     id="path3" />
  <g
     id="g1"
     transform="matrix(1.0925912,0,0,1.0909091,-3.3877875,-1.9867274)">
    <path
       style="opacity:0.2"
       d="m 21.185436,15 a 1.4591433,1.4158506 0 0 0 -1.458984,1.416016 V 45.58398 A 1.4591433,1.4158506 0 0 0 21.185436,47 h 8.378907 c 5.191086,0 9.459678,-1.33382 12.529297,-4.099609 3.128043,-2.820625 4.632812,-7.000147 4.632812,-12.1875 0,-3.30585 -0.6347,-6.167468 -1.990234,-8.525391 V 22.1816 C 43.397936,19.827017 41.438784,17.996867 38.976452,16.787109 36.520183,15.580325 33.658415,15 30.447155,15 Z m 5.541016,7 h 3.369141 c 3.273949,0 5.566702,0.738591 7.162109,2.107422 a 1.418424,1.271475 0 0 0 0.01563,0.0098 c 1.562962,1.3023 2.45312,3.447491 2.45312,6.73434 0,3.256438 -0.898752,5.466295 -2.539062,6.90625 C 35.547078,39.19777 33.003711,40 29.279186,40 h -2.552734 z"
       id="path2-3" />
    <path
       style="fill:url(#linearGradient2)"
       d="m 21.185436,14 a 1.4591433,1.4158506 0 0 0 -1.458984,1.416016 V 44.58398 A 1.4591433,1.4158506 0 0 0 21.185436,46 h 8.378907 c 5.191086,0 9.459678,-1.33382 12.529297,-4.099609 3.128043,-2.820625 4.632812,-7.000147 4.632812,-12.1875 0,-3.30585 -0.6347,-6.167468 -1.990234,-8.525391 V 21.1816 C 43.397936,18.827017 41.438784,16.996867 38.976452,15.787109 36.520183,14.580325 33.658415,14 30.447155,14 Z m 5.541016,7 h 3.369141 c 3.273949,0 5.566702,0.738591 7.162109,2.107422 a 1.418424,1.271475 0 0 0 0.01563,0.0098 c 1.562962,1.3023 2.45312,3.447491 2.45312,6.73434 0,3.256438 -0.898752,5.466295 -2.539062,6.90625 C 35.547078,38.19777 33.003711,39 29.279186,39 h -2.552734 z"
       id="path3-6" />
    <path
       style="opacity:0.2;fill:#ffffff"
       d="m 21.185436,14 a 1.4591433,1.4158506 0 0 0 -1.458984,1.416016 v 1 A 1.4591433,1.4158506 0 0 1 21.185436,15 h 9.261719 c 3.21126,0 6.073028,0.580325 8.529297,1.787109 2.462332,1.209758 4.421484,3.039949 5.759766,5.394532 v 0.0059 c 1.295525,2.253539 1.926599,4.97195 1.980468,8.09375 0.0041,-0.189023 0.0098,-0.376646 0.0098,-0.5684 0,-3.30585 -0.6347,-6.167468 -1.990234,-8.525391 V 21.1816 C 43.397936,18.827017 41.438784,16.996867 38.976452,15.787109 36.520183,14.580325 33.658415,14 30.447155,14 Z M 39.71864,30.349609 C 39.6303,33.333815 38.742268,35.392854 37.18739,36.757812 35.547077,38.19777 33.003711,39 29.279186,39 h -2.552734 v 1 h 2.552734 c 3.724525,0 6.267891,-0.80223 7.908204,-2.242188 1.640309,-1.439955 2.539062,-3.649812 2.539062,-6.90625 0,-0.170855 -0.003,-0.337224 -0.0078,-0.501953 z"
       id="path5-7" />
  </g>
</svg>
