<?xml version="1.0" encoding="UTF-8" standalone="no"?>
<svg
   height="48"
   width="48"
   version="1.1"
   id="svg1886"
   sodipodi:docname="distributor-logo-ubuntu.svg"
   inkscape:version="1.2.2 (b0a8486541, 2022-12-01)"
   xmlns:inkscape="http://www.inkscape.org/namespaces/inkscape"
   xmlns:sodipodi="http://sodipodi.sourceforge.net/DTD/sodipodi-0.dtd"
   xmlns:xlink="http://www.w3.org/1999/xlink"
   xmlns="http://www.w3.org/2000/svg"
   xmlns:svg="http://www.w3.org/2000/svg">
  <defs
     id="defs1890">
    <linearGradient
       id="m"
       x1="68.210472"
       x2="148.52051"
       y1="177.75131"
       y2="258.06134"
       gradientUnits="userSpaceOnUse"
       gradientTransform="matrix(0.37626177,0,0,0.37626188,-16.518336,-57.726176)">
      <stop
         stop-color="#59f"
         offset="0"
         id="stop3371" />
      <stop
         stop-color="#06f"
         offset="1"
         id="stop3373" />
    </linearGradient>
    <linearGradient
       id="l"
       x1="220.30621"
       x2="54.439178"
       y1="207.9187"
       y2="42.051666"
       gradientTransform="matrix(0.16799417,0,0,0.1635966,5.9313038,-1.9414957)"
       gradientUnits="userSpaceOnUse"
       xlink:href="#a-3" />
    <linearGradient
       id="a-3">
      <stop
         stop-color="#2a7fff"
         offset="0"
         id="stop3327"
         style="stop-color:#00ccff;stop-opacity:1" />
      <stop
         stop-color="#0cf"
         offset="1"
         id="stop3329"
         style="stop-color:#0088aa;stop-opacity:1" />
    </linearGradient>
    <linearGradient
       id="linearGradient2356">
      <stop
         offset="0"
         id="stop2" />
      <stop
         offset="1"
         stop-opacity="0"
         id="stop4" />
    </linearGradient>
    <linearGradient
       id="linearGradient1978"
       x1="-59.235001"
       x2="-59.235001"
       y1="0.70410001"
       y2="-11.929"
       gradientTransform="matrix(2.8862356,0,0,2.8862362,194.46533,42.90783)"
       gradientUnits="userSpaceOnUse">
      <stop
         stop-color="#0fd3cd"
         offset="0"
         id="stop2-3" />
      <stop
         stop-color="#52ffb9"
         offset="1"
         id="stop4-6"
         style="stop-color:#80b3ff;stop-opacity:1" />
    </linearGradient>
    <linearGradient
       id="linearGradient1988"
       x1="-59.235001"
       x2="-59.235001"
       y1="0.70410001"
       y2="-11.929"
       gradientTransform="matrix(2.4166181,0,0,2.4166186,166.70888,39.830849)"
       gradientUnits="userSpaceOnUse">
      <stop
         stop-color="#00a0a2"
         offset="0"
         id="stop7" />
      <stop
         stop-color="#2fde8b"
         offset="1"
         id="stop9"
         style="stop-color:#00ccff;stop-opacity:1" />
    </linearGradient>
    <filter
       id="filter1877"
       x="-0.027478284"
       y="-0.021303294"
       width="1.0549566"
       height="1.0426066"
       color-interpolation-filters="sRGB">
      <feGaussianBlur
         stdDeviation="0.072702461"
         id="feGaussianBlur12" />
    </filter>
    <linearGradient
       id="k"
       x1="430.56"
       x2="433.31"
       y1="536.57001"
       y2="524.16998"
       gradientTransform="matrix(1.3951511,0,0,1.3951514,-578.18825,-716.37433)"
       gradientUnits="userSpaceOnUse">
      <stop
         stop-color="#c4e7f9"
         offset="0"
         id="stop15" />
      <stop
         stop-color="#edfafd"
         offset="1"
         id="stop17" />
    </linearGradient>
    <linearGradient
       xlink:href="#linearGradient4202"
       id="linearGradient4208"
       x1="407.79285"
       y1="520.55933"
       x2="408.57147"
       y2="543.7981"
       gradientUnits="userSpaceOnUse"
       gradientTransform="matrix(1.0749997,0,0,1.0499999,-415.21421,-525.98795)" />
    <linearGradient
       id="linearGradient4202">
      <stop
         style="stop-color:#a17bdb;stop-opacity:1;"
         offset="0"
         id="stop7-3" />
      <stop
         style="stop-color:#00ccff;stop-opacity:1;"
         offset="1"
         id="stop9-6" />
    </linearGradient>
    <linearGradient
       xlink:href="#linearGradient2356"
       id="linearGradient4348"
       x1="15.319"
       y1="12.214"
       x2="39.408001"
       y2="36.303001"
       gradientUnits="userSpaceOnUse"
       gradientTransform="matrix(1.0489731,0,0,1.0499998,-1.1942074,-1.2)" />
  </defs>
  <sodipodi:namedview
     id="namedview1888"
     pagecolor="#ffffff"
     bordercolor="#666666"
     borderopacity="1.0"
     inkscape:showpageshadow="2"
     inkscape:pageopacity="0.0"
     inkscape:pagecheckerboard="0"
     inkscape:deskcolor="#d1d1d1"
     showgrid="false"
     inkscape:zoom="4.9166667"
     inkscape:cx="-63.559322"
     inkscape:cy="24.508474"
     inkscape:window-width="1920"
     inkscape:window-height="1000"
     inkscape:window-x="0"
     inkscape:window-y="0"
     inkscape:window-maximized="1"
     inkscape:current-layer="svg1886" />
  <linearGradient
     id="a">
    <stop
       offset="0"
       id="stop1845" />
    <stop
       offset="1"
       stop-opacity="0"
       id="stop1847" />
  </linearGradient>
  <linearGradient
     id="b"
     gradientUnits="userSpaceOnUse"
     x1="16"
     x2="34.942"
     xlink:href="#a"
     y1="11"
     y2="29.942" />
  <linearGradient
     id="c"
     gradientTransform="matrix(.70710678 .70710678 -.70710678 .70710678 0 0)"
     gradientUnits="userSpaceOnUse"
     x1="31.021"
     x2="43.104"
     xlink:href="#a"
     y1="-9.896"
     y2="-9.896" />
  <linearGradient
     id="d"
     gradientUnits="userSpaceOnUse"
     x1="23.716"
     x2="26.348"
     xlink:href="#a"
     y1="13.219"
     y2="15.851" />
  <linearGradient
     id="e"
     gradientTransform="matrix(1.0454421 0 0 1.0298842 46.076843 3.856842)"
     gradientUnits="userSpaceOnUse"
     x1="-45.221867"
     x2=".691726"
     y1="-4.91011"
     y2="41.697075">
    <stop
       offset="0"
       stop-color="#2bc0ff"
       id="stop1853" />
    <stop
       offset="1"
       stop-color="#1d99f3"
       id="stop1855" />
  </linearGradient>
  <path
     d="M 34.498683,5.817062 C 44.5427,11.615011 47.98089,24.454668 42.18294,34.498684 36.38499,44.542702 23.545333,47.980889 13.501317,42.182939 3.457299,36.384991 0.019112,23.545334 5.817061,13.501318 11.61501,3.4573 24.454667,0.01911296 34.498683,5.817062 Z m 0,0"
     id="path2-3"
     style="fill:#77216f;fill-opacity:1" />
  <path
     style="fill:#f3d3f0;fill-opacity:1;fill-rule:nonzero;stroke:none;stroke-width:0.961941"
     d="m 26.654735,11.927088 c -2.80316,-0.676364 -5.719043,-0.34194 -8.259168,0.871759 l 1.920125,3.325459 c 2.412367,-1.05588 5.275643,-0.988244 7.740623,0.43588 2.46497,1.424124 3.95673,3.870309 4.24982,6.485586 h 3.83649 c -0.21418,-2.803156 -1.38279,-5.497342 -3.37431,-7.586557 -1.18739,0.913091 -2.852,1.074668 -4.23479,0.274303 -1.38279,-0.796608 -2.07794,-2.318427 -1.87879,-3.80643 z m -9.908747,1.829941 c -1.484245,1.014548 -2.769337,2.374792 -3.731278,4.039401 -0.496001,0.864244 -0.879275,1.762306 -1.153578,2.675398 0.154061,0.06012 0.300606,0.135273 0.439638,0.214183 1.146062,0.657576 1.916366,1.893822 1.916366,3.314187 0,1.596972 -0.973214,2.960975 -2.359761,3.532127 0.785334,2.649095 2.457459,5.042674 4.892372,6.703526 l 1.916366,-3.317945 c -3.494552,-2.56267 -4.561704,-7.372375 -2.344731,-11.212624 0.612486,-1.063395 1.416608,-1.94267 2.340974,-2.626548 z m 19.396637,11.197595 h -3.83649 c -0.13151,1.142305 -0.49224,2.277094 -1.10473,3.34049 -2.22073,3.840249 -6.91771,5.320736 -10.881956,3.577218 l -1.916366,3.317945 c 2.652852,1.277578 5.564982,1.529336 8.251652,0.88679 -0.19915,-1.488004 0.496,-3.013581 1.87879,-3.810189 1.23249,-0.710182 2.68291,-0.665091 3.82522,0 0.14279,0.08267 0.27806,0.17285 0.40957,0.274303 0.65382,-0.695152 1.24001,-1.472972 1.73976,-2.337215 0.96194,-1.664609 1.49552,-3.456975 1.63455,-5.249342 z m 0,0"
     id="path4-6" />
  <path
     style="fill:#f3d3f0;fill-opacity:1;fill-rule:nonzero;stroke:none;stroke-width:0.961941"
     d="m 31.874015,9.950599 c 1.37527,0.79285 1.84121,2.536369 1.04836,3.907885 -0.79285,1.375276 -2.53636,1.841217 -3.91164,1.048366 -1.37527,-0.79285 -1.84121,-2.536368 -1.04836,-3.911642 0.79285,-1.371517 2.53636,-1.841215 3.91164,-1.044609 z m 0,0"
     id="path6-7" />
  <path
     style="fill:#f3d3f0;fill-opacity:1;fill-rule:nonzero;stroke:none;stroke-width:0.961941"
     d="m 13.262711,24.000198 c 0,1.5857 -1.277579,2.863277 -2.863278,2.863277 -1.585699,0 -2.863278,-1.277577 -2.863278,-2.863277 0,-1.5857 1.277579,-2.863277 2.863278,-2.863277 1.585699,0 2.863278,1.277577 2.863278,2.863277 z m 0,0"
     id="path8-5" />
  <path
     style="fill:#f3d3f0;fill-opacity:1;fill-rule:nonzero;stroke:none;stroke-width:0.961941"
     d="m 31.182615,38.339131 c -1.53309,0.409576 -3.09624,-0.492244 -3.50582,-2.025337 -0.40958,-1.533093 0.49224,-3.096248 2.02534,-3.505824 1.53309,-0.413334 3.09624,0.492244 3.50582,2.021579 0.40958,1.533093 -0.49224,3.096247 -2.02534,3.509582 z m 0,0"
     id="path10-3" />
</svg>
