<?xml version="1.0" encoding="UTF-8" standalone="no"?>
<svg
   width="48"
   height="48"
   version="1.1"
   id="svg10"
   sodipodi:docname="electron.svg"
   inkscape:version="1.3.2 (091e20ef0f, 2023-11-25)"
   xmlns:inkscape="http://www.inkscape.org/namespaces/inkscape"
   xmlns:sodipodi="http://sodipodi.sourceforge.net/DTD/sodipodi-0.dtd"
   xmlns="http://www.w3.org/2000/svg"
   xmlns:svg="http://www.w3.org/2000/svg">
  <defs
     id="defs10" />
  <sodipodi:namedview
     id="namedview10"
     pagecolor="#ffffff"
     bordercolor="#999999"
     borderopacity="1"
     inkscape:showpageshadow="2"
     inkscape:pageopacity="0"
     inkscape:pagecheckerboard="0"
     inkscape:deskcolor="#d1d1d1"
     inkscape:zoom="5.953125"
     inkscape:cx="16.293963"
     inkscape:cy="18.813648"
     inkscape:window-width="1920"
     inkscape:window-height="994"
     inkscape:window-x="0"
     inkscape:window-y="0"
     inkscape:window-maximized="1"
     inkscape:current-layer="svg10" />
  <path
     style="opacity:0.2;stroke-width:0.743396"
     d="M 24,3.7368415 A 21,20.631577 0 0 0 3,24.368423 21,20.631577 0 0 0 24,45 21,20.631577 0 0 0 45,24.368423 21,20.631577 0 0 0 24,3.7368415 Z"
     id="path1" />
  <path
     style="fill:#2c324d;stroke-width:0.743396;fill-opacity:1"
     d="M 24,3 A 21,20.631577 0 0 0 3,23.631577 21,20.631577 0 0 0 24,44.263154 21,20.631577 0 0 0 45,23.631577 21,20.631577 0 0 0 24,3 Z"
     id="path2" />
  <path
     style="opacity:0.2;stroke-width:0.743396"
     d="m 24.802722,8.159147 a 2.2499992,2.2105256 0 0 0 -0.158179,0.00176 2.2499992,2.2105256 0 0 0 -1.842791,1.102375 2.2499992,2.2105256 0 0 0 0.823246,3.019331 2.2499992,2.2105256 0 0 0 2.3086,-0.03596 c 0.681447,0.726604 1.302699,1.648985 1.842775,2.722861 -2.817066,0.925058 -5.860709,2.456272 -8.589846,4.328945 -1.752139,1.20228 -3.170503,2.712742 -4.275875,4.336146 -0.04694,-0.0571 -0.100539,-0.112405 -0.146491,-0.169818 -2.224606,-2.778763 -3.156504,-5.779244 -2.367179,-7.631782 0.409367,-0.960842 0.971454,-1.374704 1.678709,-1.58882 0.707249,-0.214112 1.593864,-0.17278 2.463874,0.01733 1.74,0.380108 3.322246,1.306745 3.322246,1.306745 A 0.75053335,0.73736606 0 1 0 20.63818,14.3061 c 0,0 -1.723793,-1.036013 -3.77343,-1.48376 -0.512429,-0.11195 -1.05166,-0.189084 -1.596673,-0.19861 -0.545028,-0.0095 -1.095208,0.04861 -1.633315,0.211558 -1.07618,0.325812 -2.065276,1.122452 -2.622058,2.429274 -1.143049,2.682781 0.161311,6.097877 2.573715,9.111221 0.158276,0.197696 0.335466,0.388462 0.503918,0.582856 -1.005878,1.799192 -1.637884,3.669556 -1.91896,5.382399 a 2.2499992,2.2105256 0 0 0 -1.671383,2.132779 2.2499992,2.2105256 0 0 0 2.250008,2.210524 2.2499992,2.2105256 0 0 0 2.249995,-2.210524 2.2499992,2.2105256 0 0 0 -1.316891,-2.009041 c 0.248624,-1.350601 0.749832,-2.850273 1.513189,-4.326066 2.289186,2.255336 5.235072,4.137657 8.453601,4.995263 1.945776,0.518465 3.933968,0.645533 5.778802,0.568468 -0.138186,0.602197 -0.291876,1.183387 -0.476068,1.715457 -0.481756,1.391734 -1.119344,2.508788 -1.851556,3.232321 -0.732217,0.723533 -1.5173,1.071342 -2.493165,1.033307 -2.151597,-0.08386 -3.37024,-1.051233 -4.133781,-2.020581 -0.76354,-0.969363 -0.996095,-1.891047 -0.996095,-1.891047 a 0.75007511,0.73691585 0 1 0 -1.45605,0.351137 c 0,0 0.304146,1.221612 1.26561,2.442227 0.961471,1.220619 2.65547,2.488923 5.26026,2.590463 1.402322,0.05469 2.654534,-0.515738 3.616713,-1.46649 0.962152,-0.950753 1.676124,-2.262823 2.207515,-3.797902 0.248956,-0.719233 0.454864,-1.492524 0.624004,-2.301196 1.528529,-0.161387 2.874328,-0.44375 3.962414,-0.729642 a 2.2499992,2.2105256 0 0 0 2.916499,0.57997 2.2499992,2.2105256 0 0 0 0.823245,-3.019322 2.2499992,2.2105256 0 0 0 -2.000969,-1.105271 2.2499992,2.2105256 0 0 0 -1.072273,0.296475 2.2499992,2.2105256 0 0 0 -1.122059,1.821956 c -0.897507,0.219869 -2.008419,0.440983 -3.234386,0.592926 0.316469,-2.251213 0.362335,-4.716566 0.146478,-7.174137 -0.216583,-2.46608 -0.727481,-4.865561 -1.532224,-6.961142 0.0209,-0.0055 0.04351,-0.0122 0.06454,-0.01734 1.511287,-0.360251 2.85238,-0.462191 3.83789,-0.295021 0.985515,0.16717 1.567462,0.536948 1.886718,1.191605 1.521953,3.120961 -1.007806,6.536594 -1.007806,6.536594 a 0.7502945,0.73713134 0 0 0 1.201168,0.883642 c 0,0 3.128235,-4.017551 1.158698,-8.056333 -0.55363,-1.135277 -1.686193,-1.787478 -2.983892,-2.007608 -0.648859,-0.110061 -1.349931,-0.129583 -2.094731,-0.07204 -0.744791,0.05761 -1.532842,0.19174 -2.352542,0.387132 -0.09924,0.0236 -0.203077,0.05659 -0.303213,0.082 -0.656103,-1.360322 -1.456326,-2.54415 -2.400892,-3.471226 A 2.2499992,2.2105256 0 0 0 25.875038,8.4542829 2.2499992,2.2105256 0 0 0 24.80277,8.1592587 Z m 3.58449,8.164275 c 0.782203,1.958908 1.323214,4.259747 1.533681,6.656044 0.218389,2.486442 0.143658,4.985623 -0.199219,7.200042 -1.834544,0.113305 -3.818575,0.02665 -5.679193,-0.469161 -3.039452,-0.809892 -5.914314,-2.692442 -8.078616,-4.908924 1.034633,-1.620705 2.393268,-3.137713 4.08106,-4.295862 2.657914,-1.82381 5.662808,-3.31584 8.342287,-4.182139 z M 24,21.42087 c -1.646773,0 -3.000001,1.329479 -3.000001,2.947365 0,1.617875 1.353228,2.947371 3.000001,2.947371 1.646768,0 3.000009,-1.329496 3.000009,-2.947371 0,-1.617886 -1.353241,-2.947365 -3.000009,-2.947365 z"
     id="path3" />
  <path
     style="fill:none;stroke:#00b5d9;stroke-width:1.48675;stroke-linecap:round;stroke-opacity:1"
     d="m 35.265,23.012635 c 0,0 2.828746,-3.716346 1.083006,-7.296212 -1.745746,-3.579869 -10.218664,-1.020557 -16.732467,3.449083 -4.689354,3.217716 -6.947947,8.890095 -6.865537,12.571344"
     id="path4" />
  <path
     style="fill:none;stroke:#00afd1;stroke-width:1.48675;stroke-linecap:round;stroke-opacity:1"
     d="m 18.750009,33.210527 c 0,0 1.071817,4.287223 5.82822,4.472623 C 29.33462,37.86857 31.35055,29.9571 30.667504,22.180132 30.175787,16.581427 28.036184,11.402081 24.750006,9.63159"
     id="path5" />
  <path
     style="fill:none;stroke:#00b4d8;stroke-width:1.48675;stroke-linecap:round;stroke-opacity:1"
     d="m 20.249995,14.199997 c 0,0 -6.613151,-3.923368 -8.545488,0.611968 -1.932358,4.535342 4.473728,12.830243 12.141958,14.873505 5.352569,1.42623 11.357535,-0.276975 12.903542,-0.896"
     id="path6" />
  <path
     style="fill:#00aed1;stroke-width:0.743396;fill-opacity:1"
     d="m 24,20.684209 c -1.646773,0 -3.000001,1.329487 -3.000001,2.947368 0,1.617876 1.353228,2.947376 3.000001,2.947376 1.646768,0 3.000009,-1.3295 3.000009,-2.947376 0,-1.617881 -1.353241,-2.947368 -3.000009,-2.947368 z"
     id="path7" />
  <path
     style="opacity:0.1;fill:#ffffff;stroke-width:0.743396"
     d="M 24,3 A 21,20.631577 0 0 0 3,23.631577 21,20.631577 0 0 0 3.016113,23.93091 21,20.631577 0 0 1 24,3.7368415 21,20.631577 0 0 1 44.983884,24.057575 21,20.631577 0 0 0 45.000004,23.631577 21,20.631577 0 0 0 24.000004,3 Z"
     id="path8" />
  <path
     style="fill:#00b4d8;stroke-width:0.743396;fill-opacity:1"
     d="M 24.644543,7.4239307 A 2.2499992,2.2105256 0 0 0 22.801752,8.5263119 2.2499992,2.2105256 0 0 0 23.624998,11.545635 2.2499992,2.2105256 0 0 0 26.698249,10.73685 2.2499992,2.2105256 0 0 0 25.874993,7.7175175 2.2499992,2.2105256 0 0 0 24.644543,7.4239307 Z M 36.697274,26.578953 a 2.2499992,2.2105256 0 0 0 -1.072273,0.296464 2.2499992,2.2105256 0 0 0 -0.823227,3.019329 2.2499992,2.2105256 0 0 0 3.073224,0.808787 2.2499992,2.2105256 0 0 0 0.823245,-3.019332 2.2499992,2.2105256 0 0 0 -2.000969,-1.105248 z m -23.947272,2.947355 a 2.2499992,2.2105256 0 0 0 -2.250008,2.210542 2.2499992,2.2105256 0 0 0 2.250008,2.210523 2.2499992,2.2105256 0 0 0 2.249995,-2.210523 2.2499992,2.2105256 0 0 0 -2.249995,-2.210542 z"
     id="path9" />
  <path
     style="fill:#494c60;stroke-width:0.743396"
     d="M 24.750006,8.894745 A 0.74999997,0.73684204 0 0 0 24,9.63159 0.74999997,0.73684204 0 0 0 24.750006,10.368415 0.74999997,0.73684204 0 0 0 25.499992,9.63159 0.74999997,0.73684204 0 0 0 24.750006,8.894745 Z m 12.000001,19.15789 a 0.74999997,0.73684204 0 0 0 -0.75001,0.736835 0.74999997,0.73684204 0 0 0 0.75001,0.736838 0.74999997,0.73684204 0 0 0 0.749995,-0.736838 0.74999997,0.73684204 0 0 0 -0.749995,-0.736835 z m -24.000005,2.947362 a 0.74999997,0.73684204 0 0 0 -0.750003,0.736853 0.74999997,0.73684204 0 0 0 0.750003,0.736844 0.74999997,0.73684204 0 0 0 0.750006,-0.736844 0.74999997,0.73684204 0 0 0 -0.750006,-0.736853 z"
     id="path10" />
</svg>
