<?xml version="1.0" encoding="UTF-8" standalone="no"?>
<svg
   xmlns:dc="http://purl.org/dc/elements/1.1/"
   xmlns:cc="http://creativecommons.org/ns#"
   xmlns:rdf="http://www.w3.org/1999/02/22-rdf-syntax-ns#"
   xmlns:svg="http://www.w3.org/2000/svg"
   xmlns="http://www.w3.org/2000/svg"
   xmlns:sodipodi="http://sodipodi.sourceforge.net/DTD/sodipodi-0.dtd"
   xmlns:inkscape="http://www.inkscape.org/namespaces/inkscape"
   width="48"
   height="48"
   version="1.1"
   id="svg29"
   sodipodi:docname="grub-customizer.svg"
   inkscape:version="1.0.2 (e86c870879, 2021-01-15)">
  <metadata
     id="metadata33">
    <rdf:RDF>
      <cc:Work
         rdf:about="">
        <dc:format>image/svg+xml</dc:format>
        <dc:type
           rdf:resource="http://purl.org/dc/dcmitype/StillImage" />
      </cc:Work>
    </rdf:RDF>
  </metadata>
  <sodipodi:namedview
     pagecolor="#ffffff"
     bordercolor="#666666"
     borderopacity="1"
     objecttolerance="10"
     gridtolerance="10"
     guidetolerance="10"
     inkscape:pageopacity="0"
     inkscape:pageshadow="2"
     inkscape:window-width="1920"
     inkscape:window-height="1005"
     id="namedview31"
     showgrid="true"
     inkscape:zoom="13.083333"
     inkscape:cx="9.5923567"
     inkscape:cy="24"
     inkscape:window-x="0"
     inkscape:window-y="0"
     inkscape:window-maximized="1"
     inkscape:current-layer="svg29">
    <inkscape:grid
       type="xygrid"
       id="grid858" />
  </sodipodi:namedview>
  <defs
     id="defs17">
    <linearGradient
       id="a"
       y1="543.8"
       y2="503.8"
       x2="0"
       gradientUnits="userSpaceOnUse">
      <stop
         stop-color="#2a2c2f"
         id="stop2" />
      <stop
         offset="1"
         stop-color="#424649"
         id="stop4" />
    </linearGradient>
    <linearGradient
       id="b"
       y1="40"
       y2="8"
       x2="0"
       gradientUnits="userSpaceOnUse">
      <stop
         stop-color="#d5d5d6"
         id="stop7" />
      <stop
         offset="1"
         stop-color="#f4f5f5"
         id="stop9" />
    </linearGradient>
    <linearGradient
       id="c"
       y1="7"
       x1="6"
       y2="33"
       x2="32"
       gradientUnits="userSpaceOnUse">
      <stop
         stop-color="#292c2f"
         id="stop12" />
      <stop
         offset="1"
         stop-opacity="0"
         id="stop14" />
    </linearGradient>
  </defs>
  <g
     transform="translate(-384.57,-499.8)"
     id="g27">
    <rect
       width="40"
       x="388.57001"
       y="503.79999"
       fill="url(#a)"
       rx="3.0000074"
       height="40"
       id="rect19"
       ry="3.0000122" />
    <path
       opacity="0.2"
       fill="url(#c)"
       fill-rule="evenodd"
       d="M 40,8 V 40 H 8 l 4,4 H 44 V 12 Z"
       transform="translate(384.57,499.8)"
       id="path21" />
    <rect
       width="31.999992"
       x="392.57001"
       y="542.79999"
       fill="#1c1e20"
       height="1.0000122"
       id="rect23"
       ry="6.1035157e-06" />
    <path
       fill="url(#b)"
       d="M 8,8 V 40 H 40 V 8 Z M 9,9 H 39 V 30 H 9 Z m 1,3 v 2 H 32 V 12 Z M 9,31 h 30 v 8 H 9 Z m 2,3 v 1 h 1 v -1 z m 2,0 v 1 h 1 v -1 z m 2,0 v 1 h 1 v -1 z m 16,0 v 1 h 1 v -1 z m 2,0 v 1 h 1 v -1 z m 2,0 v 1 h 1 v -1 z"
       transform="translate(384.57,499.8)"
       id="path25" />
  </g>
</svg>
