<?xml version="1.0" encoding="UTF-8" standalone="no"?>
<svg
   width="48"
   height="48"
   version="1"
   id="svg11"
   sodipodi:docname="hexalate.svg"
   inkscape:version="1.4 (e7c3feb100, 2024-10-09)"
   xmlns:inkscape="http://www.inkscape.org/namespaces/inkscape"
   xmlns:sodipodi="http://sodipodi.sourceforge.net/DTD/sodipodi-0.dtd"
   xmlns="http://www.w3.org/2000/svg"
   xmlns:svg="http://www.w3.org/2000/svg">
  <defs
     id="defs11" />
  <sodipodi:namedview
     id="namedview11"
     pagecolor="#ffffff"
     bordercolor="#000000"
     borderopacity="0.25"
     inkscape:showpageshadow="2"
     inkscape:pageopacity="0.0"
     inkscape:pagecheckerboard="0"
     inkscape:deskcolor="#d1d1d1"
     inkscape:zoom="11.71875"
     inkscape:cx="32"
     inkscape:cy="32"
     inkscape:window-width="1920"
     inkscape:window-height="996"
     inkscape:window-x="0"
     inkscape:window-y="0"
     inkscape:window-maximized="1"
     inkscape:current-layer="svg11" />
  <g
     id="g11"
     transform="matrix(0.75,0,0,0.75,0.375,0)">
    <path
       style="opacity:0.2;stroke-width:0.982303"
       d="M 59,32.49123 A 27.5,27.50877 0 0 1 31.5,60 27.5,27.50877 0 0 1 4,32.49123 27.5,27.50877 0 0 1 31.5,4.982456 27.5,27.50877 0 0 1 59,32.49123 Z"
       id="path1" />
    <path
       style="fill:#2a3854;fill-opacity:1;stroke-width:0.982303"
       d="M 59,31.50877 A 27.5,27.50877 0 0 1 31.5,59.01754 27.5,27.50877 0 0 1 4,31.50877 27.5,27.50877 0 0 1 31.5,4 27.5,27.50877 0 0 1 59,31.50877 Z"
       id="path2" />
    <path
       style="opacity:0.2;stroke-width:0.982303"
       d="M 31.5,4.982456 A 27.5,27.50877 0 0 0 25.449843,5.6924342 L 31.5,31.117322 37.553991,5.6809216 A 27.5,27.50877 0 0 0 31.5,4.982456 Z M 51.67997,13.843751 32.689319,31.80428 57.733962,24.332232 A 27.5,27.50877 0 0 0 51.67997,13.843751 Z m -40.356105,0.0078 A 27.5,27.50877 0 0 0 5.2391886,24.32456 l 25.0715024,7.47972 z m 18.986826,19.326642 -25.0446474,7.47204 a 27.5,27.50877 0 0 0 6.0501524,10.48849 z m 2.378628,0 18.986815,17.952848 A 27.5,27.50877 0 0 0 57.760817,40.657904 Z M 31.5,33.865142 25.446009,59.301546 A 27.5,27.50877 0 0 0 31.5,60 27.5,27.50877 0 0 0 37.550157,59.290024 Z"
       id="path3" />
    <path
       style="fill:#ff5454;stroke-width:0.982303"
       d="M 31.5,4 A 27.5,27.50877 0 0 0 25.449462,4.709211 L 31.5,30.13333 37.553222,4.6984646 A 27.5,27.50877 0 0 0 31.5,4 Z"
       id="path4" />
    <path
       style="fill:#fff129;stroke-width:0.982303"
       d="M 51.681892,12.862443 32.689699,30.82105 57.732428,23.350162 A 27.5,27.50877 0 0 0 51.681892,12.862443 Z"
       id="path5" />
    <path
       style="fill:#c552da;stroke-width:0.982303"
       d="M 11.323485,12.867822 A 27.5,27.50877 0 0 0 5.2407227,23.34211 l 25.0695783,7.47894 z"
       id="path6" />
    <path
       style="fill:#336eef;stroke-width:0.982303"
       d="M 30.310301,32.19649 5.2675778,39.667378 a 27.5,27.50877 0 0 0 6.0505402,10.487718 z"
       id="path7" />
    <path
       style="fill:#45cb32;stroke-width:0.982303"
       d="M 32.689699,32.19649 51.676516,50.149728 A 27.5,27.50877 0 0 0 57.759284,39.67544 Z"
       id="path8" />
    <path
       style="fill:#00d4ea;stroke-width:0.982303"
       d="M 31.5,32.88421 25.446778,58.319084 A 27.5,27.50877 0 0 0 31.5,59.01754 27.5,27.50877 0 0 0 37.550538,58.308334 Z"
       id="path9" />
    <path
       style="opacity:0.1;fill:#ffffff;stroke-width:0.982303"
       d="M 31.5,4 A 27.5,27.50877 0 0 0 4,31.50877 27.5,27.50877 0 0 0 4.0172646,31.992328 27.5,27.50877 0 0 1 31.5,4.982456 27.5,27.50877 0 0 1 58.975067,31.992328 27.5,27.50877 0 0 0 59,31.50877 27.5,27.50877 0 0 0 31.5,4 Z"
       id="path10" />
    <path
       style="opacity:0.1;fill:#ffffff;stroke-width:0.982303"
       d="M 31.5,4 A 27.5,27.50877 0 0 0 25.449843,4.7099782 L 25.672364,5.642544 A 27.5,27.50877 0 0 1 31.5,4.982456 27.5,27.50877 0 0 1 37.329558,5.6406249 L 37.553991,4.6984645 A 27.5,27.50877 0 0 0 31.5,4 Z m 20.181892,8.863214 -18.992573,17.958607 1.517327,-0.452847 17.475246,-16.52331 a 27.5,27.50877 0 0 1 5.725962,9.600056 l 0.324184,-0.09596 A 27.5,27.50877 0 0 0 51.681892,12.86321 Z m -40.358027,0.0039 A 27.5,27.50877 0 0 0 5.2411061,23.34211 l 0.3011656,0.0902 a 27.5,27.50877 0 0 1 5.7815933,-9.582784 l 17.469489,16.519463 1.517337,0.452847 z M 30.310691,32.19572 5.2679622,39.667768 A 27.5,27.50877 0 0 0 5.5921461,40.55428 L 28.793354,33.631026 Z m 2.378628,0 1.517327,1.435306 23.251084,6.936687 A 27.5,27.50877 0 0 0 57.758894,39.67544 Z M 31.5,32.884591 25.446009,58.319082 a 27.5,27.50877 0 0 0 0.224433,0.04032 L 31.5,33.867071 37.327636,58.357475 a 27.5,27.50877 0 0 0 0.222521,-0.04988 z"
       id="path11" />
  </g>
</svg>
