<?xml version="1.0" encoding="UTF-8" standalone="no"?>
<svg
   xmlns:dc="http://purl.org/dc/elements/1.1/"
   xmlns:cc="http://creativecommons.org/ns#"
   xmlns:rdf="http://www.w3.org/1999/02/22-rdf-syntax-ns#"
   xmlns:svg="http://www.w3.org/2000/svg"
   xmlns="http://www.w3.org/2000/svg"
   xmlns:xlink="http://www.w3.org/1999/xlink"
   xmlns:sodipodi="http://sodipodi.sourceforge.net/DTD/sodipodi-0.dtd"
   xmlns:inkscape="http://www.inkscape.org/namespaces/inkscape"
   width="48"
   height="48"
   version="1.1"
   id="svg73"
   sodipodi:docname="calligrawords.svg"
   inkscape:version="1.0.2 (e86c870879, 2021-01-15)">
  <metadata
     id="metadata77">
    <rdf:RDF>
      <cc:Work
         rdf:about="">
        <dc:format>image/svg+xml</dc:format>
        <dc:type
           rdf:resource="http://purl.org/dc/dcmitype/StillImage" />
      </cc:Work>
    </rdf:RDF>
  </metadata>
  <sodipodi:namedview
     pagecolor="#ffffff"
     bordercolor="#666666"
     borderopacity="1"
     objecttolerance="10"
     gridtolerance="10"
     guidetolerance="10"
     inkscape:pageopacity="0"
     inkscape:pageshadow="2"
     inkscape:window-width="1920"
     inkscape:window-height="1005"
     id="namedview75"
     showgrid="true"
     inkscape:zoom="13.083333"
     inkscape:cx="9.5923567"
     inkscape:cy="24"
     inkscape:window-x="0"
     inkscape:window-y="0"
     inkscape:window-maximized="1"
     inkscape:current-layer="svg73">
    <inkscape:grid
       type="xygrid"
       id="grid902" />
  </sodipodi:namedview>
  <defs
     id="defs39">
    <linearGradient
       id="a"
       y1="44"
       x1="27"
       y2="33"
       x2="19"
       gradientUnits="userSpaceOnUse"
       gradientTransform="matrix(1 0 0 1.25-5-6)">
      <stop
         stop-color="#18222a"
         id="stop2" />
      <stop
         offset="1"
         stop-color="#566069"
         id="stop4" />
    </linearGradient>
    <linearGradient
       id="b"
       y1="36"
       y2="32"
       x2="0"
       gradientUnits="userSpaceOnUse"
       gradientTransform="translate(-4.5 4)">
      <stop
         stop-color="#f39c12"
         id="stop7" />
      <stop
         offset="1"
         stop-color="#f5ab35"
         id="stop9" />
    </linearGradient>
    <linearGradient
       id="c"
       y1="543.8"
       y2="503.8"
       gradientUnits="userSpaceOnUse"
       x2="0"
       gradientTransform="matrix(1.125 0 0 1-435.64-499.8)">
      <stop
         stop-color="#bd8d48"
         id="stop12" />
      <stop
         offset="1"
         stop-color="#e8b971"
         id="stop14" />
    </linearGradient>
    <linearGradient
       id="d"
       y1="541.8"
       y2="505.8"
       gradientUnits="userSpaceOnUse"
       x2="0"
       gradientTransform="translate(-384.57-499.8)">
      <stop
         stop-color="#d8dcde"
         id="stop17" />
      <stop
         offset="1"
         stop-color="#f9fafb"
         id="stop19" />
    </linearGradient>
    <linearGradient
       id="e"
       y1="542.8"
       y2="504.8"
       gradientUnits="userSpaceOnUse"
       x2="0"
       gradientTransform="translate(-384.57-499.8)">
      <stop
         stop-color="#977a5c"
         id="stop22" />
      <stop
         offset="1"
         stop-color="#9d8062"
         id="stop24" />
    </linearGradient>
    <linearGradient
       id="f"
       y1="4"
       x1="11"
       y2="22.13"
       x2="29.13"
       gradientUnits="userSpaceOnUse"
       gradientTransform="translate(7 4)">
      <stop
         id="stop27" />
      <stop
         offset="1"
         stop-opacity="0"
         id="stop29" />
    </linearGradient>
    <linearGradient
       id="g"
       y1="4"
       x1="8"
       y2="32"
       x2="21"
       gradientUnits="userSpaceOnUse"
       gradientTransform="translate(7 4)">
      <stop
         stop-color="#bdc3c7"
         id="stop32" />
      <stop
         offset="1"
         stop-color="#7f8c8d"
         id="stop34" />
    </linearGradient>
    <linearGradient
       xlink:href="#f"
       id="h"
       y1="8.773"
       x1="21.57"
       y2="29.2"
       x2="42"
       gradientUnits="userSpaceOnUse" />
    <linearGradient
       xlink:href="#f"
       id="i"
       y1="39"
       x1="14"
       y2="46"
       x2="21"
       gradientUnits="userSpaceOnUse" />
  </defs>
  <rect
     width="36"
     x="6"
     y="4"
     fill="url(#c)"
     rx="3"
     height="40"
     id="rect41"
     ry="3" />
  <rect
     width="34"
     x="7"
     opacity="0.5"
     y="5"
     fill="url(#e)"
     height="38"
     id="rect43"
     ry="2"
     rx="2" />
  <rect
     width="30"
     x="9"
     y="43"
     fill="#aa7f41"
     height="1"
     id="rect45"
     ry="0" />
  <rect
     width="32"
     x="8"
     y="6"
     fill="url(#d)"
     height="36"
     id="rect47"
     ry="1"
     rx="1" />
  <g
     fill="#1f1f1f"
     fill-opacity="0.314"
     id="g53">
    <rect
       width="28"
       x="10"
       y="40"
       height="2"
       id="rect49"
       ry="0.87840396" />
    <rect
       width="28"
       x="10"
       y="41"
       height="1"
       id="rect51"
       ry="0.5" />
  </g>
  <g
     fill-rule="evenodd"
     id="g59">
    <path
       opacity="0.2"
       fill="url(#h)"
       d="M 21.57,8.773 21,10 22,44 H 42 V 29.203 Z"
       id="path55" />
    <path
       opacity="0.2"
       fill="url(#f)"
       d="m 18,8 2,2 2,20 -7,2 z"
       id="path57" />
  </g>
  <g
     stroke-linejoin="bevel"
     id="g69">
    <path
       fill="url(#g)"
       stroke-width="2"
       d="m18 8a2 2 0 0 0 -2 2 2 2 0 0 0 .855469 1.636719C15.389 16.06 12.71 23.29 10 26c0 0 4 6 4 10h10C24 32 28 26 28 26 25.29 23.29 22.613 16.07 21.15 11.639A2 2 0 0 0 22 10 2 2 0 0 0 20 8v18.27c.618.357.999 1.017 1 1.73 0 1.105-.895 2-2 2-1.105 0-2-.895-2-2 .001-.713.382-1.372 1-1.729V12z"
       id="path61" />
    <g
       stroke-width="6.2"
       id="g67">
      <path
         fill="url(#b)"
         d="m14 36h10c.831 0 1.5.669 1.5 1.5 0 .831-.669 1.5-1.5 1.5h-10c-.831 0-1.5-.669-1.5-1.5 0-.831.669-1.5 1.5-1.5"
         id="path63" />
      <rect
         width="10"
         x="14"
         y="39"
         fill="url(#a)"
         rx="0"
         height="5"
         stroke-linecap="round"
         id="rect65" />
    </g>
  </g>
  <path
     opacity=".2"
     fill="url(#i)"
     fill-rule="evenodd"
     d="m14 39l5 5h5v-5z"
     id="path71" />
</svg>
