<?xml version="1.0" encoding="UTF-8" standalone="no"?>
<svg
   xmlns:dc="http://purl.org/dc/elements/1.1/"
   xmlns:cc="http://creativecommons.org/ns#"
   xmlns:rdf="http://www.w3.org/1999/02/22-rdf-syntax-ns#"
   xmlns:svg="http://www.w3.org/2000/svg"
   xmlns="http://www.w3.org/2000/svg"
   xmlns:sodipodi="http://sodipodi.sourceforge.net/DTD/sodipodi-0.dtd"
   xmlns:inkscape="http://www.inkscape.org/namespaces/inkscape"
   width="48"
   height="48"
   version="1.1"
   id="svg31"
   sodipodi:docname="libreoffice-base.svg"
   inkscape:version="1.0.2 (e86c870879, 2021-01-15)">
  <metadata
     id="metadata35">
    <rdf:RDF>
      <cc:Work
         rdf:about="">
        <dc:format>image/svg+xml</dc:format>
        <dc:type
           rdf:resource="http://purl.org/dc/dcmitype/StillImage" />
      </cc:Work>
    </rdf:RDF>
  </metadata>
  <sodipodi:namedview
     pagecolor="#ffffff"
     bordercolor="#666666"
     borderopacity="1"
     objecttolerance="10"
     gridtolerance="10"
     guidetolerance="10"
     inkscape:pageopacity="0"
     inkscape:pageshadow="2"
     inkscape:window-width="1920"
     inkscape:window-height="1005"
     id="namedview33"
     showgrid="true"
     inkscape:zoom="13.083333"
     inkscape:cx="9.5923567"
     inkscape:cy="24"
     inkscape:window-x="0"
     inkscape:window-y="0"
     inkscape:window-maximized="1"
     inkscape:current-layer="svg31">
    <inkscape:grid
       type="xygrid"
       id="grid860" />
  </sodipodi:namedview>
  <defs
     id="defs17">
    <linearGradient
       id="a"
       y1="785.71"
       y2="727.71"
       gradientUnits="userSpaceOnUse"
       x2="0"
       gradientTransform="matrix(.72727 0 0 .68966-383.84-497.87)">
      <stop
         stop-color="#8e44ad"
         id="stop2" />
      <stop
         offset="1"
         stop-color="#9b59b6"
         id="stop4" />
    </linearGradient>
    <linearGradient
       id="b"
       y1="16"
       x1="16"
       y2="32"
       x2="32"
       gradientUnits="userSpaceOnUse"
       gradientTransform="translate(384.57 499.8)">
      <stop
         stop-color="#383e51"
         id="stop7" />
      <stop
         offset="1"
         stop-color="#655c6f"
         stop-opacity="0"
         id="stop9" />
    </linearGradient>
    <linearGradient
       id="c"
       y1="32"
       y2="16"
       x2="0"
       gradientUnits="userSpaceOnUse">
      <stop
         stop-color="#b985ce"
         id="stop12" />
      <stop
         offset="1"
         stop-color="#e2cdeb"
         id="stop14" />
    </linearGradient>
  </defs>
  <g
     transform="translate(-384.57,-499.8)"
     id="g29">
    <path
       fill="url(#a)"
       d="M 11.264575,3.9626162 C 9,3.9575575 8.1009627,4.7796193 8.0933301,7.139814 L 8,36 c -0.014332,4.431977 0.004,8 0.01,8 H 39.99 C 39.996,44 40,40.432 40,36 V 16 L 28,4 Z"
       transform="translate(384.57,499.8)"
       id="path19"
       sodipodi:nodetypes="ssssssccs" />
    <path
       fill="#713e88"
       d="m 424.57,513.8 c 0.006,-0.009 0.0127,-4.06405 0.006,-6.82805 C 424.57,504.8 423.57,503.8 421.57,503.8 l -7,0.01 v 0.01 z"
       id="path21"
       sodipodi:nodetypes="cscccc" />
    <rect
       width="32"
       x="392.57001"
       y="542.79999"
       fill="#2e3132"
       height="1"
       fill-opacity="0.294"
       id="rect23" />
    <path
       opacity="0.2"
       fill="url(#b)"
       fill-rule="evenodd"
       d="m 402.57,516.8 -2,1 v 12 l 13.09,14 h 10.906 v -18 l -9,-9 -0.535,0.465 -0.465,-0.465 z"
       id="path25" />
    <path
       fill="url(#c)"
       color="#000000"
       stroke-width="2"
       d="m 24,16 c -4.418,0 -8,0.895 -8,2 v 12 c 0,1.105 3.582,2 8,2 4.418,0 8,-0.895 8,-2 V 18 c 0,-1.105 -3.582,-2 -8,-2 m 0,1 c 3.866,0 7,0.448 7,1 0,0.552 -3.134,1 -7,1 -3.866,0 -7,-0.448 -7,-1 0,-0.552 3.134,-1 7,-1 m -7,1.949 c 1.355,0.623 3.964,1.051 7,1.051 3.036,0 5.645,-0.428 7,-1.051 V 22 c 0,0.552 -3.134,1 -7,1 -3.866,0 -7,-0.448 -7,-1 z m 0,4 c 1.355,0.623 3.964,1.051 7,1.051 3.036,0 5.645,-0.428 7,-1.051 V 26 c 0,0.552 -3.134,1 -7,1 -3.866,0 -7,-0.448 -7,-1 z m 0,4 c 1.355,0.623 3.964,1.051 7,1.051 3.036,0 5.645,-0.428 7,-1.051 V 30 c 0,0.552 -3.134,1 -7,1 -3.866,0 -7,-0.448 -7,-1 z"
       transform="translate(384.57,499.8)"
       id="path27" />
  </g>
</svg>
