<?xml version="1.0" encoding="UTF-8" standalone="no"?>
<svg
   width="48"
   height="48"
   x="0"
   y="0"
   version="1.1"
   viewBox="-2.01 0 48 48"
   id="svg7"
   sodipodi:docname="mellowplayer.svg"
   inkscape:version="1.3.2 (091e20ef0f, 2023-11-25)"
   xmlns:inkscape="http://www.inkscape.org/namespaces/inkscape"
   xmlns:sodipodi="http://sodipodi.sourceforge.net/DTD/sodipodi-0.dtd"
   xmlns="http://www.w3.org/2000/svg"
   xmlns:svg="http://www.w3.org/2000/svg">
  <defs
     id="defs7" />
  <sodipodi:namedview
     id="namedview7"
     pagecolor="#ffffff"
     bordercolor="#999999"
     borderopacity="1"
     inkscape:showpageshadow="2"
     inkscape:pageopacity="0"
     inkscape:pagecheckerboard="0"
     inkscape:deskcolor="#d1d1d1"
     showgrid="true"
     inkscape:zoom="8.4300387"
     inkscape:cx="19.216994"
     inkscape:cy="34.460103"
     inkscape:window-width="1920"
     inkscape:window-height="996"
     inkscape:window-x="0"
     inkscape:window-y="0"
     inkscape:window-maximized="1"
     inkscape:current-layer="svg7">
    <inkscape:grid
       id="grid7"
       units="px"
       originx="0"
       originy="0"
       spacingx="1"
       spacingy="1"
       empcolor="#0099e5"
       empopacity="0.30196078"
       color="#0099e5"
       opacity="0.14901961"
       empspacing="5"
       dotted="false"
       gridanglex="30"
       gridanglez="30"
       visible="true" />
  </sodipodi:namedview>
  <path
     style="opacity:0.2;stroke-width:1"
     d="M 15.413075,3.7368423 A 12.423075,12.526315 0 0 0 2.9900009,16.263158 12.423075,12.526315 0 0 0 5.9501872,24.359787 12.423075,12.526315 0 0 0 2.9900011,32.473684 12.423075,12.526315 0 0 0 15.413075,45 12.423075,12.526315 0 0 0 27.330894,35.976563 11.692307,11.789474 0 0 0 29.29769,36.157895 11.692307,11.789474 0 0 0 40.989997,24.368421 11.692307,11.789474 0 0 0 29.29769,12.578947 11.692307,11.789474 0 0 0 27.328039,12.748767 12.423075,12.526315 0 0 0 15.413075,3.7368423 Z"
     id="path1" />
  <ellipse
     style="fill:#5f81d4;stroke-width:1"
     cx="29.297688"
     cy="23.631575"
     id="circle1"
     rx="11.692307"
     ry="11.789474" />
  <ellipse
     style="fill:#5f81d4;stroke-width:1"
     cx="15.413077"
     cy="15.526316"
     id="circle2"
     rx="12.423077"
     ry="12.526316" />
  <path
     style="opacity:0.2;fill:#ffffff;stroke-width:1"
     d="M 15.413075,3.0000001 A 12.423075,12.526315 0 0 0 2.9900009,15.526315 12.423075,12.526315 0 0 0 3.0057008,15.835732 12.423075,12.526315 0 0 1 15.413075,3.7368423 12.423075,12.526315 0 0 1 27.329468,12.747328 11.692307,11.789474 0 0 1 29.29769,12.578947 11.692307,11.789474 0 0 1 40.974297,24.059005 11.692307,11.789474 0 0 0 40.99,23.631579 11.692307,11.789474 0 0 0 29.297693,11.842105 11.692307,11.789474 0 0 0 27.329471,12.010486 12.423075,12.526315 0 0 0 15.413078,3.0000001 Z"
     id="path2" />
  <ellipse
     style="fill:#5f81d4;stroke-width:1"
     cx="15.413077"
     cy="31.736841"
     id="circle3"
     rx="12.423077"
     ry="12.526316" />
  <path
     style="opacity:0.2;stroke-width:1"
     d="M 23.451537,9.6315791 A 7.3076917,7.368421 0 0 0 16.143845,17 7.3076917,7.368421 0 0 0 23.451537,24.368421 7.3076917,7.368421 0 0 0 30.75923,17 7.3076917,7.368421 0 0 0 23.451537,9.6315791 Z m 0,14.7368419 a 7.3076917,7.368421 0 0 0 -7.307692,7.368421 7.3076917,7.368421 0 0 0 7.307692,7.368421 7.3076917,7.368421 0 0 0 7.307693,-7.368421 7.3076917,7.368421 0 0 0 -7.307693,-7.368421 z M 10.297693,17 a 7.3076917,7.368421 0 0 0 -7.3076919,7.368421 7.3076917,7.368421 0 0 0 7.3076919,7.368421 7.3076917,7.368421 0 0 0 7.30769,-7.368421 A 7.3076917,7.368421 0 0 0 10.297693,17 Z"
     id="path3" />
  <ellipse
     style="fill:#f2f2f2;stroke-width:1"
     cx="10.297692"
     cy="23.631575"
     id="circle4"
     rx="7.3076925"
     ry="7.3684216" />
  <ellipse
     style="fill:#f2f2f2;stroke-width:1"
     cx="23.451534"
     cy="30.999996"
     id="circle5"
     rx="7.3076925"
     ry="7.3684216" />
  <ellipse
     style="fill:#f2f2f2;stroke-width:1"
     cx="23.451534"
     cy="16.263157"
     id="circle6"
     rx="7.3076925"
     ry="7.3684216" />
  <path
     style="opacity:0.2;stroke-width:1"
     d="m 10.774715,9.7138421 c 0.50257,-0.2498731 0.985388,0.14918 0.985388,0.14918 l 11.529832,6.7771759 11.14797,6.559382 c 0,0 0.705938,0.342364 0.705938,1.160608 0,0.820482 -0.711789,1.087511 -0.711789,1.087511 L 23.264332,32.007078 11.4748,38.931199 c 0,0 -0.343823,0.303579 -0.787138,0.108905 -0.506228,-0.22377 -0.374549,-0.792886 -0.374549,-0.792886 V 24.323642 10.62458 c 7.31e-4,0 -0.05559,-0.6534009 0.461602,-0.9107339 z"
     id="path6" />
  <path
     style="fill:#ffbf00;stroke-width:1"
     d="m 10.774715,8.9769991 c 0.50257,-0.249872 0.985388,0.1491788 0.985388,0.1491788 l 11.529832,6.7771781 11.14797,6.559382 c 0,0 0.705938,0.342364 0.705938,1.160608 0,0.820482 -0.711789,1.08751 -0.711789,1.08751 L 23.264332,31.270235 11.4748,38.194357 c 0,0 -0.343823,0.303578 -0.787138,0.108905 -0.506228,-0.22377 -0.374549,-0.792887 -0.374549,-0.792887 V 23.5868 9.8877371 c 7.31e-4,0 -0.05559,-0.6534005 0.461602,-0.9107345 z"
     id="path7" />
</svg>
