<?xml version="1.0" encoding="UTF-8" standalone="no"?>
<svg
   width="48"
   height="48"
   version="1.1"
   id="svg12"
   sodipodi:docname="openra-cnc.svg"
   inkscape:version="1.4.2 (unknown)"
   xmlns:inkscape="http://www.inkscape.org/namespaces/inkscape"
   xmlns:sodipodi="http://sodipodi.sourceforge.net/DTD/sodipodi-0.dtd"
   xmlns="http://www.w3.org/2000/svg"
   xmlns:svg="http://www.w3.org/2000/svg">
  <defs
     id="defs12" />
  <sodipodi:namedview
     id="namedview12"
     pagecolor="#ffffff"
     bordercolor="#000000"
     borderopacity="0.25"
     inkscape:showpageshadow="2"
     inkscape:pageopacity="0.0"
     inkscape:pagecheckerboard="0"
     inkscape:deskcolor="#d1d1d1"
     inkscape:zoom="7.0710678"
     inkscape:cx="39.244426"
     inkscape:cy="46.315494"
     inkscape:window-width="1920"
     inkscape:window-height="996"
     inkscape:window-x="0"
     inkscape:window-y="0"
     inkscape:window-maximized="1"
     inkscape:current-layer="svg12" />
  <g
     id="g12"
     transform="matrix(0.75,0,0,0.75,0.375,0)">
    <ellipse
       style="opacity:0.2;stroke-width:0.982302"
       cx="31.5"
       cy="32.491226"
       id="circle1"
       rx="27.5"
       ry="27.508774" />
    <ellipse
       style="fill:#9cafc9;fill-opacity:0.7;stroke-width:0.982302"
       cx="31.5"
       cy="31.508774"
       id="circle2"
       rx="27.5"
       ry="27.508774" />
    <ellipse
       style="fill:#2d3d53;fill-opacity:1;stroke-width:0.982302"
       cx="31.5"
       cy="31.508774"
       id="circle3"
       rx="20.624992"
       ry="20.631573" />
    <path
       style="opacity:0.2;stroke-width:0.982302"
       d="m 31.499991,13.824558 a 18.660712,18.666666 0 0 0 -18.660703,18.666667 18.660712,18.666666 0 0 0 18.660703,18.666657 18.660712,18.666666 0 0 0 6.604661,-1.231767 l -1.007488,-3.893231 a 14.661989,14.666667 0 0 1 -5.597173,1.125 14.661989,14.666667 0 0 1 -14.661981,-14.666659 14.661989,14.666667 0 0 1 14.661981,-14.666668 14.661989,14.666667 0 0 1 5.604982,1.122398 l 1.012699,-3.901043 a 18.660712,18.666666 0 0 0 -6.617681,-1.221354 z"
       id="path3" />
    <path
       style="fill:#8d5fd3;stroke-width:0.982302"
       d="M 31.499991,12.842108 A 18.660712,18.666666 0 0 0 12.839288,31.508765 18.660712,18.666666 0 0 0 31.499991,50.175431 18.660712,18.666666 0 0 0 38.104652,48.943657 L 37.097164,45.050434 A 14.661989,14.666667 0 0 1 31.499991,46.175433 14.661989,14.666667 0 0 1 16.83801,31.508765 14.661989,14.666667 0 0 1 31.499991,16.842106 a 14.661989,14.666667 0 0 1 5.604982,1.12239 l 1.012699,-3.901035 a 18.660712,18.666666 0 0 0 -6.617681,-1.221353 z"
       id="path4" />
    <path
       style="opacity:0.2;stroke-width:0.982302"
       d="m 31.499991,19.719296 a 12.767853,12.771927 0 0 0 -12.767853,12.771929 12.767853,12.771927 0 0 0 12.767853,12.771927 12.767853,12.771927 0 0 0 5.042305,-1.040218 l -0.975042,-3.771702 a 8.9374977,8.9403492 0 0 1 -4.067263,0.980341 8.9374977,8.9403492 0 0 1 -8.937496,-8.940348 8.9374977,8.9403492 0 0 1 8.937496,-8.94035 8.9374977,8.9403492 0 0 1 4.067263,0.99032 l 0.975042,-3.766715 a 12.767853,12.771927 0 0 0 -5.042305,-1.055184 z"
       id="path5" />
    <path
       style="fill:#8d5fd3;stroke-width:0.982302"
       d="m 31.499991,18.736838 a 12.767853,12.771927 0 0 0 -12.767853,12.771927 12.767853,12.771927 0 0 0 12.767853,12.771927 12.767853,12.771927 0 0 0 5.042305,-1.040209 l -0.975042,-3.771711 a 8.9374977,8.9403492 0 0 1 -4.067263,0.980341 8.9374977,8.9403492 0 0 1 -8.937496,-8.940348 8.9374977,8.9403492 0 0 1 8.937496,-8.940348 8.9374977,8.9403492 0 0 1 4.067263,0.990326 l 0.975042,-3.766722 a 12.767853,12.771927 0 0 0 -5.042305,-1.055183 z"
       id="path6" />
    <path
       style="opacity:0.2;stroke-width:0.982302"
       d="m 34.871124,26.492908 a 6.8791254,6.8813202 0 0 0 -6.739049,0.0064 l 0.935807,3.559085 -3.564294,-0.939268 a 6.8791254,6.8813202 0 0 0 0.0064,6.741201 l 3.557956,-0.936107 -0.938972,3.565426 a 6.8791254,6.8813202 0 0 0 6.739048,-0.0064 l -0.935801,-3.559091 3.564286,0.939272 a 6.8791254,6.8813202 0 0 0 -0.0064,-6.741198 l -3.55795,0.9361 z"
       id="path7" />
    <path
       style="fill:#c83771;stroke-width:0.982302"
       d="m 34.871124,25.510449 a 6.8791254,6.8813202 0 0 0 -6.739049,0.0064 l 0.935807,3.559092 -3.564294,-0.939273 a 6.8791254,6.8813202 0 0 0 0.0064,6.741199 l 3.557956,-0.936099 -0.938972,3.565424 a 6.8791254,6.8813202 0 0 0 6.739048,-0.0064 l -0.935812,-3.559084 3.564286,0.939265 a 6.8791254,6.8813202 0 0 0 -0.0064,-6.741198 l -3.557949,0.936106 z"
       id="path8" />
    <path
       style="opacity:0.1;fill:#ffffff;stroke-width:0.982302"
       d="M 31.499991,4 A 27.499991,27.508765 0 0 0 4,31.508765 27.499991,27.508765 0 0 0 4.0211007,32.084423 27.499991,27.508765 0 0 1 31.499991,4.9824558 27.499991,27.508765 0 0 1 58.978885,31.915567 27.499991,27.508765 0 0 0 58.999982,31.508765 27.499991,27.508765 0 0 0 31.499991,4 Z"
       id="path9" />
    <path
       style="opacity:0.2;fill:#ffffff;stroke-width:0.982302"
       d="m 31.499991,12.842108 a 18.660712,18.666666 0 0 0 -18.660703,18.666657 18.660712,18.666666 0 0 0 0.02108,0.401043 18.660712,18.666666 0 0 1 18.639606,-18.08525 18.660712,18.666666 0 0 1 6.38201,1.143642 l 0.235948,-0.905703 A 18.660712,18.666666 0 0 0 31.499989,12.842108 Z M 16.859934,32.084423 a 14.661989,14.666667 0 0 0 -0.02108,0.406802 14.661989,14.666667 0 0 0 14.661163,14.66584 14.661989,14.666667 0 0 0 5.59745,-1.12445 l 0.773054,2.991501 a 18.660712,18.666666 0 0 0 0.234026,-0.08063 l -1.007095,-3.893342 a 14.661989,14.666667 0 0 1 -5.59745,1.12445 A 14.661989,14.666667 0 0 1 16.85994,32.084411 Z"
       id="path10" />
    <path
       style="opacity:0.2;fill:#ffffff;stroke-width:0.982302"
       d="m 31.499991,18.736838 a 12.767853,12.771927 0 0 0 -12.767853,12.771927 12.767853,12.771927 0 0 0 0.02108,0.412554 12.767853,12.771927 0 0 1 12.746748,-12.202023 12.767853,12.771927 0 0 1 4.810962,0.96902 l 0.232116,-0.896101 A 12.767853,12.771927 0 0 0 31.499983,18.736838 Z M 22.58206,32.09594 a 8.9374977,8.9403492 0 0 0 -0.01922,0.395285 8.9374977,8.9403492 0 0 0 8.937115,8.939966 8.9374977,8.9403492 0 0 0 4.066687,-0.980536 l 0.744276,2.878287 a 12.767853,12.771927 0 0 0 0.232113,-0.08824 L 35.566659,39.46821 a 8.9374977,8.9403492 0 0 1 -4.066687,0.980537 8.9374977,8.9403492 0 0 1 -8.917931,-8.352792 z"
       id="path11" />
    <path
       style="opacity:0.2;fill:#ffffff;stroke-width:0.982302"
       d="m 31.582479,24.631575 a 6.8791254,6.8813202 0 0 0 -3.45093,0.884593 l 0.228269,0.865408 a 6.8791254,6.8813202 0 0 1 6.282268,-0.002 l 0.22827,-0.869238 a 6.8791254,6.8813202 0 0 0 -3.287877,-0.878793 z m -6.078924,3.505758 a 6.8791254,6.8813202 0 0 0 -0.85554,3.889526 6.8791254,6.8813202 0 0 1 0.85554,-2.907074 l 3.564101,0.938327 -0.278146,-1.055377 z m 11.987123,0.002 -3.280199,0.863487 -0.278152,1.055377 3.558351,-0.936406 a 6.8791254,6.8813202 0 0 1 0.861297,2.851425 6.8791254,6.8813202 0 0 0 -0.861297,-3.833883 z m -8.423022,6.785088 -0.278146,0.07292 -0.659875,2.509868 a 6.8791254,6.8813202 0 0 0 0.228271,0.113213 z m 4.864671,0 0.707837,2.694078 a 6.8791254,6.8813202 0 0 0 0.22827,-0.117051 l -0.657955,-2.504121 z"
       id="path12" />
  </g>
</svg>
