<?xml version="1.0" encoding="UTF-8" standalone="no"?>
<svg
   width="48"
   height="48"
   version="1.1"
   id="svg2"
   sodipodi:docname="zotero.svg"
   inkscape:version="1.3.2 (091e20ef0f, 2023-11-25)"
   xmlns:inkscape="http://www.inkscape.org/namespaces/inkscape"
   xmlns:sodipodi="http://sodipodi.sourceforge.net/DTD/sodipodi-0.dtd"
   xmlns="http://www.w3.org/2000/svg"
   xmlns:svg="http://www.w3.org/2000/svg">
  <defs
     id="defs2" />
  <sodipodi:namedview
     id="namedview2"
     pagecolor="#ffffff"
     bordercolor="#999999"
     borderopacity="1"
     inkscape:showpageshadow="2"
     inkscape:pageopacity="0"
     inkscape:pagecheckerboard="0"
     inkscape:deskcolor="#d1d1d1"
     inkscape:zoom="4.7288856"
     inkscape:cx="28.336486"
     inkscape:cy="40.918731"
     inkscape:window-width="1920"
     inkscape:window-height="994"
     inkscape:window-x="0"
     inkscape:window-y="0"
     inkscape:window-maximized="1"
     inkscape:current-layer="svg2" />
  <g
     id="g2"
     transform="matrix(0.77777778,0,0,0.77777778,-0.88888896,-0.88888896)">
    <circle
       cx="32"
       cy="32"
       r="27"
       style="paint-order:stroke fill markers;fill:#232f46;fill-opacity:1"
       id="circle1" />
    <path
       d="m 51.412,43.208 c -0.784,1.358 -17.842,11.207 -19.411,11.207 -1.57,0 -18.629,-9.849 -19.413,-11.208 -0.783,-1.357 -0.784,-21.056 0,-22.415 C 13.372,19.434 30.431,9.586 32,9.585 c 1.57,0 18.628,9.85 19.412,11.208 0.784,1.358 0.784,21.056 0,22.415 z"
       display="block"
       opacity="1.0"
       overflow="visible"
       paint-order="fill markers stroke"
       style="isolation:auto;mix-blend-mode:normal;fill:#3b4f76;fill-opacity:1;opacity:1"
       id="path1" />
    <path
       d="m 20.95,46 h 22.1 V 40.2 H 30.1 L 42.65,21.95 V 18 h -20.3 v 5.8 h 11.1 l -12.5,18.25 z"
       aria-label="z"
       font-family="sans-serif"
       font-size="50px"
       font-weight="700"
       letter-spacing="0"
       word-spacing="0"
       id="path2"
       style="fill:#c83771" />
  </g>
</svg>
