<?xml version="1.0" encoding="UTF-8" standalone="no"?>
<svg
   xmlns:dc="http://purl.org/dc/elements/1.1/"
   xmlns:cc="http://creativecommons.org/ns#"
   xmlns:rdf="http://www.w3.org/1999/02/22-rdf-syntax-ns#"
   xmlns:svg="http://www.w3.org/2000/svg"
   xmlns="http://www.w3.org/2000/svg"
   xmlns:xlink="http://www.w3.org/1999/xlink"
   xmlns:sodipodi="http://sodipodi.sourceforge.net/DTD/sodipodi-0.dtd"
   xmlns:inkscape="http://www.inkscape.org/namespaces/inkscape"
   width="48"
   height="48"
   version="1.1"
   id="svg60"
   sodipodi:docname="kmix.svg"
   inkscape:version="0.92.5 (2060ec1f9f, 2020-04-08)">
  <metadata
     id="metadata64">
    <rdf:RDF>
      <cc:Work
         rdf:about="">
        <dc:format>image/svg+xml</dc:format>
        <dc:type
           rdf:resource="http://purl.org/dc/dcmitype/StillImage" />
        <dc:title></dc:title>
      </cc:Work>
    </rdf:RDF>
  </metadata>
  <sodipodi:namedview
     pagecolor="#ffffff"
     bordercolor="#666666"
     borderopacity="1"
     objecttolerance="10"
     gridtolerance="10"
     guidetolerance="10"
     inkscape:pageopacity="0"
     inkscape:pageshadow="2"
     inkscape:window-width="1076"
     inkscape:window-height="480"
     id="namedview62"
     showgrid="false"
     inkscape:zoom="4.9166667"
     inkscape:cx="2.6440678"
     inkscape:cy="24"
     inkscape:window-x="0"
     inkscape:window-y="25"
     inkscape:window-maximized="0"
     inkscape:current-layer="svg60" />
  <defs
     id="defs34">
    <linearGradient
       id="c"
       y1="44"
       y2="4"
       x2="0"
       gradientUnits="userSpaceOnUse"
       gradientTransform="translate(384.57 499.8)">
      <stop
         stop-color="#18222a"
         id="stop2" />
      <stop
         offset="1"
         stop-color="#566069"
         id="stop4" />
    </linearGradient>
    <linearGradient
       id="d"
       y1="540.8"
       y2="536.8"
       gradientUnits="userSpaceOnUse"
       x2="0">
      <stop
         stop-color="#2f3943"
         id="stop7" />
      <stop
         offset="1"
         stop-color="#4d5662"
         id="stop9" />
    </linearGradient>
    <linearGradient
       id="a"
       y1="537.8"
       y2="538.8"
       x2="0"
       gradientUnits="userSpaceOnUse">
      <stop
         stop-color="#197cf1"
         id="stop12" />
      <stop
         offset="1"
         stop-color="#21c9fb"
         id="stop14" />
    </linearGradient>
    <linearGradient
       xlink:href="#a"
       id="l"
       y1="539.8"
       y2="538.8"
       gradientUnits="userSpaceOnUse"
       x2="0"
       gradientTransform="translate(-2,-1078.6)" />
    <linearGradient
       id="b"
       y1="543.8"
       y2="503.8"
       x2="0"
       gradientUnits="userSpaceOnUse">
      <stop
         stop-color="#2f3943"
         id="stop18" />
      <stop
         offset="1"
         stop-color="#808c9b"
         id="stop20" />
    </linearGradient>
    <linearGradient
       xlink:href="#b"
       id="h"
       y1="499.8"
       y2="547.8"
       gradientUnits="userSpaceOnUse"
       x2="0"
       gradientTransform="translate(0,-2)" />
    <linearGradient
       id="f"
       y1="13"
       x1="13"
       y2="39"
       x2="38"
       gradientUnits="userSpaceOnUse">
      <stop
         stop-color="#292c2f"
         id="stop24" />
      <stop
         offset="1"
         stop-opacity="0"
         id="stop26" />
    </linearGradient>
    <linearGradient
       xlink:href="#c"
       id="e"
       gradientUnits="userSpaceOnUse"
       gradientTransform="translate(384.57,499.8)"
       y1="44"
       x2="0"
       y2="4" />
    <linearGradient
       xlink:href="#a"
       id="j"
       gradientUnits="userSpaceOnUse"
       y1="537.8"
       x2="0"
       y2="538.8"
       gradientTransform="translate(2)" />
    <linearGradient
       xlink:href="#d"
       id="i"
       gradientUnits="userSpaceOnUse"
       y1="540.8"
       x2="0"
       y2="536.8"
       gradientTransform="translate(2)" />
    <linearGradient
       xlink:href="#d"
       id="k"
       gradientUnits="userSpaceOnUse"
       y1="540.8"
       x2="0"
       y2="536.8"
       gradientTransform="translate(-2)" />
    <linearGradient
       xlink:href="#b"
       id="g"
       gradientUnits="userSpaceOnUse"
       y1="543.8"
       x2="0"
       y2="503.8"
       gradientTransform="translate(0,-2)" />
  </defs>
  <g
     transform="translate(-384.57,-499.8)"
     id="g58">
    <path
       d="m 396.57,503.8 a 5.983,5.983 0 0 0 -5.53,3.66 6.01,6.01 0 0 0 -0.47,2.34 v 28 a 5.983,5.983 0 0 0 3.66,5.53 6.01,6.01 0 0 0 2.34,0.47 h 24 a 5.983,5.983 0 0 0 5.53,-3.66 6.01,6.01 0 0 0 0.47,-2.34 v -28 a 5.983,5.983 0 0 0 -3.66,-5.53 6.01,6.01 0 0 0 -2.34,-0.47 z"
       id="path36"
       style="fill:url(#e)"
       inkscape:connector-curvature="0" />
    <path
       d="M 34.605,13.395 13.395,34.605 22.788,44 H 42.001 V 20.79 Z"
       transform="translate(384.57,499.8)"
       id="path38"
       style="opacity:0.2;fill:url(#f)"
       inkscape:connector-curvature="0" />
    <rect
       width="30"
       x="393.57001"
       y="506.79999"
       rx="15"
       height="30"
       id="rect40"
       style="fill:#26333a" />
    <rect
       width="28"
       x="394.57001"
       y="507.79999"
       rx="14"
       height="28"
       id="rect42"
       style="fill:url(#g)" />
    <rect
       width="22"
       x="397.57001"
       y="510.79999"
       rx="11"
       height="22"
       id="rect44"
       style="fill:url(#h)" />
    <rect
       width="10"
       x="403.57001"
       y="516.79999"
       rx="5"
       height="10"
       id="rect46"
       style="fill:#26333a" />
    <path
       d="m 392.158,541.8 c 0.066,0.073 0.096,0.176 0.166,0.246 a 5.983,5.983 0 0 0 4.246,1.754 h 24 a 5.983,5.983 0 0 0 4.246,-1.754 c 0.07,-0.07 0.1,-0.173 0.166,-0.246 z"
       id="path48"
       inkscape:connector-curvature="0"
       style="fill:#13191f" />
    <rect
       width="4"
       x="393.57001"
       y="536.79999"
       rx="2"
       height="4"
       id="rect50"
       style="fill:url(#i)" />
    <circle
       cx="396.67001"
       cy="538.29999"
       r="0.5"
       id="circle52"
       style="fill:url(#j)" />
    <rect
       width="4"
       x="419.57001"
       y="536.79999"
       rx="2"
       height="4"
       id="rect54"
       style="fill:url(#k)" />
    <circle
       cx="422.67001"
       cy="-539.29999"
       r="0.5"
       transform="scale(1,-1)"
       id="circle56"
       style="fill:url(#l)" />
  </g>
</svg>
