<?xml version="1.0" encoding="UTF-8" standalone="no"?>
<svg
   xmlns:dc="http://purl.org/dc/elements/1.1/"
   xmlns:cc="http://creativecommons.org/ns#"
   xmlns:rdf="http://www.w3.org/1999/02/22-rdf-syntax-ns#"
   xmlns:svg="http://www.w3.org/2000/svg"
   xmlns="http://www.w3.org/2000/svg"
   xmlns:xlink="http://www.w3.org/1999/xlink"
   xmlns:sodipodi="http://sodipodi.sourceforge.net/DTD/sodipodi-0.dtd"
   xmlns:inkscape="http://www.inkscape.org/namespaces/inkscape"
   width="48"
   height="48"
   version="1.1"
   id="svg50"
   sodipodi:docname="preferences-system-network-iscsi.svg"
   inkscape:version="0.92.5 (2060ec1f9f, 2020-04-08)">
  <metadata
     id="metadata54">
    <rdf:RDF>
      <cc:Work
         rdf:about="">
        <dc:format>image/svg+xml</dc:format>
        <dc:type
           rdf:resource="http://purl.org/dc/dcmitype/StillImage" />
        <dc:title></dc:title>
      </cc:Work>
    </rdf:RDF>
  </metadata>
  <sodipodi:namedview
     pagecolor="#ffffff"
     bordercolor="#666666"
     borderopacity="1"
     objecttolerance="10"
     gridtolerance="10"
     guidetolerance="10"
     inkscape:pageopacity="0"
     inkscape:pageshadow="2"
     inkscape:window-width="1085"
     inkscape:window-height="480"
     id="namedview52"
     showgrid="false"
     inkscape:zoom="4.9166667"
     inkscape:cx="24"
     inkscape:cy="24"
     inkscape:window-x="0"
     inkscape:window-y="25"
     inkscape:window-maximized="0"
     inkscape:current-layer="svg50" />
  <defs
     id="defs26">
    <linearGradient
       id="b"
       y1="38"
       y2="5"
       x2="0"
       gradientUnits="userSpaceOnUse"
       gradientTransform="translate(40)">
      <stop
         stop-color="#eef1f2"
         id="stop2" />
      <stop
         offset="1"
         stop-color="#f9fafb"
         id="stop4" />
    </linearGradient>
    <linearGradient
       xlink:href="#a"
       id="e"
       gradientUnits="userSpaceOnUse"
       gradientTransform="matrix(1.125,0,0,1,-435.64,-499.8)"
       y1="543.8"
       x2="0"
       y2="503.8" />
    <linearGradient
       xlink:href="#b"
       id="f"
       gradientUnits="userSpaceOnUse"
       y1="38"
       x2="0"
       y2="5" />
    <linearGradient
       id="a"
       gradientTransform="matrix(.58696 0 0 .53846 -227.988 -270.353)"
       gradientUnits="userSpaceOnUse"
       x1="388.423"
       x2="388.423"
       y1="557.798"
       y2="505.798">
      <stop
         offset="0"
         stop-color="#7f8c8d"
         id="stop9" />
      <stop
         offset="1"
         stop-color="#afb0b3"
         id="stop11" />
    </linearGradient>
    <linearGradient
       id="c">
      <stop
         offset="0"
         stop-color="#292c2f"
         id="stop14" />
      <stop
         offset="1"
         stop-opacity="0"
         id="stop16" />
    </linearGradient>
    <linearGradient
       id="g"
       gradientUnits="userSpaceOnUse"
       x1="10"
       x2="24"
       xlink:href="#c"
       y1="9"
       y2="23"
       gradientTransform="matrix(1.42857,0,0,1.42857,1.143,1.143)" />
    <linearGradient
       id="d"
       gradientUnits="userSpaceOnUse"
       x1="16"
       x2="16"
       y1="22"
       y2="6"
       gradientTransform="translate(1.143 1.143) scale(1.42857)">
      <stop
         offset="0"
         stop-color="#3e3e3e"
         id="stop20" />
      <stop
         offset="1"
         stop-color="#5c5c5c"
         id="stop22" />
    </linearGradient>
    <linearGradient
       xlink:href="#d"
       id="h"
       x1="-15"
       y1="31.604"
       x2="-15"
       y2="9.897"
       gradientUnits="userSpaceOnUse"
       gradientTransform="translate(40,-0.066)" />
  </defs>
  <path
     d="M 16.838,4 A 10.809,10.809 0 0 0 9.168,7.168 10.809,10.809 0 0 0 6,14.838 V 44 H 42 V 29.773 H 41.996 V 14.838 A 10.81,10.81 0 0 0 38.828,7.168 10.809,10.809 0 0 0 31.158,4 Z"
     id="path28"
     style="fill:url(#e)"
     inkscape:connector-curvature="0" />
  <path
     d="M 6,39.9 H 42 V 44 H 6 Z"
     id="path30"
     inkscape:connector-curvature="0"
     style="fill:#626b6c" />
  <path
     d="m 6,43 h 36 v 1 H 6 Z"
     id="path32"
     inkscape:connector-curvature="0"
     style="fill:#737b81" />
  <g
     id="g36"
     style="fill:#292c2e;stroke-width:0.1">
    <path
       d="m 16,41 h 12 v 3 H 16 Z m 16,0 h 6 v 3 h -6 z"
       id="path34"
       inkscape:connector-curvature="0" />
  </g>
  <path
     d="M 17.367,6.025 A 9.34,9.34 0 0 0 8,15.392 v 4.659 c 1.698,0.243 3,1.684 3,3.451 a 3.48,3.48 0 0 1 -3,3.45 V 32 l 1.459,1.486 0.012,0.014 c 0.02,0.024 0.048,0.044 0.07,0.068 L 13.895,38 H 23.957 L 24,38.002 h 4.088 V 38 H 34 l 3.719,-3.719 c 0.292,-0.245 0.567,-0.502 0.81,-0.781 0.037,-0.043 0.068,-0.09 0.104,-0.133 L 40,32 v -5.049 a 3.48,3.48 0 0 1 -3,-3.449 3.483,3.483 0 0 1 3,-3.451 V 15.393 A 9.345,9.345 0 0 0 34.285,6.76 9.376,9.376 0 0 0 30.738,6.031 C 30.729,6.03 30.721,6.025 30.711,6.025 Z"
     id="path38"
     style="fill:url(#f)"
     inkscape:connector-curvature="0" />
  <path
     d="m 18,42 v 1 h 8 v -1 z m 15,0 v 1 h 3 v 1 h 1 v -2 z"
     id="path40"
     inkscape:connector-curvature="0"
     style="fill:#f6b44d" />
  <g
     id="g44"
     style="fill:#202324">
    <path
       d="m 16,43 h 12 v 1 H 16 Z m 16,0 h 6 v 1 h -6 z"
       id="path42"
       inkscape:connector-curvature="0" />
  </g>
  <path
     d="M 26.394,39.714 H 41.143 V 22.11 L 32,13 24,10.08 15.429,14 13.2,21.143 l 2.713,8.088 z"
     id="path46"
     style="opacity:0.2;fill:url(#g)"
     inkscape:connector-curvature="0" />
  <path
     d="m 24,10.013 c -6.094,0 -11,4.906 -11,11 0,6.094 4.906,11 11,11 6.094,0 11,-4.906 11,-11 0,-6.094 -4.906,-11 -11,-11 m 0,1 c 1.662,0 3.222,0.408 4.598,1.12 a 0.609,0.609 0 0 1 0,0.112 c 0.058,0.026 0.091,0.134 0.189,0.188 0.036,0.02 0.06,0.03 0.094,0.047 0.058,0.032 0.106,0.085 0.094,0.141 -0.016,0.082 -0.132,0.08 -0.188,0.14 0.008,0.115 -0.064,0.11 -0.094,0.188 0.018,0.05 0.086,0.034 0.094,0.094 -0.01,0.064 -0.118,0.073 -0.094,0.14 0.108,0.083 0.226,0.013 0.328,0 0.224,-0.029 0.423,0.013 0.561,-0.095 -0.018,-0.106 0.153,-0.138 0.141,-0.234 -0.01,-0.072 -0.134,-0.089 -0.188,-0.139 -0.012,-0.01 -0.028,-0.039 -0.041,-0.06 0.165,0.107 0.322,0.225 0.48,0.343 -0.039,0.032 -0.071,0.072 -0.111,0.09 -0.042,0.018 -0.103,0.023 -0.141,0.047 -0.056,0.038 -0.077,0.097 -0.141,0.14 -0.046,0.031 -0.186,0.14 -0.234,0.14 -0.058,0 -0.146,-0.059 -0.188,-0.045 -0.06,0.018 -0.026,0.115 -0.094,0.14 -0.132,0.047 -0.376,-0.105 -0.422,0.093 0.056,0.114 0.228,0.08 0.328,0.141 a 0.73,0.73 0 0 1 0.188,0.281 0.904,0.904 0 0 1 0,0.328 c -0.062,0.16 -0.238,0.145 -0.422,0.141 h -0.141 c -0.31,-0.02 -0.608,-0.128 -0.748,0.094 0.01,0.17 0.038,0.274 0,0.422 -0.028,0.108 -0.147,0.187 -0.141,0.281 0.002,0.048 0.082,0.122 0.094,0.188 0.008,0.036 -0.016,0.11 0,0.141 0.052,0.098 0.189,-0.016 0.281,0 0.088,0.014 0.189,0.136 0.189,0.234 0,0.07 -0.052,0.213 -0.096,0.281 -0.088,0.132 -0.249,0.116 -0.375,0.188 -0.104,0.06 -0.125,0.18 -0.188,0.283 -0.066,0.112 -0.12,0.168 -0.094,0.328 a 0.734,0.734 0 0 1 -0.377,0.375 c -0.054,0.024 -0.137,0.058 -0.188,0.094 a 0.922,0.922 0 0 0 -0.141,0.141 c -0.07,0.078 -0.149,0.128 -0.188,0.188 -0.028,0.046 -0.017,0.126 -0.047,0.188 -0.044,0.084 -0.132,0.15 -0.188,0.234 -0.026,0.04 -0.066,0.09 -0.094,0.141 -0.064,0.116 -0.153,0.226 -0.141,0.328 0.01,0.098 0.135,0.102 0.141,0.188 0.006,0.048 -0.049,0.087 -0.047,0.14 0.002,0.075 0.041,0.128 0.047,0.188 0.014,0.148 -0.066,0.18 -0.094,0.281 -0.014,0.048 0.012,0.103 0,0.141 -0.024,0.074 -0.139,0.144 -0.141,0.232 -0.002,0.062 0.088,0.101 0.094,0.19 0.004,0.06 -0.057,0.131 -0.045,0.187 0.022,0.108 0.244,0.244 0.328,0.328 0.114,0.114 0.231,0.208 0.281,0.328 0.042,0.102 0.063,0.252 0.141,0.328 0.058,0.056 0.16,0.081 0.234,0.14 0.07,0.053 0.158,0.082 0.232,0.14 0.122,0.096 0.275,0.295 0.469,0.281 0.102,-0.01 0.214,-0.074 0.328,-0.094 0.118,-0.02 0.255,-0.057 0.375,-0.045 0.092,0.01 0.187,0.051 0.283,0.045 0.1,-0.01 0.214,-0.044 0.328,-0.094 0.198,-0.086 0.507,-0.229 0.795,-0.188 0.22,0.032 0.223,0.277 0.377,0.375 0.176,0.016 0.327,-0.034 0.467,0 0.106,0.026 0.224,0.2 0.234,0.283 0.01,0.086 -0.082,0.178 -0.094,0.232 -0.028,0.116 -0.027,0.254 -0.047,0.328 -0.016,0.058 -0.047,0.13 -0.045,0.188 0,0.052 0.087,0.166 0.141,0.234 0.066,0.084 0.152,0.142 0.232,0.234 0.146,0.168 0.226,0.387 0.328,0.61 0.026,0.055 -0.024,0.07 0,0.14 -0.044,0.336 -0.155,0.566 -0.375,0.938 -0.104,0.12 -0.236,0.272 -0.234,0.422 -0.008,0.36 0.204,0.541 0.188,0.89 -0.036,0.467 -0.009,0.546 -0.045,0.796 0.158,0.08 0.091,0.301 0.045,0.467 -0.068,0.198 -0.149,0.245 -0.188,0.377 0.124,0.054 0.26,0.04 0.398,0.01 a 9.96,9.96 0 0 1 -7.293,3.158 10.01,10.01 0 0 1 -3.482,-0.63 c -0.04,-0.017 -0.084,-0.026 -0.123,-0.048 a 0.198,0.198 0 0 1 -0.094,-0.188 c 0.104,-0.044 0.301,0.1 0.377,-0.047 0.038,-0.07 -0.05,-0.21 0,-0.28 0.036,-0.049 0.254,-0.083 0.328,-0.095 0.106,-0.018 0.221,-0.01 0.281,-0.047 a 0.327,0.327 0 0 0 0.141,-0.28 c -0.006,-0.059 -0.048,-0.09 -0.094,-0.142 -0.038,-0.044 -0.021,-0.099 -0.047,-0.139 -0.048,-0.07 -0.121,-0.085 -0.141,-0.188 0.144,-0.028 0.355,0.152 0.563,0.094 0.098,-0.028 0.235,-0.236 0.281,-0.328 0.014,-0.028 -0.016,-0.107 0,-0.14 0.018,-0.039 0.09,-0.075 0.096,-0.095 0.014,-0.054 -0.012,-0.06 0,-0.094 0.036,-0.102 0.127,-0.16 0.188,-0.234 0.046,-0.056 0.099,-0.13 0.141,-0.188 0.048,-0.062 0.062,-0.087 0.094,-0.14 0.03,-0.183 -0.091,-0.308 -0.047,-0.468 0.048,-0.18 0.295,-0.295 0.469,-0.377 0.06,-0.028 0.138,-0.076 0.188,-0.094 0.12,-0.042 0.263,-0.054 0.375,-0.094 0.188,-0.068 0.236,-0.25 0.328,-0.422 a 0.85,0.85 0 0 0 0.096,-0.234 c 0.008,-0.052 -0.01,-0.079 0,-0.139 0.01,-0.06 0.029,-0.123 0.045,-0.189 0.022,-0.086 0.047,-0.23 0.047,-0.326 0,-0.08 -0.045,-0.117 -0.047,-0.189 -0.014,-0.26 0.091,-0.28 0.188,-0.422 0.048,-0.07 0.06,-0.182 0.094,-0.232 0.162,-0.24 0.442,-0.34 0.422,-0.705 -0.008,-0.12 -0.051,-0.384 -0.139,-0.422 -0.05,-0.022 -0.16,-0.017 -0.234,-0.045 -0.236,-0.088 -0.41,-0.357 -0.656,-0.377 h -0.141 c -0.096,0 -0.218,-0.082 -0.326,-0.094 -0.068,-0.01 -0.194,0.02 -0.234,0 -0.062,-0.03 -0.044,-0.154 -0.094,-0.188 -0.04,-0.028 -0.127,-0.025 -0.189,-0.047 -0.098,-0.038 -0.167,-0.086 -0.281,-0.094 -0.036,0 -0.101,0.01 -0.141,0 -0.062,-0.01 -0.13,-0.058 -0.188,-0.094 -0.072,-0.044 -0.111,-0.077 -0.141,-0.139 0.066,-0.216 -0.144,-0.25 -0.188,-0.377 -0.02,-0.058 0.02,-0.136 0,-0.188 -0.026,-0.074 -0.106,-0.126 -0.188,-0.188 -0.144,-0.112 -0.263,-0.208 -0.469,-0.234 -0.092,-0.01 -0.218,0.01 -0.328,0 A 0.534,0.534 0 0 1 20.394,21.246 C 20.31,21.148 20.28,21.058 20.206,21.012 20.136,20.968 20.02,20.964 19.972,20.918 19.95,20.898 19.947,20.87 19.927,20.824 c -0.036,-0.072 -0.091,-0.1 -0.047,-0.189 -0.08,-0.04 -0.053,0.063 -0.139,0.047 -0.078,-0.11 -0.152,-0.175 -0.328,-0.14 -0.08,0.015 -0.14,0.138 -0.234,0.14 -0.078,0 -0.132,-0.127 -0.234,-0.14 -0.078,-0.01 -0.18,0.058 -0.234,0.046 -0.086,-0.016 -0.11,-0.089 -0.188,-0.14 -0.058,-0.039 -0.156,-0.142 -0.188,-0.14 -0.1,0 -0.19,0.213 -0.328,0.14 -0.068,-0.087 0.125,-0.109 0.045,-0.189 -0.06,-0.06 -0.091,0.015 -0.139,0.047 A 0.87,0.87 0 0 1 17.725,20.4 c -0.138,0.052 -0.22,0.038 -0.328,0.094 -0.1,0.052 -0.131,0.132 -0.189,0.234 -0.046,0.084 -0.118,0.228 -0.188,0.232 -0.084,0.01 -0.158,-0.107 -0.234,-0.139 -0.23,-0.1 -0.371,0.043 -0.561,0.045 -0.176,0 -0.43,-0.256 -0.422,-0.422 0.006,-0.102 0.082,-0.249 0.094,-0.375 0.01,-0.1 0.092,-0.19 0.094,-0.283 0.002,-0.122 -0.203,-0.218 -0.283,-0.232 -0.188,-0.034 -0.44,0.084 -0.654,0 -0.04,-0.068 0.07,-0.123 0.094,-0.189 0.014,-0.038 -0.014,-0.052 0,-0.094 0.024,-0.064 0.109,-0.12 0.139,-0.188 0.022,-0.052 0.025,-0.124 0.047,-0.188 0.026,-0.072 0.088,-0.136 0.094,-0.188 0.008,-0.068 -0.04,-0.145 -0.094,-0.189 -0.166,0.01 -0.281,0 -0.377,0.047 -0.216,0.098 -0.157,0.401 -0.375,0.47 -0.074,0.023 -0.197,0.03 -0.281,0.044 -0.037,0.01 -0.078,0.013 -0.119,0.023 0.14,-0.726 0.356,-1.424 0.643,-2.084 0.048,0 0.098,-0.01 0.131,0 0.076,0.014 0.123,0.088 0.189,0.094 0.184,0.014 0.223,-0.154 0.375,-0.234 0.156,0.022 0.235,-0.016 0.377,0 0.096,0.01 0.205,0.135 0.281,0.141 0.064,0 0.081,-0.057 0.141,-0.047 0.06,0.01 0.178,0.116 0.188,0.188 0.01,0.09 -0.073,0.183 -0.047,0.283 0.094,0.096 0.288,0.132 0.422,0.188 0.088,-0.072 0.014,-0.224 0,-0.328 -0.002,-0.046 0.006,-0.099 0,-0.14 -0.01,-0.073 -0.045,-0.127 -0.045,-0.189 0,-0.286 0.23,-0.404 0.422,-0.516 0.082,-0.048 0.162,-0.152 0.234,-0.188 0.102,-0.05 0.15,-0.046 0.234,-0.094 a 2.98,2.98 0 0 0 0.422,-0.283 c 0.054,-0.13 -0.006,-0.294 0,-0.422 0.054,-0.034 0.081,0.01 0.139,0 0.092,-0.02 0.137,-0.136 0.189,-0.188 0.03,-0.03 0.103,-0.064 0.139,-0.094 0.092,-0.072 0.108,-0.156 0.188,-0.188 0.028,-0.01 0.097,-0.035 0.141,-0.047 0.06,-0.016 0.138,-0.06 0.234,-0.094 0.062,-0.022 0.21,-0.02 0.234,-0.045 0.03,-0.03 -0.008,-0.143 0,-0.189 0.048,-0.226 0.407,-0.25 0.609,-0.326 0.14,-0.054 0.266,-0.17 0.422,-0.14 -0.03,0.107 -0.167,0.103 -0.141,0.233 0.034,0.182 0.264,-0.068 0.328,-0.094 0.122,-0.052 0.356,-0.083 0.516,-0.14 0.14,-0.05 0.366,-0.12 0.234,-0.282 -0.11,-0.01 -0.138,0.1 -0.234,0.14 -0.066,0.01 -0.083,-0.042 -0.139,-0.046 -0.054,0 -0.087,0.055 -0.141,0.045 -0.054,-0.01 -0.133,-0.124 -0.141,-0.188 -0.022,-0.168 0.166,-0.204 0.234,-0.328 -0.046,-0.152 -0.247,-0.034 -0.375,-0.094 a 0.226,0.226 0 0 1 0.188,-0.188 c 0.086,-0.014 0.276,0 0.328,0.045 0.03,0.026 -10e-4,0.1 0.045,0.141 0.052,0.046 0.121,0.01 0.189,0 0.024,-0.114 -0.161,-0.067 -0.141,-0.14 0.136,-0.089 0.397,-0.024 0.563,-0.046 0.096,-0.014 0.195,-0.095 0.281,-0.14 0.08,-0.047 0.15,-0.122 0.234,-0.046 0.024,0.082 -0.048,0.146 -0.094,0.188 -0.154,0.136 -0.302,0.264 -0.422,0.422 0.074,0.072 0.204,0.031 0.328,0.045 0.048,0.01 0.089,0.04 0.139,0.047 0.06,0.01 0.141,-0.01 0.189,0 0.084,0.02 0.103,0.141 0.188,0.141 0.136,0 0.123,-0.142 0.045,-0.234 0.024,-0.094 0.081,-0.168 0.047,-0.234 -0.062,-0.124 -0.316,0.017 -0.328,-0.14 -0.008,-0.1 0.105,-0.113 0.141,-0.189 -0.016,-0.192 0.159,-0.2 0.139,-0.375 -0.01,-0.072 -0.089,-0.073 -0.139,-0.14 -0.026,-0.037 -0.017,-0.116 -0.047,-0.142 -0.104,-0.088 -0.316,-0.064 -0.328,-0.232 -0.006,-0.1 0.014,-0.175 0,-0.283 -0.014,-0.102 -0.099,-0.402 -0.188,-0.422 -0.112,-0.024 -0.194,0.172 -0.328,0.234 a 0.576,0.576 0 0 1 -0.281,0.047 c -0.048,-0.01 -0.135,-0.049 -0.141,-0.14 -0.01,-0.107 0.074,-0.123 0.094,-0.235 0.862,-0.24 1.767,-0.379 2.707,-0.379 m -4.03,0.847 c -0.029,0.411 -0.396,0.624 -0.828,0.613 -0.092,0.088 -0.044,0.253 -0.094,0.375 -0.042,0.102 -0.179,0.197 -0.281,0.19 -0.074,-0.01 -0.188,-0.12 -0.188,-0.19 0,-0.086 0.119,-0.134 0.045,-0.232 0.003,-0.02 0.03,-0.04 0.051,-0.063 a 9.92,9.92 0 0 1 1.295,-0.693 m 8.348,0.477 c -0.037,0.01 -0.057,0.026 -0.09,0.045 -0.076,0.046 -0.083,0.12 -0.141,0.141 -0.082,0.03 -0.175,0.02 -0.188,0.094 -0.01,0.062 0.049,0.083 0.047,0.14 -0.03,0.073 -0.078,0.096 -0.094,0.187 0.102,0.166 0.341,-0.01 0.467,-0.045 0.056,-0.016 0.111,0 0.141,-0.047 0.034,-0.054 0.019,-0.156 0.045,-0.232 0.028,-0.084 0.104,-0.067 0.094,-0.14 -0.008,-0.075 -0.157,-0.154 -0.281,-0.142 M 17.364,13.53 c 0.097,0.05 0.261,0.275 0.074,0.355 -0.02,0.01 -0.28,0.055 -0.328,0.045 -0.039,-0.01 -0.071,-0.04 -0.104,-0.076 0.115,-0.112 0.237,-0.218 0.357,-0.324 m 0.354,0.447 c 0.048,0 0.085,0.09 0.141,0.094 0.054,0 0.109,-0.057 0.141,-0.047 0.084,0.022 0.125,0.172 0.045,0.234 -0.066,0.01 -0.091,-0.055 -0.139,-0.045 -0.136,0.024 -0.181,0.29 -0.283,0.281 -0.096,-0.01 -0.143,-0.21 -0.045,-0.28 0.002,-0.06 -0.051,-0.082 -0.047,-0.142 0.03,-0.038 0.108,-0.1 0.188,-0.094 z m -0.467,0.047 c 0.028,0 0.035,-0.012 0.045,0 -0.014,0.106 -0.057,0.14 -0.139,0.19 a 0.567,0.567 0 0 0 -0.283,0.374 c -0.014,0.054 -0.164,0.201 -0.232,0.188 -0.158,-0.034 0.058,-0.329 0.094,-0.375 0.04,-0.05 0.093,-0.085 0.139,-0.14 0.046,-0.057 0.05,-0.157 0.094,-0.189 0.048,-0.034 0.199,-0.05 0.283,-0.047 z m 14.15,0.268 c 0.063,0.07 0.128,0.138 0.189,0.21 -0.063,-0.075 -0.166,-0.103 -0.189,-0.21 m -0.611,0.02 c 0.158,-0.01 0.256,0.184 0.328,0.28 0.06,0.078 0.23,0.18 0.328,0.234 0.056,0.03 0.125,0.066 0.188,0.094 0.13,0.058 0.369,0.247 0.375,0.375 0.002,0.064 -0.055,0.13 -0.045,0.19 0.098,0.015 0.185,-0.137 0.188,-0.235 a 0.089,0.089 0 0 0 -0.018,-0.053 c 0.283,0.396 0.538,0.812 0.762,1.248 -0.088,0.026 -0.164,0.068 -0.178,0.154 -0.02,0.112 0.074,0.261 -0.094,0.281 -0.106,0.014 -0.231,-0.109 -0.377,-0.14 -0.06,-0.015 -0.14,0.015 -0.188,0 -0.11,-0.039 -0.094,-0.167 -0.188,-0.233 a 0.813,0.813 0 0 0 -0.283,-0.094 c -0.054,-0.01 -0.083,0.01 -0.139,0 -0.068,-0.01 -0.178,-0.013 -0.234,-0.047 -0.054,-0.034 -0.173,-0.095 -0.188,-0.14 -0.022,-0.075 0.135,-0.17 0.139,-0.233 0.004,-0.048 -0.035,-0.069 -0.045,-0.14 -0.008,-0.045 0.01,-0.114 0,-0.142 -0.014,-0.052 -0.107,-0.092 -0.189,-0.094 -0.072,0 -0.126,0.047 -0.188,0.047 -0.088,0 -0.265,-0.057 -0.375,-0.047 -0.066,0.01 -0.127,0.043 -0.189,0.047 -0.174,0.014 -0.286,-0.01 -0.422,0 a 1.54,1.54 0 0 0 -0.375,0.094 c -0.046,0.022 -0.081,0.064 -0.141,0.094 a 2.186,2.186 0 0 1 -0.094,0.045 c -0.056,0.026 -0.134,0.082 -0.188,0.096 -0.078,0.02 -0.186,-0.01 -0.328,0 -0.102,0.01 -0.279,-0.019 -0.281,-0.14 -0.002,-0.187 0.34,-0.11 0.516,-0.142 0.066,-0.014 0.108,-0.093 0.188,-0.139 0.038,-0.022 0.058,-0.023 0.094,-0.047 0.06,-0.042 0.178,-0.14 0.188,-0.188 0.008,-0.044 -0.051,-0.109 -0.045,-0.14 0.008,-0.043 0.085,-0.086 0.139,-0.14 0.084,-0.084 0.13,-0.18 0.234,-0.234 0.07,-0.038 0.202,-0.038 0.234,-0.094 0.008,-0.064 -0.002,-0.083 0,-0.14 0.044,-0.04 0.058,-0.087 0.094,-0.095 0.108,-0.024 0.202,0.051 0.328,0.045 0.054,0 0.13,-0.01 0.188,-0.045 0.048,-0.032 0.093,-0.07 0.141,-0.094 0.052,-0.028 0.077,-0.09 0.141,-0.094 m -12.514,0.096 h 0.143 c 0.05,0 0.119,-0.02 0.139,0 -0.032,0.132 -0.318,0.093 -0.422,0.045 0.006,-0.05 0.077,-0.039 0.141,-0.045 m 13.314,0.096 c 0.057,0.067 0.116,0.131 0.172,0.2 -0.009,0 -0.023,-0.01 -0.031,-0.015 -0.056,-0.044 -0.085,-0.118 -0.141,-0.186 m -13.783,0.14 c 0.034,0 0.06,-0.015 0.096,0 a 1.07,1.07 0 0 1 -0.377,0.187 c -0.076,0.024 -0.173,0.037 -0.188,-0.047 -0.016,-0.104 0.073,-0.084 0.141,-0.094 0.088,-0.01 0.224,-0.043 0.326,-0.045 z m 13.03,0 c -0.066,0.021 -0.098,0.17 0,0.187 0.046,-0.028 0.059,-0.104 0.047,-0.188 -0.026,-0.028 -0.027,-0.01 -0.047,0 m -0.045,0.281 c -0.032,0.01 -0.06,0.01 -0.094,0.045 0.002,0.112 0.022,0.185 0,0.283 0.064,0.124 0.2,0.037 0.232,-0.047 0.038,-0.208 -0.043,-0.307 -0.139,-0.28 m 0.889,0.562 c -0.088,0 -0.18,0 -0.232,0.045 0.074,0.12 0.209,0.158 0.375,0.188 0.06,-0.044 0.066,-0.156 0.094,-0.232 H 31.684 Z M 14.109,19.6 c 0.113,0.101 0.191,0.272 0.326,0.34 0.05,0.025 0.123,0.032 0.188,0.046 0.052,0.01 0.091,0.03 0.141,0.045 0.106,0.036 0.244,0.058 0.328,0.096 0.128,0.056 0.218,0.262 0.328,0.326 0.006,0.064 -0.02,0.141 0,0.19 0.052,0.07 0.15,0.092 0.234,0.138 0.102,0.056 0.136,0.19 0.232,0.234 0.034,0.014 0.089,-0.016 0.141,0 0.132,0.04 0.169,0.221 0.283,0.188 0.074,-0.022 0.082,-0.116 0.094,-0.188 0.05,-0.054 0.11,-0.14 0.188,-0.14 0.124,0 0.142,0.16 0.188,0.282 0.026,0.068 0.076,0.116 0.094,0.188 0.03,0.124 0.026,0.49 0,0.563 -0.032,0.092 -0.158,0.132 -0.234,0.232 -0.036,0.048 -0.066,0.11 -0.094,0.141 -0.048,0.06 -0.103,0.087 -0.139,0.141 -0.02,0.03 -0.029,0.097 -0.047,0.14 -0.06,0.127 -0.144,0.222 -0.094,0.376 0.02,0.062 0.094,0.114 0.094,0.188 0,0.088 -0.173,0.138 -0.188,0.234 -0.01,0.07 0.072,0.187 0.094,0.281 0.016,0.07 0.146,0.142 0.188,0.188 0.07,0.078 0.125,0.183 0.189,0.283 0.126,0.194 0.202,0.42 0.326,0.61 0.066,0.097 0.19,0.176 0.234,0.28 0.022,0.052 -0.02,0.14 0,0.188 0.072,0.162 0.401,0.342 0.563,0.422 0.076,0.038 0.164,0.056 0.234,0.096 0.106,0.06 0.321,0.187 0.375,0.281 0.048,0.084 0.07,0.288 0.094,0.422 0.03,0.176 -0.008,0.326 0,0.516 0.006,0.104 0.047,0.177 0.047,0.281 0,0.036 0.002,0.105 0,0.141 -0.002,0.124 0.01,0.25 0,0.375 a 1.19,1.19 0 0 0 0,0.19 c 0.006,0.061 0.041,0.084 0.045,0.138 0.004,0.058 -0.051,0.143 -0.045,0.19 0.014,0.125 0.117,0.21 0.141,0.325 0.02,0.092 0.057,0.312 0.045,0.422 -0.008,0.058 -0.037,0.125 -0.045,0.19 -0.006,0.05 0.008,0.092 0,0.138 a 0.714,0.714 0 0 1 -0.029,0.121 9.967,9.967 0 0 1 -4.627,-8.432 c 0,-0.479 0.045,-0.946 0.109,-1.406 m 3.891,1.096 c 0.096,-0.044 0.078,0.13 0,0.141 -0.074,0.01 -0.072,-0.107 0,-0.14"
     id="path48"
     style="color:#000000;fill:url(#h)"
     inkscape:connector-curvature="0" />
</svg>
