<?xml version="1.0" encoding="UTF-8" standalone="no"?>
<svg
   width="48"
   height="48"
   version="1.1"
   id="svg4"
   sodipodi:docname="pulsar.svg"
   inkscape:version="1.4.2 (unknown)"
   xmlns:inkscape="http://www.inkscape.org/namespaces/inkscape"
   xmlns:sodipodi="http://sodipodi.sourceforge.net/DTD/sodipodi-0.dtd"
   xmlns:xlink="http://www.w3.org/1999/xlink"
   xmlns="http://www.w3.org/2000/svg"
   xmlns:svg="http://www.w3.org/2000/svg">
  <defs
     id="defs4">
    <linearGradient
       id="linearGradient4"
       inkscape:collect="always">
      <stop
         style="stop-color:#2e3b52;stop-opacity:1;"
         offset="0"
         id="stop4" />
      <stop
         style="stop-color:#691b98;stop-opacity:0.80000001;"
         offset="1"
         id="stop5" />
    </linearGradient>
    <linearGradient
       inkscape:collect="always"
       xlink:href="#linearGradient4"
       id="linearGradient5"
       x1="32.683052"
       y1="47.929852"
       x2="32.889732"
       y2="5.0180039"
       gradientUnits="userSpaceOnUse" />
  </defs>
  <sodipodi:namedview
     id="namedview4"
     pagecolor="#ffffff"
     bordercolor="#000000"
     borderopacity="0.25"
     inkscape:showpageshadow="2"
     inkscape:pageopacity="0.0"
     inkscape:pagecheckerboard="0"
     inkscape:deskcolor="#d1d1d1"
     inkscape:zoom="7.0710678"
     inkscape:cx="31.749095"
     inkscape:cy="49.0025"
     inkscape:window-width="1920"
     inkscape:window-height="996"
     inkscape:window-x="0"
     inkscape:window-y="0"
     inkscape:window-maximized="1"
     inkscape:current-layer="svg4" />
  <g
     id="g4"
     transform="matrix(0.75,0,0,0.75,0.50000034,3.4000002e-7)">
    <ellipse
       style="opacity:0.2;stroke-width:0.982332"
       cx="31.500006"
       cy="32.491222"
       id="circle1"
       rx="27.499994"
       ry="27.508778" />
    <ellipse
       style="fill:url(#linearGradient5);fill-opacity:1;stroke-width:0.982332"
       cx="31.500006"
       cy="31.508791"
       id="circle2"
       rx="27.499994"
       ry="27.508778" />
    <path
       style="opacity:0.1;fill:#ffffff;stroke-width:0.982332"
       d="M 31.49998,4 A 27.49998,27.508764 0 0 0 4,31.508764 27.49998,27.508764 0 0 0 4.0345715,31.999995 27.49998,27.508764 0 0 1 31.49998,4.982456 27.49998,27.508764 0 0 1 58.982287,31.756344 27.49998,27.508764 0 0 0 58.999964,31.508764 27.49998,27.508764 0 0 0 31.49998,4 Z"
       id="path2" />
    <path
       style="opacity:0.2;stroke-width:0.982332"
       d="m 51.169346,12.29291 -12.170711,10.202805 -1.094103,2.810812 c -0.164998,-0.06189 -0.350626,-0.103131 -0.536248,-0.103131 -0.350628,0 -0.701255,0.145403 -0.969379,0.4146 -0.536252,0.537403 -0.536252,1.425544 0,1.962944 0.268124,0.269197 0.618751,0.414601 0.990005,0.414601 0.350624,0 0.701244,-0.145404 0.989993,-0.414601 0.412507,-0.413611 0.514646,-1.01193 0.308401,-1.508071 l 2.806961,-1.095444 10.183827,-12.149052 a 27.49998,27.508764 0 0 0 -0.508746,-0.535441 z m -27.796588,0.549199 c -3.288217,0.01866 -6.22285,1.04631 -8.344283,3.16252 -2.898303,2.896281 -3.842141,7.355648 -2.692053,12.552837 0.301519,1.325338 0.730721,2.658529 1.277772,3.9819 -2.289377,6.003787 -2.407231,11.590028 0.03831,14.690665 l 1.191337,-1.415721 c -1.613663,-2.928706 -1.615629,-6.907649 -0.215088,-11.096844 1.118655,2.167297 2.545715,4.284493 4.24383,6.268068 l 1.12947,-1.355788 c -1.886691,-2.261612 -3.414906,-4.67649 -4.509996,-7.122801 1.436873,-3.227371 3.665358,-6.49502 6.60687,-9.43551 2.879647,-2.878596 6.117765,-5.135298 9.416783,-6.595228 2.403301,1.077753 4.828214,2.59565 7.124459,4.521262 l 1.355361,-1.130804 c -2.018306,-1.7193 -4.145627,-3.135018 -6.289642,-4.236347 0.707146,-0.234812 1.414286,-0.435234 2.117496,-0.591443 3.534728,-0.800698 6.658929,-0.512837 9.021963,0.781052 l 1.417229,-1.191718 c -1.934828,-1.228071 -4.317503,-1.836211 -6.999731,-1.78217 -1.218839,0.02456 -2.499559,0.185678 -3.82839,0.487293 -1.318034,0.294736 -2.644908,0.721124 -3.962949,1.262455 -2.769642,-1.17207 -5.541244,-1.768421 -8.09874,-1.753678 z m -0.07764,1.723223 c 1.880805,-0.01961 3.915805,0.334033 6.00286,1.038454 -2.973929,1.528701 -5.85259,3.64393 -8.432678,6.235649 -2.641961,2.640842 -4.733925,5.544981 -6.232675,8.479579 -0.242588,-0.719159 -0.44884,-1.438318 -0.611873,-2.152558 -1.027321,-4.581197 -0.246518,-8.462881 2.21964,-10.927859 1.779642,-1.78021 4.2458,-2.643792 7.054726,-2.673265 z m 26.070966,3.166452 -1.190359,1.415722 c 0.986074,1.80772 1.375003,4.069332 1.148131,6.615858 0.514637,0.822314 0.988036,1.623023 1.398568,2.445332 0.863311,-4.10863 0.3909,-7.7447 -1.35633,-10.476912 z m -17.906396,3.952422 c -5.942939,0 -10.763294,4.85726 -10.763294,10.8473 0,2.099506 0.593217,4.03593 1.634284,5.703156 l 0.593212,-0.226947 c 0.102124,-0.61698 0.366343,-1.17404 0.795537,-1.606321 0.0815,-0.08153 0.183661,-0.16407 0.285806,-0.225959 -0.530358,-1.111161 -0.857414,-2.346109 -0.857414,-3.66358 0,-4.631298 3.736074,-8.398036 8.331513,-8.398036 1.306255,0 2.531965,0.30751 3.634911,0.863578 0.08152,-0.10315 0.144374,-0.206311 0.225898,-0.287859 0.429194,-0.432279 0.959552,-0.699502 1.551784,-0.781051 l 0.224908,-0.599299 c -1.654917,-1.028631 -3.574023,-1.624982 -5.65715,-1.624982 z m 12.665713,2.291088 -1.129468,1.356771 c 1.926966,2.296 3.445362,4.722669 4.523747,7.128699 l -0.0442,0.101195 c -1.480092,3.287295 -3.74,6.534314 -6.55482,9.327434 -4.130887,4.129268 -9.00133,6.985266 -13.7274,8.032565 -3.533748,0.801683 -6.65794,0.512844 -9.020976,-0.801685 l -1.418222,1.191716 c 1.869993,1.211367 4.343029,1.82835 6.890708,1.82835 1.315086,0 2.501512,-0.185683 3.940349,-0.513821 5.055086,-1.12983 10.232942,-4.149899 14.569105,-8.505128 2.562405,-2.56126 4.6966,-5.455578 6.235617,-8.446169 1.756067,5.207999 1.337678,10.089819 -1.634286,13.047998 -2.239283,2.239018 -5.752404,3.082948 -9.821424,2.42568 -0.760175,0.47256 -1.541957,0.90288 -2.322766,1.29291 1.725629,0.451931 3.369729,0.69853 4.931343,0.69853 3.411961,0 6.350531,-1.068911 8.44642,-3.16449 5.425359,-5.443786 3.595623,-16.228205 -3.863744,-25.000555 z m -3.435539,2.772492 -0.592234,0.22695 c -0.122758,0.616979 -0.387944,1.17403 -0.81714,1.606311 -0.08149,0.08156 -0.183662,0.16407 -0.285803,0.225967 0.53134,1.111161 0.859373,2.346101 0.859373,3.663581 0,4.63129 -3.738027,8.398029 -8.333476,8.398029 -1.306247,0 -2.53196,-0.307512 -3.634908,-0.863581 -0.08149,0.103128 -0.142404,0.206319 -0.223928,0.287861 -0.429194,0.432278 -0.961513,0.699509 -1.553747,0.781054 l -0.224905,0.599295 c 1.654899,1.028633 3.574008,1.624989 5.657132,1.624989 5.942942,0 10.763298,-4.857267 10.763298,-10.847297 0,-2.099511 -0.592231,-4.035931 -1.613662,-5.703159 z m -9.189905,0.83116 a 4.9107116,4.9122802 0 0 0 -4.910712,4.91228 4.9107116,4.9122802 0 0 0 4.910712,4.91228 4.9107116,4.9122802 0 0 0 4.910711,-4.91228 4.9107116,4.9122802 0 0 0 -4.910711,-4.91228 z m -5.888927,9.407998 c -0.350619,0 -0.701246,0.145399 -0.989995,0.414591 -0.412503,0.413619 -0.516604,1.011929 -0.310359,1.50807 l -2.804994,1.095438 -9.260621,11.045759 a 27.49998,27.508764 0 0 0 0.69634,0.696556 l 11.01963,-9.282246 1.094107,-2.810802 c 0.165003,0.06191 0.348662,0.103121 0.534286,0.103121 0.350624,0 0.701248,-0.145403 0.969378,-0.413611 0.536252,-0.5374 0.536252,-1.425541 0,-1.962949 C 26.311309,37.11168 25.961659,36.98691 25.611031,36.98691 Z m -1.252227,6.955789 -1.356337,1.130799 c 1.191339,1.026672 2.445537,1.95116 3.739995,2.793128 0.493041,-0.164068 1.519372,-0.574737 1.951517,-0.841968 -1.60285,-0.924488 -2.85607,-1.848981 -4.335175,-3.081959 z"
       id="path3" />
    <path
       style="fill:#f2f2f2;fill-opacity:1;stroke-width:0.982332"
       d="m 52.864523,9.9055394 -13.86097,11.6185266 -1.093131,2.81179 c -0.164997,-0.0619 -0.350618,-0.103124 -0.536249,-0.103124 -0.350619,0 -0.701245,0.144418 -0.969369,0.412631 -0.536248,0.537409 -0.536248,1.426527 0,1.963928 0.268124,0.2692 0.61875,0.413619 0.989993,0.413619 0.350628,0 0.701255,-0.144419 0.990005,-0.413619 0.412497,-0.412631 0.515624,-1.012911 0.309371,-1.509051 L 41.499176,24.004768 53.112021,10.154112 Z M 39.269708,11.869472 c -1.21884,0.02065 -2.499553,0.186666 -3.830356,0.496142 -1.318031,0.28982 -2.644906,0.724067 -3.962944,1.26147 -6.329905,-2.687015 -12.66865,-2.356905 -16.441058,1.405897 -2.898302,2.894314 -3.843121,7.359576 -2.692052,12.547925 0.301518,1.32337 0.729732,2.667369 1.276785,3.989758 -2.289374,5.99593 -2.40723,11.577259 0.03929,14.677888 l 1.190351,-1.405892 c -1.613657,-2.935576 -1.615621,-6.904695 -0.215076,-11.100774 1.11865,2.170248 2.545704,4.279578 4.242849,6.264147 l 1.130442,-1.344 c -1.886699,-2.274388 -3.415893,-4.672567 -4.509013,-7.132638 1.43589,-3.224418 3.665352,-6.491081 6.604904,-9.426658 2.879645,-2.873687 6.117761,-5.14709 9.416776,-6.594248 2.404291,1.074807 4.828218,2.583859 7.124464,4.527156 l 1.357318,-1.136701 c -2.020267,-1.716347 -4.146597,-3.142877 -6.2916,-4.238314 0.707141,-0.226948 1.415265,-0.434244 2.118482,-0.599298 3.535708,-0.785966 6.657943,-0.516772 9.021955,0.784984 l 1.417241,-1.198599 c -1.934823,-1.219228 -4.3175,-1.819509 -6.998752,-1.778245 z M 23.302041,13.58582 c 1.879821,-0.02063 3.914819,0.351721 6.000891,1.054178 -2.972949,1.529682 -5.851608,3.638039 -8.432676,6.222879 -2.639997,2.645751 -4.733925,5.540069 -6.231691,8.475648 -0.24259,-0.70344 -0.448839,-1.42653 -0.611878,-2.149619 -1.027313,-4.569401 -0.245532,-8.455996 2.219649,-10.916067 1.779641,-1.777262 4.246784,-2.645755 7.055705,-2.687019 z m 26.070967,3.183159 -1.192318,1.405896 c 0.986066,1.798874 1.375979,4.073259 1.149103,6.61586 0.513664,0.826242 0.988034,1.632841 1.398572,2.43944 0.864285,-4.093898 0.389906,-7.731929 -1.355357,-10.461196 z m -17.906416,3.94849 c -5.94491,0 -10.763299,4.858246 -10.763299,10.832566 0,2.109329 0.59223,4.052627 1.633308,5.706099 l 0.59223,-0.22695 c 0.103094,-0.62091 0.367321,-1.15831 0.796513,-1.59256 0.0825,-0.08253 0.183661,-0.165049 0.28679,-0.226948 -0.53232,-1.116069 -0.858396,-2.356912 -0.858396,-3.659641 0,-4.650948 3.736066,-8.413758 8.331517,-8.413758 1.305262,0 2.530973,0.310458 3.63392,0.868491 0.0825,-0.103117 0.144374,-0.206312 0.226876,-0.289823 0.429193,-0.433267 0.959554,-0.702458 1.551783,-0.784982 l 0.22491,-0.599297 c -1.65491,-1.012917 -3.574997,-1.613197 -5.656152,-1.613197 z m 12.664721,2.295018 -1.130448,1.344 c 1.926964,2.29404 3.445359,4.733477 4.523754,7.13165 l -0.04322,0.103125 c -1.481076,3.287298 -3.739999,6.53333 -6.555805,9.323509 -4.128924,4.135156 -8.999368,6.988208 -13.726411,8.042382 -3.533754,0.784985 -6.658931,0.496141 -9.020984,-0.806593 l -1.41625,1.199578 c 1.868039,1.198591 4.341071,1.81852 6.888744,1.81852 1.314105,0 2.502499,-0.18568 3.940364,-0.516768 5.055085,-1.136702 10.232935,-4.15481 14.568113,-8.496278 2.56241,-2.563231 4.6966,-5.457541 6.235615,-8.455017 1.758038,5.20898 1.338663,10.087858 -1.633298,13.044064 -2.240264,2.25376 -5.75339,3.080988 -9.82044,2.439443 -0.761156,0.454876 -1.542951,0.889121 -2.324731,1.282107 1.726597,0.45487 3.370709,0.702449 4.931336,0.702449 3.411963,0 6.351507,-1.074808 8.447403,-3.162519 5.42438,-5.436912 3.594637,-16.228205 -3.863746,-24.99368 z m -3.43651,2.770529 -0.592232,0.226948 c -0.120811,0.619924 -0.386969,1.158311 -0.816166,1.591572 -0.0825,0.08351 -0.183653,0.166039 -0.286781,0.22793 0.532319,1.116071 0.860355,2.35692 0.860355,3.658671 0,4.651927 -3.738036,8.413749 -8.333476,8.413749 -1.306254,0 -2.530983,-0.309473 -3.634909,-0.867503 -0.0825,0.103173 -0.142415,0.206312 -0.224909,0.28884 -0.429202,0.434242 -0.960542,0.703438 -1.552773,0.785961 l -0.224909,0.599299 c 1.653933,1.01291 3.574997,1.61221 5.658123,1.61221 5.941962,0 10.763298,-4.858239 10.763298,-10.832556 0,-2.108353 -0.5942,-4.051652 -1.615621,-5.705121 z m -9.188925,0.826241 a 4.9106127,4.9120831 0 0 0 -4.911699,4.899507 4.9106127,4.9120831 0 0 0 4.911699,4.92014 4.9106127,4.9120831 0 0 0 4.910711,-4.92014 4.9106127,4.9120831 0 0 0 -4.910711,-4.899507 z m -5.888928,9.406037 c -0.350625,0 -0.701244,0.145399 -0.990001,0.41361 -0.412498,0.41362 -0.515624,1.012911 -0.309373,1.509061 L 21.511593,39.034383 9.8987454,52.885041 10.146246,53.13262 23.966951,41.494453 25.060078,38.682661 c 0.164997,0.06191 0.35062,0.103182 0.536248,0.103182 0.350628,0 0.699288,-0.144418 0.967412,-0.413608 0.536248,-0.5374 0.536248,-1.42653 0,-1.96393 -0.247501,-0.268213 -0.59616,-0.392982 -0.946788,-0.392982 z m -1.252231,6.946948 -1.357324,1.136701 c 1.192328,1.03354 2.44652,1.963931 3.741964,2.791158 0.493034,-0.166038 1.517415,-0.579649 1.951517,-0.827227 -1.604818,-0.930391 -2.857048,-1.860772 -4.336157,-3.100632 z"
       id="path4" />
  </g>
</svg>
