<?xml version="1.0" encoding="UTF-8" standalone="no"?>
<svg
   xmlns:dc="http://purl.org/dc/elements/1.1/"
   xmlns:cc="http://creativecommons.org/ns#"
   xmlns:rdf="http://www.w3.org/1999/02/22-rdf-syntax-ns#"
   xmlns:svg="http://www.w3.org/2000/svg"
   xmlns="http://www.w3.org/2000/svg"
   xmlns:xlink="http://www.w3.org/1999/xlink"
   xmlns:sodipodi="http://sodipodi.sourceforge.net/DTD/sodipodi-0.dtd"
   xmlns:inkscape="http://www.inkscape.org/namespaces/inkscape"
   height="48"
   width="48"
   version="1.1"
   id="svg93"
   sodipodi:docname="yast-update.svg"
   inkscape:version="0.92.5 (2060ec1f9f, 2020-04-08)">
  <metadata
     id="metadata97">
    <rdf:RDF>
      <cc:Work
         rdf:about="">
        <dc:format>image/svg+xml</dc:format>
        <dc:type
           rdf:resource="http://purl.org/dc/dcmitype/StillImage" />
        <dc:title></dc:title>
      </cc:Work>
    </rdf:RDF>
  </metadata>
  <sodipodi:namedview
     pagecolor="#ffffff"
     bordercolor="#666666"
     borderopacity="1"
     objecttolerance="10"
     gridtolerance="10"
     guidetolerance="10"
     inkscape:pageopacity="0"
     inkscape:pageshadow="2"
     inkscape:window-width="1085"
     inkscape:window-height="480"
     id="namedview95"
     showgrid="false"
     inkscape:zoom="4.9166667"
     inkscape:cx="2.1355932"
     inkscape:cy="24"
     inkscape:window-x="0"
     inkscape:window-y="25"
     inkscape:window-maximized="0"
     inkscape:current-layer="svg93" />
  <defs
     id="defs41">
    <linearGradient
       xlink:href="#a"
       id="l"
       gradientUnits="userSpaceOnUse"
       gradientTransform="translate(-384.57,-499.8)"
       y1="543.8"
       x2="0"
       y2="512.8" />
    <linearGradient
       id="a"
       y1="543.8"
       y2="512.8"
       x2="0"
       gradientUnits="userSpaceOnUse">
      <stop
         stop-color="#cea476"
         id="stop3" />
      <stop
         offset="1"
         stop-color="#dab58b"
         id="stop5" />
    </linearGradient>
    <linearGradient
       id="b"
       y1="512.8"
       y2="503.8"
       x2="0"
       gradientUnits="userSpaceOnUse">
      <stop
         stop-color="#ebc69a"
         id="stop8" />
      <stop
         offset="1"
         stop-color="#f4e0c8"
         stop-opacity="0"
         id="stop10" />
    </linearGradient>
    <linearGradient
       xlink:href="#c"
       id="n"
       gradientUnits="userSpaceOnUse"
       gradientTransform="matrix(0.50313,0,0,1,-171.625,-499.8)"
       x1="411.427"
       y1="543.8"
       x2="411.427"
       y2="512.8" />
    <linearGradient
       id="d"
       gradientUnits="userSpaceOnUse"
       x2="0"
       y1="30"
       y2="8">
      <stop
         offset="0"
         stop-color="#cea476"
         id="stop14" />
      <stop
         offset="1"
         stop-color="#dab58b"
         id="stop16" />
    </linearGradient>
    <linearGradient
       id="e"
       gradientUnits="userSpaceOnUse"
       x2="0"
       y1="30"
       y2="8">
      <stop
         offset="0"
         stop-color="#cfd2d5"
         id="stop19" />
      <stop
         offset="1"
         stop-color="#eff0f1"
         id="stop21" />
    </linearGradient>
    <linearGradient
       id="f"
       gradientTransform="matrix(.66667 0 0 -.37037 -256.38 197.926)"
       gradientUnits="userSpaceOnUse"
       x1="408.57"
       x2="408.57"
       y1="512.798"
       y2="504.698">
      <stop
         offset="0"
         stop-color="#ebc69a"
         id="stop24" />
      <stop
         offset="1"
         stop-color="#73ba25"
         stop-opacity="0"
         id="stop26" />
    </linearGradient>
    <linearGradient
       xlink:href="#g"
       id="r"
       gradientUnits="userSpaceOnUse"
       x1="18"
       y1="18"
       x2="30"
       y2="30"
       gradientTransform="matrix(1.42857,0,0,1.42857,1.143,1.143)" />
    <linearGradient
       id="g"
       x1="18"
       x2="30"
       y1="18"
       y2="30"
       gradientUnits="userSpaceOnUse"
       gradientTransform="translate(40)">
      <stop
         stop-color="#292c2f"
         offset="0"
         id="stop30" />
      <stop
         stop-opacity="0"
         offset="1"
         id="stop32" />
    </linearGradient>
    <linearGradient
       id="h"
       x2="0"
       y1="30"
       y2="8"
       gradientUnits="userSpaceOnUse">
      <stop
         stop-color="#cfd2d5"
         offset="0"
         id="stop35" />
      <stop
         stop-color="#eff0f1"
         offset="1"
         id="stop37" />
    </linearGradient>
    <linearGradient
       xlink:href="#e"
       id="s"
       x1="29.045"
       y1="22.045"
       x2="29.045"
       y2="-7.955"
       gradientUnits="userSpaceOnUse"
       gradientTransform="translate(20.955,20.955)" />
  </defs>
  <linearGradient
     id="i">
    <stop
       offset="0"
       stop-color="#cea476"
       id="stop43" />
    <stop
       offset="1"
       stop-color="#dab58b"
       id="stop45" />
  </linearGradient>
  <linearGradient
     id="o"
     gradientUnits="userSpaceOnUse"
     x1="21"
     x2="21"
     xlink:href="#i"
     y1="13"
     y2="4" />
  <linearGradient
     id="q"
     gradientTransform="matrix(1,0,0,-0.55556,-384.57,297.89)"
     gradientUnits="userSpaceOnUse"
     x1="408.57"
     x2="408.57"
     xlink:href="#j"
     y1="512.798"
     y2="505.598" />
  <linearGradient
     id="p"
     gradientTransform="translate(-384.57,-499.801)"
     gradientUnits="userSpaceOnUse"
     x1="411.57"
     x2="411.57"
     xlink:href="#j"
     y1="512.801"
     y2="503.801">
    <stop
       offset="0"
       stop-color="#ebc69a"
       id="stop50" />
    <stop
       offset="1"
       stop-color="#f4e0c8"
       stop-opacity="0"
       id="stop52" />
  </linearGradient>
  <linearGradient
     id="m"
     gradientTransform="matrix(1.41667,0,0,1.4091,1.167,1.727)"
     gradientUnits="userSpaceOnUse"
     x2="0"
     xlink:href="#k"
     y1="30"
     y2="8" />
  <linearGradient
     id="k"
     gradientUnits="userSpaceOnUse"
     x2="0"
     y1="30"
     y2="8">
    <stop
       offset="0"
       stop-color="#cfd2d5"
       id="stop56" />
    <stop
       offset="1"
       stop-color="#eff0f1"
       id="stop58" />
  </linearGradient>
  <linearGradient
     id="c"
     gradientTransform="matrix(.50313 0 0 1 -231.625 -499.8)"
     gradientUnits="userSpaceOnUse"
     x1="411.427"
     x2="411.427"
     y1="543.8"
     y2="512.8">
    <stop
       offset="0"
       stop-color="#73ba25"
       id="stop61" />
    <stop
       offset="1"
       stop-color="#81c13b"
       stop-opacity=".85"
       id="stop63" />
  </linearGradient>
  <linearGradient
     id="j"
     gradientTransform="matrix(.66667 0 0 -.37037 -256.38 197.926)"
     gradientUnits="userSpaceOnUse"
     x1="408.57"
     x2="408.57"
     y1="512.798"
     y2="504.698">
    <stop
       offset="0"
       stop-color="#ebc69a"
       id="stop66" />
    <stop
       offset="1"
       stop-color="#73ba25"
       stop-opacity="0"
       id="stop68" />
  </linearGradient>
  <path
     d="m 4,13 v 25.682 c 0,0.736 0.148,1.437 0.416,2.074 a 5.306,5.306 0 0 0 1.139,1.69 c 0.48,0.48 1.052,0.87 1.69,1.138 A 5.327,5.327 0 0 0 9.317,44 h 29.364 c 0.736,0 1.437,-0.148 2.074,-0.416 a 5.306,5.306 0 0 0 1.69,-1.139 c 0.48,-0.48 0.87,-1.052 1.138,-1.69 A 5.327,5.327 0 0 0 44,38.683 V 13 H 9.318 Z"
     id="path71"
     style="fill:url(#l)"
     inkscape:connector-curvature="0" />
  <path
     d="m 4,13 v 25.682 c 0,0.736 0.148,1.437 0.416,2.074 a 5.306,5.306 0 0 0 1.139,1.69 c 0.48,0.48 1.052,0.87 1.69,1.138 A 5.327,5.327 0 0 0 9.317,44 H 21 V 13 Z"
     id="path73"
     style="fill:url(#m)"
     inkscape:connector-curvature="0" />
  <path
     d="m 21,44 h 17.682 c 0.736,0 1.437,-0.148 2.074,-0.416 a 5.306,5.306 0 0 0 1.69,-1.139 c 0.48,-0.48 0.87,-1.052 1.138,-1.69 A 5.327,5.327 0 0 0 44,38.683 V 13 H 21 Z"
     id="path75"
     style="fill:url(#n)"
     inkscape:connector-curvature="0" />
  <path
     d="m 4,13 6,-9 h 29 l 5,9 z"
     id="path77"
     style="fill:url(#o);fill-rule:evenodd"
     inkscape:connector-curvature="0" />
  <path
     d="m 21,4 v 14 l 1,-1 1,1 1,-1 1,1 1,-1 1,1 V 4 Z"
     id="path79"
     inkscape:connector-curvature="0"
     style="fill:#f4e0c8" />
  <path
     d="m 21,4 h 6 v 9 h -6 z"
     id="path81"
     style="fill:url(#p)"
     inkscape:connector-curvature="0" />
  <path
     d="m 21,18 h 6 v -5 h -6 z"
     id="path83"
     style="fill:url(#q)"
     inkscape:connector-curvature="0" />
  <path
     d="M 21,41.229 H 4.734 c 0.24,0.43 0.475,0.87 0.82,1.216 0.481,0.48 1.053,0.87 1.69,1.139 A 5.327,5.327 0 0 0 9.318,44 H 21 Z"
     id="path85"
     inkscape:connector-curvature="0"
     style="fill:#999999" />
  <path
     d="M 21,41.229 V 44 h 17.682 c 0.736,0 1.437,-0.148 2.074,-0.416 a 5.306,5.306 0 0 0 1.69,-1.139 c 0.345,-0.346 0.58,-0.785 0.82,-1.216 z"
     id="path87"
     inkscape:connector-curvature="0"
     style="fill:#447821" />
  <path
     d="m 32.571,24 -4.33,1.206 15.65,15.65 c 0.014,-0.056 0.027,-0.111 0.039,-0.167 0.026,-0.134 0.045,-0.268 0.057,-0.403 0.01,-0.12 0.014,-0.24 0.013,-0.36 V 33 L 38,27 Z M 25.206,28.241 24,32.571 27,38 l 4.88,6 h 8.046 c 0.288,0 0.464,-0.249 0.734,-0.304 z"
     id="path89"
     style="opacity:0.2;fill:url(#r)"
     inkscape:connector-curvature="0" />
  <path
     class="ColorScheme-Text"
     d="m 39.955,31.955 c 0,1.442 -0.383,2.79 -1.045,3.955 l -0.738,-0.738 0.002,-0.002 -2.778,-2.78 0.707,-0.706 2.481,2.482 a 6.946,6.946 0 0 0 0.371,-2.211 c 0,-3.878 -3.122,-7 -7,-7 a 6.985,6.985 0 0 0 -3.217,0.783 L 28,25 a 7.981,7.981 0 0 1 3.955,-1.045 c 4.432,0 8,3.568 8,8 z M 35.91,38.91 a 7.981,7.981 0 0 1 -3.955,1.045 c -4.432,0 -8,-3.568 -8,-8 0,-1.442 0.383,-2.79 1.045,-3.955 l 0.684,0.684 0.002,-0.002 2.828,2.828 -0.707,0.707 -2.479,-2.479 a 6.944,6.944 0 0 0 -0.373,2.217 c 0,3.878 3.122,7 7,7 a 6.985,6.985 0 0 0 3.217,-0.783 z"
     id="path91"
     style="fill:url(#s)"
     inkscape:connector-curvature="0" />
</svg>
