<?xml version="1.0" encoding="UTF-8" standalone="no"?>
<svg
   xmlns:dc="http://purl.org/dc/elements/1.1/"
   xmlns:cc="http://creativecommons.org/ns#"
   xmlns:rdf="http://www.w3.org/1999/02/22-rdf-syntax-ns#"
   xmlns:svg="http://www.w3.org/2000/svg"
   xmlns="http://www.w3.org/2000/svg"
   xmlns:xlink="http://www.w3.org/1999/xlink"
   xmlns:sodipodi="http://sodipodi.sourceforge.net/DTD/sodipodi-0.dtd"
   xmlns:inkscape="http://www.inkscape.org/namespaces/inkscape"
   width="48"
   height="48"
   version="1.1"
   id="svg57"
   sodipodi:docname="preferences-system-backup.svg"
   inkscape:version="0.92.5 (2060ec1f9f, 2020-04-08)">
  <metadata
     id="metadata61">
    <rdf:RDF>
      <cc:Work
         rdf:about="">
        <dc:format>image/svg+xml</dc:format>
        <dc:type
           rdf:resource="http://purl.org/dc/dcmitype/StillImage" />
        <dc:title></dc:title>
      </cc:Work>
    </rdf:RDF>
  </metadata>
  <sodipodi:namedview
     pagecolor="#ffffff"
     bordercolor="#666666"
     borderopacity="1"
     objecttolerance="10"
     gridtolerance="10"
     guidetolerance="10"
     inkscape:pageopacity="0"
     inkscape:pageshadow="2"
     inkscape:window-width="1085"
     inkscape:window-height="480"
     id="namedview59"
     showgrid="false"
     inkscape:zoom="1.7383042"
     inkscape:cx="24"
     inkscape:cy="24"
     inkscape:window-x="0"
     inkscape:window-y="25"
     inkscape:window-maximized="0"
     inkscape:current-layer="svg57" />
  <defs
     id="defs31">
    <linearGradient
       id="b"
       y1="38"
       y2="5"
       x2="0"
       gradientUnits="userSpaceOnUse"
       gradientTransform="translate(40)">
      <stop
         stop-color="#eef1f2"
         id="stop2" />
      <stop
         offset="1"
         stop-color="#f9fafb"
         id="stop4" />
    </linearGradient>
    <linearGradient
       xlink:href="#a"
       id="e"
       gradientUnits="userSpaceOnUse"
       gradientTransform="matrix(1.125,0,0,1,-435.64,-499.8)"
       y1="543.8"
       x2="0"
       y2="503.8" />
    <linearGradient
       xlink:href="#b"
       id="f"
       gradientUnits="userSpaceOnUse"
       y1="38"
       x2="0"
       y2="5" />
    <linearGradient
       id="a"
       gradientTransform="matrix(.58696 0 0 .53846 -227.988 -270.353)"
       gradientUnits="userSpaceOnUse"
       x1="388.423"
       x2="388.423"
       y1="557.798"
       y2="505.798">
      <stop
         offset="0"
         stop-color="#7f8c8d"
         id="stop9" />
      <stop
         offset="1"
         stop-color="#afb0b3"
         id="stop11" />
    </linearGradient>
    <linearGradient
       id="c">
      <stop
         offset="0"
         stop-color="#292c2f"
         id="stop14" />
      <stop
         offset="1"
         stop-opacity="0"
         id="stop16" />
    </linearGradient>
    <linearGradient
       id="g"
       gradientUnits="userSpaceOnUse"
       x1="10"
       x2="24"
       xlink:href="#c"
       y1="9"
       y2="23"
       gradientTransform="matrix(1.42857,0,0,1.42857,1.143,1.143)" />
    <linearGradient
       id="d"
       gradientUnits="userSpaceOnUse"
       x1="16"
       x2="16"
       y1="22"
       y2="6"
       gradientTransform="translate(1.143 1.143) scale(1.42857)">
      <stop
         offset="0"
         stop-color="#3e3e3e"
         id="stop20" />
      <stop
         offset="1"
         stop-color="#5c5c5c"
         id="stop22" />
    </linearGradient>
    <linearGradient
       gradientTransform="matrix(1.375,0,0,1.375,42,1.75)"
       id="i"
       gradientUnits="userSpaceOnUse"
       x1="-11.306"
       x2="-11.306"
       y1="23.62"
       y2="7.62">
      <stop
         offset="0"
         stop-color="#3e3e3e"
         id="stop25" />
      <stop
         offset="1"
         stop-color="#5c5c5c"
         id="stop27" />
    </linearGradient>
    <linearGradient
       xlink:href="#d"
       id="h"
       x1="22"
       y1="32"
       x2="22"
       y2="10"
       gradientUnits="userSpaceOnUse" />
  </defs>
  <path
     d="M 16.838,4 A 10.809,10.809 0 0 0 9.168,7.168 10.809,10.809 0 0 0 6,14.838 V 44 H 42 V 29.773 H 41.996 V 14.838 A 10.81,10.81 0 0 0 38.828,7.168 10.809,10.809 0 0 0 31.158,4 Z"
     id="path33"
     style="fill:url(#e)"
     inkscape:connector-curvature="0" />
  <path
     d="M 6,39.9 H 42 V 44 H 6 Z"
     id="path35"
     inkscape:connector-curvature="0"
     style="fill:#626b6c" />
  <path
     d="m 6,43 h 36 v 1 H 6 Z"
     id="path37"
     inkscape:connector-curvature="0"
     style="fill:#737b81" />
  <g
     id="g41"
     style="fill:#292c2e;stroke-width:0.1">
    <path
       d="m 16,41 h 12 v 3 H 16 Z m 16,0 h 6 v 3 h -6 z"
       id="path39"
       inkscape:connector-curvature="0" />
  </g>
  <path
     d="M 17.367,6.025 A 9.34,9.34 0 0 0 8,15.392 v 4.659 c 1.698,0.243 3,1.684 3,3.451 a 3.48,3.48 0 0 1 -3,3.45 V 32 l 1.459,1.486 0.012,0.014 c 0.02,0.024 0.048,0.044 0.07,0.068 L 13.895,38 H 23.957 L 24,38.002 h 4.088 V 38 H 34 l 3.719,-3.719 c 0.292,-0.245 0.567,-0.502 0.81,-0.781 0.037,-0.043 0.068,-0.09 0.104,-0.133 L 40,32 v -5.049 a 3.48,3.48 0 0 1 -3,-3.449 3.483,3.483 0 0 1 3,-3.451 V 15.393 A 9.345,9.345 0 0 0 34.285,6.76 9.376,9.376 0 0 0 30.738,6.031 C 30.729,6.03 30.721,6.025 30.711,6.025 Z"
     id="path43"
     style="fill:url(#f)"
     inkscape:connector-curvature="0" />
  <path
     d="m 18,42 v 1 h 8 v -1 z m 15,0 v 1 h 3 v 1 h 1 v -2 z"
     id="path45"
     inkscape:connector-curvature="0"
     style="fill:#f6b44d" />
  <g
     id="g49"
     style="fill:#202324">
    <path
       d="m 16,43 h 12 v 1 H 16 Z m 16,0 h 6 v 1 h -6 z"
       id="path47"
       inkscape:connector-curvature="0" />
  </g>
  <path
     d="M 26.394,39.714 H 41.143 V 22.11 L 32,13 24,10.08 15.429,14 13.2,21.143 l 2.713,8.088 z"
     id="path51"
     style="opacity:0.2;fill:url(#g)"
     inkscape:connector-curvature="0" />
  <path
     d="M 24,10 A 11,11 0 0 0 13,21 11,11 0 0 0 24,32 11,11 0 0 0 35,21 11,11 0 0 0 24,10 Z m 0,1 A 10,10 0 0 1 34,21 10,10 0 0 1 24,31 10,10 0 0 1 14,21 10,10 0 0 1 24,11 Z m -1,2 v 9 h 7 v -1 h -6 v -8 z"
     id="path53"
     style="fill:url(#h);paint-order:stroke fill markers"
     inkscape:connector-curvature="0" />
</svg>
