<?xml version="1.0" encoding="UTF-8" standalone="no"?>
<svg
   xmlns:dc="http://purl.org/dc/elements/1.1/"
   xmlns:cc="http://creativecommons.org/ns#"
   xmlns:rdf="http://www.w3.org/1999/02/22-rdf-syntax-ns#"
   xmlns:svg="http://www.w3.org/2000/svg"
   xmlns="http://www.w3.org/2000/svg"
   xmlns:xlink="http://www.w3.org/1999/xlink"
   xmlns:sodipodi="http://sodipodi.sourceforge.net/DTD/sodipodi-0.dtd"
   xmlns:inkscape="http://www.inkscape.org/namespaces/inkscape"
   height="48"
   width="48"
   version="1.1"
   id="svg115"
   sodipodi:docname="yast-autoyast.svg"
   inkscape:version="0.92.5 (2060ec1f9f, 2020-04-08)">
  <metadata
     id="metadata119">
    <rdf:RDF>
      <cc:Work
         rdf:about="">
        <dc:format>image/svg+xml</dc:format>
        <dc:type
           rdf:resource="http://purl.org/dc/dcmitype/StillImage" />
        <dc:title></dc:title>
      </cc:Work>
    </rdf:RDF>
  </metadata>
  <sodipodi:namedview
     pagecolor="#ffffff"
     bordercolor="#666666"
     borderopacity="1"
     objecttolerance="10"
     gridtolerance="10"
     guidetolerance="10"
     inkscape:pageopacity="0"
     inkscape:pageshadow="2"
     inkscape:window-width="1366"
     inkscape:window-height="711"
     id="namedview117"
     showgrid="false"
     inkscape:zoom="10.75"
     inkscape:cx="24"
     inkscape:cy="24"
     inkscape:window-x="0"
     inkscape:window-y="25"
     inkscape:window-maximized="1"
     inkscape:current-layer="svg115" />
  <defs
     id="defs70">
    <linearGradient
       xlink:href="#a"
       id="p"
       gradientUnits="userSpaceOnUse"
       gradientTransform="translate(-384.57,-499.8)"
       y1="543.8"
       x2="0"
       y2="512.8" />
    <linearGradient
       id="a"
       y1="543.8"
       y2="512.8"
       x2="0"
       gradientUnits="userSpaceOnUse">
      <stop
         stop-color="#cea476"
         id="stop3" />
      <stop
         offset="1"
         stop-color="#dab58b"
         id="stop5" />
    </linearGradient>
    <linearGradient
       id="b"
       y1="512.8"
       y2="503.8"
       x2="0"
       gradientUnits="userSpaceOnUse">
      <stop
         stop-color="#ebc69a"
         id="stop8" />
      <stop
         offset="1"
         stop-color="#f4e0c8"
         stop-opacity="0"
         id="stop10" />
    </linearGradient>
    <linearGradient
       xlink:href="#c"
       id="r"
       gradientUnits="userSpaceOnUse"
       gradientTransform="matrix(0.50313,0,0,1,-171.625,-499.8)"
       x1="411.427"
       y1="543.8"
       x2="411.427"
       y2="512.8" />
    <linearGradient
       id="d"
       gradientUnits="userSpaceOnUse"
       x2="0"
       y1="30"
       y2="8">
      <stop
         offset="0"
         stop-color="#cea476"
         id="stop14" />
      <stop
         offset="1"
         stop-color="#dab58b"
         id="stop16" />
    </linearGradient>
    <linearGradient
       id="e"
       gradientUnits="userSpaceOnUse"
       x2="0"
       y1="30"
       y2="8">
      <stop
         offset="0"
         stop-color="#cfd2d5"
         id="stop19" />
      <stop
         offset="1"
         stop-color="#eff0f1"
         id="stop21" />
    </linearGradient>
    <linearGradient
       id="f"
       gradientTransform="matrix(.66667 0 0 -.37037 -256.38 197.926)"
       gradientUnits="userSpaceOnUse"
       x1="408.57"
       x2="408.57"
       y1="512.798"
       y2="504.698">
      <stop
         offset="0"
         stop-color="#ebc69a"
         id="stop24" />
      <stop
         offset="1"
         stop-color="#73ba25"
         stop-opacity="0"
         id="stop26" />
    </linearGradient>
    <linearGradient
       id="g"
       x1="18"
       x2="30"
       y1="18"
       y2="30"
       gradientUnits="userSpaceOnUse"
       gradientTransform="translate(40)">
      <stop
         stop-color="#292c2f"
         offset="0"
         id="stop29" />
      <stop
         stop-opacity="0"
         offset="1"
         id="stop31" />
    </linearGradient>
    <linearGradient
       id="h"
       x2="0"
       y1="30"
       y2="8"
       gradientUnits="userSpaceOnUse">
      <stop
         stop-color="#cfd2d5"
         offset="0"
         id="stop34" />
      <stop
         stop-color="#eff0f1"
         offset="1"
         id="stop36" />
    </linearGradient>
    <linearGradient
       id="i"
       gradientUnits="userSpaceOnUse"
       x2="0"
       y1="30"
       y2="8">
      <stop
         offset="0"
         stop-color="#cea476"
         id="stop39" />
      <stop
         offset="1"
         stop-color="#dab58b"
         id="stop41" />
    </linearGradient>
    <linearGradient
       id="c"
       gradientUnits="userSpaceOnUse"
       x1="32"
       x2="32"
       y1="30"
       y2="8">
      <stop
         offset="0"
         stop-color="#173f4f"
         id="stop44" />
      <stop
         offset="1"
         stop-color="#2f5361"
         id="stop46" />
    </linearGradient>
    <linearGradient
       id="j"
       gradientUnits="userSpaceOnUse"
       x2="0"
       y1="30"
       y2="8">
      <stop
         offset="0"
         stop-color="#cfd2d5"
         id="stop49" />
      <stop
         offset="1"
         stop-color="#eff0f1"
         id="stop51" />
    </linearGradient>
    <linearGradient
       id="v"
       gradientUnits="userSpaceOnUse"
       x1="18"
       x2="30"
       y1="18"
       y2="30"
       gradientTransform="matrix(1.42857,0,0,1.42857,1.143,1.143)">
      <stop
         offset="0"
         stop-color="#292c2f"
         id="stop54" />
      <stop
         offset="1"
         stop-opacity="0"
         id="stop56" />
    </linearGradient>
    <linearGradient
       id="k"
       gradientUnits="userSpaceOnUse"
       x2="0"
       y1="30"
       y2="8">
      <stop
         offset="0"
         stop-color="#cfd2d5"
         id="stop59" />
      <stop
         offset="1"
         stop-color="#eff0f1"
         id="stop61" />
    </linearGradient>
    <linearGradient
       id="l"
       gradientTransform="matrix(.66667 0 0 -.37037 -256.38 197.926)"
       gradientUnits="userSpaceOnUse"
       x1="408.57"
       x2="408.57"
       y1="512.798"
       y2="504.698">
      <stop
         offset="0"
         stop-color="#ebc69a"
         id="stop64" />
      <stop
         offset="1"
         stop-color="#173f4f"
         stop-opacity="0"
         id="stop66" />
    </linearGradient>
    <linearGradient
       xlink:href="#k"
       id="w"
       x1="45"
       y1="43"
       x2="45"
       y2="13"
       gradientUnits="userSpaceOnUse" />
  </defs>
  <linearGradient
     id="m">
    <stop
       offset="0"
       stop-color="#cea476"
       id="stop72" />
    <stop
       offset="1"
       stop-color="#dab58b"
       id="stop74" />
  </linearGradient>
  <linearGradient
     id="s"
     gradientUnits="userSpaceOnUse"
     x1="21"
     x2="21"
     xlink:href="#m"
     y1="13"
     y2="4" />
  <linearGradient
     id="u"
     gradientTransform="matrix(1,0,0,-0.55556,-384.57,297.89)"
     gradientUnits="userSpaceOnUse"
     x1="408.57001"
     x2="408.57001"
     xlink:href="#l"
     y1="512.79797"
     y2="505.59799" />
  <linearGradient
     id="t"
     gradientTransform="translate(-384.57,-499.801)"
     gradientUnits="userSpaceOnUse"
     x1="411.57"
     x2="411.57"
     xlink:href="#n"
     y1="512.801"
     y2="503.801">
    <stop
       offset="0"
       stop-color="#ebc69a"
       id="stop79" />
    <stop
       offset="1"
       stop-color="#f4e0c8"
       stop-opacity="0"
       id="stop81" />
  </linearGradient>
  <linearGradient
     id="q"
     gradientTransform="matrix(1.41667,0,0,1.4091,1.167,1.727)"
     gradientUnits="userSpaceOnUse"
     x2="0"
     xlink:href="#o"
     y1="30"
     y2="8" />
  <linearGradient
     id="o"
     gradientUnits="userSpaceOnUse"
     x2="0"
     y1="30"
     y2="8">
    <stop
       offset="0"
       stop-color="#cfd2d5"
       id="stop85" />
    <stop
       offset="1"
       stop-color="#eff0f1"
       id="stop87" />
  </linearGradient>
  <linearGradient
     id="n"
     gradientTransform="matrix(.66667 0 0 -.37037 -256.38 197.926)"
     gradientUnits="userSpaceOnUse"
     x1="408.57"
     x2="408.57"
     y1="512.798"
     y2="504.698">
    <stop
       offset="0"
       stop-color="#ebc69a"
       id="stop90" />
    <stop
       offset="1"
       stop-color="#73ba25"
       stop-opacity="0"
       id="stop92" />
  </linearGradient>
  <path
     d="m 4,13 v 25.682 c 0,0.736 0.148,1.437 0.416,2.074 a 5.306,5.306 0 0 0 1.139,1.69 c 0.48,0.48 1.052,0.87 1.69,1.138 A 5.327,5.327 0 0 0 9.317,44 h 29.364 c 0.736,0 1.437,-0.148 2.074,-0.416 a 5.306,5.306 0 0 0 1.69,-1.139 c 0.48,-0.48 0.87,-1.052 1.138,-1.69 A 5.327,5.327 0 0 0 44,38.683 V 13 H 9.318 Z"
     id="path95"
     style="fill:url(#p)"
     inkscape:connector-curvature="0" />
  <path
     d="m 4,13 v 25.682 c 0,0.736 0.148,1.437 0.416,2.074 a 5.306,5.306 0 0 0 1.139,1.69 c 0.48,0.48 1.052,0.87 1.69,1.138 A 5.327,5.327 0 0 0 9.317,44 H 21 V 13 Z"
     id="path97"
     style="fill:url(#q)"
     inkscape:connector-curvature="0" />
  <path
     d="m 21,44 h 17.682 c 0.736,0 1.437,-0.148 2.074,-0.416 a 5.306,5.306 0 0 0 1.69,-1.139 c 0.48,-0.48 0.87,-1.052 1.138,-1.69 A 5.327,5.327 0 0 0 44,38.683 V 13 H 21 Z"
     id="path99"
     style="fill:url(#r)"
     inkscape:connector-curvature="0" />
  <path
     d="m 4,13 6,-9 h 29 l 5,9 z"
     id="path101"
     style="fill:url(#s);fill-rule:evenodd"
     inkscape:connector-curvature="0" />
  <path
     d="m 21,4 v 14 l 1,-1 1,1 1,-1 1,1 1,-1 1,1 V 4 Z"
     id="path103"
     inkscape:connector-curvature="0"
     style="fill:#f4e0c8" />
  <path
     d="m 21,4 h 6 v 9 h -6 z"
     id="path105"
     style="fill:url(#t)"
     inkscape:connector-curvature="0" />
  <path
     d="m 21,18 h 6 v -5 h -6 z"
     id="path107"
     style="fill:url(#u);fill-opacity:1"
     inkscape:connector-curvature="0" />
  <path
     d="m 4.734,41.229 c 0.24,0.43 0.475,0.87 0.82,1.216 0.481,0.48 1.053,0.87 1.69,1.139 A 5.327,5.327 0 0 0 9.318,44 h 29.364 c 0.736,0 1.437,-0.148 2.074,-0.416 a 5.306,5.306 0 0 0 1.69,-1.139 c 0.345,-0.346 0.58,-0.785 0.82,-1.216 z"
     id="path109"
     inkscape:connector-curvature="0"
     style="opacity:0.2" />
  <path
     d="m 31.88,44 h 8.046 A 4.062,4.062 0 0 0 43.701,41.464 4.062,4.062 0 0 0 44,39.926 V 33 L 39,28 36.857,26.857 34,24.266 27,27 24.266,34 26.857,36.857 28,39 l 5,5 z"
     id="path111"
     style="opacity:0.2;fill:url(#v)"
     inkscape:connector-curvature="0" />
  <path
     d="m 32,24 a 8.008,8.008 0 0 0 -2,0.266 v 1.029 a 7,7 0 0 0 -1.328,0.549 l -0.729,-0.729 a 8,8 0 0 0 -2.828,2.828 l 0.522,0.522 0.21,0.21 A 7,7 0 0 0 25.3,30 H 24.26 A 8,8 0 0 0 24,32 c 0.004,0.675 0.093,1.347 0.266,2 h 1.029 a 7,7 0 0 0 0.549,1.328 l -0.207,0.207 -0.522,0.522 a 8,8 0 0 0 2.828,2.828 l 0.522,-0.522 0.21,-0.21 A 7,7 0 0 0 30,38.7 v 1.039 a 8,8 0 0 0 2,0.26 8.001,8.001 0 0 0 2,-0.26 v -1.035 a 7,7 0 0 0 1.328,-0.549 l 0.207,0.207 0.522,0.522 a 8,8 0 0 0 2.828,-2.828 l -0.522,-0.522 -0.21,-0.21 A 7,7 0 0 0 38.7,34 h 1.033 A 8.008,8.008 0 0 0 40,32 8.001,8.001 0 0 0 39.74,30 h -1.035 a 7,7 0 0 0 -0.549,-1.328 l 0.207,-0.207 0.522,-0.522 a 8,8 0 0 0 -2.828,-2.828 l -0.733,0.733 A 7,7 0 0 0 34,25.298 V 24.266 A 8.008,8.008 0 0 0 32,24 Z m -0.945,1.072 A 7,7 0 0 0 31,25.08 v -0.004 c 0.018,-0.003 0.037,-0.001 0.055,-0.004 z m 1.89,0 c 0.018,0.003 0.037,0.001 0.055,0.004 v 0.002 A 7,7 0 0 0 32.945,25.072 Z M 32,26 a 6,6 0 0 1 1.059,0.1 6,6 0 0 1 0.433,0.095 6,6 0 0 1 0.133,0.035 6,6 0 0 1 0.44,0.145 6,6 0 0 1 0.132,0.049 6,6 0 0 1 0.49,0.219 6,6 0 0 1 0.016,0.007 6,6 0 0 1 0.006,0.004 6,6 0 0 1 0.514,0.293 6,6 0 0 1 0.248,0.168 l 0.002,-0.002 a 6,6 0 0 1 1.437,1.451 6,6 0 0 1 0.276,0.432 6,6 0 0 1 0.04,0.07 6,6 0 0 1 0.237,0.471 6,6 0 0 1 0.027,0.063 6,6 0 0 1 0.186,0.48 6,6 0 0 1 0.031,0.092 6,6 0 0 1 0.133,0.486 6,6 0 0 1 0.03,0.131 6,6 0 0 1 0.04,0.211 h 0.004 a 6,6 0 0 1 0.086,1 6,6 0 0 1 -0.1,1.059 6,6 0 0 1 -0.095,0.433 6,6 0 0 1 -0.035,0.133 6,6 0 0 1 -0.145,0.44 6,6 0 0 1 -0.049,0.132 6,6 0 0 1 -0.219,0.49 6,6 0 0 1 -0.007,0.016 6,6 0 0 1 -0.004,0.006 6,6 0 0 1 -0.293,0.514 6,6 0 0 1 -0.168,0.248 l 0.002,0.002 a 6,6 0 0 1 -1.451,1.437 6,6 0 0 1 -0.432,0.276 6,6 0 0 1 -0.07,0.04 6,6 0 0 1 -0.471,0.237 6,6 0 0 1 -0.063,0.027 6,6 0 0 1 -0.48,0.186 6,6 0 0 1 -0.092,0.031 6,6 0 0 1 -0.486,0.133 6,6 0 0 1 -0.131,0.03 A 6,6 0 0 1 33,37.91 v 0.004 A 6,6 0 0 1 32,38 a 6,6 0 0 1 -1,-0.09 6,6 0 0 1 -0.004,0 6,6 0 0 1 -0.553,-0.123 6,6 0 0 1 -0.043,-0.01 6,6 0 0 1 -0.5,-0.164 6,6 0 0 1 -0.086,-0.031 6,6 0 0 1 -0.501,-0.225 6,6 0 0 1 -0.022,-0.011 6,6 0 0 1 -0.5,-0.284 6,6 0 0 1 -0.03,-0.019 6,6 0 0 1 -0.234,-0.156 6,6 0 0 1 -1.412,-1.416 6,6 0 0 1 -0.312,-0.489 6,6 0 0 1 -0.022,-0.037 6,6 0 0 1 -0.23,-0.453 6,6 0 0 1 -0.057,-0.123 6,6 0 0 1 -0.158,-0.412 6,6 0 0 1 -0.055,-0.162 6,6 0 0 1 -0.113,-0.414 6,6 0 0 1 -0.06,-0.277 A 6,6 0 0 1 26.086,33 6,6 0 0 1 26,32 a 6,6 0 0 1 0.09,-1 6,6 0 0 1 0,-0.004 6,6 0 0 1 0.123,-0.553 6,6 0 0 1 0.01,-0.043 6,6 0 0 1 0.164,-0.5 6,6 0 0 1 0.031,-0.086 6,6 0 0 1 0.225,-0.501 6,6 0 0 1 0.011,-0.022 6,6 0 0 1 0.284,-0.5 6,6 0 0 1 0.02,-0.03 6,6 0 0 1 0.155,-0.234 6,6 0 0 1 1.416,-1.412 6,6 0 0 1 0.489,-0.312 6,6 0 0 1 0.037,-0.022 6,6 0 0 1 0.453,-0.23 6,6 0 0 1 0.123,-0.057 6,6 0 0 1 0.412,-0.158 6,6 0 0 1 0.162,-0.055 6,6 0 0 1 0.414,-0.113 6,6 0 0 1 0.278,-0.06 A 6,6 0 0 1 31,26.086 6,6 0 0 1 32,26 Z m -4.188,0.398 0.002,0.002 a 7,7 0 0 0 -0.027,0.022 c 0.01,-0.007 0.016,-0.017 0.026,-0.024 z m 8.375,0 0.012,0.01 A 7,7 0 0 0 36.186,26.4 Z m 1.368,1.356 c 0.015,0.02 0.034,0.037 0.049,0.057 L 37.6,27.814 a 7,7 0 0 0 -0.045,-0.06 z m -11.13,0.023 A 7,7 0 0 0 26.4,27.814 l -0.004,-0.003 0.03,-0.034 z M 30,29 v 6 l 5,-3 z m -4.926,2 h 0.004 a 7,7 0 0 0 -0.012,0.094 C 25.07,31.063 25.07,31.031 25.074,31 Z m 13.846,0 h 0.006 c 0.004,0.026 0.002,0.052 0.006,0.078 A 7,7 0 0 0 38.92,31 Z M 25.072,32.945 A 7,7 0 0 0 25.08,33 h -0.004 c -0.003,-0.018 -0.001,-0.037 -0.004,-0.055 z m 13.856,0 C 38.925,32.963 38.927,32.982 38.924,33 h -0.002 a 7,7 0 0 0 0.006,-0.055 z M 26.4,36.185 a 7,7 0 0 0 0.022,0.028 c -0.007,-0.01 -0.017,-0.016 -0.024,-0.026 z m 11.2,0 0.002,0.003 -0.01,0.011 A 7,7 0 0 0 37.6,36.186 Z m -1.354,1.37 c -0.02,0.015 -0.037,0.034 -0.057,0.049 L 36.186,37.6 a 7,7 0 0 0 0.06,-0.045 z m -8.469,0.02 a 7,7 0 0 0 0.037,0.025 l -0.003,0.004 -0.034,-0.03 z M 33,38.92 v 0.006 c -0.026,0.004 -0.052,0.002 -0.078,0.006 A 7,7 0 0 0 33,38.92 Z m -2,0.002 a 7,7 0 0 0 0.094,0.012 C 31.063,38.93 31.031,38.93 31,38.926 Z"
     id="path113"
     style="fill:url(#w)"
     inkscape:connector-curvature="0" />
</svg>
