<?xml version="1.0" encoding="UTF-8" standalone="no"?>
<svg
   xmlns:dc="http://purl.org/dc/elements/1.1/"
   xmlns:cc="http://creativecommons.org/ns#"
   xmlns:rdf="http://www.w3.org/1999/02/22-rdf-syntax-ns#"
   xmlns:svg="http://www.w3.org/2000/svg"
   xmlns="http://www.w3.org/2000/svg"
   xmlns:xlink="http://www.w3.org/1999/xlink"
   xmlns:sodipodi="http://sodipodi.sourceforge.net/DTD/sodipodi-0.dtd"
   xmlns:inkscape="http://www.inkscape.org/namespaces/inkscape"
   width="48"
   height="48"
   version="1.1"
   id="svg66"
   sodipodi:docname="yast-disk.svg"
   inkscape:version="0.92.5 (2060ec1f9f, 2020-04-08)">
  <metadata
     id="metadata70">
    <rdf:RDF>
      <cc:Work
         rdf:about="">
        <dc:format>image/svg+xml</dc:format>
        <dc:type
           rdf:resource="http://purl.org/dc/dcmitype/StillImage" />
        <dc:title></dc:title>
      </cc:Work>
    </rdf:RDF>
  </metadata>
  <sodipodi:namedview
     pagecolor="#ffffff"
     bordercolor="#666666"
     borderopacity="1"
     objecttolerance="10"
     gridtolerance="10"
     guidetolerance="10"
     inkscape:pageopacity="0"
     inkscape:pageshadow="2"
     inkscape:window-width="1085"
     inkscape:window-height="480"
     id="namedview68"
     showgrid="false"
     inkscape:zoom="0.86915209"
     inkscape:cx="24"
     inkscape:cy="24.000014"
     inkscape:window-x="0"
     inkscape:window-y="25"
     inkscape:window-maximized="0"
     inkscape:current-layer="svg66" />
  <defs
     id="defs38">
    <linearGradient
       id="b"
       y1="38"
       y2="5"
       x2="0"
       gradientUnits="userSpaceOnUse"
       gradientTransform="translate(40)">
      <stop
         stop-color="#eef1f2"
         id="stop2" />
      <stop
         offset="1"
         stop-color="#f9fafb"
         id="stop4" />
    </linearGradient>
    <linearGradient
       xlink:href="#a"
       id="g"
       gradientUnits="userSpaceOnUse"
       gradientTransform="matrix(1.125,0,0,1,-435.64,-499.8)"
       y1="543.8"
       x2="0"
       y2="503.8" />
    <linearGradient
       xlink:href="#b"
       id="h"
       gradientUnits="userSpaceOnUse"
       y1="38"
       x2="0"
       y2="5" />
    <linearGradient
       id="a"
       gradientTransform="matrix(.58696 0 0 .53846 -227.988 -270.353)"
       gradientUnits="userSpaceOnUse"
       x1="388.423"
       x2="388.423"
       y1="557.798"
       y2="505.798">
      <stop
         offset="0"
         stop-color="#7f8c8d"
         id="stop9" />
      <stop
         offset="1"
         stop-color="#afb0b3"
         id="stop11" />
    </linearGradient>
    <linearGradient
       id="c">
      <stop
         offset="0"
         stop-color="#292c2f"
         id="stop14" />
      <stop
         offset="1"
         stop-opacity="0"
         id="stop16" />
    </linearGradient>
    <linearGradient
       id="i"
       gradientUnits="userSpaceOnUse"
       x1="10"
       x2="24"
       xlink:href="#c"
       y1="9"
       y2="23"
       gradientTransform="matrix(1.42857,0,0,1.42857,1.143,1.143)" />
    <linearGradient
       gradientTransform="translate(2 1.751) scale(1.375)"
       id="e"
       gradientUnits="userSpaceOnUse"
       x1="16"
       x2="16"
       y1="22"
       y2="6">
      <stop
         offset="0"
         stop-color="#173f4f"
         id="stop20" />
      <stop
         offset="1"
         stop-color="#2f5361"
         id="stop22" />
    </linearGradient>
    <linearGradient
       gradientTransform="translate(2 1.751) scale(1.375)"
       id="d"
       gradientUnits="userSpaceOnUse"
       x1="16"
       x2="16"
       y1="22"
       y2="6">
      <stop
         offset="0"
         stop-color="#35b9ab"
         id="stop25" />
      <stop
         offset="1"
         stop-color="#4ac0b4"
         id="stop27" />
    </linearGradient>
    <linearGradient
       gradientTransform="translate(2 1.751) scale(1.375)"
       id="f"
       gradientUnits="userSpaceOnUse"
       x1="16"
       x2="16"
       y1="22"
       y2="6">
      <stop
         offset="0"
         stop-color="#73ba25"
         id="stop30" />
      <stop
         offset="1"
         stop-color="#81c13b"
         id="stop32" />
    </linearGradient>
    <linearGradient
       xlink:href="#d"
       id="k"
       x1="-17"
       y1="31.949"
       x2="-17"
       y2="10"
       gradientUnits="userSpaceOnUse"
       gradientTransform="translate(40)" />
    <linearGradient
       xlink:href="#e"
       id="j"
       x1="-17"
       y1="32"
       x2="-17"
       y2="10"
       gradientUnits="userSpaceOnUse"
       gradientTransform="translate(40)" />
    <linearGradient
       xlink:href="#f"
       id="l"
       x1="-17"
       y1="32"
       x2="-17"
       y2="10"
       gradientUnits="userSpaceOnUse"
       gradientTransform="translate(40)" />
  </defs>
  <path
     d="M 16.838,4 A 10.809,10.809 0 0 0 9.168,7.168 10.809,10.809 0 0 0 6,14.838 V 44 H 42 V 29.773 H 41.996 V 14.838 A 10.81,10.81 0 0 0 38.828,7.168 10.809,10.809 0 0 0 31.158,4 Z"
     id="path40"
     style="fill:url(#g)"
     inkscape:connector-curvature="0" />
  <path
     d="M 6,39.9 H 42 V 44 H 6 Z"
     id="path42"
     inkscape:connector-curvature="0"
     style="fill:#626b6c" />
  <path
     d="m 6,43 h 36 v 1 H 6 Z"
     id="path44"
     inkscape:connector-curvature="0"
     style="fill:#737b81" />
  <g
     id="g48"
     style="fill:#292c2e;stroke-width:0.1">
    <path
       d="m 16,41 h 12 v 3 H 16 Z m 16,0 h 6 v 3 h -6 z"
       id="path46"
       inkscape:connector-curvature="0" />
  </g>
  <path
     d="M 17.367,6.025 A 9.34,9.34 0 0 0 8,15.392 v 4.659 c 1.698,0.243 3,1.684 3,3.451 a 3.48,3.48 0 0 1 -3,3.45 V 32 l 1.459,1.486 0.012,0.014 c 0.02,0.024 0.048,0.044 0.07,0.068 L 13.895,38 H 23.957 L 24,38.002 h 4.088 V 38 H 34 l 3.719,-3.719 c 0.292,-0.245 0.567,-0.502 0.81,-0.781 0.037,-0.043 0.068,-0.09 0.104,-0.133 L 40,32 v -5.049 a 3.48,3.48 0 0 1 -3,-3.449 3.483,3.483 0 0 1 3,-3.451 V 15.393 A 9.345,9.345 0 0 0 34.285,6.76 9.376,9.376 0 0 0 30.738,6.031 C 30.729,6.03 30.721,6.025 30.711,6.025 Z"
     id="path50"
     style="fill:url(#h)"
     inkscape:connector-curvature="0" />
  <path
     d="m 18,42 v 1 h 8 v -1 z m 15,0 v 1 h 3 v 1 h 1 v -2 z"
     id="path52"
     inkscape:connector-curvature="0"
     style="fill:#f6b44d" />
  <g
     id="g56"
     style="fill:#202324">
    <path
       d="m 16,43 h 12 v 1 H 16 Z m 16,0 h 6 v 1 h -6 z"
       id="path54"
       inkscape:connector-curvature="0" />
  </g>
  <path
     d="m 24,10 a 11,11 0 0 0 -8.43,3.936 L 15.428,14 15.363,14.209 A 11,11 0 0 0 13,21 a 11,11 0 0 0 2.482,6.953 l 0.43,1.277 10.483,10.485 H 41.143 V 22.109 L 32,13 31.229,12.719 A 11,11 0 0 0 24,10 Z"
     id="path58"
     style="opacity:0.2;fill:url(#i)"
     inkscape:connector-curvature="0" />
  <path
     d="M 23,31.95 V 21.644 l -0.121,-0.21 -8.828,-5.095 A 11,11 0 0 0 13,21 11,11 0 0 0 23,31.95 Z"
     id="path60"
     style="fill:url(#j);paint-order:stroke fill markers"
     inkscape:connector-curvature="0" />
  <path
     d="M 33.95,16.338 25.121,21.436 25,21.645 v 10.3 A 11,11 0 0 0 35,21 11,11 0 0 0 33.95,16.338 Z"
     id="path62"
     style="fill:url(#k);paint-order:stroke fill markers"
     inkscape:connector-curvature="0" />
  <path
     d="m 24,10 a 11,11 0 0 0 -8.943,4.611 L 24,19.773 32.94,14.613 A 11,11 0 0 0 24,10 Z"
     id="path64"
     style="fill:url(#l);paint-order:stroke fill markers"
     inkscape:connector-curvature="0" />
</svg>
