<?xml version="1.0" encoding="UTF-8" standalone="no"?>
<svg
   xmlns:dc="http://purl.org/dc/elements/1.1/"
   xmlns:cc="http://creativecommons.org/ns#"
   xmlns:rdf="http://www.w3.org/1999/02/22-rdf-syntax-ns#"
   xmlns:svg="http://www.w3.org/2000/svg"
   xmlns="http://www.w3.org/2000/svg"
   xmlns:sodipodi="http://sodipodi.sourceforge.net/DTD/sodipodi-0.dtd"
   xmlns:inkscape="http://www.inkscape.org/namespaces/inkscape"
   viewBox="0 0 22 22"
   version="1.1"
   id="svg6"
   sodipodi:docname="uninstall.svg"
   inkscape:version="0.92.3 (unknown)">
  <metadata
     id="metadata10">
    <rdf:RDF>
      <cc:Work
         rdf:about="">
        <dc:format>image/svg+xml</dc:format>
        <dc:type
           rdf:resource="http://purl.org/dc/dcmitype/StillImage" />
      </cc:Work>
    </rdf:RDF>
  </metadata>
  <sodipodi:namedview
     pagecolor="#ffffff"
     bordercolor="#666666"
     borderopacity="1"
     objecttolerance="10"
     gridtolerance="10"
     guidetolerance="10"
     inkscape:pageopacity="0"
     inkscape:pageshadow="2"
     inkscape:window-width="1280"
     inkscape:window-height="982"
     id="namedview8"
     showgrid="false"
     inkscape:zoom="32.982389"
     inkscape:cx="11.238854"
     inkscape:cy="11.805549"
     inkscape:window-x="0"
     inkscape:window-y="0"
     inkscape:window-maximized="1"
     inkscape:current-layer="svg6" />
  <defs
     id="defs3051">
    <style
       type="text/css"
       id="current-color-scheme">
      .ColorScheme-Text {
        color:#232629;
      }
      </style>
  </defs>
  <path
     style="color:#232629;opacity:1;fill:#a1b4ba;fill-opacity:1;stroke:none"
     d="M 11.126953,3.0019531 C 9.2851777,2.9719906 7.4335432,3.5755063 5.921875,4.8164062 2.8985906,7.2983061 2.1145626,11.6125 4.0703125,15 l -0.384743,0.243738 1.8183367,1.238684 0.2667954,-2.386324 -0.4488085,0.275771 C 3.6073932,11.402269 4.0926066,8.2140021 6.743,6.0383025 9.3933936,3.8626026 12.682304,3.8284887 15.260921,6.0886885 L 16.271484,4.984375 C 14.800746,3.6952251 12.968729,3.0319156 11.126953,3.0019531 Z M 16.494141,5.5195312 16.195312,8 16.678107,7.7242293 c 0.896607,1.5529689 1.163218,2.5548457 0.809377,4.2019167 0.320602,0.168764 0.970651,0.917954 1.233219,1.163698 C 19.259064,11.093388 19.024658,8.89995 17.927734,7 L 18.408576,6.6601638 Z M 11,6 7,10 h 2 v 5 h 3.144531 C 12.303295,14.394491 12.599063,13.848255 13,13.388672 V 10 h 2 z M 13.847656,13 13,13.847656 15.152344,16 13,18.152344 13.847656,19 16,16.847656 18.152344,19 19,18.152344 16.847656,16 19,13.847656 18.152344,13 16,15.152344 Z m -7.1745956,2.849199 -0.9464979,1.168379 c 2.0663121,1.81119 4.8448035,2.380136 7.3632815,1.701172 C 12.844491,18.456567 12.577206,17.7755 12.40859,17.455451 10.302436,17.909 8.3882798,17.352618 6.6730604,15.849199 Z"
     class="ColorScheme-Text"
     id="path4"
     inkscape:connector-curvature="0"
     sodipodi:nodetypes="sccccccsccsccccccccccccccccccccccccccccccccccc" />
</svg>
