<?xml version="1.0" encoding="UTF-8" standalone="no"?>
<svg
   xmlns:dc="http://purl.org/dc/elements/1.1/"
   xmlns:cc="http://creativecommons.org/ns#"
   xmlns:rdf="http://www.w3.org/1999/02/22-rdf-syntax-ns#"
   xmlns:svg="http://www.w3.org/2000/svg"
   xmlns="http://www.w3.org/2000/svg"
   xmlns:xlink="http://www.w3.org/1999/xlink"
   xmlns:sodipodi="http://sodipodi.sourceforge.net/DTD/sodipodi-0.dtd"
   xmlns:inkscape="http://www.inkscape.org/namespaces/inkscape"
   width="32"
   version="1.1"
   height="32"
   id="svg37"
   sodipodi:docname="plasma-search.svg"
   inkscape:version="1.0.2 (e86c870879, 2021-01-15)">
  <sodipodi:namedview
     pagecolor="#ffffff"
     bordercolor="#666666"
     borderopacity="1"
     objecttolerance="10"
     gridtolerance="10"
     guidetolerance="10"
     inkscape:pageopacity="0"
     inkscape:pageshadow="2"
     inkscape:window-width="1920"
     inkscape:window-height="1005"
     id="namedview39"
     showgrid="false"
     inkscape:zoom="13.876971"
     inkscape:cx="-5.6136715"
     inkscape:cy="12.88473"
     inkscape:window-x="0"
     inkscape:window-y="0"
     inkscape:window-maximized="1"
     inkscape:current-layer="layer1" />
  <defs
     id="defs5455">
    <linearGradient
       inkscape:collect="always"
       id="linearGradient4697">
      <stop
         style="stop-color:#1abc9c"
         id="stop4699" />
      <stop
         offset="1"
         style="stop-color:#2980b9"
         id="stop4701" />
    </linearGradient>
    <linearGradient
       inkscape:collect="always"
       id="linearGradient4526">
      <stop
         style="stop-color:#cc4a5e"
         id="stop4528" />
      <stop
         offset="1"
         style="stop-color:#aa478a"
         id="stop4530" />
    </linearGradient>
    <linearGradient
       inkscape:collect="always"
       id="linearGradient4468">
      <stop
         style="stop-color:#334545"
         id="stop4470" />
      <stop
         offset="1"
         style="stop-color:#536161"
         id="stop4472" />
    </linearGradient>
    <linearGradient
       xlink:href="#linearGradient4697"
       id="f"
       gradientUnits="userSpaceOnUse"
       gradientTransform="matrix(0.66667,0,0,0.85555,128.191,86.772)"
       x1="418.17001"
       y1="503.07901"
       x2="384.57101"
       y2="531.45801" />
    <linearGradient
       xlink:href="#linearGradient4526"
       id="g"
       y1="521.633"
       x1="404.04501"
       y2="528.34998"
       x2="430.73599"
       gradientUnits="userSpaceOnUse"
       gradientTransform="matrix(0.66667,0,0,0.85555,128.191,86.771)" />
    <linearGradient
       xlink:href="#linearGradient4468"
       id="h"
       y1="542.224"
       x1="398.09201"
       y2="524.90002"
       x2="394.00299"
       gradientUnits="userSpaceOnUse"
       gradientTransform="matrix(0.66667,0,0,0.85555,128.191,86.771)" />
    <linearGradient
       xlink:href="#linearGradient4468"
       id="i"
       y1="568.79797"
       x1="431.57101"
       y2="562.79797"
       x2="439.57101"
       gradientUnits="userSpaceOnUse"
       gradientTransform="matrix(-0.66667,0,0,0.85555,687.618,52.549)" />
    <linearGradient
       xlink:href="#linearGradient4468"
       id="j"
       y1="581.87"
       x1="406.53699"
       y2="572.67798"
       x2="423.32001"
       gradientUnits="userSpaceOnUse"
       gradientTransform="matrix(-0.66667,0,0,0.85555,687.62,52.549)" />
    <linearGradient
       xlink:href="#linearGradient4468"
       id="k"
       y1="572.33398"
       x1="423.05399"
       y2="566.76599"
       x2="431.22501"
       gradientUnits="userSpaceOnUse"
       gradientTransform="matrix(-0.66667,0,0,0.85555,687.618,52.549)" />
    <linearGradient
       xlink:href="#linearGradient4468"
       id="l"
       y1="577.10199"
       x1="431.31299"
       y2="571.44501"
       x2="440.63199"
       gradientUnits="userSpaceOnUse"
       gradientTransform="matrix(-0.66667,0,0,0.85555,687.62,52.549)" />
    <linearGradient
       xlink:href="#linearGradient4468"
       id="m"
       y1="577.362"
       x1="430.56699"
       y2="591.328"
       x2="423.75"
       gradientUnits="userSpaceOnUse"
       gradientTransform="matrix(-0.66667,0,0,0.85555,687.62,52.549)" />
  </defs>
  <metadata
     id="metadata5458">
    <rdf:RDF>
      <cc:Work
         rdf:about="">
        <dc:format>image/svg+xml</dc:format>
        <dc:type
           rdf:resource="http://purl.org/dc/dcmitype/StillImage" />
      </cc:Work>
    </rdf:RDF>
  </metadata>
  <g
     inkscape:label="Capa 1"
     inkscape:groupmode="layer"
     id="layer1"
     transform="translate(-384.57143,-515.798)">
    <g
       transform="translate(4.4708506e-4)"
       id="g63">
      <path
         d="m 389.571,517.798 a 5.004,5.004 0 0 0 -3.54,1.461 4.99,4.99 0 0 0 -1.46,3.54 v 18 a 5.004,5.004 0 0 0 1.46,3.538 4.99,4.99 0 0 0 3.54,1.461 h 22 a 5.004,5.004 0 0 0 3.54,-1.46 4.99,4.99 0 0 0 1.46,-3.54 v -18 a 5.004,5.004 0 0 0 -1.46,-3.539 4.99,4.99 0 0 0 -3.54,-1.46 z"
         id="path37"
         style="fill:url(#f)"
         inkscape:connector-curvature="0" />
      <path
         d="m 410.317,545.798 h 1.254 a 5.004,5.004 0 0 0 3.54,-1.46 4.989,4.989 0 0 0 1.46,-3.54 v -18 a 5.005,5.005 0 0 0 -1.46,-3.54 c -0.077,-0.075 -0.188,-0.108 -0.269,-0.179 l -20.294,15.035 15.77,11.684 z"
         id="path39"
         style="fill:url(#g)"
         inkscape:connector-curvature="0" />
      <path
         d="m 384.688,541.378 c 0.057,0.47 0.098,0.949 0.276,1.37 a 4.989,4.989 0 0 0 2.658,2.657 5.004,5.004 0 0 0 1.95,0.393 h 20.894 l -15.895,-11.744 z"
         id="path41"
         style="fill:url(#h)"
         inkscape:connector-curvature="0" />
      <path
         d="m 400.077,538.133 -5.506,-4.08 v 8.16 z"
         id="path43"
         style="fill:url(#i)"
         inkscape:connector-curvature="0" />
      <path
         d="m 405.582,542.211 v 3.587 h 4.841 l -4.84,-3.587 z"
         id="path45"
         style="fill:url(#j)"
         inkscape:connector-curvature="0" />
      <path
         d="m 400.077,538.133 v 7.665 h 0.666 l 4.84,-3.586 -5.506,-4.08 z"
         id="path47"
         style="fill:url(#k)"
         inkscape:connector-curvature="0" />
      <path
         d="m 394.571,542.212 v 3.586 h 4.84 z"
         id="path49"
         style="fill:url(#l)"
         inkscape:connector-curvature="0" />
      <path
         d="m 405.582,542.211 -4.84,3.587 h 4.84 z"
         id="path51"
         style="fill:url(#m)"
         inkscape:connector-curvature="0" />
      <path
         d="m 416.571,525.769 v -2.97 a 5.005,5.005 0 0 0 -1.46,-3.54 c -0.077,-0.076 -0.188,-0.109 -0.269,-0.18 l -20.294,15.037 z"
         id="path53"
         inkscape:connector-curvature="0"
         style="fill:#aa478a" />
      <path
         d="m 384.695,541.798 c 0.067,0.317 0.146,0.658 0.27,0.95 a 4.989,4.989 0 0 0 2.657,2.658 5.004,5.004 0 0 0 1.95,0.392 h 22 a 5.004,5.004 0 0 0 3.54,-1.46 4.989,4.989 0 0 0 1.066,-1.59 5.35,5.35 0 0 0 0.285,-0.95 z"
         id="path55"
         inkscape:connector-curvature="0"
         style="fill:#ffffff;fill-opacity:0.784" />
      <circle
         cx="412.57101"
         cy="543.79797"
         r="1"
         id="circle57"
         style="fill:#4d4d4d" />
      <path
         d="m 386.571,542.798 v 1 h 1 v -1 z m 1,1 v 1 h 1 v -1 z"
         id="path59"
         inkscape:connector-curvature="0"
         style="fill:#4d4d4d" />
      <path
         d="m 399.071,522.798 a 5.5,5.5 0 0 0 -5.5,5.5 5.5,5.5 0 0 0 5.5,5.5 5.5,5.5 0 0 0 3.52,-1.275 l 4.28,4.279 0.704,-0.707 -4.28,-4.281 a 5.5,5.5 0 0 0 1.276,-3.516 5.5,5.5 0 0 0 -5.5,-5.5 z m 0,1 a 4.5,4.5 0 0 1 4.5,4.5 4.5,4.5 0 0 1 -4.5,4.5 4.5,4.5 0 0 1 -4.5,-4.5 4.5,4.5 0 0 1 4.5,-4.5 z"
         id="path61"
         inkscape:connector-curvature="0"
         style="opacity:0.75;fill:#ffffff" />
    </g>
  </g>
</svg>
