<?xml version="1.0" encoding="UTF-8" standalone="no"?>
<svg
   xmlns:dc="http://purl.org/dc/elements/1.1/"
   xmlns:cc="http://creativecommons.org/ns#"
   xmlns:rdf="http://www.w3.org/1999/02/22-rdf-syntax-ns#"
   xmlns:svg="http://www.w3.org/2000/svg"
   xmlns="http://www.w3.org/2000/svg"
   xmlns:xlink="http://www.w3.org/1999/xlink"
   xmlns:sodipodi="http://sodipodi.sourceforge.net/DTD/sodipodi-0.dtd"
   xmlns:inkscape="http://www.inkscape.org/namespaces/inkscape"
   width="34.133335"
   version="1.1"
   height="34.133335"
   id="svg2"
   inkscape:version="1.0.2 (e86c870879, 2021-01-15)"
   sodipodi:docname="preferences-system-login.svg"
   viewBox="0 0 32 32">
  <sodipodi:namedview
     pagecolor="#ffffff"
     bordercolor="#666666"
     borderopacity="1"
     objecttolerance="10"
     gridtolerance="10"
     guidetolerance="10"
     inkscape:pageopacity="0"
     inkscape:pageshadow="2"
     inkscape:window-width="1920"
     inkscape:window-height="1005"
     id="namedview46"
     showgrid="false"
     inkscape:zoom="7.375"
     inkscape:cx="68.252043"
     inkscape:cy="16"
     inkscape:window-x="0"
     inkscape:window-y="0"
     inkscape:window-maximized="1"
     inkscape:current-layer="layer1"
     inkscape:document-rotation="0" />
  <defs
     id="defs5455">
    <linearGradient
       inkscape:collect="always"
       id="linearGradient4303">
      <stop
         style="stop-color:#c6cdd1"
         id="stop4305" />
      <stop
         offset="1"
         style="stop-color:#e0e5e7"
         id="stop4307" />
    </linearGradient>
    <linearGradient
       inkscape:collect="always"
       id="linearGradient4293">
      <stop
         id="stop4295" />
      <stop
         offset="1"
         style="stop-opacity:0"
         id="stop4297" />
    </linearGradient>
    <linearGradient
       inkscape:collect="always"
       id="linearGradient4159">
      <stop
         style="stop-color:#2a2c2f"
         id="stop4161" />
      <stop
         offset="1"
         style="stop-color:#424649"
         id="stop4163" />
    </linearGradient>
    <linearGradient
       inkscape:collect="always"
       id="linearGradient4172">
      <stop
         style="stop-color:#39a1d8"
         id="stop4174" />
      <stop
         offset="1"
         style="stop-color:#4db4e8"
         id="stop4176" />
    </linearGradient>
    <linearGradient
       inkscape:collect="always"
       id="linearGradient4410">
      <stop
         style="stop-color:#383e51"
         id="stop4412" />
      <stop
         offset="1"
         style="stop-color:#655c6f;stop-opacity:0"
         id="stop4414" />
    </linearGradient>
    <linearGradient
       xlink:href="#linearGradient4159"
       id="f"
       x1="0"
       y1="25"
       x2="0"
       y2="2"
       gradientUnits="userSpaceOnUse"
       gradientTransform="translate(384.571,515.798)" />
    <linearGradient
       xlink:href="#linearGradient4293"
       id="g"
       gradientUnits="userSpaceOnUse"
       x1="393.57101"
       y1="519.79797"
       x2="410.57101"
       y2="536.79797" />
    <linearGradient
       xlink:href="#linearGradient4303"
       id="h"
       y1="542.79797"
       y2="538.79797"
       x2="0"
       gradientUnits="userSpaceOnUse"
       gradientTransform="translate(0,2)" />
    <linearGradient
       xlink:href="#linearGradient4172"
       id="i"
       gradientUnits="userSpaceOnUse"
       y1="536.79797"
       x2="0"
       y2="518.79797" />
    <linearGradient
       xlink:href="#linearGradient4303"
       id="j"
       y1="524.79797"
       y2="522.79797"
       x2="0"
       gradientUnits="userSpaceOnUse"
       gradientTransform="matrix(1,0,0,-1,0,-3)" />
    <linearGradient
       xlink:href="#linearGradient4410"
       id="k"
       y1="5"
       x1="9"
       y2="19"
       x2="23"
       gradientUnits="userSpaceOnUse"
       gradientTransform="translate(0,3)" />
    <linearGradient
       xlink:href="#linearGradient4303"
       id="l"
       y1="524.79797"
       y2="522.79797"
       gradientUnits="userSpaceOnUse"
       x2="0"
       gradientTransform="matrix(1,0,0,-1,0,-3)" />
  </defs>
  <metadata
     id="metadata5458">
    <rdf:RDF>
      <cc:Work
         rdf:about="">
        <dc:format>image/svg+xml</dc:format>
        <dc:type
           rdf:resource="http://purl.org/dc/dcmitype/StillImage" />
      </cc:Work>
    </rdf:RDF>
  </metadata>
  <g
     inkscape:label="Capa 1"
     inkscape:groupmode="layer"
     id="layer1"
     transform="translate(-384.57143,-515.798)">
    <flowRoot
       line-height="0.01%"
       style="font-family:sans-serif"
       id="flowRoot4170"
       transform="translate(389.57142,520.79806)"><flowRegion
         id="flowRegion4172"><rect
           width="27"
           x="22"
           y="3"
           height="15"
           id="rect4174" /></flowRegion><flowPara
         id="flowPara4176"
         style="font-size:10px;line-height:1.25">Plasm</flowPara></flowRoot>
    <g
       transform="matrix(0.99441957,0,0,0.99441959,2.1465015,2.764525)"
       id="g60">
      <path
         d="m 388.571,517.798 c -2.216,0 -4,1.784 -4,4 v 15 c 0,2.216 1.784,4 4,4 h 24 c 2.216,0 4,-1.784 4,-4 v -15 c 0,-2.216 -1.784,-4 -4,-4 z m 0,1 h 24 c 1.662,0 3,1.784 3,4 v 14 h -30 v -14 c 0,-2.216 1.338,-4 3,-4 z"
         id="path36"
         style="fill:url(#f);paint-order:stroke fill markers"
         inkscape:connector-curvature="0" />
      <path
         d="m 414.571,519.798 1,3 v 14 h -30 l 4,4 h 23 c 0.554,0 1.082,-0.11 1.561,-0.312 a 3.989,3.989 0 0 0 1.27,-0.858 c 0.361,-0.361 0.655,-0.79 0.857,-1.27 a 4.008,4.008 0 0 0 0.312,-1.56 v -15 z"
         id="path38"
         style="opacity:0.2;fill:url(#g);fill-rule:evenodd"
         inkscape:connector-curvature="0" />
      <path
         d="m 397.571,540.798 h 6 v 4 h -6 z"
         id="path40"
         style="fill:url(#h)"
         inkscape:connector-curvature="0" />
      <path
         d="m 394.571,544.798 h 12 v 1 h -12 z"
         id="path42"
         inkscape:connector-curvature="0"
         style="fill:#99a1a7" />
      <path
         d="m 388.571,518.798 c -0.415,0 -0.81,0.11 -1.17,0.313 -0.359,0.201 -0.681,0.495 -0.953,0.857 -0.542,0.723 -0.877,1.722 -0.877,2.83 v 14 h 30 v -14 c 0,-1.108 -0.334,-2.107 -0.877,-2.83 a 3.117,3.117 0 0 0 -0.953,-0.857 2.371,2.371 0 0 0 -1.17,-0.313 z"
         id="path44"
         style="fill:url(#i)"
         inkscape:connector-curvature="0" />
      <path
         transform="scale(1,-1)"
         d="m 393.571,-527.798 h 14 v 3 h -14 z"
         id="path46"
         style="fill:url(#j)"
         inkscape:connector-curvature="0" />
      <path
         d="M 14,21 H 31 V 17 L 23,9 v 3 H 9 l 4,4 H 9 Z"
         transform="translate(384.571,515.798)"
         id="path48"
         style="fill:url(#k);fill-rule:evenodd"
         inkscape:connector-curvature="0" />
      <path
         transform="scale(1,-1)"
         d="m 393.571,-531.798 h 14 v 3 h -14 z"
         id="path50"
         style="fill:url(#l)"
         inkscape:connector-curvature="0" />
      <circle
         cx="395.07101"
         cy="526.29797"
         r="0.5"
         id="circle52"
         style="fill:#4d4d4d" />
      <circle
         cx="395.07101"
         cy="530.29797"
         r="0.5"
         id="circle54"
         style="fill:#4d4d4d" />
      <circle
         cx="397.07101"
         cy="530.29797"
         r="0.5"
         id="circle56"
         style="fill:#4d4d4d" />
      <circle
         cx="399.07101"
         cy="530.29797"
         r="0.5"
         id="circle58"
         style="fill:#4d4d4d" />
    </g>
  </g>
</svg>
