<?xml version="1.0" encoding="UTF-8" standalone="no"?>
<svg
   xmlns:dc="http://purl.org/dc/elements/1.1/"
   xmlns:cc="http://creativecommons.org/ns#"
   xmlns:rdf="http://www.w3.org/1999/02/22-rdf-syntax-ns#"
   xmlns:svg="http://www.w3.org/2000/svg"
   xmlns="http://www.w3.org/2000/svg"
   xmlns:xlink="http://www.w3.org/1999/xlink"
   xmlns:sodipodi="http://sodipodi.sourceforge.net/DTD/sodipodi-0.dtd"
   xmlns:inkscape="http://www.inkscape.org/namespaces/inkscape"
   viewBox="0 0 32 32"
   version="1.1"
   id="svg77"
   sodipodi:docname="preferences-smart-status.svg"
   inkscape:version="1.0.2 (e86c870879, 2021-01-15)">
  <metadata
     id="metadata83">
    <rdf:RDF>
      <cc:Work
         rdf:about="">
        <dc:format>image/svg+xml</dc:format>
        <dc:type
           rdf:resource="http://purl.org/dc/dcmitype/StillImage" />
      </cc:Work>
    </rdf:RDF>
  </metadata>
  <defs
     id="defs81" />
  <sodipodi:namedview
     pagecolor="#ffffff"
     bordercolor="#666666"
     borderopacity="1"
     objecttolerance="10"
     gridtolerance="10"
     guidetolerance="10"
     inkscape:pageopacity="0"
     inkscape:pageshadow="2"
     inkscape:window-width="1920"
     inkscape:window-height="1005"
     id="namedview79"
     showgrid="true"
     inkscape:zoom="19.625"
     inkscape:cx="6.3949045"
     inkscape:cy="16"
     inkscape:window-x="0"
     inkscape:window-y="0"
     inkscape:window-maximized="1"
     inkscape:current-layer="svg77">
    <inkscape:grid
       type="xygrid"
       id="grid908" />
  </sodipodi:namedview>
  <linearGradient
     id="a"
     x1="9"
     x2="23"
     y1="9"
     y2="23"
     gradientUnits="userSpaceOnUse"
     xlink:href="#j" />
  <linearGradient
     id="b">
    <stop
       stop-color="#7f8c8d"
       offset="0"
       id="stop3" />
    <stop
       stop-color="#bdc3c7"
       offset="1"
       id="stop5" />
  </linearGradient>
  <linearGradient
     id="c">
    <stop
       stop-color="#31363b"
       offset="0"
       id="stop8" />
    <stop
       stop-color="#232629"
       offset="1"
       id="stop10" />
  </linearGradient>
  <linearGradient
     id="d"
     x1="26"
     x2="27"
     y1="10"
     y2="5"
     gradientUnits="userSpaceOnUse"
     xlink:href="#b" />
  <radialGradient
     id="e"
     cx="23"
     cy="13"
     r="6.324219"
     gradientTransform="matrix(1 0 0 .31624458 -1 8.88882)"
     gradientUnits="userSpaceOnUse">
    <stop
       stop-color="#4d4d4d"
       offset="0"
       id="stop14" />
    <stop
       stop-color="#31363b"
       offset="1"
       id="stop16" />
  </radialGradient>
  <linearGradient
     id="f"
     x1="15"
     x2="24"
     y1="10"
     y2="19"
     gradientUnits="userSpaceOnUse"
     xlink:href="#c" />
  <linearGradient
     id="g"
     x1="9"
     x2="23"
     y1="21"
     y2="21"
     gradientUnits="userSpaceOnUse"
     xlink:href="#c" />
  <linearGradient
     id="h"
     x1="9"
     x2="11"
     y1="13"
     y2="15"
     gradientUnits="userSpaceOnUse">
    <stop
       stop-color="#fcfcfc"
       offset="0"
       id="stop21" />
    <stop
       stop-color="#eff0f1"
       offset="1"
       id="stop23" />
  </linearGradient>
  <linearGradient
     id="i"
     x1="13"
     x2="7"
     y1="17"
     y2="11"
     gradientUnits="userSpaceOnUse"
     xlink:href="#b" />
  <linearGradient
     id="j">
    <stop
       stop-color="#292c2f"
       offset="0"
       id="stop27" />
    <stop
       stop-opacity="0"
       offset="1"
       id="stop29" />
  </linearGradient>
  <linearGradient
     id="k"
     x1="388.423"
     x2="388.423"
     y1="557.798"
     y2="505.798"
     gradientTransform="matrix(.58696 0 0 .53846 -228.988 -270.353)"
     gradientUnits="userSpaceOnUse">
    <stop
       stop-color="#7f8c8d"
       offset="0"
       id="stop32" />
    <stop
       stop-color="#afb0b3"
       offset="1"
       id="stop34" />
  </linearGradient>
  <linearGradient
     id="l"
     x1="-422.447"
     x2="-411.447"
     y1="-504.204"
     y2="-493.204"
     gradientUnits="userSpaceOnUse"
     xlink:href="#j" />
  <linearGradient
     id="m"
     x1="1.333"
     x2="1.333"
     y1="48.714"
     y2="9.714"
     gradientTransform="matrix(.52174 0 0 .53846 -1.696 -1.23)"
     gradientUnits="userSpaceOnUse">
    <stop
       stop-color="#eef1f2"
       offset="0"
       id="stop38" />
    <stop
       stop-color="#f9fafb"
       offset="1"
       id="stop40" />
  </linearGradient>
  <path
     d="M 3,5 C 3,3 4,2 5.9413347,2 H 24 c 2,0 3,1 3,2.9702444 V 30 H 3 Z"
     fill="url(#k)"
     id="path43"
     sodipodi:nodetypes="ccccccc" />
  <path
     d="m6 27h18v3h-18z"
     fill="#292c2e"
     id="path45" />
  <path
     d="m8 28h9v1h-9zm10 0h4v1h-4z"
     fill="#f6b44d"
     id="path47" />
  <path
     d="m23 27h4v3h-4zm-20 0h4v3h-4z"
     fill="#292c2f"
     opacity=".2"
     id="path49" />
  <path
     d="m3 27h4v3h-1zm20 0h4v3h-4z"
     fill="#292c2f"
     opacity=".2"
     id="path51" />
  <path
     d="m23.535 5.465 3.465 3.463v21.072h-14l-8-8z"
     fill="url(#l)"
     opacity=".2"
     id="path53" />
  <path
     d="m10 4a5 5 0 0 0 -5 5v4.768a3 3 0 0 1 .996 2.117 2 2 0 0 1 .004.115 2 2 0 0 1 -.01.2 3 3 0 0 1 0 .005 3 3 0 0 1 -.99 2.025v3.77l3 3h14l3-3v-3.768a3 3 0 0 1 -.996-2.117 2 2 0 0 1 -.004-.115 2 2 0 0 1 .01-.205 3 3 0 0 1 .99-2.025v-4.77a5 5 0 0 0 -5-5z"
     fill="url(#m)"
     id="path55" />
  <path
     d="m15 5v8.5l6 6-1 4.5-9.5-.5 3.5 3.5h13v-15.4l-6-6zm8 1 4 4v-4z"
     fill="url(#a)"
     opacity=".3"
     id="path57" />
  <path
     d="m9 19c0 3.865993 3.134007 7 7 7s7-3.134007 7-7h-2c0 2.761424-2.238576 5-5 5s-5-2.238576-5-5v-3h-2z"
     fill="url(#g)"
     id="path59" />
  <circle
     cx="10"
     cy="14"
     r="3"
     fill="url(#i)"
     stroke-width="4"
     id="circle61" />
  <path
     d="m21.4 22.55-10-10-2.85 2.849813 2 2-.55 4.962762 6 2.637425z"
     fill="url(#a)"
     opacity=".3"
     id="path63" />
  <circle
     cx="10"
     cy="14"
     r="2"
     fill="url(#h)"
     stroke-width="2.66667"
     id="circle65" />
  <path
     d="m15.675781 11a7 7 0 0 0 6.324219 4 7 7 0 0 0 6.324219-4h-1.128907a6 6 0 0 1-5.195312 3 6 6 0 0 1-5.195312-3z"
     fill="url(#e)"
     id="path67" />
  <path
     d="m28 10v3l-6 6-6-6v-3"
     fill="none"
     stroke="url(#f)"
     stroke-width="2"
     id="path69" />
  <path
     d="m18 5.5h-2.5v4.5m13 0v-4.5h-2.5"
     fill="none"
     stroke="url(#d)"
     id="path71" />
  <path
     d="m18 7v-3h1.500344c.828428 0 1.5.6715729 1.5 1.5s-.671571 1.5-1.5 1.5z"
     id="path73" />
  <path
     d="m26 4v3h-1.500344c-.828428 0-1.5-.6715729-1.5-1.5s.671571-1.5 1.5-1.5z"
     id="path75" />
</svg>
