<?xml version="1.0" encoding="UTF-8" standalone="no"?>
<svg
   xmlns:dc="http://purl.org/dc/elements/1.1/"
   xmlns:cc="http://creativecommons.org/ns#"
   xmlns:rdf="http://www.w3.org/1999/02/22-rdf-syntax-ns#"
   xmlns:svg="http://www.w3.org/2000/svg"
   xmlns="http://www.w3.org/2000/svg"
   xmlns:xlink="http://www.w3.org/1999/xlink"
   xmlns:sodipodi="http://sodipodi.sourceforge.net/DTD/sodipodi-0.dtd"
   xmlns:inkscape="http://www.inkscape.org/namespaces/inkscape"
   width="32"
   version="1.1"
   height="32"
   id="svg26"
   sodipodi:docname="gtkconfig.svg"
   inkscape:version="1.0.2 (e86c870879, 2021-01-15)">
  <sodipodi:namedview
     pagecolor="#ffffff"
     bordercolor="#666666"
     borderopacity="1"
     objecttolerance="10"
     gridtolerance="10"
     guidetolerance="10"
     inkscape:pageopacity="0"
     inkscape:pageshadow="2"
     inkscape:window-width="1920"
     inkscape:window-height="1007"
     id="namedview28"
     showgrid="true"
     inkscape:zoom="6.9384853"
     inkscape:cx="13.44905"
     inkscape:cy="12.14613"
     inkscape:window-x="0"
     inkscape:window-y="0"
     inkscape:window-maximized="1"
     inkscape:current-layer="layer1"
     inkscape:document-rotation="0">
    <inkscape:grid
       type="xygrid"
       id="grid853" />
  </sodipodi:namedview>
  <defs
     id="defs5455">
    <linearGradient
       inkscape:collect="always"
       id="linearGradient4293">
      <stop
         id="stop4295" />
      <stop
         offset="1"
         style="stop-opacity:0"
         id="stop4297" />
    </linearGradient>
    <linearGradient
       id="linearGradient3052">
      <stop
         style="stop-color:#555753"
         id="stop3054" />
      <stop
         offset="1"
         style="stop-color:#2e3436"
         id="stop3056" />
    </linearGradient>
    <radialGradient
       cx="25.641"
       cy="3.6836"
       r="17.995"
       xlink:href="#linearGradient3052"
       id="radialGradient3082"
       gradientUnits="userSpaceOnUse"
       gradientTransform="matrix(0.58724559 -0.0000004 0 0.25688859 387.29707 527.70784)" />
    <linearGradient
       inkscape:collect="always"
       xlink:href="#a"
       id="linearGradient848"
       gradientUnits="userSpaceOnUse"
       gradientTransform="matrix(0.66667,0,0,0.63518,-256.38,-317.28)"
       y1="543.79999"
       x2="0"
       y2="502.66" />
    <linearGradient
       id="a"
       x2="0"
       y1="543.79999"
       y2="502.66"
       gradientTransform="matrix(0.66667,0,0,0.63518,-256.38,-317.28)"
       gradientUnits="userSpaceOnUse">
      <stop
         stop-color="#c6cdd1"
         offset="0"
         id="stop2" />
      <stop
         stop-color="#e0e5e7"
         offset="1"
         id="stop4" />
    </linearGradient>
    <linearGradient
       inkscape:collect="always"
       xlink:href="#a"
       id="linearGradient850"
       gradientUnits="userSpaceOnUse"
       gradientTransform="matrix(0.66667,0,0,0.63518,-256.38,-317.28)"
       y1="543.79999"
       x2="0"
       y2="502.66" />
    <linearGradient
       id="linearGradient866"
       x2="0"
       y1="543.79999"
       y2="502.66"
       gradientTransform="matrix(0.66667,0,0,0.63518,-256.38,-317.28)"
       gradientUnits="userSpaceOnUse">
      <stop
         stop-color="#c6cdd1"
         offset="0"
         id="stop862" />
      <stop
         stop-color="#e0e5e7"
         offset="1"
         id="stop864" />
    </linearGradient>
    <linearGradient
       id="b"
       x1="392.57001"
       x2="407.57001"
       y1="521.79999"
       y2="536.79999"
       gradientTransform="translate(0,4)"
       gradientUnits="userSpaceOnUse">
      <stop
         offset="0"
         id="stop12" />
      <stop
         stop-opacity="0"
         offset="1"
         id="stop14" />
    </linearGradient>
    <linearGradient
       id="c"
       x1="393.41"
       x2="407.41"
       y1="526.65002"
       y2="526.65002"
       gradientTransform="matrix(1,0,0,0.99999,0.154,0.157)"
       gradientUnits="userSpaceOnUse">
      <stop
         stop-color="#2e3436"
         offset="0"
         id="stop7" />
      <stop
         stop-color="#555753"
         offset="1"
         id="stop9" />
    </linearGradient>
    <radialGradient
       cx="25.641001"
       cy="3.6835999"
       r="17.995001"
       xlink:href="#linearGradient3052"
       id="radialGradient3082-3"
       gradientUnits="userSpaceOnUse"
       gradientTransform="matrix(0.58724559,-4e-7,0,0.25688859,386.8699,526.70785)" />
    <linearGradient
       inkscape:collect="always"
       xlink:href="#linearGradient4293"
       id="linearGradient969"
       gradientUnits="userSpaceOnUse"
       gradientTransform="translate(383.57143,514.39839)"
       x1="9"
       y1="10.999974"
       x2="23"
       y2="25" />
  </defs>
  <metadata
     id="metadata5458">
    <rdf:RDF>
      <cc:Work
         rdf:about="">
        <dc:format>image/svg+xml</dc:format>
        <dc:type
           rdf:resource="http://purl.org/dc/dcmitype/StillImage" />
      </cc:Work>
    </rdf:RDF>
  </metadata>
  <g
     inkscape:label="Capa 1"
     inkscape:groupmode="layer"
     id="layer1"
     transform="translate(-384.57143,-515.798)">
    <g
       transform="translate(0.00143,-0.00198712)"
       id="g35">
      <path
         d="M 32,9 31,8 1.123,27 3.555,30 H 28.8 c 1.774,0 3.2,-1.426 3.2,-3.2 z"
         transform="translate(384.57,515.8)"
         id="path19"
         style="fill:url(#linearGradient848)"
         inkscape:connector-curvature="0" />
      <path
         d="M 3.2,2 A 3.192,3.192 0 0 0 0,5.2 V 26.8 C 0,28.575 1.426,30 3.2,30 H 3.555 L 1.123,27 31,8 32,9 V 5.2 C 32,3.425 30.574,2 28.8,2 Z"
         transform="translate(384.57,515.8)"
         id="path21"
         style="fill:url(#linearGradient850)"
         inkscape:connector-curvature="0" />
      <path
         d="m 387.07,517.8 a 2.492,2.492 0 0 0 -2.5,2.5 v 1.5 h 32 v -1.5 a 2.492,2.492 0 0 0 -2.5,-2.5 z"
         id="path23"
         inkscape:connector-curvature="0"
         style="fill:#566069" />
      <path
         d="m 384.57,521.8 h 32 v 1 h -32 z"
         id="path25"
         inkscape:connector-curvature="0"
         style="fill:#3daee9" />
      <rect
         x="385.57001"
         y="523.79999"
         width="30"
         height="20"
         ry="2"
         id="rect27"
         style="fill:#ffffff" />
      <rect
         x="413.57001"
         y="518.79999"
         width="2"
         height="2"
         rx="1"
         id="rect29"
         style="fill:#eff0f1" />
    </g>
    <path
       inkscape:connector-curvature="0"
       style="fill:url(#radialGradient3082-3)"
       id="path4490-5"
       d="m 404.57143,525.798 c -2.84396,0 -3.37747,4.15516 -1.77736,4.15516 1.59946,0 4.62167,-4.15516 1.77736,-4.15516 z m -4.38059,0.63928 c -0.0448,-1.6e-4 -0.0935,0.004 -0.14392,0.009 -1.61165,0.19573 -1.04443,2.81837 -0.18648,2.86728 0.83075,0.0477 1.73963,-2.87147 0.32984,-2.87603 z m -2.79453,0.96823 c -0.0986,-0.006 -0.20775,0.012 -0.32927,0.0598 -1.29538,0.51147 -0.19656,2.6228 0.52863,2.48087 0.65821,-0.12861 0.75257,-2.48131 -0.19936,-2.54079 z m -2.11437,1.72614 c -0.11259,-0.003 -0.23407,0.0343 -0.36399,0.12733 -1.03692,0.74409 0.34888,2.54172 0.95899,2.26301 0.53368,-0.24414 0.1932,-2.36287 -0.59514,-2.39034 z m 6.12425,1.71611 c -2.24667,-0.037 -5.21044,1.05918 -5.71601,3.26124 -0.54711,2.38282 2.25375,5.689 5.17585,5.689 1.43749,0 3.09547,-1.26318 3.40594,-2.86292 0.23688,-1.21972 -2.78799,-0.73091 -2.67946,0.0761 0.13048,0.96751 -0.72956,1.44577 -1.57173,0.82217 -2.68075,-1.98554 4.43883,-2.97633 3.96923,-5.68901 -0.14616,-0.84444 -1.23585,-1.27445 -2.58382,-1.29664 z" />
    <path
       inkscape:connector-curvature="0"
       style="opacity:0.2;fill:url(#linearGradient969);fill-rule:evenodd"
       id="path4375-6"
       d="m 404.5892,525.794 c -0.40007,1.17369 -1.0243,2.25385 -1.80478,3.26765 l -2.78941,-2.79157 -1.28558,2.032 0.12231,0.31676 0.3219,0.31675 0.64379,0.63352 1.28758,1.26702 c -0.0399,0.0376 0.0151,0.073 -0.0253,0.11037 l -0.22938,-0.12119 -3.69829,-3.69828 -0.61891,1.13826 0.37221,0.37221 -0.45171,0.60593 0.18085,0.18097 0.18096,0.18096 0.36205,0.36193 0.72386,0.72386 1.44772,1.44772 c -0.54835,-0.32362 -1.54811,-0.56096 -1.54811,-0.56096 l -0.53453,-0.50377 -1.13513,-1.13502 -0.56756,-0.56752 -0.28379,-0.28375 -0.14189,-0.14188 -0.2083,-0.14188 -0.43945,0.80069 0.2467,0.42847 -0.46048,0.37004 0.2098,0.23141 0.10946,0.23142 0.41962,0.46282 0.83923,0.92566 1.67847,1.85131 c -0.32652,0.18621 -1.53346,0.37593 -1.87423,0.55615 l 1.03872,2.56218 5.89383,6.17415 h 12 v -7 z" />
  </g>
</svg>
