<?xml version="1.0" encoding="UTF-8" standalone="no"?>
<svg
   xmlns:dc="http://purl.org/dc/elements/1.1/"
   xmlns:cc="http://creativecommons.org/ns#"
   xmlns:rdf="http://www.w3.org/1999/02/22-rdf-syntax-ns#"
   xmlns:svg="http://www.w3.org/2000/svg"
   xmlns="http://www.w3.org/2000/svg"
   xmlns:sodipodi="http://sodipodi.sourceforge.net/DTD/sodipodi-0.dtd"
   xmlns:inkscape="http://www.inkscape.org/namespaces/inkscape"
   height="32"
   width="32"
   version="1.1"
   id="svg70"
   sodipodi:docname="preferences-virtualization-vm-install.svg"
   inkscape:version="1.0.2 (e86c870879, 2021-01-15)">
  <metadata
     id="metadata76">
    <rdf:RDF>
      <cc:Work
         rdf:about="">
        <dc:format>image/svg+xml</dc:format>
        <dc:type
           rdf:resource="http://purl.org/dc/dcmitype/StillImage" />
      </cc:Work>
    </rdf:RDF>
  </metadata>
  <defs
     id="defs74" />
  <sodipodi:namedview
     pagecolor="#ffffff"
     bordercolor="#666666"
     borderopacity="1"
     objecttolerance="10"
     gridtolerance="10"
     guidetolerance="10"
     inkscape:pageopacity="0"
     inkscape:pageshadow="2"
     inkscape:window-width="1920"
     inkscape:window-height="1007"
     id="namedview72"
     showgrid="true"
     inkscape:zoom="13.876971"
     inkscape:cx="14.518355"
     inkscape:cy="23.183599"
     inkscape:window-x="0"
     inkscape:window-y="0"
     inkscape:window-maximized="1"
     inkscape:current-layer="svg70">
    <inkscape:grid
       type="xygrid"
       id="grid901" />
  </sodipodi:namedview>
  <linearGradient
     id="c"
     gradientUnits="userSpaceOnUse"
     x1="6"
     x2="20"
     y1="14"
     y2="28">
    <stop
       offset="0"
       stop-color="#292c30"
       id="stop2" />
    <stop
       offset="1"
       stop-opacity="0"
       id="stop4" />
  </linearGradient>
  <linearGradient
     id="a"
     gradientTransform="matrix(.66667 0 0 .63518 128.19 198.519)"
     gradientUnits="userSpaceOnUse"
     x2="0"
     y1="543.798"
     y2="502.655">
    <stop
       offset="0"
       stop-color="#c6cdd1"
       id="stop7" />
    <stop
       offset="1"
       stop-color="#e0e5e7"
       id="stop9" />
  </linearGradient>
  <linearGradient
     id="b"
     gradientUnits="userSpaceOnUse"
     x1="391.571"
     x2="406.571"
     y1="525.798"
     y2="540.798">
    <stop
       offset="0"
       id="stop12" />
    <stop
       offset="1"
       stop-opacity="0"
       id="stop14" />
  </linearGradient>
  <linearGradient
     id="h"
     gradientUnits="userSpaceOnUse"
     x1="358.571"
     x2="358.571"
     y1="519.798"
     y2="505.798">
    <stop
       offset="0"
       stop-color="#4d4d4d"
       id="stop17" />
    <stop
       offset="1"
       stop-color="#585858"
       id="stop19" />
  </linearGradient>
  <linearGradient
     id="g"
     gradientUnits="userSpaceOnUse"
     x1="356.571"
     x2="356.571"
     y1="519.798"
     y2="505.798">
    <stop
       offset="0"
       stop-color="#afb0b3"
       id="stop22" />
    <stop
       offset="1"
       stop-color="#bdc3c7"
       id="stop24" />
  </linearGradient>
  <linearGradient
     id="f"
     gradientUnits="userSpaceOnUse"
     x1="350.571"
     x2="350.571"
     y1="505.798"
     y2="519.798">
    <stop
       offset="0"
       stop-color="#7f8c8d"
       id="stop27" />
    <stop
       offset="1"
       stop-color="#afb0b3"
       id="stop29" />
  </linearGradient>
  <linearGradient
     id="e"
     gradientUnits="userSpaceOnUse"
     x1="353.571"
     x2="353.571"
     y1="505.798"
     y2="519.798">
    <stop
       offset="0"
       stop-color="#31363b"
       id="stop32" />
    <stop
       offset="1"
       stop-color="#4d4d4d"
       id="stop34" />
  </linearGradient>
  <linearGradient
     id="d"
     gradientTransform="matrix(2.85714 0 0 2.8 -885.347 -966.434)"
     gradientUnits="userSpaceOnUse"
     x1="428.371"
     x2="428.371"
     y1="530.798"
     y2="525.798">
    <stop
       offset="0"
       stop-color="#da4453"
       id="stop37" />
    <stop
       offset="1"
       stop-color="#fa4e5f"
       id="stop39" />
  </linearGradient>
  <g
     transform="translate(-384.571,-515.798)"
     id="g54">
    <path
       d="m 388.571,517.798 h 24 c 2,0 4,1 4,3.88585 V 542.798 c 0,2 -1,3 -3.09275,3 H 387.571 c -2,0 -3,-1 -3,-2.96395 v -21.17383 c 0,-2.86222 1,-3.86222 4,-3.86222 z"
       fill="url(#a)"
       id="path42"
       sodipodi:nodetypes="ccccccccc" />
    <path
       d="m 385.571,543.798 30,-20 1,1 v 21 h -29 z"
       fill="url(#b)"
       fill-rule="evenodd"
       opacity="0.2"
       id="path44" />
    <path
       d="m 388.571,517.798 h 24 c 3,0 4,1 4,4 h -32 c 0,-3 1,-4 4,-4 z"
       fill="#566069"
       id="path46"
       sodipodi:nodetypes="ccccc" />
    <path
       d="m 384.571,521.798 h 32 v 1 h -32 z"
       fill="#3daee9"
       id="path48" />
    <path
       d="m 385.571,523.798 h 30 v 20 h -30 z"
       fill="#ffffff"
       id="path50" />
    <rect
       fill="#eff0f1"
       height="2"
       rx="1"
       width="2"
       x="413.57101"
       y="518.79797"
       id="rect52" />
  </g>
  <path
     d="M8.941 22l-1.176-8L11 17.235 17.176 14 19 15.824 23.059 14 31 21.941V28H14.941z"
     fill="url(#c)"
     fill-opacity=".2"
     id="path56" />
  <path
     d="M331.571 505.798h3l3.5 10 3.5-10h3l-5 14h-3z"
     fill="url(#d)"
     transform="matrix(.58824 0 0 .57143 -189.042 -275.027)"
     id="path58" />
  <path
     d="M342.571 519.798l5-14h3l-5 14zm10 0l5-14h3l-5 14z"
     fill="url(#e)"
     transform="matrix(.58824 0 0 .57143 -189.042 -275.027)"
     id="path60" />
  <path
     d="M339.571 519.798l5-14h3l-5 14zm10 0l5-14h3l-5 14z"
     fill="url(#f)"
     transform="matrix(.58824 0 0 .57143 -189.042 -275.027)"
     id="path62" />
  <path
     d="M352.571 519.798h-3l-5-14h3zm10 0h-3l-5-14h3z"
     fill="url(#g)"
     transform="matrix(.58824 0 0 .57143 -189.042 -275.027)"
     id="path64" />
  <path
     d="M347.571 505.798l5 14h3l-5-14zm10 0l5 14h3l-5-14z"
     fill="url(#h)"
     transform="matrix(.58824 0 0 .57143 -189.042 -275.027)"
     id="path66" />
  <path
     d="M27 20v6.086l-2.293-2.293L24 24.5l2.75 2.75.75.75.75-.75L31 24.5l-.707-.707L28 26.086V20z"
     fill="#27ae60"
     id="path68" />
</svg>
