<?xml version="1.0" encoding="UTF-8" standalone="no"?>
<svg
   xmlns:dc="http://purl.org/dc/elements/1.1/"
   xmlns:cc="http://creativecommons.org/ns#"
   xmlns:rdf="http://www.w3.org/1999/02/22-rdf-syntax-ns#"
   xmlns:svg="http://www.w3.org/2000/svg"
   xmlns="http://www.w3.org/2000/svg"
   xmlns:xlink="http://www.w3.org/1999/xlink"
   xmlns:sodipodi="http://sodipodi.sourceforge.net/DTD/sodipodi-0.dtd"
   xmlns:inkscape="http://www.inkscape.org/namespaces/inkscape"
   viewBox="0 0 32 32"
   version="1.1"
   id="svg81"
   sodipodi:docname="yast-update.svg"
   inkscape:version="0.92.5 (2060ec1f9f, 2020-04-08)">
  <metadata
     id="metadata85">
    <rdf:RDF>
      <cc:Work
         rdf:about="">
        <dc:format>image/svg+xml</dc:format>
        <dc:type
           rdf:resource="http://purl.org/dc/dcmitype/StillImage" />
        <dc:title></dc:title>
      </cc:Work>
    </rdf:RDF>
  </metadata>
  <sodipodi:namedview
     pagecolor="#ffffff"
     bordercolor="#666666"
     borderopacity="1"
     objecttolerance="10"
     gridtolerance="10"
     guidetolerance="10"
     inkscape:pageopacity="0"
     inkscape:pageshadow="2"
     inkscape:window-width="1085"
     inkscape:window-height="480"
     id="namedview83"
     showgrid="false"
     inkscape:zoom="7.375"
     inkscape:cx="16"
     inkscape:cy="16"
     inkscape:window-x="0"
     inkscape:window-y="25"
     inkscape:window-maximized="0"
     inkscape:current-layer="svg81" />
  <defs
     id="defs32">
    <linearGradient
       id="h"
       gradientUnits="userSpaceOnUse"
       x1="10"
       x2="10"
       xlink:href="#a"
       y1="8"
       y2="2" />
    <linearGradient
       id="a"
       gradientUnits="userSpaceOnUse"
       x2="0"
       y1="30"
       y2="8">
      <stop
         offset="0"
         stop-color="#cea476"
         id="stop3" />
      <stop
         offset="1"
         stop-color="#dab58b"
         id="stop5" />
    </linearGradient>
    <linearGradient
       xlink:href="#a"
       id="i"
       gradientUnits="userSpaceOnUse"
       y1="30"
       x2="0"
       y2="8" />
    <linearGradient
       xlink:href="#b"
       id="j"
       gradientUnits="userSpaceOnUse"
       y1="30"
       x2="0"
       y2="8" />
    <linearGradient
       id="b"
       gradientUnits="userSpaceOnUse"
       x2="0"
       y1="30"
       y2="8">
      <stop
         offset="0"
         stop-color="#cfd2d5"
         id="stop10" />
      <stop
         offset="1"
         stop-color="#eff0f1"
         id="stop12" />
    </linearGradient>
    <linearGradient
       id="k"
       gradientTransform="matrix(0.35,0,0,0.70968,-120,-355.923)"
       gradientUnits="userSpaceOnUse"
       x1="411.427"
       x2="411.427"
       y1="543.8"
       y2="512.8">
      <stop
         offset="0"
         stop-color="#73ba25"
         id="stop15" />
      <stop
         offset="1"
         stop-color="#81c13b"
         stop-opacity=".85"
         id="stop17" />
    </linearGradient>
    <linearGradient
       id="l"
       gradientTransform="matrix(0.66667,0,0,0.66667,-256.38,-333.867)"
       gradientUnits="userSpaceOnUse"
       x1="408.57"
       x2="408.57"
       xlink:href="#c"
       y1="512.801"
       y2="503.801">
      <stop
         offset="0"
         stop-color="#ebc69a"
         id="stop20" />
      <stop
         offset="1"
         stop-color="#f4e0c8"
         stop-opacity="0"
         id="stop22" />
    </linearGradient>
    <linearGradient
       id="c"
       gradientTransform="matrix(.66667 0 0 -.37037 -256.38 197.926)"
       gradientUnits="userSpaceOnUse"
       x1="408.57"
       x2="408.57"
       y1="512.798"
       y2="504.698">
      <stop
         offset="0"
         stop-color="#ebc69a"
         id="stop25" />
      <stop
         offset="1"
         stop-color="#73ba25"
         stop-opacity="0"
         id="stop27" />
    </linearGradient>
    <linearGradient
       xlink:href="#c"
       id="m"
       gradientUnits="userSpaceOnUse"
       gradientTransform="matrix(0.66667,0,0,-0.37037,-256.38,197.926)"
       x1="408.57"
       y1="512.798"
       x2="408.57"
       y2="504.698" />
    <linearGradient
       xlink:href="#d"
       id="n"
       gradientUnits="userSpaceOnUse"
       x1="18"
       y1="18"
       x2="30"
       y2="30" />
  </defs>
  <linearGradient
     id="o"
     x1="22"
     x2="22"
     y1="30"
     y2="8"
     gradientTransform="matrix(0,-1,-1,0,44,44)"
     gradientUnits="userSpaceOnUse"
     xlink:href="#e" />
  <linearGradient
     id="d"
     x1="18"
     x2="30"
     y1="18"
     y2="30"
     gradientUnits="userSpaceOnUse"
     gradientTransform="translate(40)">
    <stop
       stop-color="#292c2f"
       offset="0"
       id="stop35" />
    <stop
       stop-opacity="0"
       offset="1"
       id="stop37" />
  </linearGradient>
  <linearGradient
     id="f"
     x2="0"
     y1="30"
     y2="8"
     gradientUnits="userSpaceOnUse">
    <stop
       stop-color="#cea476"
       offset="0"
       id="stop40" />
    <stop
       stop-color="#dab58b"
       offset="1"
       id="stop42" />
  </linearGradient>
  <linearGradient
     id="g"
     x1="408.57"
     x2="408.57"
     y1="512.798"
     y2="504.698"
     gradientTransform="matrix(.66667 0 0 -.37037 -256.38 197.926)"
     gradientUnits="userSpaceOnUse">
    <stop
       stop-color="#ebc69a"
       offset="0"
       id="stop45" />
    <stop
       stop-color="#73ba25"
       stop-opacity="0"
       offset="1"
       id="stop47" />
  </linearGradient>
  <linearGradient
     id="e"
     x2="0"
     y1="30"
     y2="8"
     gradientUnits="userSpaceOnUse">
    <stop
       stop-color="#cfd2d5"
       offset="0"
       id="stop50" />
    <stop
       stop-color="#eff0f1"
       offset="1"
       id="stop52" />
  </linearGradient>
  <path
     d="M 6,2 2,8 H 30 L 26,2 H 7 Z"
     id="path55"
     style="fill:url(#h);fill-rule:evenodd"
     inkscape:connector-curvature="0" />
  <path
     d="M 2,8 V 27.148 A 2.846,2.846 0 0 0 4.852,30 H 27.148 A 2.846,2.846 0 0 0 30,27.148 V 8 H 4.852 Z"
     id="path57"
     style="fill:url(#i)"
     inkscape:connector-curvature="0" />
  <path
     d="m 2,8 v 19.148 c 0,0.79 0.319,1.503 0.834,2.018 A 2.842,2.842 0 0 0 4.852,30 H 14 V 8 Z"
     id="path59"
     style="fill:url(#j)"
     inkscape:connector-curvature="0" />
  <path
     d="m 14,30 h 13.148 c 0.79,0 1.503,-0.319 2.018,-0.834 A 2.842,2.842 0 0 0 30,27.148 V 8 H 14 Z"
     id="path61"
     style="fill:url(#k)"
     inkscape:connector-curvature="0" />
  <g
     id="g71"
     style="stroke-width:1.86699998;stroke-opacity:0.55">
    <path
       d="m 14,2 v 9 l 1,-1 1,1 1,-1 c 0,0 1,1 1,0.972 V 2 Z"
       id="path65"
       inkscape:connector-curvature="0"
       style="fill:#f4e0c8" />
    <path
       d="m 14,2 h 4 v 6 h -4 z"
       id="path67"
       style="fill:url(#l)"
       inkscape:connector-curvature="0" />
    <path
       d="m 14,8 v 3 l 1,-1 1,1 1,-1 c 0,0 1,1 1,0.973 V 8 Z"
       id="path69"
       style="fill:url(#m)"
       inkscape:connector-curvature="0" />
  </g>
  <path
     d="m 2.766,29 c 0.04,0.045 0.026,0.124 0.068,0.166 A 2.842,2.842 0 0 0 4.852,30 H 14 v -1 z"
     id="path73"
     inkscape:connector-curvature="0"
     style="fill:#adb1b3" />
  <path
     d="m 14,29 v 1 h 13.148 c 0.79,0 1.503,-0.319 2.018,-0.834 0.042,-0.042 0.029,-0.121 0.068,-0.166 z"
     id="path75"
     inkscape:connector-curvature="0"
     style="fill:#649e26" />
  <path
     d="m 22,16 -3.031,0.844 10.955,10.955 A 2.842,2.842 0 0 0 29.951,27.682 2.842,2.842 0 0 0 29.991,27.4 2.842,2.842 0 0 0 30,27.148 V 21.516 L 26.242,17.758 Z M 16.844,18.969 16,22 17.758,26.242 21.516,30 h 5.632 c 0.202,0 0.325,-0.174 0.514,-0.213 z"
     id="path77"
     style="opacity:0.2;fill:url(#n)"
     inkscape:connector-curvature="0" />
  <path
     d="m 28,22 a 5.96,5.96 0 0 1 -0.844,3.031 l -2.687,-2.687 0.718,-0.719 1.625,1.625 c 0.052,-0.195 0.098,-0.39 0.125,-0.594 0.008,-0.052 0.026,-0.103 0.032,-0.156 C 26.986,22.332 27,22.173 27,22 a 5,5 0 0 0 -5,-5 c -0.243,0 -0.486,0.028 -0.719,0.063 -0.136,0.02 -0.274,0.031 -0.406,0.062 a 4.737,4.737 0 0 0 -0.813,0.281 c -0.03,0.014 -0.063,0.018 -0.093,0.032 -0.092,0.04 -0.164,0.108 -0.25,0.156 -0.008,0.004 -0.023,-0.005 -0.032,0 l -0.718,-0.75 A 5.96,5.96 0 0 1 22,16 a 6,6 0 0 1 6,6 z m -2.969,5.156 A 5.96,5.96 0 0 1 22,28 6,6 0 0 1 16,22 5.96,5.96 0 0 1 16.844,18.969 l 0.75,0.75 1.906,1.937 -0.688,0.688 -1.625,-1.594 c -0.05,0.195 -0.097,0.39 -0.125,0.594 -0.007,0.052 -0.025,0.103 -0.03,0.156 C 17.014,21.668 17,21.827 17,22 c 0,0.173 0.014,0.332 0.031,0.5 0.017,0.168 0.03,0.337 0.063,0.5 A 5.017,5.017 0 0 0 22,27 c 0.248,0 0.48,-0.028 0.719,-0.063 0.136,-0.02 0.274,-0.031 0.406,-0.062 0.287,-0.067 0.548,-0.167 0.813,-0.281 0.03,-0.013 0.063,-0.018 0.093,-0.032 0.09,-0.04 0.165,-0.108 0.25,-0.156 h 0.032 z"
     id="path79"
     style="fill:url(#o)"
     inkscape:connector-curvature="0" />
</svg>
