<?xml version="1.0" encoding="UTF-8" standalone="no"?>
<svg
   viewBox="0 0 64 64"
   version="1.1"
   id="svg4"
   sodipodi:docname="folder-pihole.svg"
   inkscape:version="1.4.2 (unknown)"
   xmlns:inkscape="http://www.inkscape.org/namespaces/inkscape"
   xmlns:sodipodi="http://sodipodi.sourceforge.net/DTD/sodipodi-0.dtd"
   xmlns="http://www.w3.org/2000/svg"
   xmlns:svg="http://www.w3.org/2000/svg">
  <sodipodi:namedview
     id="namedview4"
     pagecolor="#ffffff"
     bordercolor="#999999"
     borderopacity="1"
     inkscape:showpageshadow="2"
     inkscape:pageopacity="0"
     inkscape:pagecheckerboard="0"
     inkscape:deskcolor="#d1d1d1"
     showgrid="false"
     inkscape:zoom="5.6568543"
     inkscape:cx="27.223611"
     inkscape:cy="36.150834"
     inkscape:window-width="2556"
     inkscape:window-height="1364"
     inkscape:window-x="0"
     inkscape:window-y="0"
     inkscape:window-maximized="1"
     inkscape:current-layer="svg4">
    <inkscape:grid
       id="grid4"
       units="px"
       originx="0"
       originy="0"
       spacingx="1"
       spacingy="1"
       empcolor="#0099e5"
       empopacity="0.30196078"
       color="#0099e5"
       opacity="0.14902"
       empspacing="5"
       dotted="false"
       gridanglex="30"
       gridanglez="30"
       visible="false" />
  </sodipodi:namedview>
  <defs
     id="defs3051">
    <style
       type="text/css"
       id="current-color-scheme">
      .ColorScheme-Text {
        color:#31363b;
      }
      .ColorScheme-Background {
        color:#eff0f1;
      }
      .ColorScheme-Highlight {
        color:#3daee9;
      }
      .ColorScheme-ViewText {
        color:#31363b;
      }
      .ColorScheme-ViewBackground {
        color:#fcfcfc;
      }
      .ColorScheme-ViewHover {
        color:#93cee9;
      }
      .ColorScheme-ViewFocus{
        color:#3daee9;
      }
      .ColorScheme-ButtonText {
        color:#31363b;
      }
      .ColorScheme-ButtonBackground {
        color:#eff0f1;
      }
      .ColorScheme-ButtonHover {
        color:#93cee9;
      }
      .ColorScheme-ButtonFocus{
        color:#3daee9;
      }
      </style>
  </defs>
  <path
     style="fill:currentColor;fill-opacity:1;stroke:none;stroke-width:0.999999"
     d="m 4.0006635,10 v 1 9 0 c -0.5203637,0.02153 -1.0229638,0.505476 -0.999899,1 h 0.00195 c -4.69e-5,0.004 -0.00195,0.008 -0.00195,0.01172 V 56 c 0.00871,0.999392 0.9801138,2.005992 1.999798,2 v 0 H 58.995109 v 0 c 1.011732,0.02205 1.994216,-0.972534 1.999798,-2 V 21.011719 21 17 c 0.05936,-0.589244 -0.407896,-1.006383 -0.999899,-1 v -4 c 0,-0.003 -0.002,0.004 -0.002,0 h 0.002 v 0 c -0.0061,-1.000671 -0.953819,-1.995969 -1.999798,-2 H 31.997836 L 27.99824,6 H 8.0002595 C 5.9630216,5.99492 4.0363539,7.9703236 4.0006635,10 Z"
     class="ColorScheme-Highlight"
     id="path1"
     sodipodi:nodetypes="ccccccsccccccccccscccccccc" />
  <path
     style="fill-opacity:0.33;fill-rule:evenodd;stroke-width:0.999999"
     d="m 4.0302775,10 -0.029614,1 v 9 H 21.998846 l 3.999596,-4 h 33.996566 v -4 c 0,-0.003 -0.002,0.004 -0.002,0 h 0.002 C 59.988808,10.988725 58.990992,9.9943186 57.99521,10 H 31.997836 L 27.99824,6 H 8.0002595 C 5.9928069,6.00259 3.994256,8.0072001 4.0302775,10 Z"
     id="path2"
     sodipodi:nodetypes="ccccccsccccccc" />
  <path
     style="fill:#ffffff;fill-opacity:0.2;fill-rule:evenodd;stroke-width:0.999999"
     d="m 27.99824,6 2.999697,5 h 1.999798 24.997475 c 1.212814,-0.06389 2.005543,1.005906 1.999798,2 v -1 c 6e-4,-0.992592 -0.988601,-1.993446 -1.999798,-2 H 32.997735 31.997836 Z m -1.999798,10 -3.999596,4 H 3.0007645 v 1 H 22.998745 Z"
     id="path3"
     sodipodi:nodetypes="cccccccccccccccc" />
  <path
     style="fill-opacity:0.2;fill-rule:evenodd;stroke-width:0.999999"
     d="m 25.998442,16 -5.999394,3 H 4.0006635 v 1 H 21.998846 Z M 3.0007645,56 c 0.00641,1.008598 0.9937008,2.001463 1.999798,2 v 0 H 58.995109 v 0 0 c 1.002828,0.0016 2.001139,-0.999662 1.999798,-2 z"
     class="ColorScheme-Text"
     id="path4"
     sodipodi:nodetypes="cccccccccccccc" />
  <path
     d="m 24.958523,26.000001 c 0.218829,4.392596 2.993673,6.467896 5.748294,6.76123 0.151705,-1.550977 -3.971028,-5.133255 -3.971028,-5.133255 -0.0079,-0.01004 0.0088,-0.02295 0.01746,-0.01282 0,0 4.273519,3.67578 4.98608,5.174503 2.539472,-0.137497 4.777371,-1.78472 4.59716,-4.502595 0,0 -3.788061,-0.561911 -4.59716,4.233099 -0.219735,-3.99662 -2.506363,-6.520162 -6.780806,-6.520162 z m 7.039176,7.041724 v 0.0019 a 3.3835104,3.373279 0 0 0 -2.382251,0.987236 l -4.10894,4.093755 a 3.3862687,3.3760291 0 0 0 -0.790713,1.242981 3.0433206,3.034118 0 0 0 -0.217896,1.1504 3.3844299,3.3741958 0 0 0 0.990218,2.394296 l 4.104345,4.093766 a 3.3927048,3.3824457 0 0 0 2.069643,0.971652 l 0.0019,9.87e-4 c 0.08548,0.0093 0.171929,0.01379 0.257438,0.01559 l -0.09194,-0.0078 c 0.05516,0.0031 0.10757,0.0087 0.162734,0.0087 l -0.0708,-9.87e-4 0.0763,0.0058 -0.0039,-0.0051 a 3.3835104,3.373279 0 0 0 2.399717,-0.987211 l 4.108937,-4.092817 a 3.3862687,3.3760291 0 0 0 0.924959,-1.730652 l 0.01104,-0.05778 a 3.3853494,3.3751125 0 0 0 0.05237,-0.49591 l 0.0031,-0.05595 c 0,-0.0156 0.003,-0.0458 0.0039,-0.05501 h -0.0019 a 3.3862687,3.3760291 0 0 0 -0.990351,-2.389703 l -4.106236,-4.09558 a 3.3963827,3.3861125 0 0 0 -1.437989,-0.849776 l -0.06439,-0.01838 a 3.1536526,3.1441163 0 0 0 -0.869768,-0.121773 z m 2.910003,3.077198 c 0.02111,1.602309 -1.222845,2.821454 -1.222845,4.405428 0.150788,2.041387 1.593375,2.939704 3.002866,2.883787 -0.03212,0.003 -0.06257,0.0071 -0.09562,0.0087 -1.698192,0.123751 -2.950456,-1.215482 -4.598999,-1.215482 -2.050331,0.150335 -2.951377,1.591314 -2.893457,2.997455 l -0.0079,-0.09535 c -0.122285,-1.693055 1.221005,-2.942453 1.221005,-4.585095 -0.159062,-2.126629 -1.71658,-3.010282 -3.181234,-2.870954 0.09194,-0.01004 0.186644,-0.01922 0.285023,-0.02479 1.698191,-0.121915 2.950458,1.21731 4.599001,1.21731 1.914256,-0.14208 2.826335,-1.407975 2.891613,-2.720621 z M 24.958523,26.000001 c 0.218829,4.392596 2.993673,6.467896 5.748294,6.76123 0.151705,-1.550977 -3.971028,-5.133255 -3.971028,-5.133255 -0.0079,-0.01004 0.0088,-0.02295 0.01746,-0.01282 0,0 4.273519,3.67578 4.98608,5.174503 2.539472,-0.137497 4.777371,-1.78472 4.59716,-4.502595 0,0 -3.788061,-0.561911 -4.59716,4.233099 -0.219735,-3.99662 -2.506363,-6.520162 -6.780806,-6.520162 z m 7.039176,7.041724 v 0.0019 a 3.3835104,3.373279 0 0 0 -2.382251,0.987236 l -4.10894,4.093755 a 3.3862687,3.3760291 0 0 0 -0.790713,1.242981 3.0433206,3.034118 0 0 0 -0.217896,1.1504 3.3844299,3.3741958 0 0 0 0.990218,2.394296 l 4.104345,4.093766 a 3.3927048,3.3824457 0 0 0 2.069643,0.971652 l 0.0019,9.87e-4 c 0.08548,0.0093 0.171929,0.01379 0.257438,0.01559 l -0.09194,-0.0078 c 0.05516,0.0031 0.10757,0.0087 0.162734,0.0087 l -0.0708,-9.87e-4 0.0763,0.0058 -0.0039,-0.0051 a 3.3835104,3.373279 0 0 0 2.399717,-0.987211 l 4.108937,-4.092817 a 3.3862687,3.3760291 0 0 0 0.924959,-1.730652 l 0.01104,-0.05778 a 3.3853494,3.3751125 0 0 0 0.05237,-0.49591 l 0.0031,-0.05595 c 0,-0.0156 0.003,-0.0458 0.0039,-0.05501 h -0.0019 a 3.3862687,3.3760291 0 0 0 -0.990351,-2.389703 l -4.106236,-4.09558 a 3.3963827,3.3861125 0 0 0 -1.437989,-0.849776 l -0.06439,-0.01838 a 3.1536526,3.1441163 0 0 0 -0.869768,-0.121773 z m 2.910003,3.077198 c 0.02111,1.602309 -1.222845,2.821454 -1.222845,4.405428 0.150788,2.041387 1.593375,2.939704 3.002866,2.883787 -0.03212,0.003 -0.06257,0.0071 -0.09562,0.0087 -1.698192,0.123751 -2.950456,-1.215482 -4.598999,-1.215482 -2.050331,0.150335 -2.951377,1.591314 -2.893457,2.997455 l -0.0079,-0.09535 c -0.122285,-1.693055 1.221005,-2.942453 1.221005,-4.585095 -0.159062,-2.126629 -1.71658,-3.010282 -3.181234,-2.870954 0.09194,-0.01004 0.186644,-0.01922 0.285023,-0.02479 1.698191,-0.121915 2.950458,1.21731 4.599001,1.21731 1.914256,-0.14208 2.826335,-1.407975 2.891613,-2.720621 z"
     id="path5"
     style="fill:#e5e5e5;stroke-width:1.22593;fill-opacity:1" />
</svg>
