<?xml version="1.0" encoding="UTF-8" standalone="no"?>
<svg
   xmlns:dc="http://purl.org/dc/elements/1.1/"
   xmlns:cc="http://creativecommons.org/ns#"
   xmlns:rdf="http://www.w3.org/1999/02/22-rdf-syntax-ns#"
   xmlns:svg="http://www.w3.org/2000/svg"
   xmlns="http://www.w3.org/2000/svg"
   xmlns:sodipodi="http://sodipodi.sourceforge.net/DTD/sodipodi-0.dtd"
   xmlns:inkscape="http://www.inkscape.org/namespaces/inkscape"
   viewBox="0 0 32 32"
   version="1.1"
   id="svg12"
   sodipodi:docname="folder-Pop_OS.svg"
   inkscape:version="1.0.2 (e86c870879, 2021-01-15)">
  <metadata
     id="metadata16">
    <rdf:RDF>
      <cc:Work
         rdf:about="">
        <dc:format>image/svg+xml</dc:format>
        <dc:type
           rdf:resource="http://purl.org/dc/dcmitype/StillImage" />
      </cc:Work>
    </rdf:RDF>
  </metadata>
  <sodipodi:namedview
     pagecolor="#ffffff"
     bordercolor="#666666"
     borderopacity="1"
     objecttolerance="10"
     gridtolerance="10"
     guidetolerance="10"
     inkscape:pageopacity="0"
     inkscape:pageshadow="2"
     inkscape:window-width="1920"
     inkscape:window-height="1007"
     id="namedview14"
     showgrid="false"
     inkscape:zoom="19.625"
     inkscape:cx="16"
     inkscape:cy="16"
     inkscape:window-x="0"
     inkscape:window-y="0"
     inkscape:window-maximized="1"
     inkscape:current-layer="svg12" />
  <defs
     id="defs3051">
    <style
       type="text/css"
       id="current-color-scheme">
      .ColorScheme-Text {
        color:#31363b;
      }
      .ColorScheme-Background {
        color:#eff0f1;
      }
      .ColorScheme-Highlight {
        color:#3daee9;
      }
      .ColorScheme-ViewText {
        color:#31363b;
      }
      .ColorScheme-ViewBackground {
        color:#fcfcfc;
      }
      .ColorScheme-ViewHover {
        color:#93cee9;
      }
      .ColorScheme-ViewFocus{
        color:#3daee9;
      }
      .ColorScheme-ButtonText {
        color:#31363b;
      }
      .ColorScheme-ButtonBackground {
        color:#eff0f1;
      }
      .ColorScheme-ButtonHover {
        color:#93cee9;
      }
      .ColorScheme-ButtonFocus{
        color:#3daee9;
      }
      </style>
  </defs>
  <path
     style="fill:currentColor;fill-opacity:1;stroke:none"
     d="M 2 3 L 2 10 L 1 10 L 1 29 L 12 29 L 13 29 L 31 29 L 31 8 L 30 8 L 30 5 L 16 5 L 14 3 L 2 3 z "
     class="ColorScheme-Highlight"
     id="path4" />
  <path
     style="fill-opacity:0.33;fill-rule:evenodd"
     d="m 2,3 0,7 9,0 L 13,8 30,8 30,5 16,5 14,3 2,3 Z"
     id="path6" />
  <path
     style="fill:#ffffff;fill-opacity:0.2;fill-rule:evenodd"
     d="M 14 3 L 15 6 L 30 6 L 30 5 L 16 5 L 14 3 z M 13 8 L 11 10 L 1 10 L 1 11 L 12 11 L 13 8 z "
     id="path8" />
  <path
     style="fill-opacity:0.2;fill-rule:evenodd"
     d="M 13 8 L 11 9 L 2 9 L 2 10 L 11 10 L 13 8 z M 1 28 L 1 29 L 31 29 L 31 28 L 1 28 z "
     class="ColorScheme-Text"
     id="path10" />
  <path
     style="fill:#e4e5e5;fill-opacity:1;stroke-width:0.0122847"
     id="path2-3-3"
     d="m 21.257797,18.42914 c -0.023,0.0981 -0.073,0.18502 -0.15795,0.23963 -0.13369,0.0857 -0.29659,0.0608 -0.41203,-0.0434 -0.10817,-0.0968 -0.14463,-0.26078 -0.11056,-0.40234 0.0355,-0.1477 0.14704,-0.27812 0.29042,-0.31904 0.31963,-0.0908 0.45213,0.26448 0.39012,0.52516 z m -0.19564,-1.00827 c -0.19809,-0.0805 -0.13007,-1.14237 0.0506,-2.43125 0.0506,-0.36009 0.13851,-0.53022 0.23697,-0.61712 0.14101,-0.12296 0.39743,-0.12791 0.57124,-0.10184 0.19932,0.0302 0.3901,0.12416 0.53475,0.26695 0.12758,0.12669 0.14219,0.25579 0.0985,0.42343 -0.0717,0.267 -0.1945,0.52279 -0.31236,0.77237 -0.0279,0.0608 -0.27221,0.53392 -0.30504,0.59233 -0.58944,1.06036 -0.70733,1.16347 -0.87508,1.09513 z" />
  <path
     style="fill:#e4e5e5;fill-opacity:1;stroke-width:0.0122847"
     id="path4-3"
     d="m 17.063667,16.94285 c 0.11668,0.50906 0.10452,1.06782 0.008,1.47014 -0.0936,0.37999 -0.34761,0.72025 -0.75113,0.83446 -0.35364,0.10056 -0.76566,0.0276 -1.01842,-0.22104 -0.41568,-0.40725 -0.65872,-1.36338 -0.55058,-2.05748 0.0876,-0.55756 0.38162,-1.27156 1.02695,-1.30257 0.0415,-0.004 0.0825,-0.002 0.12399,0.004 0.6575,0.0608 1.01605,0.62709 1.16431,1.27404 z m -1.18868,1.15851 c 0.0366,0.01 0.0731,0.01 0.10944,-0.008 0.12278,-0.0363 0.19327,-0.16644 0.22606,-0.29306 0.0499,-0.19246 0.0423,-0.39984 -0.0218,-0.58858 -0.0328,-0.0956 -0.0814,-0.18876 -0.15556,-0.2583 -0.26128,-0.2446 -0.52261,0.0102 -0.56754,0.29926 -0.0355,0.22601 0.0155,0.48801 0.15429,0.67054 0.0647,0.0845 0.15683,0.15768 0.2552,0.17507 z" />
  <path
     style="fill:#e4e5e5;fill-opacity:1;stroke-width:0.0122847"
     id="path6-6"
     d="m 18.486797,18.02187 c -0.002,0.94004 0.0913,1.65891 -0.31356,1.74458 -0.3281,0.0682 -0.31722,-0.22596 -0.34271,-0.47304 -0.0973,-0.95741 -0.18598,-2.54802 -0.22364,-3.51032 0.0271,-0.41344 0.29778,-0.66684 0.57969,-0.7289 0.43515,-0.0956 0.89943,-0.0681 1.28469,0.17506 0.76203,0.4818 0.82278,1.36587 0.36097,2.08734 -0.25282,0.39362 -1.01725,0.6792 -1.34544,0.65441 z m 0.0973,-2.10719 c -0.0475,0.01 -0.1252,0.0302 -0.14707,0.0769 -0.0523,0.1105 -0.0483,0.81204 0.0421,1.10632 0.0147,0.0483 0.0477,0.0944 0.0948,0.11179 0.17253,0.0649 0.32814,-0.15148 0.39863,-0.28187 0.0984,-0.18133 0.13002,-0.39486 0.0679,-0.59351 -0.0584,-0.18503 -0.23934,-0.45323 -0.45688,-0.41974 z" />
  <path
     style="fill:#e4e5e5;fill-opacity:1;stroke-width:0.0122847"
     id="path8-7"
     d="m 14.128567,16.38158 c -0.28556,0.61712 -0.75953,1.10763 -1.41582,1.34972 0.18831,0.50289 0.38036,0.9996 0.56757,1.50122 0.10445,0.27073 0.20416,0.56746 0.113,0.83445 -0.0948,0.27318 -0.46424,0.34895 -0.73287,0.0588 -0.51653,-0.5613 -2.26301,-4.11751 -2.39182,-4.3845 -0.10932,-0.22969 -0.2734196,-0.4756 -0.26852,-0.74125 0.01,-0.39991 0.61367,-0.80468 0.90422,-1.01208 0.40588,-0.28927 0.87502,-0.48665 1.37695,-0.48794 0.39131,0 0.72557,0.10924 1.02208,0.30297 0.45459,0.298 0.77054,0.77363 0.88725,1.3113 0.1021,0.47305 0.08,0.95729 -0.0623,1.26772 m -1.33088,-0.67546 c -0.10202,-0.37878 -0.33299,-0.72768 -0.62345,-0.97227 -0.063,-0.0538 -0.13128,-0.10304 -0.21023,-0.13039 -0.54454,-0.18252 -0.30876,0.74753 -0.22003,0.98221 0.12273,0.32904 0.30876,0.74504 0.55786,0.99332 0.0546,0.0544 0.11907,0.1031 0.19323,0.11801 0.11302,0.0237 0.21756,-0.057 0.27467,-0.15149 0.0478,-0.0782 0.0654,-0.17133 0.0767,-0.26206 0.0209,-0.19242 0.004,-0.38859 -0.0485,-0.57733 z" />
  <path
     style="fill:#e4e5e5;fill-opacity:1;stroke-width:0.0122847"
     id="path10-5"
     d="m 20.639647,21.10844 c -0.004,0.54506 -0.32814,1.09018 -1.0464,1.09018 -0.71827,0 -1.05257,-0.53643 -1.05257,-1.08401 0,-0.68294 0.46549,-1.10514 1.06715,-1.10514 0.69761,0.01 1.03791,0.53524 1.03182,1.09897 z m -1.03182,-0.755 c -0.45092,0 -0.70373,0.32036 -0.70614,0.75742 0,0.37999 0.20783,0.73637 0.69762,0.73637 0.48977,0 0.67697,-0.38617 0.67697,-0.74008 0.01,-0.36755 -0.18475,-0.74502 -0.66845,-0.75371 z m 1.33318,1.56583 c 0,0.0806 0.004,-0.38369 0,-0.45447 h 0.33059 l 0.0231,0.28431 c 0.10815,0.0634 0.27586,0.11051 0.41323,0.11051 0.2552,0 0.52139,-0.0655 0.52139,-0.32034 -0.01,-0.23095 -0.3051,-0.27817 -0.54452,-0.30294 -0.40715,-0.0421 -0.73525,-0.1441 -0.73525,-0.61095 0,-0.41593 0.46058,-0.62334 0.8033,-0.62334 0.2759,-0.01 0.47156,0.0388 0.72072,0.24215 0,0.16762 -0.004,0.26693 -0.004,0.43455 h -0.31955 l -0.0209,-0.27563 c -0.12881,-0.0634 -0.26128,-0.0807 -0.36335,-0.0782 -0.22002,0.004 -0.45455,0.10804 -0.45455,0.29674 0,0.18502 0.1519,0.23602 0.42171,0.27567 0.43998,0.0593 0.86415,0.16144 0.86415,0.64073 -0.004,0.52398 -0.48372,0.66183 -0.89695,0.66183 -0.3148,0.002 -0.51164,-0.0586 -0.76082,-0.28058 z"
     inkscape:connector-curvature="0" />
  <path
     style="fill:#e4e5e5;fill-opacity:1;stroke-width:0.0122847"
     id="path12"
     d="m 18.094717,22.01983 c 0,0.0956 -0.0755,0.17261 -0.16893,0.17261 h -1.95309 c -0.0936,0 -0.16893,-0.0769 -0.16893,-0.17261 v -0.0151 c 0,-0.0956 0.0755,-0.17261 0.16893,-0.17261 h 1.95309 c 0.0936,0 0.16893,0.0769 0.16893,0.17261 z"
     inkscape:connector-curvature="0" />
</svg>
