<?xml version="1.0" encoding="UTF-8" standalone="no"?>
<svg
   xmlns:dc="http://purl.org/dc/elements/1.1/"
   xmlns:cc="http://creativecommons.org/ns#"
   xmlns:rdf="http://www.w3.org/1999/02/22-rdf-syntax-ns#"
   xmlns:svg="http://www.w3.org/2000/svg"
   xmlns="http://www.w3.org/2000/svg"
   xmlns:sodipodi="http://sodipodi.sourceforge.net/DTD/sodipodi-0.dtd"
   xmlns:inkscape="http://www.inkscape.org/namespaces/inkscape"
   viewBox="0 0 32 32"
   version="1.1"
   id="svg12"
   sodipodi:docname="folder-Reddit.svg"
   inkscape:version="1.0.2 (e86c870879, 2021-01-15)">
  <metadata
     id="metadata16">
    <rdf:RDF>
      <cc:Work
         rdf:about="">
        <dc:format>image/svg+xml</dc:format>
        <dc:type
           rdf:resource="http://purl.org/dc/dcmitype/StillImage" />
      </cc:Work>
    </rdf:RDF>
  </metadata>
  <sodipodi:namedview
     pagecolor="#ffffff"
     bordercolor="#666666"
     borderopacity="1"
     objecttolerance="10"
     gridtolerance="10"
     guidetolerance="10"
     inkscape:pageopacity="0"
     inkscape:pageshadow="2"
     inkscape:window-width="1920"
     inkscape:window-height="1007"
     id="namedview14"
     showgrid="false"
     inkscape:zoom="19.625"
     inkscape:cx="7.7707006"
     inkscape:cy="16"
     inkscape:window-x="0"
     inkscape:window-y="0"
     inkscape:window-maximized="1"
     inkscape:current-layer="svg12" />
  <defs
     id="defs3051">
    <style
       type="text/css"
       id="current-color-scheme">
      .ColorScheme-Text {
        color:#31363b;
      }
      .ColorScheme-Background {
        color:#eff0f1;
      }
      .ColorScheme-Highlight {
        color:#3daee9;
      }
      .ColorScheme-ViewText {
        color:#31363b;
      }
      .ColorScheme-ViewBackground {
        color:#fcfcfc;
      }
      .ColorScheme-ViewHover {
        color:#93cee9;
      }
      .ColorScheme-ViewFocus{
        color:#3daee9;
      }
      .ColorScheme-ButtonText {
        color:#31363b;
      }
      .ColorScheme-ButtonBackground {
        color:#eff0f1;
      }
      .ColorScheme-ButtonHover {
        color:#93cee9;
      }
      .ColorScheme-ButtonFocus{
        color:#3daee9;
      }
      </style>
  </defs>
  <path
     style="fill:currentColor;fill-opacity:1;stroke:none"
     d="M 2 3 L 2 10 L 1 10 L 1 29 L 12 29 L 13 29 L 31 29 L 31 8 L 30 8 L 30 5 L 16 5 L 14 3 L 2 3 z "
     class="ColorScheme-Highlight"
     id="path4" />
  <path
     style="fill-opacity:0.33;fill-rule:evenodd"
     d="m 2,3 0,7 9,0 L 13,8 30,8 30,5 16,5 14,3 2,3 Z"
     id="path6" />
  <path
     style="fill:#ffffff;fill-opacity:0.2;fill-rule:evenodd"
     d="M 14 3 L 15 6 L 30 6 L 30 5 L 16 5 L 14 3 z M 13 8 L 11 10 L 1 10 L 1 11 L 12 11 L 13 8 z "
     id="path8" />
  <path
     style="fill-opacity:0.2;fill-rule:evenodd"
     d="M 13 8 L 11 9 L 2 9 L 2 10 L 11 10 L 13 8 z M 1 28 L 1 29 L 31 29 L 31 28 L 1 28 z "
     class="ColorScheme-Text"
     id="path10" />
  <path
     d="m 21.7865,17.7791 c 0,-0.91396 -0.74372,-1.65532 -1.65518,-1.65532 -0.3591,0 -0.7021,0.11512 -0.98532,0.32472 -0.8035,-0.4052 -1.75874,-0.64913 -2.76945,-0.70679 l 0.6608,-1.82542 1.59759,0.39821 c 0.0346,0.656 0.58016,1.17621 1.24317,1.17621 0.68589,0 1.24539,-0.55925 1.24539,-1.24521 0,-0.686 -0.5595,-1.2455 -1.24539,-1.2455 -0.4674,0 -0.87478,0.25774 -1.08886,0.63997 l -2.1894,-0.54783 -0.95302,2.6357 c -1.09805,0.0329 -2.13854,0.28087 -3.00633,0.71596 -0.28321,-0.20935 -0.62398,-0.3223 -0.983,-0.3223 -0.914,0.005 -1.6575,0.746 -1.6575,1.6576 0,0.44642 0.18422,0.87704 0.4995,1.1854 -0.0212,0.13123 -0.0327,0.26492 -0.0327,0.39821 0,1.00152 0.5846,1.93158 1.64353,2.61759 1.01296,0.6582 2.355,1.0197 3.77769,1.0197 1.42276,0 2.76243,-0.3615 3.77762,-1.0197 1.05892,-0.68846 1.64369,-1.61844 1.64369,-2.61759 0,-0.13121 -0.0122,-0.26222 -0.0299,-0.39345 0.31998,-0.30625 0.50657,-0.73897 0.50657,-1.19016 z m -8.48536,0.96674 c 0,-0.53167 0.43266,-0.96448 0.96448,-0.96448 0.53188,0 0.96467,0.43281 0.96467,0.96448 0,0.5317 -0.43279,0.96466 -0.96467,0.96466 -0.53182,0 -0.96448,-0.43296 -0.96448,-0.96466 z m 2.65429,3.05261 c -0.74818,0 -1.47793,-0.21195 -2.10872,-0.61233 l 0.37066,-0.58257 c 0.52013,0.33162 1.12332,0.5066 1.74024,0.5066 0.61695,0 1.21789,-0.17498 1.74033,-0.5066 l 0.3706,0.58257 c -0.63525,0.40038 -1.36504,0.61233 -2.11311,0.61233 z m 1.71028,-2.08795 c -0.53177,0 -0.96442,-0.43296 -0.96442,-0.96466 0,-0.53167 0.43265,-0.96448 0.96442,-0.96448 0.53179,0 0.96462,0.43281 0.96462,0.96448 0,0.5317 -0.43283,0.96466 -0.96462,0.96466 z m 0,0"
     id="path2-3-3"
     style="fill:#e4e5e5;fill-opacity:1;stroke-width:0.0230207" />
</svg>
