<?xml version="1.0" encoding="UTF-8" standalone="no"?>
<svg
   viewBox="0 0 64 64"
   version="1.1"
   id="svg4"
   sodipodi:docname="folder-google.svg"
   inkscape:version="1.4.2 (unknown)"
   xml:space="preserve"
   xmlns:inkscape="http://www.inkscape.org/namespaces/inkscape"
   xmlns:sodipodi="http://sodipodi.sourceforge.net/DTD/sodipodi-0.dtd"
   xmlns="http://www.w3.org/2000/svg"
   xmlns:svg="http://www.w3.org/2000/svg"><sodipodi:namedview
     id="namedview4"
     pagecolor="#ffffff"
     bordercolor="#999999"
     borderopacity="1"
     inkscape:showpageshadow="2"
     inkscape:pageopacity="0"
     inkscape:pagecheckerboard="0"
     inkscape:deskcolor="#d1d1d1"
     showgrid="true"
     inkscape:zoom="5.6568543"
     inkscape:cx="27.223611"
     inkscape:cy="36.150834"
     inkscape:window-width="2556"
     inkscape:window-height="1364"
     inkscape:window-x="0"
     inkscape:window-y="0"
     inkscape:window-maximized="1"
     inkscape:current-layer="svg4"><inkscape:grid
       id="grid4"
       units="px"
       originx="0"
       originy="0"
       spacingx="1"
       spacingy="1"
       empcolor="#0099e5"
       empopacity="0.30196078"
       color="#0099e5"
       opacity="0.14902"
       empspacing="5"
       dotted="false"
       gridanglex="30"
       gridanglez="30"
       visible="true" /></sodipodi:namedview><defs
     id="defs3051"><style
       type="text/css"
       id="current-color-scheme">
      .ColorScheme-Text {
        color:#31363b;
      }
      .ColorScheme-Background {
        color:#eff0f1;
      }
      .ColorScheme-Highlight {
        color:#3daee9;
      }
      .ColorScheme-ViewText {
        color:#31363b;
      }
      .ColorScheme-ViewBackground {
        color:#fcfcfc;
      }
      .ColorScheme-ViewHover {
        color:#93cee9;
      }
      .ColorScheme-ViewFocus{
        color:#3daee9;
      }
      .ColorScheme-ButtonText {
        color:#31363b;
      }
      .ColorScheme-ButtonBackground {
        color:#eff0f1;
      }
      .ColorScheme-ButtonHover {
        color:#93cee9;
      }
      .ColorScheme-ButtonFocus{
        color:#3daee9;
      }
      </style></defs><path
     style="fill:currentColor;fill-opacity:1;stroke:none;stroke-width:0.999999"
     d="m 4.0006635,10 v 1 9 0 c -0.5203637,0.02153 -1.0229638,0.505476 -0.999899,1 h 0.00195 c -4.69e-5,0.004 -0.00195,0.008 -0.00195,0.01172 V 56 c 0.00871,0.999392 0.9801138,2.005992 1.999798,2 v 0 H 58.995109 v 0 c 1.011732,0.02205 1.994216,-0.972534 1.999798,-2 V 21.011719 21 17 c 0.05936,-0.589244 -0.407896,-1.006383 -0.999899,-1 v -4 c 0,-0.003 -0.002,0.004 -0.002,0 h 0.002 v 0 c -0.0061,-1.000671 -0.953819,-1.995969 -1.999798,-2 H 31.997836 L 27.99824,6 H 8.0002595 C 5.9630216,5.99492 4.0363539,7.9703236 4.0006635,10 Z"
     class="ColorScheme-Highlight"
     id="path1"
     sodipodi:nodetypes="ccccccsccccccccccscccccccc" /><path
     style="fill-opacity:0.33;fill-rule:evenodd;stroke-width:0.999999"
     d="m 4.0302775,10 -0.029614,1 v 9 H 21.998846 l 3.999596,-4 h 33.996566 v -4 c 0,-0.003 -0.002,0.004 -0.002,0 h 0.002 C 59.988808,10.988725 58.990992,9.9943186 57.99521,10 H 31.997836 L 27.99824,6 H 8.0002595 C 5.9928069,6.00259 3.994256,8.0072001 4.0302775,10 Z"
     id="path2"
     sodipodi:nodetypes="ccccccsccccccc" /><path
     style="fill:#ffffff;fill-opacity:0.2;fill-rule:evenodd;stroke-width:0.999999"
     d="m 27.99824,6 2.999697,5 h 1.999798 24.997475 c 1.212814,-0.06389 2.005543,1.005906 1.999798,2 v -1 c 6e-4,-0.992592 -0.988601,-1.993446 -1.999798,-2 H 32.997735 31.997836 Z m -1.999798,10 -3.999596,4 H 3.0007645 v 1 H 22.998745 Z"
     id="path3"
     sodipodi:nodetypes="cccccccccccccccc" /><path
     style="fill-opacity:0.2;fill-rule:evenodd;stroke-width:0.999999"
     d="m 25.998442,16 -5.999394,3 H 4.0006635 v 1 H 21.998846 Z M 3.0007645,56 c 0.00641,1.008598 0.9937008,2.001463 1.999798,2 v 0 H 58.995109 v 0 0 c 1.002828,0.0016 2.001139,-0.999662 1.999798,-2 z"
     class="ColorScheme-Text"
     id="path4"
     sodipodi:nodetypes="cccccccccccccc" /><path
     d="m 41.999233,37.434384 c 0,-0.725386 -0.06383,-1.418886 -0.187331,-2.088471 h -9.609353 v 3.94976 h 5.492207 c -0.17935,0.952567 -0.633715,1.793535 -1.303311,2.463121 l -0.0033,0.004 c -0.02783,0.0279 -0.05983,0.05978 -0.09167,0.08768 -0.199282,0.187324 -0.418497,0.362691 -0.653647,0.518131 -0.04783,0.03188 -0.09967,0.06377 -0.151499,0.09565 -0.02001,0.012 -0.04383,0.0279 -0.06383,0.03985 -0.024,0.016 -0.05183,0.03188 -0.07567,0.04385 -0.589881,0.342764 -1.275411,0.585888 -2.044623,0.709443 l 0.0083,0.004 c -0.354715,0.0558 -0.72538,0.08768 -1.111995,0.08768 -0.47828,0 -0.940611,-0.05978 -1.386992,-0.167397 0.0033,-0.008 0.0033,-0.012 0.0083,-0.016 -1.90114,-0.466318 -3.463516,-1.845347 -4.196879,-3.646853 0,-0.004 -0.0033,-0.008 -0.0033,-0.012 -0.02383,-0.0558 -0.04383,-0.1116 -0.06383,-0.167397 -0.0033,-0.008 -0.0083,-0.01993 -0.01168,-0.0279 L 26.4893,39.144134 h -0.01167 l 0.0033,-0.004 0.0083,-0.004 c -0.02,-0.05978 -0.02783,-0.123551 -0.04783,-0.18334 -0.0033,0.004 -0.0083,0.004 -0.0083,0.008 -0.04783,-0.151448 -0.08767,-0.306893 -0.123499,-0.462331 -0.09567,-0.418492 -0.1475,-0.852926 -0.1475,-1.299316 0,-0.518132 0.07167,-1.020323 0.1953,-1.502583 0.03983,-0.147466 0.07967,-0.290951 0.127499,-0.434434 0.01667,-0.04385 0.03183,-0.08768 0.04383,-0.131532 l 0.01167,-0.03587 c 0.01166,-0.03188 0.024,-0.06775 0.03583,-0.09965 l 0.01168,-0.03587 c 0.01667,-0.03587 0.02783,-0.07173 0.04383,-0.107617 0.0033,-0.004 0.0033,-0.012 0.0083,-0.016 0.03983,-0.09167 0.07967,-0.179355 0.119499,-0.267039 0.577915,-1.21163 1.53846,-2.216011 2.722187,-2.833784 l -0.0033,-0.004 c 0.817045,-0.426463 1.737741,-0.669587 2.714219,-0.669587 1.502576,0 2.837769,0.518133 3.905914,1.522512 l 2.921573,-2.921411 C 37.260323,28.01235 34.956618,27 32.202549,27 c -3.782364,0 -7.074497,2.060572 -8.836139,5.125523 0,0.004 -0.0033,0.004 -0.0033,0.008 -0.04383,0.07573 -0.08767,0.15145 -0.1275,0.231166 -0.0083,0.012 -0.01167,0.02392 -0.02,0.03587 -0.03983,0.07573 -0.07967,0.151449 -0.119499,0.231166 C 22.398565,34.00277 22,35.55318 22,37.203232 c 0,1.650051 0.398565,3.200462 1.096045,4.571519 v 0.012 c 0.03183,0.06377 0.06383,0.123549 0.09567,0.183338 0.0083,0.01993 0.01983,0.03587 0.02783,0.05181 0.02383,0.04783 0.05184,0.09565 0.07567,0.143483 0.0083,0.016 0.01667,0.03188 0.02783,0.04783 0.07183,0.12755 0.143499,0.251096 0.223199,0.37465 0.0033,0.008 0.01168,0.01993 0.01667,0.0279 0.03583,0.05978 0.07567,0.115583 0.1115,0.175368 0,0.004 0.0033,0.004 0.0033,0.008 1.506559,2.295724 3.913881,3.945775 6.719767,4.447965 h 0.0083 c 0.05583,0.008 0.111667,0.01993 0.167399,0.0279 0.0083,0 0.01167,0.004 0.02,0.004 l 0.155499,0.02392 c 0.01167,0 0.02,0.004 0.03183,0.004 0.04783,0.008 0.09567,0.012 0.147499,0.01993 0.01667,0 0.02783,0.004 0.04383,0.004 0.04383,0.004 0.09167,0.012 0.135499,0.016 0.02,0 0.03583,0.004 0.05583,0.004 0.03983,0.004 0.08366,0.008 0.1235,0.012 0.024,0 0.04383,0.004 0.06766,0.004 0.03983,0.004 0.07567,0.008 0.115499,0.008 0.02783,0 0.05183,0.004 0.07967,0.004 0.03583,0.004 0.06783,0.004 0.103666,0.008 0.03183,0 0.06383,0.004 0.09167,0.004 0.03183,0 0.05983,0.004 0.09167,0.004 0.03983,0 0.07567,0.004 0.115665,0.004 h 0.251099 c 0.275015,0 0.54603,-0.008 0.813062,-0.0279 0.199283,-0.012 0.390598,-0.03188 0.585898,-0.0558 0.07567,-0.008 0.147498,-0.01993 0.219215,-0.0279 1.849324,-0.259066 3.447566,-0.960538 4.730942,-2.004774 0.01167,-0.012 0.02783,-0.01993 0.03983,-0.03188 0.02783,-0.02392 0.05583,-0.04783 0.08366,-0.06775 0.02783,-0.02392 0.05183,-0.04385 0.07967,-0.06775 0.01983,-0.016 0.03983,-0.03587 0.05983,-0.05181 0.04783,-0.04385 0.09567,-0.0837 0.143498,-0.127549 0.75328,-0.697485 1.38301,-1.522511 1.873241,-2.455148 C 41.585502,41.034096 42,39.328244 42,37.435071"
     style="fill:#e5e5e5;stroke-width:0.0398563;fill-opacity:1"
     id="path1-3" /></svg>
