<?xml version="1.0" encoding="UTF-8" standalone="no"?>
<svg
   viewBox="0 0 32 32"
   version="1.1"
   id="svg14"
   sodipodi:docname="folder-design.svg"
   inkscape:version="1.3 (0e150ed6c4, 2023-07-21)"
   xmlns:inkscape="http://www.inkscape.org/namespaces/inkscape"
   xmlns:sodipodi="http://sodipodi.sourceforge.net/DTD/sodipodi-0.dtd"
   xmlns="http://www.w3.org/2000/svg"
   xmlns:svg="http://www.w3.org/2000/svg">
  <sodipodi:namedview
     id="namedview16"
     pagecolor="#ffffff"
     bordercolor="#666666"
     borderopacity="1.0"
     inkscape:pageshadow="2"
     inkscape:pageopacity="0.0"
     inkscape:pagecheckerboard="0"
     showgrid="false"
     inkscape:zoom="19.4375"
     inkscape:cx="16.025723"
     inkscape:cy="15.974277"
     inkscape:window-width="1920"
     inkscape:window-height="996"
     inkscape:window-x="0"
     inkscape:window-y="0"
     inkscape:window-maximized="1"
     inkscape:current-layer="svg14"
     inkscape:showpageshadow="2"
     inkscape:deskcolor="#d1d1d1" />
  <defs
     id="defs3051">
    <style
       type="text/css"
       id="current-color-scheme">&#10;      .ColorScheme-Text {&#10;        color:#31363b;&#10;      }&#10;      .ColorScheme-Highlight {&#10;        color:#3daee9;&#10;      }&#10;      </style>
  </defs>
  <path
     style="fill:currentColor;fill-opacity:1;stroke:none"
     d="M 2 3 L 2 10 L 1 10 L 1 29 L 12 29 L 13 29 L 31 29 L 31 8 L 30 8 L 30 5 L 16 5 L 14 3 L 2 3 z "
     class="ColorScheme-Highlight"
     id="path4" />
  <path
     style="fill-opacity:0.33;fill-rule:evenodd"
     d="m 2,3 0,7 9,0 L 13,8 30,8 30,5 16,5 14,3 2,3 Z"
     id="path6" />
  <path
     style="fill:#ffffff;fill-opacity:0.2;fill-rule:evenodd"
     d="M 14 3 L 15 6 L 30 6 L 30 5 L 16 5 L 14 3 z M 13 8 L 11 10 L 1 10 L 1 11 L 12 11 L 13 8 z "
     id="path8" />
  <path
     style="fill-opacity:0.2;fill-rule:evenodd"
     d="M 13 8 L 11 9 L 2 9 L 2 10 L 11 10 L 13 8 z M 1 28 L 1 29 L 31 29 L 31 28 L 1 28 z "
     class="ColorScheme-Text"
     id="path10" />
  <path
     style="fill:#e5e5e5;fill-opacity:1;stroke:none;stroke-width:0.906576"
     d="m 16.06,12.5 c -1.012711,0 -1.83369,0.802674 -1.83369,1.792821 4.06e-4,0.60425 0.312078,1.167654 0.829095,1.498685 l -1.853372,3.879785 h -0.350978 c -0.253982,0 -0.45842,0.199898 -0.45842,0.448204 0,0.222877 0.167588,0.39888 0.384994,0.434197 l -1.133512,2.347821 c -0.08776,0.183184 -0.04446,0.395196 0.09315,0.532252 L 11.2,24.5 12.048789,23.601835 c 0.225351,0.05764 0.467255,-0.04775 0.569457,-0.259116 l 1.339445,-2.775021 h 2.102293 v 0.448205 c 0,0.248306 0.20446,0.448204 0.458418,0.448204 0.253951,0 0.458419,-0.199898 0.458419,-0.448204 v -0.448205 h 1.069051 l 1.339449,2.775021 c 0.100872,0.212642 0.341834,0.316768 0.565877,0.259116 L 20.8,24.5 20.264575,23.433765 c 0.136263,-0.137056 0.180903,-0.347776 0.09315,-0.532252 L 19.23136,20.567698 h 0.03751 c 0.253957,0 0.458418,-0.199901 0.458418,-0.448203 0,-0.248306 -0.204461,-0.448204 -0.458418,-0.448204 h -0.469146 l -1.803246,-3.839513 c 0.555471,-0.322633 0.89629,-0.907269 0.897149,-1.538957 C 17.893685,13.302674 17.072702,12.5 16.06,12.5 Z m 0,0.896412 c 0.50636,0 0.916832,0.401338 0.916832,0.896409 0,0.495076 -0.410472,0.896406 -0.916832,0.896406 -0.506368,0 -0.916837,-0.40133 -0.916837,-0.896406 0,-0.495071 0.410469,-0.896409 0.916837,-0.896409 z m 0.07696,3.216222 1.475552,3.058657 H 16.97681 v -0.448205 c 0,-0.248297 -0.204454,-0.448207 -0.458419,-0.448207 -0.253952,0 -0.458416,0.19991 -0.458416,0.448207 v 0.448205 h -1.670732 l 1.475541,-3.058657 c 0.0734,-0.116059 0.195194,-0.10859 0.272199,0 z"
     class="ColorScheme-Text"
     id="path12" />
</svg>
