<?xml version="1.0" encoding="UTF-8" standalone="no"?>
<svg
   viewBox="0 0 32 32"
   version="1.1"
   id="svg4"
   sodipodi:docname="folder-inkscape.svg"
   inkscape:version="1.3 (0e150ed6c4, 2023-07-21)"
   xmlns:inkscape="http://www.inkscape.org/namespaces/inkscape"
   xmlns:sodipodi="http://sodipodi.sourceforge.net/DTD/sodipodi-0.dtd"
   xmlns="http://www.w3.org/2000/svg"
   xmlns:svg="http://www.w3.org/2000/svg">
  <sodipodi:namedview
     id="namedview4"
     pagecolor="#ffffff"
     bordercolor="#000000"
     borderopacity="0.25"
     inkscape:showpageshadow="2"
     inkscape:pageopacity="0.0"
     inkscape:pagecheckerboard="0"
     inkscape:deskcolor="#d1d1d1"
     inkscape:zoom="23.96875"
     inkscape:cx="16"
     inkscape:cy="16"
     inkscape:window-width="1920"
     inkscape:window-height="994"
     inkscape:window-x="0"
     inkscape:window-y="0"
     inkscape:window-maximized="1"
     inkscape:current-layer="svg4" />
  <defs
     id="defs3051">
    <style
       type="text/css"
       id="current-color-scheme">&#10;      .ColorScheme-Text {&#10;        color:#31363b;&#10;      }&#10;      .ColorScheme-Background {&#10;        color:#eff0f1;&#10;      }&#10;      .ColorScheme-Highlight {&#10;        color:#3daee9;&#10;      }&#10;      .ColorScheme-ViewText {&#10;        color:#31363b;&#10;      }&#10;      .ColorScheme-ViewBackground {&#10;        color:#fcfcfc;&#10;      }&#10;      .ColorScheme-ViewHover {&#10;        color:#93cee9;&#10;      }&#10;      .ColorScheme-ViewFocus{&#10;        color:#3daee9;&#10;      }&#10;      .ColorScheme-ButtonText {&#10;        color:#31363b;&#10;      }&#10;      .ColorScheme-ButtonBackground {&#10;        color:#eff0f1;&#10;      }&#10;      .ColorScheme-ButtonHover {&#10;        color:#93cee9;&#10;      }&#10;      .ColorScheme-ButtonFocus{&#10;        color:#3daee9;&#10;      }&#10;      </style>
  </defs>
  <path
     style="fill:currentColor;fill-opacity:1;stroke:none"
     d="M 2 3 L 2 10 L 1 10 L 1 29 L 12 29 L 13 29 L 31 29 L 31 8 L 30 8 L 30 5 L 16 5 L 14 3 L 2 3 z "
     class="ColorScheme-Highlight"
     id="path1" />
  <path
     style="fill-opacity:0.33;fill-rule:evenodd"
     d="m 2,3 0,7 9,0 L 13,8 30,8 30,5 16,5 14,3 2,3 Z"
     id="path2" />
  <path
     style="fill:#ffffff;fill-opacity:0.2;fill-rule:evenodd"
     d="M 14 3 L 15 6 L 30 6 L 30 5 L 16 5 L 14 3 z M 13 8 L 11 10 L 1 10 L 1 11 L 12 11 L 13 8 z "
     id="path3" />
  <path
     style="fill-opacity:0.2;fill-rule:evenodd"
     d="M 13 8 L 11 9 L 2 9 L 2 10 L 11 10 L 13 8 z M 1 28 L 1 29 L 31 29 L 31 28 L 1 28 z "
     class="ColorScheme-Text"
     id="path4" />
  <path
     d="m 15.929664,24.499941 c -0.170983,0 -0.329963,-0.02242 -0.467956,-0.07251 -0.282967,-0.103005 -0.46545,-0.311531 -0.513438,-0.587063 -0.04355,-0.249521 -0.126,-0.287527 -0.492456,-0.354034 -0.239477,-0.04356 -0.538447,-0.098 -0.757423,-0.333039 -0.423962,-0.442043 0.021,-0.912088 0.187978,-1.089117 0.03046,-0.03196 0.07199,-0.07549 0.105993,-0.115512 -0.209978,-0.116508 -0.704431,-0.279527 -1.018896,-0.383537 -0.741426,-0.245024 -1.208876,-0.411045 -1.439361,-0.652064 -0.121481,-0.124026 -0.174976,-0.284535 -0.146983,-0.448554 0.05754,-0.339532 0.424457,-0.520558 0.812416,-0.711577 0,0 5.02e-4,0 5.02e-4,0 -0.178479,-0.06052 -0.380959,-0.115515 -0.578941,-0.170019 -0.703929,-0.192022 -1.431353,-0.391049 -1.588833,-0.972607 -0.1374866,-0.511557 0.260973,-0.992609 0.573438,-1.310143 l 4.130086,-4.301967 c 0.321964,-0.325033 0.754419,-0.504054 1.209873,-0.498054 0.0026,0 0.0057,0 0.0074,0 0.445955,0 0.877405,0.172021 1.208376,0.485551 l 4.295066,4.469482 c 0.436452,0.444055 0.60943,0.878098 0.513445,1.289147 -0.182984,0.788582 -1.255877,1.163125 -2.292264,1.525165 -0.31298,0.109508 -0.63344,0.221013 -0.88291,0.333536 0.0078,0.0057 0.01546,0.0084 0.02308,0.01258 0.379954,0.214039 0.953392,0.537566 0.74142,1.074626 -0.237965,0.616568 -0.688435,0.73709 -1.086394,0.844095 -0.270965,0.07251 -0.549944,0.147014 -0.846418,0.386541 0.147495,0.083 0.311974,0.207019 0.339978,0.432045 0.01499,0.122014 -0.01046,0.304534 -0.215479,0.482554 -0.438017,0.368505 -1.204944,0.664536 -1.821366,0.664536 z m -1.598336,-1.811186 c 0.07048,0.02554 0.165479,0.04253 0.258972,0.05941 0.358463,0.06498 0.958403,0.17451 1.096391,0.962105 0.123987,0.114512 0.807419,0.02557 1.325866,-0.272031 -0.126486,-0.08202 -0.248974,-0.199527 -0.280967,-0.386547 -0.01993,-0.118007 -0.0069,-0.298532 0.171477,-0.484552 0.512947,-0.527057 1.011895,-0.660563 1.376356,-0.758575 0.325466,-0.08699 0.451951,-0.12852 0.543934,-0.306036 -0.08898,-0.07353 -0.267962,-0.175027 -0.373453,-0.234029 -0.318463,-0.179519 -0.618438,-0.348532 -0.635933,-0.666572 -0.0061,-0.09851 0.01645,-0.28653 0.22548,-0.437047 0.323967,-0.231523 0.842911,-0.413042 1.390859,-0.604564 0.68492,-0.239527 1.719323,-0.60106 1.809318,-0.98711 0.04455,-0.190023 -0.180479,-0.454044 -0.318979,-0.594564 -0.0018,-0.0014 -0.0026,-0.0018 -0.0043,-0.0036 l -4.283472,-4.458167 c -0.17796,-0.168018 -0.426432,-0.267532 -0.686914,-0.267532 -0.006,0 -0.012,0 -0.01853,0 -0.247473,0 -0.482955,0.09851 -0.654435,0.271532 l -4.129482,4.301032 c -0.424459,0.431046 -0.386959,0.590564 -0.386959,0.592063 0.045,0.166513 0.706924,0.347542 1.06239,0.444545 0.432953,0.118017 0.881409,0.24052 1.203374,0.448552 0.229984,0.152511 0.242472,0.357539 0.237473,0.439049 -0.02099,0.330027 -0.348454,0.491547 -0.728423,0.678573 -0.06,0.02945 -0.136985,0.06751 -0.210979,0.106509 0.252978,0.110504 0.629938,0.235526 0.888407,0.321029 0.721926,0.23853 1.176889,0.399554 1.403357,0.630073 0.430962,0.449548 -0.01302,0.919593 -0.180479,1.096113 -0.02844,0.03103 -0.06701,0.07202 -0.100484,0.110019 z m 4.537029,-1.140627 h 0.0061 z m -0.0064,-0.131516 c -5.07e-4,4.96e-4 -5.07e-4,0.0014 -0.0014,0.0018 5.03e-4,-5.01e-4 5.03e-4,-0.0015 0.0014,-0.0018 z m -6.78867,-1.025113 c 0,4.97e-4 5.03e-4,0.0014 5.92e-4,0.0014 -4.99e-4,0 -5.92e-4,-5e-4 -5.92e-4,-0.0014 z"
     id="path2-4"
     style="fill:#e5e5e5;fill-opacity:1;stroke-width:0.500004" />
  <path
     d="m 15.600198,17.260161 c -0.04697,0 -0.09401,-0.0089 -0.138986,-0.02655 -0.112489,-0.045 -0.196481,-0.141521 -0.224983,-0.259033 l -0.112481,-0.459045 -0.14799,0.325034 c -0.06103,0.133514 -0.193976,0.219525 -0.340967,0.219525 -4.95e-4,0 -5.92e-4,0 -0.0014,0 l -2.907609,-0.01001 c -0.206959,-4.97e-4 -0.37394,-0.16902 -0.373438,-0.376047 5.01e-4,-0.207015 0.16848,-0.374039 0.374957,-0.374039 5e-4,0 5.91e-4,0 0.0012,0 l 2.664714,0.0095 0.495454,-1.089614 c 0.066,-0.146016 0.215974,-0.235531 0.376457,-0.218522 0.158982,0.015 0.291467,0.12901 0.329467,0.284028 l 0.244972,1.000108 0.678434,-0.436046 c 0.115482,-0.07401 0.261472,-0.07851 0.382961,-0.01346 l 0.220464,0.121016 0.07952,-0.487556 c 0.02146,-0.132512 0.112983,-0.243527 0.238976,-0.291026 0.123981,-0.04699 0.267468,-0.02353 0.370964,0.06246 l 0.510438,0.424052 0.322468,-0.481552 c 0.114498,-0.171521 0.34696,-0.218526 0.519947,-0.103516 0.171991,0.115014 0.218477,0.348042 0.102998,0.520559 l -0.55295,0.827587 c -0.05844,0.08801 -0.152481,0.147524 -0.257979,0.162525 -0.10149,0.01603 -0.211471,-0.01501 -0.293468,-0.0825 l -0.325999,-0.271035 -0.05946,0.363544 c -0.01953,0.120009 -0.09599,0.223022 -0.20547,0.276531 -0.110002,0.05345 -0.237982,0.05055 -0.344464,-0.0079 l -0.489977,-0.268557 -0.932903,0.599561 c -0.06202,0.04003 -0.132985,0.06 -0.203982,0.06 z m 4.266558,6.382691 c -0.248471,0 -0.485942,-0.102005 -0.637921,-0.296524 -0.202981,-0.26053 -0.23499,-0.684081 0.153475,-1.04362 0.088,-0.08149 0.206974,-0.116513 0.327469,-0.093 0.556943,0.110013 0.820416,0.467551 0.875901,0.739578 0.04455,0.217031 -0.03,0.421058 -0.193468,0.53256 -0.0018,0.0018 -0.0047,0.0025 -0.0064,0.005 -0.161485,0.106016 -0.342965,0.157016 -0.518943,0.157016 z m 0.313976,-0.470547 h 0.0059 z m -8.034685,0.226516 c -0.207977,0 -0.402959,-0.07302 -0.563948,-0.214009 -0.347457,-0.298544 -0.287463,-0.621577 -0.245468,-0.747089 0.137481,-0.409041 0.645434,-0.622064 1.05939,-0.646575 0.0076,-4.96e-4 0.01499,-4.96e-4 0.02246,-4.96e-4 0.363964,-0.0161 0.672427,0.108004 0.849422,0.345035 0.07749,0.104009 0.09548,0.240534 0.04847,0.361541 -0.16848,0.42705 -0.548948,0.778589 -0.947907,0.874593 -0.07499,0.018 -0.149485,0.02699 -0.222473,0.02699 z m -0.04246,-0.759076 c 0.01902,0.0094 0.04646,0.01302 0.08949,0.0037 0.058,-0.0139 0.120485,-0.04858 0.180485,-0.09602 -0.113493,0.01699 -0.209979,0.05655 -0.269971,0.09301 z m 8.864095,-0.683076 c -0.362958,0 -0.730413,-0.06751 -0.916407,-0.158008 -0.268969,-0.131022 -0.297963,-0.34104 -0.297963,-0.425561 0,-0.03155 0.0047,-0.06253 0.0114,-0.093 0.117983,-0.461557 0.551942,-0.787589 1.08539,-0.818591 0.01007,-0.0014 0.01956,-0.0018 0.02946,-0.0026 0.57694,-0.02344 1.019397,0.293533 1.113891,0.787584 0.04008,0.195017 -0.03254,0.386039 -0.194992,0.513058 -0.181469,0.142491 -0.504433,0.196999 -0.830907,0.196999 z m 0.291467,-0.559055 c 0,0 0,4.91e-4 0,4.91e-4 z"
     id="path4-5"
     style="fill:#e5e5e5;fill-opacity:1;stroke-width:0.500004" />
</svg>
