<?xml version="1.0" encoding="UTF-8" standalone="no"?>
<svg
   xmlns:dc="http://purl.org/dc/elements/1.1/"
   xmlns:cc="http://creativecommons.org/ns#"
   xmlns:rdf="http://www.w3.org/1999/02/22-rdf-syntax-ns#"
   xmlns:svg="http://www.w3.org/2000/svg"
   xmlns="http://www.w3.org/2000/svg"
   xmlns:sodipodi="http://sodipodi.sourceforge.net/DTD/sodipodi-0.dtd"
   xmlns:inkscape="http://www.inkscape.org/namespaces/inkscape"
   inkscape:version="1.0 (4035a4fb49, 2020-05-01)"
   sodipodi:docname="folder-cloud.svg"
   id="svg14"
   version="1.1"
   viewBox="0 0 32 32">
  <metadata
     id="metadata18">
    <rdf:RDF>
      <cc:Work
         rdf:about="">
        <dc:format>image/svg+xml</dc:format>
        <dc:type
           rdf:resource="http://purl.org/dc/dcmitype/StillImage" />
      </cc:Work>
    </rdf:RDF>
  </metadata>
  <sodipodi:namedview
     inkscape:current-layer="svg14"
     inkscape:window-maximized="1"
     inkscape:window-y="0"
     inkscape:window-x="0"
     inkscape:cy="16"
     inkscape:cx="16"
     inkscape:zoom="19.625"
     showgrid="false"
     id="namedview16"
     inkscape:window-height="1015"
     inkscape:window-width="1920"
     inkscape:pageshadow="2"
     inkscape:pageopacity="0"
     guidetolerance="10"
     gridtolerance="10"
     objecttolerance="10"
     borderopacity="1"
     bordercolor="#666666"
     pagecolor="#ffffff" />
  <defs
     id="defs3051">
    <style
       id="current-color-scheme"
       type="text/css">
      .ColorScheme-Text {
        color:#31363b;
      }
      .ColorScheme-Background {
        color:#eff0f1;
      }
      .ColorScheme-Highlight {
        color:#3daee9;
      }
      .ColorScheme-ViewText {
        color:#31363b;
      }
      .ColorScheme-ViewBackground {
        color:#fcfcfc;
      }
      .ColorScheme-ViewHover {
        color:#93cee9;
      }
      .ColorScheme-ViewFocus{
        color:#3daee9;
      }
      .ColorScheme-ButtonText {
        color:#31363b;
      }
      .ColorScheme-ButtonBackground {
        color:#eff0f1;
      }
      .ColorScheme-ButtonHover {
        color:#93cee9;
      }
      .ColorScheme-ButtonFocus{
        color:#3daee9;
      }
      </style>
  </defs>
  <path
     id="path4"
     class="ColorScheme-Highlight"
     d="M 2 3 L 2 10 L 1 10 L 1 29 L 12 29 L 13 29 L 31 29 L 31 8 L 30 8 L 30 5 L 16 5 L 14 3 L 2 3 z "
     style="fill:currentColor;fill-opacity:1;stroke:none" />
  <path
     id="path6"
     d="m 2,3 0,7 9,0 L 13,8 30,8 30,5 16,5 14,3 2,3 Z"
     style="fill-opacity:0.33;fill-rule:evenodd" />
  <path
     id="path8"
     d="M 14 3 L 15 6 L 30 6 L 30 5 L 16 5 L 14 3 z M 13 8 L 11 10 L 1 10 L 1 11 L 12 11 L 13 8 z "
     style="fill:#ffffff;fill-opacity:0.2;fill-rule:evenodd" />
  <path
     id="path10"
     class="ColorScheme-Text"
     d="M 13 8 L 11 9 L 2 9 L 2 10 L 11 10 L 13 8 z M 1 28 L 1 29 L 31 29 L 31 28 L 1 28 z "
     style="fill-opacity:0.2;fill-rule:evenodd" />
  <path
     id="path12"
     class="ColorScheme-Background"
     d="M 16 13 A 4 4 0 0 0 12 17 A 4 4 0 0 0 12.005859 17.171875 A 2.9999869 2.9999869 0 0 0 10 20 A 2.9999869 2.9999869 0 0 0 13 23 L 18.5 23 A 3.5 3.5 0 0 0 22 19.5 A 3.5 3.5 0 0 0 19.939453 16.3125 A 4 4 0 0 0 16 13 z M 16 14 A 3 3 0 0 1 19 17 A 3 3 0 0 1 18.998047 17.050781 A 2.5 2.5 0 0 1 21 19.5 A 2.5 2.5 0 0 1 18.5 22 L 13 22 A 1.999994 2 0 0 1 11 20 A 1.999994 2 0 0 1 13 18 A 1.999994 2 0 0 1 13.177734 18.007812 A 3 3 0 0 1 13 17 A 3 3 0 0 1 16 14 z "
     style="fill:#e4e5e5;fill-opacity:1;stroke:none" />
</svg>
