<?xml version="1.0" encoding="UTF-8" standalone="no"?>
<svg
   viewBox="0 0 64 64"
   version="1.1"
   id="svg4"
   sodipodi:docname="folder-kubernetes.svg"
   inkscape:version="1.4.2 (unknown)"
   xml:space="preserve"
   xmlns:inkscape="http://www.inkscape.org/namespaces/inkscape"
   xmlns:sodipodi="http://sodipodi.sourceforge.net/DTD/sodipodi-0.dtd"
   xmlns="http://www.w3.org/2000/svg"
   xmlns:svg="http://www.w3.org/2000/svg"><sodipodi:namedview
     id="namedview4"
     pagecolor="#ffffff"
     bordercolor="#999999"
     borderopacity="1"
     inkscape:showpageshadow="2"
     inkscape:pageopacity="0"
     inkscape:pagecheckerboard="0"
     inkscape:deskcolor="#d1d1d1"
     showgrid="true"
     inkscape:zoom="5.6568543"
     inkscape:cx="27.311999"
     inkscape:cy="36.150834"
     inkscape:window-width="2556"
     inkscape:window-height="1364"
     inkscape:window-x="0"
     inkscape:window-y="0"
     inkscape:window-maximized="1"
     inkscape:current-layer="svg4"><inkscape:grid
       id="grid4"
       units="px"
       originx="0"
       originy="0"
       spacingx="1"
       spacingy="1"
       empcolor="#0099e5"
       empopacity="0.30196078"
       color="#0099e5"
       opacity="0.14902"
       empspacing="5"
       dotted="false"
       gridanglex="30"
       gridanglez="30"
       visible="true" /></sodipodi:namedview><defs
     id="defs3051"><style
       type="text/css"
       id="current-color-scheme">
      .ColorScheme-Text {
        color:#31363b;
      }
      .ColorScheme-Background {
        color:#eff0f1;
      }
      .ColorScheme-Highlight {
        color:#3daee9;
      }
      .ColorScheme-ViewText {
        color:#31363b;
      }
      .ColorScheme-ViewBackground {
        color:#fcfcfc;
      }
      .ColorScheme-ViewHover {
        color:#93cee9;
      }
      .ColorScheme-ViewFocus{
        color:#3daee9;
      }
      .ColorScheme-ButtonText {
        color:#31363b;
      }
      .ColorScheme-ButtonBackground {
        color:#eff0f1;
      }
      .ColorScheme-ButtonHover {
        color:#93cee9;
      }
      .ColorScheme-ButtonFocus{
        color:#3daee9;
      }
      </style></defs><path
     style="fill:currentColor;fill-opacity:1;stroke:none;stroke-width:0.999999"
     d="m 4.0006635,10 v 1 9 0 c -0.5203637,0.02153 -1.0229638,0.505476 -0.999899,1 h 0.00195 c -4.69e-5,0.004 -0.00195,0.008 -0.00195,0.01172 V 56 c 0.00871,0.999392 0.9801138,2.005992 1.999798,2 v 0 H 58.995109 v 0 c 1.011732,0.02205 1.994216,-0.972534 1.999798,-2 V 21.011719 21 17 c 0.05936,-0.589244 -0.407896,-1.006383 -0.999899,-1 v -4 c 0,-0.003 -0.002,0.004 -0.002,0 h 0.002 v 0 c -0.0061,-1.000671 -0.953819,-1.995969 -1.999798,-2 H 31.997836 L 27.99824,6 H 8.0002595 C 5.9630216,5.99492 4.0363539,7.9703236 4.0006635,10 Z"
     class="ColorScheme-Highlight"
     id="path1"
     sodipodi:nodetypes="ccccccsccccccccccscccccccc" /><path
     style="fill-opacity:0.33;fill-rule:evenodd;stroke-width:0.999999"
     d="m 4.0302775,10 -0.029614,1 v 9 H 21.998846 l 3.999596,-4 h 33.996566 v -4 c 0,-0.003 -0.002,0.004 -0.002,0 h 0.002 C 59.988808,10.988725 58.990992,9.9943186 57.99521,10 H 31.997836 L 27.99824,6 H 8.0002595 C 5.9928069,6.00259 3.994256,8.0072001 4.0302775,10 Z"
     id="path2"
     sodipodi:nodetypes="ccccccsccccccc" /><path
     style="fill:#ffffff;fill-opacity:0.2;fill-rule:evenodd;stroke-width:0.999999"
     d="m 27.99824,6 2.999697,5 h 1.999798 24.997475 c 1.212814,-0.06389 2.005543,1.005906 1.999798,2 v -1 c 6e-4,-0.992592 -0.988601,-1.993446 -1.999798,-2 H 32.997735 31.997836 Z m -1.999798,10 -3.999596,4 H 3.0007645 v 1 H 22.998745 Z"
     id="path3"
     sodipodi:nodetypes="cccccccccccccccc" /><path
     style="fill-opacity:0.2;fill-rule:evenodd;stroke-width:0.999999"
     d="m 25.998442,16 -5.999394,3 H 4.0006635 v 1 H 21.998846 Z M 3.0007645,56 c 0.00641,1.008598 0.9937008,2.001463 1.999798,2 v 0 H 58.995109 v 0 0 c 1.002828,0.0016 2.001139,-0.999662 1.999798,-2 z"
     class="ColorScheme-Text"
     id="path4"
     sodipodi:nodetypes="cccccccccccccc" /><path
     d="m 30.503091,38.661849 0.0058,0.0083 -0.832515,2.010869 a 4.3092425,4.3092425 0 0 1 -1.729197,-2.164205 l 2.148371,-0.364173 0.0033,0.0042 a 0.36667312,0.36667312 0 0 1 0.40334,0.505008 z m -0.694179,-1.774197 a 0.36667312,0.36667312 0 0 0 0.14417,-0.630012 l 0.0017,-0.0092 -1.634195,-1.461693 a 4.2859087,4.2859087 0 0 0 -0.608344,2.712548 l 2.095037,-0.604177 z m 0.954184,-1.65003 a 0.36667312,0.36667312 0 0 0 0.58251,-0.280838 l 0.0083,-0.0042 0.125002,-2.183371 a 4.2867421,4.2867421 0 0 0 -2.508378,1.201688 l 1.789199,1.269189 0.0033,-0.0017 z m 0.633344,2.291707 0.602511,0.290839 0.601677,-0.289172 0.150003,-0.650011 -0.416674,-0.519176 h -0.670012 l -0.416674,0.519176 0.149169,0.649178 z m 1.250022,-2.579212 a 0.36667312,0.36667312 0 0 0 0.583344,0.280005 l 0.0067,0.0025 1.778364,-1.260855 a 4.3234094,4.3234094 0 0 0 -2.49341,-1.201688 l 0.123336,2.179205 z m 9.063493,4.975088 -4.810918,5.984272 a 1.3333568,1.3333568 0 0 1 -1.040018,0.495009 l -7.717636,0.0025 A 1.3333568,1.3333568 0 0 1 27.102198,45.91031 L 22.28878,39.926872 a 1.3191899,1.3191899 0 0 1 -0.255838,-1.116687 l 1.716697,-7.462631 c 0.09,-0.391674 0.354173,-0.720013 0.719179,-0.894182 l 6.951789,-3.322559 a 1.3383569,1.3383569 0 0 1 1.154187,0 l 6.954289,3.320892 c 0.365007,0.17417 0.629178,0.503342 0.71918,0.894182 l 1.718363,7.462632 c 0.09,0.391673 -0.0042,0.802514 -0.256671,1.116686 z m -2.740881,-1.714197 c -0.035,-0.0083 -0.08583,-0.02167 -0.120836,-0.02833 -0.145002,-0.0275 -0.262504,-0.02083 -0.399174,-0.03167 -0.291671,-0.03083 -0.531676,-0.05583 -0.745846,-0.123335 -0.0875,-0.03333 -0.150003,-0.137503 -0.180003,-0.180004 l -0.167503,-0.04917 a 5.3750946,5.3750946 0 0 0 -0.0875,-1.943368 5.3875948,5.3875948 0 0 0 -0.780013,-1.802531 c 0.04333,-0.03917 0.125002,-0.110836 0.147502,-0.132503 0.0067,-0.075 8.34e-4,-0.152502 0.07833,-0.235004 0.164169,-0.154169 0.370006,-0.281671 0.619178,-0.435007 0.118335,-0.07 0.227504,-0.114169 0.345839,-0.201671 0.02667,-0.02 0.06333,-0.05167 0.09167,-0.07417 0.200004,-0.159169 0.245838,-0.433341 0.102502,-0.613344 -0.143336,-0.180003 -0.421674,-0.19667 -0.620844,-0.0375 -0.02833,0.0225 -0.06667,0.05167 -0.0925,0.07333 -0.111669,0.09667 -0.180836,0.19167 -0.275005,0.291672 -0.205003,0.208337 -0.375006,0.381673 -0.560843,0.507509 -0.08084,0.04667 -0.19917,0.03083 -0.252504,0.0275 l -0.158336,0.112502 a 5.4542626,5.4542626 0 0 0 -3.455061,-1.669196 l -0.01,-0.185836 c -0.05417,-0.05167 -0.119169,-0.09583 -0.135836,-0.208337 -0.01833,-0.223338 0.0125,-0.464175 0.0475,-0.75418 0.01917,-0.135836 0.05083,-0.248338 0.05667,-0.395841 8.34e-4,-0.03333 -8.33e-4,-0.0825 -8.33e-4,-0.118335 0,-0.255004 -0.18667,-0.462508 -0.416674,-0.462508 -0.229171,0 -0.415841,0.207504 -0.415841,0.462508 l 8.34e-4,0.01167 c 0,0.03417 -0.0017,0.07667 0,0.106668 0.005,0.147503 0.03667,0.260005 0.05583,0.395841 0.035,0.290005 0.065,0.530842 0.04667,0.755013 a 0.45417466,0.45417466 0 0 1 -0.135002,0.215004 l -0.01,0.175836 a 5.3534275,5.3534275 0 0 0 -3.471728,1.669196 6.9776228,6.9776228 0 0 1 -0.150002,-0.106668 c -0.075,0.01 -0.150003,0.03333 -0.247505,-0.02417 -0.185836,-0.125003 -0.355839,-0.298339 -0.560843,-0.506676 -0.09417,-0.100002 -0.162503,-0.195003 -0.274172,-0.290838 -0.025,-0.02167 -0.06417,-0.05167 -0.0925,-0.07334 a 0.49500871,0.49500871 0 0 0 -0.290005,-0.110002 0.40084039,0.40084039 0 0 0 -0.331673,0.146669 c -0.143336,0.180003 -0.0975,0.455008 0.102502,0.614178 l 0.0058,0.0042 0.08667,0.06917 c 0.118335,0.0875 0.22667,0.132503 0.345006,0.201671 0.249171,0.154169 0.455008,0.281671 0.619177,0.435007 0.06333,0.06834 0.075,0.188337 0.08333,0.240005 l 0.133336,0.119168 a 5.3850948,5.3850948 0 0 0 -0.850015,3.755066 l -0.173337,0.05 c -0.04583,0.06 -0.110835,0.153336 -0.179169,0.180837 -0.214171,0.0675 -0.455008,0.09167 -0.745847,0.122502 -0.136669,0.01167 -0.254171,0.005 -0.400007,0.0325 -0.03083,0.0058 -0.075,0.01667 -0.110835,0.025 l -0.0033,0.0017 -0.0058,0.0017 c -0.245838,0.05917 -0.40334,0.285005 -0.352506,0.506676 0.05083,0.222504 0.290838,0.357506 0.537509,0.304172 l 0.0058,-8.33e-4 0.0083,-0.0025 0.107502,-0.02417 c 0.141669,-0.03833 0.245004,-0.09417 0.37334,-0.143335 0.275005,-0.09834 0.503342,-0.180837 0.725013,-0.213338 0.09333,-0.0075 0.19167,0.0575 0.240004,0.08417 l 0.180836,-0.03083 a 5.416762,5.416762 0 0 0 2.400043,2.996719 l -0.075,0.18167 c 0.0275,0.07 0.0575,0.165836 0.03667,0.235004 -0.08084,0.210004 -0.219171,0.430841 -0.376674,0.677512 -0.07583,0.113335 -0.154169,0.20167 -0.223337,0.332506 -0.01667,0.03083 -0.0375,0.07917 -0.05333,0.111669 -0.106669,0.22917 -0.02833,0.492508 0.177503,0.591677 0.20667,0.100001 0.463341,-0.0058 0.57501,-0.235005 v -0.0017 c 0.01667,-0.0325 0.03833,-0.075 0.05167,-0.105835 0.05833,-0.135003 0.07833,-0.250838 0.120002,-0.381674 0.110002,-0.276671 0.170836,-0.566676 0.322505,-0.747513 0.04167,-0.05 0.108336,-0.06833 0.17917,-0.0875 l 0.09417,-0.170837 a 5.3775946,5.3775946 0 0 0 3.840901,0.01 l 0.08833,0.160003 c 0.07167,0.02333 0.150003,0.035 0.213338,0.129169 0.113335,0.193337 0.190836,0.422508 0.285005,0.700012 0.04167,0.130003 0.06167,0.245838 0.120835,0.38084 0.01333,0.03083 0.03583,0.075 0.05167,0.107502 0.110835,0.230004 0.368339,0.335006 0.57501,0.235004 0.205837,-0.09833 0.284171,-0.362506 0.177503,-0.591677 -0.01667,-0.0325 -0.0375,-0.08 -0.05417,-0.111668 -0.06917,-0.130003 -0.147502,-0.217504 -0.223337,-0.331673 -0.158336,-0.246671 -0.288338,-0.450841 -0.369173,-0.660845 -0.03333,-0.108335 0.0058,-0.175003 0.03167,-0.245004 -0.015,-0.01833 -0.04917,-0.120002 -0.06917,-0.168336 a 5.4159286,5.4159286 0 0 0 2.400042,-3.018387 c 0.05334,0.0083 0.14667,0.025 0.177503,0.03167 0.0625,-0.04167 0.120003,-0.095 0.233338,-0.08667 0.22167,0.0325 0.450008,0.115002 0.725013,0.213337 0.128335,0.05 0.230837,0.106669 0.37334,0.14417 0.03,0.0083 0.07333,0.01583 0.108335,0.02333 l 0.0075,0.0025 0.0058,8.34e-4 c 0.247505,0.05333 0.486676,-0.08167 0.53751,-0.304172 0.05,-0.221671 -0.106669,-0.447508 -0.352506,-0.506676 z m -3.302558,-3.423393 -1.625029,1.455025 v 0.0042 a 0.36667312,0.36667312 0 0 0 0.144169,0.630844 l 0.0025,0.0083 2.105037,0.606677 a 4.3325762,4.3325762 0 0 0 -0.09,-1.395024 4.3400764,4.3400764 0 0 0 -0.536676,-1.310857 z m -3.344226,4.437578 a 0.36417307,0.36417307 0 0 0 -0.336673,-0.193337 0.36667312,0.36667312 0 0 0 -0.310005,0.19417 h -0.0017 L 30.61726,41.13606 a 4.3034091,4.3034091 0 0 0 2.771715,0.0025 l -1.058352,-1.913367 z m 1.573361,-1.077519 a 0.36667312,0.36667312 0 0 0 -0.225004,0.03 0.36667312,0.36667312 0 0 0 -0.178336,0.476675 l -0.0025,0.0033 0.841681,2.031702 a 4.2917422,4.2917422 0 0 0 1.734197,-2.179205 l -2.166705,-0.366673 z"
     id="path5"
     style="fill:#e5e5e5;fill-opacity:1" /></svg>
