<?xml version="1.0" encoding="UTF-8" standalone="no"?>
<svg
   viewBox="0 0 64 64"
   version="1.1"
   id="svg4"
   sodipodi:docname="folder-fitbit.svg"
   inkscape:version="1.4.2 (unknown)"
   xml:space="preserve"
   xmlns:inkscape="http://www.inkscape.org/namespaces/inkscape"
   xmlns:sodipodi="http://sodipodi.sourceforge.net/DTD/sodipodi-0.dtd"
   xmlns="http://www.w3.org/2000/svg"
   xmlns:svg="http://www.w3.org/2000/svg"><sodipodi:namedview
     id="namedview4"
     pagecolor="#ffffff"
     bordercolor="#999999"
     borderopacity="1"
     inkscape:showpageshadow="2"
     inkscape:pageopacity="0"
     inkscape:pagecheckerboard="0"
     inkscape:deskcolor="#d1d1d1"
     showgrid="true"
     inkscape:zoom="5.6568543"
     inkscape:cx="27.311999"
     inkscape:cy="36.150834"
     inkscape:window-width="2556"
     inkscape:window-height="1364"
     inkscape:window-x="0"
     inkscape:window-y="0"
     inkscape:window-maximized="1"
     inkscape:current-layer="svg4"><inkscape:grid
       id="grid4"
       units="px"
       originx="0"
       originy="0"
       spacingx="1"
       spacingy="1"
       empcolor="#0099e5"
       empopacity="0.30196078"
       color="#0099e5"
       opacity="0.14902"
       empspacing="5"
       dotted="false"
       gridanglex="30"
       gridanglez="30"
       visible="true" /></sodipodi:namedview><defs
     id="defs3051"><style
       type="text/css"
       id="current-color-scheme">
      .ColorScheme-Text {
        color:#31363b;
      }
      .ColorScheme-Background {
        color:#eff0f1;
      }
      .ColorScheme-Highlight {
        color:#3daee9;
      }
      .ColorScheme-ViewText {
        color:#31363b;
      }
      .ColorScheme-ViewBackground {
        color:#fcfcfc;
      }
      .ColorScheme-ViewHover {
        color:#93cee9;
      }
      .ColorScheme-ViewFocus{
        color:#3daee9;
      }
      .ColorScheme-ButtonText {
        color:#31363b;
      }
      .ColorScheme-ButtonBackground {
        color:#eff0f1;
      }
      .ColorScheme-ButtonHover {
        color:#93cee9;
      }
      .ColorScheme-ButtonFocus{
        color:#3daee9;
      }
      </style></defs><path
     style="fill:currentColor;fill-opacity:1;stroke:none;stroke-width:0.999999"
     d="m 4.0006635,10 v 1 9 0 c -0.5203637,0.02153 -1.0229638,0.505476 -0.999899,1 h 0.00195 c -4.69e-5,0.004 -0.00195,0.008 -0.00195,0.01172 V 56 c 0.00871,0.999392 0.9801138,2.005992 1.999798,2 v 0 H 58.995109 v 0 c 1.011732,0.02205 1.994216,-0.972534 1.999798,-2 V 21.011719 21 17 c 0.05936,-0.589244 -0.407896,-1.006383 -0.999899,-1 v -4 c 0,-0.003 -0.002,0.004 -0.002,0 h 0.002 v 0 c -0.0061,-1.000671 -0.953819,-1.995969 -1.999798,-2 H 31.997836 L 27.99824,6 H 8.0002595 C 5.9630216,5.99492 4.0363539,7.9703236 4.0006635,10 Z"
     class="ColorScheme-Highlight"
     id="path1"
     sodipodi:nodetypes="ccccccsccccccccccscccccccc" /><path
     style="fill-opacity:0.33;fill-rule:evenodd;stroke-width:0.999999"
     d="m 4.0302775,10 -0.029614,1 v 9 H 21.998846 l 3.999596,-4 h 33.996566 v -4 c 0,-0.003 -0.002,0.004 -0.002,0 h 0.002 C 59.988808,10.988725 58.990992,9.9943186 57.99521,10 H 31.997836 L 27.99824,6 H 8.0002595 C 5.9928069,6.00259 3.994256,8.0072001 4.0302775,10 Z"
     id="path2"
     sodipodi:nodetypes="ccccccsccccccc" /><path
     style="fill:#ffffff;fill-opacity:0.2;fill-rule:evenodd;stroke-width:0.999999"
     d="m 27.99824,6 2.999697,5 h 1.999798 24.997475 c 1.212814,-0.06389 2.005543,1.005906 1.999798,2 v -1 c 6e-4,-0.992592 -0.988601,-1.993446 -1.999798,-2 H 32.997735 31.997836 Z m -1.999798,10 -3.999596,4 H 3.0007645 v 1 H 22.998745 Z"
     id="path3"
     sodipodi:nodetypes="cccccccccccccccc" /><path
     style="fill-opacity:0.2;fill-rule:evenodd;stroke-width:0.999999"
     d="m 25.998442,16 -5.999394,3 H 4.0006635 v 1 H 21.998846 Z M 3.0007645,56 c 0.00641,1.008598 0.9937008,2.001463 1.999798,2 v 0 H 58.995109 v 0 0 c 1.002828,0.0016 2.001139,-0.999662 1.999798,-2 z"
     class="ColorScheme-Text"
     id="path4"
     sodipodi:nodetypes="cccccccccccccc" /><path
     d="m 33.081667,28.4875 c 0,0.813333 -0.675,1.4875 -1.488334,1.4875 -0.81,0 -1.486666,-0.675 -1.486666,-1.4875 0,-0.810833 0.6775,-1.4875 1.486666,-1.4875 0.813334,0 1.488334,0.6775 1.488334,1.4875 z M 31.593333,31.19 c -0.876666,0 -1.5525,0.675 -1.5525,1.555 0,0.8775 0.675,1.554167 1.554167,1.554167 0.8775,0 1.554167,-0.675834 1.554167,-1.554167 0,-0.878333 -0.6875,-1.555 -1.5625,-1.555 z m 0,4.190833 c -0.876666,0 -1.620833,0.7425 -1.620833,1.620834 0,0.878333 0.745,1.620833 1.6225,1.620833 0.8775,0 1.621667,-0.7425 1.621667,-1.620833 0,-0.878334 -0.745,-1.620834 -1.621667,-1.620834 z m 0,4.255834 c -0.876666,0 -1.5525,0.675 -1.5525,1.553333 0,0.878333 0.675,1.555 1.554167,1.555 0.8775,0 1.554167,-0.675833 1.554167,-1.555 0,-0.81 -0.6875,-1.553333 -1.5625,-1.553333 z m 0,4.325833 c -0.81,0 -1.486666,0.674167 -1.486666,1.486667 0,0.808333 0.6775,1.484166 1.486666,1.484166 0.814167,0 1.488334,-0.674166 1.488334,-1.486666 0,-0.810834 -0.675,-1.484167 -1.488334,-1.484167 z M 35.716667,30.985833 C 34.77,30.985833 33.96,31.8 33.96,32.745 c 0,0.945 0.810833,1.755833 1.756667,1.755833 0.945833,0 1.755,-0.8125 1.755,-1.755833 0,-0.945833 -0.81,-1.7575 -1.755,-1.7575 z m 0,4.191667 c -1.013334,0 -1.825,0.810833 -1.825,1.825 0,1.013333 0.8125,1.8225 1.825,1.8225 1.0125,0 1.824166,-0.809167 1.824166,-1.824167 0,-1.013333 -0.811666,-1.823333 -1.824166,-1.823333 z m 0,4.256667 C 34.77,39.434167 33.96,40.2475 33.96,41.19 c 0,0.945833 0.810833,1.7575 1.756667,1.7575 0.945833,0 1.755,-0.813333 1.755,-1.7575 0,-0.944167 -0.809167,-1.755833 -1.755,-1.755833 z m 4.255,-4.460834 c -1.08,0 -2.025,0.879167 -2.025,2.028334 0,1.080833 0.875833,2.0275 2.025,2.0275 C 41.1225,39.029167 42,38.141667 42,36.9925 41.931667,35.840833 41.054167,34.966667 39.971667,34.966667 Z m -12.566667,-3.58 c -0.743333,0 -1.35,0.608334 -1.35,1.3525 0,0.7425 0.6075,1.35 1.35,1.35 0.744167,0 1.349167,-0.6075 1.349167,-1.35 0,-0.744166 -0.605834,-1.35 -1.349167,-1.35 z m 0,4.189167 c -0.810833,0 -1.419167,0.6075 -1.419167,1.419167 0,0.8125 0.600834,1.419166 1.4125,1.419166 0.811667,0 1.4125,-0.608333 1.4125,-1.419166 0,-0.8125 -0.6125,-1.419167 -1.425,-1.419167 z m 0,4.255833 c -0.743333,0 -1.35,0.609167 -1.35,1.35 0,0.745834 0.6075,1.3525 1.35,1.3525 0.744167,0 1.349167,-0.6125 1.349167,-1.3625 0,-0.75 -0.605834,-1.35 -1.349167,-1.35 z m -4.1875,-4.0525 c -0.6775,0 -1.2175,0.538334 -1.2175,1.215834 0,0.675 0.54,1.215833 1.216667,1.215833 0.675,0 1.215833,-0.54 1.215833,-1.215833 0,-0.675834 -0.54,-1.215834 -1.215,-1.215834 z"
     id="path5"
     style="fill:#e5e5e5;fill-opacity:1" /></svg>
