<?xml version="1.0" encoding="UTF-8" standalone="no"?>
<svg
   xmlns:dc="http://purl.org/dc/elements/1.1/"
   xmlns:cc="http://creativecommons.org/ns#"
   xmlns:rdf="http://www.w3.org/1999/02/22-rdf-syntax-ns#"
   xmlns:svg="http://www.w3.org/2000/svg"
   xmlns="http://www.w3.org/2000/svg"
   xmlns:sodipodi="http://sodipodi.sourceforge.net/DTD/sodipodi-0.dtd"
   xmlns:inkscape="http://www.inkscape.org/namespaces/inkscape"
   viewBox="0 0 32 32"
   version="1.1"
   id="svg12"
   sodipodi:docname="folder-Github.svg"
   inkscape:version="1.0.2 (e86c870879, 2021-01-15)">
  <metadata
     id="metadata16">
    <rdf:RDF>
      <cc:Work
         rdf:about="">
        <dc:format>image/svg+xml</dc:format>
        <dc:type
           rdf:resource="http://purl.org/dc/dcmitype/StillImage" />
      </cc:Work>
    </rdf:RDF>
  </metadata>
  <sodipodi:namedview
     pagecolor="#ffffff"
     bordercolor="#666666"
     borderopacity="1"
     objecttolerance="10"
     gridtolerance="10"
     guidetolerance="10"
     inkscape:pageopacity="0"
     inkscape:pageshadow="2"
     inkscape:window-width="1920"
     inkscape:window-height="1007"
     id="namedview14"
     showgrid="true"
     inkscape:zoom="19.625"
     inkscape:cx="16"
     inkscape:cy="16"
     inkscape:window-x="0"
     inkscape:window-y="0"
     inkscape:window-maximized="1"
     inkscape:current-layer="svg12">
    <inkscape:grid
       type="xygrid"
       id="grid858" />
  </sodipodi:namedview>
  <defs
     id="defs3051">
    <style
       type="text/css"
       id="current-color-scheme">
      .ColorScheme-Text {
        color:#31363b;
      }
      .ColorScheme-Background {
        color:#eff0f1;
      }
      .ColorScheme-Highlight {
        color:#3daee9;
      }
      .ColorScheme-ViewText {
        color:#31363b;
      }
      .ColorScheme-ViewBackground {
        color:#fcfcfc;
      }
      .ColorScheme-ViewHover {
        color:#93cee9;
      }
      .ColorScheme-ViewFocus{
        color:#3daee9;
      }
      .ColorScheme-ButtonText {
        color:#31363b;
      }
      .ColorScheme-ButtonBackground {
        color:#eff0f1;
      }
      .ColorScheme-ButtonHover {
        color:#93cee9;
      }
      .ColorScheme-ButtonFocus{
        color:#3daee9;
      }
      </style>
  </defs>
  <path
     style="fill:currentColor;fill-opacity:1;stroke:none"
     d="M 2 3 L 2 10 L 1 10 L 1 29 L 12 29 L 13 29 L 31 29 L 31 8 L 30 8 L 30 5 L 16 5 L 14 3 L 2 3 z "
     class="ColorScheme-Highlight"
     id="path4" />
  <path
     style="fill-opacity:0.33;fill-rule:evenodd"
     d="m 2,3 0,7 9,0 L 13,8 30,8 30,5 16,5 14,3 2,3 Z"
     id="path6" />
  <path
     style="fill:#ffffff;fill-opacity:0.2;fill-rule:evenodd"
     d="M 14 3 L 15 6 L 30 6 L 30 5 L 16 5 L 14 3 z M 13 8 L 11 10 L 1 10 L 1 11 L 12 11 L 13 8 z "
     id="path8" />
  <path
     style="fill-opacity:0.2;fill-rule:evenodd"
     d="M 13 8 L 11 9 L 2 9 L 2 10 L 11 10 L 13 8 z M 1 28 L 1 29 L 31 29 L 31 28 L 1 28 z "
     class="ColorScheme-Text"
     id="path10" />
  <path
     d="M 16.01742,13 C 13.13474,13 10.8,15.29564 10.8,18.12691 c 0,2.26566 1.49473,4.18697 3.56746,4.86443 0.26082,0.0476 0.35638,-0.1105 0.35638,-0.24655 0,-0.12179 -0.009,-0.44431 -0.01,-0.87177 -1.45131,0.30924 -1.75742,-0.68773 -1.75742,-0.68773 -0.23738,-0.59175 -0.58044,-0.75002 -0.58044,-0.75002 -0.47263,-0.31788 0.0358,-0.31139 0.0358,-0.31139 0.52389,0.0353 0.79915,0.52839 0.79915,0.52839 0.46522,0.78384 1.22132,0.5573 1.51956,0.42641 0.0466,-0.33178 0.18129,-0.55737 0.33045,-0.68564 -1.15869,-0.12825 -2.37654,-0.56916 -2.37654,-2.53348 0,-0.55961 0.20217,-1.01699 0.53694,-1.37572 -0.0582,-0.12947 -0.23477,-0.65079 0.0452,-1.35694 0,0 0.43693,-0.13736 1.43474,0.52568 0.41742,-0.1139 0.86092,-0.17034 1.3044,-0.17304 0.44344,0.005 0.88694,0.0586 1.3043,0.17304 0.99131,-0.66304 1.42828,-0.52568 1.42828,-0.52568 0.28044,0.70615 0.10436,1.22747 0.0526,1.35694 0.33261,0.35873 0.53479,0.81611 0.53479,1.37572 0,1.96964 -1.21956,2.40301 -2.38043,2.52913 0.1826,0.15388 0.35217,0.46821 0.35217,0.9487 0,0.68614 -0.01,1.2374 -0.01,1.40396 0,0.13424 0.0914,0.29472 0.35869,0.24344 2.0874,-0.67305 3.58088,-2.59561 3.58088,-4.85788 C 21.22696,15.29564 18.89084,13 16.00956,13 Z"
     id="path2-3-3"
     style="fill:#e4e5e5;fill-opacity:1;stroke-width:0.434778" />
</svg>
