<?xml version="1.0" encoding="UTF-8" standalone="no"?>
<svg
   width="48"
   height="48"
   viewBox="0 0 12.699752 12.699752"
   version="1.1"
   id="svg3"
   sodipodi:docname="accessories-dictionary.svg"
   inkscape:version="1.3.2 (091e20ef0f, 2023-11-25)"
   xmlns:inkscape="http://www.inkscape.org/namespaces/inkscape"
   xmlns:sodipodi="http://sodipodi.sourceforge.net/DTD/sodipodi-0.dtd"
   xmlns="http://www.w3.org/2000/svg"
   xmlns:svg="http://www.w3.org/2000/svg">
  <defs
     id="defs3" />
  <sodipodi:namedview
     id="namedview3"
     pagecolor="#ffffff"
     bordercolor="#999999"
     borderopacity="1"
     inkscape:showpageshadow="2"
     inkscape:pageopacity="0"
     inkscape:pagecheckerboard="0"
     inkscape:deskcolor="#d1d1d1"
     inkscape:zoom="6.2265625"
     inkscape:cx="31.156838"
     inkscape:cy="16.461731"
     inkscape:window-width="1920"
     inkscape:window-height="994"
     inkscape:window-x="0"
     inkscape:window-y="0"
     inkscape:window-maximized="1"
     inkscape:current-layer="svg3" />
  <circle
     cx="6.3498759"
     cy="6.3498759"
     r="5.5561414"
     style="stroke-width:0.777735;paint-order:stroke fill markers;fill:#c83771"
     id="circle1" />
  <path
     fill="#ffffff"
     d="M 4.9095106,0.98661337 A 5.5561415,5.5561415 0 0 0 3.2638225,1.7363503 v 3.9960043 l 0.8236218,-0.8236218 0.8220663,0.822844 z"
     id="path1"
     style="stroke-width:0.777735" />
  <path
     fill-rule="evenodd"
     d="M 2.8521672,2.037511 A 5.555877,5.555877 0 0 0 0.79443497,6.350312 5.555877,5.555877 0 0 0 2.8521672,10.661467 Z"
     opacity="0.2"
     style="stroke-width:0.205773;paint-order:fill markers stroke"
     id="path2" />
  <path
     fill="#ffffff"
     d="M 6.9705093,8.0562279 6.5567541,9.1777223 H 7.3850422 Z M 6.797852,7.756022 h 0.3460923 l 0.8586198,2.253877 H 7.6860258 L 7.4807037,9.4320417 H 6.4642036 L 6.2588814,10.009899 H 5.9376767 Z m 2.2904307,1.4045901 q -0.3367594,0 -0.4666412,0.076996 -0.1298818,0.076996 -0.1298818,0.262874 0,0.14777 0.096439,0.235654 0.098772,0.08555 0.2659855,0.08555 0.2309874,0 0.3702021,-0.163324 0.1399923,-0.164103 0.1399923,-0.435532 V 9.1606121 Z M 9.6428081,9.0455072 V 10.010677 H 9.3643787 V 9.7540241 q -0.094884,0.153992 -0.2372092,0.227877 -0.1415479,0.07233 -0.34687,0.07233 -0.2597636,0 -0.4137552,-0.1446589 -0.1524362,-0.146214 -0.1524362,-0.391201 0,-0.2854286 0.1905452,-0.4300874 0.1913229,-0.1454365 0.57008,-0.1454365 h 0.3896454 v -0.026443 q 0,-0.1921007 -0.1267708,-0.2963172 Q 9.1131702,8.514315 8.884516,8.514315 q -0.1446588,0 -0.2823179,0.034998 -0.1376592,0.034998 -0.26443,0.1042165 V 8.3968759 q 0.1524361,-0.059108 0.2955394,-0.087884 0.143881,-0.030332 0.2799847,-0.030332 0.3670911,0 0.5483035,0.1905451 0.1812124,0.1897675 0.1812124,0.5763022 z"
     aria-label="Aa"
     opacity="0.5"
     id="path3"
     style="stroke-width:0.777735" />
</svg>
