<?xml version="1.0" encoding="UTF-8" standalone="no"?>
<svg
   width="48"
   height="48"
   viewBox="0 0 12.699752 12.699752"
   version="1.1"
   id="svg4"
   sodipodi:docname="accessories-document-viewer.svg"
   inkscape:version="1.3.2 (091e20ef0f, 2023-11-25)"
   xmlns:inkscape="http://www.inkscape.org/namespaces/inkscape"
   xmlns:sodipodi="http://sodipodi.sourceforge.net/DTD/sodipodi-0.dtd"
   xmlns="http://www.w3.org/2000/svg"
   xmlns:svg="http://www.w3.org/2000/svg">
  <defs
     id="defs4" />
  <sodipodi:namedview
     id="namedview4"
     pagecolor="#ffffff"
     bordercolor="#999999"
     borderopacity="1"
     inkscape:showpageshadow="2"
     inkscape:pageopacity="0"
     inkscape:pagecheckerboard="0"
     inkscape:deskcolor="#d1d1d1"
     inkscape:zoom="6.2265625"
     inkscape:cx="25.375157"
     inkscape:cy="31.076537"
     inkscape:window-width="1920"
     inkscape:window-height="994"
     inkscape:window-x="0"
     inkscape:window-y="0"
     inkscape:window-maximized="1"
     inkscape:current-layer="svg4" />
  <g
     id="g4"
     transform="matrix(0.77777239,0,0,0.77777239,-0.23518061,-0.23518061)">
    <path
       d="M 8.46656,1.3229 A 7.14366,7.14366 0 0 0 1.3229,8.46656 7.14366,7.14366 0 0 0 8.46656,15.61022 7.14366,7.14366 0 0 0 8.73114,15.60096 V 1.336129 A 7.14366,7.14366 0 0 0 8.46656,1.3229 Z"
       style="stroke-width:0.26458;paint-order:stroke fill markers;fill:#a02c5a"
       id="path1" />
    <path
       fill="#ececec"
       d="M 8.73114,1.3321603 V 15.596991 A 7.14366,7.14366 0 0 0 15.61022,8.46656 7.14366,7.14366 0 0 0 8.73114,1.3321603 Z"
       style="stroke-width:0.26458;paint-order:stroke fill markers"
       id="path2" />
    <path
       d="M 8.466,1.323 V 15.61 A 5.027,7.144 0 0 0 13.494,8.466 5.027,7.144 0 0 0 8.467,1.323 Z"
       style="paint-order:stroke fill markers;fill:#c83771"
       id="path3" />
    <path
       fill="#ffffff"
       d="M 7.885,4.5 C 7.805,4.487 7.727,4.54 7.643,4.682 7.509,4.909 7.448,5.545 7.558,6.157 7.595,6.367 7.675,6.67 7.783,7.002 7.697,7.312 7.602,7.642 7.498,7.969 7.086,9.261 6.202,10.615 5.736,11.344 c -0.294,0.458 -1.003,0.997 -1.063,0.892 -0.058,-0.105 0.141,-0.34 0.39,-0.717 0.247,-0.375 0.881,-0.764 0.881,-0.764 0,0 -0.27,-0.01 -0.964,0.6 -0.693,0.614 -0.483,0.917 -0.318,1.01 0.164,0.096 0.624,0.46 2.188,-2.256 0.572,-0.993 0.903,-1.895 1.096,-2.643 0.198,0.512 0.453,1.029 0.736,1.355 0.165,0.19 0.382,0.373 0.623,0.541 -0.19,0.035 -0.408,0.077 -0.703,0.13 -1.08,0.197 -1.618,0.622 -1.63,0.631 0.008,-0.002 1.265,-0.4 2.6,-0.585 0.525,0.32 1.128,0.566 1.627,0.665 0.779,0.158 0.99,-0.128 1.016,-0.166 -0.03,0.025 -0.132,0.072 -0.453,0.045 -0.258,-0.021 -0.965,-0.221 -1.68,-0.605 1.481,-0.137 1.993,0.014 2.125,0.12 0.132,0.105 0.132,0.223 0.132,0.223 0,0 0.17,-0.164 0.058,-0.33 C 12.303,9.317 12.158,9.174 10.97,9.21 10.38,9.227 10.064,9.248 9.76,9.288 A 4.126,4.126 0 0 1 8.78,8.474 C 8.414,8.04 8.19,7.541 8.044,7.05 8.263,5.996 8.194,5.343 8.194,5.337 c 0,0 -0.111,0.505 -0.282,1.17 C 7.813,6.004 7.78,5.54 7.752,5.21 7.692,4.454 8.03,4.664 8.078,4.76 c 0.077,0.062 0.115,0.27 0.115,0.27 0,0 -0.027,-0.31 -0.162,-0.442 A 0.285,0.285 0 0 0 7.885,4.5 Z M 6.972,10.124 H 6.968 v 0.003 z"
       id="path4" />
  </g>
</svg>
