<?xml version="1.0" encoding="UTF-8" standalone="no"?>
<svg
   height="48"
   width="48"
   version="1.1"
   id="svg10"
   sodipodi:docname="almond.svg"
   inkscape:version="1.3.2 (091e20ef0f, 2023-11-25)"
   xmlns:inkscape="http://www.inkscape.org/namespaces/inkscape"
   xmlns:sodipodi="http://sodipodi.sourceforge.net/DTD/sodipodi-0.dtd"
   xmlns:xlink="http://www.w3.org/1999/xlink"
   xmlns="http://www.w3.org/2000/svg"
   xmlns:svg="http://www.w3.org/2000/svg"
   xmlns:rdf="http://www.w3.org/1999/02/22-rdf-syntax-ns#"
   xmlns:cc="http://creativecommons.org/ns#"
   xmlns:dc="http://purl.org/dc/elements/1.1/">
  <metadata
     id="metadata16">
    <rdf:RDF>
      <cc:Work
         rdf:about="">
        <dc:format>image/svg+xml</dc:format>
        <dc:type
           rdf:resource="http://purl.org/dc/dcmitype/StillImage" />
      </cc:Work>
    </rdf:RDF>
  </metadata>
  <defs
     id="defs14">
    <linearGradient
       inkscape:collect="always"
       id="linearGradient3593">
      <stop
         style="stop-color:#4f5967;stop-opacity:1;"
         offset="0"
         id="stop3589" />
      <stop
         style="stop-color:#343a43;stop-opacity:1;"
         offset="1"
         id="stop3591" />
    </linearGradient>
    <linearGradient
       id="c"
       x1="31.458"
       x2="31.458"
       y1="51.726002"
       y2="62.897999"
       gradientTransform="matrix(0.36079,0,0,0.36079,-2.8832,-9.4399)"
       gradientUnits="userSpaceOnUse">
      <stop
         stop-color="#1776ff"
         offset="0"
         id="stop292" />
      <stop
         stop-color="#2fceff"
         offset="1"
         id="stop294" />
    </linearGradient>
    <linearGradient
       id="d"
       x1="31.458"
       x2="31.458"
       y1="36.897999"
       y2="59.897999"
       gradientTransform="matrix(0.36079,0,0,0.36079,-2.8832,-9.4399)"
       gradientUnits="userSpaceOnUse">
      <stop
         stop-color="#ff5514"
         offset="0"
         id="stop297" />
      <stop
         stop-color="#ff9014"
         offset="1"
         id="stop299" />
    </linearGradient>
    <linearGradient
       id="a"
       x1="31.458"
       x2="31.458"
       y1="46.897999"
       y2="56.897999"
       gradientTransform="matrix(0.36079,0,0,0.36079,-2.8832,-9.4399)"
       gradientUnits="userSpaceOnUse">
      <stop
         stop-color="#c0e5fb"
         offset="0"
         id="stop302" />
      <stop
         stop-color="#c3faff"
         offset="1"
         id="stop304" />
    </linearGradient>
    <linearGradient
       gradientTransform="matrix(1.0394952,0,0,1.0394363,-448.49881,-520.66414)"
       gradientUnits="userSpaceOnUse"
       x2="426.69501"
       y2="499.92099"
       y1="547.67499"
       id="a-6"
       x1="389.32001">
      <stop
         stop-color="#18222a"
         style="stop-color:#436077;stop-opacity:1;"
         id="stop216"
         offset="0" />
      <stop
         stop-color="#566069"
         offset="1"
         style="stop-color:#6d7983;stop-opacity:1"
         id="stop218" />
    </linearGradient>
    <linearGradient
       id="e"
       x1="8.4461002"
       x2="24.603001"
       y1="6.2688999"
       y2="24.570999"
       gradientUnits="userSpaceOnUse"
       gradientTransform="translate(0.254427,-38.49298)">
      <stop
         stop-opacity=".2088"
         offset="0"
         id="stop4" />
      <stop
         stop-opacity="0"
         offset="1"
         id="stop6" />
    </linearGradient>
    <linearGradient
       id="d-3"
       x1="7.8488002"
       x2="14.108"
       y1="3.5121"
       y2="14.183"
       gradientUnits="userSpaceOnUse"
       gradientTransform="translate(0.254427,-38.49298)">
      <stop
         stop-opacity=".2088"
         offset="0"
         id="stop14" />
      <stop
         stop-opacity="0"
         offset="1"
         id="stop16" />
    </linearGradient>
    <linearGradient
       id="c-6"
       x1="31.458"
       x2="31.458"
       y1="51.726002"
       y2="62.897999"
       gradientTransform="matrix(0.36079,0,0,0.36079,-2.8832,-9.4399)"
       gradientUnits="userSpaceOnUse">
      <stop
         stop-color="#1776ff"
         offset="0"
         id="stop292-7"
         style="stop-color:#55ddff;stop-opacity:1" />
      <stop
         stop-color="#2fceff"
         offset="1"
         id="stop294-5"
         style="stop-color:#00ccff;stop-opacity:1" />
    </linearGradient>
    <linearGradient
       id="d-35"
       x1="31.458"
       x2="31.458"
       y1="36.897999"
       y2="59.897999"
       gradientTransform="matrix(0.36079,0,0,0.36079,-2.8832,-9.4399)"
       gradientUnits="userSpaceOnUse">
      <stop
         stop-color="#ff5514"
         offset="0"
         id="stop297-6"
         style="stop-color:#ffccaa;stop-opacity:1" />
      <stop
         stop-color="#ff9014"
         offset="1"
         id="stop299-2"
         style="stop-color:#ff9955;stop-opacity:1" />
    </linearGradient>
    <linearGradient
       id="a-9"
       x1="31.458"
       x2="31.458"
       y1="46.897999"
       y2="56.897999"
       gradientTransform="matrix(0.36079,0,0,0.36079,-2.8832,-9.4399)"
       gradientUnits="userSpaceOnUse">
      <stop
         stop-color="#c0e5fb"
         offset="0"
         id="stop302-1"
         style="stop-color:#e3d7f4;stop-opacity:1" />
      <stop
         stop-color="#c3faff"
         offset="1"
         id="stop304-2"
         style="stop-color:#aa87de;stop-opacity:1" />
    </linearGradient>
    <linearGradient
       inkscape:collect="always"
       xlink:href="#linearGradient3593"
       id="linearGradient3595"
       x1="-33.983067"
       y1="41.932011"
       x2="-4.8500652"
       y2="3.0038986"
       gradientUnits="userSpaceOnUse" />
    <linearGradient
       xlink:href="#a-7"
       id="d-36"
       x1="26.176001"
       x2="42.175999"
       y1="32.806"
       y2="32.806"
       gradientUnits="userSpaceOnUse"
       gradientTransform="translate(-10.175993,-8.8059983)" />
    <linearGradient
       id="a-7">
      <stop
         offset="0"
         stop-color="#dda641"
         id="stop2-5" />
      <stop
         offset="1"
         stop-color="#ffdf5e"
         id="stop4-3" />
    </linearGradient>
  </defs>
  <sodipodi:namedview
     pagecolor="#ffffff"
     bordercolor="#666666"
     borderopacity="1"
     objecttolerance="10"
     gridtolerance="10"
     guidetolerance="10"
     inkscape:pageopacity="0"
     inkscape:pageshadow="2"
     inkscape:window-width="1920"
     inkscape:window-height="994"
     id="namedview12"
     showgrid="false"
     inkscape:zoom="5.6715856"
     inkscape:cx="65.766441"
     inkscape:cy="47.429417"
     inkscape:window-x="0"
     inkscape:window-y="0"
     inkscape:window-maximized="1"
     inkscape:current-layer="svg10"
     inkscape:document-rotation="0"
     inkscape:showpageshadow="2"
     inkscape:pagecheckerboard="0"
     inkscape:deskcolor="#d1d1d1" />
  <rect
     width="41.579815"
     x="-44.58094"
     y="3.0038986"
     rx="20.789907"
     height="41.577457"
     transform="scale(-1,1)"
     id="rect223"
     ry="20.788729"
     style="fill:url(#linearGradient3595);fill-opacity:1" />
  <path
     style="display:inline;opacity:0.3;fill:#373e48;fill-opacity:1;stroke-width:2.9105;stroke-opacity:0.55"
     d="M 3.012474,23.272953 C 3.008614,23.446232 3,23.618528 3,23.792801 c 0,11.517041 9.272321,20.788741 20.789843,20.788741 11.517538,0 20.789997,-9.2717 20.789997,-20.788741 0,-0.174273 -0.0079,-0.345575 -0.01247,-0.519848 -0.274537,11.274746 -9.438704,20.268992 -20.777509,20.268992 -11.342962,0 -20.502976,-8.994246 -20.7773726,-20.268992"
     id="path225" />
  <path
     d="M 3.012474,24.308587 C 3.008614,24.135308 3,23.964004 3,23.788739 3,12.271797 12.272321,3 23.789843,3 35.307381,3 44.57984,12.271797 44.57984,23.788739 c 0,0.174273 -0.0079,0.346566 -0.01247,0.519848 C 44.292828,13.033846 35.128661,4.039596 23.789855,4.039596 c -11.342962,0 -20.5029756,8.99425 -20.7773722,20.268991"
     style="display:inline;opacity:0.3;fill:#ffffff;fill-opacity:1;stroke-width:2.9105;stroke-opacity:0.55"
     id="path229" />
  <path
     fill="#c4762f"
     d="m 33.000004,29.000985 c 0,6.000016 -4.000003,9.000014 -8.999987,9.000014 -5.000012,0 -9.000014,-2.999998 -9.000014,-9.000014 0,-6.999993 4.828016,-18.999986 9.000014,-18.999986 4.172,0 8.999987,11.999993 8.999987,18.999986 z"
     style="stroke-width:0.999987;paint-order:normal"
     id="path24" />
  <path
     fill="url(#d)"
     d="m 24.000017,11.000009 c -3.531024,0 -8.000018,10.999993 -8.000018,17.999993 0,4.999998 3.172004,7.999989 8.000018,7.999989 1.613976,0 3.036982,-0.341009 4.224976,-0.974978 1.570008,-2.384012 2.775024,-5.08401 2.775024,-8.025028 0.573993,1.303015 0.297969,3.514004 -0.309018,5.799024 0.843004,-1.271006 1.309002,-2.888007 1.309002,-4.799006 0,-7 -4.468997,-17.999994 -7.999984,-17.999994 z m -1.500011,1.999994 c 0,0 -0.500002,3.432994 -0.500002,5.000012 0,2.027986 0.999998,4.999989 0.999998,5.999982 0,1.484 -1.500001,3.999987 -1.500001,3.999987 0,0 0.500003,-1.765982 0.500003,-3.999987 0,-0.999993 -0.999997,-3.609996 -0.999997,-5.999982 0,-1.700018 1.499999,-5.000012 1.499999,-5.000012 z m 3.499999,0 c 0,0 2.999996,4.284994 2.999996,8.999999 0,1.999995 -0.358001,3.592999 -0.999996,4.999999 v -4.999999 c 0,-3.625011 -1.000016,-6.000002 -2,-8.999999 z m -7,5.999997 v 3.000002 c 0,1.999995 -0.293003,3.777011 -1.000005,5.999982 V 23.999997 C 18,22.300003 19.000005,19 19.000005,19 Z"
     style="fill:url(#d-36);stroke-width:0.999987;paint-order:normal"
     id="path26" />
  <path
     fill="#403b3c"
     d="M 19.499999,29.999998 C 18.672001,29.999998 18,30.894994 18,32.000008 c 0.543989,-1.000011 1.085002,-1.000011 1.499999,-1.000011 0.415008,0 0.926007,0 1.500008,1.000011 0,-1.105014 -0.672,-2.00001 -1.500008,-2.00001 z m 8.000018,0 c -0.828012,0 -1.500012,0.894996 -1.500012,2.00001 0.543999,-1.000011 1.084999,-1.000011 1.500012,-1.000011 0.414981,0 0.925982,0 1.499984,1.000011 0,-1.105014 -0.672001,-2.00001 -1.499984,-2.00001 z m -5.000011,2.999997 a 0.49999995,0.49999995 0 0 0 -0.500002,0.500001 c 0,0.831012 0.668998,1.499988 1.49999,1.499988 0.83101,0 1.500007,-0.668976 1.500007,-1.499988 a 0.49999995,0.49999995 0 0 0 -0.499994,-0.500001 0.49999995,0.49999995 0 0 0 -0.49999,0.500001 0.50000757,0.50000757 0 1 1 -1.000015,0 0.49999995,0.49999995 0 0 0 -0.499996,-0.500001 z"
     style="stroke-width:0.999987;paint-order:normal"
     id="path28" />
</svg>
