<?xml version="1.0" encoding="UTF-8" standalone="no"?>
<svg
   width="48"
   height="48"
   version="1.1"
   id="svg10"
   sodipodi:docname="ardour.svg"
   inkscape:version="1.2.1 (9c6d41e410, 2022-07-14)"
   xmlns:inkscape="http://www.inkscape.org/namespaces/inkscape"
   xmlns:sodipodi="http://sodipodi.sourceforge.net/DTD/sodipodi-0.dtd"
   xmlns="http://www.w3.org/2000/svg"
   xmlns:svg="http://www.w3.org/2000/svg">
  <defs
     id="defs14" />
  <sodipodi:namedview
     id="namedview12"
     pagecolor="#ffffff"
     bordercolor="#666666"
     borderopacity="1.0"
     inkscape:showpageshadow="2"
     inkscape:pageopacity="0.0"
     inkscape:pagecheckerboard="0"
     inkscape:deskcolor="#d1d1d1"
     showgrid="false"
     inkscape:zoom="3.6875"
     inkscape:cx="32"
     inkscape:cy="32"
     inkscape:window-width="1920"
     inkscape:window-height="1011"
     inkscape:window-x="0"
     inkscape:window-y="0"
     inkscape:window-maximized="1"
     inkscape:current-layer="svg10" />
  <circle
     cx="24"
     cy="24"
     r="21"
     fill="#ae1b29"
     style="stroke-width:0.77776;paint-order:stroke fill markers"
     id="circle2" />
  <circle
     cx="24"
     cy="24"
     r="18.66667"
     fill="#ffffff"
     opacity="0.15"
     style="stroke-width:0.77776;paint-order:stroke fill markers"
     id="circle4" />
  <g
     transform="matrix(0.70119795,0,0,0.6944235,6.9067786,5.1368545)"
     color="#000000"
     fill="#ffffff"
     stroke-width="0.7843"
     id="g8">
    <path
       d="M 6.03,37.701 23.977,4.763 43.223,40.388 c 0,0 0.111,0.275 -0.39,0.133 -0.471,-0.134 -0.874,-0.529 -1.362,-0.487 -0.411,0.035 -0.656,0.63 -1.063,0.565 -0.582,-0.093 -0.88,-1.202 -1.469,-1.185 -0.519,0.015 -0.391,1.01 -1.166,1.072 -0.687,0.058 -0.575,-1.827 -1.267,-1.885 -0.469,-0.039 -0.574,1.942 -1.156,1.941 -0.616,0 0.025,-2.85 -0.863,-2.897 -0.695,-0.037 -0.313,2.501 -0.937,2.504 -0.861,0.004 -0.13,-4.157 -1.192,-4.139 -0.755,0.012 0.057,3.851 -0.926,3.839 -0.905,-0.011 -0.033,-5.941 -1.049,-5.869 -0.838,0.059 0.103,5.304 -0.819,5.326 -1.117,0.026 -0.005,-7.306 -1.114,-7.315 -0.981,-0.009 -0.102,6.486 -1,6.486 -1.094,0 0.003,-8.38 -1.037,-8.435 -1.132,-0.06 0.277,8.418 -0.957,8.409 -1.191,-0.009 0.34,-10.639 -1.04,-10.741 -1.13,-0.083 0.309,9.951 -0.851,9.995 -1.218,0.046 0.368,-11.688 -1.073,-11.691 -1.055,-0.003 0.074,11.242 -1.019,11.4 -1.01,-0.223 0.202,-12.413 -0.978,-12.417 -1.218,-0.004 0.206,12.12 -1.055,12.148 -1.057,0.014 0.449,-12.166 -0.939,-12.12 -1.276,0.038 0.049,12.07 -1,12.05 -1.132,-0.013 0.29,-11.13 -0.979,-11.06 -0.967,0.5 -0.037,8.599 -0.965,11.171 -1.017,-1.01 0.073,-7.962 -1.058,-9.186 -0.928,1.336 -0.202,9.355 -0.957,9.385 -0.927,0.045 -0.045,-6.291 -1.039,-6.351 -0.595,-0.036 -0.911,7.177 -1.64,7.205 -0.847,0.085 -0.754,-4.057 -1.34,-4.044 C 8.844,34.282 9.022,38.727 8.131,38.738 7.619,38.86 7.495,36.986 7.037,37.03 6.626,37.069 6.549,39.001 5.87,39.349 5.249,39.433 5.551,38.757 6.034,37.702"
       fill="#ffffff"
       stroke-width="0.7843"
       id="path6" />
  </g>
</svg>
