<?xml version="1.0" encoding="UTF-8" standalone="no"?>
<svg
   width="48"
   height="48"
   version="1.1"
   viewBox="0 0 12.699752 12.699752"
   id="svg5"
   sodipodi:docname="basket.svg"
   inkscape:version="1.3.2 (091e20ef0f, 2023-11-25)"
   xmlns:inkscape="http://www.inkscape.org/namespaces/inkscape"
   xmlns:sodipodi="http://sodipodi.sourceforge.net/DTD/sodipodi-0.dtd"
   xmlns:xlink="http://www.w3.org/1999/xlink"
   xmlns="http://www.w3.org/2000/svg"
   xmlns:svg="http://www.w3.org/2000/svg"
   xmlns:rdf="http://www.w3.org/1999/02/22-rdf-syntax-ns#"
   xmlns:cc="http://creativecommons.org/ns#"
   xmlns:dc="http://purl.org/dc/elements/1.1/">
  <sodipodi:namedview
     id="namedview5"
     pagecolor="#ffffff"
     bordercolor="#999999"
     borderopacity="1"
     inkscape:showpageshadow="2"
     inkscape:pageopacity="0"
     inkscape:pagecheckerboard="0"
     inkscape:deskcolor="#d1d1d1"
     inkscape:zoom="4.2094951"
     inkscape:cx="28.506982"
     inkscape:cy="34.683494"
     inkscape:window-width="1920"
     inkscape:window-height="994"
     inkscape:window-x="0"
     inkscape:window-y="0"
     inkscape:window-maximized="1"
     inkscape:current-layer="svg5" />
  <metadata
     id="metadata1">
    <rdf:RDF>
      <cc:Work
         rdf:about="">
        <dc:format>image/svg+xml</dc:format>
        <dc:type
           rdf:resource="http://purl.org/dc/dcmitype/StillImage" />
      </cc:Work>
    </rdf:RDF>
  </metadata>
  <defs
     id="defs2">
    <linearGradient
       id="linearGradient5"
       inkscape:collect="always">
      <stop
         style="stop-color:#ffcc00;stop-opacity:1"
         offset="0"
         id="stop5" />
      <stop
         style="stop-color:#bc5fd3;stop-opacity:1"
         offset="1"
         id="stop6" />
    </linearGradient>
    <filter
       id="filter11290"
       x="-0.023999869"
       y="-0.023999869"
       width="1.0479997"
       height="1.0479997"
       color-interpolation-filters="sRGB">
      <feGaussianBlur
         stdDeviation="0.15875313"
         id="feGaussianBlur1" />
    </filter>
    <linearGradient
       id="linearGradient1307"
       x1="16.393"
       x2="0.60977"
       y1="0.69761002"
       y2="16.375"
       gradientTransform="matrix(0.69998898,0,0,0.69998898,0.33403047,0.30896765)"
       gradientUnits="userSpaceOnUse">
      <stop
         stop-color="#ffdc32"
         offset="0"
         id="stop1" />
      <stop
         stop-color="#ff7832"
         offset="1"
         id="stop2" />
    </linearGradient>
    <linearGradient
       inkscape:collect="always"
       xlink:href="#linearGradient5"
       id="linearGradient6"
       x1="0.7289995"
       y1="0.67476767"
       x2="11.841332"
       y2="11.787051"
       gradientUnits="userSpaceOnUse" />
  </defs>
  <circle
     cx="-352.01999"
     cy="-328.38"
     r="0"
     fill="#5e4aa6"
     stroke-width="0.26458"
     id="circle2" />
  <path
     d="m 11.84129,6.2308741 c 0,0.6660676 -0.117241,1.3047095 -0.332243,1.8965502 C 11.359592,8.5387939 11.16298,8.9277217 10.925305,9.2874461 10.825755,9.4386997 10.718711,9.5847663 10.605088,9.7251422 10.241332,10.174388 9.8090606,10.565619 9.3237582,10.883134 9.145051,11.000158 8.9593089,11.1072 8.7670151,11.203113 8.0202667,11.57683 7.1772705,11.787051 6.2851344,11.787051 c -0.8921359,0 -1.735133,-0.210221 -2.4818809,-0.583959 -0.192315,-0.09593 -0.378274,-0.202976 -0.556982,-0.319979 C 2.7548305,10.561307 2.3173865,10.163944 1.9506625,9.7072715 1.8368235,9.5657617 1.7299975,9.418351 1.6304455,9.2657324 1.3991265,8.911958 1.2075045,8.530254 1.0610045,8.1268503 0.84603047,7.5351566 0.72899947,6.8967597 0.72899947,6.2309302 c 0,-3.0686115 2.48755103,-5.55616255 5.55616303,-5.55616255 1.5403254,0 2.9341434,0.62682595 3.9405875,1.63916405 0.290048,0.29163 0.54791,0.615493 0.767398,0.965635 0.207512,0.3297439 0.38099,0.6830632 0.51592,1.0547434 0.215023,0.5919036 0.332264,1.2305106 0.332264,1.8965501 z"
     stroke-width="0.0217039"
     id="path3"
     style="fill:url(#linearGradient6);fill-opacity:1" />
  <circle
     cx="-330.38"
     cy="-328.37"
     r="0"
     fill="#5e4aa6"
     stroke-width="0.26458"
     id="circle4" />
  <path
     d="m 3.0162485,3.2384916 v 0.2222391 h 6.667255 V 3.2384916 Z m 0,0.6667251 v 0.2222396 h 6.667255 V 3.9052167 Z m 0,0.6667255 v 0.2222396 h 6.667255 V 4.5719422 Z m 0,0.6667255 v 0.2222395 h 6.667255 V 5.2386677 Z m 0,0.6667256 v 0.2222394 h 6.667255 V 5.9053933 Z m 0,0.6667255 v 0.2222394 h 6.667255 V 6.5721188 Z m 0,0.6667255 v 0.2222394 h 6.667255 V 7.2388443 Z m 0,0.6667254 v 0.2222396 h 6.667255 V 7.9055697 Z m 0,0.6667256 v 0.2222395 h 6.667255 V 8.5722953 Z m 0,0.6667255 v 0.2222396 h 6.667255 V 9.2390209 Z"
     enable-background="new"
     image-rendering="optimizeSpeed"
     id="path4"
     style="opacity:1;fill:#e5e5e5;fill-opacity:1" />
  <path
     d="M 4.7744805,0.87840865 V 4.7087482 L 4.1327724,4.0666763 3.4907015,4.7087482 V 1.4137596 a 5.5561625,5.5561625 0 0 1 1.283779,-0.53536495 z"
     style="stroke-width:0.699989;paint-order:normal;fill:#cc00ff"
     id="path5" />
</svg>
