<?xml version="1.0" encoding="UTF-8" standalone="no"?>
<svg
   width="48"
   height="48"
   version="1"
   id="svg29"
   sodipodi:docname="bitwig-studio.svg"
   inkscape:version="1.3.2 (091e20ef0f, 2023-11-25)"
   xmlns:inkscape="http://www.inkscape.org/namespaces/inkscape"
   xmlns:sodipodi="http://sodipodi.sourceforge.net/DTD/sodipodi-0.dtd"
   xmlns="http://www.w3.org/2000/svg"
   xmlns:svg="http://www.w3.org/2000/svg">
  <defs
     id="defs29" />
  <sodipodi:namedview
     id="namedview29"
     pagecolor="#ffffff"
     bordercolor="#999999"
     borderopacity="1"
     inkscape:showpageshadow="2"
     inkscape:pageopacity="0"
     inkscape:pagecheckerboard="0"
     inkscape:deskcolor="#d1d1d1"
     inkscape:zoom="4.2094951"
     inkscape:cx="10.927676"
     inkscape:cy="16.153956"
     inkscape:window-width="1920"
     inkscape:window-height="994"
     inkscape:window-x="0"
     inkscape:window-y="0"
     inkscape:window-maximized="1"
     inkscape:current-layer="svg29" />
  <rect
     style="opacity:0.2;stroke-width:0.743395"
     width="42"
     height="41.263157"
     x="3"
     y="3.7368443"
     rx="21"
     ry="20.631578"
     id="rect1" />
  <rect
     width="42"
     height="41.263157"
     x="3"
     y="3"
     rx="21"
     ry="20.631578"
     id="rect2"
     style="fill:#a02c5a;stroke-width:0.743395" />
  <path
     style="opacity:0.2;fill:#ffffff;stroke-width:0.743395"
     d="M 23.999972,3 C 12.365988,3 3,12.20167 3,23.631544 3,23.75534 3.00803,23.876911 3.010279,23.999961 3.2097752,12.741777 12.491999,3.7368405 23.999972,3.7368405 c 11.507994,0 20.789975,9.0049365 20.989472,20.2631205 0.003,-0.12305 0.01052,-0.244621 0.01052,-0.368417 C 44.999948,12.20167 35.633958,3 23.999972,3 Z"
     id="path2" />
  <g
     style="opacity:0.2"
     id="g15"
     transform="matrix(0.74999903,0,0,0.7368409,4.1e-6,0.05263645)">
    <circle
       cx="20"
       cy="25"
       r="3"
       id="circle2" />
    <circle
       cx="28"
       cy="25"
       r="3"
       id="circle3" />
    <circle
       cx="36"
       cy="25"
       r="3"
       id="circle4" />
    <circle
       cx="44"
       cy="25"
       r="3"
       id="circle5" />
    <circle
       cx="12"
       cy="33"
       r="3"
       id="circle6" />
    <circle
       cx="20"
       cy="33"
       r="3"
       id="circle7" />
    <circle
       cx="28"
       cy="33"
       r="3"
       id="circle8" />
    <circle
       cx="36"
       cy="33"
       r="3"
       id="circle9" />
    <circle
       cx="44"
       cy="33"
       r="3"
       id="circle10" />
    <circle
       cx="52"
       cy="33"
       r="3"
       id="circle11" />
    <circle
       cx="12"
       cy="41"
       r="3"
       id="circle12" />
    <circle
       cx="20"
       cy="41"
       r="3"
       id="circle13" />
    <circle
       cx="44"
       cy="41"
       r="3"
       id="circle14" />
    <circle
       cx="52"
       cy="41"
       r="3"
       id="circle15" />
  </g>
  <g
     style="fill:#ffffff"
     id="g29"
     transform="matrix(0.74999903,0,0,0.7368409,4.1e-6,0.05263645)">
    <circle
       cx="20"
       cy="24"
       r="3"
       id="circle16" />
    <circle
       cx="28"
       cy="24"
       r="3"
       id="circle17" />
    <circle
       cx="36"
       cy="24"
       r="3"
       id="circle18" />
    <circle
       cx="44"
       cy="24"
       r="3"
       id="circle19" />
    <circle
       cx="12"
       cy="32"
       r="3"
       id="circle20" />
    <circle
       cx="20"
       cy="32"
       r="3"
       id="circle21" />
    <circle
       cx="28"
       cy="32"
       r="3"
       id="circle22" />
    <circle
       cx="36"
       cy="32"
       r="3"
       id="circle23" />
    <circle
       cx="44"
       cy="32"
       r="3"
       id="circle24" />
    <circle
       cx="52"
       cy="32"
       r="3"
       id="circle25" />
    <circle
       cx="12"
       cy="40"
       r="3"
       id="circle26" />
    <circle
       cx="20"
       cy="40"
       r="3"
       id="circle27" />
    <circle
       cx="44"
       cy="40"
       r="3"
       id="circle28" />
    <circle
       cx="52"
       cy="40"
       r="3"
       id="circle29" />
  </g>
</svg>
