<?xml version="1.0" encoding="UTF-8" standalone="no"?>
<svg
   width="48"
   height="48"
   version="1.1"
   id="svg5"
   sodipodi:docname="com.github.corna.Vivado.svg"
   inkscape:version="1.4 (unknown)"
   xmlns:inkscape="http://www.inkscape.org/namespaces/inkscape"
   xmlns:sodipodi="http://sodipodi.sourceforge.net/DTD/sodipodi-0.dtd"
   xmlns:xlink="http://www.w3.org/1999/xlink"
   xmlns="http://www.w3.org/2000/svg"
   xmlns:svg="http://www.w3.org/2000/svg">
  <defs
     id="defs5">
    <linearGradient
       id="linearGradient7"
       inkscape:collect="always">
      <stop
         style="stop-color:#333b56;stop-opacity:1;"
         offset="0"
         id="stop7" />
      <stop
         style="stop-color:#4c5880;stop-opacity:1;"
         offset="1"
         id="stop8" />
    </linearGradient>
    <linearGradient
       inkscape:collect="always"
       xlink:href="#linearGradient7"
       id="linearGradient8"
       x1="31.508766"
       y1="60"
       x2="31.508768"
       y2="4.9824562"
       gradientUnits="userSpaceOnUse"
       gradientTransform="matrix(0.75080887,0,0,0.75047449,5.7389981,-7.0408409)" />
  </defs>
  <sodipodi:namedview
     id="namedview5"
     pagecolor="#ffffff"
     bordercolor="#000000"
     borderopacity="0.25"
     inkscape:showpageshadow="2"
     inkscape:pageopacity="0.0"
     inkscape:pagecheckerboard="0"
     inkscape:deskcolor="#d1d1d1"
     inkscape:zoom="7.0710678"
     inkscape:cx="28.072139"
     inkscape:cy="52.538034"
     inkscape:window-width="1920"
     inkscape:window-height="996"
     inkscape:window-x="0"
     inkscape:window-y="0"
     inkscape:window-maximized="1"
     inkscape:current-layer="svg5" />
  <ellipse
     style="opacity:0.2;stroke-width:0.737475"
     cx="29.396059"
     cy="17.343"
     id="circle1"
     transform="matrix(0.9659591,0.25869485,-0.25894329,0.96589253,0,0)"
     rx="20.653826"
     ry="20.644627" />
  <ellipse
     style="fill:url(#linearGradient8);stroke-width:0.737475"
     cx="29.396059"
     cy="16.605684"
     id="circle2"
     transform="matrix(0.9659591,0.25869485,-0.25894329,0.96589253,0,0)"
     rx="20.653826"
     ry="20.644627" />
  <path
     style="opacity:0.2;fill:#ffffff;stroke-width:0.737475"
     d="M 29.441249,3.7034248 A 20.643917,20.654538 89.999594 0 0 4.1447093,18.300879 20.643917,20.654538 89.999594 0 0 4.0632652,18.65475 20.643917,20.654538 89.999594 0 1 29.250328,4.4155852 20.643917,20.654538 89.999594 0 1 43.934153,29.332628 20.643917,20.654538 89.999594 0 0 44.046214,28.986956 20.643917,20.654538 89.999594 0 0 29.441249,3.7034248 Z"
     id="path4" />
  <g
     id="svg20"
     transform="matrix(2.3703703,0,0,2.3703703,7.2960372,3.6810374)">
    <g
       id="g9"
       transform="matrix(0.24107143,0,0,0.23684211,0.28571424,0.30263143)">
      <path
         style="opacity:0.2"
         d="M 18,5 21,25.357422 4,40.408203 V 61 L 21,45.949219 41.257812,55.400391 60,46.953125 39.607422,37 36.835938,17.328125 Z"
         id="path1" />
      <path
         style="fill:#aa87de"
         d="M 36.835256,16.328788 18,4 21,24.356552 22.2,41.8 39.608188,36 Z"
         id="path2" />
      <path
         style="fill:#8d5fd3;fill-opacity:1"
         d="M 4,39.407642 21,24.356552 32,33.4 21,44.948908 4,60 Z"
         id="path3" />
      <path
         style="fill:#c6afe9"
         d="M 39.608188,36 60,45.953033 41.258285,54.4 21,44.948908 22.2,27.8 Z"
         id="path4-3" />
      <path
         style="opacity:0.2;fill:#ffffff"
         d="M 22.199219,27.800781 21,44.949219 21.06836,44.980469 22.19922,28.800781 39.607422,37 58.935547,46.433594 60,45.953125 39.607422,36 Z"
         id="path5-6" />
      <path
         style="opacity:0.2"
         d="M 39.607032,37 21,25.357422 V 45.95 Z M 21,45.95 c 0,-0.0011 0,0 0,0 z"
         id="path6" />
      <path
         style="fill:#ffffff"
         d="M 39.607032,36 21,24.357422 V 44.95 Z M 21,44.95 c 0,-0.0011 0,0 0,0 z"
         id="path7" />
      <path
         style="opacity:0.2;fill:#ffffff"
         d="M 18,4 18.164062,5.1074219 36.835938,17.328125 39.472656,36.044922 39.607422,36 36.835938,16.328125 Z"
         id="path8" />
      <path
         style="opacity:0.1;fill:#ffffff"
         d="M 21,24.357422 4,39.408203 v 1 L 21,25.357422 31.464844,33.960938 32,33.400391 Z"
         id="path9" />
    </g>
  </g>
</svg>
