<?xml version="1.0" encoding="UTF-8" standalone="no"?>
<svg
   height="48"
   width="48"
   version="1.1"
   id="svg1886"
   sodipodi:docname="distributor-logo-debian.svg"
   inkscape:version="1.2.2 (b0a8486541, 2022-12-01)"
   xmlns:inkscape="http://www.inkscape.org/namespaces/inkscape"
   xmlns:sodipodi="http://sodipodi.sourceforge.net/DTD/sodipodi-0.dtd"
   xmlns:xlink="http://www.w3.org/1999/xlink"
   xmlns="http://www.w3.org/2000/svg"
   xmlns:svg="http://www.w3.org/2000/svg">
  <defs
     id="defs1890">
    <linearGradient
       id="m"
       x1="68.210472"
       x2="148.52051"
       y1="177.75131"
       y2="258.06134"
       gradientUnits="userSpaceOnUse"
       gradientTransform="matrix(0.37626177,0,0,0.37626188,-16.518336,-57.726176)">
      <stop
         stop-color="#59f"
         offset="0"
         id="stop3371" />
      <stop
         stop-color="#06f"
         offset="1"
         id="stop3373" />
    </linearGradient>
    <linearGradient
       id="l"
       x1="220.30621"
       x2="54.439178"
       y1="207.9187"
       y2="42.051666"
       gradientTransform="matrix(0.16799417,0,0,0.1635966,5.9313038,-1.9414957)"
       gradientUnits="userSpaceOnUse"
       xlink:href="#a-3" />
    <linearGradient
       id="a-3">
      <stop
         stop-color="#2a7fff"
         offset="0"
         id="stop3327"
         style="stop-color:#00ccff;stop-opacity:1" />
      <stop
         stop-color="#0cf"
         offset="1"
         id="stop3329"
         style="stop-color:#0088aa;stop-opacity:1" />
    </linearGradient>
    <linearGradient
       id="linearGradient2356">
      <stop
         offset="0"
         id="stop2" />
      <stop
         offset="1"
         stop-opacity="0"
         id="stop4" />
    </linearGradient>
    <linearGradient
       id="linearGradient1978"
       x1="-59.235001"
       x2="-59.235001"
       y1="0.70410001"
       y2="-11.929"
       gradientTransform="matrix(2.8862356,0,0,2.8862362,194.46533,42.90783)"
       gradientUnits="userSpaceOnUse">
      <stop
         stop-color="#0fd3cd"
         offset="0"
         id="stop2-3" />
      <stop
         stop-color="#52ffb9"
         offset="1"
         id="stop4-6"
         style="stop-color:#80b3ff;stop-opacity:1" />
    </linearGradient>
    <linearGradient
       id="linearGradient1988"
       x1="-59.235001"
       x2="-59.235001"
       y1="0.70410001"
       y2="-11.929"
       gradientTransform="matrix(2.4166181,0,0,2.4166186,166.70888,39.830849)"
       gradientUnits="userSpaceOnUse">
      <stop
         stop-color="#00a0a2"
         offset="0"
         id="stop7" />
      <stop
         stop-color="#2fde8b"
         offset="1"
         id="stop9"
         style="stop-color:#00ccff;stop-opacity:1" />
    </linearGradient>
    <filter
       id="filter1877"
       x="-0.027478284"
       y="-0.021303294"
       width="1.0549566"
       height="1.0426066"
       color-interpolation-filters="sRGB">
      <feGaussianBlur
         stdDeviation="0.072702461"
         id="feGaussianBlur12" />
    </filter>
    <linearGradient
       id="k"
       x1="430.56"
       x2="433.31"
       y1="536.57001"
       y2="524.16998"
       gradientTransform="matrix(1.3951511,0,0,1.3951514,-578.18825,-716.37433)"
       gradientUnits="userSpaceOnUse">
      <stop
         stop-color="#c4e7f9"
         offset="0"
         id="stop15" />
      <stop
         stop-color="#edfafd"
         offset="1"
         id="stop17" />
    </linearGradient>
    <linearGradient
       xlink:href="#linearGradient4202"
       id="linearGradient4208"
       x1="407.79285"
       y1="520.55933"
       x2="408.57147"
       y2="543.7981"
       gradientUnits="userSpaceOnUse"
       gradientTransform="matrix(1.0749997,0,0,1.0499999,-415.21421,-525.98795)" />
    <linearGradient
       id="linearGradient4202">
      <stop
         style="stop-color:#a17bdb;stop-opacity:1;"
         offset="0"
         id="stop7-3" />
      <stop
         style="stop-color:#00ccff;stop-opacity:1;"
         offset="1"
         id="stop9-6" />
    </linearGradient>
    <linearGradient
       xlink:href="#linearGradient2356"
       id="linearGradient4348"
       x1="15.319"
       y1="12.214"
       x2="39.408001"
       y2="36.303001"
       gradientUnits="userSpaceOnUse"
       gradientTransform="matrix(1.0489731,0,0,1.0499998,-1.1942074,-1.2)" />
  </defs>
  <sodipodi:namedview
     id="namedview1888"
     pagecolor="#ffffff"
     bordercolor="#666666"
     borderopacity="1.0"
     inkscape:showpageshadow="2"
     inkscape:pageopacity="0.0"
     inkscape:pagecheckerboard="0"
     inkscape:deskcolor="#d1d1d1"
     showgrid="false"
     inkscape:zoom="4.9166667"
     inkscape:cx="-54.610169"
     inkscape:cy="24.508474"
     inkscape:window-width="1920"
     inkscape:window-height="1000"
     inkscape:window-x="0"
     inkscape:window-y="0"
     inkscape:window-maximized="1"
     inkscape:current-layer="svg1886" />
  <linearGradient
     id="a">
    <stop
       offset="0"
       id="stop1845" />
    <stop
       offset="1"
       stop-opacity="0"
       id="stop1847" />
  </linearGradient>
  <linearGradient
     id="b"
     gradientUnits="userSpaceOnUse"
     x1="16"
     x2="34.942"
     xlink:href="#a"
     y1="11"
     y2="29.942" />
  <linearGradient
     id="c"
     gradientTransform="matrix(.70710678 .70710678 -.70710678 .70710678 0 0)"
     gradientUnits="userSpaceOnUse"
     x1="31.021"
     x2="43.104"
     xlink:href="#a"
     y1="-9.896"
     y2="-9.896" />
  <linearGradient
     id="d"
     gradientUnits="userSpaceOnUse"
     x1="23.716"
     x2="26.348"
     xlink:href="#a"
     y1="13.219"
     y2="15.851" />
  <linearGradient
     id="e"
     gradientTransform="matrix(1.0454421 0 0 1.0298842 46.076843 3.856842)"
     gradientUnits="userSpaceOnUse"
     x1="-45.221867"
     x2=".691726"
     y1="-4.91011"
     y2="41.697075">
    <stop
       offset="0"
       stop-color="#2bc0ff"
       id="stop1853" />
    <stop
       offset="1"
       stop-color="#1d99f3"
       id="stop1855" />
  </linearGradient>
  <g
     id="surface1-3"
     transform="matrix(0.96206156,0,0,0.96206156,0.91052256,1.0909091)">
    <path
       style="fill:#e25563;fill-opacity:1;fill-rule:nonzero;stroke:none"
       d="m 24,1.984375 c 12.054688,0 21.828125,9.773437 21.828125,21.828125 C 45.828125,35.867188 36.054688,45.640625 24,45.640625 11.945312,45.640625 2.171875,35.867188 2.171875,23.8125 2.171875,11.757812 11.945312,1.984375 24,1.984375 Z m 0,0"
       id="path2662-6" />
    <path
       style="fill:#ffffff;fill-opacity:1;fill-rule:nonzero;stroke:none"
       d="m 11.792969,18.789062 c 0.164062,-0.507812 0.191406,-0.816406 0.253906,-1.109374 -0.449219,0.585937 -0.207031,0.710937 -0.253906,1.109374 m 0.828125,-3.53125 c 0.08203,0.761719 -0.5625,1.058594 0.144531,0.554688 0.378906,-0.867188 -0.148437,-0.238281 -0.144531,-0.554688 M 24.949219,8.585938 c 0.347656,-0.128907 0.859375,-0.070313 1.234375,-0.15625 -0.484375,0.039062 -0.96875,0.066406 -1.445313,0.125 l 0.210938,0.03125 m 11.277343,14.234374 -0.07422,0.195313 c -0.140625,1.011719 -0.441406,2.011719 -0.90625,2.9375 0.511718,-0.976563 0.84375,-2.046875 0.980468,-3.132813 m -14.273437,3.160157 c -0.179687,-0.203125 -0.285156,-0.449219 -0.40625,-0.695313 0.113281,0.429688 0.347656,0.796875 0.566406,1.171875 l -0.160156,-0.476562 m -0.804687,0.03125 -0.07422,0.371093 c 0.339843,0.472657 0.613281,0.984376 1.046875,1.351563 -0.3125,-0.621094 -0.546875,-0.878906 -0.972656,-1.722656 m 4.25,-17.015625 -0.195313,0.042968 0.183594,-0.019531 0.01172,-0.023437 m -0.550782,-0.15625 c 0.277344,0.050781 0.597656,0.089844 0.550782,0.15625 0.304687,-0.066406 0.375,-0.128906 -0.550782,-0.15625 m 5.78125,13.015625 c 0.0625,-0.953125 -0.183594,-0.652344 -0.265625,-0.289063 0.09766,0.05078 0.171875,0.671875 0.265625,0.289063 m -1.027344,2.722656 c 0.3125,-0.433594 0.535157,-0.910156 0.617188,-1.402344 -0.07031,0.351563 -0.257812,0.65625 -0.433594,0.972657 -0.972656,0.625 -0.09375,-0.367188 0,-0.746094 -1.042968,1.339844 -0.144531,0.804687 -0.183594,1.175781 m -2.785156,0.707031 c -0.519531,0.0078 0.09766,0.273438 0.773438,0.378906 0.191406,-0.148437 0.359375,-0.300781 0.511718,-0.445312 -0.421874,0.105469 -0.851562,0.109375 -1.285156,0.06641 M 11.796875,18.789062 c 0.164063,-0.507812 0.191406,-0.8125 0.253906,-1.109374 -0.449219,0.585937 -0.207031,0.710937 -0.253906,1.109374 M 12.625,15.261719 c 0.08203,0.761719 -0.5625,1.054687 0.144531,0.554687 C 13.148438,14.945312 12.621094,15.574219 12.625,15.261719 M 24.949219,8.585938 C 25.300781,8.457031 25.8125,8.515625 26.1875,8.429688 c -0.488281,0.039062 -0.96875,0.066406 -1.449219,0.125 l 0.210938,0.03125 m 11.28125,14.234374 -0.07422,0.195313 c -0.140625,1.011719 -0.445312,2.011719 -0.90625,2.941406 0.511719,-0.980469 0.839844,-2.050781 0.980469,-3.136719 M 21.95703,25.980469 c -0.183593,-0.203125 -0.289062,-0.449219 -0.410156,-0.691407 0.117187,0.425782 0.351563,0.796876 0.570313,1.171876 L 21.95703,25.980469 m -0.808593,0.03125 -0.07422,0.371093 c 0.34375,0.472657 0.613281,0.984376 1.050781,1.351563 -0.316406,-0.621094 -0.546875,-0.878906 -0.976562,-1.722656 m 4.25,-17.015625 -0.191407,0.042968 0.179688,-0.019531 0.01563,-0.023437 M 33.144531,22.25 c 0.02734,0.800781 -0.226562,1.1875 -0.453125,1.875 l -0.410156,0.210938 c -0.335938,0.679687 0.03125,0.433593 -0.210938,0.972656 -0.523437,0.484375 -1.589843,1.519531 -1.933593,1.613281 -0.25,-0.0039 0.171875,-0.304687 0.226562,-0.421875 -0.703125,0.5 -0.566406,0.75 -1.640625,1.058594 l -0.03125,-0.07422 c -2.648437,1.296875 -6.332031,-1.273437 -6.28125,-4.78125 -0.03125,0.222656 -0.08203,0.167969 -0.140625,0.257813 -0.136719,-1.804688 0.800781,-3.617188 2.382813,-4.355469 1.546875,-0.796875 3.359375,-0.46875 4.46875,0.605469 C 28.511719,18.378906 27.300781,17.5 25.863281,17.582031 c -1.40625,0.02344 -2.722656,0.953125 -3.160156,1.964844 -0.71875,0.46875 -0.804687,1.816406 -1.117187,2.0625 -0.421876,3.230469 0.792968,4.625 2.851562,6.269531 0.324219,0.226563 0.09375,0.261719 0.136719,0.433594 -0.683594,-0.332031 -1.3125,-0.835938 -1.828125,-1.453125 0.277344,0.417969 0.570312,0.820313 0.953125,1.140625 -0.648438,-0.226562 -1.507813,-1.628906 -1.757813,-1.683594 1.109375,2.070313 4.507813,3.628906 6.289063,2.855469 -0.824219,0.03125 -1.871094,0.01953 -2.796875,-0.335937 -0.386719,-0.210938 -0.914063,-0.640626 -0.820313,-0.722657 2.429688,0.945313 4.9375,0.714844 7.039063,-1.035156 0.535156,-0.433594 1.117187,-1.171875 1.289062,-1.179687 -0.253906,0.394531 0.04297,0.191406 -0.152344,0.539062 0.53125,-0.890625 -0.234374,-0.363281 0.550782,-1.542969 l 0.289062,0.414063 c -0.109375,-0.742188 0.882813,-1.640625 0.785156,-2.816406 0.226563,-0.359376 0.253907,0.386718 0.01172,1.210937 0.332031,-0.914063 0.08594,-1.0625 0.171875,-1.816406 0.09375,0.253906 0.21875,0.523437 0.28125,0.792969 C 34.65625,21.792969 35.101562,21.1875 35.210938,20.671875 35.101562,20.625 34.875,21.0625 34.820312,20.019531 c 0.0078,-0.453125 0.121094,-0.238281 0.164063,-0.351562 -0.08203,-0.05078 -0.308594,-0.398438 -0.445313,-1.066407 0.09766,-0.15625 0.265626,0.40625 0.398438,0.429688 -0.08594,-0.53125 -0.234375,-0.933594 -0.242188,-1.339844 -0.394531,-0.859375 -0.136718,0.113282 -0.457031,-0.371094 -0.421875,-1.359374 0.347657,-0.316406 0.398438,-0.933593 0.636719,0.957031 1,2.445312 1.164062,3.058593 -0.125,-0.75 -0.332031,-1.476562 -0.582031,-2.179687 0.195312,0.08594 -0.3125,-1.542969 0.253906,-0.464844 -0.605468,-2.296875 -2.574218,-4.445312 -4.386718,-5.453125 0.222656,0.210938 0.503906,0.476563 0.402343,0.519532 -0.902343,-0.558594 -0.742187,-0.601563 -0.871093,-0.839844 -0.734376,-0.308594 -0.78125,0.02734 -1.269532,0 -1.382812,-0.761719 -1.648437,-0.679688 -2.921875,-1.160156 l 0.05859,0.285156 c -0.917969,-0.320313 -1.070313,0.117187 -2.058594,0 -0.0625,-0.05078 0.316407,-0.179688 0.628907,-0.226563 -0.886719,0.125 -0.847657,-0.179687 -1.714844,0.035157 0.214844,-0.15625 0.441406,-0.257813 0.667968,-0.390626 -0.722656,0.042969 -1.726562,0.4375 -1.414062,0.078126 -1.179688,0.546874 -3.273438,1.316406 -4.449219,2.460937 l -0.03516,-0.253906 c -0.539063,0.671875 -2.347656,2.007812 -2.492187,2.878906 l -0.144532,0.03516 c -0.28125,0.492188 -0.460937,1.050781 -0.683594,1.558594 -0.367187,0.648437 -0.535156,0.25 -0.484374,0.351563 -0.722657,1.519531 -1.078126,2.796874 -1.386719,3.84375 0.21875,0.34375 0.0039,2.0625 0.08594,3.4375 -0.359375,6.796874 4.585938,13.398437 9.996094,14.921874 0.792969,0.296876 1.972656,0.285157 2.976562,0.3125 -1.183593,-0.351562 -1.335937,-0.183593 -2.492187,-0.601562 -0.828125,-0.410156 -1.011719,-0.875 -1.601563,-1.40625 l 0.234376,0.429688 c -1.15625,-0.425782 -0.671876,-0.527344 -1.613282,-0.835938 l 0.25,-0.335938 c -0.371094,-0.03125 -0.988281,-0.65625 -1.160156,-1.003906 l -0.40625,0.01563 c -0.492188,-0.628906 -0.757812,-1.085937 -0.738281,-1.4375 l -0.128907,0.242188 c -0.152343,-0.265625 -1.8125,-2.367188 -0.949218,-1.878907 -0.160156,-0.148437 -0.375,-0.246093 -0.605469,-0.683593 l 0.175781,-0.207031 c -0.414062,-0.554688 -0.761718,-1.265626 -0.734375,-1.503907 0.21875,0.3125 0.371094,0.371094 0.523438,0.421875 -1.046875,-2.699218 -1.105469,-0.148437 -1.898438,-2.75 L 15,27.648438 c -0.128906,-0.203126 -0.207031,-0.421876 -0.308594,-0.636719 l 0.07422,-0.757813 c -0.753906,-0.90625 -0.210937,-3.851562 -0.101563,-5.46875 0.07422,-0.65625 0.628907,-1.359375 1.046876,-2.453125 l -0.253907,-0.04687 c 0.488281,-0.890625 2.796875,-3.574218 3.867188,-3.4375 0.519531,-0.675781 -0.101563,0 -0.203125,-0.171875 1.140625,-1.226562 1.496094,-0.867187 2.265625,-1.085937 0.828125,-0.511719 -0.710938,0.199218 -0.320313,-0.195313 1.433594,-0.378906 1.015625,-0.863281 2.886719,-1.058593 0.195313,0.117187 -0.460937,0.179687 -0.625,0.332031 1.195313,-0.609375 3.777344,-0.46875 5.457031,0.335937 1.945313,0.949219 4.132813,3.746094 4.21875,6.375 l 0.09766,0.02734 c -0.04687,1.046875 0.15625,2.257812 -0.199218,3.367188 L 33.14063,22.246095 M 24.847656,8.839844 c 0.277344,0.050781 0.601563,0.089844 0.554688,0.15625 0.304687,-0.066406 0.371094,-0.128906 -0.554688,-0.15625 m 5.785156,13.015625 c 0.0625,-0.953125 -0.183593,-0.652344 -0.265624,-0.289063 0.09375,0.05469 0.171874,0.671875 0.265624,0.289063 m -1.03125,2.726562 c 0.3125,-0.433593 0.535157,-0.910156 0.617188,-1.402343 -0.07031,0.351562 -0.257812,0.652343 -0.433594,0.972656 -0.96875,0.621094 -0.08984,-0.371094 0,-0.746094 -1.042968,1.335938 -0.144531,0.800781 -0.183594,1.175781 m -2.785156,0.707031 c -0.519531,0.0039 0.09766,0.269532 0.777344,0.378907 0.1875,-0.148438 0.355469,-0.300781 0.507812,-0.445313 -0.421874,0.105469 -0.851562,0.105469 -1.285156,0.06641"
       id="path2664-7" />
  </g>
</svg>
