<?xml version="1.0" encoding="UTF-8" standalone="no"?>
<svg
   width="48"
   height="48"
   version="1.1"
   id="svg4"
   sodipodi:docname="distributor-logo-lubuntu.svg"
   inkscape:version="1.4 (unknown)"
   xmlns:inkscape="http://www.inkscape.org/namespaces/inkscape"
   xmlns:sodipodi="http://sodipodi.sourceforge.net/DTD/sodipodi-0.dtd"
   xmlns="http://www.w3.org/2000/svg"
   xmlns:svg="http://www.w3.org/2000/svg">
  <defs
     id="defs4" />
  <sodipodi:namedview
     id="namedview4"
     pagecolor="#ffffff"
     bordercolor="#000000"
     borderopacity="0.25"
     inkscape:showpageshadow="2"
     inkscape:pageopacity="0.0"
     inkscape:pagecheckerboard="0"
     inkscape:deskcolor="#d1d1d1"
     inkscape:zoom="11.75"
     inkscape:cx="32"
     inkscape:cy="18.468085"
     inkscape:window-width="1920"
     inkscape:window-height="998"
     inkscape:window-x="0"
     inkscape:window-y="0"
     inkscape:window-maximized="1"
     inkscape:current-layer="svg4" />
  <g
     id="g4"
     transform="matrix(0.73660722,0,0,0.73684211,0.42856896,0.25263156)">
    <circle
       style="opacity:0.2"
       cx="32"
       cy="33"
       r="28"
       id="circle1" />
    <circle
       style="fill:#0068c8"
       cx="32"
       cy="32"
       r="28"
       id="circle2" />
    <path
       style="opacity:0.2"
       d="m 35.771484,14.999609 c -1.329743,-0.02783 -2.666024,0.354987 -3.779296,1.087891 -1.11018,0.729812 -1.993981,1.800465 -2.498047,3.03125 -0.504064,1.233877 -0.627116,2.616057 -0.345703,3.917968 0.28141,1.298818 0.961758,2.511563 1.929687,3.423829 -0.491695,-0.810215 -0.745764,-1.769377 -0.714844,-2.71875 0.02783,-0.949375 0.339686,-1.885585 0.88086,-2.667969 0.541174,-0.77929 1.315111,-1.399092 2.193359,-1.757813 0.878249,-0.358719 1.86101,-0.456703 2.794922,-0.277344 1.225115,0.231628 2.343605,0.954437 3.078125,1.960938 h 11.884765 l -9.486328,-2.041016 c -0.507158,-1.150381 -1.348478,-2.149907 -2.390625,-2.845703 -1.04524,-0.695795 -2.29135,-1.088541 -3.546875,-1.113281 z m -19.396484,2.375 c -1.521473,1.570952 -2.393554,3.751156 -2.375,5.9375 0.01801,2.150966 0.907136,4.276474 2.408203,5.816406 L 15.238281,28.76914 c -0.411292,1.570952 -0.285476,3.273937 0.351563,4.767578 0.640132,1.490548 1.788422,2.759446 3.210937,3.544922 1.085441,0.59993 2.322438,0.917969 3.5625,0.917969 1.240062,0 2.475105,-0.318039 3.560547,-0.917969 -0.998853,0.08968 -2.015144,-0.07455 -2.933594,-0.476562 -0.91845,-0.398923 -1.735356,-1.036464 -2.347656,-1.828125 -0.705073,-0.915357 -1.140788,-2.037118 -1.230469,-3.1875 L 30.673828,33.51914 19.369141,30.040625 c -0.008,-0.0084 -0.01748,-0.01503 -0.02539,-0.02344 -0.844232,-0.893711 -1.36898,-2.083994 -1.464844,-3.308594 -0.08968,-1.187491 0.221685,-2.400724 0.871094,-3.396484 l 13.0625,7.125 z m 21.775391,7.785156 c -0.674501,0.797423 -1.115979,1.788453 -1.257813,2.822266 -0.132378,0.977081 -6.39e-4,1.977822 0.257813,2.929687 0.258455,0.948713 0.64326,1.862548 1.021484,2.773438 0.378224,0.910891 0.754155,1.824281 1,2.779297 0.242695,0.955016 0.353351,1.960863 0.189453,2.93164 -0.274213,1.626365 -1.311908,3.073216 -2.664062,4.015625 -1.352152,0.942409 -3.001208,1.408462 -4.646485,1.515625 C 29.973698,45.062873 27.865907,44.639904 26,43.716406 L 26.046875,53.4 28.46875,48.583593 c 3.199152,0.936106 6.77602,0.475138 9.634766,-1.236328 1.443557,-0.863612 2.711227,-2.037801 3.59375,-3.46875 0.885675,-1.43095 1.373718,-3.118126 1.294922,-4.794922 -0.113468,-2.392269 -1.333809,-4.572418 -2.5,-6.662109 -1.169343,-2.08969 -2.345569,-4.305751 -2.361329,-6.701172 0,-0.18596 0.0069,-0.374586 0.01953,-0.560547 z"
       id="path2" />
    <path
       style="fill:#ffffff"
       d="m 35.771484,14 c -1.329743,-0.02783 -2.666024,0.354987 -3.779296,1.087891 -1.11018,0.729812 -1.993981,1.800465 -2.498047,3.03125 -0.504064,1.233877 -0.627116,2.616057 -0.345703,3.917968 0.28141,1.298818 0.961758,2.511563 1.929687,3.423829 -0.491695,-0.810215 -0.745764,-1.769377 -0.714844,-2.71875 0.02783,-0.949375 0.339686,-1.885585 0.88086,-2.667969 0.541174,-0.77929 1.315111,-1.399092 2.193359,-1.757813 0.878249,-0.358719 1.86101,-0.456703 2.794922,-0.277344 C 37.457537,18.27069 38.576027,18.993499 39.310547,20 H 51.195312 L 41.708984,17.958984 C 41.201826,16.808603 40.360506,15.809077 39.318359,15.113281 38.273119,14.417486 37.027009,14.02474 35.771484,14 Z M 16.375,16.375 c -1.521473,1.570952 -2.393554,3.751156 -2.375,5.9375 0.018,2.150852 0.907225,4.276454 2.408203,5.816406 l -1.169922,-0.359375 c -0.411292,1.570952 -0.285476,3.273937 0.351563,4.767578 0.640132,1.490548 1.788422,2.759446 3.210937,3.544922 C 19.886222,36.681961 21.123219,37 22.363281,37 c 1.240062,0 2.475105,-0.318039 3.560547,-0.917969 -0.998853,0.08968 -2.015144,-0.07455 -2.933594,-0.476562 -0.91845,-0.398923 -1.735356,-1.036464 -2.347656,-1.828125 -0.705073,-0.915357 -1.140788,-2.037118 -1.230469,-3.1875 l 11.261719,1.929687 -11.30664,-3.480469 c -0.0073,-0.0077 -0.01617,-0.01376 -0.02344,-0.02148 C 18.499518,28.123867 17.97477,26.933584 17.878906,25.708984 17.789226,24.521493 18.100591,23.30826 18.75,22.3125 l 13.0625,7.125 z m 21.775391,7.785156 c -0.674501,0.797423 -1.115979,1.788453 -1.257813,2.822266 -0.132378,0.977081 -6.39e-4,1.977822 0.257813,2.929687 0.258455,0.948713 0.64326,1.862548 1.021484,2.773438 0.378224,0.910891 0.754155,1.824281 1,2.779297 0.242695,0.955016 0.353351,1.960863 0.189453,2.93164 -0.274213,1.626365 -1.311908,3.073216 -2.664062,4.015625 -1.352152,0.942409 -3.001208,1.408462 -4.646485,1.515625 C 29.973698,44.063264 27.865907,43.640295 26,42.716797 l 0.04687,9.683594 2.421875,-4.816407 c 3.199152,0.936106 6.77602,0.475138 9.634766,-1.236328 1.443557,-0.863612 2.711227,-2.037801 3.59375,-3.46875 0.885675,-1.43095 1.373718,-3.118126 1.294922,-4.794922 -0.113468,-2.392269 -1.33381,-4.572418 -2.5,-6.662109 -1.169343,-2.08969 -2.345569,-4.305751 -2.361329,-6.701172 0,-0.18596 0.0069,-0.374586 0.01953,-0.560547 z"
       id="path3" />
    <path
       style="opacity:0.1;fill:#ffffff"
       d="M 32,4 A 28,28 0 0 0 4,32 28,28 0 0 0 4.0214844,32.585938 28,28 0 0 1 32,5 28,28 0 0 1 59.978516,32.414062 28,28 0 0 0 60,32 28,28 0 0 0 32,4 Z"
       id="path4" />
  </g>
</svg>
