<?xml version="1.0" encoding="UTF-8" standalone="no"?>
<svg
   width="48"
   height="48"
   preserveAspectRatio="xMidYMid"
   viewBox="0 0 48 48"
   version="1.1"
   id="svg4"
   sodipodi:docname="distributor-logo-MicroOS.svg"
   inkscape:version="1.2.2 (b0a8486541, 2022-12-01)"
   xmlns:inkscape="http://www.inkscape.org/namespaces/inkscape"
   xmlns:sodipodi="http://sodipodi.sourceforge.net/DTD/sodipodi-0.dtd"
   xmlns="http://www.w3.org/2000/svg"
   xmlns:svg="http://www.w3.org/2000/svg">
  <defs
     id="defs8" />
  <sodipodi:namedview
     id="namedview6"
     pagecolor="#ffffff"
     bordercolor="#000000"
     borderopacity="0.25"
     inkscape:showpageshadow="2"
     inkscape:pageopacity="0.0"
     inkscape:pagecheckerboard="0"
     inkscape:deskcolor="#d1d1d1"
     showgrid="false"
     inkscape:zoom="5.2149125"
     inkscape:cx="47.076533"
     inkscape:cy="45.925986"
     inkscape:window-width="1920"
     inkscape:window-height="1002"
     inkscape:window-x="0"
     inkscape:window-y="0"
     inkscape:window-maximized="1"
     inkscape:current-layer="svg4" />
  <rect
     style="fill:#1ba97f;fill-opacity:1;stroke-width:3.88082;stroke-linecap:round;stroke-linejoin:round"
     id="rect910"
     width="42"
     height="42"
     x="3"
     y="3"
     rx="20.999998"
     ry="20.999998" />
  <path
     fill="#173f4f"
     d="M 24,10 C 16.757594,10 10.777288,15.539404 10.071093,22.599999 H 2.9999936 a 1.4001403,1.40014 0 1 0 0,2.8 H 10.071093 C 10.777288,32.460597 16.757594,38 24,38 31.242406,38 37.22271,32.460597 37.928904,25.399999 h 7.071102 a 1.4001403,1.40014 0 1 0 0,-2.8 H 37.928904 C 37.22271,15.539404 31.242406,10 24,10 Z m 0,2.8 c 6.155438,0 11.114536,4.926072 11.18906,11.063275 a 1.4001403,1.40014 0 0 0 0,0.26796 C 35.11749,30.271041 30.157298,35.200001 24,35.200001 c -6.155446,0 -11.114536,-4.926073 -11.189064,-11.063278 a 1.4001403,1.40014 0 0 0 0,-0.26796 C 12.882506,17.728956 17.842699,12.8 24,12.8 Z m 0,5.6 c -3.076216,0 -5.599997,2.523781 -5.599997,5.599999 0,3.076222 2.523781,5.600002 5.599997,5.600002 3.076208,0 5.6,-2.52378 5.6,-5.600002 C 29.6,20.923781 27.076208,18.4 24,18.4 Z m 0,2.8 c 1.562974,0 2.8,1.237007 2.8,2.8 0,1.562991 -1.237026,2.799999 -2.8,2.799999 -1.56298,0 -2.8,-1.237008 -2.8,-2.799999 0,-1.562993 1.23702,-2.8 2.8,-2.8 z"
     id="path2-6"
     style="stroke-width:0.400354" />
</svg>
