<?xml version="1.0" encoding="UTF-8" standalone="no"?>
<svg
   width="48px"
   height="48px"
   viewBox="0 0 48 48"
   version="1.1"
   id="svg4164"
   sodipodi:docname="distributor-logo-pop-os.svg"
   inkscape:version="1.2.2 (b0a8486541, 2022-12-01)"
   xmlns:inkscape="http://www.inkscape.org/namespaces/inkscape"
   xmlns:sodipodi="http://sodipodi.sourceforge.net/DTD/sodipodi-0.dtd"
   xmlns="http://www.w3.org/2000/svg"
   xmlns:svg="http://www.w3.org/2000/svg">
  <defs
     id="defs4168" />
  <sodipodi:namedview
     id="namedview4166"
     pagecolor="#ffffff"
     bordercolor="#000000"
     borderopacity="0.25"
     inkscape:showpageshadow="2"
     inkscape:pageopacity="0.0"
     inkscape:pagecheckerboard="0"
     inkscape:deskcolor="#d1d1d1"
     showgrid="false"
     inkscape:zoom="4.9166667"
     inkscape:cx="15.152542"
     inkscape:cy="24.101695"
     inkscape:window-width="1920"
     inkscape:window-height="1002"
     inkscape:window-x="0"
     inkscape:window-y="0"
     inkscape:window-maximized="1"
     inkscape:current-layer="svg4164" />
  <g
     id="surface1"
     transform="matrix(0.96206156,0,0,0.96206156,1.0909091,1.0909091)">
    <path
       style="fill:#eeeeee;fill-opacity:1;fill-rule:nonzero;stroke:none"
       d="m 23.8125,1.984375 c 12.054688,0 21.828125,9.773437 21.828125,21.828125 0,12.054688 -9.773437,21.828125 -21.828125,21.828125 -12.054688,0 -21.828125,-9.773437 -21.828125,-21.828125 0,-12.054688 9.773437,-21.828125 21.828125,-21.828125 z m 0,0"
       id="path4153" />
    <path
       style="fill:#9cd9de;fill-opacity:1;fill-rule:nonzero;stroke:none"
       d="m 19.699219,35.425781 c -0.08984,-0.113281 -0.08594,-0.113281 0.02734,-0.02734 0.06641,0.05469 0.125,0.113281 0.125,0.125 0,0.05859 -0.05859,0.02344 -0.152343,-0.09766 z m 3.4375,-0.558593 c 0.0039,-0.08203 0.02344,-0.09766 0.04297,-0.04297 0.02344,0.05078 0.01953,0.113281 -0.0039,0.136719 -0.02344,0.02344 -0.03906,-0.01953 -0.03906,-0.09375 z m 0,-0.855469 c 0.0039,-0.08203 0.02344,-0.101563 0.04297,-0.04297 0.02344,0.05078 0.01953,0.113281 -0.0039,0.136719 -0.02344,0.02344 -0.03906,-0.01953 -0.03906,-0.09375 z m -2.949219,-8.3125 c 0.05078,-0.05078 0.105469,-0.07031 0.128906,-0.05078 0.02344,0.02344 -0.01953,0.0625 -0.08984,0.08984 -0.101562,0.03906 -0.109374,0.03125 -0.03906,-0.03906 z m 3.015625,-1.730469 c 0,-0.01563 0.05859,-0.07031 0.125,-0.125 0.113281,-0.08984 0.117187,-0.08594 0.02734,0.02734 -0.09375,0.117187 -0.152344,0.15625 -0.152344,0.09766 z m 1.214844,-1.214844 c 0,-0.01563 0.05469,-0.07031 0.125,-0.125 0.113281,-0.08594 0.113281,-0.08594 0.02344,0.02734 -0.08984,0.121094 -0.148437,0.15625 -0.148437,0.09766 z m -6.105469,-1.917968 -0.28125,-0.300782 0.304688,0.28125 c 0.28125,0.261719 0.335937,0.324219 0.28125,0.324219 -0.01172,0 -0.148438,-0.136719 -0.304688,-0.304687 z m 2.410156,-1.800782 c 0,-0.117187 0.01563,-0.15625 0.03516,-0.08594 0.01563,0.07031 0.01563,0.164062 -0.0039,0.214843 -0.01953,0.04688 -0.03516,-0.01172 -0.03125,-0.128906 z m -0.08203,-0.859375 c 0.0039,-0.08594 0.01953,-0.101562 0.04297,-0.04297 0.01953,0.05078 0.01953,0.113282 -0.0039,0.136719 -0.02344,0.02344 -0.04297,-0.01953 -0.03906,-0.09375 z m 6,-0.316406 c 0,-0.09766 0.01563,-0.136719 0.03516,-0.08984 0.01953,0.05078 0.01953,0.128907 0,0.179688 -0.01953,0.04687 -0.03516,0.0078 -0.03516,-0.08984 z m 0,-1.175781 c 0.0039,-0.117188 0.01953,-0.160156 0.03516,-0.08984 0.01953,0.07031 0.01953,0.167969 0,0.214844 -0.01953,0.04687 -0.03516,-0.0078 -0.03516,-0.125 z m -11.13672,-2.148438 c 0.0039,-0.08203 0.01953,-0.09766 0.04297,-0.04297 0.02344,0.05078 0.01953,0.113281 -0.0039,0.136718 -0.02344,0.02344 -0.04297,-0.01563 -0.03906,-0.09375 z m 3.410156,-0.152344 c -0.08984,-0.113281 -0.08594,-0.117187 0.02734,-0.02734 0.117188,0.09375 0.15625,0.152343 0.09766,0.152343 -0.01562,0 -0.07031,-0.05859 -0.125,-0.125 z m -0.566406,-0.644531 -0.171875,-0.195312 0.195313,0.171875 c 0.183594,0.164062 0.226562,0.222656 0.171875,0.222656 -0.01172,0 -0.101563,-0.08984 -0.195313,-0.199219 z m -2.84375,-0.05859 c 0.0039,-0.08203 0.01953,-0.101563 0.04297,-0.04297 0.02344,0.05078 0.01953,0.113281 -0.0039,0.136719 -0.02344,0.02344 -0.04297,-0.01953 -0.03906,-0.09375 z m 2.269532,-0.441407 c -0.08984,-0.109375 -0.08594,-0.113281 0.02734,-0.02344 0.117188,0.08984 0.15625,0.148437 0.09766,0.148437 -0.01563,0 -0.07031,-0.05469 -0.125,-0.125 z M 9.828125,12.222656 c 0.234375,-0.234375 0.4375,-0.425781 0.457031,-0.425781 0.01953,0 -0.152344,0.191406 -0.386718,0.425781 -0.234376,0.234375 -0.4375,0.429688 -0.457032,0.429688 -0.019531,0 0.152344,-0.195313 0.386719,-0.429688 z m 14.722656,-1.121094 c -0.08984,-0.113281 -0.08594,-0.117187 0.02734,-0.02734 0.06641,0.05078 0.125,0.109375 0.125,0.125 0,0.05859 -0.05859,0.01953 -0.152344,-0.09766 z M 23.480469,10.03125 c -0.08984,-0.113281 -0.08594,-0.117188 0.02734,-0.02734 0.117188,0.09375 0.15625,0.152344 0.09766,0.152344 -0.01563,0 -0.07031,-0.05859 -0.125,-0.125 z M 17.410156,8.179688 c 0.05469,-0.019532 0.113282,-0.019532 0.136719,0.00391 0.02734,0.027344 -0.01563,0.042968 -0.09375,0.039062 -0.08203,-0.00391 -0.09766,-0.019531 -0.04297,-0.042968 z m 1.785156,0 c 0.05078,-0.019532 0.113282,-0.019532 0.136719,0.00391 0.02344,0.027344 -0.01953,0.042968 -0.09375,0.039062 -0.08203,-0.00391 -0.101562,-0.019531 -0.04297,-0.042968 z m 0,0"
       id="path4155" />
    <path
       style="fill:#4cb5ab;fill-opacity:1;fill-rule:nonzero;stroke:none"
       d="m 27.632812,34.824219 c -0.84375,-0.363281 -1.160156,-1.589844 -0.636718,-2.4375 0.515625,-0.835938 1.523437,-1.097657 2.160156,-0.5625 0.113281,0.09375 0.277344,0.339843 0.367188,0.546875 0.136718,0.3125 0.15625,0.464844 0.128906,0.960937 -0.03906,0.730469 -0.273438,1.167969 -0.761719,1.425781 -0.359375,0.191407 -0.910156,0.21875 -1.257813,0.06641 z m 1.253907,-5.238281 c -0.707031,-0.199219 -0.746094,-3.03125 -0.105469,-8.144532 0.34375,-2.753906 0.511719,-3.480468 0.957031,-4.144531 0.285157,-0.425781 0.59375,-0.617187 1.21875,-0.75 1.078125,-0.226563 2.371094,0.05078 3.285157,0.707031 1.027343,0.734375 1.175781,1.339844 0.671874,2.761719 -0.496093,1.402344 -1.710937,3.835937 -3.089843,6.207031 -1.230469,2.105469 -1.945313,3.09375 -2.398438,3.308594 -0.261719,0.125 -0.277343,0.125 -0.539062,0.05469 z m 0,0"
       id="path4157" />
    <path
       style="fill:#4cb5ab;fill-opacity:1;fill-rule:nonzero;stroke:none"
       d="M 18.429688,6.699219 C 17.5,6.6875 16.546875,6.835938 15.589844,7.148438 13.226562,7.914062 9.660156,10.507812 8.929688,11.992188 8.71875,12.421875 8.6875,12.558594 8.691406,12.988281 c 0.00391,0.6875 0.128906,1.011719 1.15625,3.070313 2.835938,5.683594 6.222656,12.023437 8.0625,15.089844 1.589844,2.65625 2.21875,3.398437 3.105469,3.675781 0.398437,0.125 0.59375,0.125 1.035156,-0.0039 0.800781,-0.238281 1.125,-0.867187 1.0625,-2.058593 -0.04687,-0.914063 -0.07031,-0.984375 -1.636719,-5.039063 -0.707031,-1.824218 -1.289062,-3.359375 -1.296874,-3.414062 -0.0039,-0.05469 0.246093,-0.203125 0.601562,-0.359375 2.035156,-0.882813 3.71875,-2.417969 4.898438,-4.480469 0.722656,-1.253906 0.949218,-2.140625 0.949218,-3.722656 0,-2.085938 -0.488281,-3.789063 -1.523437,-5.34375 C 24.269531,9.144531 23.1875,8.179688 21.882812,7.535156 20.789062,6.992188 19.628906,6.714844 18.429688,6.699219 Z m -1.984376,4.472656 c 0.59375,0 1.144532,0.3125 1.933594,1.097656 1.078125,1.070313 1.804688,2.304688 2.164063,3.675781 0.234375,0.882813 0.265625,2.238282 0.07031,2.878907 -0.132812,0.4375 -0.445312,0.851562 -0.769531,1.019531 -0.269531,0.140625 -0.6875,0.125 -0.992188,-0.03516 -0.542968,-0.285156 -1.429687,-1.441406 -2.027343,-2.632813 -0.792969,-1.582031 -1.238281,-3.019531 -1.300781,-4.21875 -0.07031,-1.285156 0.1875,-1.785156 0.921874,-1.785156 z m 0,0"
       id="path4159" />
    <path
       style="fill:#4cb5ab;fill-opacity:1;fill-rule:nonzero;stroke:none"
       d="m 13.394531,37.703125 h 20.835938 c 0.820312,0 1.488281,0.667969 1.488281,1.488281 0,0.820313 -0.667969,1.488282 -1.488281,1.488282 H 13.394531 c -0.820312,0 -1.488281,-0.667969 -1.488281,-1.488282 0,-0.820312 0.667969,-1.488281 1.488281,-1.488281 z m 0,0"
       id="path4161" />
  </g>
</svg>
