<?xml version="1.0" encoding="UTF-8" standalone="no"?>
<svg
   width="48px"
   height="48px"
   viewBox="0 0 48 48"
   version="1.1"
   id="svg3164"
   sodipodi:docname="distributor-logo-deepin.svg"
   inkscape:version="1.2.2 (b0a8486541, 2022-12-01)"
   xmlns:inkscape="http://www.inkscape.org/namespaces/inkscape"
   xmlns:sodipodi="http://sodipodi.sourceforge.net/DTD/sodipodi-0.dtd"
   xmlns="http://www.w3.org/2000/svg"
   xmlns:svg="http://www.w3.org/2000/svg">
  <defs
     id="defs3168" />
  <sodipodi:namedview
     id="namedview3166"
     pagecolor="#ffffff"
     bordercolor="#000000"
     borderopacity="0.25"
     inkscape:showpageshadow="2"
     inkscape:pageopacity="0.0"
     inkscape:pagecheckerboard="0"
     inkscape:deskcolor="#d1d1d1"
     showgrid="false"
     inkscape:zoom="4.9166667"
     inkscape:cx="14.440678"
     inkscape:cy="24.101695"
     inkscape:window-width="1920"
     inkscape:window-height="1002"
     inkscape:window-x="0"
     inkscape:window-y="0"
     inkscape:window-maximized="1"
     inkscape:current-layer="svg3164" />
  <g
     id="surface1"
     transform="matrix(0.96194097,0,0,0.96194097,1.0937807,1.0937807)">
    <path
       style="fill:#3485fd;fill-opacity:1;fill-rule:nonzero;stroke:none"
       d="m 34.726562,4.910156 c 10.441407,6.027344 14.015626,19.375 7.988282,29.816406 C 36.6875,45.167969 23.339844,48.742188 12.898438,42.714844 2.457031,36.6875 -1.117188,23.339844 4.910156,12.898438 10.9375,2.457031 24.285156,-1.117188 34.726562,4.910156 Z m 0,0"
       id="path3159" />
    <path
       style="fill:#f5f5f5;fill-opacity:1;fill-rule:evenodd;stroke:none"
       d="m 17.246094,41.503906 c -1.175782,-0.433594 -2.273438,-0.980468 -3.308594,-1.605468 5.144531,0.398437 11.855469,-0.789063 16.382812,-5.027344 0,0 8.628907,-6.894532 2.386719,-18.210938 0,0 1.007813,4.5625 -0.277343,8.3125 0,0 -1.222657,5.277344 -6.664063,6.757813 C 17.757812,33.914062 8.628906,28.132812 4.8125,25.414062 4.523438,22.625 4.777344,19.738281 5.804688,16.921875 7.320312,12.75 10.433594,9.496094 13.917969,7.3125 c -0.871094,6.09375 -0.183594,11.703125 0.804687,14.054688 1.332032,3.152343 3.378906,7 7.882813,7.472656 4.503906,0.472656 6.988281,-3.917969 6.988281,-3.917969 2.3125,-3.511719 2.671875,-8.554687 2.636719,-8.675781 -0.03516,-0.121094 -0.613281,-0.457032 -0.613281,-0.457032 -1.558594,6.292969 -4.121094,8.398438 -4.121094,8.398438 -4.042969,3.902344 -7.253906,1.109375 -7.253906,1.109375 -3.078126,-3.308594 -0.925782,-8.679687 -0.925782,-8.679687 1.207032,-3.660157 5.066406,-8.933594 9.050782,-11.65625 0.660156,0.164062 1.328124,0.265624 1.984374,0.503906 2.410157,0.878906 4.519532,2.203125 6.304688,3.828125 -2.914062,1.066406 -7.613281,3.3125 -7.613281,3.3125 -7.449219,3.136719 -7.953125,7.882812 -7.953125,7.882812 -0.769532,4.890625 3.109375,2.820313 3.109375,2.820313 3.996093,-1.945313 5.957031,-8.007813 5.957031,-8.007813 -1.246094,-0.238281 -2.226562,0.140625 -2.226562,0.140625 -1.59375,3.933594 -4.847657,5.554688 -4.847657,5.554688 -1.28125,0.675781 -1.578125,-0.519532 -1.578125,-0.519532 -0.214844,-0.898437 0.925782,-1.050781 0.925782,-1.050781 1.773437,-0.6875 2.90625,-2.550781 3.164062,-3.3125 0.253906,-0.761719 0.730469,-0.824219 0.730469,-0.824219 4.433593,-2.886718 11.378906,-0.902343 15.1875,0.925782 1.691406,4.226562 1.957031,9.214844 0.28125,13.828125 C 38.179688,39.992188 27.1875,45.125 17.246094,41.503906 Z m 0,0"
       id="path3161" />
  </g>
</svg>
