<?xml version="1.0" encoding="UTF-8" standalone="no"?>
<svg
   height="48"
   width="48"
   version="1.1"
   id="svg25"
   sodipodi:docname="docker.svg"
   inkscape:version="1.3.1 (91b66b0783, 2023-11-16)"
   xmlns:inkscape="http://www.inkscape.org/namespaces/inkscape"
   xmlns:sodipodi="http://sodipodi.sourceforge.net/DTD/sodipodi-0.dtd"
   xmlns:xlink="http://www.w3.org/1999/xlink"
   xmlns="http://www.w3.org/2000/svg"
   xmlns:svg="http://www.w3.org/2000/svg">
  <defs
     id="defs29">
    <linearGradient
       inkscape:collect="always"
       id="linearGradient1417">
      <stop
         style="stop-color:#55bcf2;stop-opacity:1"
         offset="0"
         id="stop1413" />
      <stop
         style="stop-color:#1a80e2;stop-opacity:1"
         offset="1"
         id="stop1415" />
    </linearGradient>
    <linearGradient
       xlink:href="#1"
       id="0-6"
       y1="543.79797"
       x2="0"
       y2="503.798"
       gradientUnits="userSpaceOnUse"
       gradientTransform="translate(5.325e-4)" />
    <linearGradient
       id="1">
      <stop
         stop-color="#197cf1"
         id="stop3-3" />
      <stop
         offset="1"
         stop-color="#20bcfa"
         id="stop5-6" />
    </linearGradient>
    <linearGradient
       inkscape:collect="always"
       xlink:href="#linearGradient1417"
       id="linearGradient614"
       gradientUnits="userSpaceOnUse"
       gradientTransform="matrix(1.4439222,0,0,1.4439222,-0.460024,-0.63664618)"
       x1="17.249893"
       y1="29.643475"
       x2="17.249893"
       y2="3.0563629" />
    <clipPath
       clipPathUnits="userSpaceOnUse"
       id="clipPath1518">
      <path
         sodipodi:nodetypes="ccccsccccccccccccccsccccsccccccccccsccccscccccccccccsccccscccccc"
         id="path1520"
         d="m 24.50871,5.8844622 c -2.741607,0 -5.470924,0.548943 -8.010878,1.621463 -2.53998,1.072554 -4.859542,2.6516748 -6.8174348,4.6475258 -1.957644,1.995757 -3.525686,4.383345 -4.593207,7.010325 -1.064741,2.626367 -1.614087,5.459505 -1.614087,8.311166 0,2.852648 0.548049,5.685106 1.615446,8.312395 1.067458,2.627014 2.635499,5.014473 4.593207,7.010324 1.9577058,1.995701 4.2774868,3.574757 6.8174348,4.647527 2.481932,1.048078 5.145947,1.590844 7.82416,1.615445 0.06328,0.0023 0.123931,0.0037 0.186886,0.006 6.512212,0.308447 11.759387,-2.275831 15.599867,-6.027678 2.625286,-2.564727 4.687956,-5.59344 6.570232,-8.679961 1.882375,3.086521 3.944795,6.115325 6.570233,8.679961 3.84048,3.751911 9.087654,6.335993 15.599867,6.027678 0.06297,-0.0023 0.123591,-0.003 0.186898,-0.006 2.678116,-0.02268 5.336062,-0.567367 7.81799,-1.615445 2.539968,-1.072521 4.865708,-2.651675 6.823299,-4.647527 l 0.01172,-0.02419 c 1.94959,-1.992117 3.516738,-4.366987 4.581168,-6.986252 1.06474,-2.626364 1.61409,-5.459505 1.61409,-8.311167 0,-2.852674 -0.54808,-5.685411 -1.61544,-8.312394 l -0.0181,-0.03591 c -1.06772,-2.610924 -2.629345,-4.987306 -4.576735,-6.974823 -1.956662,-1.993693 -4.277492,-3.5738308 -6.81744,-4.6478328 -2.539949,-1.070917 -5.268163,-1.62026 -8.008713,-1.62026 -6.860954,0 -12.279413,2.821568 -16.280992,6.7449138 -2.314662,2.265279 -4.191073,4.857695 -5.891573,7.508746 -1.7005,-2.651059 -3.576914,-5.243475 -5.888492,-7.508753 C 36.785305,8.7040762 31.36592,5.8832822 24.505275,5.8832822 Z m -0.07235,6.1724218 c 5.473394,0 8.969453,1.961443 12.176023,5.207978 2.541865,2.573438 4.770664,6.074283 6.980085,9.891613 -2.521561,4.459881 -4.958616,8.533369 -7.697318,11.296147 -3.019117,3.045532 -6.14773,4.724988 -11.259728,4.430253 h -0.198905 c -1.949527,0 -3.914857,-0.411455 -5.708253,-1.1935 -1.769447,-0.771552 -3.402236,-1.917928 -4.749985,-3.321377 l -0.05425,-0.05424 C 12.566091,36.887905 11.473573,35.165801 10.745227,33.32025 10.01997,31.471608 9.6434522,29.459398 9.6434522,27.471877 c 0,-1.988414 0.3764858,-4.000653 1.1030718,-5.84682 0.726526,-1.84645 1.818457,-3.56149 3.176638,-4.991021 l 0.05425,-0.06028 c 1.347623,-1.403365 2.980443,-2.549763 4.749985,-3.32138 1.793087,-0.780809 3.755918,-1.191277 5.7064,-1.191277 z m 44.484631,0 c 1.949556,0 3.914849,0.411455 5.70825,1.1935 1.76942,0.771552 3.402229,1.917925 4.749978,3.321377 l 0.05431,0.06028 c 1.358181,1.429622 2.450109,3.144537 3.176629,4.991017 0.725272,1.845555 1.101781,3.857764 1.101781,5.845285 0,1.988474 -0.376478,4.000344 -1.10307,5.846825 -0.726531,1.846416 -1.818429,3.567348 -3.17664,4.996883 l -0.05431,0.05424 c -1.347628,1.403358 -2.980448,2.54973 -4.749989,3.321377 -1.793518,0.782045 -3.758687,1.193496 -5.708243,1.193496 h -0.198919 c -5.110756,0.293177 -8.240171,-1.385712 -11.258487,-4.4318 -2.737466,-2.762158 -5.175571,-6.835952 -7.697008,-11.295527 2.209731,-3.81764 4.437975,-7.320491 6.981007,-9.891303 3.206574,-3.24669 6.703249,-5.209524 12.175102,-5.209524 z"
         inkscape:connector-curvature="0"
         style="fill:#ffffff;stroke-width:3.08621" />
    </clipPath>
  </defs>
  <sodipodi:namedview
     id="namedview27"
     pagecolor="#ffffff"
     bordercolor="#666666"
     borderopacity="1.0"
     inkscape:showpageshadow="2"
     inkscape:pageopacity="0.0"
     inkscape:pagecheckerboard="0"
     inkscape:deskcolor="#d1d1d1"
     showgrid="false"
     inkscape:zoom="3.4766084"
     inkscape:cx="33.078215"
     inkscape:cy="83.846084"
     inkscape:window-width="1920"
     inkscape:window-height="994"
     inkscape:window-x="0"
     inkscape:window-y="0"
     inkscape:window-maximized="1"
     inkscape:current-layer="svg25">
    <inkscape:grid
       type="xygrid"
       id="grid803"
       originx="80"
       originy="15"
       spacingy="1"
       spacingx="1"
       units="px"
       visible="false" />
  </sodipodi:namedview>
  <linearGradient
     id="a"
     gradientUnits="userSpaceOnUse"
     x1="-20"
     x2="-20"
     xlink:href="#b"
     y1="44"
     y2="4"
     gradientTransform="matrix(1.0499999,0,0,1.0499999,-1.1999973,-1.1999973)" />
  <linearGradient
     id="b"
     gradientUnits="userSpaceOnUse"
     x2="0"
     y1="543.79999"
     y2="503.79999">
    <stop
       offset="0"
       stop-color="#197cf1"
       id="stop3" />
    <stop
       offset="1"
       stop-color="#20bcfa"
       id="stop5" />
  </linearGradient>
  <linearGradient
     id="c"
     gradientUnits="userSpaceOnUse"
     x1="19"
     x2="44"
     y1="19"
     y2="44"
     gradientTransform="matrix(1.0499999,0,0,1.0499999,-1.1999973,-1.1999973)">
    <stop
       offset="0"
       stop-color="#292c2f"
       id="stop8" />
    <stop
       offset="1"
       stop-color="#292c2f"
       stop-opacity="0"
       id="stop10" />
  </linearGradient>
  <rect
     style="fill:url(#linearGradient614);fill-opacity:1;stroke-width:3.88082;stroke-linecap:round;stroke-linejoin:round"
     id="rect849-3"
     width="42"
     height="42"
     x="3"
     y="2.9999995"
     rx="20.999998"
     ry="20.999998" />
  <path
     d="m 20.172531,14 v 2.99516 H 14.36758 v 2.995137 h -2.902467 v 2.995148 h -0.907017 c -0.298547,0.0068 -0.5782216,0.155998 -0.7558556,0.405582 0,0 -0.08318,0.105356 -0.12097,0.1872 -0.03792,0.08195 -0.06412,0.206689 -0.09049,0.311996 -0.05683,0.214516 -0.09078,0.456303 -0.09078,0.811204 0,0.686403 0.07953,1.446882 0.272096,2.215169 -0.08317,0.01948 -0.17381,0.04288 -0.241857,0.06246 h 0.272058 c 0.2003296,0.772179 0.5064216,1.548268 0.9372716,2.308753 0.01227,0.01965 0.01871,0.04312 0.03016,0.06253 0,0.01228 0,0.01958 0,0.03166 0.05655,0.241791 0.196523,0.452399 0.39305,0.592783 0.01225,0.01229 0.01879,0.01961 0.03011,0.03166 0.162552,0.233991 0.325018,0.464104 0.513984,0.686397 C 13.290362,32.572611 15.845141,34 19.477006,34 c 5.578177,0 10.40807,-2.371177 13.302977,-7.019879 h 4.897821 c -0.612247,-0.160754 -1.942552,-0.390891 -1.723349,-1.217682 -0.676491,0.807293 -1.927426,0.978885 -2.962949,0.842391 0.340136,-0.581083 0.657597,-1.193386 0.937261,-1.840777 1.602408,-0.09767 2.819324,-0.655186 3.507148,-1.341579 0.786092,-0.78388 1.027961,-1.684766 1.027961,-1.684766 0.10192,-0.374401 -0.01587,-0.776077 -0.302345,-1.02958 0,0 -1.462565,-1.056883 -3.567609,-0.842386 -0.721834,-1.989022 -2.237325,-2.964004 -2.237325,-2.964004 -0.200292,-0.120866 -0.434619,-0.167729 -0.665153,-0.124729 -0.155054,0.03526 -0.302336,0.109267 -0.423262,0.218401 0,0 -0.442178,0.405578 -0.786091,1.060777 -0.343907,0.655179 -0.653801,1.649665 -0.544212,2.901551 0.04175,0.460186 0.313677,0.865783 0.483767,1.310379 -0.120971,0.07801 -0.234308,0.167725 -0.393028,0.249585 -0.48754,0.245714 -1.152669,0.467986 -2.025685,0.467986 h -0.09068 V 19.990494 H 25.009986 V 14 Z m 1.934972,1.996778 h 0.967488 v 0.998382 h -0.967488 z m -5.804937,2.995146 h 0.967489 v 0.998373 h -0.967489 z m 2.902469,0 h 0.967496 v 0.998373 h -0.967496 z m 2.902468,0 h 0.967488 v 0.998373 h -0.967488 z m 10.007478,0.311996 c 0.347692,0.405562 0.725612,0.978863 0.876775,1.809552 0.04914,0.276893 0.207865,0.514777 0.438401,0.662984 0.23056,0.148166 0.510202,0.191115 0.770973,0.11701 0.87678,-0.245703 1.515481,-0.167708 1.96521,-0.03165 -0.05324,0.0662 -0.01865,0.05472 -0.09053,0.124709 -0.442175,0.440831 -1.182915,0.932233 -2.721067,0.873726 -0.408177,-0.01608 -0.782316,0.234006 -0.937259,0.623989 -0.434607,1.111505 -0.941036,2.109892 -1.541938,2.995168 -1.428549,0.573302 -4.606907,0.152072 -4.867682,-0.592774 -0.94482,1.142694 -3.858628,1.142694 -4.807203,0 -0.306119,0.877491 -4.716518,1.283083 -5.472372,0.155982 -0.608436,0.584997 -2.823099,0.974988 -4.081587,0.09375 -0.07951,-0.401647 -0.136014,-0.795563 -0.151228,-1.154354 H 28.00325 c 1.205578,0 2.176845,-0.335381 2.87223,-0.686397 0.347695,-0.17549 0.638701,-0.351003 0.846556,-0.499199 0.207855,-0.148166 0.381741,-0.280787 0.332588,-0.249576 0.238117,-0.144219 0.40439,-0.389991 0.453535,-0.670788 0.05324,-0.280791 -0.01218,-0.569371 -0.181415,-0.795576 -0.257012,-0.347074 -0.404407,-0.772169 -0.453539,-1.310357 -0.06044,-0.701995 0.09438,-1.10758 0.241873,-1.466378 z m -18.714876,2.683148 h 0.967475 v 0.998381 h -0.967475 z m 2.902461,0 h 0.967489 v 0.998382 h -0.967489 z m 2.902469,0 h 0.967496 v 0.998377 h -0.967496 z m 2.902468,0 h 0.967488 v 0.998381 h -0.967488 z m 2.902473,0 h 0.967494 v 0.998377 h -0.967494 z m -13.151822,4.9919 h 18.654419 c -2.547209,3.400756 -6.398279,5.023117 -11.035422,5.023117 -2.430074,0 -4.134506,-0.674683 -5.35144,-1.653561 2.055926,-0.07405 3.537394,-0.623998 3.537394,-0.623998 0.52531,-0.105346 0.873005,-0.627882 0.770969,-1.16998 -0.101901,-0.542085 -0.608464,-0.900886 -1.133784,-0.79559 -0.04175,0.0068 -0.0833,0.01965 -0.120988,0.03166 -0.05313,0.01608 -0.101891,0.03879 -0.151222,0.06224 0,0 -2.120171,0.717595 -4.625824,0.405592 -0.230517,-0.425085 -0.408147,-0.846277 -0.544194,-1.279176 z m 7.074783,0.187197 c -0.309893,0 -0.57446,0.269108 -0.57446,0.592779 0,0.319795 0.264557,0.592754 0.57446,0.592754 0.309882,0 0.544223,-0.273005 0.544223,-0.592754 0,-0.07801 -0.0021,-0.148173 -0.03017,-0.218414 -0.03777,0.07405 -0.124701,0.124701 -0.211632,0.124701 -0.128429,0 -0.211657,-0.1169 -0.211657,-0.249583 0,-0.08985 0.02256,-0.148169 0.09072,-0.187191 -0.06425,-0.02727 -0.109622,-0.06229 -0.181423,-0.06229 z"
     id="path1"
     style="fill:#ffffff;fill-opacity:1;stroke-width:0.982817" />
</svg>
