<?xml version="1.0" encoding="UTF-8" standalone="no"?>
<svg
   width="48"
   height="48"
   version="1.1"
   id="svg2"
   sodipodi:docname="eclipse-cdt.svg"
   inkscape:version="1.3.2 (091e20ef0f, 2023-11-25)"
   xmlns:inkscape="http://www.inkscape.org/namespaces/inkscape"
   xmlns:sodipodi="http://sodipodi.sourceforge.net/DTD/sodipodi-0.dtd"
   xmlns="http://www.w3.org/2000/svg"
   xmlns:svg="http://www.w3.org/2000/svg">
  <defs
     id="defs2" />
  <sodipodi:namedview
     id="namedview2"
     pagecolor="#ffffff"
     bordercolor="#999999"
     borderopacity="1"
     inkscape:showpageshadow="2"
     inkscape:pageopacity="0"
     inkscape:pagecheckerboard="0"
     inkscape:deskcolor="#d1d1d1"
     inkscape:zoom="6.2265625"
     inkscape:cx="21.841907"
     inkscape:cy="29.631117"
     inkscape:window-width="1920"
     inkscape:window-height="994"
     inkscape:window-x="0"
     inkscape:window-y="0"
     inkscape:window-maximized="1"
     inkscape:current-layer="svg2" />
  <g
     id="g2"
     transform="translate(-2,-2)">
    <rect
       width="42"
       height="42"
       x="5"
       y="5"
       fill="#f0f0f0"
       rx="21"
       ry="21"
       id="rect1"
       style="stroke-width:0.777778" />
    <path
       fill="#f49a2a"
       fill-rule="evenodd"
       d="m 22.956556,13.826222 c -6.744112,0 -12.173778,5.428889 -12.173778,12.173778 0,6.744889 5.428889,12.173778 12.173778,12.173778 0.344555,0 0.673555,-0.03578 1.014222,-0.06378 -6.261111,-0.519556 -11.159556,-5.715111 -11.159556,-12.110778 0,-6.401111 4.898445,-11.596666 11.159556,-12.110778 -0.340667,-0.03111 -0.668889,-0.06689 -1.014222,-0.06689"
       id="path1"
       style="stroke-width:0.777778" />
    <path
       d="m 27.856556,13.827778 a 12.173778,12.173778 0 0 0 -11.613,9.128 h 4.267666 a 8.1161111,8.1161111 0 0 1 7.518,-5.071889 8.1161111,8.1161111 0 0 1 6.558222,3.349889 l 3.290778,-2.389334 A 12.173778,12.173778 0 0 0 27.855778,13.827778 Z m 0.202222,6.085333 a 6.3108889,6.3108889 0 0 0 -1.828556,0.297111 6.181,6.181 0 0 0 -3.447889,2.745556 h 5.246889 a 3.0411111,3.0411111 0 0 1 2.514556,1.333889 l 2.621111,-1.868223 C 31.979556,20.820778 30.075556,19.885889 28.058778,19.913111 Z M 16.032,23.97 c -0.05444,0.336 -0.09489,0.674333 -0.121333,1.014222 h 4.074 C 20.029,24.642 20.095111,24.303667 20.183,23.97 Z m 6.268889,0 c -0.119,0.329778 -0.21,0.668889 -0.269111,1.014222 h 3.132889 c 0.132222,-0.373333 0.336777,-0.718666 0.602,-1.014222 z m 10.800222,0 v 1.014222 h -1.014222 v 2.029222 h 1.014222 v 1.014223 h 2.029222 v -1.014223 h 1.014223 V 24.984222 H 35.131111 V 23.97 Z m 5.072667,0 v 1.014222 h -1.014222 v 2.029222 h 1.014222 v 1.014223 H 40.203 v -1.014223 h 1.014222 V 24.984222 H 40.203 V 23.97 Z m -22.267,3.043444 c 0.03033,0.339889 0.07467,0.678223 0.132222,1.014223 h 4.137778 C 20.091222,27.694 20.029,27.354889 19.986222,27.013444 Z m 6.128889,0 c 0.05989,0.345334 0.150111,0.684445 0.269111,1.014223 h 3.461111 a 3.0434444,3.0434444 0 0 1 -0.603556,-1.014223 z m 8.510444,0.697667 a 3.0434444,3.0434444 0 0 1 -2.516889,1.331556 h -5.25 a 6.1817778,6.1817778 0 0 0 3.451,2.745555 C 28.786,32.602556 31.586,31.710444 33.164889,29.577 Z m -14.287778,1.331556 a 12.173,12.173 0 0 0 8.008778,8.533777 12.174556,12.174556 0 0 0 13.612667,-4.423222 l -3.29,-2.389333 A 8.1161111,8.1161111 0 0 1 28.03,34.114556 8.1161111,8.1161111 0 0 1 20.510444,29.041889 Z"
       style="stroke-width:0.777778;paint-order:normal;fill:#bc5fd3"
       id="path2" />
  </g>
</svg>
