<?xml version="1.0" encoding="UTF-8" standalone="no"?>
<svg
   width="48"
   height="48"
   version="1.1"
   viewBox="0 0 12.69975 12.69975"
   id="svg10"
   sodipodi:docname="fish.svg"
   inkscape:version="1.4 (unknown)"
   xmlns:inkscape="http://www.inkscape.org/namespaces/inkscape"
   xmlns:sodipodi="http://sodipodi.sourceforge.net/DTD/sodipodi-0.dtd"
   xmlns="http://www.w3.org/2000/svg"
   xmlns:svg="http://www.w3.org/2000/svg">
  <defs
     id="defs14">
    <linearGradient
       id="linearGradient963"
       x1="-6.1472001"
       x2="-6.1472001"
       y1="-137.82001"
       y2="-100.78"
       gradientTransform="matrix(0.074691,0,0,0.074691,4.6613076,15.266721)"
       gradientUnits="userSpaceOnUse">
      <stop
         stop-color="#ffbe14"
         offset="0"
         id="stop11" />
      <stop
         stop-color="#ff8214"
         offset="1"
         id="stop12" />
    </linearGradient>
    <linearGradient
       id="linearGradient32549"
       x1="-6.1472001"
       x2="-6.1472001"
       y1="-137.82001"
       y2="-100.78"
       gradientTransform="matrix(0.074691,0,0,0.074691,8.7158076,13.920823)"
       gradientUnits="userSpaceOnUse">
      <stop
         stop-color="#32b4ff"
         offset="0"
         id="stop3" />
      <stop
         stop-color="#3287ff"
         offset="1"
         id="stop4" />
    </linearGradient>
    <linearGradient
       id="linearGradient32551"
       x1="-6.1472001"
       x2="-6.1472001"
       y1="-140.25"
       y2="-98.292"
       gradientTransform="matrix(0.074691,0,0,0.074691,7.2389996,17.630221)"
       gradientUnits="userSpaceOnUse">
      <stop
         stop-color="#ff3c69"
         offset="0"
         id="stop5" />
      <stop
         stop-color="#ff462b"
         offset="1"
         id="stop6" />
    </linearGradient>
    <linearGradient
       id="linearGradient957"
       x1="-6.1472001"
       x2="-6.1472001"
       y1="-137.82001"
       y2="-100.78"
       gradientTransform="matrix(0.049218,0,0,0.049218,5.9751001,9.987721)"
       gradientUnits="userSpaceOnUse">
      <stop
         stop-color="#14dc78"
         offset="0"
         id="stop7" />
      <stop
         stop-color="#14a03c"
         offset="1"
         id="stop8" />
    </linearGradient>
    <linearGradient
       id="linearGradient961"
       x1="-6.1472001"
       x2="-6.1472001"
       y1="-137.82001"
       y2="-100.78"
       gradientTransform="matrix(0.049218,0,0,0.049218,8.9510572,13.441772)"
       gradientUnits="userSpaceOnUse">
      <stop
         stop-color="#dc28e6"
         offset="0"
         id="stop9" />
      <stop
         stop-color="#8c14e6"
         offset="1"
         id="stop10" />
    </linearGradient>
  </defs>
  <sodipodi:namedview
     id="namedview12"
     pagecolor="#ffffff"
     bordercolor="#666666"
     borderopacity="1.0"
     inkscape:showpageshadow="2"
     inkscape:pageopacity="0.0"
     inkscape:pagecheckerboard="0"
     inkscape:deskcolor="#d1d1d1"
     showgrid="false"
     inkscape:zoom="10.429825"
     inkscape:cx="21.045415"
     inkscape:cy="30.537425"
     inkscape:window-width="1920"
     inkscape:window-height="998"
     inkscape:window-x="0"
     inkscape:window-y="0"
     inkscape:window-maximized="1"
     inkscape:current-layer="svg10" />
  <rect
     transform="matrix(0,-1,-1,0,0,0)"
     x="-11.906013"
     y="-11.906015"
     width="11.112281"
     height="11.112281"
     rx="5.5562186"
     ry="5.5562186"
     fill="#4c627f"
     id="rect2"
     style="stroke-width:0.77779" />
  <rect
     transform="matrix(0,-1,-1,0,0,0)"
     x="-10.871563"
     y="-10.877778"
     width="9.055028"
     height="9.055028"
     rx="4.527514"
     ry="4.527514"
     id="rect4"
     style="fill:#303a49;fill-opacity:1;opacity:1" />
  <g
     id="g2"
     transform="matrix(0.20352163,0,0,0.20706114,-0.16688768,-7.3667752)">
    <path
       style="opacity:0.2"
       d="M 23,56 12,66.121094 v 2.927734 L 23,78 V 73.107422 L 15.423828,67.376953 23,60.892578 Z m 3,0 v 4.892578 L 33.576172,67.376953 26,73.107422 V 78 l 11,-8.951172 v -2.927734 z m 25,0 -11,10.121094 v 2.927734 L 51,78 V 73.107422 L 43.423828,67.376953 51,60.892578 Z"
       id="path2" />
    <path
       style="fill:#dc3545"
       d="M 23,77 12,68.049431 V 65.121673 L 23,55 v 4.893537 L 15.424743,66.376427 23,72.106465 Z"
       id="path3" />
    <path
       style="fill:#8660cb"
       d="M 26,72.106465 33.575257,66.376427 26,59.893537 V 55 l 11,10.121673 v 2.927758 L 26,77 Z"
       id="path4-6" />
    <path
       style="fill:#ffe71a;fill-opacity:1"
       d="M 51,77 40,68.049431 V 65.121673 L 51,55 v 4.893537 L 43.424743,66.376427 51,72.106465 Z"
       id="path5" />
    <path
       style="opacity:0.2;fill:#ffffff"
       d="M 23,55 12,65.121094 v 1 L 23,56 Z m 3,0 v 1 l 11,10.121094 v -1 z m 25,0 -11,10.121094 v 1 L 51,56 Z M 16.044922,66.845703 15.423828,67.376953 23,73.107422 v -1 z m 16.910156,0 L 26,72.107422 v 1 l 7.576172,-5.730469 z m 11.089844,0 -0.621094,0.53125 L 51,73.107422 v -1 z"
       id="path6" />
  </g>
</svg>
