<?xml version="1.0" encoding="UTF-8" standalone="no"?>
<svg
   width="48"
   height="48"
   version="1.1"
   id="svg1675"
   sodipodi:docname="nextcloud.svg"
   inkscape:version="1.2.2 (b0a8486541, 2022-12-01)"
   xmlns:inkscape="http://www.inkscape.org/namespaces/inkscape"
   xmlns:sodipodi="http://sodipodi.sourceforge.net/DTD/sodipodi-0.dtd"
   xmlns:xlink="http://www.w3.org/1999/xlink"
   xmlns="http://www.w3.org/2000/svg"
   xmlns:svg="http://www.w3.org/2000/svg">
  <sodipodi:namedview
     id="namedview1677"
     pagecolor="#ffffff"
     bordercolor="#666666"
     borderopacity="1.0"
     inkscape:showpageshadow="2"
     inkscape:pageopacity="0.0"
     inkscape:pagecheckerboard="0"
     inkscape:deskcolor="#d1d1d1"
     showgrid="false"
     inkscape:zoom="4.9166667"
     inkscape:cx="23.186441"
     inkscape:cy="24.508474"
     inkscape:window-width="1920"
     inkscape:window-height="1000"
     inkscape:window-x="0"
     inkscape:window-y="0"
     inkscape:window-maximized="1"
     inkscape:current-layer="svg1675" />
  <defs
     id="defs1649">
    <linearGradient
       id="linearGradient289"
       y1="543.8"
       y2="513.8"
       x2="0"
       gradientUnits="userSpaceOnUse"
       gradientTransform="matrix(1.125 0 0 1-51.07 0)">
      <stop
         stop-color="#197cf1"
         id="stop285"
         style="stop-color:#ffc299;stop-opacity:1;"
         offset="0" />
      <stop
         offset="1"
         stop-color="#20bcfa"
         id="stop287"
         style="stop-color:#ff99ff;stop-opacity:1;" />
    </linearGradient>
    <linearGradient
       id="a"
       y1="543.8"
       y2="513.8"
       x2="0"
       gradientUnits="userSpaceOnUse"
       gradientTransform="matrix(1.125 0 0 1-51.07 0)">
      <stop
         stop-color="#197cf1"
         id="stop1620" />
      <stop
         offset="1"
         stop-color="#20bcfa"
         id="stop1622" />
    </linearGradient>
    <linearGradient
       xlink:href="#a"
       id="b"
       y1="44"
       y2="11"
       x2="0"
       gradientUnits="userSpaceOnUse" />
    <linearGradient
       id="c"
       y1="10"
       y2="14"
       x2="0"
       gradientUnits="userSpaceOnUse">
      <stop
         stop-color="#1d1e1e"
         id="stop1626" />
      <stop
         offset="1"
         stop-color="#44484c"
         id="stop1628" />
    </linearGradient>
    <linearGradient
       xlink:href="#a"
       id="d"
       y1="14"
       y2="10"
       gradientUnits="userSpaceOnUse"
       x2="0" />
    <linearGradient
       xlink:href="#f"
       id="e"
       y1="516.79999"
       y2="503.79999"
       x2="0"
       gradientUnits="userSpaceOnUse"
       gradientTransform="translate(-26.000001,-52.010888)" />
    <linearGradient
       id="f"
       y1="18"
       y2="15"
       x2="0"
       gradientUnits="userSpaceOnUse">
      <stop
         stop-color="#c6cdd1"
         id="stop1633" />
      <stop
         offset="1"
         stop-color="#e0e5e7"
         id="stop1635" />
    </linearGradient>
    <linearGradient
       xlink:href="#f"
       id="g"
       y1="517.8"
       y2="514.8"
       x2="0"
       gradientUnits="userSpaceOnUse"
       gradientTransform="translate(-384.57,-499.8)" />
    <linearGradient
       id="h"
       y1="19"
       y2="3"
       x2="0"
       gradientUnits="userSpaceOnUse"
       gradientTransform="translate(15.28,-46.612595)">
      <stop
         stop-color="#7cbaf8"
         id="stop1639" />
      <stop
         offset="1"
         stop-color="#f4fcff"
         id="stop1641" />
    </linearGradient>
    <linearGradient
       id="i"
       y1="23"
       x1="16"
       y2="39"
       x2="32"
       gradientUnits="userSpaceOnUse"
       gradientTransform="translate(2.28,-64.612595)">
      <stop
         stop-color="#292c2f"
         id="stop1644" />
      <stop
         offset="1"
         stop-opacity="0"
         id="stop1646" />
    </linearGradient>
    <linearGradient
       xlink:href="#linearGradient289"
       id="linearGradient4151"
       gradientUnits="userSpaceOnUse"
       x1="24"
       y1="43.999989"
       x2="24.028341"
       y2="10.468202"
       gradientTransform="matrix(1.0499999,0,0,1.0499999,-1.1999937,-1.1999914)" />
    <linearGradient
       id="linearGradient4141">
      <stop
         style="stop-color:#ffccaa;stop-opacity:1"
         offset="0"
         id="stop7" />
      <stop
         style="stop-color:#ff9955;stop-opacity:1"
         offset="1"
         id="stop9" />
    </linearGradient>
    <linearGradient
       xlink:href="#f-6"
       id="e-3"
       y1="516.79999"
       y2="503.79999"
       x2="0"
       gradientUnits="userSpaceOnUse"
       gradientTransform="translate(-293.65475,-530.45193)" />
    <linearGradient
       id="f-6"
       y1="18"
       y2="15"
       x2="0"
       gradientUnits="userSpaceOnUse">
      <stop
         stop-color="#c6cdd1"
         id="stop1633-0" />
      <stop
         offset="1"
         stop-color="#e0e5e7"
         id="stop1635-6" />
    </linearGradient>
    <linearGradient
       id="h-8"
       y1="19"
       y2="3"
       x2="0"
       gradientUnits="userSpaceOnUse"
       gradientTransform="matrix(0.74285712,0,0,0.74285712,15.686177,14.785818)">
      <stop
         stop-color="#7cbaf8"
         id="stop1639-7"
         offset="0"
         style="stop-color:#ffffff;stop-opacity:1;" />
      <stop
         offset="1"
         stop-color="#f4fcff"
         id="stop1641-9" />
    </linearGradient>
  </defs>
  <g
     fill="#4c78b1"
     opacity="0.99"
     transform="matrix(1.0643817,0,0,1.0643817,-2.1756176,-5.1694635)"
     id="g226">
    <path
       d="M 44.322082,27.405077 A 19.729762,19.729765 0 0 1 24.59232,47.134842 19.729762,19.729765 0 0 1 4.8625579,27.405077 19.729762,19.729765 0 0 1 24.59232,7.6753138 19.729762,19.729765 0 0 1 44.322082,27.405077 Z"
       id="path222" />
    <path
       d="M 44.322082,27.405077 A 19.729762,19.729765 0 0 1 24.59232,47.134842 19.729762,19.729765 0 0 1 4.8625579,27.405077 19.729762,19.729765 0 0 1 24.59232,7.6753138 19.729762,19.729765 0 0 1 44.322082,27.405077 Z"
       id="path224" />
  </g>
  <g
     fill="#ffffff"
     id="g232"
     transform="matrix(0.92526377,0,0,0.92526377,1.9752314,1.7936695)">
    <path
       d="m 23.714844,12.75 c -6.195437,0 -11.250001,5.054564 -11.25,11.25 0,6.195436 5.054563,11.25 11.25,11.25 6.195436,0 11.25,-5.054564 11.25,-11.25 0,-6.195436 -5.054564,-11.25 -11.25,-11.25 z m 0,3 c 4.574116,0 8.25,3.675884 8.25,8.25 0,4.574116 -3.675884,8.25 -8.25,8.25 -4.574117,0 -8.25,-3.675884 -8.25,-8.25 0,-4.574116 3.675883,-8.25 8.25,-8.25 z"
       id="path228" />
    <path
       d="m 8.4121094,17.419922 c -3.8171459,0 -6.9335938,3.114495 -6.9335938,6.93164 0,3.817147 3.1164479,6.933594 6.9335938,6.933594 3.8171456,0 6.9316406,-3.116447 6.9316406,-6.933594 0,-3.817145 -3.114495,-6.93164 -6.9316406,-6.93164 z m 30.6074216,0 c -3.817146,0 -6.933593,3.114495 -6.933593,6.93164 0,3.817147 3.116447,6.933594 6.933593,6.933594 3.817146,0 6.931641,-3.116447 6.931641,-6.933594 0,-3.817145 -3.114495,-6.93164 -6.931641,-6.93164 z m -30.6074216,2 c 2.7362656,0 4.9316406,2.195375 4.9316406,4.93164 0,2.736267 -2.195375,4.933594 -4.9316406,4.933594 -2.7362656,0 -4.9335938,-2.197327 -4.9335938,-4.933594 0,-2.736264 2.1973282,-4.93164 4.9335938,-4.93164 z m 30.6074216,0 c 2.736266,0 4.931641,2.195375 4.931641,4.93164 0,2.736267 -2.195375,4.933594 -4.931641,4.933594 -2.736265,0 -4.933593,-2.197327 -4.933593,-4.933594 0,-2.736264 2.197328,-4.93164 4.933593,-4.93164 z"
       fill-opacity="0.579186"
       id="path230" />
  </g>
</svg>
