<?xml version="1.0" encoding="UTF-8" standalone="no"?>
<svg
   width="48"
   height="48"
   version="1.1"
   id="svg47"
   sodipodi:docname="lutris.svg"
   inkscape:version="1.2.2 (b0a8486541, 2022-12-01)"
   xmlns:inkscape="http://www.inkscape.org/namespaces/inkscape"
   xmlns:sodipodi="http://sodipodi.sourceforge.net/DTD/sodipodi-0.dtd"
   xmlns:xlink="http://www.w3.org/1999/xlink"
   xmlns="http://www.w3.org/2000/svg"
   xmlns:svg="http://www.w3.org/2000/svg">
  <sodipodi:namedview
     id="namedview49"
     pagecolor="#ffffff"
     bordercolor="#666666"
     borderopacity="1.0"
     inkscape:showpageshadow="2"
     inkscape:pageopacity="0.0"
     inkscape:pagecheckerboard="0"
     inkscape:deskcolor="#d1d1d1"
     showgrid="false"
     inkscape:zoom="4.9166667"
     inkscape:cx="22.779661"
     inkscape:cy="24.101695"
     inkscape:window-width="1920"
     inkscape:window-height="1000"
     inkscape:window-x="0"
     inkscape:window-y="0"
     inkscape:window-maximized="1"
     inkscape:current-layer="svg47" />
  <defs
     id="defs23">
    <linearGradient
       id="a"
       y1="37.23"
       x1="-3.139"
       y2="22.625"
       x2="-19.1"
       gradientUnits="userSpaceOnUse"
       gradientTransform="matrix(0.99317,0,0,0.97839,-32.525152,-26.540516)">
      <stop
         stop-color="#42a603"
         id="stop2" />
      <stop
         offset="1"
         stop-color="#78da06"
         id="stop4" />
    </linearGradient>
    <linearGradient
       id="b"
       y1="37.956"
       x1="-2.994"
       y2="-.883"
       x2="-41.26"
       gradientUnits="userSpaceOnUse"
       gradientTransform="matrix(0.99317,0,0,0.97839,-32.525152,-27.540431)">
      <stop
         stop-color="#34495e"
         id="stop7" />
      <stop
         offset="1"
         stop-color="#1c7865"
         id="stop9" />
    </linearGradient>
    <linearGradient
       id="c"
       y1="9.178"
       x1="-14.65"
       y2="17.522"
       x2="-6.43"
       gradientUnits="userSpaceOnUse"
       gradientTransform="translate(1.01-1.022)">
      <stop
         id="stop12" />
      <stop
         offset="1"
         stop-opacity="0"
         id="stop14" />
    </linearGradient>
    <linearGradient
       xlink:href="#c"
       id="d"
       y1="9.268"
       x1="-28.756"
       y2="27.436"
       x2="-10.858"
       gradientUnits="userSpaceOnUse"
       gradientTransform="matrix(0.99317,0,0,0.97839,50.975987,-39.168849)" />
    <linearGradient
       id="e"
       y1="-.883"
       x1="-41.26"
       y2="37.956"
       x2="-2.994"
       gradientUnits="userSpaceOnUse"
       gradientTransform="matrix(0.99317,0,0,0.97839,-33.528254,-27.540431)">
      <stop
         stop-color="#66b036"
         id="stop18" />
      <stop
         offset="1"
         stop-color="#239161"
         id="stop20" />
    </linearGradient>
    <filter
       id="filter1305"
       x="-0.060002353"
       y="-0.060002353"
       width="1.1200047"
       height="1.1200047"
       color-interpolation-filters="sRGB">
      <feGaussianBlur
         stdDeviation="0.61852427"
         id="feGaussianBlur5323" />
    </filter>
    <filter
       id="filter1030"
       x="-0.061720629"
       y="-0.058451215"
       width="1.1234413"
       height="1.1169024"
       color-interpolation-filters="sRGB">
      <feGaussianBlur
         stdDeviation="0.24897588"
         id="feGaussianBlur5326" />
    </filter>
    <linearGradient
       id="linearGradient958"
       x1="-272.20999"
       x2="-275.5"
       y1="44.527"
       y2="50.384998"
       gradientTransform="matrix(1.0901216,0,0,1.0901216,394.38734,-60.323969)"
       gradientUnits="userSpaceOnUse">
      <stop
         stop-color="#3650ae"
         offset="0"
         id="stop5329" />
      <stop
         stop-color="#388fc9"
         offset="1"
         id="stop5331" />
    </linearGradient>
    <filter
       id="filter1040"
       x="-0.066213406"
       y="-0.054852634"
       width="1.1324268"
       height="1.1097053"
       color-interpolation-filters="sRGB">
      <feGaussianBlur
         stdDeviation="0.2340379"
         id="feGaussianBlur5334" />
    </filter>
    <linearGradient
       id="linearGradient966"
       x1="-272.85999"
       x2="-267.62"
       y1="54.907001"
       y2="49.026001"
       gradientTransform="matrix(1.0901216,0,0,1.0901216,394.38734,-60.323969)"
       gradientUnits="userSpaceOnUse">
      <stop
         stop-color="#3491cb"
         offset="0"
         id="stop5337" />
      <stop
         stop-color="#3850bb"
         offset="1"
         id="stop5339" />
    </linearGradient>
    <filter
       id="filter1046"
       x="-0.047273067"
       y="-0.082104253"
       width="1.0945461"
       height="1.1642085"
       color-interpolation-filters="sRGB">
      <feGaussianBlur
         stdDeviation="0.22334751"
         id="feGaussianBlur5342" />
    </filter>
    <linearGradient
       id="linearGradient974"
       x1="-277.66"
       x2="-270.88"
       y1="59.727001"
       y2="58.222"
       gradientTransform="matrix(1.0901216,0,0,1.0901216,394.38734,-60.323969)"
       gradientUnits="userSpaceOnUse">
      <stop
         stop-color="#2fb1dc"
         offset="0"
         id="stop5345" />
      <stop
         stop-color="#3491cb"
         offset="1"
         id="stop5347" />
    </linearGradient>
    <filter
       id="filter1052"
       x="-0.061679681"
       y="-0.058409123"
       width="1.1233594"
       height="1.1168182"
       color-interpolation-filters="sRGB">
      <feGaussianBlur
         stdDeviation="0.24881069"
         id="feGaussianBlur5350" />
    </filter>
    <linearGradient
       id="linearGradient982"
       x1="-282.60999"
       x2="-278.76001"
       y1="54.153999"
       y2="62.018002"
       gradientTransform="matrix(1.0901216,0,0,1.0901216,394.38734,-60.323969)"
       gradientUnits="userSpaceOnUse">
      <stop
         stop-color="#30add9"
         offset="0"
         id="stop5353" />
      <stop
         stop-color="#329ed2"
         offset="1"
         id="stop5355" />
    </linearGradient>
    <filter
       id="filter1058"
       x="-0.066213588"
       y="-0.054852655"
       width="1.1324272"
       height="1.1097053"
       color-interpolation-filters="sRGB">
      <feGaussianBlur
         stdDeviation="0.23403799"
         id="feGaussianBlur5358" />
    </filter>
    <linearGradient
       id="linearGradient990"
       x1="-286.34"
       x2="-282.53"
       y1="57.278"
       y2="49.414001"
       gradientTransform="matrix(1.0901216,0,0,1.0901216,394.38734,-60.323969)"
       gradientUnits="userSpaceOnUse">
      <stop
         stop-color="#329fd2"
         offset="0"
         id="stop5361" />
      <stop
         stop-color="#2c80c1"
         offset="1"
         id="stop5363" />
    </linearGradient>
    <filter
       id="filter1064"
       x="-0.04727349"
       y="-0.082104264"
       width="1.094547"
       height="1.1642085"
       color-interpolation-filters="sRGB">
      <feGaussianBlur
         stdDeviation="0.22334755"
         id="feGaussianBlur5366" />
    </filter>
    <linearGradient
       id="linearGradient998"
       x1="-281.51001"
       x2="-282.54999"
       y1="43.16"
       y2="49.908001"
       gradientTransform="matrix(1.0901216,0,0,1.0901216,394.38734,-60.323969)"
       gradientUnits="userSpaceOnUse">
      <stop
         stop-color="#3857ba"
         offset="0"
         id="stop5369" />
      <stop
         stop-color="#367dc1"
         offset="1"
         id="stop5371" />
    </linearGradient>
    <filter
       id="filter1103"
       x="-0.05988692"
       y="-0.060124935"
       width="1.1197738"
       height="1.1202499"
       color-interpolation-filters="sRGB">
      <feGaussianBlur
         stdDeviation="0.60007942"
         id="feGaussianBlur5374" />
    </filter>
    <linearGradient
       id="linearGradient1098"
       x1="-272.20999"
       x2="-275.5"
       y1="44.527"
       y2="50.384998"
       gradientTransform="matrix(1.0901216,0,0,1.0901216,394.38734,-60.323969)"
       gradientUnits="userSpaceOnUse">
      <stop
         stop-color="#3851ba"
         offset="0"
         id="stop5377" />
      <stop
         stop-color="#348dc9"
         offset="1"
         id="stop5379" />
    </linearGradient>
    <filter
       id="filter1299"
       x="-0.030470268"
       y="-0.030470268"
       width="1.0609405"
       height="1.0609405"
       color-interpolation-filters="sRGB">
      <feGaussianBlur
         stdDeviation="0.18834042"
         id="feGaussianBlur5382" />
    </filter>
    <linearGradient
       id="linearGradient1227"
       x1="-228.53999"
       x2="-228.53999"
       y1="49.422001"
       y2="52.341999"
       gradientTransform="translate(237.02,-44.947)"
       gradientUnits="userSpaceOnUse">
      <stop
         stop-color="#fff"
         offset="0"
         id="stop5385" />
      <stop
         stop-color="#fff"
         stop-opacity="0"
         offset="1"
         id="stop5387" />
    </linearGradient>
    <filter
       id="filter1229"
       x="-0.069095556"
       y="-0.10709949"
       width="1.1381911"
       height="1.214199"
       color-interpolation-filters="sRGB">
      <feGaussianBlur
         stdDeviation="0.1347133"
         id="feGaussianBlur5390" />
    </filter>
    <filter
       id="filter636"
       x="-0.069095559"
       y="-0.10709949"
       width="1.1381911"
       height="1.2141989"
       color-interpolation-filters="sRGB">
      <feGaussianBlur
         stdDeviation="0.1347133"
         id="feGaussianBlur634" />
    </filter>
    <filter
       id="filter1251"
       x="-0.20800194"
       y="-0.28363517"
       width="1.4160039"
       height="1.5672703"
       color-interpolation-filters="sRGB">
      <feGaussianBlur
         stdDeviation="0.069956252"
         id="feGaussianBlur5393" />
    </filter>
    <filter
       id="filter1275"
       x="-0.059999751"
       y="-0.059999751"
       width="1.1199995"
       height="1.1199995"
       color-interpolation-filters="sRGB">
      <feGaussianBlur
         stdDeviation="0.04134033"
         id="feGaussianBlur5396" />
    </filter>
  </defs>
  <path
     style="opacity:0.2;stroke-width:0.736842"
     d="M 23.47724,3.7386679 C 12.683861,3.7289679 3.7907028,12.617473 3.5069728,23.82982 3.2184018,35.220139 11.922689,44.695019 22.947359,44.992823 c 5.371038,0.144981 9.563983,-1.915227 13.242222,-5.383429 0.392747,-0.32768 0.606441,-0.531897 0.606441,-0.531897 0,0 3.988718,-4.186342 4.202783,-7.641972 -1.017772,1.681431 -1.951369,3.364962 -4.484847,4.611778 -1.16189,0.538207 -2.226861,0.996119 -3.300172,1.357946 -0.06872,0.01749 -0.13773,0.03372 -0.207521,0.05037 -0.508376,0.121343 -1.041198,0.223265 -1.599716,0.300197 -0.06769,0.0093 -0.13717,0.01752 -0.205505,0.02619 -0.579255,0.07346 -1.17736,0.126958 -1.795147,0.153122 -0.06359,0.0027 -0.129493,0.0019 -0.193417,0.004 -0.609471,0.02085 -1.232808,0.01906 -1.865665,-0.006 -0.04129,-0.0016 -0.08154,-1.78e-4 -0.122906,-0.0021 -0.643579,-0.02855 -0.560061,-0.0869 -1.214127,-0.163195 -0.09334,-0.01091 -0.186649,-0.01835 -0.280051,-0.03022 -0.636687,-0.08091 -1.273121,-0.187796 -1.905959,-0.314301 -0.102244,-0.02044 -0.204284,-0.04084 -0.306243,-0.06245 -0.619289,-0.131423 -1.233024,-0.285669 -1.835443,-0.46138 -0.193146,-0.05634 -0.385571,-0.114372 -0.576221,-0.175284 -0.144082,-0.04604 -0.288685,-0.09035 -0.431157,-0.139013 -0.203602,-0.06954 -0.402496,-0.144715 -0.602413,-0.219609 -0.163054,-0.06108 -0.327249,-0.120694 -0.487571,-0.185357 -0.185782,-0.07494 -0.366268,-0.155983 -0.548013,-0.235726 -0.154028,-0.06758 -0.31051,-0.132454 -0.46138,-0.20349 -0.328475,-0.154675 -0.651355,-0.316437 -0.963053,-0.487572 -0.248062,-0.137214 -0.484145,-0.280887 -0.709194,-0.431158 -0.51683,-0.345097 -0.967902,-0.725457 -1.37205,-1.124234 -2.104056,-2.14717 -2.006369,-4.671843 -1.895885,-6.308203 0.139202,-2.055448 1.862468,-6.565153 7.533174,-8.953577 3.503697,-1.23711 7.624313,-2.10232 11.069073,-0.993274 2.591228,0.584655 4.454524,1.434801 6.918674,2.30488 0,0 -0.01994,0.04289 0.660839,0.211551 4.792264,0.759128 4.254334,-3.188816 4.254334,-3.188816 l -0.37563,-0.923894 v 0 c -0.0831,-0.486855 0.28158,-0.870819 0.28158,-0.870819 0,0 -0.29539,-1.088648 -0.2456,-1.80812 0.0505,-0.719141 0.01,-1.640948 -0.14708,-2.955647 -0.15681,-1.3148331 -1.01975,-2.4274651 -1.29952,-2.6318311 -0.28041,-0.203999 -1.586984,-1.189002 -2.838793,-1.680307 -1.252576,-0.491313 -2.518534,-0.854404 -4.077867,-0.634649 -0.173136,0.02448 -0.337016,0.05096 -0.507718,0.07656 -0.03023,-0.0096 -0.05394,-0.02052 -0.08664,-0.03022 -0.594612,-0.176587 -1.015228,-1.581862 -1.500993,-1.570223 -0.03718,8.91e-4 -0.07478,0.0041 -0.112825,0.0081 -0.03746,0.0039 -0.07632,0.0089 -0.114844,0.01612 h -0.0021 c -0.03926,0.0073 -0.0783,0.01721 -0.118867,0.02821 -0.0443,0.01202 -0.08698,0.02777 -0.126928,0.04634 -0.284276,0.132155 -0.458426,1.661557 -0.566103,1.987801 -2.494162,-1.260698 -5.28293,-2.001552 -8.24035,-2.081248 -0.172256,-0.0047 -0.34244,-0.0079 -0.513763,-0.0081 z M 34.466964,37.026474 c -0.366145,0.136463 -0.763599,0.251936 -1.172588,0.358629 0.408757,-0.106635 0.806687,-0.222265 1.172588,-0.358629 z"
     id="path1695" />
  <path
     style="fill:#f8952b;stroke-width:0.736842"
     d="M 26.341749,10.369132 A 15.473331,15.473331 0 0 0 10.868418,25.842462 15.473331,15.473331 0 0 0 26.341749,41.315791 15.473331,15.473331 0 0 0 41.815083,25.842462 15.473331,15.473331 0 0 0 26.341749,10.369132 Z"
     id="path1697" />
  <path
     style="fill:#946857;stroke-width:0.736842"
     d="m 26.032623,15.557996 c 1.916703,0.453528 2.124666,2.896358 3.666425,3.491261 2.057263,0.835669 2.232708,-1.780411 1.170547,-3.163742"
     id="path1699" />
  <path
     style="opacity:0.2;stroke-width:0.736842"
     d="m 32.18227,9.650445 c -2.158954,-0.0026 -4.499466,0.629163 -6.208862,1.223651 -3.241695,1.147117 -5.26298,2.075453 -7.889597,3.952551 -0.696491,0.505753 -3.433458,2.515357 -5.096473,5.317706 -4.5958162,8.125345 -1.344025,16.75289 4.599138,18.713275 6.534153,2.443634 12.788757,3.149401 20.655775,-3.803112 -0.677147,0.541925 0,0 -3.775808,1.967539 -4.450281,1.658539 -11.575532,1.125783 -16.854091,-1.772359 -4.246571,-2.349034 -3.820398,-5.807778 -3.681618,-7.863228 0.139202,-2.055448 1.567714,-6.565921 7.23842,-8.954345 3.503697,-1.23711 7.62358,-2.10226 11.068341,-0.993212 2.591229,0.584654 4.4538,1.642611 6.917948,2.51269 0,0 -0.02029,0.04224 0.660491,0.21092 4.792259,0.759028 4.947209,-3.45837 4.947209,-3.45837 l -0.13664,-0.768441 -0.41719,-1.042637 -0.19881,-0.446712 -0.11991,-0.242084 c 0,0 -0.0346,-0.304803 -0.083,-0.614502 -0.0918,1.157614 -0.55275,1.786177 -0.55275,1.786177 C 39.530161,14.669766 38.864426,11.458359 34.937202,10.110377 34.107178,9.783945 33.163609,9.651615 32.182267,9.650445 Z m 6.059981,25.404071 c 0.433837,-0.347202 0.644017,-0.584441 0.644081,-0.584281 -0.215443,0.201295 -0.429945,0.395039 -0.644081,0.584281 z"
     id="path1701" />
  <path
     style="fill:#946857;stroke-width:0.736842"
     d="M 23.47724,3.0009249 C 12.683861,2.9912249 3.7907028,11.87973 3.5069728,23.092076 c -0.288571,11.390319 8.4157162,20.8652 19.4403862,21.163004 5.371038,0.144981 9.563983,-1.915228 13.242222,-5.38343 0.392747,-0.32768 0.606441,-0.531897 0.606441,-0.531897 0,0 3.988718,-4.186342 4.202783,-7.641972 -1.017772,1.681432 -1.951369,3.364962 -4.484847,4.611778 -1.16189,0.538208 -2.226861,0.99612 -3.300172,1.357947 -0.06872,0.01749 -0.13773,0.03372 -0.207521,0.05037 -0.508376,0.121343 -1.041198,0.223265 -1.599716,0.300197 -0.06769,0.0093 -0.13717,0.01752 -0.205505,0.02619 -0.579255,0.07346 -1.17736,0.126958 -1.795147,0.153121 -0.06359,0.0027 -0.129493,0.0019 -0.193417,0.004 -0.609471,0.02085 -1.232808,0.01906 -1.865665,-0.006 -0.04129,-0.0016 -0.08154,-1.78e-4 -0.122906,-0.0021 -0.643579,-0.02855 -0.560061,-0.0869 -1.214127,-0.163194 -0.09334,-0.01091 -0.186649,-0.01835 -0.280051,-0.03023 -0.636687,-0.08091 -1.273121,-0.187796 -1.905959,-0.314301 -0.102244,-0.02044 -0.204284,-0.04084 -0.306243,-0.06245 -0.619289,-0.131423 -1.233024,-0.285669 -1.835443,-0.46138 -0.193146,-0.05634 -0.385571,-0.114372 -0.576221,-0.175284 -0.144082,-0.04604 -0.288685,-0.09035 -0.431157,-0.139013 -0.203602,-0.06954 -0.402496,-0.144715 -0.602413,-0.219609 -0.163054,-0.06108 -0.327249,-0.120695 -0.487571,-0.185358 -0.185782,-0.07494 -0.366268,-0.155983 -0.548013,-0.235726 -0.154028,-0.06758 -0.31051,-0.132454 -0.46138,-0.20349 -0.328475,-0.154675 -0.651355,-0.316437 -0.963053,-0.487572 -0.248062,-0.137214 -0.484145,-0.280887 -0.709194,-0.431158 -0.51683,-0.345097 -0.967902,-0.725456 -1.37205,-1.124233 -2.104056,-2.147171 -2.006369,-4.671844 -1.895885,-6.308204 0.139202,-2.055448 1.862468,-6.565153 7.533174,-8.953576 3.503697,-1.237111 7.624313,-2.102321 11.069073,-0.993275 2.591228,0.584656 4.454524,1.434802 6.918674,2.30488 0,0 -0.01994,0.04288 0.660839,0.211551 4.792264,0.759128 4.254334,-3.188816 4.254334,-3.188816 l -0.37563,-0.923893 v 0 c -0.0831,-0.486855 0.28158,-0.870818 0.28158,-0.870818 0,0 -0.29539,-1.088649 -0.2456,-1.808121 0.0505,-0.71914 0.01,-1.640948 -0.14708,-2.9556468 -0.15681,-1.3148233 -1.01975,-2.4274543 -1.29952,-2.6318223 -0.28041,-0.203999 -1.586984,-1.189001 -2.838793,-1.680307 -1.252576,-0.491312 -2.518534,-0.854403 -4.077867,-0.634648 -0.173136,0.02448 -0.337016,0.05096 -0.507718,0.07656 -0.03023,-0.0096 -0.05394,-0.02052 -0.08664,-0.03022 -0.594612,-0.176587 -1.015228,-1.581862 -1.500993,-1.570224 -0.03718,8.92e-4 -0.07478,0.0041 -0.112825,0.0081 -0.03746,0.0039 -0.07632,0.0089 -0.114844,0.01612 h -0.0021 c -0.03926,0.0073 -0.0783,0.01721 -0.118867,0.02821 -0.0443,0.01203 -0.08698,0.02777 -0.126928,0.04634 -0.284276,0.132154 -0.458426,1.661557 -0.566103,1.987801 -2.494162,-1.260699 -5.28293,-2.001553 -8.24035,-2.081248 -0.172256,-0.0047 -0.34244,-0.0079 -0.513763,-0.0081 z M 34.466964,36.28873 c -0.366145,0.136464 -0.763599,0.251937 -1.172588,0.35863 0.408757,-0.106635 0.806687,-0.222265 1.172588,-0.35863 z"
     id="path1703" />
  <path
     style="opacity:0.2;fill:#ffffff;stroke-width:0.736842"
     d="M 23.478202,3.0000079 C 12.684822,2.9903079 3.7894848,11.880996 3.5057548,23.093343 c -0.0043,0.168984 0.0061,0.334305 0.01151,0.500823 C 3.9195408,12.493992 12.761114,3.7272409 23.478199,3.7368499 c 0.171323,1.62e-4 0.34008,0.004 0.512336,0.0086 2.95742,0.0797 5.746379,0.820305 8.240541,2.081003 0.107677,-0.326244 0.28283,-1.853866 0.567023,-1.986019 0.03995,-0.01857 0.08235,-0.03691 0.126645,-0.04893 0.04057,-0.011 0.07875,-0.01858 0.118009,-0.0259 h 0.0029 c 0.03852,-0.0072 0.07767,-0.01335 0.115132,-0.01727 0.03805,-0.004 0.07507,-0.0077 0.112253,-0.0086 0.485765,-0.01164 0.904976,1.394959 1.499589,1.571546 0.0327,0.0097 0.059,0.01919 0.08923,0.02878 0.170703,-0.0256 0.333443,-0.05035 0.506579,-0.07484 1.559334,-0.219755 2.82596,0.141911 4.078535,0.633223 1.25181,0.491306 2.557589,1.476922 2.837989,1.680921 0.27977,0.204367 1.14418,1.315962 1.30099,2.6307561 0.092,0.771583 0.13985,1.396166 0.15687,1.935649 0.0245,-0.677296 -0.0192,-1.518463 -0.15687,-2.6724908 -0.15684,-1.3147933 -1.02124,-2.4263883 -1.30101,-2.6307553 -0.28041,-0.203999 -1.586184,-1.189615 -2.837994,-1.680921 -1.252575,-0.491312 -2.519201,-0.852978 -4.078535,-0.633223 -0.173136,0.02448 -0.335876,0.04923 -0.506579,0.07484 -0.03023,-0.0096 -0.05653,-0.01909 -0.08923,-0.02878 -0.594613,-0.176587 -1.013824,-1.583185 -1.499589,-1.571546 -0.03718,8.91e-4 -0.0742,0.0046 -0.112253,0.0086 -0.03746,0.0039 -0.07661,0.01008 -0.115132,0.01727 h -0.0029 c -0.03926,0.0073 -0.07744,0.0149 -0.118009,0.0259 -0.0443,0.01203 -0.08669,0.03036 -0.126645,0.04893 -0.284168,0.132158 -0.459321,1.65978 -0.566998,1.986024 -2.494162,-1.260698 -5.283121,-2.001308 -8.240541,-2.081003 -0.172256,-0.0047 -0.341013,-0.0085 -0.512336,-0.0086 z m 20.266031,9.8279181 c -5.6e-4,0.01892 -7.6e-4,0.03747 -0.001,0.05613 0.008,0.245739 0.008,0.472996 0.001,0.682155 0.0195,0.319016 0.0571,0.595121 0.11082,0.860608 0.064,-0.108788 0.12232,-0.189967 0.12232,-0.189967 0,0 -0.19259,-0.742764 -0.23314,-1.408922 z m -0.001,0.794408 c -0.003,0.0943 -0.004,0.195623 -0.0101,0.283511 -0.007,0.09781 0.01,0.211531 0.0144,0.318051 0.004,-0.185751 0.002,-0.387758 -0.004,-0.601562 z m 0.21156,2.122738 c -0.0405,0.04481 -0.33683,0.381799 -0.25905,0.837582 l 0.0763,0.188528 c 0.0711,-0.159019 0.16156,-0.265782 0.18277,-0.289268 l 0.11226,0.273437 c 0.0423,-0.417942 0.006,-0.72245 0.006,-0.72245 z m -30.33469,12.83429 c -0.01814,0.343859 -0.02452,0.719741 -0.01295,1.111019 0.004,-0.125541 0.0067,-0.255007 0.01295,-0.374177 0.09918,1.383246 0.520881,2.961963 1.911183,4.380756 0.404149,0.398777 0.856114,0.780314 1.372944,1.125411 0.225049,0.150271 0.459997,0.29165 0.70806,0.428865 0.311697,0.171134 0.63575,0.334634 0.964226,0.489309 0.15087,0.07104 0.306499,0.136775 0.460527,0.204359 0.181744,0.07974 0.361094,0.158204 0.546874,0.233141 0.160324,0.06466 0.326255,0.126012 0.48931,0.187089 0.199916,0.07489 0.397961,0.149206 0.601562,0.21875 0.142473,0.04866 0.287661,0.09212 0.431743,0.138157 0.19065,0.06091 0.382512,0.119237 0.575658,0.175576 0.602419,0.17571 1.217059,0.331982 1.836348,0.463404 0.10196,0.02162 0.202854,0.04001 0.305099,0.06045 0.632838,0.126505 1.268741,0.235706 1.905427,0.316611 0.0934,0.01188 0.188729,0.01788 0.282072,0.02878 0.654065,0.07629 0.568181,0.135518 1.21176,0.164063 0.04137,0.0019 0.08247,-0.0016 0.123766,0 0.632858,0.02516 1.255661,0.02949 1.865132,0.0086 0.06393,-0.0021 0.129256,-0.0031 0.192845,-0.0058 0.617788,-0.02617 1.216797,-0.07909 1.796052,-0.152549 0.06833,-0.0087 0.139551,-0.01662 0.207237,-0.02591 0.558518,-0.07693 1.089075,-0.177999 1.597451,-0.299342 0.06979,-0.01665 0.138519,-0.03432 0.207237,-0.05181 1.07331,-0.361827 2.139506,-0.820344 3.301397,-1.358553 2.391941,-1.177161 3.35473,-2.744036 4.311677,-4.330385 0.08517,-0.342475 0.152009,-0.683493 0.172697,-1.017475 -1.01777,1.681432 -1.950897,3.364202 -4.484374,4.611018 -1.161891,0.538209 -2.228087,0.996726 -3.301397,1.358553 -0.06872,0.01749 -0.137451,0.03516 -0.207237,0.05181 -0.508376,0.121343 -1.038933,0.22241 -1.597451,0.299342 -0.06769,0.0093 -0.138909,0.01724 -0.207237,0.02591 -0.579255,0.07346 -1.178264,0.126383 -1.796052,0.152549 -0.06359,0.0027 -0.128918,0.0037 -0.192845,0.0058 -0.609471,0.02085 -1.232274,0.01652 -1.865132,-0.0086 -0.04129,-0.0016 -0.0824,0.0019 -0.123766,0 -0.643579,-0.02855 -0.557695,-0.08777 -1.21176,-0.164062 -0.09334,-0.01091 -0.18867,-0.01691 -0.282072,-0.02878 -0.636686,-0.08091 -1.272589,-0.190106 -1.905427,-0.316611 -0.102245,-0.02044 -0.203139,-0.03883 -0.305099,-0.06045 -0.619289,-0.131422 -1.233929,-0.287694 -1.836348,-0.463404 -0.193146,-0.05634 -0.385008,-0.114667 -0.575658,-0.175576 -0.144082,-0.04604 -0.28927,-0.0895 -0.431743,-0.138157 -0.203601,-0.06954 -0.401646,-0.143862 -0.601562,-0.21875 -0.163055,-0.06108 -0.328986,-0.122427 -0.48931,-0.187089 -0.18578,-0.07494 -0.36513,-0.153399 -0.546874,-0.233141 C 18.883015,35.140483 18.727386,35.07474 18.576516,35.003704 18.24804,34.849029 17.923987,34.685529 17.61229,34.514395 17.364227,34.37718 17.129279,34.235801 16.90423,34.08553 16.3874,33.740433 15.935435,33.358896 15.531286,32.960119 14.140984,31.541326 13.719279,29.962609 13.620103,28.579362 Z"
     id="path1705" />
  <path
     style="fill:#d3c9c6;stroke-width:0.736842"
     d="m 32.18227,8.9166089 c -2.158954,-0.0026 -4.499466,0.6291641 -6.208862,1.2236511 -3.241695,1.147118 -5.26298,2.075454 -7.889597,3.952552 -0.696491,0.505753 -3.433458,2.515357 -5.096473,5.317706 -4.5958162,8.125345 -1.344025,16.75289 4.599138,18.713274 6.534153,2.443635 12.788757,3.149402 20.655775,-3.803112 -0.677147,0.541925 0,0 -3.775808,1.967541 -4.450281,1.658537 -11.575532,1.125781 -16.854091,-1.77236 -4.246571,-2.349034 -3.820398,-5.807778 -3.681618,-7.863229 0.139202,-2.055447 1.567714,-6.56592 7.23842,-8.954344 3.503697,-1.237111 7.62358,-2.10226 11.068341,-0.993213 2.591229,0.584655 4.4538,1.642612 6.917948,2.512691 0,0 -0.02029,0.04224 0.660491,0.210919 4.792259,0.759029 4.947209,-3.45837 4.947209,-3.45837 l -0.13664,-0.76844 -0.41719,-1.042638 -0.19881,-0.446711 -0.11991,-0.242086 c 0,0 -0.0346,-0.304801 -0.083,-0.614501 -0.0918,1.157614 -0.55275,1.786178 -0.55275,1.786178 C 39.530164,13.935931 38.864429,10.724524 34.937205,9.3765409 34.107181,9.0501089 33.163612,8.9177799 32.18227,8.9166089 Z M 38.242251,34.32068 c 0.433837,-0.347201 0.644017,-0.584441 0.644081,-0.58428 -0.215443,0.201295 -0.429945,0.395038 -0.644081,0.58428 z"
     id="path1707" />
  <path
     style="fill:#946857;stroke-width:0.736842"
     d="m 12.368878,19.370055 -0.02236,0.184069 c 1.498746,-0.07594 3.33563,0.248828 4.698219,1.204527 1.056404,0.713182 2.008037,1.777517 3.362498,1.295996 0.926005,-0.324748 0.977458,-0.874665 0.6225,-1.778921 -0.29975,-0.735232 -0.795239,-2.004846 -1.407947,-2.491617 -0.882653,-0.698486 -3.16447,-0.454575 -3.278951,-1.915242 -0.08603,-0.69044 0.348861,-1.209756 0.734641,-1.712978 -7.12e-4,0 -4.418678,1.110725 -4.708605,5.214166 z"
     id="path1709" />
  <path
     style="opacity:0.2;stroke-width:0.736842"
     d="m 43.326633,15.526316 c 0,0 -0.16979,0.535375 -0.96703,0.582355 -0.79694,0.0476 -0.6591,1.155879 0.032,1.776384 0.69136,0.620823 1.23205,0.791085 1.69285,0.314669 0.46018,-0.47547 1.59042,-1.264343 -0.75777,-2.673408 z"
     id="path1711" />
  <path
     style="fill:#3f3f3f;stroke-width:0.736842"
     d="m 43.326633,14.789479 c 0,0 -0.16979,0.535375 -0.96703,0.582354 -0.79694,0.0476 -0.6591,1.15588 0.032,1.776385 0.69136,0.620823 1.23205,0.791085 1.69285,0.31467 0.46018,-0.475471 1.59042,-1.264345 -0.75777,-2.673409 z"
     id="path1713" />
  <path
     style="opacity:0.2;stroke-width:0.736842"
     d="m 38.556918,13.49099 c -0.501223,0.639547 -1.427199,0.749635 -2.068678,0.247421 -0.641479,-0.504787 -0.756366,-1.431156 -0.25478,-2.071071 0.500138,-0.638443 1.426838,-0.748901 2.067957,-0.245952 0.641841,0.504053 0.755278,1.430054 0.255501,2.069602 z"
     id="path1715" />
  <path
     style="fill:#3f3f3f;stroke-width:0.736842"
     d="m 38.556918,12.754152 c -0.501223,0.639546 -1.427199,0.749635 -2.068678,0.247423 -0.641479,-0.504788 -0.756366,-1.431157 -0.25478,-2.071073 0.500138,-0.638443 1.426838,-0.7489 2.067957,-0.245951 0.641841,0.504053 0.755278,1.430053 0.255501,2.069601 z"
     id="path1717" />
  <path
     style="opacity:0.2;stroke-width:0.736842"
     d="m 44.354213,14.310649 c -0.0434,0.568423 -0.40509,0.995107 -0.80746,0.952033 -0.40204,-0.04196 -0.69265,-0.536025 -0.64828,-1.105551 0.0437,-0.567686 0.40475,-0.994002 0.80679,-0.951665 0.40203,0.04344 0.69264,0.537129 0.64895,1.105183 z"
     id="path1719" />
  <path
     style="fill:#3f3f3f;stroke-width:0.736842"
     d="m 44.354213,12.836965 c -0.0434,0.568423 -0.40509,0.995107 -0.80746,0.952034 -0.40204,-0.04196 -0.69265,-0.536026 -0.64828,-1.105552 0.0437,-0.567686 0.40475,-0.994002 0.80679,-0.951665 0.40203,0.04344 0.69264,0.537129 0.64895,1.105183 z"
     id="path1721" />
</svg>
