<?xml version="1.0" encoding="UTF-8" standalone="no"?>
<svg
   width="48"
   height="48"
   viewBox="0 0 48 48"
   version="1.1"
   id="svg30"
   sodipodi:docname="pulseeffects.svg"
   inkscape:version="1.3.2 (091e20ef0f, 2023-11-25)"
   xmlns:inkscape="http://www.inkscape.org/namespaces/inkscape"
   xmlns:sodipodi="http://sodipodi.sourceforge.net/DTD/sodipodi-0.dtd"
   xmlns:xlink="http://www.w3.org/1999/xlink"
   xmlns="http://www.w3.org/2000/svg"
   xmlns:svg="http://www.w3.org/2000/svg">
  <sodipodi:namedview
     id="namedview32"
     pagecolor="#ffffff"
     bordercolor="#666666"
     borderopacity="1.0"
     inkscape:showpageshadow="2"
     inkscape:pageopacity="0.0"
     inkscape:pagecheckerboard="0"
     inkscape:deskcolor="#d1d1d1"
     showgrid="true"
     inkscape:zoom="13.906433"
     inkscape:cx="25.815391"
     inkscape:cy="25.383936"
     inkscape:window-width="1920"
     inkscape:window-height="996"
     inkscape:window-x="0"
     inkscape:window-y="0"
     inkscape:window-maximized="1"
     inkscape:current-layer="svg30">
    <inkscape:grid
       id="grid1"
       units="px"
       originx="0"
       originy="0"
       spacingx="1"
       spacingy="1"
       empcolor="#0099e5"
       empopacity="0.30196078"
       color="#0099e5"
       opacity="0.14901961"
       empspacing="5"
       dotted="false"
       gridanglex="30"
       gridanglez="30"
       visible="true" />
  </sodipodi:namedview>
  <defs
     id="defs18">
    <linearGradient
       id="linearGradient1"
       inkscape:collect="always">
      <stop
         style="stop-color:#00ebfa;stop-opacity:1;"
         offset="0"
         id="stop1" />
      <stop
         style="stop-color:#0c89ca;stop-opacity:1;"
         offset="1"
         id="stop3" />
    </linearGradient>
    <linearGradient
       id="linearGradient4146">
      <stop
         style="stop-color:#e4f2f6;stop-opacity:1;"
         offset="0"
         id="stop2" />
      <stop
         style="stop-color:#b1caee;stop-opacity:1"
         offset="1"
         id="stop4" />
    </linearGradient>
    <linearGradient
       id="a"
       y1="543.8"
       y2="503.8"
       x2="0"
       gradientUnits="userSpaceOnUse"
       gradientTransform="matrix(1.0499931,0,0,1.0499931,-404.99634,-525.98417)">
      <stop
         stop-color="#2f74c8"
         id="stop7" />
      <stop
         offset="1"
         stop-color="#4699d7"
         id="stop9" />
    </linearGradient>
    <linearGradient
       id="b"
       y1="15.968"
       x1="18.437"
       y2="33.629"
       x2="36.098"
       gradientUnits="userSpaceOnUse"
       gradientTransform="matrix(1.0499931,0,0,1.0499931,-1.2005013,-1.1976201)">
      <stop
         stop-color="#292c2f"
         style="stop-color:#000000;stop-opacity:1"
         id="stop12" />
      <stop
         offset="1"
         stop-opacity="0"
         id="stop14" />
    </linearGradient>
    <linearGradient
       xlink:href="#linearGradient4146"
       id="linearGradient4152"
       x1="21.051"
       y1="1016.939"
       x2="28.564"
       y2="1040.107"
       gradientUnits="userSpaceOnUse"
       gradientTransform="matrix(1.0499931,0,0,1.0499931,-1.1999723,-1055.771)" />
    <linearGradient
       id="e"
       gradientUnits="userSpaceOnUse"
       x1="409.82742"
       x2="410.05975"
       y1="539.74115"
       y2="507.72412"
       gradientTransform="matrix(0.9565216,0,0,0.9565216,-366.8074,-477.02416)">
      <stop
         offset="0"
         stop-color="#f4f4f4"
         id="stop5" />
      <stop
         offset="1"
         stop-color="#fff"
         id="stop6" />
    </linearGradient>
    <linearGradient
       inkscape:collect="always"
       xlink:href="#linearGradient1"
       id="linearGradient3"
       x1="25.169491"
       y1="3.0507369"
       x2="25.881081"
       y2="45.35582"
       gradientUnits="userSpaceOnUse" />
  </defs>
  <rect
     style="fill:url(#linearGradient3);stroke-width:1.04999;fill-opacity:1"
     height="41.999725"
     rx="20.999863"
     y="3.0000269"
     x="3"
     width="41.999725"
     id="rect20"
     ry="20.999863" />
  <path
     style="opacity:0.5;stroke-width:0.99997"
     d="m 12.366666,11 c -1.209566,0 -2.183333,0.973764 -2.183333,2.183333 V 35.016658 C 10.183333,36.226254 11.1571,37.2 12.366666,37.2 13.576233,37.2 14.55,36.226254 14.55,35.016658 V 13.183333 C 14.55,11.973764 13.576233,11 12.366666,11 Z"
     id="path3" />
  <path
     style="fill:#ffffff;fill-opacity:1;stroke-width:0.99997"
     d="m 12.366666,19.733332 c -1.209566,0 -2.183333,0.973768 -2.183333,2.183332 V 35.016658 C 10.183333,36.226254 11.1571,37.2 12.366666,37.2 13.576233,37.2 14.55,36.226254 14.55,35.016658 V 21.916664 c 0,-1.209564 -0.973767,-2.183332 -2.183334,-2.183332 z"
     id="path4" />
  <path
     style="opacity:0.2;stroke-width:0.99997"
     d="M 16.733334,19.605441 A 4.3666666,4.3666666 0 0 1 12.366666,23.972107 4.3666666,4.3666666 0 0 1 8,19.605441 a 4.3666666,4.3666666 0 0 1 4.366666,-4.366667 4.3666666,4.3666666 0 0 1 4.366668,4.366667 z"
     id="path5" />
  <path
     style="fill:#999999;fill-opacity:1;stroke-width:0.99997"
     d="M 16.733334,18.877663 A 4.3666666,4.3666666 0 0 1 12.366666,23.244331 4.3666666,4.3666666 0 0 1 8,18.877663 4.3666666,4.3666666 0 0 1 12.366666,14.511 a 4.3666666,4.3666666 0 0 1 4.366668,4.366663 z"
     id="path6" />
  <path
     style="opacity:0.5;stroke-width:0.99997"
     d="m 35.655553,11 c -1.209566,0 -2.183332,0.973764 -2.183332,2.183333 v 21.833325 c 0,1.209596 0.973766,2.183342 2.183332,2.183342 1.209568,0 2.183334,-0.973746 2.183334,-2.183342 V 13.183333 C 37.838887,11.973764 36.865121,11 35.655553,11 Z"
     id="path7" />
  <path
     style="fill:#ffffff;fill-opacity:1;stroke-width:0.99997"
     d="m 35.655553,24.242643 c -1.209566,0 -2.183332,0.973767 -2.183332,2.183333 v 8.590682 c 0,1.209596 0.973766,2.183342 2.183332,2.183342 1.209568,0 2.183334,-0.973746 2.183334,-2.183342 v -8.590682 c 0,-1.209566 -0.973766,-2.183333 -2.183334,-2.183333 z"
     id="path8" />
  <path
     style="opacity:0.2;stroke-width:0.99997"
     d="m 40.022222,23.37222 a 4.3666666,4.3666666 0 0 1 -4.366669,4.366668 4.3666666,4.3666666 0 0 1 -4.366665,-4.366668 4.3666666,4.3666666 0 0 1 4.366665,-4.366666 4.3666666,4.3666666 0 0 1 4.366669,4.366666 z"
     id="path9" />
  <path
     style="fill:#999999;stroke-width:0.99997;fill-opacity:1"
     d="m 40.022222,22.644444 a 4.3666666,4.3666666 0 0 1 -4.366669,4.366666 4.3666666,4.3666666 0 0 1 -4.366665,-4.366666 4.3666666,4.3666666 0 0 1 4.366665,-4.366668 4.3666666,4.3666666 0 0 1 4.366669,4.366668 z"
     id="path10-3" />
  <path
     style="opacity:0.504;stroke-width:0.99997"
     d="m 24.011112,11 c -1.209565,0 -2.183335,0.973764 -2.183335,2.183333 v 21.833325 c 0,1.209596 0.97377,2.183342 2.183335,2.183342 1.209565,0 2.183335,-0.973746 2.183335,-2.183342 V 13.183333 C 26.194447,11.973764 25.220677,11 24.011112,11 Z"
     id="path11" />
  <path
     style="fill:#ffffff;fill-opacity:1;stroke-width:0.99997"
     d="m 24.011112,29.92222 c -1.209565,0 -2.183335,0.973768 -2.183335,2.183332 v 2.911106 c 0,1.209596 0.97377,2.183342 2.183335,2.183342 1.209565,0 2.183335,-0.973746 2.183335,-2.183342 v -2.911106 c 0,-1.209564 -0.97377,-2.183332 -2.183335,-2.183332 z"
     id="path12" />
  <path
     style="opacity:0.2;stroke-width:0.99997"
     d="m 28.377777,29.194443 a 4.3666666,4.3666666 0 0 1 -4.366665,4.366689 4.3666666,4.3666666 0 0 1 -4.366665,-4.366689 4.3666666,4.3666666 0 0 1 4.366665,-4.366667 4.3666666,4.3666666 0 0 1 4.366665,4.366667 z"
     id="path13" />
  <path
     style="fill:#999999;stroke-width:0.99997;fill-opacity:1"
     d="M 28.377777,28.466664 A 4.3666666,4.3666666 0 0 1 24.011112,32.83335 4.3666666,4.3666666 0 0 1 19.644447,28.466664 4.3666666,4.3666666 0 0 1 24.011112,24.1 a 4.3666666,4.3666666 0 0 1 4.366665,4.366664 z"
     id="path14" />
</svg>
