<?xml version="1.0" encoding="UTF-8" standalone="no"?>
<svg
   width="48"
   height="48"
   version="1.1"
   viewBox="0 0 12.699752 12.699752"
   id="svg3"
   sodipodi:docname="sonic-visualiser.svg"
   inkscape:version="1.4.2 (unknown)"
   xmlns:inkscape="http://www.inkscape.org/namespaces/inkscape"
   xmlns:sodipodi="http://sodipodi.sourceforge.net/DTD/sodipodi-0.dtd"
   xmlns="http://www.w3.org/2000/svg"
   xmlns:svg="http://www.w3.org/2000/svg"
   xmlns:rdf="http://www.w3.org/1999/02/22-rdf-syntax-ns#"
   xmlns:cc="http://creativecommons.org/ns#"
   xmlns:dc="http://purl.org/dc/elements/1.1/">
  <defs
     id="defs3" />
  <sodipodi:namedview
     id="namedview3"
     pagecolor="#ffffff"
     bordercolor="#000000"
     borderopacity="0.25"
     inkscape:showpageshadow="2"
     inkscape:pageopacity="0.0"
     inkscape:pagecheckerboard="0"
     inkscape:deskcolor="#d1d1d1"
     inkscape:zoom="12.109375"
     inkscape:cx="32"
     inkscape:cy="28.861935"
     inkscape:window-width="1920"
     inkscape:window-height="998"
     inkscape:window-x="0"
     inkscape:window-y="0"
     inkscape:window-maximized="1"
     inkscape:current-layer="svg3" />
  <metadata
     id="metadata1">
    <rdf:RDF>
      <cc:Work
         rdf:about="">
        <dc:format>image/svg+xml</dc:format>
        <dc:type
           rdf:resource="http://purl.org/dc/dcmitype/StillImage" />
      </cc:Work>
    </rdf:RDF>
  </metadata>
  <g
     id="g3"
     transform="matrix(0.77771478,0,0,0.77741598,-0.2351045,-0.22934503)"
     style="stroke-width:1.33333">
    <circle
       cx="8.467"
       cy="8.46"
       r="7.1440001"
       fill="#3f3f3f"
       style="fill:#35465f;fill-opacity:1;stroke-width:1.33333;paint-order:fill markers stroke"
       id="circle1" />
    <path
       d="m 8.4671,1.3229 v 2.174 H 6.2931 V 1.6626 C 6.18844,1.696142 6.08501,1.731238 5.98252,1.76944 v 1.7277 h -2.174 V 3.05053 C 3.70106,3.143082 3.5995,3.24309 3.49794,3.34185 V 3.49714 H 3.34265 C 3.243882,3.5987 3.14388,3.70026 3.05133,3.80772 h 0.44661 v 2.174 H 1.77024 C 1.73204,6.08421 1.69694,6.18763 1.66341,6.2923 h 1.8343 v 2.174 h -2.174 c 0,0.10373 0.0053,0.20778 0.0096,0.31058 h 2.1644 v 2.174 H 1.77001 C 1.80945,11.0571 1.852,11.15772 1.8961,11.26146 h 1.6013 v 2.174 H 3.34211 c 0.14939,0.15405 0.30313,0.30623 0.46587,0.44661 v -0.13603 h 2.174 v 1.4172 c 0.10249,0.0382 0.20591,0.0733 0.31058,0.10683 v -1.5237 h 2.174 v 1.8635 c 0.10373,0 0.20778,-0.0053 0.31058,-0.0096 v -1.8538 h 2.174 v 1.4172 c 0.10622,-0.03944 0.20684,-0.08199 0.31058,-0.1261 v -1.2908 h 2.0188 c 0.16215,-0.14784 0.31806,-0.30375 0.46589,-0.46587 v -2.0188 h 1.2908 c 0.0441,-0.10373 0.08666,-0.20436 0.1261,-0.31058 h -1.4172 v -2.1741 h 1.8538 c 0.0043,-0.1028 0.0096,-0.20684 0.0096,-0.31058 h -1.8635 v -2.174 h 1.5237 C 15.236202,6.18817 15.201104,6.08475 15.16289,5.98226 h -1.4172 v -2.174 h 0.13603 C 13.74165,3.64552 13.58947,3.49178 13.43511,3.34239 v 0.15529 h -2.174 V 1.89638 C 11.15737,1.852278 11.05675,1.809729 10.95053,1.77029 v 1.7277 h -2.174 V 1.33359 C 8.67373,1.32925 8.56968,1.32396 8.46595,1.32396 Z M 3.8084,3.8075 h 2.174 v 2.174 h -2.174 v -2.174 m 2.4846,0 h 2.174 v 2.174 H 6.293 v -2.174 m 2.4846,0 h 2.174 v 2.174 h -2.174 v -2.174 m 2.4846,0 h 2.174 v 2.174 h -2.174 V 3.8075 M 3.8083,6.2921 h 2.174 v 2.174 h -2.174 z m 2.4846,0 h 2.174 v 2.174 h -2.174 z m 2.4846,0 h 2.174 v 2.174 h -2.174 z m 2.4846,0 h 2.174 v 2.174 h -2.174 z M 3.8082,8.7767 h 2.174 v 2.174 h -2.174 z m 2.4846,0 h 2.174 v 2.174 h -2.174 z m 2.4846,0 h 2.174 v 2.174 h -2.174 z m 2.4846,0 h 2.174 v 2.174 h -2.174 z m -7.4539,2.4846 h 2.174 v 2.174 h -2.174 z m 2.4846,0 h 2.174 v 2.174 h -2.174 z m 2.4846,0 h 2.174 v 2.174 h -2.174 z m 2.4846,0 h 2.174 v 2.174 h -2.174 z"
       fill="#427e49"
       stroke-width="0.414107"
       id="path1"
       style="fill:#c6afe9;fill-opacity:0.172492" />
    <g
       transform="matrix(1.1739,0,0,1.1739,10.849,-0.9291)"
       fill="#ffffff"
       id="g2"
       style="stroke-width:1.33333">
      <path
         d="m -2.0293,4.5641 c -0.14049,0 -0.21325,0.089427 -0.24394,0.13493 -0.030691,0.045507 -0.043126,0.079638 -0.055297,0.11536 -0.024341,0.071172 -0.040216,0.14711 -0.056884,0.24077 -0.033337,0.18732 -0.063763,0.4392 -0.093661,0.74003 -0.11059,1.2628 -0.18679,2.4161 -0.28125,3.5858 -0.10028,-0.93661 -0.16192,-1.8856 -0.27172,-2.8101 C -3.063008,6.31293 -3.094228,6.09677 -3.129152,5.93273 -3.146614,5.850711 -3.163547,5.78324 -3.190534,5.71631 -3.204028,5.682709 -3.218579,5.648843 -3.252975,5.60572 -3.28737,5.562594 -3.363305,5.49036 -3.484485,5.49036 c -0.093661,0 -0.16642,0.046301 -0.20558,0.083077 -0.039422,0.036776 -0.059265,0.069584 -0.075934,0.099746 -0.033337,0.060588 -0.051857,0.11694 -0.071436,0.18282 -0.038893,0.13176 -0.072494,0.29739 -0.10636,0.4945 -0.13044,0.83527 -0.22145,1.6033 -0.33548,2.3838 -0.069055,-0.44925 -0.10795,-0.92417 -0.1643,-1.3668 -0.017991,-0.13943 -0.035454,-0.25691 -0.055297,-0.35083 -0.00979,-0.047095 -0.018785,-0.086782 -0.037306,-0.13388 -0.00926,-0.023547 -0.018785,-0.048682 -0.047624,-0.086782 -0.028839,-0.038099 -0.098423,-0.1143 -0.22383,-0.1143 -0.096571,0 -0.15213,0.038628 -0.18812,0.066145 -0.035983,0.027516 -0.057413,0.052386 -0.077521,0.076992 -0.039952,0.048947 -0.070643,0.098687 -0.10292,0.15451 -0.064557,0.11192 -0.13097,0.24632 -0.19632,0.37835 -0.065615,0.13202 -0.13044,0.26193 -0.18097,0.34766 -0.010583,0.017727 -0.014023,0.021431 -0.022754,0.03466 h -2.532 c -0.0037,0.08784 -0.00661,0.17594 -0.00661,0.26458 0,0.088634 0.00291,0.17674 0.00661,0.26458 h 2.6392 c 0.18362,0 0.22383,-0.089957 0.26458,-0.13943 0.041539,-0.049476 0.073288,-0.10028 0.10636,-0.15663 0.051857,-0.088105 0.10371,-0.19367 0.15557,-0.29712 0.027252,0.23362 0.054238,0.47836 0.085723,0.75537 0.041539,0.36565 0.087311,0.73235 0.14155,1.0197 0.027252,0.14367 0.055297,0.26458 0.093925,0.37147 0.019314,0.052916 0.039422,0.10213 0.079638,0.15716 0.040216,0.055032 0.12409,0.14155 0.26193,0.14155 0.093661,0 0.16642,-0.0463 0.20558,-0.08308 0.039422,-0.03678 0.059266,-0.069584 0.075934,-0.099746 0.033337,-0.060588 0.051857,-0.11694 0.071436,-0.18282 0.038893,-0.13176 0.072494,-0.29739 0.10636,-0.4945 0.11827,-0.76992 0.20743,-1.4681 0.30585,-2.1725 0.12435,1.1131 0.186,2.1777 0.31617,3.2752 0.030956,0.25796 0.062176,0.47412 0.0971,0.63816 0.017462,0.08202 0.034395,0.14949 0.061382,0.21642 0.013494,0.0336 0.028045,0.06747 0.062441,0.11059 0.034395,0.04313 0.11086,0.11536 0.23204,0.11536 0.14049,0 0.21272,-0.08943 0.24341,-0.13493 0.030691,-0.04551 0.043126,-0.07964 0.055297,-0.11536 0.024341,-0.07117 0.040745,-0.14711 0.057413,-0.24077 0.033337,-0.18732 0.063234,-0.4392 0.093131,-0.74002 0.10424,-1.1975 0.17965,-2.2807 0.26458,-3.3765 0.099481,1.1295 0.15637,2.2595 0.26458,3.3765 0.029633,0.30083 0.059795,0.5527 0.093132,0.74002 0.016668,0.09366 0.032808,0.1696 0.057413,0.24077 0.012171,0.03572 0.024606,0.06985 0.055297,0.11536 0.030691,0.04551 0.10292,0.13493 0.24341,0.13493 0.12118,0 0.19764,-0.07197 0.23204,-0.11536 0.034395,-0.04313 0.048947,-0.07699 0.062441,-0.11059 0.027251,-0.06694 0.04392,-0.13441 0.061382,-0.21642 0.034924,-0.16404 0.066145,-0.3802 0.0971,-0.63816 0.12541,-1.1443 0.20452,-2.1981 0.31617,-3.2752 0.11297,0.72494 0.18468,1.4591 0.30585,2.1725 0.033866,0.19711 0.067467,0.36274 0.10636,0.4945 0.019314,0.06588 0.038099,0.1225 0.071436,0.18282 0.016668,0.030162 0.036512,0.062705 0.075934,0.099746 0.039422,0.03678 0.11192,0.08308 0.20558,0.08308 0.13785,0 0.22172,-0.08652 0.26193,-0.14155 0.040216,-0.055032 0.060059,-0.10424 0.079638,-0.15716 0.038893,-0.10583 0.066938,-0.22807 0.093925,-0.37147 0.054503,-0.28733 0.10001,-0.65377 0.14155,-1.0197 0.032543,-0.28548 0.060588,-0.54027 0.088369,-0.77812 0.052386,0.10954 0.10451,0.22119 0.15663,0.31458 0.03122,0.056091 0.061382,0.10583 0.10133,0.1561 0.039951,0.050005 0.079109,0.14525 0.26722,0.14525 h 2.6392 c 0.0037,-0.08784 0.0066,-0.17594 0.0066,-0.26458 0,-0.088634 -0.0029,-0.17674 -0.0066,-0.26458 H 1.51978 C 1.5123718,7.728122 1.509726,7.725741 1.50126,7.71066 1.453371,7.624408 1.39172,7.49424 1.3277,7.36089 1.26368,7.22754 1.19779,7.09155 1.12874,6.97593 1.09408,6.918252 1.060214,6.86587 1.01338,6.81427 0.96655,6.762677 0.90411,6.68198 0.74563,6.68198 0.62022,6.68198 0.55064,6.757914 0.5218,6.79628 0.492961,6.834379 0.483436,6.859514 0.474176,6.883062 0.45592,6.930157 0.446924,6.969844 0.43687,7.016942 c -0.019843,0.093925 -0.037306,0.2114 -0.055297,0.35083 -0.035982,0.27886 -0.073023,0.64213 -0.1143,1.0041 -0.015081,0.13388 -0.033866,0.23442 -0.050005,0.36274 -0.12779,-0.80458 -0.20081,-1.5901 -0.33549,-2.3838 -0.033866,-0.19711 -0.067467,-0.36274 -0.10636,-0.4945 -0.019314,-0.06588 -0.038099,-0.1225 -0.071436,-0.18282 C -0.312686,5.64333 -0.33253,5.610787 -0.371952,5.573746 -0.411374,5.53697 -0.483872,5.490668 -0.577532,5.490668 c -0.12118,0 -0.19711,0.071965 -0.23151,0.11536 -0.034395,0.043126 -0.048947,0.076992 -0.062441,0.11059 -0.027252,0.066938 -0.04392,0.13441 -0.061382,0.21642 -0.034924,0.16404 -0.066145,0.3802 -0.0971,0.63816 -0.10662,0.99931 -0.18547,1.8997 -0.27172,2.8101 -0.10874,-1.2089 -0.16483,-2.3891 -0.28125,-3.5858 -0.029633,-0.30083 -0.060059,-0.5527 -0.093661,-0.74002 C -1.693264,4.961817 -1.708874,4.885888 -1.73348,4.814708 -1.745651,4.77899 -1.758086,4.744859 -1.788777,4.699348 -1.819468,4.65384 -1.892227,4.564418 -2.032717,4.564418 Z"
         fill="#b2e567"
         stroke-width="0.352773"
         id="path2"
         style="fill:#9b73d9;fill-opacity:1" />
    </g>
    <path
       d="M 8.4594163,1.3161797 A 7.1439246,7.1439246 0 0 0 1.3229,8.4598397 7.1439246,7.1439246 0 0 0 8.4670892,15.604029 7.1439246,7.1439246 0 0 0 15.611278,8.4598397 a 7.1439246,7.1439246 0 0 0 -7.1441888,-7.14366 7.1439246,7.1439246 0 0 0 -0.00775,0 z M 8.4165253,2.11664 a 6.3433055,6.3433055 0 0 1 0.050643,0 A 6.3433055,6.3433055 0 0 1 14.810474,8.4599455 6.3433055,6.3433055 0 0 1 8.4671685,14.80378 6.3433055,6.3433055 0 0 1 2.123863,8.4599455 6.3433055,6.3433055 0 0 1 8.4163692,2.11664 Z"
       fill="#333333"
       stroke-width="1.33335"
       style="fill:#2d3d53;fill-opacity:1;paint-order:fill markers stroke"
       id="path3" />
  </g>
</svg>
