<?xml version="1.0" encoding="UTF-8" standalone="no"?>
<svg
   width="48"
   height="48"
   viewBox="0 0 48 48.000001"
   version="1.1"
   id="svg43"
   sodipodi:docname="steamlink.svg"
   inkscape:version="1.4.2 (unknown)"
   xmlns:inkscape="http://www.inkscape.org/namespaces/inkscape"
   xmlns:sodipodi="http://sodipodi.sourceforge.net/DTD/sodipodi-0.dtd"
   xmlns:xlink="http://www.w3.org/1999/xlink"
   xmlns="http://www.w3.org/2000/svg"
   xmlns:svg="http://www.w3.org/2000/svg">
  <sodipodi:namedview
     id="namedview45"
     pagecolor="#ffffff"
     bordercolor="#666666"
     borderopacity="1.0"
     inkscape:showpageshadow="2"
     inkscape:pageopacity="0.0"
     inkscape:pagecheckerboard="0"
     inkscape:deskcolor="#d1d1d1"
     showgrid="false"
     inkscape:zoom="3.4766084"
     inkscape:cx="102.68628"
     inkscape:cy="49.329686"
     inkscape:window-width="1920"
     inkscape:window-height="998"
     inkscape:window-x="0"
     inkscape:window-y="0"
     inkscape:window-maximized="1"
     inkscape:current-layer="svg43" />
  <defs
     id="defs19">
    <linearGradient
       id="linearGradient8">
      <stop
         style="stop-color:#054e87;stop-opacity:1"
         offset="0"
         id="stop1" />
      <stop
         style="stop-color:#9d7ed5;stop-opacity:1"
         offset="1"
         id="stop3" />
    </linearGradient>
    <linearGradient
       id="blue-gradient-5">
      <stop
         style="stop-color:#054e87;stop-opacity:1"
         offset="0"
         id="stop2" />
      <stop
         style="stop-color:#1d99f3;stop-opacity:1"
         offset="1"
         id="stop4" />
    </linearGradient>
    <linearGradient
       id="shadow-3">
      <stop
         style="stop-color:#31363b;stop-opacity:0.208"
         offset="0"
         id="stop7" />
      <stop
         style="stop-color:#31363b;stop-opacity:0;"
         offset="1"
         id="stop9" />
    </linearGradient>
    <linearGradient
       xlink:href="#shadow-3"
       id="linearGradient4199"
       x1="21.969"
       y1="1035.3621"
       x2="35.969002"
       y2="1049.3621"
       gradientUnits="userSpaceOnUse"
       gradientTransform="translate(10,-14.000047)" />
    <linearGradient
       xlink:href="#shadow-3"
       id="linearGradient4203"
       gradientUnits="userSpaceOnUse"
       x1="23"
       y1="1035.3621"
       x2="36"
       y2="1048.3621"
       gradientTransform="translate(13,-1021.3622)" />
    <linearGradient
       xlink:href="#shadow-3"
       id="linearGradient4227"
       gradientUnits="userSpaceOnUse"
       gradientTransform="translate(-15.75,-1005.8622)"
       x1="21.475"
       y1="1035.158"
       x2="34.474998"
       y2="1048.158" />
    <linearGradient
       xlink:href="#blue-gradient-5"
       id="linearGradient4351"
       x1="24"
       y1="1008.362"
       x2="24"
       y2="1048.3621"
       gradientUnits="userSpaceOnUse" />
    <linearGradient
       xlink:href="#shadow-3"
       id="linearGradient4373"
       gradientUnits="userSpaceOnUse"
       gradientTransform="translate(5.9783302,-17.513484)"
       x1="21.084999"
       y1="1036.975"
       x2="35.969002"
       y2="1049.3621" />
    <linearGradient
       xlink:href="#shadow-3"
       id="linearGradient4377"
       gradientUnits="userSpaceOnUse"
       gradientTransform="translate(-6.3297472,-4.8518532)"
       x1="21.084999"
       y1="1036.975"
       x2="35.969002"
       y2="1049.3621" />
    <linearGradient
       xlink:href="#shadow-3"
       id="linearGradient4381"
       gradientUnits="userSpaceOnUse"
       gradientTransform="translate(-2.8703079,-1.1698725)"
       x1="21.969"
       y1="1035.3621"
       x2="35.969002"
       y2="1049.3621" />
    <linearGradient
       id="a-3"
       x1="99.036003"
       x2="99.036003"
       y1="-0.50471997"
       y2="199.84"
       gradientTransform="matrix(0.079375,0,0,0.079375,0.85048,0.094487)"
       gradientUnits="userSpaceOnUse">
      <stop
         stop-color="#4bd2f5"
         offset="0"
         id="stop275-3" />
      <stop
         stop-color="#5587ff"
         offset="1"
         id="stop277-6" />
    </linearGradient>
    <filter
       id="filter1305-3-7"
       x="-0.060002353"
       y="-0.060002353"
       width="1.1200047"
       height="1.1200047"
       color-interpolation-filters="sRGB">
      <feGaussianBlur
         stdDeviation="0.61852427"
         id="feGaussianBlur324-5" />
    </filter>
    <filter
       id="filter1030-6-3"
       x="-0.061720628"
       y="-0.058451217"
       width="1.1234413"
       height="1.1169024"
       color-interpolation-filters="sRGB">
      <feGaussianBlur
         stdDeviation="0.24897588"
         id="feGaussianBlur327-56" />
    </filter>
    <linearGradient
       id="linearGradient958"
       x1="-272.20999"
       x2="-275.5"
       y1="44.527"
       y2="50.384998"
       gradientTransform="matrix(0.41204,0,0,0.41204,123.57,-13.539)"
       gradientUnits="userSpaceOnUse">
      <stop
         stop-color="#3650ae"
         offset="0"
         id="stop286-7" />
      <stop
         stop-color="#388fc9"
         offset="1"
         id="stop288-5" />
    </linearGradient>
    <filter
       id="filter1040-5-1"
       x="-0.066213407"
       y="-0.054852635"
       width="1.1324269"
       height="1.1097053"
       color-interpolation-filters="sRGB">
      <feGaussianBlur
         stdDeviation="0.2340379"
         id="feGaussianBlur335-27" />
    </filter>
    <linearGradient
       id="linearGradient966"
       x1="-272.85999"
       x2="-267.62"
       y1="54.907001"
       y2="49.026001"
       gradientTransform="matrix(0.41204,0,0,0.41204,123.57,-13.539)"
       gradientUnits="userSpaceOnUse">
      <stop
         stop-color="#3491cb"
         offset="0"
         id="stop294" />
      <stop
         stop-color="#3850bb"
         offset="1"
         id="stop296" />
    </linearGradient>
    <filter
       id="filter1046-3-3"
       x="-0.047273066"
       y="-0.082104251"
       width="1.0945461"
       height="1.1642085"
       color-interpolation-filters="sRGB">
      <feGaussianBlur
         stdDeviation="0.22334751"
         id="feGaussianBlur343-6" />
    </filter>
    <linearGradient
       id="linearGradient974"
       x1="-277.66"
       x2="-270.88"
       y1="59.727001"
       y2="58.222"
       gradientTransform="matrix(0.41204,0,0,0.41204,123.57,-13.539)"
       gradientUnits="userSpaceOnUse">
      <stop
         stop-color="#2fb1dc"
         offset="0"
         id="stop302" />
      <stop
         stop-color="#3491cb"
         offset="1"
         id="stop304" />
    </linearGradient>
    <filter
       id="filter1052-5-2"
       x="-0.06167968"
       y="-0.058409125"
       width="1.1233594"
       height="1.1168182"
       color-interpolation-filters="sRGB">
      <feGaussianBlur
         stdDeviation="0.24881069"
         id="feGaussianBlur351-61" />
    </filter>
    <linearGradient
       id="linearGradient982"
       x1="-282.60999"
       x2="-278.76001"
       y1="54.153999"
       y2="62.018002"
       gradientTransform="matrix(0.41204,0,0,0.41204,123.57,-13.539)"
       gradientUnits="userSpaceOnUse">
      <stop
         stop-color="#30add9"
         offset="0"
         id="stop310-3" />
      <stop
         stop-color="#329ed2"
         offset="1"
         id="stop312" />
    </linearGradient>
    <filter
       id="filter1058-6-9"
       x="-0.066213585"
       y="-0.054852653"
       width="1.1324272"
       height="1.1097053"
       color-interpolation-filters="sRGB">
      <feGaussianBlur
         stdDeviation="0.23403799"
         id="feGaussianBlur359-2" />
    </filter>
    <linearGradient
       id="linearGradient990-5"
       x1="-286.34"
       x2="-282.53"
       y1="57.278"
       y2="49.414001"
       gradientTransform="matrix(0.41204,0,0,0.41204,123.57,-13.539)"
       gradientUnits="userSpaceOnUse">
      <stop
         stop-color="#329fd2"
         offset="0"
         id="stop318-6" />
      <stop
         stop-color="#2c80c1"
         offset="1"
         id="stop320-2" />
    </linearGradient>
    <filter
       id="filter1064-9-3"
       x="-0.047273491"
       y="-0.082104266"
       width="1.094547"
       height="1.1642085"
       color-interpolation-filters="sRGB">
      <feGaussianBlur
         stdDeviation="0.22334755"
         id="feGaussianBlur367-7" />
    </filter>
    <linearGradient
       id="linearGradient998"
       x1="-281.51001"
       x2="-282.54999"
       y1="43.16"
       y2="49.908001"
       gradientTransform="matrix(0.41204,0,0,0.41204,123.57,-13.539)"
       gradientUnits="userSpaceOnUse">
      <stop
         stop-color="#3857ba"
         offset="0"
         id="stop326" />
      <stop
         stop-color="#367dc1"
         offset="1"
         id="stop328-9" />
    </linearGradient>
    <filter
       id="filter1103-1-22"
       x="-0.059886921"
       y="-0.060124934"
       width="1.1197737"
       height="1.1202499"
       color-interpolation-filters="sRGB">
      <feGaussianBlur
         stdDeviation="0.60007942"
         id="feGaussianBlur375-8" />
    </filter>
    <filter
       id="filter1299-2-3"
       x="-0.030470269"
       y="-0.030470269"
       width="1.0609405"
       height="1.0609405"
       color-interpolation-filters="sRGB">
      <feGaussianBlur
         stdDeviation="0.18834042"
         id="feGaussianBlur383-6" />
    </filter>
    <linearGradient
       id="linearGradient1227"
       x1="-228.53999"
       x2="-228.53999"
       y1="49.422001"
       y2="52.341999"
       gradientTransform="translate(237.02,-44.947)"
       gradientUnits="userSpaceOnUse">
      <stop
         stop-color="#fff"
         offset="0"
         id="stop342" />
      <stop
         stop-color="#fff"
         stop-opacity="0"
         offset="1"
         id="stop344" />
    </linearGradient>
    <filter
       id="filter1229-7-9"
       x="-0.069095559"
       y="-0.10709949"
       width="1.1381911"
       height="1.2141989"
       color-interpolation-filters="sRGB">
      <feGaussianBlur
         stdDeviation="0.1347133"
         id="feGaussianBlur391-31" />
    </filter>
    <filter
       id="filter629"
       x="-0.069095559"
       y="-0.10709949"
       width="1.1381911"
       height="1.2141989"
       color-interpolation-filters="sRGB">
      <feGaussianBlur
         stdDeviation="0.1347133"
         id="feGaussianBlur627" />
    </filter>
    <filter
       id="filter1251-0-9"
       x="-0.20800194"
       y="-0.28363517"
       width="1.4160039"
       height="1.5672703"
       color-interpolation-filters="sRGB">
      <feGaussianBlur
         stdDeviation="0.069956252"
         id="feGaussianBlur394-4" />
    </filter>
    <filter
       id="filter1275-9-7"
       x="-0.059999753"
       y="-0.059999753"
       width="1.1199995"
       height="1.1199995"
       color-interpolation-filters="sRGB">
      <feGaussianBlur
         stdDeviation="0.04134033"
         id="feGaussianBlur397-8" />
    </filter>
    <linearGradient
       xlink:href="#blue-gradient-5"
       id="linearGradient4351-3"
       x1="24"
       y1="1008.362"
       x2="24"
       y2="1048.3621"
       gradientUnits="userSpaceOnUse"
       gradientTransform="matrix(1.3999951,0,0,1.3999951,94.417066,-1407.7866)" />
    <linearGradient
       xlink:href="#shadow-3"
       id="linearGradient4203-5"
       gradientUnits="userSpaceOnUse"
       x1="23"
       y1="1035.3621"
       x2="36"
       y2="1048.3621"
       gradientTransform="matrix(1.3999951,0,0,1.3999951,92.01034,-1475.9751)" />
    <linearGradient
       xlink:href="#shadow-3"
       id="linearGradient4227-6"
       gradientUnits="userSpaceOnUse"
       gradientTransform="matrix(1.3999951,0,0,1.3999951,51.760483,-1454.2752)"
       x1="21.475"
       y1="1035.158"
       x2="34.474998"
       y2="1048.158" />
    <linearGradient
       inkscape:collect="always"
       xlink:href="#linearGradient8"
       id="linearGradient7"
       x1="31.5"
       y1="59.017548"
       x2="31.5"
       y2="4.9824524"
       gradientUnits="userSpaceOnUse"
       gradientTransform="matrix(1.3333336,0,0,1.3333336,-1.8333347,-2.3333405)" />
    <linearGradient
       inkscape:collect="always"
       xlink:href="#shadow-3"
       id="linearGradient1"
       gradientUnits="userSpaceOnUse"
       gradientTransform="matrix(1.8666605,0,0,1.8666605,5.4795471,-1911.9989)"
       x1="21.084999"
       y1="1036.975"
       x2="35.969002"
       y2="1049.3621" />
    <linearGradient
       inkscape:collect="always"
       xlink:href="#shadow-3"
       id="linearGradient2"
       gradientUnits="userSpaceOnUse"
       gradientTransform="matrix(1.8666605,0,0,1.8666605,12.986642,-1905.4405)"
       x1="21.969"
       y1="1035.3621"
       x2="35.969002"
       y2="1049.3621" />
    <linearGradient
       inkscape:collect="always"
       xlink:href="#shadow-3"
       id="linearGradient3"
       gradientUnits="userSpaceOnUse"
       gradientTransform="matrix(1.8666605,0,0,1.8666605,18.586617,-1911.0404)"
       x1="23"
       y1="1035.3621"
       x2="36"
       y2="1048.3621" />
    <linearGradient
       inkscape:collect="always"
       xlink:href="#shadow-3"
       id="linearGradient4"
       gradientUnits="userSpaceOnUse"
       gradientTransform="matrix(1.8666605,0,0,1.8666605,-17.495456,-1888.364)"
       x1="21.084999"
       y1="1036.975"
       x2="35.969002"
       y2="1049.3621" />
    <linearGradient
       inkscape:collect="always"
       xlink:href="#shadow-3"
       id="linearGradient5"
       gradientUnits="userSpaceOnUse"
       gradientTransform="matrix(1.8666605,0,0,1.8666605,-11.037858,-1881.4909)"
       x1="21.969"
       y1="1035.3621"
       x2="35.969002"
       y2="1049.3621" />
    <linearGradient
       inkscape:collect="always"
       xlink:href="#shadow-3"
       id="linearGradient6"
       gradientUnits="userSpaceOnUse"
       gradientTransform="matrix(1.8666605,0,0,1.8666605,-35.079871,-1882.1072)"
       x1="21.475"
       y1="1035.158"
       x2="34.474998"
       y2="1048.158" />
  </defs>
  <g
     id="g6"
     transform="matrix(0.74999984,0,0,0.74999984,0.8750005,0.74999897)"
     style="stroke-width:1.33333">
    <ellipse
       style="opacity:0.2;stroke-width:1.30974"
       cx="31"
       cy="31.491232"
       id="circle1"
       rx="27.5"
       ry="27.508774" />
    <ellipse
       style="fill:url(#linearGradient7);stroke-width:1.30974"
       cx="31"
       cy="30.508772"
       id="circle2"
       rx="27.5"
       ry="27.508774" />
    <path
       style="opacity:0.1;fill:#ffffff;stroke-width:1.30974"
       d="M 30.998078,2.999994 A 27.499991,27.508765 0 0 0 3.4999998,30.508757 27.499991,27.508765 0 0 0 3.5172644,30.992317 27.499991,27.508765 0 0 1 30.998078,3.98245 h 0.0019 a 27.499991,27.508765 0 0 1 27.473153,27.017537 27.499991,27.508765 0 0 0 0.02495,-0.49123 27.499991,27.508765 0 0 0 -27.49809,-27.508763 z"
       id="path4" />
    <path
       d="m 33.8353,30.500418 11.34645,-0.588138 2.67437,-9.457247 -7.82736,-6.218638 -9.62005,8.166031 z"
       style="fill:url(#linearGradient1);fill-opacity:1;fill-rule:evenodd;stroke:none;stroke-width:1.86667px;stroke-linecap:butt;stroke-linejoin:miter;stroke-opacity:1"
       id="path23-1-6" />
    <path
       style="fill:url(#linearGradient2);fill-opacity:1;fill-rule:evenodd;stroke:none;stroke-width:1.86667px;stroke-linecap:butt;stroke-linejoin:miter;stroke-opacity:1"
       d="m 40.05339,30.964376 5.56146,-1.392435 2.76718,-4.167225 -5.59998,-5.599981 -6.92864,6.959656 z"
       id="path25-2-2" />
    <path
       style="fill:url(#linearGradient3);fill-opacity:1;fill-rule:evenodd;stroke:none;stroke-width:1.86667px;stroke-linecap:butt;stroke-linejoin:miter;stroke-opacity:1"
       d="m 46.90821,16.034097 c 1.79643,1.884203 2.90663,4.42899 2.90663,7.237866 0,5.79897 -4.70099,10.499963 -10.49996,10.499963 -0.28482,-0.0021 -0.56943,-0.01578 -0.85313,-0.04102 l -8.25504,7.155834 c -0.0116,1.035459 -0.21469,2.059837 -0.59883,3.021474 -1.73196,4.304088 -6.62533,6.389002 -10.92926,4.656625 -0.3401,-0.13685 -0.6591,-0.301296 -0.9707,-0.47578 -0.0606,-0.03416 -0.12069,-0.06825 -0.18047,-0.103908 -0.29596,-0.175523 -0.58011,-0.364813 -0.84765,-0.571482 -0.009,-0.0069 -0.0186,-0.01232 -0.0273,-0.01914 l -0.0164,0.0028 11.47066,11.470662 c 0.70118,0.06099 1.40441,0.09572 2.1082,0.103845 a 27.999902,27.999902 0 0 0 1.83476,-0.06562 c 0.0933,-0.006 0.18588,-0.01492 0.2789,-0.02188 a 27.999902,27.999902 0 0 0 2.58398,-0.311717 c 0.0448,-0.0076 0.0893,-0.01683 0.13398,-0.02461 a 27.999902,27.999902 0 0 0 1.95507,-0.437498 c 0.33667,-0.08397 0.67453,-0.163726 1.00625,-0.259765 a 27.999902,27.999902 0 0 0 1.70351,-0.566014 c 0.30954,-0.111776 0.62258,-0.216791 0.92694,-0.339062 a 27.999902,27.999902 0 0 0 1.60782,-0.719136 c 0.30705,-0.146568 0.61799,-0.285664 0.91874,-0.442966 a 27.999902,27.999902 0 0 0 1.44375,-0.828513 c 0.32438,-0.19513 0.65504,-0.380156 0.9707,-0.587888 a 27.999902,27.999902 0 0 0 1.33437,-0.959762 c 0.2888,-0.215322 0.58673,-0.419264 0.86679,-0.645311 A 27.999902,27.999902 0 0 0 49.052,51.646473 c 0.26615,-0.242638 0.54183,-0.474727 0.79844,-0.727341 a 27.999902,27.999902 0 0 0 1.16752,-1.249605 c 0.2288,-0.254387 0.46958,-0.497467 0.68906,-0.760154 a 27.999902,27.999902 0 0 0 1.20859,-1.591401 c 0.14331,-0.198652 0.30206,-0.385375 0.44023,-0.587889 a 27.999902,27.999902 0 0 0 4.71952,-12.960891 c 9e-5,-9e-4 -9e-5,-0.0018 0,-0.0028 a 27.999902,27.999902 0 0 0 0,-0.0083 27.999902,27.999902 0 0 0 0.13945,-2.786196 27.999902,27.999902 0 0 0 -0.30898,-3.94022 z"
       id="path27-7-9" />
    <path
       style="fill:url(#linearGradient4);fill-opacity:1;fill-rule:evenodd;stroke:none;stroke-width:1.86667px;stroke-linecap:butt;stroke-linejoin:miter;stroke-opacity:1"
       d="m 18.05803,47.360419 8.90253,-0.897537 1.90097,-10.570943 -9.28134,-2.475332 -5.31998,6.402598 z"
       id="path29-0-1" />
    <path
       d="m 20.39441,47.592258 5.56146,-0.583098 3.0953,-4.823403 -4.28749,-4.418805 -9.70675,5.581501 z"
       style="fill:url(#linearGradient5);fill-opacity:1;fill-rule:evenodd;stroke:none;stroke-width:1.86667px;stroke-linecap:butt;stroke-linejoin:miter;stroke-opacity:1"
       id="path31-9-2" />
    <path
       style="fill:url(#linearGradient6);fill-opacity:1;fill-rule:evenodd;stroke:none;stroke-width:1.86667px;stroke-linecap:butt;stroke-linejoin:miter;stroke-opacity:1"
       d="m 4.69234,38.40941 19.03118,19.766728 a 27.999902,27.999902 0 0 0 4.38319,0.691794 L 16.63605,47.397269 13.83332,40.43284 Z"
       id="path33-3-7" />
    <path
       style="fill:#ffffff;fill-opacity:1;stroke:none;stroke-width:1.86667;stroke-linecap:round;stroke-linejoin:round;stroke-miterlimit:4;stroke-dasharray:none;stroke-opacity:1"
       d="m 39.31488,12.772 c -5.79897,0 -10.49997,4.700993 -10.49997,10.499963 0.002,0.282077 0.016,0.563945 0.041,0.844919 -1.80548,2.206003 -6.72759,7.765769 -7.15857,8.263252 -3.38345,0.04598 -6.40897,2.117604 -7.67536,5.255451 -1.7324,4.303922 0.35252,9.197294 4.65663,10.929258 4.30392,1.732378 9.19729,-0.352537 10.92925,-4.656625 0.38415,-0.961637 0.58717,-1.986015 0.59883,-3.021473 l 8.25505,-7.155834 c 0.2837,0.02524 0.5683,0.03892 0.85312,0.04102 5.79897,0 10.49996,-4.700993 10.49996,-10.499963 0,-5.79897 -4.70099,-10.499963 -10.49996,-10.499963 z m 0,4.199985 c 3.47938,0 6.29997,2.820595 6.29997,6.299978 0,3.479383 -2.82059,6.299978 -6.29997,6.299978 -3.47938,0 -6.29998,-2.820595 -6.29998,-6.299978 0,-3.479383 2.8206,-6.299978 6.29998,-6.299978 z M 21.88056,35.171921 c 0.69465,0.0081 1.38173,0.145283 2.02617,0.404686 2.86955,1.155 4.25915,4.417803 3.1035,7.287085 -1.155,2.869525 -4.41779,4.259121 -7.28708,3.103505 -2.86956,-1.155 -4.25916,-4.417804 -3.10351,-7.287085 0.86249,-2.142318 2.95166,-3.535456 5.26092,-3.508191 z"
       id="path35-6-0" />
    <circle
       style="fill:#ffffff;fill-opacity:1;stroke:none;stroke-width:1.86667;stroke-linecap:round;stroke-linejoin:round;stroke-miterlimit:4;stroke-dasharray:none;stroke-opacity:1"
       cx="39.314869"
       cy="23.271679"
       id="ellipse37-0-9"
       r="4.8999829" />
    <path
       style="fill:#ffffff;fill-opacity:1;stroke:none;stroke-width:1.86667;stroke-linecap:round;stroke-linejoin:round;stroke-miterlimit:4;stroke-dasharray:none;stroke-opacity:1"
       d="M 3.71617,28.962177 A 26.599907,26.599907 0 0 0 3.615,30.971936 26.599907,26.599907 0 0 0 4.69234,38.40941 l 15.55581,6.258962 a 4.1999853,4.1999853 0 0 0 5.46326,-2.329678 4.1999853,4.1999853 0 0 0 -2.32968,-5.463263 z"
       id="path39-6-3" />
  </g>
</svg>
