<?xml version="1.0" encoding="UTF-8" standalone="no"?>
<svg
   width="48"
   height="48"
   version="1.1"
   id="svg14"
   sodipodi:docname="tokodon.svg"
   inkscape:version="1.3.2 (091e20ef0f, 2023-11-25)"
   xmlns:inkscape="http://www.inkscape.org/namespaces/inkscape"
   xmlns:sodipodi="http://sodipodi.sourceforge.net/DTD/sodipodi-0.dtd"
   xmlns:xlink="http://www.w3.org/1999/xlink"
   xmlns="http://www.w3.org/2000/svg"
   xmlns:svg="http://www.w3.org/2000/svg"
   xmlns:rdf="http://www.w3.org/1999/02/22-rdf-syntax-ns#"
   xmlns:cc="http://creativecommons.org/ns#"
   xmlns:dc="http://purl.org/dc/elements/1.1/">
  <sodipodi:namedview
     id="namedview14"
     pagecolor="#ffffff"
     bordercolor="#999999"
     borderopacity="1"
     inkscape:showpageshadow="2"
     inkscape:pageopacity="0"
     inkscape:pagecheckerboard="0"
     inkscape:deskcolor="#d1d1d1"
     inkscape:zoom="5.953125"
     inkscape:cx="26.708661"
     inkscape:cy="42.834646"
     inkscape:window-width="1920"
     inkscape:window-height="994"
     inkscape:window-x="0"
     inkscape:window-y="0"
     inkscape:window-maximized="1"
     inkscape:current-layer="svg14" />
  <metadata
     id="metadata1">
    <rdf:RDF>
      <cc:Work
         rdf:about="">
        <dc:format>image/svg+xml</dc:format>
        <dc:type
           rdf:resource="http://purl.org/dc/dcmitype/StillImage" />
      </cc:Work>
    </rdf:RDF>
  </metadata>
  <defs
     id="defs4">
    <linearGradient
       id="linearGradient1"
       inkscape:collect="always">
      <stop
         style="stop-color:#c83771;stop-opacity:1"
         offset="0"
         id="stop5" />
      <stop
         style="stop-color:#00ccff;stop-opacity:1"
         offset="1"
         id="stop6" />
    </linearGradient>
    <linearGradient
       id="b"
       x1="399.57001"
       x2="399.57001"
       y1="545.79999"
       y2="517.79999"
       gradientTransform="matrix(2.1429,0,0,2.1429,-826.36,-1107.5)"
       gradientUnits="userSpaceOnUse">
      <stop
         stop-color="#3889e9"
         offset="0"
         id="stop1" />
      <stop
         stop-color="#5ea5fb"
         offset="1"
         id="stop2" />
    </linearGradient>
    <linearGradient
       id="linearGradient868"
       x1="55.695"
       x2="11.004"
       y1="53.474998"
       y2="8.7838001"
       gradientTransform="translate(81.114)"
       gradientUnits="userSpaceOnUse">
      <stop
         stop-color="#fa7d37"
         offset="0"
         id="stop3"
         style="stop-color:#00ccff;stop-opacity:1" />
      <stop
         stop-color="#9b32af"
         offset="1"
         id="stop4" />
    </linearGradient>
    <filter
       id="filter858"
       x="-0.035999639"
       y="-0.036000359"
       width="1.0719993"
       height="1.0720007"
       color-interpolation-filters="sRGB">
      <feGaussianBlur
         stdDeviation="0.8999985"
         id="feGaussianBlur4" />
    </filter>
    <linearGradient
       inkscape:collect="always"
       xlink:href="#linearGradient1"
       id="linearGradient6"
       x1="83.133003"
       y1="2.0411856"
       x2="143.11826"
       y2="62.00425"
       gradientUnits="userSpaceOnUse"
       gradientTransform="matrix(0.69971895,0,0,0.69947968,-55.154272,1.6020536)" />
  </defs>
  <path
     d="M 36.760809,7.3330305 Q 34.060104,5.2538272 30.852382,4.1464109 27.537674,3.0011529 23.993667,3.0011529 c -11.594343,0 -20.9936673,9.3954111 -20.9936673,20.9850901 0,10.602713 7.8683393,19.364395 18.0842363,20.780842 0.498312,0.06893 1.003327,0.122304 1.510483,0.153437 0.46271,0.02891 0.927688,0.04892 1.399298,0.04892 11.592244,0 20.98947,-9.395411 20.98947,-20.983691 0,-0.916178 -0.05787,-1.821235 -0.171299,-2.704048 -0.131253,-1.031803 -0.344814,-2.034787 -0.61846,-3.010981 q -0.929857,-3.28 -2.856393,-6.104009 Q 39.43305,9.3848143 36.761103,7.3324709 Z"
     stroke-width="0.697668"
     id="path5"
     style="fill:url(#linearGradient6)" />
  <ellipse
     cx="24.007734"
     cy="24.014912"
     fill-opacity="0"
     stroke-width="1.09942"
     id="circle12"
     rx="20.992268"
     ry="20.98509" />
  <circle
     cx="32.02"
     cy="32.043999"
     r="0"
     fill="url(#b)"
     stroke-width="1.5715"
     id="circle13"
     style="fill:url(#b)" />
  <circle
     cx="-1019.3"
     cy="-1202"
     r="0"
     fill="#5e4aa6"
     id="circle14" />
  <path
     style="opacity:0.2;stroke-width:2.245"
     d="m 29.632733,22.307 c 1.399502,5.97184 3.215252,8.28352 4.500001,8.96 0.47925,0.25088 1.125001,0.38304 1.125001,0.56 0,0.26208 -0.594,0.5488 -1.125001,0.56 -1.27575,0.0269 -5.013001,-3.11584 -7.875001,-6.72 -1.165498,-1.4672 0,-3.36 0,-3.36 z m -11.249998,0 c -1.438203,6.13312 -3.068775,8.32608 -4.500001,8.96 -0.481726,0.2128 -1.125001,0.38976 -1.125001,0.56 0,0.27776 0.587924,0.54656 1.125001,0.56 1.311523,0.0336 4.999274,-3.10016 7.875001,-6.72 1.50525,-1.89728 0,-3.36 0,-3.36 z"
     id="path2-3" />
  <path
     style="fill:#e4e4e4;stroke-width:2.245"
     d="m 29.632733,21.187 c 1.399502,5.97184 3.215252,8.28352 4.500001,8.96 0.47925,0.25088 1.125001,0.38304 1.125001,0.56 0,0.26208 -0.594,0.5488 -1.125001,0.56 -1.27575,0.02693 -5.013001,-3.11584 -7.875001,-6.72 -1.165498,-1.4672 0,-3.36 0,-3.36 z m -11.249998,0 c -1.438203,6.13312 -3.068775,8.32608 -4.500001,8.96 -0.481726,0.2128 -1.125001,0.38976 -1.125001,0.56 0,0.27776 0.587924,0.54656 1.125001,0.56 1.311523,0.0336 4.999274,-3.10016 7.875001,-6.72 1.50525,-1.89728 0,-3.36 0,-3.36 z"
     id="path3" />
  <path
     style="opacity:0.2;stroke-width:2.245"
     d="m 31.882735,12.227 c 3.375,0 5.624999,2.24 5.624999,5.6 v 5.6 c 0,1.18944 -0.983251,2.24 -2.249999,2.24 h -6.75 v 5.6 c 0,1.00576 0.449998,2.24 0.449998,2.24 0.524251,1.16032 1.534502,3.03072 3.116251,3.2032 0.7965,0.08507 1.500749,-0.09625 1.72125,-0.33376 0.12606,-0.1344 0.3375,-0.40768 0.3375,-0.62944 0,-0.39872 0.321751,-1.12 1.125001,-1.12 0.7155,-0.0086 1.124998,0.2912 1.124998,0.7392 0,0.6496 -0.9585,1.25664 -1.124998,1.5008 0,0 0.888748,0.3136 1.124998,0.40544 0.294751,0.112 0.562502,0.47488 0.562502,0.71456 0,0.45248 -0.562502,1.12 -1.125001,1.12 -0.6885,0 -1.088999,-0.7504 -1.6875,-0.56 -1.581749,0.50176 -3.375,0.56 -6.75,0.56 -3.97575,0 -6.671249,-3.04416 -7.393499,-5.44096 -0.481502,-1.59936 -0.481502,-3.37792 -0.481502,-5.75904 v -2.24 h -3.375 c -3.375,0 -5.624999,-3.36 -5.624999,-6.72 v -4.48 c 0,-1.12 1.125001,-2.24 2.249999,-2.24 z"
     id="path4" />
  <path
     style="fill:#383e5c;fill-opacity:1;stroke-width:2.245"
     d="m 31.882735,11.107 c 3.375,0 5.624999,2.24 5.624999,5.6 v 5.6 c 0,1.18944 -0.983251,2.24 -2.249999,2.24 h -6.75 v 5.6 c 0,1.00576 0.449998,2.24 0.449998,2.24 0.524251,1.16032 1.534502,3.03072 3.116251,3.2032 0.7965,0.08506 1.500749,-0.09625 1.72125,-0.33376 0.12606,-0.1344 0.3375,-0.40768 0.3375,-0.62944 0,-0.39872 0.321751,-1.12 1.125001,-1.12 0.7155,-0.0086 1.124998,0.2912 1.124998,0.7392 0,0.6496 -0.9585,1.25664 -1.124998,1.5008 0,0 0.888748,0.3136 1.124998,0.40544 0.294751,0.112 0.562502,0.47488 0.562502,0.71456 0,0.45248 -0.562502,1.12 -1.125001,1.12 -0.6885,0 -1.088999,-0.7504 -1.6875,-0.56 -1.581749,0.50176 -3.375,0.56 -6.75,0.56 -3.97575,0 -6.671249,-3.04416 -7.393499,-5.44096 -0.481502,-1.59936 -0.481502,-3.37792 -0.481502,-5.75904 v -2.24 h -3.375 c -3.375,0 -5.624999,-3.36 -5.624999,-6.72 v -4.48 c 0,-1.12 1.125001,-2.24 2.249999,-2.24 z"
     id="path5-3" />
  <ellipse
     style="opacity:0.1;stroke-width:2.24559"
     cx="-4.4638929"
     cy="34.560356"
     rx="2.4966133"
     ry="1.9625299"
     transform="matrix(0.56108135,-0.82776066,0.89736554,0.44128798,0,0)"
     id="ellipse5" />
  <ellipse
     style="fill:#e4e4e4;stroke-width:2.24559"
     cx="-3.4500108"
     cy="33.926323"
     rx="2.4966133"
     ry="1.9625299"
     transform="matrix(0.56108135,-0.82776066,0.89736554,0.44128798,0,0)"
     id="ellipse6" />
  <ellipse
     style="opacity:0.1;stroke-width:2.24559"
     cx="-25.859573"
     cy="-5.5693974"
     rx="2.4966133"
     ry="1.9625299"
     transform="matrix(-0.56108135,-0.82776066,-0.89736554,0.44128798,0,0)"
     id="ellipse7" />
  <ellipse
     style="fill:#e4e4e4;stroke-width:2.24559"
     cx="-24.843349"
     cy="-6.2055907"
     rx="2.4966133"
     ry="1.9625299"
     transform="matrix(-0.56108135,-0.82776066,-0.89736554,0.44128798,0,0)"
     id="ellipse8" />
  <path
     style="opacity:0.1;fill:#ffffff;stroke-width:2.245"
     d="m 12.757733,11.107 c -1.124998,0 -2.249999,1.12 -2.249999,2.24 v 1.12 c 0,-1.12 1.125001,-2.24 2.249999,-2.24 h 19.125002 c 3.375,0 5.624999,2.24 5.624999,5.6 v -1.12 c 0,-3.36 -2.249999,-5.6 -5.624999,-5.6 z m 15.750002,19.04 v 1.12 c 0,1.00576 0.447749,2.24 0.447749,2.24 0.524251,1.16032 1.539,3.03072 3.120749,3.2032 0.7965,0.08507 1.4985,-0.09625 1.719001,-0.33376 0.12606,-0.1344 0.3375,-0.40768 0.3375,-0.62944 0,-0.39872 0.321751,-1.12 1.125001,-1.12 0.38475,-0.0041 0.679498,0.0829 0.87075,0.23296 0.143983,-0.194892 0.254248,-0.40096 0.254248,-0.61376 0,-0.448 -0.409498,-0.74816 -1.124998,-0.7392 -0.80325,0 -1.125001,0.72128 -1.125001,1.12 0,0.221758 -0.211485,0.49504 -0.3375,0.62944 -0.220493,0.23744 -0.922501,0.41888 -1.719001,0.33376 -1.581749,-0.172535 -2.596498,-2.04288 -3.120749,-3.2032 0,0 -0.447749,-1.23424 -0.447749,-2.24 z m 7.575749,5.89792 c -0.294751,0.36512 -0.720001,0.66752 -0.825749,0.82208 0,0 0.888748,0.31584 1.124998,0.40768 0.110198,0.0403 0.209184,0.120952 0.299252,0.2128 0.159748,-0.2016 0.26325,-0.42784 0.26325,-0.62048 0,-0.23968 -0.267751,-0.60032 -0.562502,-0.71232 -0.06294,-0.02468 -0.173305,-0.06493 -0.299249,-0.109708 z"
     id="path9" />
</svg>
