<?xml version="1.0" encoding="UTF-8" standalone="no"?>
<svg
   width="48"
   height="48"
   version="1.1"
   id="svg8397"
   sodipodi:docname="waterfox.svg"
   inkscape:version="1.3.2 (091e20ef0f, 2023-11-25)"
   xmlns:inkscape="http://www.inkscape.org/namespaces/inkscape"
   xmlns:sodipodi="http://sodipodi.sourceforge.net/DTD/sodipodi-0.dtd"
   xmlns="http://www.w3.org/2000/svg"
   xmlns:svg="http://www.w3.org/2000/svg">
  <sodipodi:namedview
     id="namedview8399"
     pagecolor="#ffffff"
     bordercolor="#666666"
     borderopacity="1.0"
     inkscape:showpageshadow="2"
     inkscape:pageopacity="0.0"
     inkscape:pagecheckerboard="0"
     inkscape:deskcolor="#d1d1d1"
     showgrid="false"
     inkscape:zoom="4.9166667"
     inkscape:cx="24.20339"
     inkscape:cy="-24.711864"
     inkscape:window-width="1920"
     inkscape:window-height="994"
     inkscape:window-x="0"
     inkscape:window-y="0"
     inkscape:window-maximized="1"
     inkscape:current-layer="svg8397" />
  <defs
     id="defs8295">
    <linearGradient
       id="a"
       y1="543.8"
       y2="503.8"
       x2="0"
       gradientUnits="userSpaceOnUse"
       gradientTransform="matrix(1,0,0,0.9,-470.07432,-455.58927)">
      <stop
         stop-color="#1d1e1e"
         id="stop8285" />
      <stop
         offset="1"
         stop-color="#44484c"
         id="stop8287" />
    </linearGradient>
    <linearGradient
       id="b"
       y1="44"
       y2="4"
       x2="0"
       gradientUnits="userSpaceOnUse"
       gradientTransform="translate(-85.50432,-10.16927)">
      <stop
         stop-color="#c6cdd1"
         id="stop8290" />
      <stop
         offset="1"
         stop-color="#e0e5e7"
         id="stop8292" />
    </linearGradient>
    <linearGradient
       gradientTransform="matrix(1.0499636,0,0,1.0499041,-452.98542,-525.93792)"
       gradientUnits="userSpaceOnUse"
       x2="426.69501"
       y2="499.92099"
       y1="547.67499"
       id="a-6"
       x1="389.32001">
      <stop
         stop-color="#18222a"
         style="stop-color:#1e2b35;stop-opacity:1"
         id="stop216" />
      <stop
         stop-color="#566069"
         offset="1"
         style="stop-color:#6d7983;stop-opacity:1"
         id="stop218" />
    </linearGradient>
    <linearGradient
       id="paint0_linear-3"
       x1="51"
       y1="10"
       x2="11"
       y2="50"
       gradientUnits="userSpaceOnUse"
       gradientTransform="matrix(0.66000112,0,0,0.66000112,4.1270676,5.6818615)">
      <stop
         stop-color="#6EB4D9"
         id="stop229" />
      <stop
         offset="1"
         stop-color="#004E6E"
         id="stop231" />
    </linearGradient>
    <linearGradient
       id="paint1_linear-6"
       x1="8"
       y1="8"
       x2="48"
       y2="48"
       gradientUnits="userSpaceOnUse"
       gradientTransform="matrix(0.66000112,0,0,0.66000112,4.1270676,5.6818615)">
      <stop
         stop-color="#44F0D3"
         id="stop234" />
      <stop
         offset="1"
         stop-color="#3DAEE9"
         id="stop236" />
    </linearGradient>
    <linearGradient
       id="c"
       y1="503.79999"
       x1="388.57001"
       y2="533.79999"
       x2="418.57001"
       gradientUnits="userSpaceOnUse"
       gradientTransform="translate(-359.57,-505.8)">
      <stop
         stop-color="#292c2f"
         id="stop1743" />
      <stop
         offset="1"
         stop-opacity="0"
         id="stop1745" />
    </linearGradient>
    <linearGradient
       id="b-1"
       y1="515.79999"
       y2="509.79999"
       x2="0"
       gradientUnits="userSpaceOnUse"
       gradientTransform="translate(-366.76287,-500.51813)">
      <stop
         stop-color="#c61423"
         id="stop1738-2" />
      <stop
         offset="1"
         stop-color="#dc2b41"
         id="stop1740-7" />
    </linearGradient>
    <linearGradient
       id="d-0"
       y1="9"
       y2="5"
       x2="0"
       gradientUnits="userSpaceOnUse"
       gradientTransform="translate(-7.1928639,5.2818735)">
      <stop
         stop-color="#f7aeb4"
         id="stop1748-9" />
      <stop
         offset="1"
         stop-color="#f8d4d9"
         id="stop1750-3" />
    </linearGradient>
  </defs>
  <rect
     width="41.99855"
     x="-44.999847"
     y="3.0037899"
     rx="20.999275"
     height="41.99617"
     transform="scale(-1,1)"
     style="display:inline;overflow:visible;fill:url(#a-6);stroke-width:2.93982;stroke-opacity:0.55"
     id="rect223"
     ry="20.998085" />
  <path
     style="display:inline;overflow:visible;opacity:0.3;fill:#000000;fill-opacity:1;stroke-width:2.93982;stroke-opacity:0.55"
     d="m 3.0127616,23.476967 c -0.004,0.175027 -0.01261,0.349056 -0.01261,0.525083 0,11.633027 9.3657024,20.998098 20.9992164,20.998098 11.63352,0 20.999364,-9.365071 20.999364,-20.998098 0,-0.176027 -0.008,-0.349055 -0.0126,-0.525083 -0.2773,11.38829 -9.533764,20.473116 -20.986754,20.473116 -11.457195,0 -20.7094574,-9.084826 -20.9866174,-20.473116"
     id="path225" />
  <path
     d="m 3.0127616,24.523032 c -0.004,-0.175027 -0.01261,-0.348055 -0.01261,-0.525083 0,-11.632926 9.3657024,-20.9980975 20.9992164,-20.9980975 11.63352,0 20.999364,9.3651715 20.999364,20.9980975 0,0.176028 -0.008,0.350056 -0.0126,0.525083 -0.2773,-11.388288 -9.533764,-20.4731155 -20.986754,-20.4731155 -11.457195,0 -20.7094574,9.0848275 -20.9866174,20.4731155"
     style="display:inline;overflow:visible;opacity:0.3;fill:#ffffff;fill-opacity:1;stroke-width:2.93982;stroke-opacity:0.55"
     id="path229" />
  <g
     transform="matrix(2.429423,0,0,2.4751886,3.4118162,-690.14736)"
     id="g8">
    <path
       fill="#03adeb"
       d="m -112.36,264.53 c 0.737,0 1.505,0.666 1.503,1.403 l -0.022,6.612 c -0.002,0.736 -0.717,1.173 -1.454,1.173 -0.737,0 -1.457,-0.621 -1.458,-1.358 l -0.008,-6.366 c -10e-4,-0.737 0.702,-1.464 1.439,-1.464 z"
       style="paint-order:normal"
       transform="matrix(0.92176,-0.38775,0.4003,0.91639,0,0)"
       id="path1" />
    <path
       fill="#559def"
       d="m 14.627,285.98 c -0.679,-0.286 -1.654,0.027 -1.947,0.703 l -2.627,6.067 c -0.293,0.676 0.18,1.449 0.86,1.734 0.678,0.286 1.603,-0.099 1.899,-0.774 l 2.556,-5.83 c 0.295,-0.675 -0.062,-1.614 -0.741,-1.9 z"
       style="paint-order:normal"
       id="path2" />
    <path
       fill="#0cccfd"
       d="m 9.479,286.92 c 0.748,0.973 1.31,2.108 1.726,2.824 0.417,0.715 0.488,0.866 0.805,1.451 0.317,0.586 1.03,1.065 1.758,0.334 -0.065,0.167 -0.639,1.58 -0.928,2.164 -0.192,0.39 -0.318,0.524 -0.658,0.717 -0.641,0.362 -1.618,0.138 -1.992,-0.496 L 6.96,288.44 c 1.153,-0.695 1.324,-0.837 2.519,-1.52 z"
       style="paint-order:normal"
       id="path3" />
    <path
       fill="#1ee2fd"
       d="m 9.711,285.37 c -0.802,0.16 -1.789,0.93 -2.238,1.514 -0.749,0.972 -1.31,2.108 -1.726,2.823 -0.417,0.716 -0.488,0.866 -0.805,1.452 -0.318,0.585 -1.048,1.068 -1.776,0.337 0.065,0.166 0.656,1.576 0.945,2.161 0.193,0.39 0.319,0.524 0.659,0.716 0.641,0.362 1.618,0.139 1.992,-0.496 l 3.23,-5.473 a 7.168,7.168 0 0 1 1.05,-1.347 c 0.544,-0.548 1.199,-0.852 0.977,-1.206 -0.477,-0.76 -1.475,-0.652 -2.277,-0.491 z"
       style="paint-order:normal"
       id="path4" />
    <path
       fill="#41f3fd"
       d="m 5.801,287.44 c -0.456,-0.165 -0.829,-0.494 -0.88,-1.114 -0.051,-0.619 0.317,-1.063 0.743,-1.042 0.426,0.021 0.57,0.378 0.472,0.71 -0.1,0.331 -0.2,0.457 -0.262,0.686 -0.062,0.229 -0.064,0.47 -0.073,0.76 z"
       id="path5" />
    <path
       fill="#66efff"
       d="m 7,286.19 c -0.386,-0.658 -0.283,-1.404 -0.06,-1.954 0.225,-0.55 0.764,-1.16 1.362,-1.32 0.598,-0.16 1.142,-0.074 1.387,0.535 0.244,0.608 -0.286,1.36 -0.92,1.536 -0.634,0.176 -1.218,0.516 -1.77,1.203 z"
       id="path6" />
    <circle
       cx="11.342"
       cy="283.14001"
       r="0.67699999"
       fill="#66efff"
       style="paint-order:normal"
       id="circle6" />
    <path
       fill="#bdfdfe"
       d="m 40.379,19.467 c -1.243,-10e-4 -2.518,0.19 -3.654,0.418 -1.427,0.286 -3.009,1.124 -4.465,2.152 -1.004,1.25 -1.745,2.742 -1.856,4.46 -0.296,3.455 2.104,4.213 4.188,2.437 0.319,-0.272 0.498,-0.501 0.687,-0.713 0.898,-0.833 6.312,-2.926 9.768,-4.7 0.585,-0.598 0.873,-1.146 0.516,-1.716 -1.126,-1.797 -3.112,-2.336 -5.184,-2.338 z"
       style="paint-order:normal"
       transform="matrix(0.26458,0,0,0.26458,0,280.07)"
       id="path7" />
    <path
       fill="#bdfdfe"
       d="m 44.643,21.932 a 3.87,3.87 0 0 0 -0.57,0.002 c -2.72,0.204 -6.19,3.027 -7.534,4.61 a 25.47,25.47 0 0 0 -1.248,1.648 c 0.964,1.455 2.68,1.677 4.395,0.562 a 27.47,27.47 0 0 1 2.05,-2.338 c 1.862,-1.876 4.174,-3.042 3.968,-4.24 a 3.59,3.59 0 0 0 -1.06,-0.244 z"
       style="paint-order:normal"
       transform="matrix(0.26458,0,0,0.26458,0,280.07)"
       id="path8" />
  </g>
</svg>
