<?xml version="1.0" encoding="UTF-8" standalone="no"?>
<svg
   width="48"
   height="48"
   version="1.1"
   id="svg8"
   sodipodi:docname="yubikey-neo-manager.svg"
   inkscape:version="1.4.1 (unknown)"
   xmlns:inkscape="http://www.inkscape.org/namespaces/inkscape"
   xmlns:sodipodi="http://sodipodi.sourceforge.net/DTD/sodipodi-0.dtd"
   xmlns="http://www.w3.org/2000/svg"
   xmlns:svg="http://www.w3.org/2000/svg">
  <defs
     id="defs8" />
  <sodipodi:namedview
     id="namedview8"
     pagecolor="#ffffff"
     bordercolor="#000000"
     borderopacity="0.25"
     inkscape:showpageshadow="2"
     inkscape:pageopacity="0.0"
     inkscape:pagecheckerboard="0"
     inkscape:deskcolor="#d1d1d1"
     inkscape:zoom="11.71875"
     inkscape:cx="22.912"
     inkscape:cy="28.501333"
     inkscape:window-width="1920"
     inkscape:window-height="996"
     inkscape:window-x="0"
     inkscape:window-y="0"
     inkscape:window-maximized="1"
     inkscape:current-layer="svg8" />
  <g
     id="g1"
     transform="translate(-2e-6,0.5)">
    <path
       style="opacity:0.2;stroke-width:0.732568"
       d="M 24.008652,3.7326854 A 20.50865,20.515193 0 0 0 3.500002,24.247879 20.50865,20.515193 0 0 0 24.008652,44.763072 20.50865,20.515193 0 0 0 44.517302,24.247879 20.50865,20.515193 0 0 0 24.008652,3.7326854 Z"
       id="path1" />
    <path
       style="fill:#9aca3c;stroke-width:0.732568"
       d="M 24.008652,3 A 20.50865,20.515193 0 0 0 3.500002,23.515193 20.50865,20.515193 0 0 0 24.008652,44.030387 20.50865,20.515193 0 0 0 44.517302,23.515193 20.50865,20.515193 0 0 0 24.008652,3 Z"
       id="path2" />
    <path
       style="opacity:0.2;fill:#ffffff;stroke-width:0.732568"
       d="M 24.008652,3 A 20.50865,20.515193 0 0 0 3.500002,23.515193 20.50865,20.515193 0 0 0 3.5157377,23.812847 20.50865,20.515193 0 0 1 24.008651,3.7326854 20.50865,20.515193 0 0 1 44.501565,23.938777 20.50865,20.515193 0 0 0 44.5173,23.515193 20.50865,20.515193 0 0 0 24.00865,3 Z"
       id="path7" />
    <g
       id="g8"
       transform="matrix(0.74160783,0,0,0.74576922,-25.739038,8.1627623)">
      <circle
         style="opacity:0.2;stroke-width:0.848488"
         cx="84.679054"
         cy="38.500999"
         r="13.575751"
         id="circle7" />
      <circle
         style="fill:#9739d9;stroke-width:0.848488"
         cx="84.679054"
         cy="37.652504"
         r="13.575751"
         id="circle8" />
      <path
         style="fill:none;stroke:#ffffff;stroke-width:3.39396;stroke-linecap:round;stroke-linejoin:round"
         d="M 79.588134,43.591896 V 31.71311 l 10.18181,11.878786 V 31.71311"
         id="path8" />
    </g>
    <path
       d="M 24.182236,23.240014 28.174674,11.94923 h 5.901861 L 24.182236,35.813842 H 18.019998 L 20.884137,29.22755 13.940769,11.94923 h 5.988653 z"
       fill="#98c93c"
       id="path1-3-6"
       style="fill:#ffffff;fill-opacity:1;stroke:#ffffff;stroke-width:0.0861624;stroke-opacity:1" />
  </g>
</svg>
