<?xml version="1.0" encoding="UTF-8" standalone="no"?>
<svg
   xmlns:dc="http://purl.org/dc/elements/1.1/"
   xmlns:cc="http://creativecommons.org/ns#"
   xmlns:rdf="http://www.w3.org/1999/02/22-rdf-syntax-ns#"
   xmlns:svg="http://www.w3.org/2000/svg"
   xmlns="http://www.w3.org/2000/svg"
   xmlns:xlink="http://www.w3.org/1999/xlink"
   xmlns:sodipodi="http://sodipodi.sourceforge.net/DTD/sodipodi-0.dtd"
   xmlns:inkscape="http://www.inkscape.org/namespaces/inkscape"
   width="48"
   height="48"
   version="1.1"
   id="svg22"
   sodipodi:docname="zim.svg"
   inkscape:version="0.92.3 (2405546, 2018-03-11)">
  <metadata
     id="metadata26">
    <rdf:RDF>
      <cc:Work
         rdf:about="">
        <dc:format>image/svg+xml</dc:format>
        <dc:type
           rdf:resource="http://purl.org/dc/dcmitype/StillImage" />
        <dc:title />
      </cc:Work>
    </rdf:RDF>
  </metadata>
  <sodipodi:namedview
     pagecolor="#ffffff"
     bordercolor="#666666"
     borderopacity="1"
     objecttolerance="10"
     gridtolerance="10"
     guidetolerance="10"
     inkscape:pageopacity="0"
     inkscape:pageshadow="2"
     inkscape:window-width="1920"
     inkscape:window-height="1026"
     id="namedview24"
     showgrid="false"
     inkscape:zoom="12.239653"
     inkscape:cx="-17.094201"
     inkscape:cy="25.854022"
     inkscape:window-x="0"
     inkscape:window-y="30"
     inkscape:window-maximized="1"
     inkscape:current-layer="svg22">
    <inkscape:grid
       type="xygrid"
       id="grid879" />
  </sodipodi:namedview>
  <defs
     id="defs12">
    <linearGradient
       inkscape:collect="always"
       id="linearGradient975">
      <stop
         style="stop-color:#000000;stop-opacity:1;"
         offset="0"
         id="stop971" />
      <stop
         style="stop-color:#000000;stop-opacity:0;"
         offset="1"
         id="stop973" />
    </linearGradient>
    <linearGradient
       inkscape:collect="always"
       id="linearGradient955">
      <stop
         style="stop-color:#0c58b3;stop-opacity:1;"
         offset="0"
         id="stop951" />
      <stop
         style="stop-color:#59a0f4;stop-opacity:1"
         offset="1"
         id="stop953" />
    </linearGradient>
    <linearGradient
       inkscape:collect="always"
       id="linearGradient947">
      <stop
         style="stop-color:#0f7f0f;stop-opacity:1;"
         offset="0"
         id="stop943" />
      <stop
         style="stop-color:#38d738;stop-opacity:1"
         offset="1"
         id="stop945" />
    </linearGradient>
    <linearGradient
       inkscape:collect="always"
       id="linearGradient859">
      <stop
         style="stop-color:#c51818;stop-opacity:1;"
         offset="0"
         id="stop855" />
      <stop
         style="stop-color:#ec5f5f;stop-opacity:1"
         offset="1"
         id="stop857" />
    </linearGradient>
    <linearGradient
       id="b"
       y1="503.8"
       y2="543.8"
       x2="0"
       gradientUnits="userSpaceOnUse"
       gradientTransform="matrix(0.8,0,0,0.8,-302.85601,-395.0404)">
      <stop
         stop-color="#abf9c7"
         id="stop7" />
      <stop
         offset="1"
         stop-color="#54d883"
         id="stop9" />
    </linearGradient>
    <linearGradient
       inkscape:collect="always"
       xlink:href="#linearGradient859"
       id="linearGradient861"
       x1="24.907162"
       y1="6.2241378"
       x2="24.684351"
       y2="3.1737401"
       gradientUnits="userSpaceOnUse" />
    <linearGradient
       inkscape:collect="always"
       xlink:href="#linearGradient859"
       id="linearGradient865"
       gradientUnits="userSpaceOnUse"
       x1="24.907162"
       y1="6.2241378"
       x2="24.684351"
       y2="3.1737401"
       gradientTransform="translate(-17,3)" />
    <linearGradient
       inkscape:collect="always"
       xlink:href="#linearGradient859"
       id="linearGradient871"
       gradientUnits="userSpaceOnUse"
       x1="24.907162"
       y1="6.2241378"
       x2="24.684351"
       y2="3.1737401"
       gradientTransform="translate(4.0000009,38.999998)" />
    <linearGradient
       inkscape:collect="always"
       xlink:href="#linearGradient859"
       id="linearGradient873"
       gradientUnits="userSpaceOnUse"
       gradientTransform="translate(-17,34)"
       x1="24.907162"
       y1="6.2241378"
       x2="24.684351"
       y2="3.1737401" />
    <linearGradient
       inkscape:collect="always"
       xlink:href="#linearGradient859"
       id="linearGradient877"
       gradientUnits="userSpaceOnUse"
       gradientTransform="translate(17.000002,32.999996)"
       x1="24.907162"
       y1="6.2241378"
       x2="24.684351"
       y2="3.1737401" />
    <linearGradient
       inkscape:collect="always"
       xlink:href="#linearGradient947"
       id="linearGradient949"
       x1="14"
       y1="59.53239"
       x2="24"
       y2="59.53239"
       gradientUnits="userSpaceOnUse"
       gradientTransform="matrix(-0.30469166,-0.30469166,0.30469166,-0.30469166,25.908714,32.669568)" />
    <linearGradient
       inkscape:collect="always"
       xlink:href="#linearGradient955"
       id="linearGradient957"
       x1="32.4091"
       y1="41.578114"
       x2="19.773001"
       y2="4.4510002"
       gradientUnits="userSpaceOnUse"
       gradientTransform="matrix(0.8,0,0,0.8,4.7999943,4.7996049)" />
    <linearGradient
       inkscape:collect="always"
       xlink:href="#linearGradient975"
       id="linearGradient977"
       x1="22.252415"
       y1="24.138201"
       x2="32.488689"
       y2="34.374477"
       gradientUnits="userSpaceOnUse" />
  </defs>
  <path
     id="path889"
     style="fill:none;stroke:#840000;stroke-width:1px;stroke-linecap:butt;stroke-linejoin:miter;stroke-opacity:1"
     d="m 41,37 -8,-3 m -8,3 3,7 M 13,31 7,38 M 13,14 7,8 m 16.5,4 V 5" />
  <rect
     style="fill:url(#linearGradient957);fill-opacity:1;stroke-width:0.80000001"
     id="rect14"
     height="32"
     rx="16"
     y="7.9995952"
     x="8"
     width="32" />
  <path
     inkscape:connector-curvature="0"
     style="fill:url(#b);fill-rule:evenodd;stroke-width:0.80000001"
     id="path16"
     d="m 23.999994,7.9996049 c -1.1616,0 -2.2912,0.128 -3.3816,0.3608 l -1.4184,2.8392001 -2.144,-1.6080001 c -3.8448,1.8488001 -6.8232,5.1776001 -8.2031997,9.2672001 l 3.1471997,-1.2592 2.4,1.6 0.8,-2.4 10.4,-5.6 -0.6344,-3.1688001 c -0.32,-0.0192 -0.6408,-0.0312 -0.9656,-0.0312 m 11.8488,5.2544001 -0.6488,1.9456 0.8,0.8 -3.2,4.8 1.6,5.6 5.3064,0.664 c 0.1912,-0.9912 0.2936,-2.0152 0.2936,-3.064 0,-2.74 -0.6856,-5.3128 -1.8888,-7.5624 l -1.3112,-0.4376 0.4768,-0.9544 c -0.428,-0.6352 -0.9152,-1.2248 -1.428,-1.7904 m -27.5311997,7.5456 c -0.1768,0.8768 -0.2768,1.7816 -0.3048,2.7048 l 5.5871997,2.0952 -0.8,-2.4 -1.6,-2.4 z m 5.2831997,4.8 4,9.6 v 3.4704 c 1.9592,0.852 4.1208,1.3296 6.4,1.3296 0.1592,0 0.316,-0.0064 0.4736,-0.0112 l 5.1264,-8.7888 -12.8,-7.2 z" />
  <rect
     style="opacity:1;fill:url(#linearGradient861);fill-opacity:1;stroke:none;stroke-width:0.82575923;stroke-linecap:round;stroke-linejoin:round;stroke-miterlimit:4;stroke-dasharray:1.65151843, 0.82575922000000002;stroke-dashoffset:0;stroke-opacity:1;paint-order:normal"
     id="rect853"
     width="8"
     height="3"
     x="20"
     y="3" />
  <rect
     y="6"
     x="3"
     height="3"
     width="8"
     id="rect863"
     style="opacity:1;fill:url(#linearGradient865);fill-opacity:1;stroke:none;stroke-width:0.82575923;stroke-linecap:round;stroke-linejoin:round;stroke-miterlimit:4;stroke-dasharray:1.65151843, 0.82575922;stroke-dashoffset:0;stroke-opacity:1;paint-order:normal" />
  <rect
     y="42"
     x="24"
     height="3"
     width="8"
     id="rect867"
     style="opacity:1;fill:url(#linearGradient871);fill-opacity:1;stroke:none;stroke-width:0.82575923;stroke-linecap:round;stroke-linejoin:round;stroke-miterlimit:4;stroke-dasharray:1.65151843, 0.82575922;stroke-dashoffset:0;stroke-opacity:1;paint-order:normal" />
  <rect
     style="opacity:1;fill:url(#linearGradient873);fill-opacity:1;stroke:none;stroke-width:0.82575923;stroke-linecap:round;stroke-linejoin:round;stroke-miterlimit:4;stroke-dasharray:1.65151843, 0.82575922;stroke-dashoffset:0;stroke-opacity:1;paint-order:normal"
     id="rect869"
     width="8"
     height="3"
     x="3"
     y="37" />
  <rect
     style="opacity:1;fill:url(#linearGradient877);fill-opacity:1;stroke:none;stroke-width:0.82575923;stroke-linecap:round;stroke-linejoin:round;stroke-miterlimit:4;stroke-dasharray:1.65151843, 0.82575922;stroke-dashoffset:0;stroke-opacity:1;paint-order:normal"
     id="rect875"
     width="8"
     height="3"
     x="37"
     y="36" />
  <path
     style="opacity:0.3;fill:url(#linearGradient977);fill-opacity:1;stroke:none;stroke-width:0.75658029;stroke-linecap:round;stroke-linejoin:round;stroke-miterlimit:4;stroke-dasharray:1.51316063, 0.75658031999999986;stroke-dashoffset:0;stroke-opacity:1;paint-order:normal"
     d="m 34.503906,11.929688 -3.892578,3.892578 -2.42954,0.766606 -5.929835,7.5498 12.083985,12.083984 C 37.801486,33.29221 40,28.914561 40,24 40,19.167369 37.869728,14.858664 34.503906,11.929688 Z"
     id="rect959"
     inkscape:connector-curvature="0"
     sodipodi:nodetypes="cccccsc" />
  <g
     transform="matrix(0.8,0,0,0.8,4.7999943,4.7996049)"
     id="g968" />
  <path
     inkscape:connector-curvature="0"
     style="fill:#ffd804;fill-opacity:1;stroke-width:0.86179817;stroke-linejoin:bevel"
     id="path61"
     d="m 22.861797,24.747585 a 0.86179816,0.86179816 0 0 0 1.218767,0 0.86179816,0.86179816 0 0 0 0.23804,-0.759349 c 1.794558,-0.900916 4.813748,-2.287568 6.465177,-2.287568 0,0 0.609383,-3.046916 1.82815,-4.265683 l -3.046917,-3.046917 c -1.218767,1.218767 -4.265683,1.82815 -4.265683,1.82815 0,1.651429 -1.384215,4.666963 -2.288539,6.462815 a 0.86179816,0.86179816 0 0 0 -0.758378,0.240402 0.86179816,0.86179816 0 0 0 0,1.218767 l 5.566717,-5.566717 c -0.07953,-0.297074 0.0055,-0.614258 0.222425,-0.831808 0.336684,-0.336685 0.882082,-0.336685 1.218766,0 0.336685,0.336684 0.336685,0.882082 0,1.218766 -0.21755,0.216941 -0.534429,0.301645 -0.831503,0.222121 l -4.348255,4.348254 z" />
  <path
     d="m 32.611931,17.434985 -3.046917,-3.046917 c -0.253199,-0.253198 -0.253199,-0.660876 0,-0.914075 0.253199,-0.253198 0.660876,-0.253198 0.914075,0 l 3.046916,3.046917 c 0.253199,0.253199 0.253199,0.660876 0,0.914075 -0.253198,0.253199 -0.660876,0.253199 -0.914074,0"
     id="path63"
     style="fill:#edc20b;fill-opacity:1;stroke-width:2.67157412;stroke-linejoin:bevel"
     inkscape:connector-curvature="0" />
  <path
     style="fill:url(#linearGradient949);fill-opacity:1;stroke-width:2.67157412;stroke-linecap:round;stroke-linejoin:bevel"
     d="m 33.526005,16.52091 -3.046916,-3.046917 1.523458,-1.523458 c 19.703857,-15.7051231 13.90315,-8.5907492 3.046917,3.046917 z"
     id="rect65"
     inkscape:connector-curvature="0"
     sodipodi:nodetypes="ccccc" />
  <path
     style="fill:#000000;fill-opacity:1;stroke-width:0.80000001;opacity:0.2"
     d="M 8.0253906 23.5 C 8.0202495 23.667553 8 23.831155 8 24 C 8 32.864 15.136 40 24 40 C 32.864 40 40 32.864 40 24 C 40 23.831155 39.97975 23.667553 39.974609 23.5 C 39.709854 32.128653 32.695155 39 24 39 C 15.304845 39 8.2901455 32.128653 8.0253906 23.5 z "
     id="rect857" />
</svg>
