<?xml version="1.0" encoding="UTF-8" standalone="no"?>
<!-- Created with Inkscape (http://www.inkscape.org/) -->

<svg
   width="48"
   height="48"
   viewBox="0 0 48 48"
   version="1.1"
   id="svg8"
   inkscape:version="1.3.2 (091e20ef0f, 2023-11-25)"
   sodipodi:docname="rhythmbox.svg"
   xmlns:inkscape="http://www.inkscape.org/namespaces/inkscape"
   xmlns:sodipodi="http://sodipodi.sourceforge.net/DTD/sodipodi-0.dtd"
   xmlns:xlink="http://www.w3.org/1999/xlink"
   xmlns="http://www.w3.org/2000/svg"
   xmlns:svg="http://www.w3.org/2000/svg"
   xmlns:rdf="http://www.w3.org/1999/02/22-rdf-syntax-ns#"
   xmlns:cc="http://creativecommons.org/ns#"
   xmlns:dc="http://purl.org/dc/elements/1.1/">
  <defs
     id="defs2">
    <linearGradient
       inkscape:collect="always"
       id="linearGradient842">
      <stop
         style="stop-color:#ffffff;stop-opacity:1"
         offset="0"
         id="stop838" />
      <stop
         style="stop-color:#e4e4e4;stop-opacity:1"
         offset="1"
         id="stop840" />
    </linearGradient>
    <linearGradient
       inkscape:collect="always"
       xlink:href="#linearGradient842"
       id="linearGradient844"
       x1="9.7574968"
       y1="280.90738"
       x2="9.3091936"
       y2="296.54614"
       gradientUnits="userSpaceOnUse" />
    <linearGradient
       inkscape:collect="always"
       xlink:href="#linearGradient6386"
       id="linearGradient6388"
       x1="735.66742"
       y1="660.83142"
       x2="735.66742"
       y2="388.10217"
       gradientUnits="userSpaceOnUse"
       gradientTransform="matrix(0.12827737,0,0,0.12827737,-67.712671,236.11997)" />
    <linearGradient
       inkscape:collect="always"
       id="linearGradient6386">
      <stop
         style="stop-color:#f2b187;stop-opacity:1"
         offset="0"
         id="stop6382" />
      <stop
         style="stop-color:#ec908c;stop-opacity:1;"
         offset="0.54933107"
         id="stop23871" />
      <stop
         style="stop-color:#ec8f8b;stop-opacity:1;"
         offset="0.8804239"
         id="stop23677" />
      <stop
         style="stop-color:#de6865;stop-opacity:1"
         offset="1"
         id="stop6384" />
    </linearGradient>
    <linearGradient
       inkscape:collect="always"
       xlink:href="#linearGradient26704"
       id="linearGradient26784"
       gradientUnits="userSpaceOnUse"
       x1="722.4295"
       y1="521.9483"
       x2="731.73212"
       y2="556.66614"
       gradientTransform="matrix(0.12827737,0,0,0.12827737,-67.712671,236.11997)" />
    <linearGradient
       inkscape:collect="always"
       id="linearGradient26704">
      <stop
         style="stop-color:#f2bd9a;stop-opacity:0"
         offset="0"
         id="stop26700" />
      <stop
         style="stop-color:#1631cf;stop-opacity:0.61176471;"
         offset="0.10469195"
         id="stop26980" />
      <stop
         style="stop-color:#003cf2;stop-opacity:0.00045954"
         offset="1"
         id="stop26702" />
    </linearGradient>
    <linearGradient
       inkscape:collect="always"
       xlink:href="#linearGradient25252"
       id="linearGradient25254"
       x1="748.22168"
       y1="404.50122"
       x2="734.85419"
       y2="538.79596"
       gradientUnits="userSpaceOnUse"
       gradientTransform="matrix(0.12827737,0,0,0.12827737,-67.712671,236.11997)" />
    <linearGradient
       inkscape:collect="always"
       id="linearGradient25252">
      <stop
         style="stop-color:#f2b187;stop-opacity:1;"
         offset="0"
         id="stop25248" />
      <stop
         style="stop-color:#f2a472;stop-opacity:1"
         offset="1"
         id="stop25250" />
    </linearGradient>
    <linearGradient
       inkscape:collect="always"
       xlink:href="#linearGradient25530"
       id="linearGradient25532"
       x1="740.75671"
       y1="450.95929"
       x2="687.04364"
       y2="584.65771"
       gradientUnits="userSpaceOnUse"
       gradientTransform="matrix(0.12827737,0,0,0.12827737,-67.712671,236.11997)" />
    <linearGradient
       inkscape:collect="always"
       id="linearGradient25530">
      <stop
         style="stop-color:#f2bd9a;stop-opacity:1;"
         offset="0"
         id="stop25526" />
      <stop
         style="stop-color:#f26000;stop-opacity:0.25890476"
         offset="1"
         id="stop25528" />
    </linearGradient>
    <linearGradient
       inkscape:collect="always"
       xlink:href="#linearGradient26428"
       id="linearGradient26430"
       x1="746.40808"
       y1="555.41046"
       x2="681.24591"
       y2="574.94653"
       gradientUnits="userSpaceOnUse"
       gradientTransform="matrix(0.12827737,0,0,0.12827737,-67.712671,236.11997)" />
    <linearGradient
       inkscape:collect="always"
       id="linearGradient26428">
      <stop
         style="stop-color:#f2bd9a;stop-opacity:0.69014871"
         offset="0"
         id="stop26424" />
      <stop
         style="stop-color:#f2bd9a;stop-opacity:0;"
         offset="1"
         id="stop26426" />
    </linearGradient>
    <linearGradient
       inkscape:collect="always"
       xlink:href="#linearGradient30948"
       id="linearGradient30950"
       x1="674.57922"
       y1="450.78961"
       x2="786.78943"
       y2="568.28052"
       gradientUnits="userSpaceOnUse"
       gradientTransform="matrix(0.12827737,0,0,0.12827737,-67.712671,236.11997)" />
    <linearGradient
       inkscape:collect="always"
       id="linearGradient30948">
      <stop
         style="stop-color:#ffd14b;stop-opacity:1;"
         offset="0"
         id="stop30944" />
      <stop
         style="stop-color:#ffd14b;stop-opacity:0;"
         offset="1"
         id="stop30946" />
    </linearGradient>
    <linearGradient
       inkscape:collect="always"
       xlink:href="#linearGradient6386"
       id="linearGradient1096"
       gradientUnits="userSpaceOnUse"
       x1="735.66742"
       y1="660.83142"
       x2="735.66742"
       y2="388.10217"
       gradientTransform="matrix(0.12827737,0,0,0.12827737,-67.712671,236.11997)" />
    <linearGradient
       inkscape:collect="always"
       xlink:href="#linearGradient30948"
       id="linearGradient1098"
       gradientUnits="userSpaceOnUse"
       x1="674.57922"
       y1="450.78961"
       x2="786.78943"
       y2="568.28052"
       gradientTransform="matrix(0.12827737,0,0,0.12827737,-67.712671,236.11997)" />
  </defs>
  <sodipodi:namedview
     id="base"
     pagecolor="#ffffff"
     bordercolor="#666666"
     borderopacity="1.0"
     inkscape:pageopacity="0"
     inkscape:pageshadow="2"
     inkscape:zoom="5.6"
     inkscape:cx="6.0714286"
     inkscape:cy="20.178571"
     inkscape:document-units="mm"
     inkscape:current-layer="layer1"
     showgrid="false"
     units="px"
     inkscape:window-width="1920"
     inkscape:window-height="996"
     inkscape:window-x="0"
     inkscape:window-y="0"
     inkscape:window-maximized="1"
     inkscape:pagecheckerboard="0"
     inkscape:showpageshadow="2"
     inkscape:deskcolor="#d1d1d1">
    <inkscape:grid
       id="grid1"
       units="px"
       originx="0"
       originy="0"
       spacingx="1.0000004"
       spacingy="1.0000004"
       empcolor="#0099e5"
       empopacity="0.30196078"
       color="#0099e5"
       opacity="0.14901961"
       empspacing="5"
       dotted="false"
       gridanglex="30"
       gridanglez="30"
       visible="false" />
  </sodipodi:namedview>
  <metadata
     id="metadata5">
    <rdf:RDF>
      <cc:Work
         rdf:about="">
        <dc:format>image/svg+xml</dc:format>
        <dc:type
           rdf:resource="http://purl.org/dc/dcmitype/StillImage" />
      </cc:Work>
    </rdf:RDF>
  </metadata>
  <g
     inkscape:label="Layer 1"
     inkscape:groupmode="layer"
     id="layer1"
     transform="translate(0,-280.06667)">
    <circle
       id="path826"
       cx="24"
       cy="304.06668"
       r="21"
       style="fill:#2c314c;fill-opacity:1" />
    <path
       id="circle872"
       style="opacity:1;fill:none;fill-opacity:1;stroke:url(#linearGradient844);stroke-width:0.817564;stroke-linecap:round;stroke-miterlimit:4;stroke-dasharray:none;stroke-dashoffset:0;stroke-opacity:1"
       r="7.7297897"
       cy="288.60864"
       cx="8.5411577"
       d="" />
    <circle
       id="circle832"
       style="opacity:1;fill:none;fill-opacity:1;stroke:#424970;stroke-width:2.10957;stroke-linecap:round;stroke-miterlimit:4;stroke-dasharray:none;stroke-dashoffset:0;stroke-opacity:1"
       r="19.945217"
       cy="304.06668"
       cx="24" />
    <path
       id="path1211"
       style="fill:#45007e;fill-opacity:0.0695295;stroke:none;stroke-width:0.128268px;stroke-linecap:butt;stroke-linejoin:miter;stroke-opacity:1"
       d="m 28.058571,285.06735 c -1.241177,-0.005 -2.331918,1.67631 -2.331918,1.67631 0.165834,-0.21722 0.382592,-0.41627 0.627551,-0.53486 -0.79321,0.42759 -1.568225,1.89646 -2.22662,3.81311 -0.827833,2.40996 -0.745687,5.24196 -0.47172,7.5699 -5.188627,3.3547 -5.897174,4.63112 -7.131947,6.76976 -2.623163,4.54348 -0.68585,9.45128 2.63798,11.8885 0,0 0.0013,0.001 0.0013,0.001 0.0044,0.003 0.009,0.005 0.01405,0.0103 0.0039,0.003 0.008,0.005 0.0125,0.008 0.133608,0.0966 0.269314,0.19044 0.407144,0.27936 0.0271,0.0155 0.05424,0.0351 0.08134,0.0514 0.04372,0.0284 0.0878,0.054 0.131984,0.0816 0.04234,0.0253 0.08501,0.0506 0.127766,0.0762 0,0 0.0013,0.001 0.0013,0.001 0.0023,10e-4 0.0044,0.003 0.0067,0.005 0.10414,0.0602 0.209813,0.11851 0.315883,0.17421 0.02991,0.0155 0.05972,0.0328 0.08976,0.0475 0.02424,0.0129 0.04874,0.0253 0.07291,0.0367 0.06657,0.0336 0.133555,0.0644 0.200768,0.0948 0.0075,0.003 0.01582,0.008 0.02398,0.0103 0.06326,0.0297 0.127119,0.056 0.190936,0.0842 0.0231,0.0103 0.04577,0.0181 0.0687,0.0302 0.08028,0.0338 0.160399,0.0673 0.241466,0.0963 1.704328,0.64591 4.121138,0.94454 6.53106,0.3903 0.03844,0.20406 0.07318,0.40015 0.101078,0.58127 0.01735,0.11356 0.03296,0.22222 0.04631,0.32708 0.09371,0.73499 0.08914,1.26359 0.0026,1.63841 -0.01224,0.0529 -0.02655,0.10254 -0.0421,0.15018 -0.01582,0.0472 -0.03314,0.0927 -0.05187,0.13479 -0.01873,0.0416 -0.03984,0.0806 -0.06185,0.11654 -0.02195,0.0364 -0.04531,0.0709 -0.07027,0.1003 -0.02501,0.0315 -0.05078,0.0586 -0.07868,0.0855 -0.0279,0.0279 -0.05787,0.0493 -0.08845,0.0723 -0.03058,0.0215 -0.06218,0.0413 -0.09553,0.0581 -0.100073,0.0521 -0.211442,0.0873 -0.334133,0.10807 -0.04094,0.008 -0.08318,0.0103 -0.126356,0.0155 -0.04316,0.003 -0.08793,0.008 -0.133368,0.008 -0.09098,0.003 -0.18577,2.6e-4 -0.284997,-0.005 -0.09932,-0.005 -0.203458,-0.0129 -0.310267,-0.0279 -0.106796,-0.0103 -0.216335,-0.0279 -0.329923,-0.0421 -0.113589,-0.0155 -0.229974,-0.0318 -0.349578,-0.0475 -0.05014,-0.008 -0.09895,-0.0129 -0.145997,-0.0155 -0.04704,-0.003 -0.0934,-0.005 -0.137577,-0.005 -0.04408,2.2e-4 -0.08661,0.002 -0.127771,0.005 -0.04125,0.003 -0.0809,0.008 -0.11932,0.0129 -0.07669,0.0129 -0.147575,0.0325 -0.213399,0.0555 -0.03294,0.0103 -0.06523,0.0279 -0.09553,0.0408 -0.03021,0.0129 -0.0593,0.0302 -0.0871,0.0462 -0.0278,0.0155 -0.05347,0.0349 -0.07868,0.0527 -0.02527,0.0182 -0.04893,0.0385 -0.07158,0.0582 -0.02273,0.0209 -0.04415,0.0434 -0.06449,0.0667 -0.02041,0.0213 -0.04094,0.0447 -0.05894,0.0695 -0.14472,0.19184 -0.216336,0.42951 -0.233044,0.66266 -0.0039,0.0576 -0.0052,0.11575 -0.0026,0.17277 0.0024,0.0563 0.0077,0.11277 0.01684,0.16711 0.0083,0.0537 0.02093,0.10732 0.03503,0.15731 0.01405,0.0496 0.02989,0.0971 0.04922,0.14178 0.03844,0.0878 0.08777,0.16223 0.143202,0.21764 0,0 0.02169,0.0325 0.06606,0.0842 0.04443,0.0516 0.11068,0.12501 0.199357,0.20647 0.04435,0.0408 0.09487,0.0826 0.150212,0.12634 0.05535,0.0437 0.11603,0.0878 0.18251,0.13207 0.09977,0.0663 0.212341,0.13013 0.336943,0.18827 0.04156,0.0182 0.08349,0.0385 0.127771,0.0555 0.04436,0.0182 0.09058,0.0351 0.137576,0.0501 0.09406,0.0323 0.193841,0.0591 0.299033,0.0816 0.05256,0.0103 0.106091,0.0181 0.161458,0.0287 0.0553,0.008 0.111768,0.0129 0.16988,0.0183 0.05814,0.005 0.11883,0.008 0.179714,0.008 0.06082,8.2e-4 0.123097,-8.6e-4 0.186722,-0.005 0.06359,-0.003 0.127335,-0.008 0.193731,-0.0155 0.06644,-0.008 0.134398,-0.0183 0.203568,-0.0315 0.06916,-0.0129 0.140076,-0.0279 0.21199,-0.0447 0.07189,-0.0183 0.145727,-0.0387 0.22041,-0.0611 0.07473,-0.0253 0.149992,-0.0478 0.227448,-0.0775 0.07735,-0.0297 0.157057,-0.0613 0.237255,-0.0963 0.08018,-0.0356 0.161321,-0.0739 0.244291,-0.11516 0.083,-0.0418 0.166999,-0.0873 0.252712,-0.13613 0.08563,-0.0485 0.172651,-0.10029 0.261137,-0.1573 0.07756,-0.0488 0.153117,-0.0989 0.224623,-0.15157 0.0715,-0.0514 0.139342,-0.10568 0.20498,-0.16002 0.06572,-0.0537 0.128121,-0.10894 0.188136,-0.16575 0.05995,-0.0558 0.118098,-0.11518 0.172677,-0.17412 0.05458,-0.0578 0.106467,-0.11763 0.155833,-0.17825 0.04944,-0.0606 0.09601,-0.12283 0.1404,-0.18528 0.04447,-0.0623 0.08679,-0.12549 0.126358,-0.18966 0.03957,-0.0644 0.07582,-0.12956 0.110897,-0.19499 0.035,-0.0663 0.06886,-0.13125 0.09974,-0.19807 0.06156,-0.13366 0.114593,-0.26981 0.160044,-0.40717 0.02273,-0.0695 0.0427,-0.13827 0.06185,-0.20787 0.01906,-0.0704 0.03642,-0.13908 0.05187,-0.20918 0.01556,-0.0709 0.02976,-0.14016 0.0421,-0.21055 0.07408,-0.42238 0.09126,-0.84983 0.07579,-1.26353 -0.0049,-0.1377 -0.01353,-0.27442 -0.02526,-0.40856 -0.01173,-0.13421 -0.02577,-0.26566 -0.0421,-0.39451 -0.01876,-0.14882 -0.04063,-0.29382 -0.06315,-0.43377 -0.0065,-0.0429 -0.01379,-0.0829 -0.02119,-0.12501 -0.01224,-0.0727 -0.02424,-0.14041 -0.03658,-0.20917 -0.0059,-0.0343 -0.01062,-0.0605 -0.01684,-0.0935 -0.0093,-0.0527 -0.01839,-0.0997 -0.02816,-0.1516 -0.0031,-0.0155 -0.0065,-0.0333 -0.0093,-0.0488 -0.02016,-0.10493 -0.03839,-0.20485 -0.05608,-0.29903 0,0 -0.03725,-0.19152 -0.03789,-0.19505 0.733331,-0.36666 1.442916,-0.83623 2.10589,-1.42078 9.77e-4,-8.4e-4 0.0017,-0.002 0.0026,-0.003 0.153416,-0.1353 0.305298,-0.27442 0.45347,-0.42258 0,0 0,-0.001 0,-0.001 0.02195,-0.0216 0.04301,-0.0447 0.06449,-0.0682 0.0057,-0.005 0.01224,-0.0103 0.01813,-0.0183 0.0057,-0.005 0.01096,-0.0129 0.01684,-0.0182 0.04795,-0.0509 0.09573,-0.1044 0.141787,-0.15868 0.02577,-0.031 0.05203,-0.0592 0.07712,-0.0909 0,0 0,-9.9e-4 0,-9.9e-4 0.01938,-0.0254 0.03852,-0.0493 0.05764,-0.0749 0.0039,-0.005 0.0083,-0.0103 0.0125,-0.0155 0.0017,-0.002 0.0036,-0.005 0.0054,-0.008 0.0031,-0.005 0.0062,-0.008 0.0093,-0.0129 0.02092,-0.0284 0.0426,-0.054 0.06315,-0.0829 0.01405,-0.0181 0.02681,-0.0405 0.04079,-0.0595 0.03363,-0.0475 0.06729,-0.0948 0.09974,-0.14448 0,0 0,-10e-4 0,-10e-4 0.01058,-0.0155 0.02041,-0.0333 0.03081,-0.0488 0.0021,-0.003 0.0046,-0.005 0.0067,-0.0103 0.0093,-0.0155 0.0199,-0.0313 0.02948,-0.0462 0.02195,-0.0356 0.04466,-0.0714 0.06606,-0.1067 0,0 0,-0.001 0,-0.001 0.01224,-0.0218 0.02449,-0.0424 0.03658,-0.0635 0.0028,-0.005 0.0052,-0.0103 0.008,-0.0155 0.0059,-0.0103 0.01327,-0.0222 0.01964,-0.0328 0.02066,-0.0369 0.04164,-0.0729 0.06185,-0.10948 0,0 0,-0.001 0,-0.001 0.04058,-0.0754 0.07997,-0.15134 0.117937,-0.22883 0,0 0,-9.9e-4 0,-9.9e-4 0.114133,-0.23368 0.216904,-0.47888 0.307458,-0.73143 0.03004,-0.0839 0.05959,-0.16843 0.0871,-0.25408 0,0 0,-10e-4 0,-10e-4 0,0 0,-0.001 0,-0.001 0.02746,-0.0855 0.05393,-0.17119 0.07868,-0.25842 0,0 0,-10e-4 0,-10e-4 0.02475,-0.0868 0.04819,-0.17416 0.07027,-0.26245 0,0 0,-9.9e-4 0,-9.9e-4 0.02195,-0.0881 0.04254,-0.17738 0.06185,-0.26671 0,0 0,-9.9e-4 0,-9.9e-4 0.0036,-0.0183 0.007,-0.0369 0.01122,-0.0542 8.89e-4,-0.005 0.0018,-0.008 0.0026,-0.0129 5.87e-4,-0.003 8.36e-4,-0.005 0.0013,-0.008 0.01327,-0.0655 0.02749,-0.12957 0.03924,-0.19507 0.01633,-0.0893 0.03133,-0.1793 0.045,-0.26948 1.34e-4,-8.5e-4 -1.42e-4,-0.002 0,-0.003 0.01353,-0.0901 0.02578,-0.18012 0.03658,-0.27085 0,0 0,-10e-4 0,-10e-4 0.01059,-0.0906 0.02016,-0.18284 0.02814,-0.27378 0,0 0,-0.001 0,-0.001 0.0075,-0.0906 0.01327,-0.18148 0.01813,-0.27238 0,0 0,-9.9e-4 0,-9.9e-4 0.0046,-0.0906 0.0088,-0.18173 0.01122,-0.27235 0,0 0,-0.001 0,-0.001 0.0019,-0.0899 0.0023,-0.18119 0.0013,-0.27085 -1.2e-5,-8.5e-4 1e-5,-0.002 0,-0.003 -9.95e-4,-0.0899 -0.0041,-0.17877 -0.008,-0.26814 0,0 0,-9.9e-4 0,-9.9e-4 -0.0039,-0.0891 -0.0093,-0.17851 -0.01684,-0.26681 0,0 0,-0.001 0,-0.001 -0.0067,-0.0878 -0.0153,-0.17579 -0.02527,-0.26245 0,0 0,-9.9e-4 0,-9.9e-4 0,0 0,-9.9e-4 0,-9.9e-4 -0.0096,-0.0865 -0.02195,-0.17306 -0.03503,-0.25837 -1.38e-4,-8.4e-4 1.39e-4,-0.002 0,-0.003 -0.01327,-0.0857 -0.02863,-0.17008 -0.045,-0.25403 0,0 0,-10e-4 0,-10e-4 -0.01633,-0.0837 -0.03397,-0.16655 -0.05343,-0.24855 0,0 0,-10e-4 0,-10e-4 0,0 0,-9.9e-4 0,-9.9e-4 -0.01964,-0.0824 -0.0419,-0.16269 -0.06449,-0.24284 0,0 0,-9.9e-4 0,-9.9e-4 -0.02275,-0.0803 -0.04706,-0.15947 -0.07291,-0.23716 0,0 0,-10e-4 0,-10e-4 -0.02578,-0.0783 -0.05374,-0.15489 -0.08289,-0.23012 0,0 0,-0.001 0,-0.001 -0.02919,-0.0757 -0.06016,-0.14916 -0.09265,-0.22197 0,0 0,-9.9e-4 0,-9.9e-4 -0.03268,-0.0736 -0.06657,-0.1448 -0.102431,-0.2149 -0.04895,-0.0948 -0.100664,-0.18827 -0.153041,-0.28078 -0.0039,-0.008 -0.0083,-0.0129 -0.01276,-0.0211 -0.261029,-0.45768 -0.563824,-0.88151 -0.898513,-1.26498 -0.0049,-0.005 -0.0098,-0.0103 -0.01556,-0.0155 -0.540086,-0.61491 -1.162205,-1.12721 -1.826509,-1.51481 -0.0031,-0.002 -0.0062,-0.003 -0.0093,-0.005 -0.500293,-0.29085 -1.023929,-0.51074 -1.554146,-0.65144 -0.0026,-8.8e-4 -0.0054,-5.7e-4 -0.008,-10e-4 -0.352789,-0.0927 -0.708139,-0.15131 -1.06137,-0.17112 -0.0036,-2.2e-4 -0.0072,2.1e-4 -0.01122,0 -0.102269,-0.005 -0.204275,-0.008 -0.306139,-0.008 v 10e-4 c -0.07192,5.3e-4 -0.143175,0.001 -0.214786,0.005 -0.06613,0.003 -0.132253,0.008 -0.197947,0.0155 -0.04513,0.005 -0.08984,0.0103 -0.134776,0.0155 -0.277545,-1.42218 -0.51424,-2.62692 -0.791815,-4.05172 -1.79e-4,-8.3e-4 1.83e-4,-0.002 0,-0.003 -0.03152,-0.16218 -0.05774,-0.31892 -0.08555,-0.47732 0.771647,-0.81982 1.477419,-1.60093 1.901005,-2.16064 0.03733,-0.0488 0.07517,-0.10161 0.113721,-0.15729 0.03854,-0.0545 0.07843,-0.11195 0.117935,-0.17279 0.0395,-0.0601 0.07902,-0.12496 0.11932,-0.19099 0.04043,-0.0666 0.08121,-0.13421 0.122147,-0.20487 0.326956,-0.56724 0.666806,-1.29124 0.954672,-2.10729 0.03586,-0.10105 0.07119,-0.20456 0.1053,-0.30887 0,0 0,-0.001 0,-0.001 0.03423,-0.10491 0.06742,-0.21001 0.09974,-0.31731 0.419392,-1.39439 0.659917,-2.99027 0.447851,-4.5094 -0.03263,-0.23339 -0.07564,-0.46487 -0.130565,-0.69358 0,0 0,-9.9e-4 0,-9.9e-4 -0.02761,-0.11463 -0.05779,-0.22818 -0.09131,-0.34114 -0.06706,-0.22602 -0.146163,-0.44842 -0.238665,-0.66686 -0.02747,-0.0655 -0.05499,-0.12578 -0.08289,-0.18664 -0.01062,-0.021 -0.02041,-0.0447 -0.03081,-0.0683 -0.0057,-0.0129 -0.01224,-0.0253 -0.01813,-0.0367 -0.03229,-0.0683 -0.06416,-0.13286 -0.09686,-0.19507 -8.1e-4,-0.002 -0.0019,-0.003 -0.0026,-0.005 -0.07682,-0.14671 -0.154096,-0.27991 -0.233045,-0.40012 -0.0046,-0.008 -0.0088,-0.0129 -0.01405,-0.0213 -0.07509,-0.11276 -0.150965,-0.21408 -0.227443,-0.30469 -0.0036,-0.005 -0.007,-0.008 -0.01122,-0.0129 -0.03679,-0.0431 -0.07401,-0.0839 -0.110897,-0.12225 -7.27e-4,-8.1e-4 -0.002,-5.5e-4 -0.0026,-10e-4 -0.122092,-0.12605 -0.244241,-0.22796 -0.367827,-0.30605 -0.0023,-10e-4 -0.0044,-0.003 -0.0067,-0.005 -0.07234,-0.0449 -0.145182,-0.0819 -0.217615,-0.11223 -0.01498,-0.005 -0.02986,-0.0129 -0.045,-0.0183 -0.117148,-0.0444 -0.233742,-0.0723 -0.349571,-0.0829 -0.0022,-2.2e-4 -0.0044,2.2e-4 -0.0067,0 -0.03857,-0.003 -0.07672,-0.008 -0.115138,-0.008 z m -0.553146,1.32119 c 0.0287,0.0254 0.0571,0.0511 0.08555,0.0803 0.222149,0.22123 0.443323,0.55202 0.652822,1.02774 0.28481,0.62237 1.14781,4.92443 -2.118524,8.23534 -4.3e-5,-8.6e-4 4.2e-5,-0.002 0,-0.003 -0.007,-0.15305 -0.01174,-0.30393 -0.01556,-0.45212 -0.0034,-0.13501 -0.0062,-0.26762 -0.0067,-0.39875 -3.1e-4,-0.0647 9.95e-4,-0.12736 0.0013,-0.19089 9.96e-4,-0.19841 0.0054,-0.39216 0.0125,-0.58134 0.0016,-0.0442 0.0021,-0.0891 0.0041,-0.13326 0.0041,-0.0984 0.009,-0.19672 0.01556,-0.29343 0.0041,-0.0691 0.0085,-0.13536 0.01405,-0.20211 0.0059,-0.0831 0.0125,-0.16712 0.01964,-0.2487 0.01122,-0.12487 0.02424,-0.24716 0.03789,-0.36778 0.01148,-0.1016 0.02346,-0.20183 0.03658,-0.30051 0.0044,-0.0346 0.0088,-0.0693 0.01405,-0.10185 0.0301,-0.21461 0.06398,-0.42108 0.101076,-0.62058 0.0153,-0.0824 0.03281,-0.16299 0.04922,-0.24288 0.0067,-0.0354 0.01353,-0.0714 0.02118,-0.10519 0.01938,-0.0901 0.03984,-0.17948 0.06029,-0.26672 6.62e-4,-0.003 7.53e-4,-0.005 0.0013,-0.008 0.04608,-0.19508 0.0949,-0.38183 0.145999,-0.56019 0.02278,-0.0793 0.04533,-0.15598 0.0687,-0.23178 0.0059,-0.0181 0.01327,-0.0403 0.01964,-0.0596 0.02398,-0.0762 0.04835,-0.1508 0.07291,-0.22329 h -0.0013 c 0.625492,-1.8425 1.446045,-2.64217 1.446045,-2.64217 -0.213615,-0.45846 -0.431793,-0.79727 -0.652826,-1.02772 -0.02842,-0.0302 -0.0573,-0.0535 -0.08555,-0.0803 z m -3.287992,14.7497 c 0.02041,0.11484 0.04735,0.25774 0.06319,0.35508 0.04515,0.2785 0.111384,0.65061 0.19515,1.09648 0.08377,0.44588 0.184332,0.96572 0.299037,1.543 0.01379,0.07 0.03224,0.15514 0.04632,0.22601 -0.205769,0.13123 -0.396736,0.26519 -0.572805,0.40149 -9.95e-4,8.2e-4 -0.0031,0.003 -0.0039,0.005 -0.0015,10e-4 -0.0025,0.003 -0.0039,0.005 -0.06847,0.0527 -0.135134,0.10594 -0.199359,0.16003 -0.0031,0.003 -0.0062,0.005 -0.0093,0.008 -0.0031,0.003 -0.0062,0.005 -0.0093,0.008 -0.05063,0.0429 -0.102192,0.087 -0.150211,0.13071 -0.03712,0.0338 -0.07253,0.0683 -0.108097,0.10027 -0.02016,0.0181 -0.04089,0.0374 -0.06028,0.0555 -0.0041,0.005 -0.0093,0.0103 -0.01405,0.0129 -0.03027,0.0302 -0.05925,0.0594 -0.08844,0.0896 -0.03676,0.038 -0.07318,0.0749 -0.108098,0.11216 -0.0065,0.008 -0.01276,0.0155 -0.01964,0.0217 -0.03181,0.0354 -0.06244,0.0709 -0.09265,0.10521 -0.03862,0.0447 -0.07605,0.0893 -0.112316,0.13474 -0.0077,0.0103 -0.01582,0.0214 -0.02398,0.0315 -0.02221,0.0289 -0.04463,0.0565 -0.06606,0.0855 -0.04123,0.054 -0.08295,0.10787 -0.120738,0.16272 -0.208403,0.30206 -0.36531,0.60811 -0.481542,0.91538 -0.02342,0.0612 -0.04474,0.12249 -0.06449,0.18392 0,0 0,9.9e-4 0,9.9e-4 -0.03984,0.12278 -0.07372,0.24535 -0.101073,0.36786 -0.01353,0.0606 -0.02577,0.12144 -0.03658,0.18253 0,0 0,10e-4 0,10e-4 -0.01095,0.0609 -0.02016,0.12172 -0.02813,0.18258 -0.0075,0.0604 -0.01438,0.12064 -0.01964,0.18122 0,0 0,9.9e-4 0,9.9e-4 -0.101159,1.15084 0.266244,2.24185 0.671079,3.05919 0.04259,0.086 0.08624,0.16869 0.129151,0.24857 0,0 0,0.001 0,0.001 0.04267,0.0795 0.08568,0.15487 0.127742,0.22738 0,0 0,10e-4 0,10e-4 0.04198,0.0731 0.08465,0.14125 0.124946,0.20647 0,0 0,10e-4 0,10e-4 0.121112,0.19618 0.232611,0.35885 0.320093,0.48012 0.116764,0.16194 0.190934,0.24997 0.190934,0.24997 0,0 -0.02143,-0.0563 -0.05473,-0.16843 -0.01658,-0.0547 -0.03648,-0.12499 -0.05764,-0.20647 0,0 0,-9.9e-4 0,-9.9e-4 -0.0014,-0.005 -0.0026,-0.0129 -0.0039,-0.0181 -0.02016,-0.0785 -0.04133,-0.1663 -0.06319,-0.26683 -0.0013,-0.005 -0.0026,-0.0129 -0.0039,-0.0181 -0.01877,-0.0873 -0.03875,-0.18558 -0.05764,-0.28922 -0.0019,-0.0103 -0.0034,-0.0183 -0.0054,-0.0315 0,0 0,-9.9e-4 0,-9.9e-4 -0.0011,-0.005 -0.0028,-0.0129 -0.0039,-0.0183 -0.0011,-0.005 -0.0016,-0.0129 -0.0026,-0.0213 -0.02195,-0.12695 -0.04365,-0.26433 -0.06315,-0.41283 -0.02041,-0.15592 -0.03939,-0.32369 -0.05473,-0.50252 0,0 0,-10e-4 0,-10e-4 -0.0153,-0.17898 -0.02748,-0.3689 -0.03502,-0.5699 0,0 0,-9.9e-4 0,-9.9e-4 -0.02246,-0.47317 0.03065,-0.90721 0.143201,-1.30143 0,0 0,-0.001 0,-0.001 0.07507,-0.26265 0.176971,-0.50726 0.301847,-0.73417 0,0 0,-10e-4 0,-10e-4 0.03099,-0.0558 0.06434,-0.11134 0.09818,-0.16568 0,0 0,-9.9e-4 0,-9.9e-4 0.03387,-0.0537 0.07024,-0.10685 0.106688,-0.1587 0,0 0,-9.9e-4 0,-9.9e-4 0.07327,-0.10441 0.152627,-0.20382 0.235866,-0.29914 0,0 0,-9.9e-4 0,-9.9e-4 0.04177,-0.0472 0.08372,-0.093 0.12777,-0.13909 0.220225,-0.22711 0.468911,-0.42488 0.737064,-0.59378 0.0106,-0.005 0.02143,-0.0129 0.03234,-0.0183 0.392527,1.90114 0.845279,4.04332 1.290207,6.08329 0.09332,0.42801 0.183794,0.83259 0.27517,1.24656 h -0.0013 c 0.04267,0.19343 0.08297,0.37361 0.124947,0.56299 0.0075,0.0354 0.01607,0.0697 0.02398,0.1039 -1.639958,0.19486 -3.474539,-0.2898 -5.059754,-1.60048 -0.05561,-0.0457 -0.10889,-0.093 -0.16146,-0.14038 -0.01761,-0.0155 -0.03459,-0.0323 -0.05186,-0.0475 -0.0088,-0.008 -0.01874,-0.0155 -0.02816,-0.0253 -0.02501,-0.0247 -0.05008,-0.0465 -0.07447,-0.0709 -0.07122,-0.0697 -0.139913,-0.13972 -0.204979,-0.21054 -0.06161,-0.0679 -0.119294,-0.13511 -0.175503,-0.20354 -0.045,-0.0542 -0.08891,-0.10974 -0.130567,-0.16567 -0.02372,-0.032 -0.04626,-0.0639 -0.0687,-0.0948 -0.0096,-0.0129 -0.02092,-0.03 -0.03081,-0.0434 -0.03485,-0.0503 -0.06865,-0.1019 -0.101079,-0.15305 -5.55e-4,-8.2e-4 -8.36e-4,-0.002 -0.0013,-0.003 -0.0041,-0.008 -0.009,-0.0155 -0.01405,-0.0211 -0.0093,-0.0155 -0.01839,-0.0323 -0.02813,-0.0475 -0.09568,-0.15867 -0.181126,-0.32002 -0.254098,-0.48432 -0.0023,-0.005 -0.0044,-0.0103 -0.0067,-0.0155 -0.0808,-0.18395 -0.148825,-0.372 -0.203568,-0.56159 -8.36e-4,-0.003 -0.0019,-0.005 -0.0026,-0.008 -0.0077,-0.0289 -0.01501,-0.0553 -0.02246,-0.0842 -0.0052,-0.0213 -0.0098,-0.0411 -0.01556,-0.0614 -3.61e-4,-10e-4 -9.96e-4,-0.003 -0.0013,-0.005 -0.0199,-0.079 -0.03766,-0.15787 -0.05343,-0.23718 -0.01276,-0.0659 -0.02475,-0.13096 -0.03503,-0.19645 -0.0083,-0.0552 -0.01556,-0.11218 -0.02246,-0.16843 -3.92e-4,-0.003 -9.96e-4,-0.005 -0.0013,-0.0103 -0.02449,-0.20376 -0.03748,-0.40921 -0.03924,-0.61492 -5.56e-4,-0.0612 8.5e-5,-0.12251 0.0013,-0.1839 0.0028,-0.13829 0.01063,-0.2772 0.02247,-0.41556 0.01658,-0.19316 0.04102,-0.38628 0.07291,-0.57841 0,0 0,-0.001 0,-0.001 0.0049,-0.0315 0.01148,-0.0616 0.01684,-0.0922 7.51e-4,-0.005 0.0019,-0.008 0.0026,-0.0129 0.01276,-0.0713 0.02603,-0.1405 0.04079,-0.21056 0.0031,-0.0155 0.0062,-0.0323 0.0093,-0.0475 0.0088,-0.0429 0.01964,-0.085 0.02948,-0.12765 0.01735,-0.0759 0.03545,-0.15106 0.05473,-0.22606 0.01174,-0.0452 0.02273,-0.0906 0.03503,-0.13607 0.01405,-0.0516 0.02984,-0.10399 0.045,-0.15597 0.01067,-0.0364 0.02143,-0.0728 0.03237,-0.1081 0.007,-0.0253 0.01379,-0.0475 0.02093,-0.0721 0,0 0,-9.9e-4 0,-9.9e-4 0.01096,-0.0351 0.02247,-0.07 0.03369,-0.10376 0.03882,-0.12037 0.07953,-0.23991 0.122146,-0.35801 0.03469,-0.0958 0.0699,-0.19345 0.106688,-0.2878 0.0054,-0.0129 0.0125,-0.0284 0.01813,-0.0421 0.04425,-0.11222 0.08942,-0.22358 0.13619,-0.33274 0.149693,-0.34922 0.309267,-0.68133 0.47172,-0.99116 0,0 0,-9.9e-4 0,-9.9e-4 0.0046,-0.008 0.01061,-0.0155 0.01556,-0.0279 0.125595,-0.23828 0.253093,-0.46297 0.376253,-0.67108 -0.0036,0.005 -0.007,0.0103 -0.01122,0.0155 0.306337,-0.51934 0.592951,-0.9393 0.794622,-1.21158 0.07104,-0.0953 0.132551,-0.17358 0.179715,-0.23173 0.04711,-0.0571 0.104712,-0.12551 0.172678,-0.20213 0.270102,-0.30493 0.728901,-0.78393 1.228433,-1.30143 z m 3.631954,4.70029 c 0.421693,0.005 0.839413,0.0635 1.232648,0.17817 0.118451,0.0351 0.234503,0.0749 0.348172,0.11936 0.284192,0.1121 0.551399,0.2562 0.794624,0.43241 0.145934,0.10564 0.283336,0.22328 0.409944,0.3524 0.08439,0.086 0.164124,0.1771 0.238664,0.27375 0.223678,0.28981 0.399974,0.62669 0.516642,1.01221 0,0 0,10e-4 0,10e-4 0.01938,0.0637 0.03746,0.12884 0.05343,0.19502 0,0 0,9.9e-4 0,9.9e-4 0.01606,0.0671 0.03104,0.13447 0.04345,0.2034 0,0 0,0.001 0,0.001 0.02475,0.13881 0.04195,0.28287 0.05187,0.4324 0,0 0,10e-4 0,10e-4 0.0046,0.0752 0.0083,0.15159 0.0093,0.22867 9.96e-4,0.078 2.68e-4,0.15411 -0.0013,0.23042 0,0 0,9.9e-4 0,9.9e-4 -0.0031,0.15213 -0.01122,0.30162 -0.02527,0.44792 0,0 0,0.001 0,0.001 -0.0067,0.0733 -0.01582,0.14477 -0.02527,0.21621 0,0 0,9.9e-4 0,9.9e-4 -0.009,0.0721 -0.02143,0.14207 -0.03369,0.21181 0,0 0,10e-4 0,10e-4 -0.02449,0.14027 -0.05301,0.27733 -0.0871,0.41137 0,0 0,0.001 0,0.001 -0.0171,0.0678 -0.03529,0.13275 -0.05473,0.19804 0,0 0,10e-4 0,10e-4 -0.0044,0.0155 -0.01062,0.0313 -0.01556,0.0462 -0.03522,0.11488 -0.07422,0.22711 -0.116523,0.3369 -0.02424,0.0626 -0.04806,0.12315 -0.07447,0.18396 0,0 0,10e-4 0,10e-4 -0.05241,0.12118 -0.110382,0.23935 -0.171293,0.35388 0,0 0,9.9e-4 0,9.9e-4 -0.03029,0.0563 -0.06177,0.11303 -0.09397,0.16842 0,0 0,10e-4 0,10e-4 -0.01607,0.0282 -0.03394,0.0537 -0.05052,0.0816 -0.01658,0.0279 -0.03338,0.054 -0.05052,0.0816 0,0 0,10e-4 0,10e-4 -0.03433,0.0532 -0.07047,0.10657 -0.106688,0.1587 0,0 0,9.9e-4 0,9.9e-4 -0.03637,0.0514 -0.07424,0.10266 -0.11231,0.15305 0,0 0,9.8e-4 0,9.8e-4 -0.03813,0.0498 -0.07806,0.0981 -0.117938,0.14751 0,0 0,0.001 0,0.001 -0.08016,0.0966 -0.164255,0.19053 -0.251298,0.28078 0,0 0,10e-4 0,10e-4 -0.169309,0.17552 -0.353242,0.3368 -0.546129,0.48443 -0.01787,0.0103 -0.03661,0.0282 -0.05473,0.0408 -0.06005,0.0447 -0.120377,0.0883 -0.182511,0.13077 -0.404265,-2.07065 -0.79264,-4.05617 -1.527472,-7.81717 z" />
    <path
       id="path860-0"
       style="fill:#45007e;fill-opacity:0.0695295;stroke:none;stroke-width:0.128268px;stroke-linecap:butt;stroke-linejoin:miter;stroke-opacity:1"
       d="m 27.583951,284.34083 c -1.241176,-0.005 -2.331916,1.67632 -2.331916,1.67632 0.165833,-0.21724 0.382592,-0.41626 0.627552,-0.53487 -0.793211,0.4276 -1.568227,1.89647 -2.226623,3.8131 -0.82783,2.40998 -0.745688,5.24197 -0.471717,7.56993 -5.188629,3.35466 -5.897174,4.6311 -7.131948,6.76974 -2.623164,4.54349 -0.685849,9.45136 2.637979,11.88851 0,0 0.0013,0.001 0.0013,0.001 0.0044,0.003 0.009,0.005 0.01405,0.0103 0.0039,0.003 0.008,0.005 0.0125,0.008 0.133607,0.0966 0.26931,0.19043 0.407143,0.27935 0.02709,0.0155 0.05424,0.0351 0.08134,0.0514 0.04378,0.0284 0.0878,0.054 0.131986,0.0816 0.04234,0.0254 0.08501,0.0506 0.127766,0.0762 0,0 0.0013,0.001 0.0013,0.001 0.0023,10e-4 0.0044,0.003 0.0067,0.005 0.104141,0.0598 0.209814,0.11851 0.315885,0.17421 0.02992,0.0155 0.05972,0.0328 0.08976,0.0475 0.02424,0.0129 0.04874,0.0254 0.07291,0.0367 0.06657,0.0336 0.133582,0.0649 0.20077,0.0948 0.0075,0.003 0.01582,0.008 0.02398,0.0103 0.06325,0.0297 0.127119,0.056 0.190935,0.0842 0.02276,0.0103 0.04577,0.0183 0.0687,0.0302 0.08028,0.0338 0.160399,0.0673 0.241468,0.0963 1.704327,0.6459 4.121138,0.94453 6.531059,0.3903 0.03844,0.20408 0.07318,0.40016 0.101077,0.58128 0.01736,0.11355 0.03296,0.22222 0.04631,0.32708 0.09371,0.735 0.08914,1.2636 0.0026,1.6384 -0.01224,0.0529 -0.02655,0.10239 -0.0421,0.15018 -0.01582,0.0472 -0.03314,0.0927 -0.05187,0.1348 -0.01872,0.0416 -0.03984,0.0806 -0.06185,0.11652 -0.02195,0.0364 -0.04531,0.0709 -0.07027,0.10031 -0.02501,0.0315 -0.05078,0.0586 -0.07868,0.0855 -0.0279,0.0279 -0.05787,0.0493 -0.08844,0.0723 -0.03058,0.0214 -0.06218,0.0413 -0.09552,0.0581 -0.100072,0.0522 -0.211445,0.0873 -0.334135,0.10808 -0.04094,0.008 -0.08318,0.0103 -0.126354,0.0155 -0.04316,0.003 -0.08793,0.008 -0.133368,0.008 -0.09098,0.003 -0.185772,2.4e-4 -0.284998,-0.005 -0.09933,-0.005 -0.203458,-0.0129 -0.310266,-0.0279 -0.106796,-0.0103 -0.216335,-0.0279 -0.329923,-0.0421 -0.113589,-0.0155 -0.229975,-0.0318 -0.349578,-0.0475 -0.05014,-0.008 -0.09896,-0.0129 -0.145998,-0.0155 -0.04704,-0.003 -0.0934,-0.005 -0.137576,-0.005 -0.04413,2.2e-4 -0.08661,0.002 -0.127771,0.005 -0.04125,0.003 -0.0809,0.008 -0.11932,0.0129 -0.07669,0.0129 -0.147575,0.0326 -0.2134,0.0555 -0.03294,0.0103 -0.06522,0.0279 -0.09553,0.0408 -0.03022,0.0129 -0.0593,0.0302 -0.0871,0.0462 -0.02777,0.0155 -0.05348,0.0349 -0.07868,0.0527 -0.02527,0.0183 -0.04893,0.0385 -0.07161,0.0581 -0.02279,0.0214 -0.04418,0.0434 -0.06449,0.0669 -0.02041,0.0213 -0.04092,0.0447 -0.05894,0.0695 -0.14472,0.1918 -0.216336,0.42949 -0.233042,0.66262 -0.0039,0.0576 -0.0052,0.11575 -0.0026,0.17279 0.0023,0.0563 0.0077,0.11275 0.01684,0.16709 0.0083,0.0537 0.02093,0.10734 0.03503,0.15732 0.01405,0.0496 0.02989,0.0971 0.04922,0.14178 0.03844,0.0878 0.08777,0.16223 0.143201,0.21762 0,0 0.02169,0.0325 0.06606,0.0842 0.04439,0.0517 0.110706,0.12502 0.199356,0.20649 0.04441,0.0408 0.09489,0.0826 0.150211,0.12634 0.05535,0.0436 0.116031,0.0878 0.182511,0.13206 0.09977,0.0664 0.212344,0.13014 0.336944,0.18825 0.04156,0.0183 0.08349,0.0385 0.12777,0.0555 0.04436,0.0181 0.09058,0.0351 0.137576,0.0501 0.09405,0.0323 0.193843,0.059 0.299034,0.0816 0.05261,0.0103 0.106091,0.0183 0.161458,0.0287 0.0553,0.008 0.111768,0.0129 0.169879,0.0183 0.05814,0.005 0.11883,0.008 0.179714,0.008 0.06082,8.5e-4 0.123068,-8.6e-4 0.186722,-0.005 0.06359,-0.003 0.127337,-0.008 0.193734,-0.0155 0.06644,-0.008 0.134398,-0.0181 0.203566,-0.0315 0.06917,-0.0129 0.140075,-0.0279 0.211989,-0.0447 0.07189,-0.0183 0.145728,-0.0388 0.220409,-0.0611 0.07473,-0.0252 0.149995,-0.0478 0.22745,-0.0775 0.07737,-0.0297 0.157057,-0.0619 0.237255,-0.0963 0.08018,-0.0356 0.16132,-0.0739 0.24429,-0.11516 0.083,-0.0418 0.167002,-0.0873 0.252714,-0.13611 0.08563,-0.0485 0.172649,-0.1003 0.261135,-0.15731 0.07749,-0.0488 0.153117,-0.0989 0.224622,-0.15159 0.0715,-0.0514 0.139343,-0.10566 0.204981,-0.16 0.06572,-0.0537 0.128121,-0.10896 0.188136,-0.16575 0.05995,-0.0558 0.118097,-0.11518 0.172678,-0.17413 0.05458,-0.0578 0.106467,-0.11764 0.155832,-0.17822 0.04944,-0.0605 0.09601,-0.12283 0.140401,-0.18531 0.04447,-0.0626 0.08679,-0.1255 0.126358,-0.18964 0.03956,-0.0647 0.07582,-0.12957 0.110897,-0.19501 0.035,-0.0663 0.06886,-0.13124 0.09974,-0.19808 0.06156,-0.13364 0.114593,-0.26978 0.160046,-0.40716 0.02279,-0.0696 0.0427,-0.13826 0.06185,-0.20786 0.01907,-0.0704 0.03643,-0.13909 0.05187,-0.20917 0.01556,-0.0709 0.02976,-0.14018 0.0421,-0.21056 0.07408,-0.42238 0.09126,-0.84984 0.07579,-1.26353 -0.0049,-0.13774 -0.01353,-0.27442 -0.02527,-0.40857 -0.01174,-0.13421 -0.02577,-0.26566 -0.0421,-0.39449 -0.01871,-0.14884 -0.04063,-0.29382 -0.06315,-0.43378 -0.0064,-0.0429 -0.01379,-0.0829 -0.02118,-0.12501 -0.01224,-0.0726 -0.02423,-0.14042 -0.03658,-0.20917 -0.0059,-0.0343 -0.01061,-0.0605 -0.01684,-0.0935 -0.0093,-0.0527 -0.01839,-0.0997 -0.02816,-0.15158 -0.0031,-0.0155 -0.0064,-0.0333 -0.0093,-0.0488 -0.02016,-0.10492 -0.03838,-0.20483 -0.05608,-0.29904 0,0 -0.03725,-0.19152 -0.03789,-0.19504 0.733329,-0.36663 1.442911,-0.83623 2.105888,-1.42076 9.76e-4,-8.4e-4 0.0017,-0.002 0.0026,-0.003 0.153415,-0.13529 0.305298,-0.27442 0.453471,-0.42258 0,0 0,-10e-4 0,-10e-4 0.02195,-0.0214 0.04301,-0.0447 0.06449,-0.0682 0.0057,-0.005 0.01224,-0.0103 0.01813,-0.0183 0.0057,-0.005 0.01095,-0.0129 0.01684,-0.0182 0.04792,-0.0509 0.09573,-0.10425 0.141787,-0.15868 0.02578,-0.031 0.05203,-0.0592 0.07712,-0.0909 0,0 0,-10e-4 0,-10e-4 0.01938,-0.0252 0.03851,-0.0493 0.05764,-0.0749 0.0039,-0.005 0.0083,-0.0103 0.0125,-0.0155 0.0017,-0.002 0.0036,-0.005 0.0054,-0.008 0.0031,-0.005 0.0062,-0.008 0.0093,-0.0129 0.02092,-0.0284 0.0426,-0.054 0.06315,-0.0829 0.01405,-0.0181 0.0268,-0.0406 0.04079,-0.0596 0.03363,-0.0475 0.06729,-0.0948 0.09974,-0.14448 0,0 0,-0.001 0,-0.001 0.01058,-0.0155 0.02041,-0.0333 0.03081,-0.0488 0.0021,-0.003 0.0046,-0.005 0.0067,-0.0103 0.0093,-0.0155 0.0199,-0.0313 0.02948,-0.0462 0.02195,-0.0356 0.04466,-0.0713 0.06606,-0.10671 0,0 0,-0.001 0,-0.001 0.01224,-0.0222 0.02449,-0.0424 0.03658,-0.0639 0.0028,-0.005 0.0052,-0.0103 0.008,-0.0155 0.0059,-0.0103 0.01327,-0.0224 0.01964,-0.0328 0.02067,-0.0369 0.04164,-0.0728 0.06185,-0.10947 0,0 0,-10e-4 0,-10e-4 0.04058,-0.0754 0.07997,-0.15131 0.117939,-0.22882 0,0 0,-0.001 0,-0.001 0.114131,-0.2337 0.216901,-0.47889 0.307459,-0.73143 0.03003,-0.0839 0.05959,-0.16845 0.0871,-0.25411 0,0 0,-0.001 0,-0.001 0,0 0,-10e-4 0,-10e-4 0.02747,-0.0855 0.05393,-0.17121 0.07868,-0.25845 0,0 0,-9.9e-4 0,-9.9e-4 0.02475,-0.0868 0.04818,-0.17421 0.07027,-0.2625 0,0 0,-10e-4 0,-10e-4 0.02195,-0.0881 0.04254,-0.17738 0.06185,-0.2667 0,0 0,-9.9e-4 0,-9.9e-4 0.0036,-0.0181 0.007,-0.0369 0.01122,-0.0542 8.9e-4,-0.005 0.0018,-0.008 0.0026,-0.0129 5.83e-4,-0.003 8.35e-4,-0.005 0.0013,-0.008 0.01327,-0.0656 0.02748,-0.12958 0.03924,-0.19503 0.01633,-0.0894 0.03137,-0.17934 0.045,-0.26947 1.36e-4,-8.7e-4 -1.41e-4,-0.002 0,-0.003 0.01353,-0.0901 0.02578,-0.18011 0.03658,-0.27084 0,0 0,-10e-4 0,-10e-4 0.01062,-0.0906 0.02016,-0.18279 0.02814,-0.27376 0,0 0,-0.001 0,-0.001 0.0075,-0.0906 0.01327,-0.18148 0.01813,-0.27239 0,0 0,-0.001 0,-0.001 0.0046,-0.0907 0.0088,-0.18181 0.01122,-0.27239 0,0 0,-0.001 0,-0.001 0.0019,-0.0899 0.0023,-0.18124 0.0013,-0.2709 -1.2e-5,-8.2e-4 10e-6,-0.002 0,-0.003 -9.95e-4,-0.0899 -0.0041,-0.17875 -0.008,-0.26813 0,0 0,-0.001 0,-0.001 -0.0039,-0.0891 -0.0093,-0.17847 -0.01684,-0.26677 0,0 0,-9.9e-4 0,-9.9e-4 -0.0067,-0.0878 -0.0153,-0.17578 -0.02527,-0.26248 0,0 0,-10e-4 0,-10e-4 0,0 0,-0.001 0,-0.001 -0.0096,-0.0865 -0.02195,-0.17308 -0.03502,-0.2584 -1.41e-4,-8e-4 1.39e-4,-0.002 0,-0.003 -0.01327,-0.0857 -0.02863,-0.17006 -0.045,-0.25401 0,0 0,-0.001 0,-0.001 -0.01633,-0.0837 -0.03397,-0.16656 -0.05343,-0.24861 0,0 0,-9.9e-4 0,-9.9e-4 0,0 0,-9.9e-4 0,-9.9e-4 -0.01964,-0.0824 -0.0419,-0.16273 -0.06449,-0.24288 0,0 0,-10e-4 0,-10e-4 -0.02273,-0.0803 -0.04706,-0.15947 -0.07291,-0.23718 0,0 0,-10e-4 0,-10e-4 -0.02577,-0.0783 -0.05373,-0.15483 -0.08289,-0.23009 0,0 0,-9.9e-4 0,-9.9e-4 -0.02919,-0.0757 -0.06015,-0.14911 -0.09265,-0.22194 0,0 0,-9.9e-4 0,-9.9e-4 -0.03268,-0.0736 -0.06657,-0.14478 -0.102432,-0.21487 -0.04895,-0.0948 -0.100663,-0.18829 -0.153039,-0.28079 -0.0039,-0.008 -0.0083,-0.0129 -0.01276,-0.0213 -0.261032,-0.45769 -0.563828,-0.88152 -0.898517,-1.26496 -0.0049,-0.005 -0.0098,-0.0103 -0.01556,-0.0155 -0.540083,-0.61491 -1.162205,-1.12719 -1.826508,-1.51481 -0.0031,-0.002 -0.0062,-0.003 -0.0093,-0.005 -0.500291,-0.29085 -1.023929,-0.51071 -1.554142,-0.65144 -0.0026,-8.3e-4 -0.0054,-5.5e-4 -0.008,-9.9e-4 -0.352791,-0.0927 -0.70814,-0.15132 -1.061451,-0.17116 -0.0036,-2.1e-4 -0.0072,1.9e-4 -0.01122,0 -0.102271,-0.005 -0.204276,-0.008 -0.306056,-0.008 v 10e-4 c -0.07192,5.6e-4 -0.143173,0.001 -0.214789,0.005 -0.06613,0.003 -0.132249,0.008 -0.197943,0.0155 -0.04513,0.005 -0.08984,0.0103 -0.134779,0.0155 -0.277543,-1.42214 -0.514239,-2.62686 -0.791812,-4.05169 -1.83e-4,-8.8e-4 1.77e-4,-0.002 0,-0.003 -0.03157,-0.1622 -0.05774,-0.31891 -0.08555,-0.47733 0.771641,-0.8198 1.477415,-1.60091 1.900916,-2.16064 0.03733,-0.0488 0.07517,-0.10188 0.113725,-0.15734 0.03854,-0.0545 0.07843,-0.1119 0.117936,-0.17276 0.0395,-0.0599 0.07902,-0.12501 0.119319,-0.19098 0.04043,-0.0664 0.08121,-0.13421 0.122146,-0.20485 0.326956,-0.56725 0.666802,-1.29129 0.95467,-2.1073 0.03582,-0.10103 0.07119,-0.20459 0.105301,-0.30888 0,0 0,-10e-4 0,-10e-4 0.03423,-0.1049 0.06742,-0.21001 0.09974,-0.31725 0.41939,-1.39438 0.659919,-2.99026 0.447851,-4.50942 -0.03263,-0.23337 -0.07564,-0.4649 -0.130566,-0.69353 0,0 0,-10e-4 0,-10e-4 -0.02758,-0.11465 -0.05779,-0.22823 -0.09131,-0.34114 -0.06706,-0.22605 -0.146162,-0.44843 -0.238669,-0.66686 -0.02746,-0.0654 -0.05499,-0.12579 -0.08289,-0.18666 -0.01062,-0.0214 -0.02041,-0.0447 -0.03081,-0.0682 -0.0057,-0.0129 -0.01224,-0.0254 -0.01813,-0.0367 -0.03229,-0.0683 -0.06416,-0.1328 -0.09686,-0.19501 -8.09e-4,-0.002 -0.0019,-0.003 -0.0026,-0.005 -0.07682,-0.14671 -0.154093,-0.27993 -0.23304,-0.40014 -0.0046,-0.008 -0.0088,-0.0129 -0.01405,-0.0215 -0.07509,-0.1127 -0.15097,-0.21408 -0.227451,-0.30462 -0.0036,-0.005 -0.007,-0.008 -0.01122,-0.0129 -0.03679,-0.0431 -0.074,-0.0839 -0.110897,-0.12225 -7.24e-4,-8.7e-4 -0.002,-5.4e-4 -0.0026,-0.001 -0.122086,-0.12607 -0.244232,-0.2279 -0.367821,-0.30601 -0.0023,-10e-4 -0.0044,-0.003 -0.0067,-0.005 -0.07236,-0.0449 -0.145179,-0.0819 -0.21761,-0.11216 -0.01502,-0.005 -0.02986,-0.0129 -0.045,-0.0183 -0.117149,-0.0444 -0.233755,-0.0724 -0.349575,-0.0829 -0.0022,-2.5e-4 -0.0044,2.3e-4 -0.0067,0 -0.03857,-0.003 -0.07672,-0.008 -0.115137,-0.008 z m -0.553145,1.3212 c 0.0287,0.0253 0.05711,0.0511 0.08555,0.0803 0.22215,0.22122 0.443321,0.55201 0.652821,1.02774 0.284806,0.62237 1.147813,4.92444 -2.118522,8.23538 -4.3e-5,-8.7e-4 4.2e-5,-0.002 0,-0.003 -0.007,-0.15303 -0.01173,-0.30392 -0.01556,-0.4521 -0.0031,-0.135 -0.0059,-0.2676 -0.0067,-0.39874 -3.11e-4,-0.0648 9.95e-4,-0.12737 0.0013,-0.19091 9.96e-4,-0.19838 0.0054,-0.39214 0.0125,-0.58131 0.0016,-0.0442 0.0021,-0.0891 0.0039,-0.13327 0.0041,-0.0984 0.009,-0.19674 0.01556,-0.29345 0.0041,-0.0691 0.0085,-0.13534 0.01405,-0.20209 0.0059,-0.0832 0.0125,-0.16713 0.01964,-0.24871 0.01122,-0.12486 0.02423,-0.24711 0.03789,-0.36778 0.01148,-0.10126 0.02334,-0.20184 0.03658,-0.30051 0.0044,-0.0346 0.0088,-0.0693 0.01405,-0.10185 0.0301,-0.21461 0.06398,-0.42107 0.101079,-0.62058 0.0153,-0.0824 0.03281,-0.16296 0.04921,-0.24286 0.0067,-0.0354 0.01353,-0.0713 0.02092,-0.1052 0.01937,-0.0901 0.03984,-0.17946 0.06028,-0.26671 6.64e-4,-0.003 7.44e-4,-0.005 0.0013,-0.008 0.04608,-0.19506 0.09489,-0.38184 0.145992,-0.56016 0.0228,-0.0793 0.04533,-0.15597 0.0687,-0.2318 0.0059,-0.0181 0.01327,-0.0403 0.01964,-0.0597 0.02398,-0.0762 0.04837,-0.15081 0.07291,-0.22329 h -0.0013 c 0.625492,-1.84252 1.446044,-2.64217 1.446044,-2.64217 -0.213616,-0.45847 -0.431788,-0.79726 -0.652821,-1.02773 -0.02842,-0.0302 -0.0573,-0.0535 -0.08555,-0.0803 z m -3.287989,14.74969 c 0.02041,0.11485 0.04735,0.25775 0.06318,0.35511 0.04515,0.27847 0.111383,0.65059 0.195148,1.09645 0.08377,0.44599 0.184333,0.96574 0.299038,1.543 0.01379,0.07 0.03224,0.15513 0.04631,0.22604 -0.205769,0.13119 -0.396736,0.26515 -0.572806,0.40145 -9.96e-4,8.4e-4 -0.0031,0.003 -0.0039,0.005 -0.0015,9.9e-4 -0.0025,0.003 -0.0039,0.005 -0.06847,0.0527 -0.135136,0.10593 -0.199362,0.16002 -0.0031,0.003 -0.0062,0.005 -0.0093,0.008 -0.0031,0.003 -0.0062,0.005 -0.0093,0.008 -0.05063,0.0429 -0.102194,0.087 -0.150213,0.13071 -0.03709,0.0338 -0.07253,0.0683 -0.108097,0.10028 -0.02016,0.0182 -0.04089,0.0374 -0.06028,0.0555 -0.0041,0.005 -0.0093,0.0103 -0.01405,0.0129 -0.03027,0.0302 -0.05925,0.0599 -0.08845,0.0896 -0.03676,0.038 -0.07316,0.0749 -0.108095,0.11216 -0.0065,0.008 -0.01276,0.0155 -0.01964,0.0216 -0.03183,0.0354 -0.06244,0.0709 -0.09265,0.1052 -0.03862,0.0447 -0.07605,0.0893 -0.112311,0.13476 -0.0077,0.0103 -0.01582,0.0207 -0.02398,0.0315 -0.02221,0.0289 -0.04464,0.0565 -0.06606,0.0855 -0.04123,0.054 -0.08294,0.10788 -0.12074,0.16274 -0.208402,0.30207 -0.365314,0.60812 -0.48154,0.91539 -0.02313,0.0607 -0.04474,0.12249 -0.06449,0.1839 0,0 0,9.9e-4 0,9.9e-4 -0.03984,0.12278 -0.07373,0.24536 -0.101076,0.36787 -0.01353,0.0606 -0.02577,0.12144 -0.03658,0.18254 0,0 0,10e-4 0,10e-4 -0.01096,0.0606 -0.02016,0.12171 -0.02813,0.18257 -0.0075,0.0604 -0.01434,0.12065 -0.01964,0.18121 0,0 0,9.9e-4 0,9.9e-4 -0.101159,1.15085 0.266243,2.24185 0.671075,3.0592 0.04257,0.086 0.08628,0.16869 0.129152,0.24856 0,0 0,0.001 0,0.001 0.04267,0.0795 0.0857,0.15485 0.127741,0.22736 0,0 0,10e-4 0,10e-4 0.04198,0.0731 0.08465,0.14127 0.12495,0.20648 0,0 0,9.9e-4 0,9.9e-4 0.121108,0.19618 0.232606,0.35884 0.32009,0.48012 0.116766,0.16196 0.190935,0.24998 0.190935,0.24998 0,0 -0.02144,-0.0563 -0.05473,-0.16843 -0.01658,-0.0547 -0.03648,-0.12499 -0.05764,-0.2065 0,0 0,-0.001 0,-0.001 -0.0014,-0.005 -0.0026,-0.0129 -0.0039,-0.0181 -0.02016,-0.0785 -0.04133,-0.16629 -0.06319,-0.26683 -0.0013,-0.005 -0.0026,-0.0129 -0.0039,-0.0181 -0.01874,-0.0873 -0.03875,-0.18558 -0.05764,-0.28924 -0.0019,-0.0103 -0.0034,-0.0183 -0.0054,-0.0315 0,0 0,-0.001 0,-0.001 -0.0011,-0.005 -0.0028,-0.0129 -0.0039,-0.0181 -0.0011,-0.005 -0.0016,-0.0129 -0.0026,-0.0213 -0.02195,-0.12697 -0.04365,-0.26436 -0.06315,-0.41286 -0.02041,-0.15593 -0.03939,-0.32367 -0.05473,-0.50251 0,0 0,-9.9e-4 0,-9.9e-4 -0.0153,-0.179 -0.02747,-0.36888 -0.03503,-0.56992 0,0 0,-9.9e-4 0,-9.9e-4 -0.02247,-0.47319 0.03065,-0.90723 0.143201,-1.30142 0,0 0,-9.9e-4 0,-9.9e-4 0.07507,-0.26266 0.176966,-0.50726 0.301844,-0.73414 0,0 0,-10e-4 0,-10e-4 0.03099,-0.0558 0.06434,-0.11132 0.09818,-0.16567 0,0 0,-0.001 0,-0.001 0.03387,-0.0537 0.07024,-0.10687 0.106687,-0.15871 0,0 0,-10e-4 0,-10e-4 0.07331,-0.10443 0.152631,-0.20384 0.235871,-0.29916 0,0 0,-10e-4 0,-10e-4 0.04177,-0.0473 0.08372,-0.093 0.127769,-0.13909 0.220224,-0.22711 0.468908,-0.42487 0.737062,-0.59378 0.01059,-0.005 0.02143,-0.0129 0.03234,-0.0182 0.39253,1.90114 0.845281,4.04333 1.29021,6.0833 0.09332,0.42803 0.18379,0.83258 0.275167,1.24658 h -0.0013 c 0.04267,0.19346 0.08297,0.37361 0.124945,0.56302 0.0075,0.0354 0.01607,0.0697 0.02398,0.1037 -1.639956,0.19486 -3.474535,-0.28979 -5.059754,-1.60047 -0.05561,-0.0457 -0.108889,-0.093 -0.161457,-0.14039 -0.01761,-0.0155 -0.03459,-0.0323 -0.05186,-0.0475 -0.0088,-0.008 -0.01871,-0.0155 -0.02813,-0.0254 -0.02501,-0.0247 -0.05009,-0.0465 -0.07447,-0.0709 -0.07122,-0.0697 -0.139914,-0.13975 -0.20498,-0.21057 -0.06161,-0.068 -0.119293,-0.1351 -0.175502,-0.20354 -0.045,-0.0542 -0.08891,-0.10974 -0.130566,-0.16564 -0.02372,-0.032 -0.04626,-0.0643 -0.0687,-0.0948 -0.0095,-0.0129 -0.02092,-0.03 -0.03081,-0.0434 -0.03485,-0.0504 -0.06865,-0.10154 -0.101078,-0.15307 -5.56e-4,-8.2e-4 -8.36e-4,-0.002 -0.0013,-0.003 -0.0041,-0.008 -0.009,-0.0155 -0.01405,-0.0211 -0.0093,-0.0155 -0.01839,-0.0323 -0.02813,-0.0475 -0.09568,-0.15864 -0.181128,-0.31999 -0.254099,-0.4843 -0.0023,-0.005 -0.0044,-0.0103 -0.0067,-0.0155 -0.0808,-0.18395 -0.148824,-0.37197 -0.203567,-0.56156 -8.36e-4,-0.003 -0.0019,-0.005 -0.0026,-0.008 -0.0077,-0.0289 -0.015,-0.0553 -0.02247,-0.0842 -0.0052,-0.0208 -0.0098,-0.0411 -0.01556,-0.0616 -3.59e-4,-10e-4 -9.96e-4,-0.003 -0.0013,-0.005 -0.0199,-0.079 -0.03766,-0.15787 -0.05343,-0.23717 -0.01276,-0.0657 -0.02475,-0.13097 -0.03502,-0.19644 -0.0083,-0.0553 -0.01556,-0.11218 -0.02247,-0.16845 -3.9e-4,-0.003 -9.96e-4,-0.005 -0.0013,-0.0103 -0.02449,-0.20375 -0.03748,-0.40918 -0.03923,-0.61489 -5.58e-4,-0.0614 8.4e-5,-0.12254 0.0013,-0.18392 0.0028,-0.13828 0.01061,-0.27719 0.02247,-0.41555 0.01658,-0.19316 0.04102,-0.38627 0.07291,-0.57843 0,0 0,-9.9e-4 0,-9.9e-4 0.0049,-0.0315 0.01148,-0.0617 0.01684,-0.0922 7.5e-4,-0.005 0.0019,-0.008 0.0026,-0.0129 0.01276,-0.0713 0.02603,-0.14051 0.04079,-0.21054 0.0031,-0.0155 0.0062,-0.0323 0.0093,-0.0475 0.0088,-0.0429 0.01964,-0.085 0.02948,-0.12764 0.01736,-0.0759 0.03544,-0.15106 0.05473,-0.22605 0.01173,-0.0452 0.02275,-0.0906 0.03503,-0.13609 0.01405,-0.0516 0.02984,-0.10414 0.045,-0.15596 0.01063,-0.0364 0.02144,-0.0728 0.03237,-0.1081 0.0067,-0.0253 0.01353,-0.0475 0.02092,-0.0722 0,0 0,-9.8e-4 0,-9.8e-4 0.01096,-0.0351 0.02247,-0.0701 0.03369,-0.1036 0.03882,-0.12039 0.07954,-0.23989 0.122144,-0.35802 0.03472,-0.0958 0.06989,-0.19346 0.106689,-0.28781 0.0054,-0.0129 0.0125,-0.0284 0.01813,-0.0421 0.04432,-0.11223 0.08942,-0.22357 0.136189,-0.33274 0.149694,-0.34921 0.309269,-0.68134 0.471722,-0.99115 0,0 0,-9.9e-4 0,-9.9e-4 0.0046,-0.008 0.01063,-0.0155 0.01556,-0.0279 0.125596,-0.23827 0.253094,-0.46294 0.376251,-0.67108 -0.0036,0.005 -0.007,0.0103 -0.01122,0.0155 0.306338,-0.51936 0.592951,-0.93932 0.794624,-1.21159 0.07104,-0.0953 0.132551,-0.1736 0.179714,-0.23174 0.04711,-0.0571 0.104701,-0.1255 0.172676,-0.20213 0.270102,-0.30493 0.728903,-0.78392 1.228433,-1.30144 z m 3.631951,4.7003 c 0.421692,0.005 0.839414,0.0632 1.232649,0.17818 0.118451,0.0351 0.234504,0.0749 0.348173,0.11934 0.284191,0.1121 0.551398,0.25618 0.794622,0.43241 0.145936,0.10565 0.28333,0.22328 0.409946,0.35239 0.08439,0.086 0.164123,0.17712 0.238664,0.27375 0.223677,0.28982 0.39997,0.62671 0.516642,1.01221 0,0 0,9.9e-4 0,9.9e-4 0.01937,0.0642 0.03746,0.12885 0.05343,0.19504 0,0 0,9.8e-4 0,9.8e-4 0.01607,0.0675 0.03101,0.13448 0.04345,0.20341 0,0 0,9.9e-4 0,9.9e-4 0.02475,0.13883 0.04195,0.28289 0.05186,0.43241 0,0 0,10e-4 0,10e-4 0.0046,0.0751 0.0083,0.15159 0.0093,0.22868 9.96e-4,0.078 2.65e-4,0.1541 -0.0013,0.2304 0,0 0,10e-4 0,10e-4 -0.0031,0.15213 -0.01122,0.30161 -0.02527,0.44793 0,0 0,10e-4 0,10e-4 -0.0067,0.0733 -0.01582,0.14476 -0.02527,0.2162 0,0 0,9.9e-4 0,9.9e-4 -0.009,0.0722 -0.02143,0.14211 -0.03369,0.21185 0,0 0,0.001 0,0.001 -0.02449,0.14027 -0.05301,0.27732 -0.0871,0.41136 0,0 0,9.9e-4 0,9.9e-4 -0.0171,0.0678 -0.03531,0.13276 -0.05473,0.19804 0,0 0,10e-4 0,10e-4 -0.0044,0.0155 -0.01061,0.0312 -0.01556,0.0462 -0.03523,0.11488 -0.07422,0.2271 -0.11652,0.3369 -0.02423,0.0622 -0.04809,0.12315 -0.07447,0.18395 0,0 0,0.001 0,0.001 -0.05243,0.12116 -0.11038,0.23932 -0.171292,0.35386 0,0 0,9.9e-4 0,9.9e-4 -0.03029,0.0563 -0.06177,0.11304 -0.09397,0.16842 0,0 0,0.001 0,0.001 -0.01607,0.0282 -0.03394,0.0537 -0.05052,0.0816 -0.01659,0.0279 -0.03338,0.054 -0.05052,0.0816 0,0 0,9.9e-4 0,9.9e-4 -0.03433,0.0532 -0.07047,0.10659 -0.106688,0.15869 0,0 0,10e-4 0,10e-4 -0.03637,0.0514 -0.07424,0.10256 -0.112311,0.15305 0,0 0,9.9e-4 0,9.9e-4 -0.03813,0.0498 -0.07804,0.0981 -0.117936,0.14751 0,0 0,9.9e-4 0,9.9e-4 -0.08016,0.0966 -0.164254,0.19055 -0.251299,0.2808 0,0 0,10e-4 0,10e-4 -0.169309,0.17551 -0.353241,0.3368 -0.546127,0.48443 -0.01787,0.0103 -0.0366,0.0282 -0.05473,0.0408 -0.06005,0.0447 -0.120379,0.0883 -0.182511,0.13077 -0.404268,-2.06454 -0.792645,-4.05009 -1.527473,-7.81094 z" />
    <path
       style="fill:url(#linearGradient1096);fill-opacity:1;stroke:none;stroke-width:0.128268px;stroke-linecap:butt;stroke-linejoin:miter;stroke-opacity:1"
       d="m 27.098873,286.13884 c 0,0 -3.339253,3.24765 -1.680034,11.76477 1.659226,8.51698 3.484764,17.83366 3.484764,17.83366 0.283925,1.50621 0.967333,4.48551 -1.515143,6.05975 -2.831032,1.79546 -4.250695,-0.2391 -4.250695,-0.2391 -0.443556,-0.44363 -0.41245,-2.12965 1.191847,-1.91015 1.913668,0.26165 3.106587,0.56131 1.996957,-4.27822 -1.10963,-4.83953 -2.830481,-13.00559 -3.191362,-15.2326 -0.308763,-1.90518 -1.579182,-7.32074 -0.15322,-11.47182 1.185705,-3.45179 2.749693,-5.46028 4.116886,-2.52632 z"
       id="path860"
       sodipodi:nodetypes="cscscssssc" />
    <path
       style="opacity:0.500664;fill:url(#linearGradient26784);fill-opacity:1;stroke:none;stroke-width:0.128268px;stroke-linecap:butt;stroke-linejoin:miter;stroke-opacity:1"
       d="m 25.418839,297.90361 c 1.659226,8.51698 3.484764,17.83366 3.484764,17.83366 0.283925,1.50621 0.967333,4.48551 -1.515143,6.05975 -2.831032,1.79546 -4.250695,-0.2391 -4.250695,-0.2391 -0.443556,-0.44363 -0.41245,-2.12965 1.191847,-1.91015 1.913668,0.26165 3.106587,0.56131 1.996957,-4.27822 -1.10963,-4.83953 -2.830481,-13.00559 -3.191362,-15.2326 z"
       id="path26641"
       sodipodi:nodetypes="ccscsscc" />
    <path
       style="fill:url(#linearGradient25254);fill-opacity:1;stroke:none;stroke-width:0.128268px;stroke-linecap:butt;stroke-linejoin:miter;stroke-opacity:1"
       d="m 24.58206,285.38669 c 0,0 2.530254,-3.90509 4.27115,0.20607 1.479925,3.49507 -0.425571,8.09507 -1.619534,9.67312 -1.226752,1.62135 -4.808711,5.09175 -5.563095,6.01881 -0.75438,0.92691 -4.928625,6.95638 -0.897712,10.28914 4.040702,3.34097 9.700919,1.3184 9.630767,-3.65882 -0.07022,-4.97717 -8.307007,-4.37087 -8.066309,0.68169 0.06134,1.61222 0.406557,2.53062 0.406557,2.53062 0,0 -4.772711,-5.69352 2.263898,-8.83305 2.606501,-1.163 6.031106,0.49531 7.606418,3.56508 1.150249,2.24137 0.589588,6.0603 -1.185161,7.83501 -3.484685,3.48468 -8.500868,3.39529 -11.422624,2.28804 -4.428963,-1.67843 -7.74166,-7.58475 -4.627929,-12.9779 1.290717,-2.23552 1.993986,-3.52293 7.853974,-7.23325 5.284361,-3.34598 4.193606,-8.9171 3.866413,-9.63222 -0.885454,-2.01001 -1.971441,-1.46669 -2.516813,-0.7522 z"
       id="path2652"
       sodipodi:nodetypes="csssssccsssscscc" />
    <path
       id="path25289"
       style="fill:url(#linearGradient25532);fill-opacity:1;stroke:none;stroke-width:0.128268px;stroke-linecap:butt;stroke-linejoin:miter;stroke-opacity:1"
       d="m 26.912927,283.71052 c -0.02748,-1.1e-4 -0.05444,0.002 -0.08165,0.005 1.724543,1.74099 6.079072,7.97047 -7.298525,17.64286 -5.927261,4.2857 -5.045593,9.14587 -1.514777,13.53485 0.621391,0.45546 1.291034,0.82496 1.98855,1.08929 2.921744,1.10729 7.93776,1.19651 11.422443,-2.28818 1.774749,-1.7747 2.335561,-5.59343 1.185315,-7.83492 -1.575319,-3.06973 -4.999954,-4.72822 -7.606447,-3.56522 -7.036617,3.13963 -2.263898,8.83331 -2.263898,8.83331 0,0 -0.345378,-0.9186 -0.406629,-2.53089 -0.240696,-5.05259 7.996289,-5.65885 8.066444,-0.68164 0.07022,4.97718 -5.590125,6.99983 -9.630828,3.65891 -4.03091,-3.33278 0.143316,-9.36222 0.897696,-10.28916 0.754385,-0.92703 4.336275,-4.39763 5.563027,-6.01897 1.193965,-1.57808 3.09943,-6.17803 1.619502,-9.67307 -0.598434,-1.41313 -1.29006,-1.87906 -1.940196,-1.88207 z" />
    <path
       id="path25643"
       style="fill:url(#linearGradient26430);fill-opacity:1;stroke:none;stroke-width:0.128268px;stroke-linecap:butt;stroke-linejoin:miter;stroke-opacity:1"
       d="m 20.70751,302.71212 c -5.407356,7.33258 0.834193,14.98276 8.543466,10.72778 2.799465,-1.54511 3.528693,-6.34207 1.095623,-8.57084 -3.347324,-3.06615 -10.651932,-0.31762 -7.60269,6.25829 0,0 -0.345378,-0.91866 -0.406629,-2.53102 -0.240696,-5.05253 7.996286,-5.65866 8.066442,-0.68147 0.07022,4.97723 -5.590124,6.99988 -9.630827,3.65889 -3.072668,-2.54047 -1.379079,-6.64171 -0.06542,-8.86163 z" />
    <path
       id="path30388"
       style="fill:url(#linearGradient1098);fill-opacity:1;stroke:none;stroke-width:0.128268px;stroke-linecap:butt;stroke-linejoin:miter;stroke-opacity:1"
       d="m 26.757837,301.9214 c -0.07192,5e-4 -0.14362,0.002 -0.215214,0.005 -0.528662,0.0297 -1.0461,0.14797 -1.534815,0.3659 -1.920463,0.85687 -2.956957,1.90417 -3.455224,2.97394 -0.532047,3.10348 1.191324,5.8594 1.191324,5.8594 -3.049241,-6.57595 4.255365,-9.32442 7.602688,-6.25828 2.433073,2.22857 1.703845,7.02557 -1.09562,8.57068 -0.896223,0.49468 -1.772091,0.82664 -2.61264,1.01875 l 0.809494,1.65511 c 1.409372,-0.45746 2.785773,-1.22422 3.98111,-2.4195 1.774747,-1.77478 2.335558,-5.59358 1.185308,-7.835 -1.239936,-2.41622 -3.625782,-3.95786 -5.856411,-3.93771 z m 3.636857,6.40743 c -0.0012,0.0267 -0.0021,0.0478 -0.0036,0.0724 0.0014,-0.0267 0.0023,-0.0475 0.0036,-0.0724 z m -0.04002,0.45243 c -0.003,0.0267 -0.0068,0.0489 -0.01066,0.0745 0.0036,-0.0267 0.0071,-0.0489 0.01066,-0.0745 z m -0.07541,0.44917 c -0.0013,0.005 -0.003,0.0109 -0.0041,0.0191 0.0013,-0.005 0.003,-0.0109 0.0041,-0.0191 z m -0.09388,0.37018 c -0.0055,0.0192 -0.01104,0.0391 -0.01645,0.0571 0.0055,-0.0192 0.01104,-0.0388 0.01645,-0.0571 z m -0.129296,0.38953 c -0.0088,0.0267 -0.01836,0.0473 -0.02776,0.0718 0.0088,-0.0267 0.01867,-0.0473 0.02776,-0.0718 z m -0.164367,0.38678 c -0.0055,0.0109 -0.01213,0.0267 -0.01754,0.0361 0.0055,-0.0109 0.01213,-0.0267 0.01754,-0.0361 z m -0.173142,0.32748 c -0.0074,0.0109 -0.01536,0.0267 -0.02299,0.0407 0.0074,-0.0137 0.01536,-0.0267 0.02299,-0.0407 z m -0.203682,0.32343 c -0.01322,0.0192 -0.02704,0.0391 -0.0409,0.0574 0.01377,-0.0191 0.0274,-0.0388 0.0409,-0.0574 z m -0.241758,0.323 c -0.0079,0.008 -0.01699,0.0192 -0.02535,0.0303 0.0079,-0.008 0.01699,-0.0192 0.02535,-0.0303 z m -0.232513,0.26262 c -0.01268,0.0137 -0.02509,0.0267 -0.03809,0.0407 0.01295,-0.0137 0.02536,-0.0267 0.03809,-0.0407 z m -0.269826,0.26281 c -0.01876,0.0164 -0.03765,0.0339 -0.05661,0.0497 0.01902,-0.0164 0.03787,-0.0336 0.05661,-0.0497 z m -0.301404,0.25104 c -0.01781,0.011 -0.03672,0.0267 -0.05486,0.0404 0.01809,-0.0109 0.03689,-0.0267 0.05486,-0.0404 z m -0.293136,0.20759 c -0.0144,0.008 -0.02892,0.0192 -0.04351,0.0298 0.01479,-0.008 0.02899,-0.0191 0.04351,-0.0298 z m -0.317432,0.19188 c -0.0244,0.0137 -0.0489,0.0267 -0.07337,0.0404 0.02468,-0.0109 0.04911,-0.0267 0.07337,-0.0404 z m -0.35727,0.18196 c -0.01973,0.008 -0.03952,0.0164 -0.05935,0.0267 0.01973,-0.008 0.03974,-0.0164 0.05935,-0.0267 z m -0.252044,0.10574 c -0.08813,0.0355 -0.177505,0.0689 -0.26783,0.0981 0.09039,-0.0314 0.179662,-0.0638 0.26783,-0.0981 z m -0.40538,0.14435 c -0.09873,0.0314 -0.198914,0.0566 -0.299899,0.0828 0.100976,-0.0267 0.201177,-0.0514 0.299899,-0.0828 z m -0.41515,0.11242 c -0.141351,0.0328 -0.284424,0.059 -0.429421,0.0814 0.145009,-0.0233 0.288061,-0.0489 0.429421,-0.0814 z" />
    <path
       style="fill:url(#linearGradient6388);fill-opacity:1;stroke:none;stroke-width:0.128268px;stroke-linecap:butt;stroke-linejoin:miter;stroke-opacity:1"
       d="m 28.148883,311.88233 c 0.460106,2.35132 0.75472,3.85494 0.75472,3.85494 0.283925,1.50621 0.967333,4.48551 -1.515143,6.05975 -2.831032,1.79546 -4.250695,-0.2391 -4.250695,-0.2391 -0.443556,-0.44363 -0.41245,-2.12965 1.191847,-1.91015 1.913668,0.26165 3.106587,0.56131 1.996957,-4.27822 -0.198419,-0.86541 -0.416389,-1.83713 -0.64264,-2.86229 z"
       id="path27384"
       sodipodi:nodetypes="ccscsscc" />
    <path
       id="path27666"
       style="fill:#f6ebff;fill-opacity:0.197812;stroke:none;stroke-width:0.128268px;stroke-linecap:butt;stroke-linejoin:miter;stroke-opacity:1"
       d="m 25.542968,288.77901 c -0.971451,1.7494 -1.346004,3.9185 -1.351925,6.30623 0.287018,-0.23127 0.549332,-0.46975 0.789703,-0.71355 -0.115732,-2.44791 0.228787,-4.28261 0.67295,-5.59033 z m -0.211466,8.63874 c -0.314303,0.334 -0.622473,0.66436 -0.945288,0.99988 0.141201,1.27167 0.348874,2.57539 0.597536,3.88772 0.0078,-0.005 0.01585,-0.008 0.0241,-0.008 0.386112,-0.17235 0.790516,-0.28022 1.203854,-0.33329 -0.371245,-1.90124 -0.415243,-2.11952 -0.792723,-4.05731 -0.03225,-0.1651 -0.05895,-0.32455 -0.08748,-0.4857 z m 1.371973,7.05317 c -0.422874,0.0322 -0.75571,0.008 -1.15776,0.13348 1.563573,7.44579 3.806163,14.0985 2.19525,16.93741 2.055639,-1.6232 1.432123,-4.37552 1.162765,-5.80451 0,0 -1.141332,-5.84672 -2.200255,-11.26646 z" />
    <path
       id="path31535"
       style="fill:url(#linearGradient30950);fill-opacity:1;stroke:none;stroke-width:0.128268px;stroke-linecap:butt;stroke-linejoin:miter;stroke-opacity:1"
       d="m 26.757837,301.9214 c -0.07192,5e-4 -0.14362,0.002 -0.215214,0.005 -0.528662,0.0297 -1.0461,0.14797 -1.534815,0.3659 -1.920463,0.85687 -2.956957,1.90417 -3.455224,2.97394 -0.532047,3.10348 1.191324,5.8594 1.191324,5.8594 -3.049241,-6.57595 4.255365,-9.32442 7.602688,-6.25828 2.433073,2.22857 1.703845,7.02557 -1.09562,8.57068 -0.896223,0.49468 -1.772091,0.82664 -2.61264,1.01875 l 0.809494,1.65511 c 1.409372,-0.45746 2.785773,-1.22422 3.98111,-2.4195 1.774747,-1.77478 2.335558,-5.59358 1.185308,-7.835 -1.239936,-2.41622 -3.625782,-3.95786 -5.856411,-3.93771 z m 3.636857,6.40743 c -0.0012,0.0267 -0.0021,0.0478 -0.0036,0.0724 0.0014,-0.0267 0.0023,-0.0475 0.0036,-0.0724 z m -0.04002,0.45243 c -0.003,0.0267 -0.0068,0.0489 -0.01066,0.0745 0.0036,-0.0267 0.0071,-0.0489 0.01066,-0.0745 z m -0.07541,0.44917 c -0.0013,0.005 -0.003,0.0109 -0.0041,0.0191 0.0013,-0.005 0.003,-0.0109 0.0041,-0.0191 z m -0.09388,0.37018 c -0.0055,0.0192 -0.01104,0.0391 -0.01645,0.0571 0.0055,-0.0192 0.01104,-0.0388 0.01645,-0.0571 z m -0.129296,0.38953 c -0.0088,0.0267 -0.01836,0.0473 -0.02776,0.0718 0.0088,-0.0267 0.01867,-0.0473 0.02776,-0.0718 z m -0.164367,0.38678 c -0.0055,0.0109 -0.01213,0.0267 -0.01754,0.0361 0.0055,-0.0109 0.01213,-0.0267 0.01754,-0.0361 z m -0.173142,0.32748 c -0.0074,0.0109 -0.01536,0.0267 -0.02299,0.0407 0.0074,-0.0137 0.01536,-0.0267 0.02299,-0.0407 z m -0.203682,0.32343 c -0.01322,0.0192 -0.02704,0.0391 -0.0409,0.0574 0.01377,-0.0191 0.0274,-0.0388 0.0409,-0.0574 z m -0.241758,0.323 c -0.0079,0.008 -0.01699,0.0192 -0.02535,0.0303 0.0079,-0.008 0.01699,-0.0192 0.02535,-0.0303 z m -0.232513,0.26262 c -0.01268,0.0137 -0.02509,0.0267 -0.03809,0.0407 0.01295,-0.0137 0.02536,-0.0267 0.03809,-0.0407 z m -0.269826,0.26281 c -0.01876,0.0164 -0.03765,0.0339 -0.05661,0.0497 0.01902,-0.0164 0.03787,-0.0336 0.05661,-0.0497 z m -0.301404,0.25104 c -0.01781,0.011 -0.03672,0.0267 -0.05486,0.0404 0.01809,-0.0109 0.03689,-0.0267 0.05486,-0.0404 z m -0.293136,0.20759 c -0.0144,0.008 -0.02892,0.0192 -0.04351,0.0298 0.01479,-0.008 0.02899,-0.0191 0.04351,-0.0298 z m -0.317432,0.19188 c -0.0244,0.0137 -0.0489,0.0267 -0.07337,0.0404 0.02468,-0.0109 0.04911,-0.0267 0.07337,-0.0404 z m -0.35727,0.18196 c -0.01973,0.008 -0.03952,0.0164 -0.05935,0.0267 0.01973,-0.008 0.03974,-0.0164 0.05935,-0.0267 z m -0.252044,0.10574 c -0.08813,0.0355 -0.177505,0.0689 -0.26783,0.0981 0.09039,-0.0314 0.179662,-0.0638 0.26783,-0.0981 z m -0.40538,0.14435 c -0.09873,0.0314 -0.198914,0.0566 -0.299899,0.0828 0.100976,-0.0267 0.201177,-0.0514 0.299899,-0.0828 z m -0.41515,0.11242 c -0.141351,0.0328 -0.284424,0.059 -0.429421,0.0814 0.145009,-0.0233 0.288061,-0.0489 0.429421,-0.0814 z" />
  </g>
</svg>
