<?xml version="1.0" encoding="UTF-8" standalone="no"?>
<svg
   width="48"
   height="48"
   version="1.1"
   viewBox="0 0 12.69975 12.69975"
   id="svg6"
   sodipodi:docname="ankama-launcher.svg"
   inkscape:version="1.3.2 (091e20ef0f, 2023-11-25)"
   xmlns:inkscape="http://www.inkscape.org/namespaces/inkscape"
   xmlns:sodipodi="http://sodipodi.sourceforge.net/DTD/sodipodi-0.dtd"
   xmlns="http://www.w3.org/2000/svg"
   xmlns:svg="http://www.w3.org/2000/svg">
  <defs
     id="defs6" />
  <sodipodi:namedview
     id="namedview6"
     pagecolor="#ffffff"
     bordercolor="#000000"
     borderopacity="0.25"
     inkscape:showpageshadow="2"
     inkscape:pageopacity="0.0"
     inkscape:pagecheckerboard="0"
     inkscape:deskcolor="#d1d1d1"
     inkscape:zoom="5.9921875"
     inkscape:cx="36.547588"
     inkscape:cy="24.114733"
     inkscape:window-width="1920"
     inkscape:window-height="994"
     inkscape:window-x="0"
     inkscape:window-y="0"
     inkscape:window-maximized="1"
     inkscape:current-layer="svg6" />
  <g
     transform="matrix(0.77775705,0,0,0.77775705,-0.2351603,-218.05637)"
     id="g6">
    <circle
       cx="8.4666996"
       cy="288.53"
       r="7.1437998"
       style="paint-order:stroke fill markers;fill:#4d557f;fill-opacity:1"
       id="circle1" />
    <g
       id="g5">
      <path
         d="m 12.965,292.5 c 0.14657,0 0.26458,-0.11801 0.26458,-0.26458 v -4.4979 c 0,-0.14657 -0.11801,-0.26458 -0.26458,-0.26458 h -1.5875 v 3.7042 c 0,0.14658 -0.11801,0.26459 -0.26458,0.26459 h -2.6458 c -0.14657,0 -0.26458,-0.11801 -0.26458,-0.26459 v -3.7042 h -1.5875 c -0.14657,0 -0.26458,0.11801 -0.26458,0.26458 v 4.4979 c 0,0.14657 0.11801,0.26458 0.26458,0.26458 z"
         fill="#fdc409"
         style="paint-order:stroke fill markers"
         id="path1" />
      <path
         transform="matrix(0.26458,0,0,0.26458,0,280.07)"
         d="m 22,28 v 9 l 9,-9 z"
         fill="#b61f1d"
         style="paint-order:stroke fill markers"
         id="path2" />
      <path
         d="m 4.2333,284.83 c -0.14657,0 -0.26458,0.11801 -0.26458,0.26458 v 4.4979 c 0,0.14657 0.11801,0.26458 0.26458,0.26458 h 1.5875 v -3.7042 c 0,-0.14658 0.11801,-0.26459 0.26458,-0.26459 h 2.6458 c 0.14657,0 0.26458,0.11801 0.26458,0.26459 v 3.7042 h 1.5875 c 0.14657,0 0.26458,-0.11801 0.26458,-0.26458 v -4.4979 c 0,-0.14657 -0.11801,-0.26458 -0.26458,-0.26458 z"
         fill="#e5381f"
         style="paint-order:stroke fill markers"
         id="path3" />
      <path
         transform="matrix(0.26458,0,0,0.26458,0,280.07)"
         d="m 43,28 -9,9 h 9 z"
         fill="#e76f08"
         style="paint-order:stroke fill markers"
         id="path4" />
      <rect
         x="11.642"
         y="285.62"
         width="1.0583"
         height="1.0583"
         ry="0"
         fill="#e76f08"
         style="paint-order:stroke fill markers"
         id="rect4" />
      <rect
         transform="rotate(45)"
         x="208.92"
         y="201.81"
         width="1.0583"
         height="1.0583"
         ry="0"
         fill="#f6aa08"
         style="paint-order:stroke fill markers"
         id="rect5" />
    </g>
  </g>
</svg>
