<?xml version="1.0" encoding="UTF-8" standalone="no"?>
<svg
   viewBox="0 0 64 64"
   version="1.1"
   id="svg4"
   sodipodi:docname="folder-wireguard.svg"
   inkscape:version="1.4.2 (unknown)"
   xmlns:inkscape="http://www.inkscape.org/namespaces/inkscape"
   xmlns:sodipodi="http://sodipodi.sourceforge.net/DTD/sodipodi-0.dtd"
   xmlns="http://www.w3.org/2000/svg"
   xmlns:svg="http://www.w3.org/2000/svg">
  <sodipodi:namedview
     id="namedview4"
     pagecolor="#ffffff"
     bordercolor="#999999"
     borderopacity="1"
     inkscape:showpageshadow="2"
     inkscape:pageopacity="0"
     inkscape:pagecheckerboard="0"
     inkscape:deskcolor="#d1d1d1"
     showgrid="true"
     inkscape:zoom="16"
     inkscape:cx="32.0625"
     inkscape:cy="32.03125"
     inkscape:window-width="2556"
     inkscape:window-height="1364"
     inkscape:window-x="0"
     inkscape:window-y="0"
     inkscape:window-maximized="1"
     inkscape:current-layer="svg4">
    <inkscape:grid
       id="grid4"
       units="px"
       originx="0"
       originy="0"
       spacingx="1"
       spacingy="1"
       empcolor="#0099e5"
       empopacity="0.30196078"
       color="#0099e5"
       opacity="0.14902"
       empspacing="5"
       dotted="false"
       gridanglex="30"
       gridanglez="30"
       visible="true" />
  </sodipodi:namedview>
  <defs
     id="defs3051">
    <style
       type="text/css"
       id="current-color-scheme">
      .ColorScheme-Text {
        color:#31363b;
      }
      .ColorScheme-Background {
        color:#eff0f1;
      }
      .ColorScheme-Highlight {
        color:#3daee9;
      }
      .ColorScheme-ViewText {
        color:#31363b;
      }
      .ColorScheme-ViewBackground {
        color:#fcfcfc;
      }
      .ColorScheme-ViewHover {
        color:#93cee9;
      }
      .ColorScheme-ViewFocus{
        color:#3daee9;
      }
      .ColorScheme-ButtonText {
        color:#31363b;
      }
      .ColorScheme-ButtonBackground {
        color:#eff0f1;
      }
      .ColorScheme-ButtonHover {
        color:#93cee9;
      }
      .ColorScheme-ButtonFocus{
        color:#3daee9;
      }
      </style>
  </defs>
  <path
     style="fill:currentColor;fill-opacity:1;stroke:none;stroke-width:0.999999"
     d="m 4.0006635,10 v 1 9 0 c -0.5203637,0.02153 -1.0229638,0.505476 -0.999899,1 h 0.00195 c -4.69e-5,0.004 -0.00195,0.008 -0.00195,0.01172 V 56 c 0.00871,0.999392 0.9801138,2.005992 1.999798,2 v 0 H 58.995109 v 0 c 1.011732,0.02205 1.994216,-0.972534 1.999798,-2 V 21.011719 21 17 c 0.05936,-0.589244 -0.407896,-1.006383 -0.999899,-1 v -4 c 0,-0.003 -0.002,0.004 -0.002,0 h 0.002 v 0 c -0.0061,-1.000671 -0.953819,-1.995969 -1.999798,-2 H 31.997836 L 27.99824,6 H 8.0002595 C 5.9630216,5.99492 4.0363539,7.9703236 4.0006635,10 Z"
     class="ColorScheme-Highlight"
     id="path1"
     sodipodi:nodetypes="ccccccsccccccccccscccccccc" />
  <path
     style="fill-opacity:0.33;fill-rule:evenodd;stroke-width:0.999999"
     d="m 4.0302775,10 -0.029614,1 v 9 H 21.998846 l 3.999596,-4 h 33.996566 v -4 c 0,-0.003 -0.002,0.004 -0.002,0 h 0.002 C 59.988808,10.988725 58.990992,9.9943186 57.99521,10 H 31.997836 L 27.99824,6 H 8.0002595 C 5.9928069,6.00259 3.994256,8.0072001 4.0302775,10 Z"
     id="path2"
     sodipodi:nodetypes="ccccccsccccccc" />
  <path
     style="fill:#ffffff;fill-opacity:0.2;fill-rule:evenodd;stroke-width:0.999999"
     d="m 27.99824,6 2.999697,5 h 1.999798 24.997475 c 1.212814,-0.06389 2.005543,1.005906 1.999798,2 v -1 c 6e-4,-0.992592 -0.988601,-1.993446 -1.999798,-2 H 32.997735 31.997836 Z m -1.999798,10 -3.999596,4 H 3.0007645 v 1 H 22.998745 Z"
     id="path3"
     sodipodi:nodetypes="cccccccccccccccc" />
  <path
     style="fill-opacity:0.2;fill-rule:evenodd;stroke-width:0.999999"
     d="m 25.998442,16 -5.999394,3 H 4.0006635 v 1 H 21.998846 Z M 3.0007645,56 c 0.00641,1.008598 0.9937008,2.001463 1.999798,2 v 0 H 58.995109 v 0 0 c 1.002828,0.0016 2.001139,-0.999662 1.999798,-2 z"
     class="ColorScheme-Text"
     id="path4"
     sodipodi:nodetypes="cccccccccccccc" />
  <path
     d="m 41.982766,36.702846 c 0,0 0.460923,-9.702846 -10.20284,-9.702846 -9.433323,0 -9.726288,9.308333 -9.726288,9.308333 0,0 -1.386678,10.691103 9.941131,10.691103 10.870782,0 9.987997,-10.29659 9.987997,-10.29659 M 28.795635,33.312321 c 1.999941,-1.222618 4.558471,-0.476552 5.515472,1.363245 0.17968,0.347646 0.203122,0.886692 0.08984,1.249958 -0.398429,1.265594 -1.335904,1.972608 -2.621026,2.273378 0.378903,-0.324212 0.679673,-0.691385 0.777323,-1.203091 0.101565,-0.488264 -0.0075,-0.996063 -0.304679,-1.398399 -0.468737,-0.644509 -1.304647,-0.898413 -2.054629,-0.624983 -0.792941,0.300779 -1.226525,1.023412 -1.148402,1.914012 0.07424,0.824189 0.6992,1.359337 1.871044,1.56245 -0.175781,0.09375 -0.308594,0.160153 -0.441398,0.234377 -0.535139,0.292957 -1.003877,0.699191 -1.371058,1.191371 -0.117185,0.160153 -0.199214,0.171865 -0.3828,0.06246 -2.351494,-1.433553 -2.503833,-5.050641 0.07034,-6.624812 M 27.0301,42.21439 c -0.378902,0.09765 -0.746074,0.238268 -1.132782,0.363266 0.187493,-1.277307 1.68355,-2.453058 2.949136,-2.320246 -0.367181,0.503892 -0.578108,1.105433 -0.61717,1.726518 -0.417954,0.08204 -0.812476,0.132805 -1.199184,0.230462 m 8.054456,-12.464501 c 0.374995,0.0156 0.749982,0.0075 1.124968,0.0156 0.09375,0.0075 0.187494,0.01958 0.277338,0.03907 -0.08204,0.128906 -0.17968,0.249997 -0.281245,0.363275 -0.132803,0.124989 -0.285142,0.246081 -0.476551,0.05856 -0.04686,-0.04686 -0.156237,-0.03517 -0.238276,-0.03517 -0.37108,-0.0041 -0.746066,-0.0156 -1.117154,-0.0041 -0.324205,0.0117 -0.64451,0.04297 -0.960909,0.09766 -0.05856,0.0117 -0.148432,0.20702 -0.121091,0.281235 0.06246,0.171874 0.160152,0.363274 0.296872,0.472645 0.515604,0.406242 1.066372,0.773415 1.581985,1.175751 0.503892,0.394513 0.972629,0.824198 1.257772,1.417925 0.371089,0.773415 0.382809,1.581993 0.222656,2.398369 -0.269523,1.359337 -0.95701,2.484305 -2.070257,3.30069 -0.449203,0.328119 -1.003878,0.515612 -1.515584,0.753888 -0.453109,0.20702 -0.917939,0.386708 -1.371058,0.593728 -0.816375,0.371088 -1.277299,1.25778 -1.140587,2.179628 0.124998,0.843724 0.867166,1.550737 1.714797,1.695262 1.019497,0.175781 2.070249,-0.488264 2.320246,-1.523388 0.281244,-1.16403 -0.351553,-2.206969 -1.539017,-2.51946 -0.05077,-0.0156 -0.105472,-0.02737 -0.214842,-0.05466 0.316399,-0.140618 0.589829,-0.242183 0.843724,-0.382801 0.441397,-0.242182 0.874981,-0.499985 1.296842,-0.769508 0.124999,-0.07814 0.191401,-0.07814 0.300771,0.0117 0.816384,0.703098 1.30075,1.581986 1.43746,2.656172 0.226555,1.777292 -0.617169,3.413967 -2.203061,4.249877 -2.456966,1.296842 -5.46469,-0.17968 -6.007643,-2.902261 -0.464831,-2.331959 1.183556,-4.449092 3.16397,-4.859233 0.851538,-0.175781 1.632768,-0.531241 2.238224,-1.187472 0.390606,-0.421862 0.582007,-0.785136 0.644511,-0.953095 0.121091,-0.308584 0.183586,-0.632797 0.179679,-0.964815 -0.01178,-0.285151 -0.07814,-0.566396 -0.199214,-0.828105 -0.20702,-0.472645 -0.99997,-1.222618 -1.195278,-1.378864 l -1.859322,-1.460893 c -0.06636,-0.05466 -0.140618,-0.05077 -0.300771,-0.03907 -0.191401,0.0117 -0.679673,0.03907 -0.8906,-0.0156 0.171866,-0.128897 0.632798,-0.316399 0.832004,-0.468729 -0.605449,-0.41015 -1.296834,-0.261718 -1.929632,-0.38281 0.144525,-0.273429 0.871074,-0.691385 1.285121,-0.738252 -0.02347,-0.23047 -0.06246,-0.460932 -0.113277,-0.687487 -0.02348,-0.09374 -0.128905,-0.183586 -0.218741,-0.234368 -0.218749,-0.128898 -0.453118,-0.234369 -0.703106,-0.363266 0.226555,-0.144533 0.488264,-0.226555 0.75388,-0.234378 0.253904,-0.0075 0.507799,0.0156 0.757796,0.07424 0.449203,0.101556 0.80857,0.03517 1.16403,-0.269524 -0.281244,-0.113277 -0.562488,-0.218749 -0.835918,-0.339841 q -0.404286,-0.181629 -0.785129,-0.41014 c 0.707014,0.09765 1.394492,0.363273 2.117125,0.265615 l 0.01949,-0.09765 -1.675728,-0.390615 c 1.003877,-0.09375 1.937446,-0.105463 2.820231,0.324205 0.249989,0.121091 0.507799,0.222648 0.746075,0.359367 0.117185,0.06644 0.195299,0.199214 0.28905,0.304677 0.07424,0.08204 0.136711,0.191401 0.230462,0.242183 0.351553,0.187494 0.742167,0.195308 1.140596,0.187494 l 0.0075,-0.132812 c 0.398428,0.124998 0.847631,0.585921 0.847631,0.921855 -0.644509,0 -1.292927,-0.0041 -1.937445,0.0041 -0.07035,0 -0.136711,0.05077 -0.207028,0.07814 0.06254,0.03517 0.128905,0.101556 0.195315,0.105463 m -0.832011,-0.957002 c -0.04686,0.02737 -0.05856,0.08984 -0.03119,0.13672 0.0041,0.0075 0.0117,0.01559 0.01949,0.02347 0.03907,0.07035 0.132812,0.09766 0.203121,0.05466 0.06254,-0.03119 0.124998,-0.06644 0.199214,-0.105471 -0.06247,-0.05077 -0.10937,-0.09375 -0.160153,-0.136712 -0.08984,-0.07034 -0.160153,-0.02737 -0.230461,0.02737"
     style="fill:#e5e5e5;fill-opacity:1;stroke-width:0.780922"
     id="path5" />
</svg>
