<?xml version="1.0" encoding="UTF-8" standalone="no"?>
<svg
   width="48"
   height="48"
   version="1.1"
   id="svg7426"
   sodipodi:docname="github-desktop.svg"
   inkscape:version="1.2.1 (9c6d41e410, 2022-07-14)"
   xmlns:inkscape="http://www.inkscape.org/namespaces/inkscape"
   xmlns:sodipodi="http://sodipodi.sourceforge.net/DTD/sodipodi-0.dtd"
   xmlns:xlink="http://www.w3.org/1999/xlink"
   xmlns="http://www.w3.org/2000/svg"
   xmlns:svg="http://www.w3.org/2000/svg">
  <sodipodi:namedview
     id="namedview7428"
     pagecolor="#ffffff"
     bordercolor="#666666"
     borderopacity="1.0"
     inkscape:showpageshadow="2"
     inkscape:pageopacity="0.0"
     inkscape:pagecheckerboard="0"
     inkscape:deskcolor="#d1d1d1"
     showgrid="true"
     inkscape:zoom="3.4766084"
     inkscape:cx="27.900755"
     inkscape:cy="42.138769"
     inkscape:window-width="1920"
     inkscape:window-height="1008"
     inkscape:window-x="0"
     inkscape:window-y="0"
     inkscape:window-maximized="1"
     inkscape:current-layer="svg7426">
    <inkscape:grid
       type="xygrid"
       id="grid1542" />
  </sodipodi:namedview>
  <defs
     id="defs7410">
    <linearGradient
       inkscape:collect="always"
       id="linearGradient1486">
      <stop
         style="stop-color:#535a61;stop-opacity:1;"
         offset="0"
         id="stop1482" />
      <stop
         style="stop-color:#394246;stop-opacity:1;"
         offset="1"
         id="stop1484" />
    </linearGradient>
    <linearGradient
       id="linearGradient10050">
      <stop
         style="stop-color:#a3be8c;stop-opacity:1;"
         offset="0"
         id="stop10046" />
      <stop
         style="stop-color:#739755;stop-opacity:1;"
         offset="1"
         id="stop10048" />
    </linearGradient>
    <linearGradient
       id="linearGradient4154">
      <stop
         offset="0"
         style="stop-color:#000000;stop-opacity:1"
         id="stop7390" />
      <stop
         offset="1"
         style="stop-color:#000000;stop-opacity:0"
         id="stop7392" />
    </linearGradient>
    <linearGradient
       id="linearGradient4192">
      <stop
         style="stop-color:#272b2d;stop-opacity:1"
         offset="0"
         id="stop7395" />
      <stop
         style="stop-color:#33393e;stop-opacity:1"
         offset="1"
         id="stop7397" />
    </linearGradient>
    <linearGradient
       id="linearGradient4140">
      <stop
         style="stop-color:#279646;stop-opacity:1"
         offset="0"
         id="stop7400" />
      <stop
         style="stop-color:#76ff68;stop-opacity:1"
         offset="1"
         id="stop7402" />
    </linearGradient>
    <linearGradient
       xlink:href="#linearGradient4140"
       id="linearGradient4146"
       x1="24.705"
       y1="43.938999"
       x2="25.061001"
       y2="4.4050002"
       gradientUnits="userSpaceOnUse"
       gradientTransform="translate(107.1821,-36.883996)" />
    <linearGradient
       xlink:href="#linearGradient4192"
       id="linearGradient4166"
       x1="31"
       y1="34"
       x2="31"
       y2="24"
       gradientUnits="userSpaceOnUse"
       gradientTransform="translate(107.1821,-36.883996)" />
    <linearGradient
       xlink:href="#linearGradient4192"
       id="linearGradient4168"
       x1="18"
       y1="34"
       x2="18"
       y2="24"
       gradientUnits="userSpaceOnUse"
       gradientTransform="translate(107.1821,-36.883996)" />
    <linearGradient
       xlink:href="#linearGradient4154"
       id="linearGradient4182"
       x1="13"
       y1="24"
       x2="30"
       y2="41"
       gradientUnits="userSpaceOnUse"
       gradientTransform="translate(107.1821,-36.883996)" />
    <linearGradient
       xlink:href="#linearGradient4154"
       id="linearGradient4190"
       x1="29"
       y1="26"
       x2="36"
       y2="33"
       gradientUnits="userSpaceOnUse"
       gradientTransform="translate(107.1821,-36.883996)" />
    <filter
       id="filter1057"
       x="-0.026999999"
       y="-0.026999999"
       width="1.054"
       height="1.054"
       color-interpolation-filters="sRGB">
      <feGaussianBlur
         stdDeviation="0.61875"
         id="feGaussianBlur865" />
    </filter>
    <linearGradient
       id="linearGradient1053"
       x1="-127"
       x2="-72"
       y1="60"
       y2="5"
       gradientTransform="matrix(0.75901327,0,0,0.75901327,99.521825,-0.17452206)"
       gradientUnits="userSpaceOnUse">
      <stop
         stop-color="#32d7ff"
         offset="0"
         id="stop868"
         style="stop-color:#00161b;stop-opacity:1;" />
      <stop
         stop-color="#329bff"
         offset="1"
         id="stop870"
         style="stop-color:#000e1b;stop-opacity:1;" />
    </linearGradient>
    <linearGradient
       inkscape:collect="always"
       xlink:href="#linearGradient1486"
       id="linearGradient1488"
       x1="3.1271343"
       y1="3.6281359"
       x2="45"
       y2="45"
       gradientUnits="userSpaceOnUse" />
  </defs>
  <rect
     x="65.042374"
     y="-39.5"
     width="55"
     height="55"
     ry="25.296911"
     fill="#141414"
     filter="url(#filter1057)"
     opacity="0.3"
     stroke-linecap="round"
     stroke-width="2.7444"
     id="rect901"
     rx="27.5"
     transform="matrix(0.75901327,0,0,0.75901327,-46.240891,33.609159)" />
  <rect
     x="3.1271343"
     y="3.6281359"
     width="41.745731"
     height="41.745731"
     ry="20.872866"
     stroke-linecap="round"
     stroke-width="2.08304"
     id="rect903"
     style="fill-opacity:1;fill:url(#linearGradient1488)" />
  <path
     d="m 35.145103,10.159089 c -0.692979,-0.03236 -2.645593,0.199089 -5.69764,2.32221 -1.707307,-0.514829 -3.656225,-0.705401 -5.687879,-0.700467 -1.858668,0.0045 -3.7859,0.156775 -5.659485,0.700467 -3.052932,-2.123032 -4.613249,-2.353308 -5.306915,-2.320604 -0.231279,0.0109 -0.343074,0.04606 -0.343074,0.04606 -1.160614,3.010773 -0.426298,5.238084 -0.206495,5.791183 -1.363405,1.528192 -2.163329,3.479815 -2.163329,5.867491 0,8.382533 5.431418,10.260429 10.164008,10.812093 -0.608435,0.546558 -0.991271,1.676652 -1.184969,3.089377 -1.214173,0.559983 -4.471533,1.93048 -6.372658,-1.412065 0,0 -1.124783,-2.101172 -3.264073,-2.255483 0,0 -2.079763,-0.02697 -0.144557,1.329501 0,0 1.397027,0.673157 2.366668,3.200685 0,0 1.439915,3.847018 7.368403,2.525549 0.006,1.02633 0.0109,3.899985 0.01578,5.750914 C 21,45.2 22.711951,45.4 24.1,45.4 c 2.262388,0 2.9,-0.3 5.494802,-0.693 0.006,-2.256774 0.01262,-6.258452 0.01262,-7.995205 0,-2.039923 -0.843329,-3.374819 -1.60742,-4.050414 4.746928,-0.541193 9.730533,-2.392323 9.730533,-10.796314 0,-2.387618 -0.664,-4.340733 -2.029958,-5.869213 0.218512,-0.553299 0.951939,-2.77889 -0.211256,-5.789748 0,0 -0.112084,-0.03686 -0.343105,-0.04765 z"
     fill="#ffffff"
     stroke-width="0.759021"
     id="path20"
     sodipodi:nodetypes="cccccccsccccccccscscscccc" />
</svg>
