<?xml version="1.0" encoding="UTF-8" standalone="no"?>
<svg
   width="48"
   height="48"
   version="1.1"
   id="svg6"
   sodipodi:docname="goa-account-lastfm.svg"
   inkscape:version="1.2.2 (b0a8486541, 2022-12-01)"
   xmlns:inkscape="http://www.inkscape.org/namespaces/inkscape"
   xmlns:sodipodi="http://sodipodi.sourceforge.net/DTD/sodipodi-0.dtd"
   xmlns:xlink="http://www.w3.org/1999/xlink"
   xmlns="http://www.w3.org/2000/svg"
   xmlns:svg="http://www.w3.org/2000/svg">
  <defs
     id="defs10">
    <linearGradient
       xlink:href="#c"
       id="linearGradient4151"
       gradientUnits="userSpaceOnUse"
       x1="4.0000024"
       y1="43.999989"
       x2="43.999992"
       y2="3.9999998"
       gradientTransform="matrix(1.0499999,0,0,1.0499999,-1.1999975,-1.199992)" />
    <linearGradient
       id="c"
       y1="543.79999"
       y2="509.79999"
       gradientUnits="userSpaceOnUse"
       x2="0"
       gradientTransform="matrix(-1,0,0,1,817.14,0)">
      <stop
         stop-color="#c61423"
         id="stop10816" />
      <stop
         offset="1"
         stop-color="#dc2b41"
         id="stop10818" />
    </linearGradient>
    <linearGradient
       id="a-1"
       y1="32"
       y2="16"
       x2="0"
       gradientUnits="userSpaceOnUse"
       gradientTransform="matrix(1.687457,0,0,1.687457,-16.498967,-16.498123)">
      <stop
         stop-color="#f7abb2"
         id="stop10806-8" />
      <stop
         offset="1"
         stop-color="#f9dce0"
         id="stop10808-7" />
    </linearGradient>
  </defs>
  <sodipodi:namedview
     id="namedview8"
     pagecolor="#ffffff"
     bordercolor="#000000"
     borderopacity="0.25"
     inkscape:showpageshadow="2"
     inkscape:pageopacity="0.0"
     inkscape:pagecheckerboard="0"
     inkscape:deskcolor="#d1d1d1"
     showgrid="false"
     inkscape:zoom="1.3037281"
     inkscape:cx="48.706474"
     inkscape:cy="104.69974"
     inkscape:window-width="1920"
     inkscape:window-height="1000"
     inkscape:window-x="0"
     inkscape:window-y="0"
     inkscape:window-maximized="1"
     inkscape:current-layer="svg6" />
  <rect
     style="fill:url(#linearGradient4151);fill-opacity:1;stroke:none;stroke-width:1.05"
     width="41.999985"
     height="41.999985"
     x="2.9999995"
     y="3.0000076"
     ry="20.999992"
     rx="20.999992"
     id="rect16" />
  <path
     d="m 26.955228,28.633862 -0.319625,-0.74012 -2.752505,-6.547056 c -0.908695,-2.317273 -3.17478,-3.882917 -5.72814,-3.882917 -3.45582,0 -6.258305,2.925986 -6.258305,6.538198 0,3.608278 2.802485,6.53656 6.257945,6.53656 2.41258,0 4.50541,-1.424391 5.551345,-3.509402 l 1.11272,2.679279 C 23.240178,31.718855 20.839203,33 18.154958,33 13.395203,33 9.5383025,28.9742 9.5383025,24.001967 9.5383025,19.03073 13.395203,15 18.154958,15 c 3.59154,0 6.491625,2.001891 7.96613,5.552693 0.110464,0.275943 1.557825,3.807348 2.820579,6.812492 0.780195,1.859333 1.446073,3.095157 3.609587,3.1707 2.119832,0.07555 3.580033,-1.271299 3.580033,-2.979516 0,-1.666824 -1.114942,-2.067264 -2.989701,-2.719017 -3.369786,-1.158953 -5.112539,-2.324159 -5.112539,-5.116429 0,-2.722972 1.773628,-4.539924 4.658219,-4.539924 1.875746,0 3.235098,0.872513 4.175275,2.612587 l -1.846196,0.984196 c -0.693141,-1.01376 -1.45789,-1.415187 -2.43322,-1.415187 -1.353437,0 -2.31594,0.982879 -2.31594,2.29032 0,1.857036 1.589953,2.1366 3.810962,2.89641 2.993966,1.017049 4.38355,2.180939 4.38355,5.08227 0,3.049176 -2.503529,5.270187 -5.774432,5.265251 -3.013031,-0.01413 -4.619743,-1.551512 -5.732408,-4.262984"
     fill="#ffffff"
     id="path4-3"
     style="stroke-width:0.328505" />
</svg>
