<?xml version="1.0" encoding="UTF-8" standalone="no"?>
<svg
   id="svg2"
   viewBox="0 0 48 48"
   version="1.1"
   sodipodi:docname="keepassxc-unlocked.svg"
   width="48"
   height="48"
   inkscape:version="1.2.2 (b0a8486541, 2022-12-01)"
   xmlns:inkscape="http://www.inkscape.org/namespaces/inkscape"
   xmlns:sodipodi="http://sodipodi.sourceforge.net/DTD/sodipodi-0.dtd"
   xmlns="http://www.w3.org/2000/svg"
   xmlns:svg="http://www.w3.org/2000/svg">
  <defs
     id="defs14" />
  <sodipodi:namedview
     id="namedview12"
     pagecolor="#ffffff"
     bordercolor="#000000"
     borderopacity="0.25"
     inkscape:showpageshadow="2"
     inkscape:pageopacity="0.0"
     inkscape:pagecheckerboard="0"
     inkscape:deskcolor="#d1d1d1"
     showgrid="false"
     inkscape:zoom="2.36"
     inkscape:cx="21.398305"
     inkscape:cy="50.211864"
     inkscape:window-width="1920"
     inkscape:window-height="1002"
     inkscape:window-x="0"
     inkscape:window-y="0"
     inkscape:window-maximized="1"
     inkscape:current-layer="svg2" />
  <circle
     style="clip-rule:evenodd;fill:#ffffff;fill-rule:evenodd;stroke:#515151;stroke-width:1.31964;stroke-linecap:round;stroke-linejoin:round"
     cx="24"
     cy="24"
     r="19.340179"
     id="circle2" />
  <linearGradient
     id="SVGID_1_"
     gradientUnits="userSpaceOnUse"
     x1="50"
     y1="754.75311"
     x2="50"
     y2="828.35699"
     gradientTransform="matrix(0.42135466,0,0,0.42135466,2.9322609,-309.7129)">
    <stop
       offset="0"
       style="stop-color:#35762e"
       id="stop4" />
    <stop
       offset="1"
       style="stop-color:#6daa43"
       id="stop6" />
  </linearGradient>
  <path
     style="fill:url(#SVGID_1_);stroke-width:0.421355"
     d="m 26.823069,8.7048196 c 0.04214,0.2106773 0.08427,0.4213547 0.08427,0.632032 0,1.6011474 -1.3062,2.9073464 -2.907348,2.9073464 -1.601147,0 -2.907347,-1.306199 -2.907347,-2.9073464 0,-0.2106773 0.04214,-0.4213547 0.08427,-0.632032 0.92698,-0.1685419 1.896096,-0.2528128 2.823076,-0.2528128 0.969116,-0.042135 1.896096,0.084271 2.823077,0.2528128 z M 15.825712,12.244198 c 0,3.244431 1.896096,6.067507 4.677037,7.373707 v 14.789549 l 3.497243,3.497243 3.497244,-3.497243 -0.210677,-3.075889 1.643283,-1.643284 -1.643283,-1.643283 2.485992,-2.485992 -2.485992,-2.485993 0.210677,-3.455108 c 2.738805,-1.3062 4.677037,-4.129276 4.677037,-7.373707 0,-0.547761 -0.04214,-1.053386 -0.168542,-1.601147 4.677037,2.823076 7.542248,7.879332 7.584384,13.356942 0,8.595636 -6.952352,15.590123 -15.590123,15.590123 -8.595635,0 -15.5901205,-6.952352 -15.5901205,-15.590123 0,-5.47761 2.8652105,-10.533866 7.5843825,-13.356942 -0.08427,0.547761 -0.168542,1.053386 -0.168542,1.601147 z m 5.85683,9.311938 h 1.179793 v 11.671525 h -1.179793 z"
     id="path9" />
</svg>
