<?xml version="1.0" encoding="UTF-8" standalone="no"?>
<svg
   height="32"
   width="32"
   version="1.1"
   id="svg39"
   sodipodi:docname="preferences-system-network-nis.svg"
   inkscape:version="1.1.1 (3bf5ae0d25, 2021-09-20)"
   xmlns:inkscape="http://www.inkscape.org/namespaces/inkscape"
   xmlns:sodipodi="http://sodipodi.sourceforge.net/DTD/sodipodi-0.dtd"
   xmlns="http://www.w3.org/2000/svg"
   xmlns:svg="http://www.w3.org/2000/svg">
  <defs
     id="defs43" />
  <sodipodi:namedview
     id="namedview41"
     pagecolor="#ffffff"
     bordercolor="#666666"
     borderopacity="1.0"
     inkscape:pageshadow="2"
     inkscape:pageopacity="0.0"
     inkscape:pagecheckerboard="0"
     showgrid="true"
     inkscape:zoom="19.4375"
     inkscape:cx="16"
     inkscape:cy="15.974277"
     inkscape:window-width="1920"
     inkscape:window-height="1011"
     inkscape:window-x="0"
     inkscape:window-y="0"
     inkscape:window-maximized="1"
     inkscape:current-layer="svg39">
    <inkscape:grid
       type="xygrid"
       id="grid860" />
  </sodipodi:namedview>
  <linearGradient
     id="a"
     gradientUnits="userSpaceOnUse"
     x1="30"
     x2="30"
     y1="30"
     y2="2">
    <stop
       offset="0"
       stop-color="#fdbc4b"
       id="stop2" />
    <stop
       offset="1"
       stop-color="#fed286"
       id="stop4" />
  </linearGradient>
  <linearGradient
     id="e"
     gradientUnits="userSpaceOnUse"
     x1="25"
     x2="25"
     y1="21"
     y2="7">
    <stop
       offset="0"
       stop-color="#232629"
       id="stop7" />
    <stop
       offset="1"
       stop-color="#4d4d4d"
       id="stop9" />
  </linearGradient>
  <linearGradient
     id="d"
     gradientUnits="userSpaceOnUse"
     x1="14"
     x2="28"
     y1="12"
     y2="26">
    <stop
       offset="0"
       stop-color="#292c2f"
       id="stop12" />
    <stop
       offset="1"
       stop-opacity="0"
       id="stop14" />
  </linearGradient>
  <linearGradient
     id="c"
     gradientUnits="userSpaceOnUse"
     x1="4"
     x2="4"
     y1="30"
     y2="27">
    <stop
       offset="0"
       stop-opacity=".4"
       id="stop17" />
    <stop
       offset="1"
       stop-opacity=".2"
       id="stop19" />
  </linearGradient>
  <linearGradient
     id="b"
     gradientTransform="matrix(.66667 0 0 16 -25.794 -199.679)"
     gradientUnits="userSpaceOnUse"
     x1="38.691"
     x2="38.691"
     y1="14.355"
     y2="12.605">
    <stop
       offset="0"
       stop-color="#1d1e1e"
       id="stop22" />
    <stop
       offset="1"
       stop-color="#44484c"
       id="stop24" />
  </linearGradient>
  <path
     d="M 4,2 H 23.047019 C 26,2 28,4 28,7 V 30 H 4 Z"
     fill="url(#a)"
     id="path27"
     sodipodi:nodetypes="cccccc" />
  <path
     d="M4 2v28h2v-1H5v-1h1V2z"
     fill="url(#b)"
     id="path29" />
  <path
     d="M4 27v3h24v-1H5v-1h23v-1z"
     fill="url(#c)"
     fill-rule="evenodd"
     id="path31" />
  <path
     d="M5 28h23v1H5z"
     fill="#edf573"
     id="path33" />
  <path
     d="M10 21l6 6h12V16.753l-8.877-8.876L17 7l-3 3 .877 2.123L17 14.246 14 15l-3 3z"
     fill="url(#d)"
     opacity=".2"
     id="path35" />
  <path
     d="M22 13a2 2 0 0 0-2 2v2h-1v4h6v-4h-1v-2a2 2 0 0 0-2-2zm0 1a1 1 0 0 1 1 1v2h-2v-2a1 1 0 0 1 1-1zm-5 0c-3.878 0-7 3.122-7 7h8v-1h-6.91A5.98 5.98 0 0 1 17 15c.343 0 .676.037 1 .098v-1.012A6.654 6.654 0 0 0 17 14zm0-7c-1.662 0-3 1.338-3 3s1.338 3 3 3 3-1.338 3-3-1.338-3-3-3zm0 1c1.108 0 2 .892 2 2s-.892 2-2 2-2-.892-2-2 .892-2 2-2z"
     fill="url(#e)"
     id="path37" />
</svg>
