<?xml version="1.0" encoding="UTF-8" standalone="no"?>
<svg
   height="32"
   width="32"
   version="1.1"
   id="svg69"
   sodipodi:docname="preferences-system-network-ldap.svg"
   inkscape:version="1.1.1 (3bf5ae0d25, 2021-09-20)"
   xmlns:inkscape="http://www.inkscape.org/namespaces/inkscape"
   xmlns:sodipodi="http://sodipodi.sourceforge.net/DTD/sodipodi-0.dtd"
   xmlns:xlink="http://www.w3.org/1999/xlink"
   xmlns="http://www.w3.org/2000/svg"
   xmlns:svg="http://www.w3.org/2000/svg">
  <defs
     id="defs73" />
  <sodipodi:namedview
     id="namedview71"
     pagecolor="#ffffff"
     bordercolor="#666666"
     borderopacity="1.0"
     inkscape:pageshadow="2"
     inkscape:pageopacity="0.0"
     inkscape:pagecheckerboard="0"
     showgrid="true"
     inkscape:zoom="19.4375"
     inkscape:cx="16"
     inkscape:cy="15.974277"
     inkscape:window-width="1920"
     inkscape:window-height="1011"
     inkscape:window-x="0"
     inkscape:window-y="0"
     inkscape:window-maximized="1"
     inkscape:current-layer="svg69">
    <inkscape:grid
       type="xygrid"
       id="grid890" />
  </sodipodi:namedview>
  <linearGradient
     id="a"
     gradientUnits="userSpaceOnUse"
     x1="15"
     x2="28"
     y1="13"
     y2="26">
    <stop
       offset="0"
       stop-color="#292c2f"
       id="stop2" />
    <stop
       offset="1"
       stop-opacity="0"
       id="stop4" />
  </linearGradient>
  <linearGradient
     id="b"
     gradientUnits="userSpaceOnUse"
     x1="26"
     x2="26"
     y1="20.999999"
     y2="7">
    <stop
       offset="0"
       stop-color="#31363b"
       id="stop7" />
    <stop
       offset="1"
       stop-color="#4d4d4d"
       id="stop9" />
  </linearGradient>
  <linearGradient
     id="c"
     gradientTransform="translate(0 -1)"
     gradientUnits="userSpaceOnUse"
     x1="4"
     x2="8"
     xlink:href="#i"
     y1="19"
     y2="23" />
  <linearGradient
     id="d"
     gradientTransform="translate(0 -8)"
     gradientUnits="userSpaceOnUse"
     x1="4"
     x2="8"
     xlink:href="#i"
     y1="19"
     y2="23" />
  <linearGradient
     id="e">
    <stop
       offset="0"
       id="stop14" />
    <stop
       offset="1"
       stop-opacity="0"
       id="stop16" />
  </linearGradient>
  <linearGradient
     id="f"
     gradientUnits="userSpaceOnUse"
     x1="3.999"
     x2="8"
     xlink:href="#e"
     y1="4"
     y2="8" />
  <linearGradient
     id="g"
     gradientUnits="userSpaceOnUse"
     x1="28"
     x2="28"
     y1="30"
     y2="2">
    <stop
       offset="0"
       stop-color="#997657"
       id="stop20" />
    <stop
       offset="1"
       stop-color="#d4ba94"
       id="stop22" />
  </linearGradient>
  <linearGradient
     id="h"
     gradientTransform="matrix(.66667 0 0 16 -25.794 -199.679)"
     gradientUnits="userSpaceOnUse"
     x1="44.691"
     x2="44.691"
     y1="14.355"
     y2="12.605">
    <stop
       offset="0"
       stop-color="#433a35"
       id="stop25" />
    <stop
       offset="1"
       stop-color="#6c5548"
       id="stop27" />
  </linearGradient>
  <linearGradient
     id="i"
     gradientTransform="matrix(.70710678 -.70710678 .70710678 .70710678 -664.006239 -60.060868)"
     gradientUnits="userSpaceOnUse"
     x1="432.711"
     x2="432.711"
     xlink:href="#e"
     y1="531.791"
     y2="544.519" />
  <path
     d="M 4,2 H 23.975354 C 27,2 28,3 28,6 V 30 H 4 Z"
     fill="url(#g)"
     id="path31"
     sodipodi:nodetypes="cccccc" />
  <path
     d="m4 29h24v1h-24z"
     fill="#232629"
     opacity=".6"
     id="path33" />
  <path
     d="m4 2v28h4v-1h-3v-1h3v-26h-3z"
     fill="url(#h)"
     id="path35" />
  <path
     d="m4 28h24v1h-24z"
     fill="#c5cfd3"
     id="path37" />
  <path
     d="m4 27h24v1h-24z"
     fill="#232629"
     opacity=".4"
     id="path39" />
  <path
     d="m28 6h2v4h-2z"
     fill="#2ecc71"
     id="path41" />
  <path
     d="m28 12h2v4h-2z"
     fill="#2980b9"
     id="path43" />
  <path
     d="m28 18h2v4h-2z"
     fill="#da4453"
     id="path45" />
  <circle
     cx="6"
     cy="21"
     fill="#232629"
     r="1"
     id="circle47" />
  <circle
     cx="6"
     cy="14"
     fill="#232629"
     r="1"
     id="circle49" />
  <path
     d="m6.333 20h-2.333l4 4 1.333-1z"
     fill="url(#c)"
     opacity=".2"
     id="path51" />
  <path
     d="m4.5 19a2.5 3 0 0 0 -2.5 3 2.5 3 0 0 0 2 2.938v-1.055a1.5 2 0 0 1 -1-1.883 1.5 2 0 0 1 1.5-2 1.5 2 0 0 1 1.5 2 1 1 0 0 0 .938-.654 2.5 3 0 0 0 -2.438-2.346z"
     fill="#7f8c8d"
     id="path53" />
  <path
     d="m6.333 13h-2.333l4 4 1.332-1z"
     fill="url(#d)"
     opacity=".2"
     id="path55" />
  <path
     d="m4.5 12a2.5 3 0 0 0 -2.5 3 2.5 3 0 0 0 2 2.938v-1.055a1.5 2 0 0 1 -1-1.883 1.5 2 0 0 1 1.5-2 1.5 2 0 0 1 1.5 2 1 1 0 0 0 .938-.654 2.5 3 0 0 0 -2.438-2.346z"
     fill="#7f8c8d"
     id="path57" />
  <circle
     cx="6"
     cy="7"
     fill="#232629"
     r="1"
     id="circle59" />
  <path
     d="m6.333 6h-2.333l4 4 1.332-1z"
     fill="url(#f)"
     opacity=".2"
     id="path61" />
  <path
     d="m4.5 5a2.5 3 0 0 0 -2.5 3 2.5 3 0 0 0 2 2.938v-1.055a1.5 2 0 0 1 -1-1.883 1.5 2 0 0 1 1.5-2 1.5 2 0 0 1 1.5 2 1 1 0 0 0 .938-.654 2.5 3 0 0 0 -2.438-2.346z"
     fill="#7f8c8d"
     id="path63" />
  <path
     d="m11 21 6 6h11v-11.2466l-7.8767-7.8767-2.1233-.8767-3 3 .8768 2.1232 2.1232 2.1232-3 .7536-3 3z"
     fill="url(#a)"
     opacity=".2"
     id="path65" />
  <path
     d="m18 7c-1.662 0-3 1.3379999-3 3 0 1.662 1.338 3 3 3s3-1.338 3-3c0-1.6620001-1.338-3-3-3zm0 1c1.108 0 2 .892 2 2s-.892 2-2 2-2-.892-2-2 .892-2 2-2zm0 6c-3.878 0-7 3.122-7 7h7 7c0-3.878-3.122-7-7-7zm-.04883 1a5.98 5.98 0 0 1 .04883 0 5.98 5.98 0 0 1 5.910156 5h-5.910156-5.910156a5.98 5.98 0 0 1 5.861328-5z"
     fill="url(#b)"
     id="path67" />
</svg>
