<?xml version="1.0" encoding="UTF-8" standalone="no"?>
<svg
   xmlns:dc="http://purl.org/dc/elements/1.1/"
   xmlns:cc="http://creativecommons.org/ns#"
   xmlns:rdf="http://www.w3.org/1999/02/22-rdf-syntax-ns#"
   xmlns:svg="http://www.w3.org/2000/svg"
   xmlns="http://www.w3.org/2000/svg"
   xmlns:xlink="http://www.w3.org/1999/xlink"
   xmlns:sodipodi="http://sodipodi.sourceforge.net/DTD/sodipodi-0.dtd"
   xmlns:inkscape="http://www.inkscape.org/namespaces/inkscape"
   height="32"
   width="32"
   version="1.1"
   id="svg65"
   sodipodi:docname="yast-software-group.svg"
   inkscape:version="0.92.5 (2060ec1f9f, 2020-04-08)">
  <metadata
     id="metadata69">
    <rdf:RDF>
      <cc:Work
         rdf:about="">
        <dc:format>image/svg+xml</dc:format>
        <dc:type
           rdf:resource="http://purl.org/dc/dcmitype/StillImage" />
        <dc:title></dc:title>
      </cc:Work>
    </rdf:RDF>
  </metadata>
  <sodipodi:namedview
     pagecolor="#ffffff"
     bordercolor="#666666"
     borderopacity="1"
     objecttolerance="10"
     gridtolerance="10"
     guidetolerance="10"
     inkscape:pageopacity="0"
     inkscape:pageshadow="2"
     inkscape:window-width="1085"
     inkscape:window-height="480"
     id="namedview67"
     showgrid="false"
     inkscape:zoom="7.375"
     inkscape:cx="16"
     inkscape:cy="16"
     inkscape:window-x="0"
     inkscape:window-y="25"
     inkscape:window-maximized="0"
     inkscape:current-layer="svg65" />
  <defs
     id="defs26">
    <linearGradient
       id="f"
       gradientUnits="userSpaceOnUse"
       x1="10"
       x2="10"
       xlink:href="#a"
       y1="8"
       y2="2" />
    <linearGradient
       id="a"
       gradientUnits="userSpaceOnUse"
       x2="0"
       y1="30"
       y2="8">
      <stop
         offset="0"
         stop-color="#cea476"
         id="stop3" />
      <stop
         offset="1"
         stop-color="#dab58b"
         id="stop5" />
    </linearGradient>
    <linearGradient
       xlink:href="#a"
       id="g"
       gradientUnits="userSpaceOnUse"
       y1="30"
       x2="0"
       y2="8" />
    <linearGradient
       xlink:href="#b"
       id="h"
       gradientUnits="userSpaceOnUse"
       y1="30"
       x2="0"
       y2="8" />
    <linearGradient
       id="b"
       gradientUnits="userSpaceOnUse"
       x2="0"
       y1="30"
       y2="8">
      <stop
         offset="0"
         stop-color="#cfd2d5"
         id="stop10" />
      <stop
         offset="1"
         stop-color="#eff0f1"
         id="stop12" />
    </linearGradient>
    <linearGradient
       id="i"
       gradientTransform="matrix(0.35,0,0,0.70968,-120,-355.923)"
       gradientUnits="userSpaceOnUse"
       x1="411.427"
       x2="411.427"
       y1="543.8"
       y2="512.8">
      <stop
         offset="0"
         stop-color="#73ba25"
         id="stop15" />
      <stop
         offset="1"
         stop-color="#81c13b"
         stop-opacity=".85"
         id="stop17" />
    </linearGradient>
    <linearGradient
       id="j"
       gradientTransform="matrix(0.66667,0,0,0.66667,-256.38,-333.867)"
       gradientUnits="userSpaceOnUse"
       x1="408.57"
       x2="408.57"
       xlink:href="#c"
       y1="512.801"
       y2="503.801">
      <stop
         offset="0"
         stop-color="#ebc69a"
         id="stop20" />
      <stop
         offset="1"
         stop-color="#f4e0c8"
         stop-opacity="0"
         id="stop22" />
    </linearGradient>
    <linearGradient
       xlink:href="#c"
       id="k"
       gradientUnits="userSpaceOnUse"
       gradientTransform="matrix(0.66667,0,0,-0.37037,-256.38,197.926)"
       x1="408.57"
       y1="512.798"
       x2="408.57"
       y2="504.698" />
  </defs>
  <linearGradient
     id="e"
     gradientUnits="userSpaceOnUse"
     x2="0"
     y1="30"
     y2="8">
    <stop
       offset="0"
       stop-color="#cea476"
       id="stop28" />
    <stop
       offset="1"
       stop-color="#dab58b"
       id="stop30" />
  </linearGradient>
  <linearGradient
     id="c"
     gradientTransform="matrix(.66667 0 0 -.37037 -256.38 197.926)"
     gradientUnits="userSpaceOnUse"
     x1="408.57"
     x2="408.57"
     y1="512.798"
     y2="504.698">
    <stop
       offset="0"
       stop-color="#ebc69a"
       id="stop33" />
    <stop
       offset="1"
       stop-color="#73ba25"
       stop-opacity="0"
       id="stop35" />
  </linearGradient>
  <linearGradient
     id="d"
     gradientTransform="translate(-256.38 -333.867) scale(.66667)"
     gradientUnits="userSpaceOnUse"
     x2="0"
     xlink:href="#c"
     y1="512.8"
     y2="503.8">
    <stop
       offset="0"
       stop-color="#ebc69a"
       id="stop38" />
    <stop
       offset="1"
       stop-color="#f4e0c8"
       stop-opacity="0"
       id="stop40" />
  </linearGradient>
  <path
     d="M 6,2 2,8 H 30 L 26,2 H 7 Z"
     id="path43"
     style="fill:url(#f);fill-rule:evenodd"
     inkscape:connector-curvature="0" />
  <path
     d="M 2,8 V 27.148 A 2.846,2.846 0 0 0 4.852,30 H 27.148 A 2.846,2.846 0 0 0 30,27.148 V 8 H 4.852 Z"
     id="path45"
     style="fill:url(#g)"
     inkscape:connector-curvature="0" />
  <path
     d="m 2,8 v 19.148 c 0,0.79 0.319,1.503 0.834,2.018 A 2.842,2.842 0 0 0 4.852,30 H 14 V 8 Z"
     id="path47"
     style="fill:url(#h)"
     inkscape:connector-curvature="0" />
  <path
     d="m 14,30 h 13.148 c 0.79,0 1.503,-0.319 2.018,-0.834 A 2.842,2.842 0 0 0 30,27.148 V 8 H 14 Z"
     id="path49"
     style="fill:url(#i)"
     inkscape:connector-curvature="0" />
  <g
     id="g59"
     style="stroke-width:1.86699998;stroke-opacity:0.55">
    <path
       d="m 14,2 v 9 l 1,-1 1,1 1,-1 c 0,0 1,1 1,0.972 V 2 Z"
       id="path53"
       inkscape:connector-curvature="0"
       style="fill:#f4e0c8" />
    <path
       d="m 14,2 h 4 v 6 h -4 z"
       id="path55"
       style="fill:url(#j)"
       inkscape:connector-curvature="0" />
    <path
       d="m 14,8 v 3 l 1,-1 1,1 1,-1 c 0,0 1,1 1,0.973 V 8 Z"
       id="path57"
       style="fill:url(#k)"
       inkscape:connector-curvature="0" />
  </g>
  <path
     d="m 2.766,29 c 0.04,0.045 0.026,0.124 0.068,0.166 A 2.842,2.842 0 0 0 4.852,30 H 14 v -1 z"
     id="path61"
     inkscape:connector-curvature="0"
     style="fill:#adb1b3" />
  <path
     d="m 14,29 v 1 h 13.148 c 0.79,0 1.503,-0.319 2.018,-0.834 0.042,-0.042 0.029,-0.121 0.068,-0.166 z"
     id="path63"
     inkscape:connector-curvature="0"
     style="fill:#649e26" />
</svg>
