<?xml version="1.0" encoding="UTF-8" standalone="no"?>
<svg
   viewBox="0 0 22 22"
   version="1.1"
   id="svg1"
   sodipodi:docname="bleachbit-indicator.svg"
   inkscape:version="1.4.2 (unknown)"
   width="22"
   height="22"
   xmlns:inkscape="http://www.inkscape.org/namespaces/inkscape"
   xmlns:sodipodi="http://sodipodi.sourceforge.net/DTD/sodipodi-0.dtd"
   xmlns:xlink="http://www.w3.org/1999/xlink"
   xmlns="http://www.w3.org/2000/svg"
   xmlns:svg="http://www.w3.org/2000/svg">
  <sodipodi:namedview
     id="namedview1"
     pagecolor="#646464"
     bordercolor="#000000"
     borderopacity="0.25"
     inkscape:showpageshadow="2"
     inkscape:pageopacity="0.0"
     inkscape:pagecheckerboard="0"
     inkscape:deskcolor="#3c3c3c"
     inkscape:zoom="16.705398"
     inkscape:cx="9.2485077"
     inkscape:cy="14.12717"
     inkscape:current-layer="svg1" />
  <defs
     id="defs3051">
    <style
       type="text/css"
       id="current-color-scheme">.ColorScheme-Text { color:#eff0f1; }
</style>
    <linearGradient
       xlink:href="#linearGradient4173"
       id="linearGradient4246"
       gradientUnits="userSpaceOnUse"
       gradientTransform="matrix(-0.69206366,-1.1977862,1.1986895,-0.69154216,-303.93354,888.77048)"
       y1="532.20502"
       x2="386.827"
       y2="524.41803"
       x1="428.02899" />
    <linearGradient
       gradientUnits="userSpaceOnUse"
       x2="0"
       y2="503.79999"
       y1="544.79999"
       id="linearGradient4173">
      <stop
         offset="0"
         stop-color="#44484c"
         id="stop51536" />
      <stop
         stop-color="#1d1e1e"
         offset="1"
         id="stop51538" />
    </linearGradient>
    <linearGradient
       xlink:href="#b"
       id="linearGradient4248"
       gradientUnits="userSpaceOnUse"
       gradientTransform="matrix(-0.69206366,-1.1977862,1.1986895,-0.69154216,-304.07003,888.84124)"
       y1="544.79999"
       x2="0"
       y2="503.79999" />
    <linearGradient
       id="b"
       y1="544.79999"
       y2="503.79999"
       gradientUnits="userSpaceOnUse"
       x2="0"
       gradientTransform="translate(-384.57,-499.8)">
      <stop
         stop-color="#4ea979"
         id="stop51546" />
      <stop
         offset="1"
         stop-color="#5eb085"
         id="stop51548" />
    </linearGradient>
    <linearGradient
       xlink:href="#b"
       id="linearGradient4193"
       gradientUnits="userSpaceOnUse"
       gradientTransform="matrix(1.3841273,0,0,1.3830843,-523.69865,-689.15858)"
       y1="544.79999"
       x2="0"
       y2="503.79999" />
    <linearGradient
       id="linearGradient2"
       y1="544.79999"
       y2="503.79999"
       gradientUnits="userSpaceOnUse"
       x2="0"
       gradientTransform="translate(-384.57,-499.8)">
      <stop
         stop-color="#4ea979"
         id="stop1" />
      <stop
         offset="1"
         stop-color="#5eb085"
         id="stop2" />
    </linearGradient>
    <linearGradient
       xlink:href="#b"
       id="linearGradient4219"
       gradientUnits="userSpaceOnUse"
       gradientTransform="matrix(-0.69206366,1.1977862,-1.1986895,-0.69154216,954.1403,-89.374582)"
       y1="544.79999"
       x2="0"
       y2="503.79999" />
    <linearGradient
       id="linearGradient4"
       y1="544.79999"
       y2="503.79999"
       gradientUnits="userSpaceOnUse"
       x2="0"
       gradientTransform="translate(-384.57,-499.8)">
      <stop
         stop-color="#4ea979"
         id="stop3" />
      <stop
         offset="1"
         stop-color="#5eb085"
         id="stop4" />
    </linearGradient>
    <linearGradient
       xlink:href="#linearGradient4282"
       id="linearGradient4288"
       x1="7.6690001"
       y1="14.513"
       x2="42.223999"
       y2="34.463001"
       gradientUnits="userSpaceOnUse"
       gradientTransform="matrix(1.3841273,0,0,1.3830843,8.5882734,2.2605188)" />
    <linearGradient
       id="linearGradient4282">
      <stop
         style="stop-color:#000000;stop-opacity:1;"
         offset="0"
         id="stop51541" />
      <stop
         style="stop-color:#000000;stop-opacity:0;"
         offset="1"
         id="stop51543" />
    </linearGradient>
  </defs>
  <g
     transform="matrix(0.39975406,0,0,0.40005552,1.4009632,2.147557)"
     id="g51593"
     style="stroke-width:1.3836">
    <path
       style="stroke-width:1.3836;fill-opacity:1;fill:currentColor;"
       d="m 27.25,4.0097656 c 0,0 -6.398421,0.034677 -6.705078,0.044922 -0.733471,0.1087607 -1.556641,0.71875 -1.556641,0.71875 0.0185,0.00532 0.03771,-0.025593 0.05859,-0.021484 0.565118,-0.337587 1.450518,-0.4038517 2.003906,0.1542969 l 1.214844,2.1035156 2.083984,3.6093759 2.628907,4.552733 c -1.187433,0.677943 -3.464844,2 -3.464844,2 l 10.927734,2.927734 2.931641,-10.9218741 c 0,0 -3.469278,1.9898461 -3.466797,1.9941401 L 30.289062,4.9082031 C 29.883264,4.3361609 29.215336,4.1208191 28.640625,4.0253906 28.512291,4.0071086 27.906232,4.0003936 27.25,4.0097656 Z M 15.244141,18.751953 4.3183594,21.675781 c 0,0 3.4604106,2.008202 3.4628906,2.003907 l -3.6171875,6.263671 c -0.2925043,0.637452 -0.1441649,1.323713 0.060547,1.869141 0.048335,0.120282 0.345408,0.649262 0.6816406,1.212891 0,0 3.2284242,5.522753 3.390625,5.783203 0.4609251,0.580824 1.4003906,0.990234 1.4003906,0.990234 -0.00464,-0.01868 -0.039992,-0.01892 -0.046875,-0.03906 C 9.0754729,39.439151 8.5745733,38.703635 8.78125,37.945312 l 1.2148438,-2.103515 2.0839842,-3.609375 2.628906,-4.552734 c 1.180833,0.689375 3.462891,1.999999 3.462891,2 z M 31,28 l -8,8 7.994141,8 c 0,0 0.01082,-4 0.0059,-4 h 7.232422 c 0.698302,-0.06541 1.217892,-0.536328 1.58789,-0.986328 0.08,-0.102 0.390938,-0.624266 0.710938,-1.197266 0,0 3.168044,-5.55743 3.3125,-5.828125 C 44.116296,31.298696 44,30.28125 44,30.28125 43.98614,30.29461 44.0042,30.32577 43.9902,30.3418 44,31 43.613547,31.799829 42.853482,32.000003 H 40.423828 36.255859 31 c 0.0066,-1.367319 0,-4 0,-4 z"
       id="path51558"
       class="ColorScheme-Text" />
    <path
       d="m 13.00433,14.53975 6.771334,3.924028 c 0.01892,-0.01323 0.61996,-1.024197 1.330171,-2.254075 0.710846,-1.22678 1.736479,-2.986332 2.269088,-3.905825 l 0.0035,-0.002 0.971155,-1.681911 -3.2985,-5.7131695 C 20.492605,4.3435561 19.600291,4.3160241 19.029351,4.7611267 18.669444,5.0497484 18.549621,5.18821 18.229369,5.7195176 17.776628,6.4693463 13.00866,14.53725 13,14.54225"
       style="stroke-width:1.3836;fill-opacity:0.55000001;fill:currentColor;"
       id="path51560"
       sodipodi:nodetypes="cccccccccc"
       class="ColorScheme-Text" />
    <path
       style="stroke-width:1.3836;fill-opacity:0.55000001;fill:currentColor;"
       d="m 38.361,20.115 -6.611,4.002 c 0.002,0.023 0.577,1.049 1.287,2.279 0.707,1.229 1.718,2.997 2.248,3.918 v 0.004 L 36.256,32 h 6.597 C 43.62,31.798 44.09,31.039 43.99,30.322 43.92,29.866 43.86,29.693 43.56,29.15 43.137,28.383 38.361,20.12 38.361,20.11"
       id="path51562"
       class="ColorScheme-Text" />
    <path
       d="M 20.997835,39.9975 21,32 c 0,0 -6.111712,-0.0017 -8.919481,0 L 8.7820189,37.945186 C 8.573456,38.710428 8.9957693,39.49696 9.6667095,39.768857 10.096617,39.936236 10.27644,39.970774 10.896692,39.982466 11.772469,39.999638 20.993505,39.995 21.002165,40"
       style="stroke-width:1.3836;fill-opacity:0.55000001;fill:currentColor;"
       id="path51564"
       class="ColorScheme-Text" />
    <path
       style="stroke-opacity:1;stroke-dasharray:none;stroke-miterlimit:4;stroke-linejoin:round;stroke-linecap:round;stroke-width:5.53443;stroke:none;fill-opacity:1;fill:currentColor;opacity:0.2;"
       d="M 13.744141,13.289062 C 13.576651,13.571518 13.001231,14.542258 13,14.542969 l 0.0039,-0.0039 6.771485,3.923829 c 0.01059,-0.0074 0.451778,-0.765791 0.74414,-1.261719 z m 1.5,5.462891 -10.9257816,2.923828 c 0,0 3.4604106,2.008202 3.4628906,2.003907 l -0.00977,0.01758 6.927735,4 0.0098,-0.01758 c 1.180833,0.689375 3.462891,1.999999 3.462891,2 z M 32.115234,23.896484 31.75,24.117188 c 0.002,0.023 0.577109,1.049296 1.287109,2.279296 0.707,1.229 1.718047,2.996969 2.248047,3.917969 v 0.0039 L 36.255859,32 H 31 c 0.0066,-1.367319 0,-4 0,-4 L 25.226562,33.773438 36.009766,40 h 2.222656 c 0.698302,-0.06541 1.217892,-0.536328 1.58789,-0.986328 0.08,-0.102 0.390938,-0.624266 0.710938,-1.197266 0,0 3.168044,-5.55743 3.3125,-5.828125 0.16129,-0.408089 0.182156,-0.86179 0.175781,-1.220703 z"
       id="path51566"
       class="ColorScheme-Text" />
  </g>
</svg>
