<?xml version="1.0" encoding="UTF-8" standalone="no"?>
<svg
   viewBox="0 0 24 24"
   width="24"
   height="24"
   version="1.1"
   id="svg1"
   sodipodi:docname="folder-benchmark-symbolic24.svg"
   xml:space="preserve"
   inkscape:version="1.4.2 (ebf0e940d0, 2025-05-08)"
   xmlns:inkscape="http://www.inkscape.org/namespaces/inkscape"
   xmlns:sodipodi="http://sodipodi.sourceforge.net/DTD/sodipodi-0.dtd"
   xmlns="http://www.w3.org/2000/svg"
   xmlns:svg="http://www.w3.org/2000/svg"><sodipodi:namedview
     id="namedview1"
     pagecolor="#505050"
     bordercolor="#ffffff"
     borderopacity="1"
     inkscape:showpageshadow="0"
     inkscape:pageopacity="0"
     inkscape:pagecheckerboard="1"
     inkscape:deskcolor="#505050"
     inkscape:zoom="48.166667"
     inkscape:cx="11.989619"
     inkscape:cy="12"
     inkscape:window-width="2556"
     inkscape:window-height="1364"
     inkscape:window-x="0"
     inkscape:window-y="0"
     inkscape:window-maximized="1"
     inkscape:current-layer="g1" /><defs
     id="defs3051"><style
       type="text/css"
       id="current-color-scheme">
      .ColorScheme-Text {
        color:#eff0f1
      }
      </style><style
       type="text/css"
       id="current-color-scheme-53">
      .ColorScheme-Text {
        color:#eff0f1
      }
      </style><style
       type="text/css"
       id="current-color-scheme-5">.ColorScheme-Text {color:#fcfcfc;}</style></defs><g
     transform="translate(1,1)"
     id="g1"><path
       d="M 11,14.449992 A 2.3999999,2.3999984 0 0 1 8.6,12.049995 c 0,-0.896 0.488,-1.679999 1.199999,-2.088 l 7.768,-4.495996 -4.424,7.663996 C 12.744,13.913993 11.936,14.449992 11,14.449992 M 11,4.05 c 1.447999,0 2.8,0.4000002 3.975999,1.055999 l -1.68,0.968 C 12.599999,5.801999 11.8,5.649999 11,5.649999 a 6.3999996,6.3999955 0 0 0 -6.4,6.399996 c 0,1.767998 0.7119998,3.367997 1.8719998,4.519998 H 6.48 c 0.3120001,0.311999 0.3120001,0.815998 0,1.127998 -0.312,0.311999 -0.824,0.311999 -1.1360001,0.008 v 0 C 3.896,16.257992 3,14.257993 3,12.049995 A 7.9999995,7.9999944 0 0 1 11,4.05 m 8,7.999995 c 0,2.207998 -0.896001,4.207997 -2.344002,5.655995 v 0 c -0.311998,0.304 -0.815999,0.304 -1.127999,-0.008 -0.312,-0.312001 -0.312,-0.816001 0,-1.127998 v 0 c 1.16,-1.16 1.871999,-2.752 1.871999,-4.52 0,-0.799999 -0.151999,-1.599998 -0.431998,-2.319998 L 17.935999,8.049939 C 18.599998,9.249938 19,10.593938 19,12.049938 Z"
       id="path1-5"
       style="fill:currentColor"
       class="ColorScheme-Text" /></g></svg>
