<?xml version="1.0" encoding="UTF-8" standalone="no"?>
<svg
   viewBox="0 0 24 24"
   width="24"
   height="24"
   version="1.1"
   id="svg1"
   sodipodi:docname="folder-google-symbolic24.svg"
   xml:space="preserve"
   inkscape:version="1.4.2 (ebf0e940d0, 2025-05-08)"
   xmlns:inkscape="http://www.inkscape.org/namespaces/inkscape"
   xmlns:sodipodi="http://sodipodi.sourceforge.net/DTD/sodipodi-0.dtd"
   xmlns="http://www.w3.org/2000/svg"
   xmlns:svg="http://www.w3.org/2000/svg"><sodipodi:namedview
     id="namedview1"
     pagecolor="#505050"
     bordercolor="#ffffff"
     borderopacity="1"
     inkscape:showpageshadow="0"
     inkscape:pageopacity="0"
     inkscape:pagecheckerboard="1"
     inkscape:deskcolor="#505050"
     inkscape:zoom="48.166667"
     inkscape:cx="11.989619"
     inkscape:cy="12"
     inkscape:window-width="2556"
     inkscape:window-height="1364"
     inkscape:window-x="0"
     inkscape:window-y="0"
     inkscape:window-maximized="1"
     inkscape:current-layer="g1" /><defs
     id="defs3051"><style
       type="text/css"
       id="current-color-scheme">
      .ColorScheme-Text {
        color:#eff0f1
      }
      </style></defs><g
     transform="translate(1,1)"
     id="g1"><path
       d="m 19,11.347549 c 0,-0.580311 -0.05102,-1.135114 -0.149861,-1.670785 h -7.687524 v 3.159824 h 4.393782 c -0.143483,0.762057 -0.506975,1.434835 -1.042647,1.970506 l -0.0032,0.0032 c -0.02232,0.02232 -0.04783,0.04783 -0.07334,0.07015 -0.159426,0.149861 -0.334795,0.290156 -0.522918,0.414508 -0.03826,0.02551 -0.07971,0.05102 -0.121163,0.07653 -0.01594,0.0096 -0.03507,0.02232 -0.05102,0.03188 -0.01913,0.01275 -0.04145,0.02551 -0.06058,0.03507 -0.471901,0.274213 -1.020326,0.468712 -1.635711,0.567556 l 0.0064,0.0032 c -0.283778,0.04464 -0.580311,0.07015 -0.889597,0.07015 -0.382623,0 -0.752491,-0.04783 -1.109606,-0.133917 0.0032,-0.0064 0.0032,-0.0096 0.0064,-0.01276 -1.5209245,-0.373057 -2.7708248,-1.476285 -3.3575127,-2.917497 0,-0.0032 -0.00319,-0.0064 -0.00319,-0.0096 -0.019131,-0.04464 -0.035074,-0.08928 -0.051016,-0.133918 -0.00319,-0.0064 -0.00638,-0.01594 -0.00957,-0.02232 L 6.590275,12.715424 h -0.00957 l 0.00319,-0.0032 0.00638,-0.0032 c -0.015943,-0.04783 -0.02232,-0.09884 -0.038262,-0.146672 -0.00319,0.0032 -0.00638,0.0032 -0.00638,0.0064 C 6.507371,12.447589 6.475485,12.323236 6.446789,12.198884 6.370264,11.864089 6.3288137,11.51654 6.3288137,11.159426 c 0,-0.414508 0.057393,-0.816261 0.1562375,-1.202072 0.031885,-0.117976 0.06377,-0.232762 0.1020327,-0.347549 0.012754,-0.03507 0.025508,-0.07015 0.035074,-0.105222 l 0.00957,-0.0287 c 0.00957,-0.02551 0.019131,-0.0542 0.028697,-0.07971 l 0.00957,-0.0287 c 0.012754,-0.0287 0.02232,-0.05739 0.035074,-0.08609 0.00319,-0.0032 0.00319,-0.0096 0.00638,-0.01275 0.031885,-0.07334 0.06377,-0.143484 0.095656,-0.213631 0.4623356,-0.9693109 1.2307692,-1.7728183 2.17776,-2.2670391 l -0.00319,-0.00319 C 9.635322,6.4436011 10.37187,6.2491013 11.153058,6.2491013 c 1.202073,0 2.270227,0.4145078 3.124751,1.2180152 L 16.614986,5.1299322 C 15.208848,3.8098844 13.365883,3 11.162615,3 8.1367079,3 5.5029892,4.6484655 4.0936628,7.1004384 c 0,0.00319 -0.00319,0.00319 -0.00319,0.00638 -0.035074,0.060582 -0.070148,0.1211638 -0.1020327,0.1849342 -0.00638,0.00957 -0.00957,0.019131 -0.015943,0.028697 -0.031885,0.060582 -0.06377,0.1211638 -0.095656,0.1849342 C 3.3188521,8.602232 3,9.842567 3,11.162615 c 0,1.320047 0.3188521,2.560382 0.8768434,3.657234 v 0.0096 c 0.025508,0.05102 0.051016,0.09884 0.076525,0.146672 0.00638,0.01594 0.015943,0.0287 0.02232,0.04145 0.019131,0.03826 0.041451,0.07652 0.060582,0.114787 0.00638,0.01275 0.012754,0.02551 0.02232,0.03826 0.057393,0.102033 0.1147867,0.200877 0.1785572,0.299721 0.00319,0.0064 0.00957,0.01594 0.012754,0.02232 0.028697,0.04783 0.060582,0.09247 0.089279,0.140294 0,0.0032 0.00319,0.0032 0.00319,0.0064 1.205261,1.836588 3.1311279,3.156636 5.3758474,3.558389 h 0.0064 c 0.04464,0.0064 0.08928,0.01594 0.133917,0.02232 0.0064,0 0.0096,0.0032 0.01594,0.0032 l 0.124353,0.01913 c 0.0096,0 0.01594,0.0032 0.02551,0.0032 0.03826,0.0064 0.07653,0.0096 0.117976,0.01594 0.01275,0 0.02232,0.0032 0.03507,0.0032 0.03507,0.0032 0.07334,0.0096 0.10841,0.01275 0.01594,0 0.0287,0.0032 0.04464,0.0032 0.03189,0.0032 0.06696,0.0064 0.09884,0.0096 0.01913,0 0.03507,0.0032 0.0542,0.0032 0.03189,0.0032 0.06058,0.0064 0.09247,0.0064 0.02232,0 0.04145,0.0032 0.06377,0.0032 0.0287,0.0032 0.0542,0.0032 0.0829,0.0064 0.02551,0 0.05102,0.0032 0.07334,0.0032 0.02551,0 0.04783,0.0032 0.07334,0.0032 0.03189,0 0.06058,0.0032 0.09247,0.0032 h 0.200877 c 0.220008,0 0.436827,-0.0064 0.650458,-0.02232 0.159426,-0.0096 0.312475,-0.02551 0.468713,-0.04464 0.06058,-0.0064 0.117975,-0.01594 0.175368,-0.02232 1.479474,-0.207254 2.758071,-0.768434 3.784775,-1.603827 0.0096,-0.0096 0.02232,-0.01594 0.03189,-0.02551 0.02232,-0.01913 0.04464,-0.03826 0.06696,-0.0542 0.02232,-0.01913 0.04145,-0.03507 0.06377,-0.0542 0.01594,-0.01275 0.03188,-0.0287 0.04783,-0.04145 0.03826,-0.03507 0.07653,-0.06696 0.114787,-0.102033 0.602631,-0.557991 1.106417,-1.218015 1.498605,-1.964129 C 18.668394,14.226784 19,12.862096 19,11.347549"
       style="fill:currentColor"
       id="path1-7"
       class="ColorScheme-Text" /></g></svg>
