<svg xmlns="http://www.w3.org/2000/svg" viewBox="0 0 22 22">
  <defs id="defs3051">
    <style type="text/css" id="current-color-scheme">
      .ColorScheme-Text {
        color:#eff0f1;
      }
      </style>
  </defs>
    <path 
        style="fill:currentColor;fill-opacity:1;stroke:none" 
        d="M 6 4 C 4.338 4 3 5.338 3 7 L 3 11 L 3 13 L 3 16 L 2 16 L 2 17 C 2 17.554 2.446 18 3 18 L 19 18 C 19.554 18 20 17.554 20 17 L 20 16 L 19 16 L 19 13 L 19 11 L 19 7 C 19 5.338 17.662 4 16 4 L 6 4 z M 6 5 L 16 5 C 17.108 5 18 5.892 18 7 L 18 11 L 18 13 L 18 15 L 16 15 L 6 15 L 4 15 L 4 13 L 4 11 L 4 7 C 4 5.892 4.892 5 6 5 z " 
        id="rect4211-3" 
        class="ColorScheme-Text"/>
</svg>
