<?xml version="1.0" encoding="UTF-8" standalone="no"?>
<svg
   xmlns:dc="http://purl.org/dc/elements/1.1/"
   xmlns:cc="http://creativecommons.org/ns#"
   xmlns:rdf="http://www.w3.org/1999/02/22-rdf-syntax-ns#"
   xmlns:svg="http://www.w3.org/2000/svg"
   xmlns="http://www.w3.org/2000/svg"
   xmlns:sodipodi="http://sodipodi.sourceforge.net/DTD/sodipodi-0.dtd"
   xmlns:inkscape="http://www.inkscape.org/namespaces/inkscape"
   viewBox="0 0 64 64"
   version="1.1"
   id="svg12"
   sodipodi:docname="folder-KDE.svg"
   inkscape:version="1.0.2 (e86c870879, 2021-01-15)">
  <metadata
     id="metadata16">
    <rdf:RDF>
      <cc:Work
         rdf:about="">
        <dc:format>image/svg+xml</dc:format>
        <dc:type
           rdf:resource="http://purl.org/dc/dcmitype/StillImage" />
      </cc:Work>
    </rdf:RDF>
  </metadata>
  <sodipodi:namedview
     pagecolor="#ffffff"
     bordercolor="#666666"
     borderopacity="1"
     objecttolerance="10"
     gridtolerance="10"
     guidetolerance="10"
     inkscape:pageopacity="0"
     inkscape:pageshadow="2"
     inkscape:window-width="1920"
     inkscape:window-height="1007"
     id="namedview14"
     showgrid="false"
     inkscape:zoom="9.8125"
     inkscape:cx="15.541401"
     inkscape:cy="32"
     inkscape:window-x="0"
     inkscape:window-y="0"
     inkscape:window-maximized="1"
     inkscape:current-layer="svg12" />
  <defs
     id="defs3051">
    <style
       type="text/css"
       id="current-color-scheme">
      .ColorScheme-Text {
        color:#31363b;
      }
      .ColorScheme-Background {
        color:#eff0f1;
      }
      .ColorScheme-Highlight {
        color:#3daee9;
      }
      .ColorScheme-ViewText {
        color:#31363b;
      }
      .ColorScheme-ViewBackground {
        color:#fcfcfc;
      }
      .ColorScheme-ViewHover {
        color:#93cee9;
      }
      .ColorScheme-ViewFocus{
        color:#3daee9;
      }
      .ColorScheme-ButtonText {
        color:#31363b;
      }
      .ColorScheme-ButtonBackground {
        color:#eff0f1;
      }
      .ColorScheme-ButtonHover {
        color:#93cee9;
      }
      .ColorScheme-ButtonFocus{
        color:#3daee9;
      }
      </style>
  </defs>
  <path
     style="fill:currentColor;fill-opacity:1;stroke:none"
     d="M 4 6 L 4 11 L 4 20 L 3 20 L 3 21 L 3.0019531 21 C 3.0019031 21.004 3 21.008019 3 21.011719 L 3 57 L 3 58 L 4 58 L 60 58 L 61 58 L 61 57 L 61 21.011719 L 61 21 L 61 16 L 60 16 L 60 11.009766 C 60 11.006766 59.998047 11.004 59.998047 11 L 60 11 L 60 10 L 32 10 L 28 6 L 4 6 z "
     class="ColorScheme-Highlight"
     id="path4" />
  <path
     style="fill-opacity:0.33;fill-rule:evenodd"
     d="M 4 6 L 4 11 L 4 20 L 22 20 L 26 16 L 60 16 L 60 11.009766 C 60 11.006766 59.998047 11.004 59.998047 11 L 60 11 L 60 10 L 32 10 L 28 6 L 4 6 z "
     id="path6" />
  <path
     style="fill:#ffffff;fill-opacity:0.2;fill-rule:evenodd"
     d="M 28 6 L 31 11 L 33 11 L 60 11 L 60 10 L 33 10 L 32 10 L 28 6 z M 26 16 L 22 20 L 3 20 L 3 21 L 23 21 L 26 16 z "
     id="path8" />
  <path
     style="fill-opacity:0.2;fill-rule:evenodd"
     d="M 26 16 L 20 19 L 4 19 L 4 20 L 22 20 L 26 16 z M 3 57 L 3 58 L 4 58 L 60 58 L 61 58 L 61 57 L 60 57 L 4 57 L 3 57 z "
     class="ColorScheme-Text"
     id="path10" />
  <path
     style="color:#d3dae3;fill:#e5e5e5;fill-opacity:1;stroke-width:0.954771"
     d="m 32.98529,27 -3.82857,0.57669 v 13.7803 l 3.82857,-1.02312 v -5.32388 l 3.82849,6.2763 3.82852,-1.42865 -4.78563,-5.71449 4.78749,-6.18887 L 36.92967,27 32.98529,33.24653 Z m -7.79541,3.73711 c -0.0905,0 -0.18108,0.0348 -0.25048,0.10416 l -1.5049,1.49751 c -0.1388,0.13817 -0.10537,0.33553 0,0.50037 l 1.55726,2.43314 c -0.11542,0.23833 -0.21529,0.48373 -0.29912,0.73481 -0.004,0.0102 -0.01,0.0208 -0.0128,0.0311 l -2.82468,0.62499 C 21.66352,36.70569 21.5,36.82124 21.5,37.0167 v 0.93566 0.93565 c 0,0.19539 0.16352,0.31103 0.35516,0.35342 l 2.82468,0.62507 c 0.006,0.0184 0.0159,0.0353 0.0225,0.0536 0.0816,0.24387 0.17833,0.48244 0.28976,0.71434 l -1.55725,2.43124 c -0.10539,0.16486 -0.13884,0.36224 0,0.5004 l 1.50491,1.49743 c 0.13886,0.13817 0.36211,0.13817 0.50095,0 l 2.44147,-1.54765 c 0.23997,0.11615 0.48724,0.21682 0.74024,0.3013 0.0165,0.006 0.0318,0.0145 0.0489,0.0205 l 0.62624,2.80892 c 0,0.19537 0.15884,0.35342 0.3552,0.35342 h 2.12546 c 0.19641,0 0.31261,-0.16272 0.35523,-0.35342 l 0.62622,-2.89447 c 0.28773,-0.10763 0.56702,-0.23635 0.83561,-0.38511 l 2.38349,1.69651 c 0.13884,0.13818 0.36213,0.13818 0.50099,0 l 1.50487,-1.49742 c 0.13884,-0.13816 0.10543,-0.33554 0,-0.5004 l -0.90664,-1.36909 -0.0951,0.0351 c -0.21562,0.0806 -0.45828,-0.003 -0.57765,-0.19903 l -0.95338,-1.56255 c -0.79436,1.89071 -2.67035,3.21999 -4.85856,3.21999 -2.90735,0 -5.26422,-2.3453 -5.26422,-5.23831 0,-2.22001 1.39051,-4.11291 3.34994,-4.87556 v -1.0436 l -0.008,0.0332 c -0.0212,0.007 -0.0406,0.0186 -0.0617,0.0263 -0.24966,0.0826 -0.49375,0.1806 -0.7309,0.2939 L 25.44066,30.8402 c -0.0697,-0.0693 -0.15995,-0.10416 -0.25048,-0.10416 z"
     class="ColorScheme-Text"
     id="path10-7" />
</svg>
