<?xml version="1.0" encoding="UTF-8" standalone="no"?>
<svg
   viewBox="0 0 64 64"
   version="1.1"
   id="svg4"
   sodipodi:docname="folder-inkscape.svg"
   inkscape:version="1.3 (0e150ed6c4, 2023-07-21)"
   xmlns:inkscape="http://www.inkscape.org/namespaces/inkscape"
   xmlns:sodipodi="http://sodipodi.sourceforge.net/DTD/sodipodi-0.dtd"
   xmlns="http://www.w3.org/2000/svg"
   xmlns:svg="http://www.w3.org/2000/svg">
  <sodipodi:namedview
     id="namedview4"
     pagecolor="#ffffff"
     bordercolor="#000000"
     borderopacity="0.25"
     inkscape:showpageshadow="2"
     inkscape:pageopacity="0.0"
     inkscape:pagecheckerboard="0"
     inkscape:deskcolor="#d1d1d1"
     inkscape:zoom="4.248165"
     inkscape:cx="16.830797"
     inkscape:cy="61.085199"
     inkscape:window-width="1920"
     inkscape:window-height="996"
     inkscape:window-x="0"
     inkscape:window-y="0"
     inkscape:window-maximized="1"
     inkscape:current-layer="svg4" />
  <defs
     id="defs3051">
    <style
       type="text/css"
       id="current-color-scheme">&#10;      .ColorScheme-Text {&#10;        color:#31363b;&#10;      }&#10;      .ColorScheme-Background {&#10;        color:#eff0f1;&#10;      }&#10;      .ColorScheme-Highlight {&#10;        color:#3daee9;&#10;      }&#10;      .ColorScheme-ViewText {&#10;        color:#31363b;&#10;      }&#10;      .ColorScheme-ViewBackground {&#10;        color:#fcfcfc;&#10;      }&#10;      .ColorScheme-ViewHover {&#10;        color:#93cee9;&#10;      }&#10;      .ColorScheme-ViewFocus{&#10;        color:#3daee9;&#10;      }&#10;      .ColorScheme-ButtonText {&#10;        color:#31363b;&#10;      }&#10;      .ColorScheme-ButtonBackground {&#10;        color:#eff0f1;&#10;      }&#10;      .ColorScheme-ButtonHover {&#10;        color:#93cee9;&#10;      }&#10;      .ColorScheme-ButtonFocus{&#10;        color:#3daee9;&#10;      }&#10;      </style>
  </defs>
  <path
     style="fill:currentColor;fill-opacity:1;stroke:none"
     d="M 4 6 L 4 11 L 4 20 L 3 20 L 3 21 L 3.0019531 21 C 3.0019031 21.004 3 21.008019 3 21.011719 L 3 57 L 3 58 L 4 58 L 60 58 L 61 58 L 61 57 L 61 21.011719 L 61 21 L 61 16 L 60 16 L 60 11.009766 C 60 11.006766 59.998047 11.004 59.998047 11 L 60 11 L 60 10 L 32 10 L 28 6 L 4 6 z "
     class="ColorScheme-Highlight"
     id="path1" />
  <path
     style="fill-opacity:0.33;fill-rule:evenodd"
     d="M 4 6 L 4 11 L 4 20 L 22 20 L 26 16 L 60 16 L 60 11.009766 C 60 11.006766 59.998047 11.004 59.998047 11 L 60 11 L 60 10 L 32 10 L 28 6 L 4 6 z "
     id="path2" />
  <path
     style="fill:#ffffff;fill-opacity:0.2;fill-rule:evenodd"
     d="M 28 6 L 31 11 L 33 11 L 60 11 L 60 10 L 33 10 L 32 10 L 28 6 z M 26 16 L 22 20 L 3 20 L 3 21 L 23 21 L 26 16 z "
     id="path3" />
  <path
     style="fill-opacity:0.2;fill-rule:evenodd"
     d="M 26 16 L 20 19 L 4 19 L 4 20 L 22 20 L 26 16 z M 3 57 L 3 58 L 4 58 L 60 58 L 61 58 L 61 57 L 60 57 L 4 57 L 3 57 z "
     class="ColorScheme-Text"
     id="path4" />
  <path
     d="m 31.882715,46.99991 c -0.284968,0 -0.549947,-0.0374 -0.779926,-0.12085 -0.47162,-0.17167 -0.775753,-0.51922 -0.855735,-0.97844 -0.07256,-0.41587 -0.20999,-0.47921 -0.820755,-0.59005 -0.399136,-0.0726 -0.897411,-0.16335 -1.262373,-0.55507 -0.706598,-0.73674 0.03499,-1.52015 0.313294,-1.81519 0.05077,-0.0533 0.11999,-0.12585 0.176658,-0.19252 -0.349963,-0.19419 -1.174055,-0.46589 -1.69816,-0.63924 -1.23571,-0.408376 -2.014794,-0.685079 -2.398935,-1.086772 -0.202468,-0.206715 -0.291627,-0.474231 -0.244972,-0.747589 0.0959,-0.565897 0.707429,-0.867598 1.354027,-1.185967 0,0 8.37e-4,0 8.37e-4,0 -0.297466,-0.100856 -0.634932,-0.192527 -0.964902,-0.283363 -1.173216,-0.320037 -2.38559,-0.651742 -2.648056,-1.621007 -0.229143,-0.852597 0.434955,-1.654348 0.955731,-2.183574 l 6.883473,-7.169945 c 0.53661,-0.541721 1.25737,-0.84009 2.016454,-0.83009 0.0041,0 0.0087,0 0.01246,0 0.743265,0 1.46234,0.286701 2.01396,0.809252 l 7.158437,7.449136 c 0.727423,0.740092 1.015721,1.463501 0.855741,2.148574 -0.304968,1.314312 -2.093127,1.938545 -3.820431,2.541944 -0.521635,0.182515 -1.055736,0.368363 -1.471522,0.555894 0.01323,0.0087 0.0258,0.0142 0.03843,0.02091 0.633262,0.356722 1.588985,0.89594 1.235698,1.791037 -0.39661,1.02761 -1.147388,1.22848 -1.810652,1.40682 -0.451609,0.12086 -0.916575,0.24503 -1.410701,0.64424 0.245821,0.13834 0.51996,0.34503 0.566632,0.72007 0.02505,0.20336 -0.01745,0.50756 -0.359128,0.80426 C 34.188357,46.50661 32.91015,47 31.882773,47 Z m -2.663896,-3.01865 c 0.117492,0.0425 0.275799,0.0709 0.431619,0.0991 0.597446,0.10832 1.59734,0.29085 1.827319,1.6035 0.206645,0.19086 1.3457,0.0426 2.209784,-0.45338 -0.210819,-0.13669 -0.414969,-0.33254 -0.468285,-0.64424 -0.03323,-0.19668 -0.01159,-0.49755 0.285789,-0.80759 0.854915,-0.87843 1.686503,-1.10094 2.29393,-1.26429 0.542446,-0.14502 0.753256,-0.2142 0.906568,-0.51006 -0.148312,-0.12252 -0.446608,-0.291708 -0.622428,-0.390051 -0.530768,-0.299199 -1.030727,-0.580885 -1.059892,-1.11095 -0.0101,-0.164184 0.02743,-0.477551 0.3758,-0.728408 0.539942,-0.385877 1.404855,-0.68841 2.318098,-1.007621 1.14154,-0.399211 2.865547,-1.001761 3.015525,-1.645172 0.0742,-0.316704 -0.300799,-0.756742 -0.531625,-0.990941 -0.003,-0.002 -0.0041,-0.003 -0.0067,-0.0057 l -7.13949,-7.430645 c -0.296642,-0.280032 -0.710762,-0.445887 -1.144895,-0.445887 -0.01041,0 -0.02,0 -0.03089,0 -0.412455,0 -0.80492,0.164189 -1.090719,0.452553 l -6.882535,7.168368 c -0.707432,0.718412 -0.644932,0.984277 -0.644932,0.986767 0.075,0.277531 1.178207,0.579244 1.77065,0.74092 0.721588,0.196688 1.469018,0.400864 2.005627,0.747586 0.3833,0.254188 0.404122,0.595889 0.395789,0.731745 -0.03498,0.550051 -0.580764,0.819251 -1.214041,1.130951 -0.1,0.04914 -0.22831,0.11251 -0.351633,0.177521 0.421632,0.184177 1.049897,0.392542 1.480684,0.535053 1.203208,0.397546 1.961475,0.665922 2.338928,1.050121 0.718265,0.74924 -0.0217,1.53265 -0.300799,1.82685 -0.04743,0.0517 -0.111654,0.12002 -0.167478,0.18337 z m 7.561723,-1.90105 h 0.0097 z m -0.01112,-0.21919 c -8.37e-4,8.3e-4 -8.37e-4,0.002 -0.002,0.003 8.36e-4,-8.3e-4 8.36e-4,-0.002 0.002,-0.003 z M 25.45542,40.152502 c 0,8.31e-4 8.38e-4,0.002 9.85e-4,0.002 -8.3e-4,0 -9.85e-4,-8.34e-4 -9.85e-4,-0.002 z"
     id="path2-4"
     style="fill:#e5e5e5;fill-opacity:1;stroke-width:0.833342" />
  <path
     d="m 31.333604,34.933602 c -0.07831,0 -0.156656,-0.015 -0.231646,-0.0442 -0.187476,-0.075 -0.327465,-0.235867 -0.374968,-0.431723 l -0.187471,-0.765074 -0.246645,0.541723 c -0.101695,0.222515 -0.323303,0.365875 -0.568282,0.365875 -8.3e-4,0 -9.85e-4,0 -0.002,0 l -4.846141,-0.01667 c -0.344955,-8.36e-4 -0.623257,-0.281705 -0.622421,-0.626746 8.36e-4,-0.345028 0.2808,-0.623398 0.624929,-0.623398 8.34e-4,0 9.85e-4,0 0.002,0 l 4.441189,0.0159 0.825758,-1.816026 c 0.11,-0.243356 0.359953,-0.392544 0.627428,-0.3642 0.26497,0.02499 0.485778,0.215019 0.549112,0.473379 l 0.408287,1.666847 1.13072,-0.726738 c 0.192476,-0.123358 0.435788,-0.130859 0.638275,-0.02243 l 0.367439,0.201687 0.132503,-0.812595 c 0.0358,-0.220851 0.188306,-0.405872 0.398296,-0.485041 0.206635,-0.0783 0.445779,-0.03923 0.61827,0.104104 l 0.850735,0.706756 0.537445,-0.802586 c 0.190827,-0.285866 0.578267,-0.36421 0.866576,-0.172525 0.286649,0.191688 0.364135,0.580068 0.17166,0.867598 l -0.921577,1.379307 c -0.09743,0.14669 -0.254134,0.245866 -0.429964,0.270866 -0.169149,0.02667 -0.352455,-0.02501 -0.489114,-0.137508 l -0.543272,-0.451723 -0.09915,0.605903 c -0.03253,0.200018 -0.159988,0.371705 -0.342447,0.460884 -0.18334,0.08913 -0.396637,0.0842 -0.574111,-0.01333 l -0.816636,-0.447548 -1.554836,0.999269 c -0.103357,0.06667 -0.221641,0.1 -0.339969,0.1 z m 7.110935,10.637818 c -0.414122,0 -0.809911,-0.17001 -1.063207,-0.49421 -0.338301,-0.43421 -0.391645,-1.14013 0.255789,-1.73936 0.146659,-0.13585 0.344962,-0.19419 0.545788,-0.15502 0.928239,0.18336 1.367361,0.77925 1.459837,1.23263 0.0742,0.36172 -0.05,0.70176 -0.322451,0.8876 -0.003,0.003 -0.0077,0.004 -0.01113,0.008 -0.269142,0.17669 -0.571609,0.26169 -0.864905,0.26169 z m 0.523285,-0.78424 h 0.01 z m -13.391139,0.37753 c -0.346628,0 -0.671598,-0.12168 -0.939912,-0.35669 -0.579095,-0.49757 -0.479106,-1.03596 -0.409114,-1.24515 0.229136,-0.68173 1.075723,-1.03677 1.765651,-1.07762 0.01255,-8.3e-4 0.02499,-8.3e-4 0.03743,-8.3e-4 0.606609,-0.0268 1.120721,0.18001 1.415701,0.57506 0.12914,0.17335 0.15914,0.40089 0.08077,0.60257 -0.280799,0.71175 -0.914905,1.29764 -1.579843,1.45766 -0.124989,0.03 -0.249142,0.045 -0.370788,0.045 z m -0.07077,-1.26513 c 0.0317,0.0158 0.07744,0.0217 0.149143,0.006 0.09667,-0.0232 0.200809,-0.0809 0.300809,-0.16003 -0.189154,0.0283 -0.349964,0.0942 -0.449952,0.155 z m 14.773488,-1.13846 c -0.604927,0 -1.21736,-0.11251 -1.527338,-0.26335 -0.448289,-0.21837 -0.496619,-0.5684 -0.496619,-0.709261 0,-0.05254 0.0077,-0.10421 0.0191,-0.15501 0.196636,-0.769259 0.919903,-1.312645 1.808976,-1.36431 0.01677,-0.002 0.03257,-0.003 0.04912,-0.0041 0.961562,-0.03912 1.698996,0.489222 1.85648,1.312642 0.06677,0.325029 -0.0542,0.643399 -0.324978,0.855099 -0.302451,0.23748 -0.840728,0.32833 -1.384848,0.32833 z m 0.485784,-0.93176 c 0,0 0,8.2e-4 0,8.2e-4 z"
     id="path4-5"
     style="fill:#e5e5e5;fill-opacity:1;stroke-width:0.833342" />
</svg>
