<?xml version="1.0" encoding="UTF-8" standalone="no"?>
<svg
   viewBox="0 0 64 64"
   version="1.1"
   id="svg4"
   sodipodi:docname="folder-project.svg"
   inkscape:version="1.3 (0e150ed6c4, 2023-07-21)"
   xmlns:inkscape="http://www.inkscape.org/namespaces/inkscape"
   xmlns:sodipodi="http://sodipodi.sourceforge.net/DTD/sodipodi-0.dtd"
   xmlns="http://www.w3.org/2000/svg"
   xmlns:svg="http://www.w3.org/2000/svg">
  <sodipodi:namedview
     id="namedview4"
     pagecolor="#ffffff"
     bordercolor="#000000"
     borderopacity="0.25"
     inkscape:showpageshadow="2"
     inkscape:pageopacity="0.0"
     inkscape:pagecheckerboard="0"
     inkscape:deskcolor="#d1d1d1"
     inkscape:zoom="6.0078125"
     inkscape:cx="26.382315"
     inkscape:cy="23.552666"
     inkscape:window-width="1920"
     inkscape:window-height="996"
     inkscape:window-x="0"
     inkscape:window-y="0"
     inkscape:window-maximized="1"
     inkscape:current-layer="svg4" />
  <defs
     id="defs3051">
    <style
       type="text/css"
       id="current-color-scheme">&#10;      .ColorScheme-Text {&#10;        color:#31363b;&#10;      }&#10;      .ColorScheme-Background {&#10;        color:#eff0f1;&#10;      }&#10;      .ColorScheme-Highlight {&#10;        color:#3daee9;&#10;      }&#10;      .ColorScheme-ViewText {&#10;        color:#31363b;&#10;      }&#10;      .ColorScheme-ViewBackground {&#10;        color:#fcfcfc;&#10;      }&#10;      .ColorScheme-ViewHover {&#10;        color:#93cee9;&#10;      }&#10;      .ColorScheme-ViewFocus{&#10;        color:#3daee9;&#10;      }&#10;      .ColorScheme-ButtonText {&#10;        color:#31363b;&#10;      }&#10;      .ColorScheme-ButtonBackground {&#10;        color:#eff0f1;&#10;      }&#10;      .ColorScheme-ButtonHover {&#10;        color:#93cee9;&#10;      }&#10;      .ColorScheme-ButtonFocus{&#10;        color:#3daee9;&#10;      }&#10;      </style>
  </defs>
  <path
     style="fill:currentColor;fill-opacity:1;stroke:none"
     d="M 4 6 L 4 11 L 4 20 L 3 20 L 3 21 L 3.0019531 21 C 3.0019031 21.004 3 21.008019 3 21.011719 L 3 57 L 3 58 L 4 58 L 60 58 L 61 58 L 61 57 L 61 21.011719 L 61 21 L 61 16 L 60 16 L 60 11.009766 C 60 11.006766 59.998047 11.004 59.998047 11 L 60 11 L 60 10 L 32 10 L 28 6 L 4 6 z "
     class="ColorScheme-Highlight"
     id="path1" />
  <path
     style="fill-opacity:0.33;fill-rule:evenodd"
     d="M 4 6 L 4 11 L 4 20 L 22 20 L 26 16 L 60 16 L 60 11.009766 C 60 11.006766 59.998047 11.004 59.998047 11 L 60 11 L 60 10 L 32 10 L 28 6 L 4 6 z "
     id="path2" />
  <path
     style="fill:#ffffff;fill-opacity:0.2;fill-rule:evenodd"
     d="M 28 6 L 31 11 L 33 11 L 60 11 L 60 10 L 33 10 L 32 10 L 28 6 z M 26 16 L 22 20 L 3 20 L 3 21 L 23 21 L 26 16 z "
     id="path3" />
  <path
     style="fill-opacity:0.2;fill-rule:evenodd"
     d="M 26 16 L 20 19 L 4 19 L 4 20 L 22 20 L 26 16 z M 3 57 L 3 58 L 4 58 L 60 58 L 61 58 L 61 57 L 60 57 L 4 57 L 3 57 z "
     class="ColorScheme-Text"
     id="path4" />
  <path
     d="m 38.937013,39.109626 c -0.139255,-0.427542 -0.352292,-0.828611 -0.63844,-1.203208 -0.286696,-0.374181 -0.642669,-0.706529 -1.068284,-0.996907 -0.425861,-0.290113 -0.925065,-0.519222 -1.497918,-0.687513 -0.22959,-0.06079 -0.633427,-0.156523 -1.165356,-0.286486 -0.380187,-0.09256 -0.736611,-0.187517 -1.138398,-0.284238 v -4.719788 c 0.401772,0.107072 0.680906,0.276846 0.978857,0.465638 0.637449,0.403564 1.037131,1.093958 1.154228,2.031464 h 3.088119 c -0.02898,-0.80357 -0.207585,-1.462505 -0.535527,-2.054458 -0.360289,-0.649249 -0.847182,-1.206419 -1.461159,-1.649819 -0.613839,-0.442947 -1.349339,-0.7808 -2.159691,-1.00247 -0.351953,-0.09611 -0.663,-0.17697 -1.064766,-0.231398 V 27 h -2.857147 v 1.480665 c -0.312536,0.04658 -0.676246,0.10915 -1.001163,0.189739 -0.769743,0.191206 -1.445886,0.485184 -2.051382,0.882327 -0.605858,0.397522 -1.087171,0.897856 -1.455553,1.501207 -0.368464,0.603695 -0.549614,1.317858 -0.549614,2.142856 0,0.427892 0.06266,0.847894 0.185408,1.260485 0.122755,0.412563 0.332187,0.802108 0.626901,1.168805 0.294766,0.366712 0.691722,0.699029 1.191374,0.996968 0.499237,0.297881 1.102894,0.538572 1.856058,0.721926 0.414583,0.104627 0.840626,0.202416 1.19777,0.29355 v 5.338654 c -0.490995,-0.130318 -0.9771,-0.330303 -1.369483,-0.601751 -0.40936,-0.282456 -0.717233,-0.622895 -0.946326,-1.066247 -0.213214,-0.412016 -0.315901,-0.916345 -0.330685,-1.452051 h -3.067673 c 0.03062,0.937495 0.23438,1.763119 0.610363,2.471911 0.392783,0.741267 0.916654,1.337512 1.571584,1.810808 0.654582,0.473798 1.401495,0.819471 2.285651,1.04871 0.396527,0.102808 0.844891,0.17676 1.246685,0.233488 V 47 h 2.857153 v -1.541948 c 0.446433,-0.04774 0.846302,-0.120096 1.273542,-0.21783 0.834852,-0.190746 1.591283,-0.492673 2.246245,-0.905182 0.654556,-0.412511 1.188427,-0.943212 1.589766,-1.592893 0.400882,-0.649156 0.604685,-1.432366 0.604685,-2.349077 5.3e-5,-0.42759 -0.06701,-0.855524 -0.205895,-1.283429 z m -8.365482,-4.176651 c -0.535727,-0.167108 -1.067507,-0.405724 -1.430831,-0.716428 -0.384857,-0.328327 -0.565794,-0.782775 -0.565794,-1.36362 0,-0.412564 0.107887,-0.75626 0.312691,-1.031341 0.204527,-0.275026 0.442514,-0.49277 0.753567,-0.653172 0.275917,-0.142371 0.617859,-0.248441 0.930364,-0.318655 z m 5.308113,6.686248 c -0.131195,0.297922 -0.343684,0.561421 -0.638522,0.790688 -0.294732,0.229151 -0.702847,0.416417 -1.177544,0.561456 -0.200898,0.06154 -0.367129,0.109075 -0.634961,0.144458 v -4.781689 c 0.446426,0.117105 0.811609,0.238031 1.175278,0.362975 0.359894,0.122489 0.70304,0.332261 1.006109,0.63016 0.302923,0.297999 0.460222,0.760273 0.460222,1.386606 6e-5,0.305773 -0.05975,0.607365 -0.190578,0.905324 z"
     id="path25907-1-5"
     style="fill:#e5e5e5;fill-opacity:1;stroke-width:0.044643" />
</svg>
