<?xml version="1.0" encoding="UTF-8" standalone="no"?>
<svg
   viewBox="0 0 64 64"
   version="1.1"
   id="svg4"
   sodipodi:docname="folder-toy.svg"
   inkscape:version="1.4.2 (unknown)"
   xml:space="preserve"
   xmlns:inkscape="http://www.inkscape.org/namespaces/inkscape"
   xmlns:sodipodi="http://sodipodi.sourceforge.net/DTD/sodipodi-0.dtd"
   xmlns="http://www.w3.org/2000/svg"
   xmlns:svg="http://www.w3.org/2000/svg"><sodipodi:namedview
     id="namedview4"
     pagecolor="#ffffff"
     bordercolor="#999999"
     borderopacity="1"
     inkscape:showpageshadow="2"
     inkscape:pageopacity="0"
     inkscape:pagecheckerboard="0"
     inkscape:deskcolor="#d1d1d1"
     showgrid="true"
     inkscape:zoom="5.6568543"
     inkscape:cx="27.311999"
     inkscape:cy="36.150834"
     inkscape:window-width="2556"
     inkscape:window-height="1364"
     inkscape:window-x="0"
     inkscape:window-y="0"
     inkscape:window-maximized="1"
     inkscape:current-layer="svg4"><inkscape:grid
       id="grid4"
       units="px"
       originx="0"
       originy="0"
       spacingx="1"
       spacingy="1"
       empcolor="#0099e5"
       empopacity="0.30196078"
       color="#0099e5"
       opacity="0.14902"
       empspacing="5"
       dotted="false"
       gridanglex="30"
       gridanglez="30"
       visible="true" /></sodipodi:namedview><defs
     id="defs3051"><style
       type="text/css"
       id="current-color-scheme">
      .ColorScheme-Text {
        color:#31363b;
      }
      .ColorScheme-Background {
        color:#eff0f1;
      }
      .ColorScheme-Highlight {
        color:#3daee9;
      }
      .ColorScheme-ViewText {
        color:#31363b;
      }
      .ColorScheme-ViewBackground {
        color:#fcfcfc;
      }
      .ColorScheme-ViewHover {
        color:#93cee9;
      }
      .ColorScheme-ViewFocus{
        color:#3daee9;
      }
      .ColorScheme-ButtonText {
        color:#31363b;
      }
      .ColorScheme-ButtonBackground {
        color:#eff0f1;
      }
      .ColorScheme-ButtonHover {
        color:#93cee9;
      }
      .ColorScheme-ButtonFocus{
        color:#3daee9;
      }
      </style></defs><path
     style="fill:currentColor;fill-opacity:1;stroke:none;stroke-width:0.999999"
     d="m 4.0006635,10 v 1 9 0 c -0.5203637,0.02153 -1.0229638,0.505476 -0.999899,1 h 0.00195 c -4.69e-5,0.004 -0.00195,0.008 -0.00195,0.01172 V 56 c 0.00871,0.999392 0.9801138,2.005992 1.999798,2 v 0 H 58.995109 v 0 c 1.011732,0.02205 1.994216,-0.972534 1.999798,-2 V 21.011719 21 17 c 0.05936,-0.589244 -0.407896,-1.006383 -0.999899,-1 v -4 c 0,-0.003 -0.002,0.004 -0.002,0 h 0.002 v 0 c -0.0061,-1.000671 -0.953819,-1.995969 -1.999798,-2 H 31.997836 L 27.99824,6 H 8.0002595 C 5.9630216,5.99492 4.0363539,7.9703236 4.0006635,10 Z"
     class="ColorScheme-Highlight"
     id="path1"
     sodipodi:nodetypes="ccccccsccccccccccscccccccc" /><path
     style="fill-opacity:0.33;fill-rule:evenodd;stroke-width:0.999999"
     d="m 4.0302775,10 -0.029614,1 v 9 H 21.998846 l 3.999596,-4 h 33.996566 v -4 c 0,-0.003 -0.002,0.004 -0.002,0 h 0.002 C 59.988808,10.988725 58.990992,9.9943186 57.99521,10 H 31.997836 L 27.99824,6 H 8.0002595 C 5.9928069,6.00259 3.994256,8.0072001 4.0302775,10 Z"
     id="path2"
     sodipodi:nodetypes="ccccccsccccccc" /><path
     style="fill:#ffffff;fill-opacity:0.2;fill-rule:evenodd;stroke-width:0.999999"
     d="m 27.99824,6 2.999697,5 h 1.999798 24.997475 c 1.212814,-0.06389 2.005543,1.005906 1.999798,2 v -1 c 6e-4,-0.992592 -0.988601,-1.993446 -1.999798,-2 H 32.997735 31.997836 Z m -1.999798,10 -3.999596,4 H 3.0007645 v 1 H 22.998745 Z"
     id="path3"
     sodipodi:nodetypes="cccccccccccccccc" /><path
     style="fill-opacity:0.2;fill-rule:evenodd;stroke-width:0.999999"
     d="m 25.998442,16 -5.999394,3 H 4.0006635 v 1 H 21.998846 Z M 3.0007645,56 c 0.00641,1.008598 0.9937008,2.001463 1.999798,2 v 0 H 58.995109 v 0 0 c 1.002828,0.0016 2.001139,-0.999662 1.999798,-2 z"
     class="ColorScheme-Text"
     id="path4"
     sodipodi:nodetypes="cccccccccccccc" /><path
     d="m 36.166667,44.922222 c -0.922223,0 -1.666667,-0.933333 -1.666667,-2.088889 0,-1.144444 0.744444,-2.077777 1.666667,-2.077777 0.922222,0 1.666666,0.933333 1.666666,2.077777 0,1.155556 -0.744444,2.088889 -1.666666,2.088889 M 32,36.166667 c -1.377778,0 -2.5,-0.933334 -2.5,-2.077778 C 29.5,32.933333 30.622222,32 32,32 c 1.377778,0 2.5,0.933333 2.5,2.088889 0,1.144444 -1.122222,2.077778 -2.5,2.077778 m -4.166667,8.755555 c -0.922222,0 -1.666666,-0.933333 -1.666666,-2.088889 0,-1.144444 0.744444,-2.077777 1.666666,-2.077777 0.922223,0 1.666667,0.933333 1.666667,2.077777 0,1.155556 -0.744444,2.088889 -1.666667,2.088889 M 32,32.833333 c 0.455556,0 0.833333,0.377778 0.833333,0.833334 C 32.833333,34.122222 32.455556,34.5 32,34.5 c -0.455556,0 -0.833333,-0.377778 -0.833333,-0.833333 0,-0.455556 0.377777,-0.833334 0.833333,-0.833334 M 39.5,37 c -0.355556,0 -0.7,0.07778 -1.011111,0.222222 -0.533333,-0.677778 -1.255556,-1.255555 -2.122222,-1.7 0.633333,-0.888889 1.011111,-1.966666 1.011111,-3.133333 0,-0.02222 0,-0.04444 0,-0.06667 C 38.588889,32.066667 39.5,30.988889 39.5,29.688889 39.5,28.211111 38.288889,27 36.811111,27 36.044444,27 35.333333,27.322222 34.866667,27.833333 34.033333,27.311111 33.055556,27 32,27 30.944444,27 29.955556,27.311111 29.133333,27.833333 28.666667,27.322222 27.955556,27 27.188889,27 25.711111,27 24.5,28.211111 24.5,29.688889 c 0,1.288889 0.911111,2.366667 2.111111,2.633333 0,0.02222 0,0.04445 0,0.06667 0,1.166667 0.388889,2.255555 1.011111,3.133333 -0.855555,0.444445 -1.577778,1.022222 -2.111111,1.7 C 25.2,37.077778 24.855556,37 24.5,37 23.111111,37 22,38.111111 22,39.5 c 0,1.388889 1.111111,2.5 2.5,2.5 0.02222,0 0.04444,0 0.06667,0 C 24.522222,42.266667 24.5,42.555556 24.5,42.833333 24.5,45.133333 25.988889,47 27.833333,47 c 1.122223,0 2.111111,-0.7 2.722223,-1.766667 0.466666,0.06667 0.944444,0.1 1.444444,0.1 0.5,0 0.977778,-0.03333 1.444444,-0.1 C 34.055556,46.3 35.044444,47 36.166667,47 38.011111,47 39.5,45.133333 39.5,42.833333 39.5,42.555556 39.477778,42.266667 39.433333,42 39.455556,42 39.477778,42 39.5,42 40.888889,42 42,40.888889 42,39.5 42,38.111111 40.888889,37 39.5,37"
     id="path5"
     style="fill:#e5e5e5;fill-opacity:1" /></svg>
