<?xml version="1.0" encoding="UTF-8" standalone="no"?>
<svg
   xmlns:dc="http://purl.org/dc/elements/1.1/"
   xmlns:cc="http://creativecommons.org/ns#"
   xmlns:rdf="http://www.w3.org/1999/02/22-rdf-syntax-ns#"
   xmlns:svg="http://www.w3.org/2000/svg"
   xmlns="http://www.w3.org/2000/svg"
   xmlns:sodipodi="http://sodipodi.sourceforge.net/DTD/sodipodi-0.dtd"
   xmlns:inkscape="http://www.inkscape.org/namespaces/inkscape"
   inkscape:version="1.0 (4035a4fb49, 2020-05-01)"
   sodipodi:docname="network-server.svg"
   id="svg14"
   version="1.1"
   viewBox="0 0 64 64">
  <metadata
     id="metadata18">
    <rdf:RDF>
      <cc:Work
         rdf:about="">
        <dc:format>image/svg+xml</dc:format>
        <dc:type
           rdf:resource="http://purl.org/dc/dcmitype/StillImage" />
      </cc:Work>
    </rdf:RDF>
  </metadata>
  <sodipodi:namedview
     inkscape:current-layer="svg14"
     inkscape:window-maximized="1"
     inkscape:window-y="0"
     inkscape:window-x="0"
     inkscape:cy="32"
     inkscape:cx="32"
     inkscape:zoom="9.8125"
     showgrid="false"
     id="namedview16"
     inkscape:window-height="1015"
     inkscape:window-width="1920"
     inkscape:pageshadow="2"
     inkscape:pageopacity="0"
     guidetolerance="10"
     gridtolerance="10"
     objecttolerance="10"
     borderopacity="1"
     bordercolor="#666666"
     pagecolor="#ffffff" />
  <defs
     id="defs3051">
    <style
       id="current-color-scheme"
       type="text/css">
      .ColorScheme-Text {
        color:#31363b;
      }
      .ColorScheme-Background {
        color:#eff0f1;
      }
      .ColorScheme-Highlight {
        color:#3daee9;
      }
      .ColorScheme-ViewText {
        color:#31363b;
      }
      .ColorScheme-ViewBackground {
        color:#fcfcfc;
      }
      .ColorScheme-ViewHover {
        color:#93cee9;
      }
      .ColorScheme-ViewFocus{
        color:#3daee9;
      }
      .ColorScheme-ButtonText {
        color:#31363b;
      }
      .ColorScheme-ButtonBackground {
        color:#eff0f1;
      }
      .ColorScheme-ButtonHover {
        color:#93cee9;
      }
      .ColorScheme-ButtonFocus{
        color:#3daee9;
      }
      </style>
  </defs>
  <path
     id="path4"
     class="ColorScheme-Highlight"
     d="M 4 6 L 4 11 L 4 20 L 3 20 L 3 21 L 3.0019531 21 C 3.0019031 21.004 3 21.008019 3 21.011719 L 3 57 L 3 58 L 4 58 L 60 58 L 61 58 L 61 57 L 61 21.011719 L 61 21 L 61 16 L 60 16 L 60 11.009766 C 60 11.006766 59.998047 11.004 59.998047 11 L 60 11 L 60 10 L 32 10 L 28 6 L 4 6 z "
     style="fill:currentColor;fill-opacity:1;stroke:none" />
  <path
     id="path6"
     d="M 4 6 L 4 11 L 4 20 L 22 20 L 26 16 L 60 16 L 60 11.009766 C 60 11.006766 59.998047 11.004 59.998047 11 L 60 11 L 60 10 L 32 10 L 28 6 L 4 6 z "
     style="fill-opacity:0.33;fill-rule:evenodd" />
  <path
     id="path8"
     d="M 28 6 L 31 11 L 33 11 L 60 11 L 60 10 L 33 10 L 32 10 L 28 6 z M 26 16 L 22 20 L 3 20 L 3 21 L 23 21 L 26 16 z "
     style="fill:#ffffff;fill-opacity:0.2;fill-rule:evenodd" />
  <path
     id="path10"
     class="ColorScheme-Text"
     d="M 26 16 L 20 19 L 4 19 L 4 20 L 22 20 L 26 16 z M 3 57 L 3 58 L 4 58 L 60 58 L 61 58 L 61 57 L 60 57 L 4 57 L 3 57 z "
     style="fill-opacity:0.2;fill-rule:evenodd" />
  <path
     id="path12"
     class="ColorScheme-Background"
     d="M 22 27 L 22 47 L 42 47 L 42 27 L 22 27 z M 23 28 L 41 28 L 41 30 L 23 30 L 23 28 z M 24 31 L 25 31 L 25 35 L 24 35 L 24 31 z M 26 31 L 27 31 L 27 35 L 26 35 L 26 31 z M 28 31 L 29 31 L 29 35 L 28 35 L 28 31 z M 30 31 L 31 31 L 31 35 L 30 35 L 30 31 z M 32 31 L 33 31 L 33 35 L 32 35 L 32 31 z M 34 31 L 35 31 L 35 35 L 34 35 L 34 31 z M 36 31 L 37 31 L 37 35 L 36 35 L 36 31 z M 39 32 L 41 32 L 41 33 L 39 33 L 39 32 z M 23 36 L 41 36 L 41 38 L 23 38 L 23 36 z M 24 39 L 25 39 L 25 43 L 24 43 L 24 39 z M 26 39 L 27 39 L 27 43 L 26 43 L 26 39 z M 28 39 L 29 39 L 29 43 L 28 43 L 28 39 z M 30 39 L 31 39 L 31 43 L 30 43 L 30 39 z M 32 39 L 33 39 L 33 43 L 32 43 L 32 39 z M 34 39 L 35 39 L 35 43 L 34 43 L 34 39 z M 36 39 L 37 39 L 37 43 L 36 43 L 36 39 z M 39 40 L 41 40 L 41 41 L 39 41 L 39 40 z M 23 44 L 41 44 L 41 46 L 23 46 L 23 44 z "
     style="fill:#e5e5e5;fill-opacity:1;stroke:none" />
</svg>
