<?xml version="1.0" encoding="UTF-8" standalone="no"?>
<svg
   fill="none"
   viewBox="0 0 22 22"
   version="1.1"
   id="svg1"
   sodipodi:docname="applications-games-symbolic.svg"
   inkscape:version="1.4 (unknown)"
   xmlns:inkscape="http://www.inkscape.org/namespaces/inkscape"
   xmlns:sodipodi="http://sodipodi.sourceforge.net/DTD/sodipodi-0.dtd"
   xmlns="http://www.w3.org/2000/svg"
   xmlns:svg="http://www.w3.org/2000/svg">
  <sodipodi:namedview
     id="namedview1"
     pagecolor="#b1b1b1"
     bordercolor="#000000"
     borderopacity="0.25"
     inkscape:showpageshadow="2"
     inkscape:pageopacity="0.0"
     inkscape:pagecheckerboard="0"
     inkscape:deskcolor="#d1d1d1"
     inkscape:zoom="24.909443"
     inkscape:cx="16.680421"
     inkscape:cy="11.381226"
     inkscape:window-width="1920"
     inkscape:window-height="998"
     inkscape:window-x="0"
     inkscape:window-y="0"
     inkscape:window-maximized="1"
     inkscape:current-layer="svg1" />
  <defs
     id="defs1">
    <style
       type="text/css"
       id="current-color-scheme">.ColorScheme-Text { color: #fcfcfc; } </style>
  </defs>
  <path
     d="m 6.7222337,3.5000001 c -2.2256708,0 -3.9270065,0.487576 -5.0746751,1.572745 C 0.49866739,6.1566638 1.8068821e-7,7.7719151 1.8068821e-7,9.7509711 v 5.9384329 c 0,0.721358 0.26766716931179,1.443968 0.80177894931179,1.990299 a 2.7585604,2.8216898 0 0 0 3.88911767,0 l 0.01222,-0.01504 0.012222,-0.01247 c 0,0 0.3202224,-0.322545 0.5170006,-0.766365 0.2835563,-0.590106 0.7577792,-1.636518 1.0865574,-2.361632 A 2.4444488,2.5003895 0 0 1 5.3447842,13.696595 c -0.2640006,0.586344 -0.9056678,2.012816 -1.2148908,2.65417 -0.089222,0.170022 -0.2200002,0.316293 -0.3128899,0.450067 A 1.5155576,1.550241 0 0 1 1.6658893,16.796262 1.5167807,1.551492 0 0 1 1.2222218,15.689841 V 9.7513731 c 0,-1.7715285 0.4180012,-2.9692148 1.2552245,-3.7605882 C 3.3158942,5.2004162 4.6701186,4.7503456 6.7222337,4.7503456 h 8.5555733 c 2.050885,0 3.406331,0.4500706 4.24478,1.2401933 0.837223,0.7913734 1.255228,1.9890596 1.255228,3.7605822 V 15.68955 c 0,0.400064 -0.142999,0.798871 -0.443673,1.106424 a 1.5155576,1.550241 0 0 1 -2.151115,0.0043 c -0.09286,-0.133588 -0.223662,-0.279863 -0.312883,-0.44989 -0.309227,-0.6426 -0.950897,-2.067822 -1.214895,-2.654165 a 2.4456704,2.5016395 0 0 1 -0.974114,0.827677 c 0.32756,0.725116 0.803002,1.771527 1.086562,2.36162 0.196777,0.443819 0.518223,0.766369 0.518223,0.766369 l 0.0122,0.01248 0.0122,0.01504 a 2.7585604,2.8216898 0 0 0 3.886671,0 2.743893,2.8066867 0 0 0 0.803002,-1.990306 V 9.7507711 c 0,-1.9790582 -0.498662,-3.5943097 -1.647556,-4.6782284 C 19.204809,3.9875761 17.5047,3.5000001 15.277807,3.5000001 Z m 9.7900173,2.3753702 a 0.73333455,0.75011681 0 1 0 0,1.500233 0.73333455,0.75011681 0 0 0 0,-1.500233 M 4.8888971,6.0003896 V 7.2505841 H 3.666673 V 8.5007785 H 4.8888971 V 9.7509711 H 6.1111209 V 8.5007785 H 7.3333457 V 7.2505841 H 6.1111209 V 6.0003896 Z M 15.277807,7.1255644 a 0.73333476,0.75011701 0 1 0 0,1.5002338 0.73333476,0.75011701 0 0 0 0,-1.5002338 m 2.456662,0 a 0.73333476,0.75011701 0 1 0 0,1.5002338 0.73333476,0.75011701 0 0 0 0,-1.5002338 m -1.234447,1.2501951 a 0.73333775,0.75012006 0 1 0 0,1.5002386 0.73333775,0.75012006 0 0 0 0,-1.5002386 M 7.3333457,11.001169 a 1.2222242,1.2501947 0 1 0 0,2.500387 1.2222242,1.2501947 0 0 0 0,-2.500387 m 7.3333493,0 a 1.2222242,1.2501947 0 1 0 0,2.500387 1.2222242,1.2501947 0 0 0 0,-2.500387 M 9.7777934,12.251358 A 2.4444488,2.5003895 0 0 1 9.4441281,13.501556 H 12.555911 A 2.4444488,2.5003895 0 0 1 12.22224,12.251358 Z"
     style="fill:currentColor;stroke-width:1.23612"
     class="ColorScheme-Text"
     id="path1" />
</svg>
