<?xml version="1.0" encoding="UTF-8" standalone="no"?>
<svg
   width="22"
   height="22"
   version="1.1"
   id="svg1"
   sodipodi:docname="applications-multimedia-symbolic.svg"
   inkscape:version="1.4 (unknown)"
   xmlns:inkscape="http://www.inkscape.org/namespaces/inkscape"
   xmlns:sodipodi="http://sodipodi.sourceforge.net/DTD/sodipodi-0.dtd"
   xmlns="http://www.w3.org/2000/svg"
   xmlns:svg="http://www.w3.org/2000/svg">
  <defs
     id="defs1" />
  <sodipodi:namedview
     id="namedview1"
     pagecolor="#ffffff"
     bordercolor="#000000"
     borderopacity="0.25"
     inkscape:showpageshadow="2"
     inkscape:pageopacity="0.0"
     inkscape:pagecheckerboard="0"
     inkscape:deskcolor="#d1d1d1"
     inkscape:zoom="10.28519"
     inkscape:cx="13.465965"
     inkscape:cy="15.70219"
     inkscape:window-width="1920"
     inkscape:window-height="998"
     inkscape:window-x="0"
     inkscape:window-y="0"
     inkscape:window-maximized="1"
     inkscape:current-layer="svg1" />
  <style
     id="current-color-scheme"
     type="text/css">.ColorScheme-Text {
        color:#dedede;
      }</style>
  <path
     class="ColorScheme-Text"
     d="M 8.75,2 C 8.12675,2 7.625,2.50175 7.625,3.125 v 9 c 0,0.62326 0.50175,1.125 1.125,1.125 h 9 c 0.62324,0 1.125,-0.50174 1.125,-1.125 v -9 C 18.875,2.50175 18.37324,2 17.75,2 Z m 4.85326,1.6875 c 0.14512,-0.0012 0.29136,0.04612 0.36786,0.171 0.05856,0.3465 0.17664,0.6885 0.36676,0.991126 0.189,0.39375 0.55124,0.685124 0.828,1.02375 0.783,0.956248 0.73688,2.38275 0.0112,3.355877 -0.06752,0.07424 -0.130498,0.23287 -0.250877,0.200247 -0.045,-0.02251 -0.106836,-0.07877 -0.07879,-0.137246 0.20812,-0.478128 0.35662,-1.003504 0.348741,-1.528878 0.01352,-0.72675 -0.547869,-1.344376 -1.173369,-1.674 V 9.84126 c 0,0.84262 -0.434252,1.494 -1.185752,1.67174 -0.663748,0.2025 -1.4715,-0.24188 -1.5525,-0.92024 -0.0562,-0.72564 0.565885,-1.355636 1.262258,-1.54126 0.231747,-0.0675 0.497247,-0.08662 0.703127,-0.04388 V 4.2725 c -0.0348,-0.241874 0.0192,-0.604124 0.353246,-0.585 z M 3.6875,7.625 C 3.375874,7.625 3.125,7.875876 3.125,8.1875 v 11.25 C 3.125,19.74912 3.375874,20 3.6875,20 h 10.125 c 0.31162,0 0.5625,-0.25088 0.5625,-0.5625 V 14.375 H 11 v 4.5 H 6.5 v -4.5 H 8.75 A 2.23875,2.23875 0 0 1 6.809376,13.25 H 6.5 V 7.625 Z M 4.25,8.75 H 5.375 V 9.875 H 4.25 Z m 0,2.25 h 1.125 v 1.125 H 4.25 Z m 0,2.25 h 1.125 v 1.125 H 4.25 Z m 0,2.25 h 1.125 v 1.125 H 4.25 Z m 7.875,0 h 1.125 v 1.125 H 12.125 Z M 4.25,17.75 h 1.125 v 1.125 H 4.25 Z m 7.875,0 h 1.125 v 1.125 h -1.125 z"
     fill="currentColor"
     id="path1"
     style="stroke-width:1.125" />
</svg>
