<?xml version="1.0" encoding="UTF-8" standalone="no"?>
<svg
   fill="none"
   viewBox="0 0 22 22"
   version="1.1"
   id="svg4"
   sodipodi:docname="applications-graphics-symbolic.svg"
   inkscape:version="1.4 (unknown)"
   xmlns:inkscape="http://www.inkscape.org/namespaces/inkscape"
   xmlns:sodipodi="http://sodipodi.sourceforge.net/DTD/sodipodi-0.dtd"
   xmlns="http://www.w3.org/2000/svg"
   xmlns:svg="http://www.w3.org/2000/svg">
  <sodipodi:namedview
     id="namedview4"
     pagecolor="#ffffff"
     bordercolor="#000000"
     borderopacity="0.25"
     inkscape:showpageshadow="2"
     inkscape:pageopacity="0.0"
     inkscape:pagecheckerboard="0"
     inkscape:deskcolor="#d1d1d1"
     inkscape:zoom="14.545455"
     inkscape:cx="12.821875"
     inkscape:cy="17.634375"
     inkscape:window-width="1920"
     inkscape:window-height="998"
     inkscape:window-x="0"
     inkscape:window-y="0"
     inkscape:window-maximized="1"
     inkscape:current-layer="svg4" />
  <defs
     id="defs1">
    <style
       type="text/css"
       id="current-color-scheme">.ColorScheme-Text { color: #fcfcfc; } </style>
  </defs>
  <g
     id="g5"
     transform="translate(-1,-1)">
    <path
       d="m 18.75,12 a 6.75,6.75 0 1 1 -13.5,0 6.75,6.75 0 0 1 13.5,0"
       opacity="0.2"
       style="fill:currentColor;stroke-width:1.125"
       class="ColorScheme-Text"
       id="path1" />
    <path
       fill-rule="evenodd"
       d="M 12,3 A 9,9 0 1 1 3,12 V 3 Z M 7.1985,4.125 H 12 A 7.875,7.875 0 1 1 4.125,12 V 7.1985 A 2.25,2.25 0 0 0 7.1985,4.125 m -1.9485,0 a 1.125,1.125 0 1 1 0,2.25 1.125,1.125 0 0 1 0,-2.25"
       clip-rule="evenodd"
       style="fill:currentColor;stroke-width:1.125"
       class="ColorScheme-Text"
       id="path2" />
    <g
       fill="#232629"
       opacity="0.2"
       id="g4"
       transform="matrix(1.125,0,0,1.125,-0.375,-0.375)">
      <path
         d="M 9,5.341 V 9 H 5.341 A 6.017,6.017 0 0 1 9,5.341"
         id="path3" />
      <path
         d="m 13,9 v 4 H 9 v 3.659 A 6.017,6.017 0 0 1 5.341,13 H 9 V 9 Z m 0,0 V 5.341 A 6.017,6.017 0 0 1 16.659,9 Z m 0,4 h 3.659 A 6.017,6.017 0 0 1 13,16.659 Z"
         id="path4" />
    </g>
  </g>
</svg>
