<?xml version="1.0" encoding="UTF-8" standalone="no"?>
<svg
   fill="none"
   viewBox="0 0 22 22"
   version="1.1"
   id="svg19"
   sodipodi:docname="applications-education-science.svg"
   inkscape:version="1.3.2 (091e20ef0f, 2023-11-25)"
   xmlns:inkscape="http://www.inkscape.org/namespaces/inkscape"
   xmlns:sodipodi="http://sodipodi.sourceforge.net/DTD/sodipodi-0.dtd"
   xmlns:xlink="http://www.w3.org/1999/xlink"
   xmlns="http://www.w3.org/2000/svg"
   xmlns:svg="http://www.w3.org/2000/svg">
  <sodipodi:namedview
     id="namedview19"
     pagecolor="#ffffff"
     bordercolor="#000000"
     borderopacity="0.25"
     inkscape:showpageshadow="2"
     inkscape:pageopacity="0.0"
     inkscape:pagecheckerboard="0"
     inkscape:deskcolor="#d1d1d1"
     inkscape:zoom="24.491608"
     inkscape:cx="5.5937529"
     inkscape:cy="12.330754"
     inkscape:window-width="1920"
     inkscape:window-height="994"
     inkscape:window-x="0"
     inkscape:window-y="0"
     inkscape:window-maximized="1"
     inkscape:current-layer="svg19" />
  <defs
     id="defs19">
    <linearGradient
       id="a"
       x1="20.75"
       x2="1.07"
       y1="19"
       y2="4.24"
       gradientUnits="userSpaceOnUse">
      <stop
         stop-color="#343B40"
         id="stop10" />
      <stop
         offset="1"
         stop-color="#555E63"
         id="stop11" />
    </linearGradient>
    <linearGradient
       id="b"
       x1="11"
       x2="11"
       y1="19"
       y2="3"
       gradientUnits="userSpaceOnUse">
      <stop
         stop-color="#BD8D48"
         id="stop12" />
      <stop
         offset="1"
         stop-color="#E8B971"
         id="stop13" />
    </linearGradient>
    <linearGradient
       id="c"
       x1="11"
       x2="11"
       y1="6"
       y2="16"
       gradientUnits="userSpaceOnUse"
       gradientTransform="translate(-16.860892,-0.80839895)">
      <stop
         stop-color="#93A2A3"
         id="stop14" />
      <stop
         offset="1"
         stop-color="#758182"
         id="stop15" />
    </linearGradient>
    <linearGradient
       id="d"
       x1="14.536"
       x2="7.464"
       y1="14.536"
       y2="7.464"
       gradientUnits="userSpaceOnUse"
       gradientTransform="translate(-16.860892,-0.80839895)">
      <stop
         stop-color="#92A1A2"
         id="stop16" />
      <stop
         offset="1"
         stop-color="#AABCBD"
         id="stop17" />
    </linearGradient>
    <linearGradient
       id="e"
       x1="16"
       x2="6"
       y1="11"
       y2="11"
       gradientUnits="userSpaceOnUse"
       gradientTransform="translate(-16.860892,-0.80839895)">
      <stop
         stop-color="#8A9C9D"
         id="stop18" />
      <stop
         offset="1"
         stop-color="#CFDCDD"
         id="stop19" />
    </linearGradient>
    <linearGradient
       inkscape:collect="always"
       xlink:href="#linearGradient2"
       id="linearGradient3085"
       gradientUnits="userSpaceOnUse"
       gradientTransform="matrix(0.37499953,0,0,0.39998676,-142.21408,-198.51203)"
       x1="434.57144"
       y1="543.79797"
       x2="384.57144"
       y2="503.798" />
    <linearGradient
       inkscape:collect="always"
       id="linearGradient2">
      <stop
         style="stop-color:#262b2f;stop-opacity:1;"
         offset="0"
         id="stop1" />
      <stop
         style="stop-color:#40474b;stop-opacity:1;"
         offset="1"
         id="stop2" />
    </linearGradient>
    <linearGradient
       inkscape:collect="always"
       xlink:href="#linearGradient4152-0"
       id="linearGradient3087"
       gradientUnits="userSpaceOnUse"
       gradientTransform="matrix(0.37499953,0,0,0.39998635,2,1.4005595)"
       x1="24"
       y1="43.999973"
       x2="24"
       y2="4" />
    <linearGradient
       id="linearGradient4152-0"
       inkscape:collect="always">
      <stop
         id="stop4154-0"
         offset="0"
         style="stop-color:#bd8d48;stop-opacity:1" />
      <stop
         id="stop4156-8"
         offset="1"
         style="stop-color:#e8b971;stop-opacity:1" />
    </linearGradient>
    <linearGradient
       inkscape:collect="always"
       xlink:href="#c"
       id="linearGradient19"
       gradientUnits="userSpaceOnUse"
       x1="11"
       y1="6"
       x2="11"
       y2="16"
       gradientTransform="translate(0,-0.25)" />
    <linearGradient
       inkscape:collect="always"
       xlink:href="#d"
       id="linearGradient20"
       gradientUnits="userSpaceOnUse"
       x1="14.536"
       y1="14.536"
       x2="7.464"
       y2="7.464"
       gradientTransform="translate(0,-0.25)" />
    <linearGradient
       inkscape:collect="always"
       xlink:href="#e"
       id="linearGradient21"
       gradientUnits="userSpaceOnUse"
       x1="16"
       y1="11"
       x2="6"
       y2="11"
       gradientTransform="translate(0,-0.25)" />
  </defs>
  <rect
     y="3.0005245"
     x="2.0000145"
     height="15.999475"
     width="17.999973"
     id="rect4567"
     style="fill:url(#linearGradient3085);fill-opacity:1;stroke:none;stroke-width:0.377966"
     ry="1.6785151"
     rx="1.6523422" />
  <path
     id="rect4778"
     d="M 3.181253,3.0005085 C 2.5931093,2.9809585 2.0373547,3.5280235 2,4.1433285 V 17.857158 c 0.064881,0.577217 0.6015026,1.096302 1.1435656,1.142811 H 18.874987 c 0.66196,-0.101951 1.056084,-0.597771 1.125008,-1.199942 l -2.7e-5,-13.6566985 c 0.0048,-0.600843 -0.543577,-1.076376 -1.124981,-1.14282 v 0 H 3.1435656 Z m -0.05624,1.14282 H 18.874987 V 17.857158 H 3.1250257 Z"
     style="fill:url(#linearGradient3087);fill-opacity:1;stroke:none;stroke-width:0.377966"
     inkscape:connector-curvature="0"
     sodipodi:nodetypes="cccccccccccccccc" />
  <path
     id="rect4553"
     d="m 3.1250257,4.1173535 v 13.7398045 0 H 18.874987 v 0 -13.7398045 0 z m 0.5624764,0.597382 H 18.312488 V 17.285749 H 3.6875021 Z"
     style="color:#000000;text-decoration:none;text-decoration-line:none;display:inline;overflow:visible;visibility:visible;fill:#aa7f41;fill-opacity:0.498039;fill-rule:nonzero;stroke:none;stroke-width:0.377966;enable-background:accumulate"
     inkscape:connector-curvature="0"
     sodipodi:nodetypes="ccccccccccccc" />
  <path
     fill="url(#c)"
     fill-rule="evenodd"
     d="M 11.671,13.988 C 11.987,13.2 12.2,12.055 12.2,10.75 12.2,9.4450001 11.987,8.3000001 11.671,7.512 11.513,7.115 11.344,6.848 11.197,6.692 A 0.62,0.62 0 0 0 11.039,6.564 0.152,0.152 0 0 0 11,6.55 l -0.008,0.001 a 0.152,0.152 0 0 0 -0.03,0.013 0.62,0.62 0 0 0 -0.16,0.129 C 10.656,6.848 10.487,7.115 10.329,7.512 10.013,8.3000001 9.8,9.4450001 9.8,10.75 c 0,1.305 0.213,2.45 0.529,3.238 0.158,0.397 0.327,0.664 0.474,0.82 a 0.62,0.62 0 0 0 0.158,0.128 0.154,0.154 0 0 0 0.031,0.013 L 11,14.95 11.008,14.949 a 0.154,0.154 0 0 0 0.03,-0.013 0.62,0.62 0 0 0 0.16,-0.129 c 0.146,-0.155 0.315,-0.422 0.473,-0.819 M 11,15.75 c 1.105,0 2,-2.239 2,-5 0,-2.7609999 -0.895,-5 -2,-5 -1.105,0 -2,2.2390001 -2,5 0,2.761 0.895,5 2,5"
     clip-rule="evenodd"
     id="path5-9"
     style="fill:url(#linearGradient19)" />
  <path
     fill="url(#d)"
     fill-rule="evenodd"
     d="M 8.235,8.9350001 C 8.57,9.715 9.229,10.675 10.152,11.598 c 0.922,0.923 1.882,1.582 2.663,1.917 0.393,0.168 0.701,0.237 0.915,0.243 a 0.623,0.623 0 0 0 0.203,-0.02 0.154,0.154 0 0 0 0.03,-0.014 l 0.007,-0.004 0.004,-0.006 a 0.154,0.154 0 0 0 0.014,-0.031 0.623,0.623 0 0 0 0.02,-0.203 C 14.003,13.266 13.933,12.958 13.765,12.565 13.43,11.785 12.771,10.825 11.848,9.902 10.926,8.9790001 9.966,8.3200001 9.185,7.9850001 8.792,7.8170001 8.484,7.7470001 8.27,7.742 A 0.622,0.622 0 0 0 8.067,7.762 0.152,0.152 0 0 0 8.03,7.78 L 8.026,7.786 A 0.153,0.153 0 0 0 8.013,7.817 0.622,0.622 0 0 0 7.992,8.02 c 0.005,0.214 0.075,0.522 0.243,0.915 m -0.77,-1.72 c -0.7819996,0.78 0.168,2.997 2.12,4.95 1.953,1.952 4.17,2.902 4.95,2.12 0.782001,-0.78 -0.168,-2.997 -2.12,-4.95 -1.953,-1.952 -4.17,-2.902 -4.95,-2.12"
     clip-rule="evenodd"
     id="path6-3"
     style="fill:url(#linearGradient20)" />
  <path
     fill="url(#e)"
     fill-rule="evenodd"
     d="M 7.762,11.421 C 8.55,11.737 9.695,11.95 11,11.95 c 1.305,0 2.45,-0.213 3.238,-0.529 0.397,-0.158 0.664,-0.327 0.820001,-0.474 a 0.62,0.62 0 0 0 0.128,-0.158 0.154,0.154 0 0 0 0.013,-0.031 l 10e-4,-0.008 -10e-4,-0.008 a 0.154,0.154 0 0 0 -0.013,-0.03 0.62,0.62 0 0 0 -0.129,-0.16 C 14.902,10.406 14.635,10.237 14.238,10.079 13.45,9.763 12.305,9.5500001 11,9.5500001 9.695,9.5500001 8.55,9.763 7.762,10.079 7.365,10.237 7.098,10.406 6.942,10.553 a 0.62,0.62 0 0 0 -0.1279996,0.158 0.152,0.152 0 0 0 -0.014,0.039 l 0.001,0.008 a 0.152,0.152 0 0 0 0.013,0.03 0.62,0.62 0 0 0 0.1289996,0.16 c 0.155,0.146 0.422,0.315 0.819,0.473 M 6.0000004,10.75 c 0,1.105 2.2389996,2 4.9999996,2 2.761,0 5.000001,-0.895 5.000001,-2 0,-1.105 -2.239001,-2 -5.000001,-2 -2.761,0 -4.9999996,0.895 -4.9999996,2"
     clip-rule="evenodd"
     id="path7-6"
     style="fill:url(#linearGradient21)" />
  <path
     fill="#54a3d8"
     d="m 7.5,5.75 a 1.5,1.5 0 1 0 0,3 1.5,1.5 0 0 0 0,-3"
     id="path8-0" />
  <path
     fill="#ffa92d"
     d="m 10.5,13.25 a 1.5,1.5 0 1 0 0,3 1.5,1.5 0 0 0 0,-3"
     id="path9-6" />
  <path
     fill="#e05e4c"
     d="m 14,7.75 a 1.5000001,1.5000001 0 1 0 0,3 1.5000001,1.5000001 0 0 0 0,-3"
     id="path10-2" />
</svg>
