<?xml version="1.0" encoding="UTF-8" standalone="no"?>
<svg
   width="24"
   height="24"
   version="1.1"
   id="svg1"
   sodipodi:docname="caffeine-cup-empty.svg"
   inkscape:version="1.4.2 (unknown)"
   xmlns:inkscape="http://www.inkscape.org/namespaces/inkscape"
   xmlns:sodipodi="http://sodipodi.sourceforge.net/DTD/sodipodi-0.dtd"
   xmlns="http://www.w3.org/2000/svg"
   xmlns:svg="http://www.w3.org/2000/svg">
  <sodipodi:namedview
     id="namedview1"
     pagecolor="#ffffff"
     bordercolor="#000000"
     borderopacity="0.25"
     inkscape:showpageshadow="2"
     inkscape:pageopacity="0.0"
     inkscape:pagecheckerboard="0"
     inkscape:deskcolor="#d1d1d1"
     inkscape:zoom="22.627418"
     inkscape:cx="9.523844"
     inkscape:cy="15.291183"
     inkscape:current-layer="svg1" />
  <defs
     id="defs1">
    <style
       id="current-color-scheme"
       type="text/css">.ColorScheme-Text { color:#dfdfdf; }
.ColorScheme-Highlight { color:#4285f4; }
.ColorScheme-NeutralText { color:#ff9800; }
.ColorScheme-PositiveText { color:#4caf50; }
.ColorScheme-NegativeText { color:#f44336; }
</style>
  </defs>
  <g
     id="g1"
     transform="matrix(0.79981716,0,0,0.80000001,2.4003657,-11)"
     style="stroke-width:1.25014">
    <path
       d="m 6.6266866,21.478764 c 0,0 -1.402948,-0.371427 -0.412686,-1.361908 0.99045,-0.990476 1.834606,-2.093809 1.815056,-2.806352 -0.01937,-0.783345 -0.314509,-1.35506 -0.89286,-1.850495 -0.576794,-0.495043 -1.458115,-0.459446 -1.458115,-0.459446 0,0 1.360712,0.04127 1.526572,1.196241 0.164687,1.155752 -0.577765,1.48552 -1.196809,1.980759 -0.618443,0.495045 -1.320608,1.237512 -1.155131,2.022227 0.136513,0.6521 0.453367,0.825202 0.949378,1.113697 0.49523,0.288693 0.824595,0.165277 0.824595,0.165277 z"
       id="path2"
       style="stroke-width:0.244518;fill-opacity:0.05;fill:currentColor;"
       class="ColorScheme-Text" />
    <path
       d="m 10.107665,24.203389 c 0,0 -0.5954562,-0.707413 0.374265,-1.864285 0.969385,-1.15822 1.770508,-2.422322 1.684193,-3.186042 -0.097,-0.839586 -0.497673,-1.388852 -1.136287,-1.903062 0,0 0.222888,0.210405 0.316268,1.002447 0.093,0.783279 -0.652766,1.433024 -1.271139,2.022758 -0.6156838,0.591085 -1.2991415,1.454612 -1.0469365,2.281723 0.2107203,0.687852 1.0796365,1.646461 1.0796365,1.646461 z"
       id="path4-3"
       style="stroke-width:0.24452;fill-opacity:0.05;fill:currentColor;"
       class="ColorScheme-Text" />
    <path
       id="g987"
       d="M 19.4,26 H 18 c 0,-0.919296 -0.879951,-1.966601 -1.896728,-1.966601 H 4.195906 C 2.985052,24.033399 2,24.81637 2,26 v 4.227003 c 0,3.06084 1.917422,5.691898 4.639735,6.806392 v 0 0 0 l 7.01819,4e-6 v 0 0 0 c 1.643423,-0.672524 2.993796,-1.897122 3.806075,-3.436051 h 1.862842 c 1.476474,0 2.67994,-1.174245 2.677727,-2.617517 L 22,28 c -0.0023,-1.531378 -1,-2 -2.6,-2 z m -9.250412,8.166476 c 0,0 -3.865525,-2.046728 -3.865525,-4.653542 0,-1.163428 0.964794,-2.106529 2.154987,-2.106529 0.697019,0 1.316624,0.323547 1.710538,0.825315 0.393918,-0.501768 1.013518,-0.825315 1.710543,-0.825315 1.190186,0 2.154987,0.943101 2.154987,2.106529 0,2.630486 -3.86553,4.653542 -3.86553,4.653542 z M 21,31 c -0.06903,0.935968 -1,1.508247 -1.787507,1.505 L 18,32.5 V 30.119006 27 h 1.373 C 20.47874,27 21,27.379339 21,28 Z"
       sodipodi:nodetypes="scsssscccccccccssssccscssccscccssc"
       style="fill:currentColor;fill-opacity:1;stroke-width:0.0719494"
       class="ColorScheme-Text" />
    <path
       d="m 14.597259,23.033399 c 0,0 -1.402948,-0.371427 -0.412686,-1.361909 0.99045,-0.990476 1.834606,-2.093809 1.815055,-2.806351 -0.01937,-0.783346 -0.314508,-1.355061 -0.892859,-1.850496 -0.576794,-0.495043 -1.458115,-0.459446 -1.458115,-0.459446 0,0 1.360712,0.04127 1.526572,1.196242 0.164687,1.155752 -0.577765,1.48552 -1.196809,1.980759 -0.618443,0.495045 -1.320609,1.237512 -1.155132,2.022226 0.136514,0.652101 0.453368,0.825202 0.949379,1.113698 0.49523,0.288692 0.824595,0.165277 0.824595,0.165277 z"
       id="path2-3"
       style="stroke-width:0.244518;fill-opacity:0.05;fill:currentColor;"
       class="ColorScheme-Text" />
    <path
       style="fill:currentColor;fill-opacity:1;stroke:none;stroke-width:1.11818"
       d="M 2.8,38 C 2.358172,38 2,38.447715 2,39 c 0,0.552285 0.358172,1 0.8,1 h 14.4 c 0.441828,0 0.8,-0.447715 0.8,-1 0,-0.552285 -0.358172,-1 -0.8,-1 z"
       id="rect3769"
       class="ColorScheme-Text" />
  </g>
</svg>
