<?xml version="1.0" encoding="UTF-8" standalone="no"?>
<svg
   viewBox="0 0 16 16"
   version="1.1"
   id="svg1"
   sodipodi:docname="folder-openSCAD-symbolic16.svg"
   xml:space="preserve"
   inkscape:version="1.4.2 (ebf0e940d0, 2025-05-08)"
   xmlns:inkscape="http://www.inkscape.org/namespaces/inkscape"
   xmlns:sodipodi="http://sodipodi.sourceforge.net/DTD/sodipodi-0.dtd"
   xmlns="http://www.w3.org/2000/svg"
   xmlns:svg="http://www.w3.org/2000/svg"><sodipodi:namedview
     id="namedview1"
     pagecolor="#505050"
     bordercolor="#ffffff"
     borderopacity="1"
     inkscape:showpageshadow="0"
     inkscape:pageopacity="0"
     inkscape:pagecheckerboard="1"
     inkscape:deskcolor="#505050"
     inkscape:zoom="72.25"
     inkscape:cx="7.9930796"
     inkscape:cy="8"
     inkscape:window-width="2556"
     inkscape:window-height="1364"
     inkscape:window-x="0"
     inkscape:window-y="0"
     inkscape:window-maximized="1"
     inkscape:current-layer="svg1" /><defs
     id="defs3051"><style
       type="text/css"
       id="current-color-scheme">.ColorScheme-Text {color:#fcfcfc;}</style></defs><path
     d="m 8.0322959,3.2 c -0.6434965,0.008 -1.2389925,0.1414999 -1.67299,0.3504998 -0.4474973,0.216 -0.7129957,0.5069998 -0.7129957,0.8134997 0,0.2469999 0.1874988,0.4899998 0.4874972,0.6984997 0.120999,-0.089 0.2464985,-0.1534999 0.3644975,-0.2109999 0.1174995,-0.058 0.2779985,-0.0735 0.487997,-0.075 0.209999,-0.002 0.4279975,0.045 0.4279975,0.045 0.004,5e-4 0.7489955,0.3219999 0.7489955,0.3219999 l 0.4469975,-0.209 h 10e-4 c 0,0 0.295998,-0.1329999 0.633996,-0.1289999 0.0225,0 0.045,0.0015 0.068,0.003 0.0935,0.0065 0.177499,0.019 0.327498,0.0535 0.149999,0.035 0.2954985,0.1194999 0.3884976,0.1949999 0.280999,-0.2024999 0.448498,-0.4394998 0.448498,-0.6819997 0,-0.3084999 -0.250499,-0.6014997 -0.6819966,-0.8194997 C 9.3647884,3.3374999 8.7617919,3.2005 8.0947959,3.2005 h -0.0625 z m 3.6499771,0.0715 c -0.162499,-0.01 -0.221498,0.01 -0.347497,0.065 -0.252999,0.1375 -0.511997,0.2749999 -0.772496,0.4124999 a 4.9359701,4.9359977 0 0 1 2.362486,4.0299981 c 0.208999,-0.1065 0.415997,-0.2135 0.614496,-0.318 0.578497,-0.4219997 0.616997,-1.5364992 0.0885,-2.5969987 C 13.157765,3.9214997 12.362769,3.27 11.682773,3.2715 Z M 6.2748064,3.4549999 A 4.8239707,4.8239978 0 0 0 3.1863251,7.534998 C 3.3988238,7.4279981 3.6148225,7.3229981 3.8333212,7.2264982 l 0.001,-0.001 h 10e-4 c 0.1019993,-0.043 0.2089987,-0.064 0.318498,-0.0665 0.1099993,-0.0025 0.2224987,0.0145 0.335998,0.047 0.2269986,0.065 0.4579972,0.1929998 0.6774959,0.3629997 0.4399973,0.3399998 0.8464948,0.8569996 1.1064933,1.4414994 0.287998,0.6464997 0.4199975,1.2659997 0.3974975,1.7799997 -0.0225,0.514499 -0.2059985,0.937499 -0.5689965,1.133999 l -0.488497,0.2335 a 4.7969709,4.7969978 0 0 0 2.3719855,0.624 4.7969709,4.7969978 0 0 0 2.6669841,-0.8055 c -0.372498,0.1445 -0.7399956,0.159 -1.0429936,-0.003 -0.2699985,-0.145 -0.4574975,-0.4165 -0.540997,-0.7705 -0.0605,-0.2065 -0.045,-0.3575 -0.0515,-0.573499 0.0075,-0.2375 0.0705,-0.4645 0.103499,-0.624 0.052,-0.2170001 0.188499,-0.5769999 0.387498,-0.9324998 C 9.7072849,8.7179975 9.9967834,8.3679976 10.313781,8.0689978 10.63128,7.7699979 10.940277,7.585998 11.165777,7.527998 c 0.224997,-0.058 0.370996,-0.085 0.521495,-0.087 0.15,-0.0015 0.303999,0.023 0.460498,0.1049999 0.385997,0.2049999 0.581496,0.6474997 0.593996,1.1784995 0.037,-0.113 0.054,-0.5799998 0.0645,-0.7624997 a 4.8179708,4.8179978 0 0 0 -2.561484,-4.257998 c 0.223499,0.1924999 0.358498,0.4199998 0.358498,0.6709997 0,0.3089999 -0.204499,0.5924997 -0.459997,0.7614997 A 3.0999812,3.0999986 0 0 1 9.3942874,5.508499 3.636478,3.6364984 0 0 1 8.2887944,5.6969989 c -0.368998,0.001 -0.6249965,0.006 -0.831995,-0.03 a 6.1689624,6.1689972 0 0 1 -0.4219975,-0.083 c -0.174999,-0.0335 -0.166999,-0.0265 -0.3039985,-0.075 C 6.4358054,5.403999 6.3433059,5.3639991 6.0423079,5.1659991 5.7418096,4.9679992 5.5223109,4.6799994 5.5223109,4.3639995 c 0,-0.3679998 0.3009982,-0.6834997 0.7524955,-0.9089996 z m 0.7489955,1.4499994 c 0.027,0.1659999 0.0735,0.3644998 0.081,0.5654997 0.087499,0.02 0.176999,0.0385 0.2689985,0.0535 0.2299985,-0.1135 0.431497,-0.2114999 0.634996,-0.3099999 L 7.3852994,4.9449992 c -0.0015,0 -0.045,-0.0075 -0.107499,-0.0165 a 4.5804722,4.5804979 0 0 0 -0.2539985,-0.0235 z m 1.64549,0.1454999 -0.4344975,0.2024999 0.011,0.3189999 c 0.4219975,-0.016 0.815495,-0.087 1.149493,-0.2029999 0.01,-0.149 0.053999,-0.2949999 0.075999,-0.4119999 -0.0725,-0.0185 -0.152499,-0.0165 -0.346498,-0.018 -0.1939985,-0.0015 -0.454997,0.1115 -0.454997,0.1115 z m 0.9249945,-0.0575 c -0.02,0.0615 -0.041,0.125 -0.0535,0.1949999 -0.007,0.037 -0.01,0.084 -0.014,0.128 0.133499,-0.0535 0.253498,-0.1135 0.3624975,-0.1794999 a 0.87249469,0.87249961 0 0 0 -0.2949975,-0.1435 z m -1.483491,0.3124999 c -0.1454995,0.07 -0.319998,0.1529999 -0.491997,0.2384999 0.168999,0.015 0.337498,0.029 0.500997,0.033 z m -3.9519762,1.979499 a 0.72949559,0.72949967 0 0 0 -0.2744983,0.0555 C 3.5068231,7.506998 3.1308255,7.6954979 2.7778276,7.8844979 c 0.053,0.005 0.1039994,0.0125 0.1499991,0.0185 0.1939988,0.026 0.4054975,0.1089999 0.7544954,0.3809998 0.1399991,0.1094999 0.2959982,0.2714999 0.4489973,0.4599998 0.163499,0.1939999 0.3049981,0.4219998 0.4324973,0.6189997 0.086499,0.144 0.162999,0.2874999 0.2249987,0.4239998 0.0755,0.158 0.1299992,0.3205 0.1884988,0.4725 0.056,0.153 0.089999,0.3085 0.1304992,0.455 0.039,0.1425 0.052,0.2865 0.075,0.421999 0.016,0.134 0.0225,0.26 0.02,0.377 -0.0055,0.2245 -0.022,0.427 -0.084,0.6075 -0.02,0.0575 -0.045999,0.112 -0.077,0.164 a 38.224768,38.224983 0 0 0 1.000494,-0.4705 c 0.6249965,-0.338 0.679996,-1.488999 0.1174995,-2.7529987 C 5.7198097,8.0724978 4.8338151,7.2744982 4.1588192,7.2849981 Z M 11.378775,7.617998 c 0.0925,0.1734999 0.168999,0.4519998 0.065,0.8164996 -0.033,0.086 -0.06,0.1884999 -0.107499,0.2779999 -0.263999,0.5499998 -0.752996,0.8049996 -0.894495,0.8694996 0,0.0235 -0.001,0.056 -0.0195,0.2314999 -0.0185,0.1749999 -0.0315,0.2485 -0.087,0.43 -0.055,0.1825 -0.113499,0.314 -0.191999,0.44 -0.0385,0.05 -0.075,0.1285 -0.2529981,0.325 -0.2179985,0.135499 -0.503997,0.226499 -0.656496,0.226499 0.085,0.2835 0.2224985,0.5135 0.4354975,0.628 0.3354976,0.179 0.7769946,0.1195 1.2259926,-0.1385 0.253498,-0.146 0.506497,-0.3555 0.739995,-0.615 0.174999,-0.202499 0.332998,-0.417999 0.585997,-0.859999 0.252498,-0.441 0.406997,-1.0319997 0.394997,-1.5219995 -0.011,-0.5019998 -0.191999,-0.8914996 -0.526996,-1.0699995 a 0.73899554,0.73899967 0 0 0 -0.360498,-0.0815 c -0.124,0 -0.246499,0.03 -0.349998,0.042 z m -0.141999,0.0235 c -0.249998,0.0825 -0.504997,0.2349999 -0.748995,0.4374998 0.086,0.096 0.184999,0.1779999 0.305498,0.2684999 a 1.8649887,1.8649992 0 0 0 0.454497,0.2509998 l 0.024,-0.0565 a 1.5699905,1.5699993 0 0 0 0.048,-0.142 c 0.0685,-0.2399999 0.051,-0.4324998 0.006,-0.5769997 a 0.81999504,0.81999963 0 0 0 -0.089,-0.1814998 z M 2.6478284,8.0074978 a 0.39999758,0.39999983 0 0 0 -0.2339986,0.0775 C 2.1773312,8.2694977 2.0243322,8.5439976 2.0023323,9.0319974 c -0.0215,0.4884997 0.1054993,1.0924996 0.3869976,1.7249996 0.2514985,0.564999 0.6489961,1.067499 1.0689935,1.391999 0.4204975,0.325 0.8634948,0.472 1.2404925,0.3 0.3099981,-0.1715 0.3684978,-0.4995 0.3789977,-0.9385 C 5.0883136,11.071497 4.9573144,10.461497 4.6743161,9.838497 4.4373175,9.3164972 3.9448205,8.6479975 3.6048225,8.3824976 3.2648246,8.1174978 3.0848257,8.0504978 2.9118268,8.0274978 a 1.4974909,1.4974993 0 0 0 -0.2639984,-0.02 z M 10.385281,8.1689977 C 10.094283,8.4599976 9.8432849,8.7674975 9.6602859,9.0669973 l 0.7219951,0.3964999 a 1.6199902,1.6199993 0 0 0 0.265499,-0.156 1.7514894,1.7514992 0 0 0 0.532497,-0.5959997 2.1674869,2.1674991 0 0 1 -0.471998,-0.2694999 C 10.53028,8.3089977 10.453781,8.2469977 10.385281,8.1689977 Z M 9.5982864,9.1854973 A 3.7474773,3.7474984 0 0 0 9.2692884,10.042997 L 10.246782,9.5409971 C 10.041783,9.4309972 9.8117849,9.3069972 9.5982864,9.1854973 Z m 0.7099956,0.4674998 -1.1124931,0.5794999 -0.015,0.073 c 0.112999,0.0265 0.2374985,0.064 0.3909975,0.1455 0.2134985,0.1135 0.313498,0.195 0.3904975,0.265 0.026,-0.034 0.0515,-0.0695 0.076499,-0.1085 0.170999,-0.274 0.235999,-0.578 0.261499,-0.7930002 0.006,-0.054 0.005,-0.1089999 0.008,-0.1614997 z"
     id="path1"
     style="fill:currentColor"
     class="ColorScheme-Text" /></svg>
