<?xml version="1.0" encoding="UTF-8" standalone="no"?>
<svg
   viewBox="0 0 16 16"
   version="1.1"
   id="svg1"
   sodipodi:docname="folder-fitbit-symbolic16.svg"
   xml:space="preserve"
   inkscape:version="1.4.2 (ebf0e940d0, 2025-05-08)"
   xmlns:inkscape="http://www.inkscape.org/namespaces/inkscape"
   xmlns:sodipodi="http://sodipodi.sourceforge.net/DTD/sodipodi-0.dtd"
   xmlns="http://www.w3.org/2000/svg"
   xmlns:svg="http://www.w3.org/2000/svg"><sodipodi:namedview
     id="namedview1"
     pagecolor="#505050"
     bordercolor="#ffffff"
     borderopacity="1"
     inkscape:showpageshadow="0"
     inkscape:pageopacity="0"
     inkscape:pagecheckerboard="1"
     inkscape:deskcolor="#505050"
     inkscape:zoom="72.25"
     inkscape:cx="7.9930796"
     inkscape:cy="8"
     inkscape:window-width="2556"
     inkscape:window-height="1364"
     inkscape:window-x="0"
     inkscape:window-y="0"
     inkscape:window-maximized="1"
     inkscape:current-layer="svg1" /><defs
     id="defs3051"><style
       type="text/css"
       id="current-color-scheme">.ColorScheme-Text {color:#fcfcfc;}</style></defs><path
     d="M 8.649,2.8925 C 8.649,3.3805 8.244,3.785 7.756,3.785 7.27,3.785 6.864,3.38 6.864,2.8925 6.864,2.406 7.2705,2 7.756,2 8.244,2 8.649,2.4065 8.649,2.8925 Z M 7.756,4.514 c -0.526,0 -0.9315,0.405 -0.9315,0.933 0,0.5265 0.405,0.9325 0.9325,0.9325 0.5265,0 0.9325,-0.4055 0.9325,-0.9325 C 8.6895,4.92 8.277,4.514 7.752,4.514 Z m 0,2.5145 c -0.526,0 -0.9725,0.4455 -0.9725,0.9725 0,0.527 0.447,0.9725 0.9735,0.9725 C 8.2835,8.9735 8.73,8.528 8.73,8.001 8.73,7.474 8.283,7.0285 7.757,7.0285 Z m 0,2.5535 c -0.526,0 -0.9315,0.405 -0.9315,0.932 0,0.527 0.405,0.933 0.9325,0.933 0.5265,0 0.9325,-0.4055 0.9325,-0.933 0,-0.486 -0.4125,-0.932 -0.9375,-0.932 z m 0,2.5955 c -0.486,0 -0.892,0.4045 -0.892,0.892 0,0.485 0.4065,0.8905 0.892,0.8905 0.4885,0 0.893,-0.4045 0.893,-0.892 0,-0.4865 -0.405,-0.8905 -0.893,-0.8905 z m 2.474,-7.786 c -0.568,0 -1.054,0.4885 -1.054,1.0555 0,0.567 0.4865,1.0535 1.054,1.0535 0.5675,0 1.053,-0.4875 1.053,-1.0535 0,-0.5675 -0.486,-1.0545 -1.053,-1.0545 z m 0,2.515 c -0.608,0 -1.095,0.4865 -1.095,1.095 0,0.608 0.4875,1.0935 1.095,1.0935 0.6075,0 1.0945,-0.4855 1.0945,-1.0945 0,-0.608 -0.487,-1.094 -1.0945,-1.094 z m 0,2.554 c -0.568,0 -1.054,0.488 -1.054,1.0535 0,0.5675 0.4865,1.0545 1.054,1.0545 0.5675,0 1.053,-0.488 1.053,-1.0545 0,-0.5665 -0.4855,-1.0535 -1.053,-1.0535 z M 12.783,6.784 c -0.648,0 -1.215,0.5275 -1.215,1.217 0,0.6485 0.5255,1.2165 1.215,1.2165 C 13.4735,9.2175 14,8.685 14,7.9955 13.959,7.3045 13.4325,6.78 12.783,6.78 Z M 5.243,4.636 c -0.446,0 -0.81,0.365 -0.81,0.8115 0,0.4455 0.3645,0.81 0.81,0.81 0.4465,0 0.8095,-0.3645 0.8095,-0.81 0,-0.4465 -0.3635,-0.81 -0.8095,-0.81 z m 0,2.5135 c -0.4865,0 -0.8515,0.3645 -0.8515,0.8515 0,0.4875 0.3605,0.8515 0.8475,0.8515 0.487,0 0.8475,-0.365 0.8475,-0.8515 0,-0.4875 -0.3675,-0.8515 -0.855,-0.8515 z m 0,2.5535 c -0.446,0 -0.81,0.3655 -0.81,0.81 0,0.4475 0.3645,0.8115 0.81,0.8115 0.4465,0 0.8095,-0.3675 0.8095,-0.8175 0,-0.45 -0.3635,-0.81 -0.8095,-0.81 z M 2.7305,7.2715 C 2.324,7.2715 2,7.5945 2,8.001 c 0,0.405 0.324,0.7295 0.73,0.7295 0.405,0 0.7295,-0.324 0.7295,-0.7295 0,-0.4055 -0.324,-0.7295 -0.729,-0.7295 z"
     id="path1"
     style="fill:currentColor"
     class="ColorScheme-Text" /></svg>
