<?xml version="1.0" encoding="UTF-8" standalone="no"?>
<svg
   viewBox="0 0 16 16"
   version="1.1"
   id="svg1"
   sodipodi:docname="folder-home-assisstant-symbolic16.svg"
   xml:space="preserve"
   inkscape:version="1.4.2 (ebf0e940d0, 2025-05-08)"
   xmlns:inkscape="http://www.inkscape.org/namespaces/inkscape"
   xmlns:sodipodi="http://sodipodi.sourceforge.net/DTD/sodipodi-0.dtd"
   xmlns="http://www.w3.org/2000/svg"
   xmlns:svg="http://www.w3.org/2000/svg"><sodipodi:namedview
     id="namedview1"
     pagecolor="#505050"
     bordercolor="#ffffff"
     borderopacity="1"
     inkscape:showpageshadow="0"
     inkscape:pageopacity="0"
     inkscape:pagecheckerboard="1"
     inkscape:deskcolor="#505050"
     inkscape:zoom="72.25"
     inkscape:cx="7.9930796"
     inkscape:cy="8"
     inkscape:window-width="2556"
     inkscape:window-height="1364"
     inkscape:window-x="0"
     inkscape:window-y="0"
     inkscape:window-maximized="1"
     inkscape:current-layer="svg1" /><defs
     id="defs3051"><style
       type="text/css"
       id="current-color-scheme">.ColorScheme-Text {color:#fcfcfc;}</style></defs><path
     d="M 13.470386,7.2937339 8.5297335,2.2237843 c -0.2906319,-0.2983791 -0.7687551,-0.2983791 -1.059387,0 L 2.5296935,7.2937339 C 2.2390616,7.5921129 2,8.1840458 2,8.6075443 v 4.6199827 c 0,0.423499 0.3375023,0.769998 0.750005,0.769998 h 4.6125308 l -2.0320436,-2.08621 c -0.1054707,0.03604 -0.2156314,0.0578 -0.3328122,0.0578 -0.5648538,0 -1.0242268,-0.471629 -1.0242268,-1.051529 0,-0.579911 0.459373,-1.0515284 1.0242268,-1.0515284 0.5648438,0 1.0242268,0.4716174 1.0242268,1.0515284 0,0.120315 -0.0211,0.233402 -0.0563,0.341684 L 7.547647,12.883482 V 6.9352539 C 7.2077947,6.7644172 6.9734232,6.4058859 6.9734232,5.9920073 c 0,-0.5799004 0.459373,-1.0515289 1.0242268,-1.0515289 0.5648437,0 1.0242268,0.4716285 1.0242268,1.0515289 0,0.4138786 -0.2343816,0.7724099 -0.5742238,0.9432466 v 4.1724201 l 1.57266,-1.6145815 c -0.0305,-0.1010237 -0.0469,-0.2069342 -0.0469,-0.317629 0,-0.5799004 0.459373,-1.0515288 1.024227,-1.0515288 0.564844,0 1.024227,0.4716284 1.024227,1.0515288 0,0.5799106 -0.459383,1.0515285 -1.024227,1.0515285 -0.124221,0 -0.243752,-0.02402 -0.353912,-0.06735 L 8.447623,12.414287 V 14 h 4.802372 C 13.662498,14 14,13.653501 14,13.230003 V 8.6100185 C 14,8.18652 13.760938,7.5945872 13.470306,7.2938057"
     style="fill:currentColor"
     id="path1-7"
     class="ColorScheme-Text" /></svg>
