<?xml version="1.0" encoding="UTF-8" standalone="no"?>
<svg
   viewBox="0 0 16 16"
   version="1.1"
   id="svg1"
   sodipodi:docname="folder-certificate-symbolic16.svg"
   xml:space="preserve"
   inkscape:version="1.4.2 (ebf0e940d0, 2025-05-08)"
   xmlns:inkscape="http://www.inkscape.org/namespaces/inkscape"
   xmlns:sodipodi="http://sodipodi.sourceforge.net/DTD/sodipodi-0.dtd"
   xmlns="http://www.w3.org/2000/svg"
   xmlns:svg="http://www.w3.org/2000/svg"><sodipodi:namedview
     id="namedview1"
     pagecolor="#505050"
     bordercolor="#ffffff"
     borderopacity="1"
     inkscape:showpageshadow="0"
     inkscape:pageopacity="0"
     inkscape:pagecheckerboard="1"
     inkscape:deskcolor="#505050"
     inkscape:zoom="72.25"
     inkscape:cx="7.9930796"
     inkscape:cy="8"
     inkscape:window-width="2556"
     inkscape:window-height="1364"
     inkscape:window-x="0"
     inkscape:window-y="0"
     inkscape:window-maximized="1"
     inkscape:current-layer="svg1" /><defs
     id="defs3051"><style
       type="text/css"
       id="current-color-scheme">.ColorScheme-Text {color:#fcfcfc;}</style></defs><path
     d="M 9.4285714,8.3069695 V 6.8783984 L 8,7.5926845 6.5714286,6.8783984 V 8.3069695 L 5.1428572,9.021255 6.5714286,9.735541 v 1.428572 L 8,10.449827 9.4285714,11.164113 V 9.735541 L 10.857142,9.021255 M 9.4285714,0.44982699 h -5 A 1.4285714,1.4285714 0 0 0 3,1.8783984 V 11.878399 A 1.4285714,1.4285714 0 0 0 4.4285714,13.30697 H 5.1428572 V 11.878399 H 4.4285714 V 1.8783984 h 4.2857143 v 2.8571429 h 2.8571423 v 7.1428577 h -0.714286 v 1.428571 h 0.714286 A 1.4285714,1.4285714 0 0 0 13,11.878399 V 4.0212556 M 9.4285714,8.3069695 V 6.8783984 L 8,7.5926845 6.5714286,6.8783984 V 8.3069695 L 5.1428572,9.021255 6.5714286,9.735541 v 1.428572 L 8,10.449827 9.4285714,11.164113 V 9.735541 L 10.857142,9.021255 M 6.5714286,15.449827 8,14.735541 9.4285714,15.449827 V 11.878399 H 6.5714286 M 9.4285714,8.3069695 V 6.8783984 L 8,7.5926845 6.5714286,6.8783984 V 8.3069695 L 5.1428572,9.021255 6.5714286,9.735541 v 1.428572 L 8,10.449827 9.4285714,11.164113 V 9.735541 L 10.857142,9.021255 Z"
     id="path2"
     style="fill:currentColor"
     class="ColorScheme-Text" /></svg>
