<?xml version="1.0" encoding="UTF-8" standalone="no"?>
<svg
   viewBox="0 0 16 16"
   version="1.1"
   id="svg1"
   sodipodi:docname="folder-svg-symbolic16.svg"
   xml:space="preserve"
   inkscape:version="1.4.2 (ebf0e940d0, 2025-05-08)"
   xmlns:inkscape="http://www.inkscape.org/namespaces/inkscape"
   xmlns:sodipodi="http://sodipodi.sourceforge.net/DTD/sodipodi-0.dtd"
   xmlns="http://www.w3.org/2000/svg"
   xmlns:svg="http://www.w3.org/2000/svg"><sodipodi:namedview
     id="namedview1"
     pagecolor="#505050"
     bordercolor="#ffffff"
     borderopacity="1"
     inkscape:showpageshadow="0"
     inkscape:pageopacity="0"
     inkscape:pagecheckerboard="1"
     inkscape:deskcolor="#505050"
     inkscape:zoom="72.25"
     inkscape:cx="7.9930796"
     inkscape:cy="8"
     inkscape:window-width="2556"
     inkscape:window-height="1364"
     inkscape:window-x="0"
     inkscape:window-y="0"
     inkscape:window-maximized="1"
     inkscape:current-layer="svg1" /><defs
     id="defs3051"><style
       type="text/css"
       id="current-color-scheme">.ColorScheme-Text {color:#fcfcfc;}</style></defs><path
     d="M 3.878,7.226 H 6.122 L 4.532,5.636 C 3.926,5.636 3.434,5.144 3.434,4.532 A 1.098,1.098 0 0 1 4.532,3.434 c 0.612,0 1.104,0.492 1.104,1.098 l 1.59,1.59 V 3.878 C 6.8,3.446 6.8,2.75 7.226,2.324 7.652,1.892 8.348,1.892 8.774,2.324 9.2,2.75 9.2,3.446 8.774,3.878 v 2.244 l 1.596,-1.59 c 0,-0.606 0.486,-1.098 1.098,-1.098 0.606,0 1.098,0.492 1.098,1.098 0,0.612 -0.492,1.104 -1.098,1.104 l -1.59,1.59 h 2.244 c 0.432,-0.426 1.128,-0.426 1.554,0 0.432,0.426 0.432,1.122 0,1.548 -0.426,0.426 -1.122,0.426 -1.554,0 H 9.878 l 1.59,1.596 c 0.606,0 1.098,0.486 1.098,1.098 a 1.098,1.098 0 0 1 -1.098,1.098 c -0.612,0 -1.098,-0.492 -1.098,-1.098 L 8.774,9.878 v 2.244 c 0.426,0.432 0.426,1.128 0,1.554 -0.426,0.432 -1.122,0.432 -1.548,0 C 6.8,13.25 6.8,12.554 7.226,12.122 V 9.878 l -1.59,1.59 c 0,0.606 -0.492,1.098 -1.104,1.098 -0.606,0 -1.098,-0.492 -1.098,-1.098 0,-0.612 0.492,-1.098 1.098,-1.098 L 6.122,8.774 H 3.878 C 3.446,9.2 2.75,9.2 2.324,8.774 1.892,8.348 1.892,7.652 2.324,7.226 2.75,6.8 3.446,6.8 3.878,7.226 Z"
     id="path1"
     style="fill:currentColor"
     class="ColorScheme-Text" /></svg>
