<?xml version="1.0" encoding="UTF-8" standalone="no"?>
<svg
   viewBox="0 0 16 16"
   version="1.1"
   id="svg1"
   sodipodi:docname="folder-wireshark-symbolic16.svg"
   xml:space="preserve"
   inkscape:version="1.4.2 (ebf0e940d0, 2025-05-08)"
   xmlns:inkscape="http://www.inkscape.org/namespaces/inkscape"
   xmlns:sodipodi="http://sodipodi.sourceforge.net/DTD/sodipodi-0.dtd"
   xmlns="http://www.w3.org/2000/svg"
   xmlns:svg="http://www.w3.org/2000/svg"><sodipodi:namedview
     id="namedview1"
     pagecolor="#505050"
     bordercolor="#ffffff"
     borderopacity="1"
     inkscape:showpageshadow="0"
     inkscape:pageopacity="0"
     inkscape:pagecheckerboard="1"
     inkscape:deskcolor="#505050"
     inkscape:zoom="72.25"
     inkscape:cx="7.9930796"
     inkscape:cy="8"
     inkscape:window-width="2556"
     inkscape:window-height="1364"
     inkscape:window-x="0"
     inkscape:window-y="0"
     inkscape:window-maximized="1"
     inkscape:current-layer="svg1" /><defs
     id="defs3051"><style
       type="text/css"
       id="current-color-scheme">.ColorScheme-Text {color:#fcfcfc;}</style></defs><path
     d="M 3.475,2 C 2.665,2 2,2.66 2,3.475 v 9.05 C 2,13.34 2.66,14 3.475,14 h 9.05 C 13.335,14 14,13.34 14,12.525 V 3.475 C 13.99988,2.66 13.34,2 12.525,2 Z m 0,0.545 h 9.05 c 0.52,0 0.925,0.409 0.925,0.93 v 7 H 10.815 C 10.6475,10.077 9.53,7.24 10.9565,5.025 A 0.258,0.2585 0 0 0 10.735,4.628 C 8.115,4.66935 6.635,6.223 5.865,7.733 5.19,9.053 5.05,10.188 5.02,10.498 H 2.545 v -7 c 0,-0.52 0.4085,-0.93 0.925,-0.93 z m 6.8,2.62 c -1.31,2.62 0.124,5.7 0.124,5.7 a 0.258,0.2585 0 0 0 0.2345,0.1505 h 2.81 v 1.525 c 0,0.52 -0.4085,0.93 -0.925,0.93 h -9.05 c -0.52,0 -0.925,-0.409 -0.925,-0.93 v -1.525 h 2.695 a 0.258,0.2585 0 0 0 0.257,-0.2385 c 0,0 0.113,-1.4 0.83,-2.81 0.67,-1.31 1.835,-2.585 3.955,-2.785 z"
     id="path1-7"
     style="fill:currentColor"
     class="ColorScheme-Text" /></svg>
