<?xml version="1.0" encoding="UTF-8" standalone="no"?>
<svg
   viewBox="0 0 16 16"
   version="1.1"
   id="svg1"
   sodipodi:docname="folder-orcaslicer-symbolic16.svg"
   xml:space="preserve"
   inkscape:version="1.4.2 (ebf0e940d0, 2025-05-08)"
   xmlns:inkscape="http://www.inkscape.org/namespaces/inkscape"
   xmlns:sodipodi="http://sodipodi.sourceforge.net/DTD/sodipodi-0.dtd"
   xmlns="http://www.w3.org/2000/svg"
   xmlns:svg="http://www.w3.org/2000/svg"><sodipodi:namedview
     id="namedview1"
     pagecolor="#505050"
     bordercolor="#ffffff"
     borderopacity="1"
     inkscape:showpageshadow="0"
     inkscape:pageopacity="0"
     inkscape:pagecheckerboard="1"
     inkscape:deskcolor="#505050"
     inkscape:zoom="72.25"
     inkscape:cx="7.9930796"
     inkscape:cy="8"
     inkscape:window-width="2556"
     inkscape:window-height="1364"
     inkscape:window-x="0"
     inkscape:window-y="0"
     inkscape:window-maximized="1"
     inkscape:current-layer="svg1" /><defs
     id="defs3051"><style
       type="text/css"
       id="current-color-scheme">.ColorScheme-Text {color:#fcfcfc;}</style></defs><path
     d="m 12.81436,7.2227719 -0.006,-0.017 c 0,-0.003 -0.003,-0.008 -0.003,-0.0113 l -0.0113,-0.0311 c -0.29372,-0.81055 -0.73712,-1.52507 -1.30761,-2.12662 L 14,2.5090819 c -0.18923,-0.18922 -0.39257,-0.35867 -0.60156,-0.51965 -1.03366,-0.78513 -2.29043,-1.21722998 -3.5839198,-1.21440999 -1.0929598,-0.003 -2.1661597,0.30218999 -3.0953195,0.87549999 -0.5789599,-0.1525 -1.1720498,-0.22593 -1.7707797,-0.22311 -0.9799998,0.008 -1.9486997,0.22594 -2.8383195,0.63545 -0.096,0.0452 -0.13557,0.15533 -0.0932,0.25135 0.0254,0.0537 0.0734,0.0932 0.12991,0.1045 0.9658798,0.20052 1.8244397,0.74841 2.4175196,1.53919 -0.7258199,1.38668 -0.8811499,3.00495 -0.4321,4.5046 0.27677,0.9178701 0.7681799,1.7651301 1.4516398,2.4598901 l -2.4429396,2.51636 -0.0678,0.0706 0.1045,0.0988 c 0.006,0.003 0.008,0.008 0.0141,0.0113 l 0.006,0.006 c 1.0873198,1.02519 2.5248396,1.60132 4.0244993,1.60697 3.2986704,-0.008 5.9647094,-2.68864 5.9562394,-5.98731 0,-0.6947601 -0.12991,-1.3782101 -0.36432,-2.0221301 m -3.7703097,-4.35775 c 0.7540599,-0.4321 1.5420107,-0.46882 1.7623007,-0.0847 0.217459,0.38409 -0.21746,1.04778 -0.9715308,1.47705 -0.7540599,0.43211 -1.5420098,0.46882 -1.7594697,0.0847 -0.22029,-0.38409 0.2146299,-1.04495 0.9686998,-1.47706 m 2.3497297,2.31867 c 0.52813,0.56484 0.93764,1.23136 1.21724,1.97977 C 9.7866002,9.428672 6.7534107,11.462102 3.5959512,13.213112 Z"
     style="fill:currentColor"
     id="path1"
     class="ColorScheme-Text" /></svg>
