<?xml version="1.0" encoding="UTF-8" standalone="no"?>
<svg
   viewBox="0 0 16 16"
   version="1.1"
   id="svg1"
   sodipodi:docname="folder-paw-symbolic16.svg"
   xml:space="preserve"
   inkscape:version="1.4.2 (ebf0e940d0, 2025-05-08)"
   xmlns:inkscape="http://www.inkscape.org/namespaces/inkscape"
   xmlns:sodipodi="http://sodipodi.sourceforge.net/DTD/sodipodi-0.dtd"
   xmlns="http://www.w3.org/2000/svg"
   xmlns:svg="http://www.w3.org/2000/svg"><sodipodi:namedview
     id="namedview1"
     pagecolor="#505050"
     bordercolor="#ffffff"
     borderopacity="1"
     inkscape:showpageshadow="0"
     inkscape:pageopacity="0"
     inkscape:pagecheckerboard="1"
     inkscape:deskcolor="#505050"
     inkscape:zoom="72.25"
     inkscape:cx="7.9930796"
     inkscape:cy="8"
     inkscape:window-width="2556"
     inkscape:window-height="1364"
     inkscape:window-x="0"
     inkscape:window-y="0"
     inkscape:window-maximized="1"
     inkscape:current-layer="svg1" /><defs
     id="defs3051"><style
       type="text/css"
       id="current-color-scheme">.ColorScheme-Text {color:#fcfcfc;}</style></defs><path
     d="M 5.8189254,2.6089891 C 6.52404,2.5074048 7.2709833,3.2782503 7.486103,4.3418977 7.7012227,5.3995694 7.3128121,6.3437058 6.6076976,6.4512657 5.9085586,6.5588255 5.1556397,5.78798 4.9345445,4.7243327 4.7134493,3.6666609 5.1138109,2.7225245 5.8189254,2.6089891 m 4.2725156,0 c 0.711091,0.1135354 1.105477,1.0576718 0.896332,2.1153436 C 10.760703,5.78798 10.013759,6.5588255 9.3086448,6.4512657 8.5975547,6.3437058 8.2091442,5.3995694 8.4302394,4.3418977 8.6453591,3.2782503 9.3923024,2.5074048 10.091441,2.6089891 M 2.6220079,5.3577406 C 3.3032202,5.0649388 4.22943,5.5967625 4.7134493,6.5229722 5.1675908,7.4671084 5.0122266,8.4590492 4.3369898,8.751851 3.661753,9.0446528 2.7415188,8.5188046 2.2694506,7.5806438 1.7973824,6.6424832 1.9646977,5.6445669 2.6220079,5.3577406 m 10.7559841,0 c 0.65731,0.2868263 0.824626,1.2847426 0.352557,2.2229032 C 13.258481,8.5188046 12.338247,9.0446528 11.66301,8.751851 10.987773,8.4590492 10.832409,7.4671084 11.286551,6.5229722 11.77057,5.5967625 12.69678,5.0649388 13.377992,5.3577406 M 12.380076,11.79938 c 0.0239,0.561702 -0.406337,1.183158 -0.920234,1.416205 -1.069623,0.489995 -2.3364392,-0.525848 -3.525573,-0.525848 -1.1891338,0 -2.4679008,1.057671 -3.5195971,0.525848 C 3.8171173,12.922783 3.4048045,12.145962 3.4824866,11.500603 3.5900465,10.610246 4.6596694,10.132202 5.2930773,9.4808677 6.1356294,8.6383156 6.7331841,7.0547959 7.934269,7.0547959 c 1.1951094,0 1.8285173,1.5596175 2.635216,2.4260718 0.663286,0.7290163 1.768762,1.3444983 1.810591,2.3185123 z"
     id="path1"
     style="fill:currentColor"
     class="ColorScheme-Text" /></svg>
