<?xml version="1.0" encoding="UTF-8" standalone="no"?>
<svg
   viewBox="0 0 16 16"
   version="1.1"
   id="svg1"
   sodipodi:docname="folder-webmin-symbolic16.svg"
   xml:space="preserve"
   inkscape:version="1.4.2 (ebf0e940d0, 2025-05-08)"
   xmlns:inkscape="http://www.inkscape.org/namespaces/inkscape"
   xmlns:sodipodi="http://sodipodi.sourceforge.net/DTD/sodipodi-0.dtd"
   xmlns="http://www.w3.org/2000/svg"
   xmlns:svg="http://www.w3.org/2000/svg"><sodipodi:namedview
     id="namedview1"
     pagecolor="#505050"
     bordercolor="#ffffff"
     borderopacity="1"
     inkscape:showpageshadow="0"
     inkscape:pageopacity="0"
     inkscape:pagecheckerboard="1"
     inkscape:deskcolor="#505050"
     inkscape:zoom="72.25"
     inkscape:cx="7.9930796"
     inkscape:cy="8"
     inkscape:window-width="2556"
     inkscape:window-height="1364"
     inkscape:window-x="0"
     inkscape:window-y="0"
     inkscape:window-maximized="1"
     inkscape:current-layer="svg1" /><defs
     id="defs3051"><style
       type="text/css"
       id="current-color-scheme">.ColorScheme-Text {color:#fcfcfc;}</style></defs><path
     d="M 14.481739,8.8184027 C 14.392816,8.353301 14.197087,7.961908 13.902273,7.654385 13.673534,7.4154848 13.620159,7.3798938 12.728084,6.8639647 12.133371,6.5208615 11.856342,6.3556701 11.785182,6.3099179 c -0.0022,-0.071139 0,-0.307523 0.0098,-0.8514086 0.02288,-1.1131905 0.02288,-1.3393811 -0.0076,-1.5122069 C 11.703524,3.4634159 11.502698,3.066937 11.15196,2.7009632 10.801234,2.3349784 10.407303,2.1138737 9.9472881,2.0249178 9.7566661,1.9893485 9.3474887,1.9918427 9.1339967,2.0325089 8.7146472,2.111347 8.3740815,2.2663231 8.0258923,2.5357284 l -0.083826,0.066042 -0.04316,-0.033075 C 7.5862964,2.339956 7.2304837,2.1747537 6.8695958,2.0934322 6.6357707,2.0400782 6.2392918,2.0323787 6.0054776,2.0730449 5.5479994,2.1543773 5.1794771,2.3576864 4.8058797,2.7338323 4.4907222,3.0515273 4.2975742,3.3819209 4.2009947,3.7733139 4.1323502,4.0452567 4.129856,4.1164279 4.1399413,5.2880692 l 0.00759,1.0293096 -0.1880729,0.1118266 C 3.402875,6.7596099 2.4675856,7.3390758 2.3710169,7.4102361 2.2337713,7.5118474 2.0279029,7.7202967 1.9313343,7.8575424 1.7330894,8.1371087 1.5933062,8.4852979 1.5323069,8.8614438 1.4154053,9.5603597 1.6365208,10.228782 2.1473638,10.747248 c 0.1677399,0.16774 0.2795664,0.256696 0.4625534,0.363437 0.106708,0.06355 0.2744804,0.144869 0.3837693,0.188073 -0.00542,0.04067 -0.012688,0.147406 -0.01529,0.231276 -0.020279,0.508306 0.106708,0.986117 0.3812209,1.415628 0.1016112,0.157578 0.3558128,0.426984 0.5057679,0.533724 0.2897276,0.205858 0.6455403,0.348189 1.0267721,0.416812 0.1499552,0.02538 0.2058685,0.03047 0.411726,0.02288 0.2516098,-0.0076 0.3710599,-0.02798 0.5743799,-0.09912 0.1652023,-0.05596 0.2541582,-0.104214 1.1970603,-0.630304 l 0.8437852,-0.470177 0.6175944,0.365974 c 1.0089759,0.594723 1.0648899,0.627755 1.2072209,0.698926 0.226191,0.111827 0.4625529,0.180439 0.7039909,0.205858 0.06865,0.0076 0.137246,0.0098 0.205868,0.0098 0.246524,0 0.498134,-0.04576 0.765002,-0.134708 0.200771,-0.06865 0.467639,-0.205858 0.622669,-0.317684 0.34819,-0.256696 0.637917,-0.676046 0.775163,-1.118277 0.08643,-0.284641 0.09912,-0.383769 0.101611,-0.772614 l 0.0022,-0.297361 0.07114,-0.02538 c 0.386318,-0.144858 0.765002,-0.414264 1.016611,-0.724325 0.256696,-0.315157 0.404103,-0.6201316 0.480349,-0.9912023 0.03806,-0.1829869 0.03308,-0.5870894 -0.0076,-0.8005705 M 9.1284553,8.6704754 c -0.1270737,0.063548 -0.20332,0.1321488 -0.2897275,0.2668569 -0.088923,0.1372348 -0.1270737,0.2668568 -0.1270737,0.416812 0,0.1956965 0.058451,0.3405548 0.1982341,0.4930475 0.1270736,0.1372456 0.1601163,0.1601162 1.1995978,0.7650012 1.138598,0.663336 1.23264,0.757367 1.298715,1.02931 0.02798,0.109289 0.01778,0.269405 -0.02039,0.368522 -0.09153,0.231277 -0.221104,0.365985 -0.426973,0.437145 -0.101611,0.03557 -0.2389,0.04576 -0.338017,0.02798 C 10.439823,12.44207 10.25175,12.337904 8.6302656,11.382292 8.2769904,11.176435 8.1321321,11.123059 7.908479,11.123059 c -0.00542,0 -0.00759,0 0,0.0076 -0.2414487,0.0022 -0.2846524,0.02798 -1.0242346,0.447306 -0.5896378,0.33548 -1.1131904,0.627756 -1.24535,0.696379 -0.1804494,0.09153 -0.4244356,0.167739 -0.5438857,0.167739 -0.060945,0 -0.1677398,-0.03047 -0.2439862,-0.06604 C 4.7112413,12.307387 4.5536735,12.139669 4.4850507,11.98209 4.4443845,11.88807 4.4316967,11.692363 4.4621692,11.585611 4.513029,11.40771 4.5943288,11.306045 4.8154443,11.151015 5.0060548,11.016317 5.1661711,10.919738 5.8955921,10.505474 6.5563903,10.131866 6.7470008,10.020039 6.8283332,9.9615885 6.932547,9.8878471 7.0418143,9.7506341 7.0977276,9.631184 7.1434906,9.5320669 7.1510816,9.4964867 7.1561784,9.3795742 7.1637695,9.2042108 7.1282001,9.0796747 7.0265564,8.9246444 6.8588165,8.6679487 6.6046692,8.5510362 6.3123933,8.5942508 6.1497286,8.6196264 6.0556976,8.6577984 5.7557981,8.828065 5.3644052,9.0466321 5.2805352,9.0949218 4.7696922,9.3973697 4.2613867,9.6972692 4.1292271,9.7684296 3.9741968,9.8192569 3.6005885,9.943793 3.3972685,9.9208681 3.2193567,9.7404187 3.0694124,9.587926 2.98808,9.3998531 2.98808,9.2143177 2.98808,9.0491263 3.03124,8.9220526 3.1202397,8.8203872 3.2295287,8.6958511 3.3972685,8.581487 4.0174005,8.2180507 4.2537632,8.0782675 4.6095759,7.8673131 4.80781,7.747863 L 5.2474926,7.4810061 C 5.4762317,7.3437605 5.6160149,7.148064 5.6770142,6.8812072 5.6824363,6.8583257 5.6923046,6.8125627 5.7023899,5.6028254 5.7121497,4.484549 5.7150777,4.3981415 5.7379592,4.2863149 5.7862164,4.0499523 5.8548717,3.9050831 5.9692467,3.785633 6.0785248,3.6738065 6.2488131,3.6077321 6.436886,3.6077321 c 0.20332,0 0.4015541,0.078838 0.5286277,0.2109435 0.1321597,0.1372457 0.1753634,0.2744804 0.1906214,0.6099601 0.00759,0.109289 0.00542,0.6709702 0,1.250436 -0.00759,0.9098596 -0.00759,1.0750618 0.00976,1.1792648 0.038172,0.2287391 0.1575787,0.4218872 0.3354797,0.5438857 0.1753634,0.1194501 0.3939414,0.1575679 0.615046,0.1092781 0.3024479,-0.068644 0.5337246,-0.3227701 0.5871003,-0.6531638 0.015291,-0.091526 0.020279,-0.3812318 0.030473,-1.2910913 0.00976,-1.0750618 0.012688,-1.1716413 0.035569,-1.2834678 0.048257,-0.2363627 0.1143641,-0.3812318 0.2312766,-0.500682 0.109289,-0.1118265 0.2795664,-0.1779117 0.4676393,-0.1779117 0.2033201,0 0.4015651,0.078838 0.5286381,0.2109544 0.1296219,0.1346972 0.1753639,0.2744804 0.1906099,0.6023365 0.0054,0.1042138 0.0054,0.6735077 -0.0022,1.2656723 v 0.033075 c -0.01269,1.1741788 -0.01269,1.1741788 0.08133,1.3775097 0.09402,0.2058576 0.200772,0.282104 0.653164,0.5438857 0.559133,0.3202325 1.443584,0.8412367 1.550335,0.9098595 0.25161,0.1626539 0.388845,0.2871899 0.444758,0.4091885 0.06095,0.1346972 0.06604,0.3202325 0.01778,0.4828864 -0.05335,0.1702774 -0.226202,0.3812318 -0.373609,0.4549297 -0.07374,0.035569 -0.07374,0.035569 -0.210943,0.035569 -0.16774,0 -0.33548,-0.038172 -0.50322,-0.1118266 C 11.796862,9.7988368 11.410526,9.5828612 10.909844,9.2931337 9.7661591,8.6348731 9.7661591,8.6348731 9.5450441,8.6018413 c -0.1423206,-0.022882 -0.2795662,0 -0.4168119,0.068644"
     style="fill:currentColor"
     id="path1-7"
     class="ColorScheme-Text" /></svg>
