<?xml version="1.0" encoding="UTF-8" standalone="no"?>
<svg
   viewBox="0 0 16 16"
   version="1.1"
   id="svg1"
   sodipodi:docname="folder-bitwarden-symbolic16.svg"
   xml:space="preserve"
   inkscape:version="1.4.2 (ebf0e940d0, 2025-05-08)"
   xmlns:inkscape="http://www.inkscape.org/namespaces/inkscape"
   xmlns:sodipodi="http://sodipodi.sourceforge.net/DTD/sodipodi-0.dtd"
   xmlns="http://www.w3.org/2000/svg"
   xmlns:svg="http://www.w3.org/2000/svg"><sodipodi:namedview
     id="namedview1"
     pagecolor="#505050"
     bordercolor="#ffffff"
     borderopacity="1"
     inkscape:showpageshadow="0"
     inkscape:pageopacity="0"
     inkscape:pagecheckerboard="1"
     inkscape:deskcolor="#505050"
     inkscape:zoom="36.125"
     inkscape:cx="5.3010381"
     inkscape:cy="12.013841"
     inkscape:window-width="2556"
     inkscape:window-height="1364"
     inkscape:window-x="0"
     inkscape:window-y="0"
     inkscape:window-maximized="1"
     inkscape:current-layer="svg1" /><defs
     id="defs3051"><style
       type="text/css"
       id="current-color-scheme">.ColorScheme-Text {color:#fcfcfc;}</style></defs><path
     d="M 13.82206,0.93176736 A 0.57732769,0.5777831 0 0 0 13.400444,0.75435676 H 2.5989061 A 0.57433325,0.5747863 0 0 0 2.1778881,0.93176736 0.57493214,0.57538566 0 0 0 2.0000185,1.3525181 v 7.192321 c 0,0.5364262 0.1042064,1.0686582 0.3132182,1.5972939 0.2090117,0.527437 0.468929,0.994937 0.778554,1.405499 0.3096248,0.407565 0.6779408,0.806739 1.1067443,1.194525 a 13.059943,13.070245 0 0 0 1.1857975,0.96437 c 0.362327,0.255927 0.7396263,0.497469 1.1336944,0.726424 0.3934693,0.228357 0.6737487,0.382392 0.8384428,0.462706 0.165293,0.08032 0.2994438,0.144446 0.3976614,0.186401 a 0.54858108,0.54901382 0 0 0 0.4874944,0 c 0.1006132,-0.04375 0.2329674,-0.106086 0.3994581,-0.186401 0.1646941,-0.08031 0.4449735,-0.236147 0.8390417,-0.462706 a 15.154851,15.166806 0 0 0 1.1342937,-0.726424 13.110249,13.120591 0 0 0 1.186994,-0.96497 c 0.428804,-0.387786 0.796521,-0.785161 1.106146,-1.194524 0.309626,-0.409363 0.568344,-0.876864 0.778554,-1.4055 0.20961,-0.5268367 0.313817,-1.0590687 0.313817,-1.5972932 V 1.3543162 A 0.56894326,0.56939206 0 0 0 13.82206,0.93176736 Z M 12.429647,8.6125662 c 0,2.6036198 -4.429972,4.8470248 -4.429972,4.8470248 V 2.2947122 h 4.429972 v 6.3172546 z"
     id="path1-7"
     style="fill:currentColor"
     class="ColorScheme-Text"
     inkscape:label="path2" /></svg>
