<?xml version="1.0" encoding="UTF-8" standalone="no"?>
<svg
   viewBox="0 0 16 16"
   version="1.1"
   id="svg1"
   sodipodi:docname="folder-benchmark-symbolic16.svg"
   xml:space="preserve"
   inkscape:version="1.4.2 (ebf0e940d0, 2025-05-08)"
   xmlns:inkscape="http://www.inkscape.org/namespaces/inkscape"
   xmlns:sodipodi="http://sodipodi.sourceforge.net/DTD/sodipodi-0.dtd"
   xmlns="http://www.w3.org/2000/svg"
   xmlns:svg="http://www.w3.org/2000/svg"><sodipodi:namedview
     id="namedview1"
     pagecolor="#505050"
     bordercolor="#ffffff"
     borderopacity="1"
     inkscape:showpageshadow="0"
     inkscape:pageopacity="0"
     inkscape:pagecheckerboard="1"
     inkscape:deskcolor="#505050"
     inkscape:zoom="72.25"
     inkscape:cx="7.9930796"
     inkscape:cy="8"
     inkscape:window-width="2556"
     inkscape:window-height="1364"
     inkscape:window-x="0"
     inkscape:window-y="0"
     inkscape:window-maximized="1"
     inkscape:current-layer="svg1" /><defs
     id="defs3051"><style
       type="text/css"
       id="current-color-scheme">.ColorScheme-Text {color:#fcfcfc;}</style></defs><path
     d="M 7.9998486,10.599807 A 1.7999546,1.7999555 0 0 1 6.199894,8.7998516 c 0,-0.6719833 0.3659908,-1.2599688 0.8999773,-1.5659613 L 12.925724,3.8619737 9.6078081,9.6098315 C 9.3078156,10.197817 8.7018308,10.599807 7.9998486,10.599807 m 0,-7.799807 c 1.0859726,0 2.0999474,0.2999926 2.9819244,0.7919804 L 9.7218052,4.3179625 C 9.1998183,4.1139676 8.5998335,3.9999704 7.9998486,3.9999704 A 4.7998789,4.7998813 0 0 0 3.1999698,8.7998516 c 0,1.3259674 0.5339864,2.5259374 1.4039645,3.3899174 h 0.006 c 0.2339942,0.233994 0.2339942,0.611984 0,0.845978 -0.2339941,0.233994 -0.6179844,0.233994 -0.8519786,0.006 v 0 C 2.6719831,11.955774 2,10.455811 2,8.7998516 A 5.9998486,5.9998516 0 0 1 7.9998486,2.8 m 5.9998494,5.9998516 c 0,1.6559594 -0.671984,3.1559224 -1.757957,4.2418944 v 0 c -0.233993,0.227995 -0.611984,0.227995 -0.845978,-0.006 -0.233994,-0.233995 -0.233994,-0.611985 0,-0.845978 v 0 c 0.869978,-0.869979 1.403964,-2.06395 1.403964,-3.3899176 0,-0.5999852 -0.113997,-1.1999703 -0.323991,-1.739957 l 0.725981,-1.2600112 c 0.497987,0.8999777 0.797981,1.9079528 0.797981,2.9999264 z"
     id="path1"
     style="fill:currentColor"
     class="ColorScheme-Text" /></svg>
