<?xml version="1.0" encoding="UTF-8" standalone="no"?>
<svg
   viewBox="0 0 16 16"
   version="1.1"
   id="svg1"
   sodipodi:docname="folder-shopping-symbolic16.svg"
   xml:space="preserve"
   inkscape:version="1.4.2 (ebf0e940d0, 2025-05-08)"
   xmlns:inkscape="http://www.inkscape.org/namespaces/inkscape"
   xmlns:sodipodi="http://sodipodi.sourceforge.net/DTD/sodipodi-0.dtd"
   xmlns="http://www.w3.org/2000/svg"
   xmlns:svg="http://www.w3.org/2000/svg"><sodipodi:namedview
     id="namedview1"
     pagecolor="#505050"
     bordercolor="#ffffff"
     borderopacity="1"
     inkscape:showpageshadow="0"
     inkscape:pageopacity="0"
     inkscape:pagecheckerboard="1"
     inkscape:deskcolor="#505050"
     inkscape:zoom="72.25"
     inkscape:cx="7.9930796"
     inkscape:cy="8"
     inkscape:window-width="2556"
     inkscape:window-height="1364"
     inkscape:window-x="0"
     inkscape:window-y="0"
     inkscape:window-maximized="1"
     inkscape:current-layer="svg1" /><defs
     id="defs3051"><style
       type="text/css"
       id="current-color-scheme">.ColorScheme-Text {color:#fcfcfc;}</style></defs><path
     d="M 12.666667,4.3333333 H 11.333333 C 11.333333,2.4666667 9.8666667,1 8,1 6.1333333,1 4.6666667,2.4666667 4.6666667,4.3333333 H 3.3333333 C 2.6,4.3333333 2,4.9333333 2,5.6666667 V 13.666667 C 2,14.4 2.6,15 3.3333333,15 H 12.666667 C 13.4,15 14,14.4 14,13.666667 V 5.6666667 C 14,4.9333333 13.4,4.3333333 12.666667,4.3333333 M 8,2.3333333 c 1.1333333,0 2,0.8666667 2,2 H 6 c 0,-1.1333333 0.8666667,-2 2,-2 M 12.666667,13.666667 H 3.3333333 V 5.6666667 H 12.666667 V 13.666667 M 8,8.3333333 c -1.1333333,0 -2,-0.8666666 -2,-2 H 4.6666667 C 4.6666667,8.2 6.1333333,9.666667 8,9.666667 9.8666667,9.666667 11.333333,8.2 11.333333,6.3333333 H 10 c 0,1.1333334 -0.8666667,2 -2,2 z"
     id="path1"
     style="fill:currentColor"
     class="ColorScheme-Text" /></svg>
