<?xml version="1.0" encoding="UTF-8" standalone="no"?>
<svg
   viewBox="0 0 16 16"
   version="1.1"
   id="svg1"
   sodipodi:docname="folder-3Dmodels-symbolic16.svg"
   xml:space="preserve"
   inkscape:version="1.4.2 (ebf0e940d0, 2025-05-08)"
   xmlns:inkscape="http://www.inkscape.org/namespaces/inkscape"
   xmlns:sodipodi="http://sodipodi.sourceforge.net/DTD/sodipodi-0.dtd"
   xmlns="http://www.w3.org/2000/svg"
   xmlns:svg="http://www.w3.org/2000/svg"><sodipodi:namedview
     id="namedview1"
     pagecolor="#505050"
     bordercolor="#ffffff"
     borderopacity="1"
     inkscape:showpageshadow="0"
     inkscape:pageopacity="0"
     inkscape:pagecheckerboard="1"
     inkscape:deskcolor="#505050"
     inkscape:zoom="36.125"
     inkscape:cx="8.5397924"
     inkscape:cy="7.6678201"
     inkscape:window-width="2556"
     inkscape:window-height="1364"
     inkscape:window-x="0"
     inkscape:window-y="0"
     inkscape:window-maximized="1"
     inkscape:current-layer="svg1" /><defs
     id="defs3051"><style
       type="text/css"
       id="current-color-scheme">.ColorScheme-Text {color:#fcfcfc;}</style></defs><path
     d="M 12.199999,4.3999999 A 0.59999999,0.59999998 0 0 0 12.8,3.8 0.59999999,0.59999998 0 0 0 12.199999,3.1999999 0.59999999,0.59999998 0 0 0 11.600001,3.8 0.59999999,0.59999998 0 0 0 12.199999,4.3999999 M 12.199999,2 A 1.8,1.8 0 0 1 14,3.8 V 7.3999992 H 11.600001 V 4.9999999 H 4.3999998 V 7.3999992 H 2 V 3.8 A 1.8,1.8 0 0 1 3.7999999,2 h 8.3999991 m -0.599998,9.749999 c 0,0.228 -0.126001,0.426001 -0.318001,0.528 l -2.9400001,1.614 C 8.2399999,13.963989 8.1259998,14 7.9999999,14 7.874,14 7.7539999,13.964 7.6579999,13.891999 L 4.718,12.277999 c -0.192,-0.101999 -0.3180002,-0.3 -0.3180002,-0.528 V 8.5999996 c 0,-0.228 0.1260002,-0.426 0.3180002,-0.5280003 L 7.6579999,6.6079995 c 0.096,-0.071997 0.2160001,-0.1079996 0.342,-0.1079996 0.1259999,0 0.24,0.035999 0.342,0.1079996 L 11.282,8.0719993 c 0.192,0.1020003 0.318001,0.3000003 0.318001,0.5280003 v 3.1499994 m -3.6000011,-3.9599991 -1.776,0.8099997 1.776,0.9599998 L 9.7759998,8.5999996 7.9999999,7.7899999 M 5.6,11.396 7.3999999,12.374001 v -1.776 L 5.6,9.625999 V 11.396 m 4.8,0 V 9.625999 l -1.8,0.972002 v 1.776 z"
     id="path2"
     class="ColorScheme-Text"
     style="fill:currentColor;stroke-width:0.6" /></svg>
