<?xml version="1.0" encoding="UTF-8" standalone="no"?>
<svg
   viewBox="0 0 16 16"
   version="1.1"
   id="svg1"
   sodipodi:docname="folder-kubernetes-symbolic16.svg"
   xml:space="preserve"
   inkscape:version="1.4.2 (ebf0e940d0, 2025-05-08)"
   xmlns:inkscape="http://www.inkscape.org/namespaces/inkscape"
   xmlns:sodipodi="http://sodipodi.sourceforge.net/DTD/sodipodi-0.dtd"
   xmlns="http://www.w3.org/2000/svg"
   xmlns:svg="http://www.w3.org/2000/svg"><sodipodi:namedview
     id="namedview1"
     pagecolor="#505050"
     bordercolor="#ffffff"
     borderopacity="1"
     inkscape:showpageshadow="0"
     inkscape:pageopacity="0"
     inkscape:pagecheckerboard="1"
     inkscape:deskcolor="#505050"
     inkscape:zoom="72.25"
     inkscape:cx="7.9930796"
     inkscape:cy="8"
     inkscape:window-width="2556"
     inkscape:window-height="1364"
     inkscape:window-x="0"
     inkscape:window-y="0"
     inkscape:window-maximized="1"
     inkscape:current-layer="svg1" /><defs
     id="defs3051"><style
       type="text/css"
       id="current-color-scheme">.ColorScheme-Text {color:#fcfcfc;}</style></defs><path
     d="m 7.1018547,9.1471095 0.0035,0.005 L 6.605846,10.358631 A 2.5855455,2.5855455 0 0 1 5.5683276,9.060108 l 1.2890228,-0.2185039 0.002,0.0025 A 0.22000387,0.22000387 0 0 1 7.1013547,9.1471095 Z M 6.6853474,8.0825908 a 0.22000387,0.22000387 0 0 0 0.086501,-0.3780066 l 0.001,-0.0055 L 5.7923315,6.8220686 A 2.5715452,2.5715452 0 0 0 5.4273251,8.4495973 L 6.6843473,8.0870909 Z m 0.57251,-0.9900174 a 0.22000387,0.22000387 0 0 0 0.3495062,-0.168503 l 0.005,-0.0025 0.075001,-1.3100231 A 2.5720452,2.5720452 0 0 0 6.1823385,6.33256 l 1.0735189,0.7615134 0.002,-0.001 z M 7.6378641,8.4675976 7.9993705,8.6421006 8.3603768,8.4685976 8.4503784,8.0785907 8.200374,7.7670853 H 7.7983669 L 7.5483625,8.0785907 7.6378641,8.4680976 Z M 8.3878773,6.9200704 a 0.22000387,0.22000387 0 0 0 0.3500062,0.1680029 l 0.004,0.0015 L 9.8089023,6.33306 A 2.5940456,2.5940456 0 0 0 8.312876,5.6120473 l 0.074001,1.307523 z m 5.4380957,2.9850524 -2.886551,3.5905632 a 0.80001407,0.80001407 0 0 1 -0.624011,0.297005 l -4.6305814,0.0015 A 0.80001407,0.80001407 0 0 1 5.0613187,13.496186 L 2.1732679,9.9061229 A 0.79151392,0.79151392 0 0 1 2.0197652,9.2361111 L 3.0497833,4.7585323 C 3.1037842,4.5235281 3.262287,4.3265247 3.4812909,4.2220228 l 4.1710735,-1.993535 a 0.80301412,0.80301412 0 0 1 0.6925121,0 l 4.1725735,1.992535 c 0.219004,0.1045018 0.377507,0.3020053 0.431507,0.5365094 l 1.031019,4.4775789 c 0.054,0.2350041 -0.0025,0.4815084 -0.154003,0.6700117 z m -1.644529,-1.028518 c -0.021,-0.005 -0.0515,-0.013 -0.0725,-0.017 -0.087,-0.0165 -0.157503,-0.0125 -0.239504,-0.019 -0.175004,-0.0185 -0.319006,-0.033501 -0.447508,-0.074001 -0.0525,-0.02 -0.09,-0.082501 -0.108002,-0.1080019 l -0.100502,-0.0295 a 3.2250567,3.2250567 0 0 0 -0.0525,-1.1660205 3.2325568,3.2325568 0 0 0 -0.468008,-1.081519 c 0.026,-0.0235 0.075,-0.066501 0.0885,-0.079501 0.004,-0.045001 5e-4,-0.091502 0.047,-0.1410025 0.0985,-0.092502 0.222004,-0.1690031 0.371507,-0.2610047 0.071,-0.042001 0.136502,-0.068501 0.207503,-0.1210021 0.016,-0.012 0.038,-0.031001 0.055,-0.044501 0.120002,-0.095502 0.147503,-0.2600046 0.0615,-0.3680065 -0.086,-0.1080019 -0.253004,-0.118002 -0.372506,-0.0225 -0.017,0.0135 -0.04,0.031001 -0.0555,0.044001 -0.067,0.058001 -0.108502,0.115002 -0.165003,0.1750031 -0.123002,0.1250022 -0.225004,0.229004 -0.336506,0.3045054 -0.0485,0.028 -0.119502,0.0185 -0.151503,0.0165 l -0.095,0.067501 A 3.2725575,3.2725575 0 0 0 8.2748753,4.9500356 l -0.006,-0.1115019 c -0.032501,-0.031001 -0.071501,-0.057501 -0.081501,-0.1250022 -0.011,-0.1340024 0.0075,-0.2785049 0.0285,-0.452508 0.0115,-0.081501 0.030501,-0.1490026 0.034001,-0.2375042 5e-4,-0.02 -5e-4,-0.049501 -5e-4,-0.071001 0,-0.1530027 -0.112002,-0.2775049 -0.2500044,-0.2775049 -0.1375024,0 -0.2495044,0.1245022 -0.2495044,0.2775049 l 5e-4,0.007 c 0,0.0205 -0.001,0.046001 0,0.064001 0.003,0.088502 0.022,0.1560028 0.033501,0.2375042 0.021,0.1740031 0.039001,0.3185056 0.028001,0.453008 a 0.27250479,0.27250479 0 0 1 -0.081001,0.1290022 l -0.006,0.1055019 A 3.2120565,3.2120565 0 0 0 5.6418289,5.9500532 4.1865736,4.1865736 0 0 1 5.5518273,5.8860521 c -0.045001,0.006 -0.090002,0.02 -0.1485026,-0.0145 C 5.2918227,5.7965505 5.1898209,5.6925487 5.0668188,5.5675465 5.0103178,5.5075454 4.969317,5.4505444 4.9023159,5.3930434 c -0.015,-0.013 -0.038501,-0.031001 -0.055501,-0.044001 A 0.29700522,0.29700522 0 0 0 4.6728118,5.2830415 0.24050423,0.24050423 0 0 0 4.4738083,5.371043 c -0.086002,0.1080019 -0.058501,0.2730048 0.061501,0.3685065 l 0.0035,0.0025 0.052001,0.041501 c 0.071001,0.052501 0.1360024,0.079501 0.2070036,0.1210021 0.1495027,0.092502 0.2730048,0.169003 0.3715066,0.2610047 0.038001,0.041001 0.045001,0.113002 0.050001,0.1440025 l 0.080001,0.071501 A 3.2310568,3.2310568 0 0 0 4.7893139,8.6341005 l -0.1040018,0.03 c -0.027501,0.036001 -0.066501,0.092002 -0.1075019,0.1085019 -0.1285023,0.040501 -0.2730048,0.055001 -0.4475079,0.073501 -0.082001,0.007 -0.1525027,0.003 -0.2400042,0.0195 -0.0185,0.0035 -0.045001,0.01 -0.066501,0.015 l -0.002,10e-4 -0.0035,0.001 C 3.6707942,8.9181055 3.5762926,9.0536079 3.6067931,9.1866102 3.6372936,9.3201126 3.7812962,9.401114 3.9292988,9.3691134 l 0.0035,-5e-4 0.005,-0.0015 0.064501,-0.0145 c 0.085001,-0.023 0.1470026,-0.056501 0.224004,-0.086002 0.1650029,-0.059001 0.3020053,-0.1085019 0.4350076,-0.1280022 0.056001,-0.0045 0.1150021,0.034501 0.1440026,0.050501 l 0.1085019,-0.0185 a 3.2500571,3.2500571 0 0 0 1.4400254,1.7980318 l -0.045001,0.109001 c 0.0165,0.042 0.034501,0.0995 0.022,0.141003 -0.048501,0.126002 -0.1315023,0.258504 -0.2260039,0.406507 -0.045501,0.068 -0.092502,0.121002 -0.1340025,0.199504 -0.01,0.0185 -0.0225,0.0475 -0.032001,0.067 -0.064001,0.137502 -0.017,0.295505 0.106502,0.355006 0.1240022,0.06 0.2780049,-0.0035 0.3450061,-0.141002 v -10e-4 c 0.01,-0.0195 0.023,-0.045 0.031001,-0.0635 0.035001,-0.081 0.047001,-0.150502 0.072001,-0.229004 0.066001,-0.166003 0.1025018,-0.340006 0.1935034,-0.448508 0.025,-0.03 0.065001,-0.041 0.1075019,-0.0525 l 0.056501,-0.102502 a 3.2265567,3.2265567 0 0 0 2.3045405,0.006 l 0.053001,0.096 c 0.043001,0.014 0.090002,0.021 0.1280023,0.0775 0.068001,0.116002 0.114502,0.253504 0.171003,0.420007 0.025,0.078 0.037001,0.147503 0.072501,0.228504 0.008,0.0185 0.0215,0.045 0.031,0.0645 0.066501,0.138003 0.2210039,0.201004 0.3450061,0.141003 0.1235018,-0.059 0.1705028,-0.217504 0.1065018,-0.355006 -0.01,-0.0195 -0.0225,-0.048 -0.0325,-0.067 -0.041501,-0.078 -0.088501,-0.130503 -0.1340019,-0.199004 -0.095002,-0.148003 -0.173003,-0.270505 -0.2215039,-0.396507 -0.02,-0.065 0.0035,-0.105002 0.019,-0.147003 -0.009,-0.011 -0.029501,-0.072 -0.041501,-0.101001 A 3.2495571,3.2495571 0 0 0 11.091925,9.1656098 c 0.032,0.005 0.088,0.015 0.106502,0.019 0.0375,-0.025 0.072,-0.057001 0.140002,-0.052001 0.133003,0.0195 0.270005,0.069001 0.435008,0.1280022 0.077,0.030001 0.138502,0.064001 0.224004,0.086502 0.018,0.005 0.044,0.0095 0.065,0.014 l 0.0045,0.0015 0.0035,5e-4 c 0.148503,0.032001 0.292005,-0.049001 0.322506,-0.1825032 0.03,-0.1330023 -0.064,-0.2685047 -0.211504,-0.3040053 z M 10.199909,6.8225686 9.224892,7.695584 v 0.0025 a 0.22000387,0.22000387 0 0 0 0.086501,0.3785067 l 0.0015,0.005 1.263022,0.3640064 a 2.5995457,2.5995457 0 0 0 -0.054,-0.8370147 2.6040458,2.6040458 0 0 0 -0.322006,-0.7865139 z M 8.1933739,9.4851155 A 0.21850384,0.21850384 0 0 0 7.9913703,9.3691134 0.22000387,0.22000387 0 0 0 7.8053671,9.4856155 h -10e-4 L 7.1703559,10.631636 a 2.5820454,2.5820454 0 0 0 1.6630292,0.0015 L 8.198374,9.4851155 Z M 9.1373905,8.8386041 a 0.22000387,0.22000387 0 0 0 -0.1350024,0.018 0.22000387,0.22000387 0 0 0 -0.1070019,0.286005 l -0.0015,0.002 0.5050089,1.2190219 A 2.5750453,2.5750453 0 0 0 10.439413,9.0561079 L 9.1393905,8.836104 Z"
     id="path1"
     style="fill:currentColor"
     class="ColorScheme-Text" /></svg>
