<?xml version="1.0" encoding="UTF-8" standalone="no"?>
<svg
   viewBox="0 0 16 16"
   version="1.1"
   id="svg1"
   sodipodi:docname="folder-google-symbolic16.svg"
   xml:space="preserve"
   inkscape:version="1.4.2 (ebf0e940d0, 2025-05-08)"
   xmlns:inkscape="http://www.inkscape.org/namespaces/inkscape"
   xmlns:sodipodi="http://sodipodi.sourceforge.net/DTD/sodipodi-0.dtd"
   xmlns="http://www.w3.org/2000/svg"
   xmlns:svg="http://www.w3.org/2000/svg"><sodipodi:namedview
     id="namedview1"
     pagecolor="#505050"
     bordercolor="#ffffff"
     borderopacity="1"
     inkscape:showpageshadow="0"
     inkscape:pageopacity="0"
     inkscape:pagecheckerboard="1"
     inkscape:deskcolor="#505050"
     inkscape:zoom="72.25"
     inkscape:cx="7.9930796"
     inkscape:cy="8"
     inkscape:window-width="2556"
     inkscape:window-height="1364"
     inkscape:window-x="0"
     inkscape:window-y="0"
     inkscape:window-maximized="1"
     inkscape:current-layer="svg1" /><defs
     id="defs3051"><style
       type="text/css"
       id="current-color-scheme">.ColorScheme-Text {color:#fcfcfc;}</style></defs><path
     d="M 14,8.2606616 C 14,7.8254285 13.961738,7.4093264 13.887605,7.0075727 H 8.1219609 v 2.3698685 h 3.2953371 c -0.107613,0.5715425 -0.380231,1.0761258 -0.781985,1.4778798 l -0.0024,0.0024 c -0.01674,0.01674 -0.03587,0.03587 -0.055,0.05261 -0.119569,0.112395 -0.251096,0.217616 -0.392188,0.310881 -0.0287,0.01913 -0.05978,0.03826 -0.09087,0.05739 -0.01196,0.0072 -0.02631,0.01674 -0.03826,0.02391 -0.01435,0.0096 -0.03109,0.01913 -0.04544,0.0263 -0.353926,0.20566 -0.7652453,0.351535 -1.2267838,0.425668 l 0.00478,0.0024 c -0.2128338,0.03348 -0.4352331,0.05261 -0.6671981,0.05261 -0.2869669,0 -0.5643682,-0.03587 -0.832204,-0.100439 0.00239,-0.0048 0.00239,-0.0072 0.00478,-0.0096 -1.1406935,-0.279793 -2.0781188,-1.107214 -2.5181348,-2.1881229 0,-0.00239 -0.00239,-0.00478 -0.00239,-0.00717 -0.014348,-0.033479 -0.026305,-0.066959 -0.038262,-0.1004384 -0.00239,-0.00478 -0.00478,-0.011957 -0.00717,-0.01674 L 4.6927063,9.2865684 h -0.00717 l 0.00239,-0.00239 0.00478,-0.00239 c -0.011957,-0.035871 -0.01674,-0.074133 -0.028697,-0.110004 -0.00239,0.00239 -0.00478,0.00239 -0.00478,0.00478 C 4.6305301,9.0856915 4.6066162,8.9924273 4.5850937,8.899163 4.5277003,8.648067 4.4966122,8.3874053 4.4966122,8.1195695 c 0,-0.3108808 0.043045,-0.612196 0.1171782,-0.9015544 0.023914,-0.088481 0.047828,-0.1745715 0.076524,-0.2606616 0.00957,-0.026305 0.019131,-0.052611 0.026305,-0.078916 l 0.00717,-0.021522 c 0.00717,-0.019131 0.014348,-0.040654 0.021523,-0.059785 l 0.00717,-0.021522 c 0.00957,-0.021523 0.01674,-0.043045 0.026305,-0.064568 0.00239,-0.00239 0.00239,-0.00717 0.00478,-0.00957 0.023914,-0.055002 0.047828,-0.1076126 0.071742,-0.1602232 0.3467517,-0.7269829 0.923077,-1.3296134 1.6333201,-1.700279 l -0.00239,-0.00239 C 6.9764847,4.5827023 7.528896,4.4368274 8.1147868,4.4368274 c 0.9015544,0 1.7026704,0.3108809 2.3435632,0.9135114 L 12.21124,3.5974492 C 11.156636,2.6074133 9.7744121,2 8.1219609,2 c -2.26943,0 -4.244719,1.2363491 -5.3017138,3.0753288 0,0.00239 -0.00239,0.00239 -0.00239,0.00478 -0.026305,0.045436 -0.052611,0.090873 -0.076525,0.1387007 -0.00478,0.00717 -0.00717,0.014348 -0.011957,0.021523 -0.023914,0.045436 -0.047828,0.090873 -0.071742,0.1387007 C 2.2391391,6.201674 2,7.1319251 2,8.1219609 2,9.1119968 2.2391391,10.042248 2.6576325,10.864886 v 0.0072 c 0.019131,0.03826 0.038262,0.07413 0.057393,0.110004 0.00478,0.01196 0.011957,0.02152 0.01674,0.03109 0.014348,0.0287 0.031088,0.05739 0.045436,0.08609 0.00478,0.0096 0.00957,0.01913 0.01674,0.0287 0.043045,0.07653 0.08609,0.150658 0.1339179,0.224791 0.00239,0.0048 0.00717,0.01196 0.00957,0.01674 0.021522,0.03587 0.045436,0.06935 0.066959,0.105221 0,0.0024 0.00239,0.0024 0.00239,0.0048 0.9039458,1.377441 2.348346,2.367477 4.0318852,2.668792 h 0.00478 c 0.03348,0.0048 0.066959,0.01196 0.1004384,0.01674 0.00478,0 0.00717,0.0024 0.011957,0.0024 l 0.093264,0.01435 c 0.00717,0 0.011957,0.0024 0.019131,0.0024 0.028697,0.0048 0.057393,0.0072 0.088481,0.01196 0.00957,0 0.01674,0.0024 0.026305,0.0024 0.026305,0.0024 0.055002,0.0072 0.081307,0.0096 0.011957,0 0.021522,0.0024 0.033479,0.0024 0.023914,0.0024 0.050219,0.0048 0.074133,0.0072 0.014348,0 0.026305,0.0024 0.040654,0.0024 0.023914,0.0024 0.045436,0.0048 0.06935,0.0048 0.01674,0 0.031088,0.0024 0.047828,0.0024 0.021522,0.0024 0.040654,0.0024 0.062176,0.0048 0.019131,0 0.038262,0.0024 0.055002,0.0024 0.019131,0 0.035871,0.0024 0.055002,0.0024 0.023914,0 0.045436,0.0024 0.06935,0.0024 h 0.1506576 c 0.165006,0 0.3276206,-0.0048 0.4878438,-0.01674 0.1195696,-0.0072 0.2343563,-0.01913 0.3515345,-0.03348 0.045436,-0.0048 0.088481,-0.01196 0.1315265,-0.01674 1.1096056,-0.15544 2.0685536,-0.576325 2.8385816,-1.20287 0.0072,-0.0072 0.01674,-0.01196 0.02391,-0.01913 0.01674,-0.01435 0.03348,-0.0287 0.05022,-0.04065 0.01674,-0.01435 0.03109,-0.02631 0.04783,-0.04065 0.01196,-0.0096 0.02391,-0.02152 0.03587,-0.03109 0.0287,-0.0263 0.05739,-0.05022 0.08609,-0.07652 0.451973,-0.418493 0.829812,-0.913511 1.123953,-1.473096 C 13.751295,10.420088 14,9.3965723 14,8.2606616"
     style="fill:currentColor"
     id="path1"
     class="ColorScheme-Text" /></svg>
