<?xml version="1.0" encoding="UTF-8" standalone="no"?>
<svg
   viewBox="0 0 16 16"
   version="1.1"
   id="svg1"
   sodipodi:docname="folder-api-symbolic16.svg"
   xml:space="preserve"
   inkscape:version="1.4.2 (ebf0e940d0, 2025-05-08)"
   xmlns:inkscape="http://www.inkscape.org/namespaces/inkscape"
   xmlns:sodipodi="http://sodipodi.sourceforge.net/DTD/sodipodi-0.dtd"
   xmlns="http://www.w3.org/2000/svg"
   xmlns:svg="http://www.w3.org/2000/svg"><sodipodi:namedview
     id="namedview1"
     pagecolor="#505050"
     bordercolor="#ffffff"
     borderopacity="1"
     inkscape:showpageshadow="0"
     inkscape:pageopacity="0"
     inkscape:pagecheckerboard="1"
     inkscape:deskcolor="#505050"
     inkscape:zoom="72.25"
     inkscape:cx="7.9930796"
     inkscape:cy="8"
     inkscape:window-width="2556"
     inkscape:window-height="1364"
     inkscape:window-x="0"
     inkscape:window-y="0"
     inkscape:window-maximized="1"
     inkscape:current-layer="svg1" /><defs
     id="defs3051"><style
       type="text/css"
       id="current-color-scheme">.ColorScheme-Text {color:#fcfcfc;}</style></defs><path
     d="M 4.6666667,4.6435986 H 3.3333333 A 1.3333333,1.3333333 0 0 0 2,5.9769319 V 11.310266 H 3.3333333 V 8.6435986 H 4.6666667 V 11.310266 H 6 V 5.9769319 A 1.3333333,1.3333333 0 0 0 4.6666667,4.6435986 m 0,2.6666667 H 3.3333333 V 5.9769319 H 4.6666667 M 9.3333333,4.6435986 H 6.6666667 V 11.310266 H 8 V 8.6435986 H 9.3333333 A 1.3333333,1.3333333 0 0 0 10.666667,7.3102653 V 5.9769319 A 1.3333333,1.3333333 0 0 0 9.3333333,4.6435986 m 0,2.6666667 H 8 V 5.9769319 h 1.3333333 m 3.9999997,0 v 4 H 14 V 11.310266 H 11.333333 V 9.9769319 H 12 v -4 H 11.333333 V 4.6435986 H 14 v 1.3333333 z"
     id="path1-7"
     style="fill:currentColor"
     class="ColorScheme-Text" /></svg>
