<?xml version="1.0" encoding="UTF-8" standalone="no"?>
<svg
   inkscape:version="1.1.2 (0a00cf5339, 2022-02-04)"
   sodipodi:docname="application-vnd.kde.kleopatra.keygroup.svg"
   id="svg35"
   version="1.1"
   height="64"
   viewBox="0 0 64 64"
   width="64"
   xmlns:inkscape="http://www.inkscape.org/namespaces/inkscape"
   xmlns:sodipodi="http://sodipodi.sourceforge.net/DTD/sodipodi-0.dtd"
   xmlns="http://www.w3.org/2000/svg"
   xmlns:svg="http://www.w3.org/2000/svg">
  <sodipodi:namedview
     inkscape:current-layer="svg35"
     showgrid="true"
     id="namedview37"
     inkscape:window-height="1011"
     inkscape:window-width="1920"
     inkscape:pageshadow="2"
     inkscape:pageopacity="0"
     guidetolerance="10"
     gridtolerance="10"
     objecttolerance="10"
     borderopacity="1"
     bordercolor="#666666"
     pagecolor="#ffffff"
     inkscape:pagecheckerboard="0"
     inkscape:zoom="13.744388"
     inkscape:cx="27.429377"
     inkscape:cy="21.645198"
     inkscape:window-x="0"
     inkscape:window-y="0"
     inkscape:window-maximized="1">
    <inkscape:grid
       type="xygrid"
       id="grid837" />
  </sodipodi:namedview>
  <defs
     id="defs17">
    <linearGradient
       gradientTransform="matrix(1 0 0-1 0 64)"
       gradientUnits="userSpaceOnUse"
       x2="0"
       y2="61"
       y1="3"
       id="a">
      <stop
         id="stop2"
         stop-color="#cf000f" />
      <stop
         id="stop4"
         stop-color="#d91e18"
         offset="1" />
    </linearGradient>
    <linearGradient
       gradientTransform="matrix(1 0 0-1 0 64)"
       gradientUnits="userSpaceOnUse"
       x2="0"
       y2="47"
       y1="61"
       id="b">
      <stop
         offset="0"
         stop-color="#fb9fa2"
         id="stop9" />
      <stop
         offset="1"
         stop-color="#fb7d80"
         id="stop7" />
    </linearGradient>
    <linearGradient
       gradientUnits="userSpaceOnUse"
       x2="54"
       y2="31"
       x1="40"
       y1="17"
       id="c">
      <stop
         id="stop12"
         stop-color="#383e51" />
      <stop
         id="stop14"
         stop-opacity="0"
         stop-color="#655c6f"
         offset="1" />
    </linearGradient>
  </defs>
  <path
     id="path19"
     d="m 15,61 c -3,0 -5,-2 -5,-5 V 8 c 0,-3 2,-5 5,-5 h 25 l 14,14 v 39 c 0,3 -2,5 -5,5 h -9 z"
     fill="url(#a)"
     sodipodi:nodetypes="cccccccccc" />
  <g
     id="g25"
     transform="scale(1,-1)" />
  <g
     id="g31"
     fill-rule="evenodd">
    <path
       id="path27"
       d="m54 17l-14-14v14z"
       fill="url(#b)" />
    <path
       id="path29"
       d="m40 17l14 14v-14z"
       fill="url(#c)"
       opacity=".2" />
  </g>
  <path
     id="path33"
     d="m32 19.333c-4.432 0-8 3.568-8 8 0 2.585 1.22 4.869 3.111 6.33v12.337l4.889-3.556 4.889 3.556v-12.337c1.891-1.461 3.111-3.745 3.111-6.33 0-4.432-3.568-8-8-8"
     fill="#fcbcbe" />
  <path
     d="m 40.000005,2.9 h -25 c -2.77,0 -5,2.23 -5,5 v 1.014 a 5.005,5.005 0 0 1 1.46,-3.54 4.989,4.989 0 0 1 3.54,-1.459 h 25 V 3.9 Z"
     id="path24"
     inkscape:connector-curvature="0"
     style="opacity:0.5;fill:#ffffff" />
  <path
     d="M 54,54.9 A 5.004,5.004 0 0 1 52.54,58.438 4.989,4.989 0 0 1 49,59.9 H 15 A 5.005,5.005 0 0 1 11.46,58.44 4.989,4.989 0 0 1 10,54.9 v 1.14 c 0,2.77 2.23,5 5,5 h 34 c 2.77,0 5,-2.23 5,-5 z"
     id="path26"
     inkscape:connector-curvature="0"
     style="opacity:0.25;fill-opacity:0.992" />
</svg>
