<?xml version="1.0" encoding="UTF-8" standalone="no"?>
<svg
   version="1.1"
   viewBox="0 0 64 64"
   id="svg30"
   sodipodi:docname="application-vnd.flatpak.ref.svg"
   inkscape:version="1.1.2 (0a00cf5339, 2022-02-04)"
   xmlns:inkscape="http://www.inkscape.org/namespaces/inkscape"
   xmlns:sodipodi="http://sodipodi.sourceforge.net/DTD/sodipodi-0.dtd"
   xmlns:xlink="http://www.w3.org/1999/xlink"
   xmlns="http://www.w3.org/2000/svg"
   xmlns:svg="http://www.w3.org/2000/svg">
  <sodipodi:namedview
     id="namedview32"
     pagecolor="#ffffff"
     bordercolor="#666666"
     borderopacity="1.0"
     inkscape:pageshadow="2"
     inkscape:pageopacity="0.0"
     inkscape:pagecheckerboard="0"
     showgrid="true"
     inkscape:zoom="9.71875"
     inkscape:cx="32"
     inkscape:cy="31.948553"
     inkscape:window-width="1920"
     inkscape:window-height="1011"
     inkscape:window-x="0"
     inkscape:window-y="0"
     inkscape:window-maximized="1"
     inkscape:current-layer="svg30">
    <inkscape:grid
       type="xygrid"
       id="grid849" />
  </sodipodi:namedview>
  <defs
     id="defs13">
    <linearGradient
       id="a"
       x1="40"
       x2="54"
       y1="17"
       y2="31"
       gradientTransform="translate(238,78.36)"
       gradientUnits="userSpaceOnUse">
      <stop
         stop-color="#060606"
         offset="0"
         id="stop2" />
      <stop
         stop-opacity="0"
         offset="1"
         id="stop4" />
    </linearGradient>
    <linearGradient
       id="b"
       x2="0"
       y1="392.36"
       y2="336.36"
       gradientTransform="translate(190,-254)"
       gradientUnits="userSpaceOnUse">
      <stop
         stop-color="#fff"
         stop-opacity="0"
         offset="0"
         id="stop7" />
      <stop
         stop-color="#fff"
         stop-opacity=".2"
         offset="1"
         id="stop9" />
    </linearGradient>
    <path
       id="c"
       d="m248 139.36v-58h30l14 14v44h-14z" />
    <linearGradient
       gradientTransform="translate(1.8096766e-5,-0.015)"
       id="b-1"
       y1="17.475"
       y2="31"
       x1="41.616001"
       x2="54"
       gradientUnits="userSpaceOnUse">
      <stop
         stop-color="#060606"
         id="stop8" />
      <stop
         offset="1"
         stop-opacity="0"
         id="stop10" />
    </linearGradient>
    <linearGradient
       xlink:href="#a-2"
       id="c-7"
       gradientUnits="userSpaceOnUse"
       x1="0"
       y1="60.773998"
       x2="0"
       y2="2.345" />
    <linearGradient
       id="a-2"
       y1="392.35999"
       y2="336.35999"
       x2="0"
       gradientUnits="userSpaceOnUse"
       gradientTransform="translate(254,-254)">
      <stop
         stop-color="#fff"
         stop-opacity="0"
         id="stop3" />
      <stop
         offset="1"
         stop-color="#fff"
         stop-opacity=".2"
         id="stop5" />
    </linearGradient>
  </defs>
  <path
     style="fill:#ffffff;fill-opacity:0.7"
     d="M 32,22.9 31.74,23.1 23,27 v 12 l 9,4 9,-4 V 27 Z m 0,1.17 v 5.3 L 31.5,29.7 24,27.56 Z m 8,4 V 38.4 l -8,3.4 V 30.6 Z"
     id="path28" />
  <path
     d="m 40.000018,2.985 h -25 c -2.77,0 -5,2.23 -5,5 v 48 c 0,2.77 2.23,5 5,5 h 34 c 2.77,0 5,-2.23 5,-5 v -39 z"
     id="path15"
     inkscape:connector-curvature="0"
     style="fill:#209ae7" />
  <path
     d="m 40.000018,2.985 h -25 c -2.77,0 -5,2.23 -5,5 v 1.014 a 5.005,5.005 0 0 1 1.46,-3.54 4.989,4.989 0 0 1 3.54,-1.459 h 25 V 3.985 Z"
     id="path17"
     inkscape:connector-curvature="0"
     style="opacity:0.5;fill:#ffffff" />
  <path
     d="m 54.000018,54.845 a 5.004,5.004 0 0 1 -1.46,3.538 4.989,4.989 0 0 1 -3.54,1.462 h -34 a 5.005,5.005 0 0 1 -3.54,-1.46 4.989,4.989 0 0 1 -1.46,-3.54 v 1.14 c 0,2.77 2.23,5 5,5 h 34 c 2.77,0 5,-2.23 5,-5 z"
     id="path19"
     inkscape:connector-curvature="0"
     style="opacity:0.25;fill-opacity:0.992" />
  <path
     d="M 40.000018,2.985 V 14.52 a 2.456,2.456 0 0 0 2.465,2.465 h 11.535 z"
     id="path21"
     inkscape:connector-curvature="0"
     style="opacity:0.5;fill:#ffffff;fill-rule:evenodd" />
  <path
     d="m 40.730018,16.268 13.27,14.717 v -14 h -11.535 c -0.68,0 -1.29,-0.276 -1.735,-0.717 z"
     id="path23"
     style="opacity:0.2;fill:url(#b-1);fill-rule:evenodd"
     inkscape:connector-curvature="0" />
  <path
     d="M 40,3 H 15 c -2.77,0 -5,2.23 -5,5 v 48 c 0,2.77 2.23,5 5,5 h 34 c 2.77,0 5,-2.23 5,-5 V 17 Z"
     id="path27"
     style="fill:url(#c-7)"
     inkscape:connector-curvature="0" />
  <path
     style="fill:#ffffff;fill-opacity:0.7"
     d="M 31,23 30.74,23.2 22,27.1 v 12 l 9,4 9,-4 v -12 z m 0,1.17 v 5.3 L 30.5,29.8 23,27.66 Z m 8,4 V 38.5 l -8,3.4 V 30.7 Z"
     id="path28-8-7" />
</svg>
