<?xml version="1.0" encoding="UTF-8" standalone="no"?>
<svg
   width="32"
   height="32"
   version="1.1"
   id="svg33"
   sodipodi:docname="application-x-iso9660-appimage.svg"
   inkscape:version="1.1.1 (3bf5ae0d25, 2021-09-20)"
   xmlns:inkscape="http://www.inkscape.org/namespaces/inkscape"
   xmlns:sodipodi="http://sodipodi.sourceforge.net/DTD/sodipodi-0.dtd"
   xmlns:xlink="http://www.w3.org/1999/xlink"
   xmlns="http://www.w3.org/2000/svg"
   xmlns:svg="http://www.w3.org/2000/svg">
  <sodipodi:namedview
     id="namedview35"
     pagecolor="#ffffff"
     bordercolor="#666666"
     borderopacity="1.0"
     inkscape:pageshadow="2"
     inkscape:pageopacity="0.0"
     inkscape:pagecheckerboard="0"
     showgrid="false"
     inkscape:zoom="19.625"
     inkscape:cx="16"
     inkscape:cy="16"
     inkscape:window-width="1920"
     inkscape:window-height="1007"
     inkscape:window-x="0"
     inkscape:window-y="0"
     inkscape:window-maximized="1"
     inkscape:current-layer="svg33" />
  <defs
     id="defs13">
    <linearGradient
       id="c"
       y1="17"
       y2="24"
       x1="47"
       x2="54"
       gradientUnits="userSpaceOnUse"
       gradientTransform="translate(-27 -8)">
      <stop
         stop-color="#060606"
         id="stop2" />
      <stop
         offset="1"
         stop-opacity="0"
         id="stop4" />
    </linearGradient>
    <linearGradient
       xlink:href="#a"
       id="b"
       x1="5"
       y1="30"
       x2="5"
       y2="2"
       gradientUnits="userSpaceOnUse"
       gradientTransform="translate(-20)" />
    <linearGradient
       id="a"
       y1="392.36"
       y2="365.36"
       x2="0"
       gradientUnits="userSpaceOnUse"
       gradientTransform="translate(309.57 152.44)">
      <stop
         stop-color="#fff"
         stop-opacity="0"
         id="stop8" />
      <stop
         offset="1"
         stop-color="#fff"
         stop-opacity=".2"
         id="stop10" />
    </linearGradient>
  </defs>
  <path
     d="M20 2H8C6.338 2 5 3.338 5 5v22c0 1.662 1.338 3 3 3h16c1.662 0 3-1.338 3-3V9z"
     fill="#209ae7"
     id="path15" />
  <path
     style="marker:none"
     d="m 15.185748,12.371842 v 1.8 h -0.956 l 1.856,2.1 1.856,-2.1 h -0.956 v -1.8 z"
     overflow="visible"
     fill="#ffffff"
     fill-opacity="0.75"
     id="path17" />
  <rect
     y="11.633842"
     x="10.557748"
     ry="0.63300002"
     rx="0.63300002"
     height="11.055"
     width="11.055"
     fill="none"
     stroke="#ffffff"
     stroke-width="0.945"
     stroke-linecap="round"
     stroke-linejoin="round"
     stroke-opacity="0.75"
     id="rect19" />
  <path
     d="m 15.757748,16.571842 c -0.052,0 -0.084,0.088 -0.084,0.197 v 0.684 a 1.87,1.87 0 0 0 -0.582,0.244 l -0.487,-0.488 c -0.077,-0.076 -0.16,-0.111 -0.197,-0.075 l -0.46,0.46 c -0.036,0.036 -0.001,0.12 0.076,0.196 l 0.487,0.488 a 1.87,1.87 0 0 0 -0.244,0.581 h -0.684 c -0.109,0 -0.197,0.033 -0.197,0.085 v 0.656 c 0,0.052 0.088,0.084 0.197,0.084 h 0.684 c 0.048,0.21 0.133,0.406 0.244,0.582 l -0.487,0.487 c -0.077,0.077 -0.112,0.16 -0.075,0.197 l 0.459,0.46 c 0.037,0.036 0.12,10e-4 0.197,-0.076 l 0.487,-0.487 c 0.176,0.11 0.373,0.196 0.582,0.244 v 0.684 c 0,0.108 0.032,0.197 0.084,0.197 h 0.656 c 0.052,0 0.085,-0.089 0.085,-0.197 v -0.684 a 1.87,1.87 0 0 0 0.58,-0.244 l 0.488,0.487 c 0.077,0.077 0.16,0.112 0.197,0.075 l 0.46,-0.46 c 0.036,-0.036 0.001,-0.12 -0.075,-0.196 l -0.488,-0.487 a 1.87,1.87 0 0 0 0.244,-0.582 h 0.684 c 0.109,0 0.197,-0.032 0.197,-0.084 v -0.656 c 0,-0.052 -0.088,-0.085 -0.197,-0.085 h -0.684 a 1.87,1.87 0 0 0 -0.244,-0.581 l 0.487,-0.488 c 0.077,-0.076 0.112,-0.16 0.075,-0.196 l -0.459,-0.46 c -0.037,-0.036 -0.12,-0.001 -0.197,0.075 l -0.487,0.488 a 1.87,1.87 0 0 0 -0.582,-0.244 v -0.684 c 0,-0.109 -0.032,-0.197 -0.084,-0.197 z m 0.328,1.865 c 0.459,0 0.834,0.376 0.834,0.835 a 0.837,0.837 0 0 1 -0.834,0.834 0.837,0.837 0 0 1 -0.834,-0.834 c 0,-0.459 0.375,-0.835 0.834,-0.835 z"
     style="marker:none"
     overflow="visible"
     fill="#ffffff"
     fill-opacity="0.75"
     id="path21" />
  <path
     d="M8 2a2.99 2.99 0 00-2.123.877c-.031.031-.02.09-.05.123H20V2z"
     color="#000"
     opacity=".5"
     fill="#fff"
     id="path23" />
  <path
     d="M5.826 29c.03.033.02.092.051.123A2.99 2.99 0 008 30h16a2.99 2.99 0 002.123-.877c.031-.031.02-.09.05-.123z"
     color="#000"
     opacity=".25"
     id="path25" />
  <path
     d="M 20,2 H 7.9999995 c -1.662,0 -3,1.338 -3,3 v 22 c 0,1.662 1.338,3 3,3 H 24 c 1.662,0 3,-1.338 3,-3 V 9 Z"
     opacity="0.4"
     fill="url(#b)"
     id="path27"
     style="fill:url(#b)" />
  <path
     d="M27 9l-7-7v7z"
     color="#000"
     opacity=".5"
     fill="#fff"
     fill-rule="evenodd"
     id="path29" />
  <path
     d="M20 9l7 7V9z"
     opacity=".2"
     fill="url(#c)"
     fill-rule="evenodd"
     id="path31" />
</svg>
