<?xml version="1.0" encoding="UTF-8" standalone="no"?>
<svg
   width="32"
   height="32"
   version="1.1"
   id="svg30"
   sodipodi:docname="application-x-plasma.svg"
   inkscape:version="1.1.1 (3bf5ae0d25, 2021-09-20)"
   xmlns:inkscape="http://www.inkscape.org/namespaces/inkscape"
   xmlns:sodipodi="http://sodipodi.sourceforge.net/DTD/sodipodi-0.dtd"
   xmlns:xlink="http://www.w3.org/1999/xlink"
   xmlns="http://www.w3.org/2000/svg"
   xmlns:svg="http://www.w3.org/2000/svg">
  <sodipodi:namedview
     id="namedview32"
     pagecolor="#ffffff"
     bordercolor="#666666"
     borderopacity="1.0"
     inkscape:pageshadow="2"
     inkscape:pageopacity="0.0"
     inkscape:pagecheckerboard="0"
     showgrid="false"
     inkscape:zoom="19.625"
     inkscape:cx="16"
     inkscape:cy="16"
     inkscape:window-width="1920"
     inkscape:window-height="1007"
     inkscape:window-x="0"
     inkscape:window-y="0"
     inkscape:window-maximized="1"
     inkscape:current-layer="svg30" />
  <defs
     id="defs14">
    <linearGradient
       id="a">
      <stop
         stop-color="#383e51"
         id="stop2" />
      <stop
         offset="1"
         stop-color="#655c6f"
         stop-opacity="0"
         id="stop4" />
    </linearGradient>
    <linearGradient
       xlink:href="#a"
       id="d"
       y1="31"
       x1="54"
       y2="16.5"
       x2="39.5"
       gradientUnits="userSpaceOnUse"
       gradientTransform="matrix(0 -.48276 -.48276 0 419.537 550.867)" />
    <linearGradient
       xlink:href="#b"
       id="c"
       x1="5"
       y1="30"
       x2="5"
       y2="2"
       gradientUnits="userSpaceOnUse"
       gradientTransform="translate(-20)" />
    <linearGradient
       id="b"
       y1="392.36"
       y2="365.36"
       x2="0"
       gradientUnits="userSpaceOnUse"
       gradientTransform="translate(309.57 152.44)">
      <stop
         stop-color="#fff"
         stop-opacity="0"
         id="stop9" />
      <stop
         offset="1"
         stop-color="#fff"
         stop-opacity=".2"
         id="stop11" />
    </linearGradient>
  </defs>
  <path
     d="M20 2H8C6.338 2 5 3.338 5 5v22c0 1.662 1.338 3 3 3h16c1.662 0 3-1.338 3-3V9z"
     fill="#8542c2"
     id="path16" />
  <path
     d="M8 2a2.99 2.99 0 00-2.123.877c-.031.031-.02.09-.05.123H20V2z"
     color="#000"
     opacity=".5"
     fill="#fff"
     id="path18" />
  <path
     d="M5.826 29c.03.033.02.092.051.123A2.99 2.99 0 008 30h16a2.99 2.99 0 002.123-.877c.031-.031.02-.09.05-.123z"
     color="#000"
     opacity=".25"
     id="path20" />
  <path
     d="M 20,2 H 7.9999997 c -1.662,0 -3,1.338 -3,3 v 22 c 0,1.662 1.338,3 3,3 H 24 c 1.662,0 3,-1.338 3,-3 V 9 Z"
     opacity="0.4"
     fill="url(#c)"
     id="path22"
     style="fill:url(#c)" />
  <path
     d="M27 9l-7-7v7z"
     fill-rule="evenodd"
     opacity=".7"
     id="path24" />
  <path
     d="M411.571 531.798l-7-7h7z"
     opacity=".2"
     fill="url(#d)"
     fill-rule="evenodd"
     transform="translate(-384.571 -515.798)"
     id="path26" />
  <path
     style="line-height:normal;-inkscape-font-specification:Sans;text-indent:0;text-align:start;text-decoration-line:none;text-transform:none;marker:none"
     d="m 13.012885,11.794457 a 1,1 0 0 0 -1,1 1,1 0 0 0 1,1 1,1 0 0 0 1,-1 1,1 0 0 0 -1,-1 z m 5,0 -1.938,1.563 2.594,3.218 -2.437,2.438 1.781,1.781 4,-4 z m -6.5,4 a 1.5,1.5 0 0 0 -1.5,1.5 1.5,1.5 0 0 0 1.5,1.5 1.5,1.5 0 0 0 1.5,-1.5 1.5,1.5 0 0 0 -1.5,-1.5 z m 3,5 a 1.5,1.5 0 0 0 -1.5,1.5 1.5,1.5 0 0 0 1.5,1.5 1.5,1.5 0 0 0 1.5,-1.5 1.5,1.5 0 0 0 -1.5,-1.5 z"
     color="#000000"
     font-weight="400"
     font-family="Sans"
     overflow="visible"
     opacity="0.7"
     id="path28" />
</svg>
