<?xml version="1.0" encoding="UTF-8" standalone="no"?>
<svg
   xmlns:dc="http://purl.org/dc/elements/1.1/"
   xmlns:cc="http://creativecommons.org/ns#"
   xmlns:rdf="http://www.w3.org/1999/02/22-rdf-syntax-ns#"
   xmlns:svg="http://www.w3.org/2000/svg"
   xmlns="http://www.w3.org/2000/svg"
   xmlns:xlink="http://www.w3.org/1999/xlink"
   xmlns:sodipodi="http://sodipodi.sourceforge.net/DTD/sodipodi-0.dtd"
   xmlns:inkscape="http://www.inkscape.org/namespaces/inkscape"
   viewBox="0 0 32 32"
   version="1.1"
   id="svg34"
   sodipodi:docname="application-vnd.apple.pkpass.svg"
   inkscape:version="0.92.5 (2060ec1f9f, 2020-04-08)">
  <metadata
     id="metadata38">
    <rdf:RDF>
      <cc:Work
         rdf:about="">
        <dc:format>image/svg+xml</dc:format>
        <dc:type
           rdf:resource="http://purl.org/dc/dcmitype/StillImage" />
        <dc:title></dc:title>
      </cc:Work>
    </rdf:RDF>
  </metadata>
  <sodipodi:namedview
     pagecolor="#ffffff"
     bordercolor="#666666"
     borderopacity="1"
     objecttolerance="10"
     gridtolerance="10"
     guidetolerance="10"
     inkscape:pageopacity="0"
     inkscape:pageshadow="2"
     inkscape:window-width="1085"
     inkscape:window-height="480"
     id="namedview36"
     showgrid="false"
     inkscape:zoom="7.375"
     inkscape:cx="1.4237288"
     inkscape:cy="16"
     inkscape:window-x="0"
     inkscape:window-y="25"
     inkscape:window-maximized="0"
     inkscape:current-layer="svg34" />
  <defs
     id="defs18">
    <linearGradient
       gradientTransform="matrix(.5 0 0 -.48276 10 31.45)"
       gradientUnits="userSpaceOnUse"
       x2="0"
       y2="3"
       y1="61"
       id="a">
      <stop
         offset="0"
         stop-color="#19b5fe"
         id="stop2" />
      <stop
         stop-color="#22a7f0"
         offset="1"
         id="stop4" />
    </linearGradient>
    <linearGradient
       id="d"
       y1="524.8"
       x1="404.57"
       y2="531.8"
       x2="411.57"
       gradientUnits="userSpaceOnUse"
       gradientTransform="translate(-384.57,-515.8)">
      <stop
         stop-color="#383e51"
         id="stop7" />
      <stop
         offset="1"
         stop-color="#655c6f"
         stop-opacity="0"
         id="stop9" />
    </linearGradient>
    <linearGradient
       xlink:href="#b"
       id="c"
       x1="5"
       y1="30"
       x2="5"
       y2="2"
       gradientUnits="userSpaceOnUse"
       gradientTransform="translate(-20)" />
    <linearGradient
       id="b"
       y1="392.36"
       y2="365.36"
       x2="0"
       gradientUnits="userSpaceOnUse"
       gradientTransform="translate(309.57 152.44)">
      <stop
         stop-color="#fff"
         stop-opacity="0"
         id="stop13" />
      <stop
         offset="1"
         stop-color="#fff"
         stop-opacity=".2"
         id="stop15" />
    </linearGradient>
  </defs>
  <path
     d="M 20,2 H 8 C 6.338,2 5,3.338 5,5 v 22 c 0,1.662 1.338,3 3,3 h 16 c 1.662,0 3,-1.338 3,-3 V 9 Z"
     id="path20"
     inkscape:connector-curvature="0"
     style="fill:#209ae7" />
  <path
     d="M 8,2 A 2.99,2.99 0 0 0 5.877,2.877 C 5.846,2.908 5.857,2.967 5.827,3 H 20 V 2 Z"
     id="path22"
     inkscape:connector-curvature="0"
     style="color:#000000;opacity:0.5;fill:#ffffff" />
  <path
     d="m 5.826,29 c 0.03,0.033 0.02,0.092 0.051,0.123 A 2.99,2.99 0 0 0 8,30 h 16 a 2.99,2.99 0 0 0 2.123,-0.877 c 0.031,-0.031 0.02,-0.09 0.05,-0.123 z"
     id="path24"
     inkscape:connector-curvature="0"
     style="color:#000000;opacity:0.25" />
  <path
     class="ColorScheme-Text"
     d="m 10,12 v 3 H 9 v 7 c 0,0.554 0.448,0.958 1,1 h 12 v -7 c 0,-0.554 -0.446,-1 -1,-1 h -2 v -3 z m 1,1 h 7 v 2 H 16.492 A 2.5,2.5 0 0 0 14.5,14 2.5,2.5 0 0 0 12.502,15 H 11 Z m -1,3 h 11 v 1 h -4 c -1.108,0 -2,0.892 -2,2 0,1.108 0.892,2 2,2 h 4 v 1 H 10 Z m 8,2 a 1,1 0 1 1 0,2 1,1 0 0 1 0,-2 z"
     id="path26"
     inkscape:connector-curvature="0"
     style="opacity:0.75;fill:#ffffff;fill-opacity:0.94100001" />
  <path
     d="M 20,2 H 8 C 6.338,2 5,3.338 5,5 v 22 c 0,1.662 1.338,3 3,3 h 16 c 1.662,0 3,-1.338 3,-3 V 9 Z"
     id="path28"
     style="opacity:0.4;fill:url(#c)"
     inkscape:connector-curvature="0" />
  <path
     d="M 27,9 20,2 v 7 z"
     id="path30"
     inkscape:connector-curvature="0"
     style="color:#000000;opacity:0.5;fill:#ffffff;fill-rule:evenodd" />
  <path
     d="M 27,16 20,9 h 7 z"
     id="path32"
     style="opacity:0.2;fill:url(#d);fill-rule:evenodd"
     inkscape:connector-curvature="0" />
</svg>
