<?xml version="1.0" encoding="UTF-8" standalone="no"?>
<svg
   viewBox="0 0 32 32"
   version="1.1"
   id="svg35"
   sodipodi:docname="application-pgp-keys.svg"
   inkscape:version="1.1.1 (3bf5ae0d25, 2021-09-20)"
   xmlns:inkscape="http://www.inkscape.org/namespaces/inkscape"
   xmlns:sodipodi="http://sodipodi.sourceforge.net/DTD/sodipodi-0.dtd"
   xmlns:xlink="http://www.w3.org/1999/xlink"
   xmlns="http://www.w3.org/2000/svg"
   xmlns:svg="http://www.w3.org/2000/svg">
  <sodipodi:namedview
     id="namedview37"
     pagecolor="#ffffff"
     bordercolor="#666666"
     borderopacity="1.0"
     inkscape:pageshadow="2"
     inkscape:pageopacity="0.0"
     inkscape:pagecheckerboard="0"
     showgrid="false"
     inkscape:zoom="19.625"
     inkscape:cx="14.471338"
     inkscape:cy="16"
     inkscape:window-width="1920"
     inkscape:window-height="1007"
     inkscape:window-x="0"
     inkscape:window-y="0"
     inkscape:window-maximized="1"
     inkscape:current-layer="svg35" />
  <defs
     id="defs13">
    <linearGradient
       id="c"
       y1="9"
       x1="20"
       y2="16"
       x2="27"
       gradientUnits="userSpaceOnUse">
      <stop
         stop-color="#383e51"
         id="stop2" />
      <stop
         offset="1"
         stop-color="#655c6f"
         stop-opacity="0"
         id="stop4" />
    </linearGradient>
    <linearGradient
       xlink:href="#a"
       id="b"
       x1="5"
       y1="30"
       x2="5"
       y2="2"
       gradientUnits="userSpaceOnUse"
       gradientTransform="translate(-20)" />
    <linearGradient
       id="a"
       y1="392.36"
       y2="365.36"
       x2="0"
       gradientUnits="userSpaceOnUse"
       gradientTransform="translate(309.57 152.44)">
      <stop
         stop-color="#fff"
         stop-opacity="0"
         id="stop8" />
      <stop
         offset="1"
         stop-color="#fff"
         stop-opacity=".2"
         id="stop10" />
    </linearGradient>
  </defs>
  <path
     d="M20 2H8C6.338 2 5 3.338 5 5v22c0 1.662 1.338 3 3 3h16c1.662 0 3-1.338 3-3V9z"
     fill="#51db51"
     id="path15" />
  <path
     d="M8 2a2.99 2.99 0 00-2.123.877c-.031.031-.02.09-.05.123H20V2z"
     color="#000"
     opacity=".5"
     fill="#fff"
     id="path17" />
  <path
     d="M5.826 29c.03.033.02.092.051.123A2.99 2.99 0 008 30h16a2.99 2.99 0 002.123-.877c.031-.031.02-.09.05-.123z"
     color="#000"
     opacity=".25"
     id="path19" />
  <path
     d="M 20,2 H 7.9999994 c -1.662,0 -3,1.338 -3,3 v 22 c 0,1.662 1.338,3 3,3 H 24 c 1.662,0 3,-1.338 3,-3 V 9 Z"
     opacity="0.4"
     fill="url(#b)"
     id="path21"
     style="fill:url(#b)" />
  <g
     fill-rule="evenodd"
     id="g27">
    <path
       opacity=".5"
       fill="#fff"
       d="M27 9l-7-7v7z"
       id="path23" />
    <path
       opacity=".2"
       fill="url(#c)"
       d="M27 16l-7-7h7z"
       id="path25" />
  </g>
  <g
     fill="#fff"
     id="g33">
    <path
       opacity="0.75"
       d="m 18.634685,11.855437 a 3.925,3.925 0 0 0 -3.926,3.924 3.9,3.9 0 0 0 0.365,1.646 l -0.672,0.795 -0.059,0.746 c -0.006,0.006 -0.73,0.025 -0.73,0.025 l -0.373,0.271 c 0,0 0.003,0.812 0,0.801 l -0.002,0.002 -0.799,0.014 -0.338,0.385 -0.008,0.729 c 0,0 -0.688,-0.043 -0.758,0.021 -0.441,0.406 -0.738,0.695 -0.738,0.695 l 0.004,1.908 0.373,-0.002 5.084,-5.082 c 0.305,0.266 0.658,0.471 1.035,0.633 0.475,0.205 0.991,0.334 1.541,0.334 a 3.925,3.925 0 0 0 3.928,-3.922 3.926,3.926 0 0 0 -3.928,-3.924 m 0.75,1.869 a 1.309,1.309 0 1 1 0,2.618 1.309,1.309 0 0 1 0,-2.618"
       id="path29" />
    <path
       opacity="0.5"
       d="m 19.384685,13.723437 a 1.309,1.309 0 1 0 0,2.618 1.309,1.309 0 0 0 0,-2.618 m 0,0.748 a 0.561,0.561 0 1 1 0,1.122 0.561,0.561 0 0 1 0,-1.122 m -3.326,4.262 -5.086,5.084 h 1.869 l 4.439,-4.361 a 3.926,3.926 0 0 1 -1.223,-0.723"
       id="path31" />
  </g>
</svg>
