<?xml version="1.0" encoding="UTF-8" standalone="no"?>
<svg
   xmlns:dc="http://purl.org/dc/elements/1.1/"
   xmlns:cc="http://creativecommons.org/ns#"
   xmlns:rdf="http://www.w3.org/1999/02/22-rdf-syntax-ns#"
   xmlns:svg="http://www.w3.org/2000/svg"
   xmlns="http://www.w3.org/2000/svg"
   xmlns:xlink="http://www.w3.org/1999/xlink"
   xmlns:sodipodi="http://sodipodi.sourceforge.net/DTD/sodipodi-0.dtd"
   xmlns:inkscape="http://www.inkscape.org/namespaces/inkscape"
   width="32"
   height="32"
   version="1.1"
   id="svg46"
   sodipodi:docname="application-x-labplot2.svg"
   inkscape:version="0.92.5 (2060ec1f9f, 2020-04-08)">
  <metadata
     id="metadata50">
    <rdf:RDF>
      <cc:Work
         rdf:about="">
        <dc:format>image/svg+xml</dc:format>
        <dc:type
           rdf:resource="http://purl.org/dc/dcmitype/StillImage" />
        <dc:title></dc:title>
      </cc:Work>
    </rdf:RDF>
  </metadata>
  <sodipodi:namedview
     pagecolor="#ffffff"
     bordercolor="#666666"
     borderopacity="1"
     objecttolerance="10"
     gridtolerance="10"
     guidetolerance="10"
     inkscape:pageopacity="0"
     inkscape:pageshadow="2"
     inkscape:window-width="1085"
     inkscape:window-height="480"
     id="namedview48"
     showgrid="false"
     inkscape:zoom="7.375"
     inkscape:cx="1.4237288"
     inkscape:cy="16"
     inkscape:window-x="0"
     inkscape:window-y="25"
     inkscape:window-maximized="0"
     inkscape:current-layer="svg46" />
  <defs
     id="defs18">
    <linearGradient
       id="c"
       y1="524.8"
       x1="404.57"
       y2="531.8"
       x2="411.57"
       gradientUnits="userSpaceOnUse"
       gradientTransform="translate(-384.57,-515.8)">
      <stop
         stop-color="#383e51"
         id="stop2" />
      <stop
         offset="1"
         stop-color="#655c6f"
         stop-opacity="0"
         id="stop4" />
    </linearGradient>
    <linearGradient
       xlink:href="#a"
       id="d"
       x1="5"
       y1="30"
       x2="5"
       y2="2"
       gradientUnits="userSpaceOnUse"
       gradientTransform="translate(-20)" />
    <linearGradient
       id="a"
       y1="392.36"
       y2="365.36"
       x2="0"
       gradientUnits="userSpaceOnUse"
       gradientTransform="translate(309.57 152.44)">
      <stop
         stop-color="#fff"
         stop-opacity="0"
         id="stop8" />
      <stop
         offset="1"
         stop-color="#fff"
         stop-opacity=".2"
         id="stop10" />
    </linearGradient>
    <linearGradient
       id="b"
       y1="392.36"
       y2="336.36"
       x2="0"
       gradientUnits="userSpaceOnUse"
       gradientTransform="translate(254 -254)">
      <stop
         stop-color="#fff"
         stop-opacity="0"
         id="stop13" />
      <stop
         offset="1"
         stop-color="#fff"
         stop-opacity=".2"
         id="stop15" />
    </linearGradient>
  </defs>
  <path
     d="M 20,2 H 8 C 6.338,2 5,3.338 5,5 v 22 c 0,1.662 1.338,3 3,3 h 16 c 1.662,0 3,-1.338 3,-3 V 9 Z"
     id="path20"
     inkscape:connector-curvature="0"
     style="fill:#555555" />
  <path
     d="M 8,2 A 2.99,2.99 0 0 0 5.877,2.877 C 5.846,2.908 5.857,2.967 5.827,3 H 20 V 2 Z"
     id="path22"
     inkscape:connector-curvature="0"
     style="color:#000000;opacity:0.5;fill:#ffffff" />
  <path
     d="m 5.826,29 c 0.03,0.033 0.02,0.092 0.051,0.123 A 2.99,2.99 0 0 0 8,30 h 16 a 2.99,2.99 0 0 0 2.123,-0.877 c 0.031,-0.031 0.02,-0.09 0.05,-0.123 z"
     id="path24"
     inkscape:connector-curvature="0"
     style="color:#000000;opacity:0.25" />
  <path
     d="M 27,9 20,2 v 7 z"
     id="path26"
     inkscape:connector-curvature="0"
     style="opacity:0.5;fill:#1f1f1f;fill-rule:evenodd" />
  <path
     d="M 27,16 20,9 h 7 z"
     id="path28"
     style="opacity:0.2;fill:url(#c);fill-rule:evenodd"
     inkscape:connector-curvature="0" />
  <path
     d="m 8.667,18.009 c 4.695,0 5.564,5.974 7.635,5.993 2.071,0.016 3.005,-6.007 7.698,-6.007"
     id="path30"
     inkscape:connector-curvature="0"
     style="fill:none;stroke:#1d99f3;stroke-width:0.667" />
  <path
     d="m 8.667,17.363 c 4.695,0 5.65,-4.067 7.656,-4.063 1.994,0.005 2.984,4.695 7.677,4.695"
     id="path32"
     inkscape:connector-curvature="0"
     style="fill:none;stroke:#da4453;stroke-width:0.667" />
  <path
     d="m 8.667,17.363 c 4.695,0 4.98,-6.676 7.646,-6.676 2.667,0 2.994,7.307 7.687,7.307"
     id="path34"
     inkscape:connector-curvature="0"
     style="fill:none;stroke:#d6d6d6;stroke-width:0.667" />
  <g
     id="g42"
     style="fill:#d6d6d6">
    <path
       d="M 8,10.333 H 8.667 V 25.667 H 8 Z"
       id="path36"
       inkscape:connector-curvature="0"
       style="color:#000000" />
    <path
       d="m 8,17.667 h 16 v 0.666 H 8 Z"
       id="path38"
       inkscape:connector-curvature="0" />
    <path
       d="m 12,17 h 0.667 v 2 H 12 Z m 4,0 h 0.667 v 2 H 16 Z m 4,0 h 0.667 v 2 H 20 Z"
       id="path40"
       inkscape:connector-curvature="0" />
  </g>
  <path
     d="M 20,2 H 8 C 6.338,2 5,3.338 5,5 v 22 c 0,1.662 1.338,3 3,3 h 16 c 1.662,0 3,-1.338 3,-3 V 9 Z"
     id="path44"
     style="opacity:0.4;fill:url(#d)"
     inkscape:connector-curvature="0" />
</svg>
