<?xml version="1.0" encoding="UTF-8" standalone="no"?>
<svg
   width="32"
   height="32"
   version="1.1"
   id="svg31"
   sodipodi:docname="application-wps-office.pot.svg"
   inkscape:version="1.1.1 (3bf5ae0d25, 2021-09-20)"
   xmlns:inkscape="http://www.inkscape.org/namespaces/inkscape"
   xmlns:sodipodi="http://sodipodi.sourceforge.net/DTD/sodipodi-0.dtd"
   xmlns:xlink="http://www.w3.org/1999/xlink"
   xmlns="http://www.w3.org/2000/svg"
   xmlns:svg="http://www.w3.org/2000/svg">
  <sodipodi:namedview
     id="namedview33"
     pagecolor="#ffffff"
     bordercolor="#666666"
     borderopacity="1.0"
     inkscape:pageshadow="2"
     inkscape:pageopacity="0.0"
     inkscape:pagecheckerboard="0"
     showgrid="false"
     inkscape:zoom="19.625"
     inkscape:cx="16"
     inkscape:cy="16"
     inkscape:window-width="1920"
     inkscape:window-height="1007"
     inkscape:window-x="0"
     inkscape:window-y="0"
     inkscape:window-maximized="1"
     inkscape:current-layer="svg31" />
  <defs
     id="defs13">
    <linearGradient
       id="b"
       y1="17"
       y2="24"
       x1="47"
       x2="54"
       gradientUnits="userSpaceOnUse"
       gradientTransform="translate(-27 -8)">
      <stop
         stop-color="#060606"
         id="stop2" />
      <stop
         offset="1"
         stop-opacity="0"
         id="stop4" />
    </linearGradient>
    <linearGradient
       xlink:href="#a"
       id="c"
       x1="5"
       y1="30"
       x2="5"
       y2="2"
       gradientUnits="userSpaceOnUse"
       gradientTransform="translate(-20)" />
    <linearGradient
       id="a"
       y1="392.36"
       y2="365.36"
       x2="0"
       gradientUnits="userSpaceOnUse"
       gradientTransform="translate(309.57 152.44)">
      <stop
         stop-color="#fff"
         stop-opacity="0"
         id="stop8" />
      <stop
         offset="1"
         stop-color="#fff"
         stop-opacity=".2"
         id="stop10" />
    </linearGradient>
  </defs>
  <path
     d="M20 2H8C6.338 2 5 3.338 5 5v22c0 1.662 1.338 3 3 3h16c1.662 0 3-1.338 3-3V9z"
     fill="#662d0e"
     id="path15" />
  <path
     d="M8 2c-.391 0-.658.277-1 .412v1.586H5.414c-.135.341-.411.608-.412.998v.002H7v2H5.002v1H7v2H5.002v1H7v2H5.002v1H7v2H5.002v1H7v2H5.002v1H7v2H5.002v1H7v2H5.002v1H7v2H5.412c.135.343.17.733.414 1H7v.59c.34.134.607.41.996.41H8v-1h2v1h1v-1h2v1h1v-1h2v1h1v-1h2v1h1v-1h2v1h1v-1h2v.59c.342-.135.733-.17 1-.414v-.176h.174c.244-.267.279-.657.414-1H26v-2h1v-1h-1v-2h1v-1h-1v-2h1v-1h-1v-2h1v-1h-1v-2h1v-1h-1v-2h1v-1h-1v-2l-1-1h-2v-2l-1-1h-2V2h-1v1.998h-2V2h-1v1.998h-2V2h-1v1.998h-2V2h-1v1.998H8zm0 2.998h2v2H8zm3 0h2v2h-2zm3 0h2v2h-2zm3 0h2v2h-2zm3 0h2v2h-2zm-12 3h2v2H8zm3 0h2v2h-2zm3 0h2v2h-2zm3 0h2v2h-2zm3 0h2v2h-2zm3 0h2v2h-2zm-15 3h2v2H8zm3 0h2v2h-2zm3 0h2v2h-2zm3 0h2v2h-2zm3 0h2v2h-2zm3 0h2v2h-2zm-15 3h2v2H8zm3 0h2v2h-2zm3 0h2v2h-2zm3 0h2v2h-2zm3 0h2v2h-2zm3 0h2v2h-2zm-15 3h2v2H8zm3 0h2v2h-2zm3 0h2v2h-2zm3 0h2v2h-2zm3 0h2v2h-2zm3 0h2v2h-2zm-15 3h2v2H8zm3 0h2v2h-2zm3 0h2v2h-2zm3 0h2v2h-2zm3 0h2v2h-2zm3 0h2v2h-2zm-15 3h2v2H8v-1zm3 0h2v2h-2v-1zm3 0h2v2h-2v-1zm3 0h2v2h-2v-1zm3 0h2v2h-2v-1zm3 0h2v2h-2v-1zm-15 3h2v2H8v-1zm3 0h2v2h-2v-1zm3 0h2v2h-2v-1zm3 0h2v2h-2v-1zm3 0h2v2h-2v-1zm3 0h2v2h-2v-1z"
     color="#000"
     opacity=".15"
     fill="#fff"
     id="path17" />
  <path
     d="M8 2a2.99 2.99 0 00-2.123.877c-.031.031-.02.09-.05.123H20V2z"
     color="#000"
     opacity=".5"
     fill="#fff"
     id="path19" />
  <path
     d="M5.826 29c.03.033.02.092.051.123A2.99 2.99 0 008 30h16a2.99 2.99 0 002.123-.877c.031-.031.02-.09.05-.123z"
     color="#000"
     opacity=".25"
     id="path21" />
  <path
     d="M20 9l7 7V9z"
     opacity=".2"
     fill="url(#b)"
     fill-rule="evenodd"
     id="path23" />
  <g
     color="#000000"
     fill="#ee9463"
     id="g27"
     transform="translate(0.002)">
    <path
       d="M 27,9 20,2 v 7 z m -16.002,1.998 c -0.554,0 -1,0.446 -1,1 v 10 c 0,0.554 0.446,1 1,1 h 10 c 0.554,0 1,-0.446 1,-1 v -10 c 0,-0.554 -0.446,-1 -1,-1 z m 0,1 h 10 v 10 h -10 z m 6,1 v 3 h 3 a 3,3 0 0 0 -3,-3 m -1,1 a 3,3 0 0 0 -3,3 3,3 0 0 0 3,3 3,3 0 0 0 3,-3 h -3 z"
       id="path25" />
  </g>
  <path
     d="M 20,2 H 7.9999996 c -1.662,0 -3,1.338 -3,3 v 22 c 0,1.662 1.338,3 3,3 H 24 c 1.662,0 3,-1.338 3,-3 V 9 Z"
     opacity="0.4"
     fill="url(#c)"
     id="path29"
     style="fill:url(#c)" />
</svg>
