<?xml version="1.0" encoding="UTF-8" standalone="no"?>
<svg
   height="32"
   width="32"
   version="1.1"
   id="svg30"
   sodipodi:docname="application-x-kmymoney.svg"
   inkscape:version="1.1.1 (3bf5ae0d25, 2021-09-20)"
   xmlns:inkscape="http://www.inkscape.org/namespaces/inkscape"
   xmlns:sodipodi="http://sodipodi.sourceforge.net/DTD/sodipodi-0.dtd"
   xmlns:xlink="http://www.w3.org/1999/xlink"
   xmlns="http://www.w3.org/2000/svg"
   xmlns:svg="http://www.w3.org/2000/svg">
  <defs
     id="defs34">
    <linearGradient
       xlink:href="#b"
       id="b-3"
       x1="46.173"
       y1="29"
       x2="25.827"
       y2="3"
       gradientUnits="userSpaceOnUse"
       gradientTransform="translate(-65,-2.0000094)" />
    <linearGradient
       id="a-6"
       y1="392.35999"
       y2="365.35999"
       x2="0"
       gradientUnits="userSpaceOnUse"
       gradientTransform="translate(309.57,152.44)">
      <stop
         stop-color="#fff"
         stop-opacity="0"
         id="stop8" />
      <stop
         offset="1"
         stop-color="#fff"
         stop-opacity=".2"
         id="stop10" />
    </linearGradient>
    <linearGradient
       id="c"
       y1="17"
       x1="47"
       y2="24"
       gradientUnits="userSpaceOnUse"
       x2="54"
       gradientTransform="translate(-27,-7.9999906)">
      <stop
         stop-color="#060606"
         id="stop2-7" />
      <stop
         offset="1"
         stop-opacity="0"
         id="stop4-5" />
    </linearGradient>
    <linearGradient
       inkscape:collect="always"
       xlink:href="#b"
       id="linearGradient3423"
       x1="10"
       y1="5"
       x2="25"
       y2="30"
       gradientUnits="userSpaceOnUse" />
  </defs>
  <sodipodi:namedview
     id="namedview32"
     pagecolor="#ffffff"
     bordercolor="#666666"
     borderopacity="1.0"
     inkscape:pageshadow="2"
     inkscape:pageopacity="0.0"
     inkscape:pagecheckerboard="0"
     showgrid="true"
     inkscape:zoom="6.9384853"
     inkscape:cx="39.20164"
     inkscape:cy="21.762675"
     inkscape:window-width="1920"
     inkscape:window-height="1007"
     inkscape:window-x="0"
     inkscape:window-y="0"
     inkscape:window-maximized="1"
     inkscape:current-layer="svg30">
    <inkscape:grid
       type="xygrid"
       id="grid1702" />
  </sodipodi:namedview>
  <linearGradient
     id="a"
     gradientUnits="userSpaceOnUse"
     x1="20"
     x2="27"
     y1="9"
     y2="16">
    <stop
       offset="0"
       stop-color="#060606"
       id="stop2" />
    <stop
       offset="1"
       stop-opacity="0"
       id="stop4" />
  </linearGradient>
  <linearGradient
     id="b"
     gradientUnits="userSpaceOnUse"
     x1="5"
     x2="27"
     y1="5"
     y2="27">
    <stop
       offset="0"
       stop-color="#fdc665"
       id="stop7" />
    <stop
       offset="1"
       stop-color="#e3a943"
       id="stop9" />
  </linearGradient>
  <path
     d="M 20,2.0000094 H 8 c -1.662,0 -3,1.338 -3,3 V 27.000009 c 0,1.662 1.338,3 3,3 h 16 c 1.662,0 3,-1.338 3,-3 V 9.0000094 Z"
     fill="#ff8b23"
     id="path15"
     style="fill:url(#linearGradient3423);fill-opacity:1" />
  <path
     d="m 8,2.0000094 a 2.99,2.99 0 0 0 -2.123,0.877 c -0.031,0.031 -0.02,0.09 -0.05,0.123 H 20 v -1 z"
     color="#000000"
     opacity="0.5"
     fill="#ffffff"
     id="path17" />
  <path
     d="m 5.826,29.000009 c 0.03,0.033 0.02,0.092 0.051,0.123 a 2.99,2.99 0 0 0 2.123,0.877 h 16 a 2.99,2.99 0 0 0 2.123,-0.877 c 0.031,-0.031 0.02,-0.09 0.05,-0.123 z"
     color="#000000"
     opacity="0.25"
     id="path19" />
  <path
     d="M 20,2 H 8 C 6.338,2 5,3.338 5,5 v 22 c 0,1.662 1.338,3 3,3 h 16 c 1.662,0 3,-1.338 3,-3 V 9 Z"
     opacity="0.4"
     fill="url(#b)"
     id="path21"
     style="opacity:0.01;fill:#fdc665;fill-opacity:1" />
  <path
     d="m 27,9.0000094 -7,-7 v 7 z"
     color="#000000"
     opacity="0.5"
     fill="#ffffff"
     fill-rule="evenodd"
     id="path23" />
  <path
     d="m 20,9.0000094 7,6.9999996 V 9.0000094 Z"
     opacity="0.1"
     fill="url(#c)"
     fill-rule="evenodd"
     id="path25"
     style="fill:url(#c)" />
  <path
     d="m 14.884253,10.716359 v 3.5 h 0.585938 l 2.957031,-2.957031 -0.542969,-0.542969 z m -2,1 -2.5,2.5 v 4 l 2.5,2.5 v -2.5 h -2 v -1 h 2 v -2 h -2 v -1 h 2 z m 6.957031,0.957032 -1.542968,1.542968 h 2.585937 v 1 h -3.585938 l -1,1 1,1 h 3.585938 v 1 h -2.585937 l 1.542968,1.542969 1.542969,-1.542969 v -4 z m -4.957031,5.542968 v 3.5 h 3 l 0.542969,-0.542969 -2.957031,-2.957031 z"
     id="path20-5"
     style="fill:#fcfcfc;fill-rule:evenodd" />
  <path
     d="m 15.884253,10.216359 a 6,6 0 0 0 -6,6 6,6 0 0 0 6,6 6,6 0 0 0 6,-6 6,6 0 0 0 -6,-6 z m 0,1 a 5,5 0 0 1 5,5 5,5 0 0 1 -5,5 5,5 0 0 1 -5,-5 5,5 0 0 1 5,-5 z"
     id="path22-6"
     style="fill:#fcfcfc;fill-rule:evenodd" />
</svg>
