<?xml version="1.0" encoding="UTF-8" standalone="no"?>
<svg
   width="32"
   height="32"
   version="1.1"
   id="svg34"
   sodipodi:docname="application-dicom.svg"
   inkscape:version="1.1.1 (3bf5ae0d25, 2021-09-20)"
   xmlns:inkscape="http://www.inkscape.org/namespaces/inkscape"
   xmlns:sodipodi="http://sodipodi.sourceforge.net/DTD/sodipodi-0.dtd"
   xmlns:xlink="http://www.w3.org/1999/xlink"
   xmlns="http://www.w3.org/2000/svg"
   xmlns:svg="http://www.w3.org/2000/svg">
  <sodipodi:namedview
     id="namedview36"
     pagecolor="#ffffff"
     bordercolor="#666666"
     borderopacity="1.0"
     inkscape:pageshadow="2"
     inkscape:pageopacity="0.0"
     inkscape:pagecheckerboard="0"
     showgrid="false"
     inkscape:zoom="19.625"
     inkscape:cx="16"
     inkscape:cy="16"
     inkscape:window-width="1920"
     inkscape:window-height="1007"
     inkscape:window-x="0"
     inkscape:window-y="0"
     inkscape:window-maximized="1"
     inkscape:current-layer="svg34" />
  <defs
     id="defs18">
    <linearGradient
       gradientTransform="matrix(.5 0 0 -.48276 0 31.45)"
       gradientUnits="userSpaceOnUse"
       x2="0"
       y2="3"
       y1="61"
       id="a">
      <stop
         offset="0"
         stop-color="#768492"
         id="stop2" />
      <stop
         stop-color="#5e6b78"
         offset="1"
         id="stop4" />
    </linearGradient>
    <linearGradient
       id="c"
       y1="518.04"
       y2="524.8"
       x2="0"
       gradientUnits="userSpaceOnUse">
      <stop
         stop-color="#dedede"
         id="stop7" />
      <stop
         offset="1"
         stop-color="#fbfbfb"
         id="stop9" />
    </linearGradient>
    <linearGradient
       id="d"
       y1="524.8"
       x1="404.57"
       y2="531.8"
       x2="411.57"
       gradientUnits="userSpaceOnUse">
      <stop
         stop-color="#383e51"
         id="stop12" />
      <stop
         offset="1"
         stop-color="#655c6f"
         stop-opacity="0"
         id="stop14" />
    </linearGradient>
    <linearGradient
       xlink:href="#a"
       id="b"
       x1="5"
       y1="30"
       x2="5"
       y2="2"
       gradientUnits="userSpaceOnUse"
       gradientTransform="translate(-20)" />
  </defs>
  <path
     d="M 20,2 H 8.0000004 c -1.662,0 -3,1.338 -3,3 v 22 c 0,1.662 1.338,3 3,3 H 24 c 1.662,0 3,-1.338 3,-3 V 9 Z"
     fill="url(#b)"
     id="path20"
     style="fill:url(#b)" />
  <g
     fill-rule="evenodd"
     id="g26">
    <path
       d="M411.57 524.8l-7-7v7z"
       fill="url(#c)"
       transform="translate(-384.57 -515.8)"
       id="path22" />
    <path
       d="M411.57 531.8l-7-7h7z"
       opacity=".2"
       fill="url(#d)"
       transform="translate(-384.57 -515.8)"
       id="path24" />
  </g>
  <path
     d="m 14.98579,10.425869 c -0.681,0 -1.569,0.387 -2.381,1.033 a 1.369,1.369 0 0 0 -0.732,1.766 1.828,1.828 0 0 0 -1.397,2.336 1.825,1.825 0 0 0 -0.220999,2.336 1.83,1.83 0 0 0 0.613999,2.633 2.06,2.06 0 0 0 1.418,2.207 2.053,2.053 0 0 0 1.777,1.02 2.06,2.06 0 0 0 1.842,-1.143 2.064,2.064 0 0 0 1.844,1.143 2.05,2.05 0 0 0 1.775,-1.02 2.062,2.062 0 0 0 1.42,-2.207 1.83,1.83 0 0 0 0.614,-2.633 1.825,1.825 0 0 0 -0.221,-2.336 1.828,1.828 0 0 0 -1.397,-2.336 1.37,1.37 0 0 0 -0.732,-1.766 c -0.812,-0.646 -1.7,-1.033 -2.381,-1.033 -0.379,0 -0.715,0.187 -0.922,0.473 a 1.136,1.136 0 0 0 -0.92,-0.473 m 0,0.432 c 0.389,0 0.705,0.318 0.705,0.707 v 2.793 a 1.13,1.13 0 0 0 -0.705,-0.246 0.216,0.216 0 1 0 0,0.432 c 0.389,0 0.705,0.316 0.705,0.705 v 5.191 a 2.06,2.06 0 0 0 -1.092,-0.729 0.217,0.217 0 0 0 -0.266,0.152 0.217,0.217 0 0 0 0.152,0.266 1.628,1.628 0 0 1 1.205,1.568 c 0,0.897 -0.73,1.627 -1.627,1.627 a 1.623,1.623 0 0 1 -1.439,-0.871 0.213,0.213 0 0 0 -0.135,-0.107 1.629,1.629 0 0 1 -1.172,-1.896 0.216,0.216 0 0 0 -0.123,-0.24 1.398,1.398 0 0 1 -0.641,-1.976 1.82,1.82 0 0 0 1.207,0.457 0.216,0.216 0 0 0 0,-0.432 1.398,1.398 0 0 1 -0.894,-2.468 0.213,0.213 0 0 0 0.06,-0.246 1.398,1.398 0 0 1 1.294,-1.921 c 0.77,0 1.396,0.627 1.396,1.396 a 0.216,0.216 0 1 0 0.432,0 c 0,-0.969 -0.757,-1.761 -1.711,-1.822 a 0.936,0.936 0 1 1 1.646,-0.889 0.21580663,0.21580663 0 0 0 0.389,-0.187 1.38,1.38 0 0 0 -0.916,-0.734 c 0.551,-0.336 1.094,-0.527 1.527,-0.527 m 1.842,0 c 0.433,0 0.976,0.191 1.527,0.527 a 1.383,1.383 0 0 0 -0.916,0.734 0.215,0.215 0 0 0 0.1,0.287 0.217,0.217 0 0 0 0.289,-0.1 0.93,0.93 0 0 1 1.211,-0.45 0.937,0.937 0 0 1 0.435,1.339 1.83,1.83 0 0 0 -1.711,1.822 c 0,0.119 0.098,0.217 0.217,0.217 a 0.216,0.216 0 0 0 0.215,-0.217 c 0,-0.77 0.627,-1.396 1.396,-1.396 a 1.398,1.398 0 0 1 1.292,1.921 0.214,0.214 0 0 0 0.063,0.246 1.398,1.398 0 0 1 -0.894,2.468 0.216,0.216 0 0 0 -0.217,0.215 c 0,0.119 0.098,0.217 0.217,0.217 a 1.82,1.82 0 0 0 1.207,-0.457 1.397,1.397 0 0 1 -0.641,1.976 0.216,0.216 0 0 0 -0.125,0.24 1.629,1.629 0 0 1 -1.17,1.896 0.217,0.217 0 0 0 -0.135,0.107 1.624,1.624 0 0 1 -1.439,0.871 c -0.897,0 -1.627,-0.73 -1.627,-1.627 0,-0.061 -0.003,-0.12 -0.008,-0.18 a 0.221,0.221 0 0 0 0.008,-0.059 v -7.131 c 0,-0.389 0.316,-0.707 0.705,-0.707 a 0.216,0.216 0 0 0 0.217,-0.215 0.218,0.218 0 0 0 -0.217,-0.217 1.13,1.13 0 0 0 -0.705,0.246 v -1.871 c 0,-0.389 0.316,-0.707 0.705,-0.707 m 3.225,3.715 a 0.216,0.216 0 0 0 -0.217,0.215 1.396,1.396 0 0 1 -2.393,0.978 0.216,0.216 0 0 0 -0.309,0.301 c 0.299,0.306 0.686,0.494 1.105,0.539 a 1.369,1.369 0 0 0 1.352,1.162 0.216,0.216 0 0 0 0.217,-0.215 0.218,0.218 0 0 0 -0.217,-0.217 0.938,0.938 0 0 1 -0.914,-0.736 1.832,1.832 0 0 0 1.592,-1.813 0.216,0.216 0 0 0 -0.217,-0.215 m -7.83,0.231 a 0.216,0.216 0 0 0 -0.217,0.215 c 0,0.927 0.695,1.695 1.59,1.813 a 0.936,0.936 0 0 1 -0.912,0.736 0.216,0.216 0 0 0 -0.217,0.215 c 0,0.119 0.098,0.217 0.217,0.217 a 1.37,1.37 0 0 0 1.352,-1.162 1.808,1.808 0 0 0 1.105,-0.539 0.216,0.216 0 0 0 -0.309,-0.301 1.398,1.398 0 0 1 -2.394,-0.978 0.215,0.215 0 0 0 -0.215,-0.215 m 4.606,3.225 a 0.216,0.216 0 0 0 0,0.432 1.398,1.398 0 0 1 1.388,1.542 1.832,1.832 0 0 0 -1.145,1.695 0.216,0.216 0 1 0 0.432,0 c 0,-0.77 0.627,-1.396 1.396,-1.396 a 0.216,0.216 0 0 0 0.217,-0.215 0.218,0.218 0 0 0 -0.217,-0.217 c -0.083,0 -0.164,0.007 -0.244,0.018 v -0.031 c 0,-1.01 -0.82,-1.828 -1.828,-1.828 m -2.533,0.461 c -1.01,0 -1.828,0.818 -1.828,1.826 v 0.033 a 1.785,1.785 0 0 0 -0.244,-0.018 0.216,0.216 0 0 0 -0.217,0.215 c 0,0.119 0.098,0.217 0.217,0.217 0.77,0 1.396,0.627 1.396,1.396 a 0.216,0.216 0 0 0 0.432,0 c 0,-0.766 -0.475,-1.424 -1.145,-1.695 a 1.398,1.398 0 0 1 1.388,-1.542 0.216,0.216 0 0 0 0.215,-0.217 h 0.002 a 0.216,0.216 0 0 0 -0.217,-0.215"
     opacity="0.75"
     fill="#fbfbfb"
     id="path28" />
  <path
     d="M8 2a2.99 2.99 0 00-2.123.877c-.031.031-.02.09-.05.123H20V2z"
     color="#000"
     opacity=".5"
     fill="#fff"
     id="path30" />
  <path
     d="M5.826 29c.03.033.02.092.051.123A2.99 2.99 0 008 30h16a2.99 2.99 0 002.123-.877c.031-.031.02-.09.05-.123z"
     color="#000"
     opacity=".25"
     id="path32" />
</svg>
