<?xml version="1.0" encoding="UTF-8" standalone="no"?>
<svg
   height="32"
   width="32"
   version="1.1"
   id="svg34"
   sodipodi:docname="gnome-mime-application-x-python-bytecode.svg"
   inkscape:version="1.1.1 (3bf5ae0d25, 2021-09-20)"
   xmlns:inkscape="http://www.inkscape.org/namespaces/inkscape"
   xmlns:sodipodi="http://sodipodi.sourceforge.net/DTD/sodipodi-0.dtd"
   xmlns:xlink="http://www.w3.org/1999/xlink"
   xmlns="http://www.w3.org/2000/svg"
   xmlns:svg="http://www.w3.org/2000/svg">
  <sodipodi:namedview
     id="namedview36"
     pagecolor="#ffffff"
     bordercolor="#666666"
     borderopacity="1.0"
     inkscape:pageshadow="2"
     inkscape:pageopacity="0.0"
     inkscape:pagecheckerboard="0"
     showgrid="false"
     inkscape:zoom="19.625"
     inkscape:cx="16"
     inkscape:cy="16"
     inkscape:window-width="1920"
     inkscape:window-height="1007"
     inkscape:window-x="0"
     inkscape:window-y="0"
     inkscape:window-maximized="1"
     inkscape:current-layer="svg34" />
  <defs
     id="defs8">
    <linearGradient
       y2="3"
       y1="61"
       x2="0"
       gradientUnits="userSpaceOnUse"
       gradientTransform="matrix(.5 0 0 -.48276 10 31.45)"
       id="a">
      <stop
         offset="0"
         stop-color="#f9a11f"
         id="stop2" />
      <stop
         offset="1"
         stop-color="#f39c12"
         id="stop4" />
    </linearGradient>
    <linearGradient
       xlink:href="#a"
       id="b"
       x1="5"
       y1="30"
       x2="5"
       y2="2"
       gradientUnits="userSpaceOnUse"
       gradientTransform="translate(-20)" />
  </defs>
  <linearGradient
     id="c"
     gradientUnits="userSpaceOnUse"
     x2="0"
     y1="518.04"
     y2="524.8">
    <stop
       offset="0"
       stop-color="#fddda3"
       id="stop10" />
    <stop
       offset="1"
       stop-color="#fde3a7"
       id="stop12" />
  </linearGradient>
  <linearGradient
     id="d"
     gradientUnits="userSpaceOnUse"
     x1="404.57"
     x2="411.57"
     y1="524.8"
     y2="531.8">
    <stop
       offset="0"
       stop-color="#383e51"
       id="stop15" />
    <stop
       offset="1"
       stop-color="#655c6f"
       stop-opacity="0"
       id="stop17" />
  </linearGradient>
  <path
     d="M 20,2 H 8.0000003 c -1.662,0 -3,1.338 -3,3 v 22 c 0,1.662 1.338,3 3,3 H 24 c 1.662,0 3,-1.338 3,-3 V 9 Z"
     fill="url(#b)"
     id="path20"
     style="fill:url(#b)" />
  <path
     d="M8 2a2.99 2.99 0 00-2.123.877c-.031.031-.02.09-.05.123H20V2z"
     color="#000"
     opacity=".5"
     fill="#fff"
     id="path22" />
  <path
     d="M5.826 29c.03.033.02.092.051.123A2.99 2.99 0 008 30h16a2.99 2.99 0 002.123-.877c.031-.031.02-.09.05-.123z"
     color="#000"
     opacity=".25"
     id="path24" />
  <g
     fill-rule="evenodd"
     id="g30">
    <path
       d="M411.57 524.8l-7-7v7z"
       fill="url(#c)"
       transform="translate(-384.57 -515.8)"
       id="path26" />
    <path
       d="M411.57 531.8l-7-7h7z"
       opacity=".2"
       fill="url(#d)"
       transform="translate(-384.57 -515.8)"
       id="path28" />
  </g>
  <path
     d="m 14.894615,11.949402 c -1.108,0 -2,0.892 -2,2 h 3 v 1 h -4 c -1.108,0 -1.9999998,0.892 -1.9999998,2 v 2 c 0,1.108 0.8919998,2 1.9999998,2 v -1 c 0,-0.889 0.39,-1.676 1,-2.225 l 0.002,-0.002 a 3.02,3.02 0 0 1 0.426,-0.32 l 0.004,-0.002 a 2.97,2.97 0 0 1 0.471,-0.238 c 0.03,-0.012 0.062,-0.019 0.092,-0.029 0.14,-0.051 0.283,-0.097 0.432,-0.127 0.186,-0.036 0.377,-0.057 0.574,-0.057 h 4 v -3 c 0,-1.108 -0.892,-2 -2,-2 z m 0,0.5 a 0.5,0.5 0 1 1 0,1 0.5,0.5 0 1 1 0,-1 m 5,2.5 v 1 c 0,0.889 -0.392,1.678 -1,2.227 a 3.02,3.02 0 0 1 -0.426,0.32 l -0.004,0.002 a 2.97,2.97 0 0 1 -0.471,0.238 c -0.03,0.012 -0.062,0.019 -0.092,0.029 -0.14,0.051 -0.283,0.097 -0.432,0.127 a 3.011,3.011 0 0 1 -0.574,0.057 h -4 v 3 c 0,1.108 0.892,2 2,2 h 2 c 1.108,0 2,-0.892 2,-2 h -3 v -1 h 4 c 1.108,0 2,-0.892 2,-2 v -2 c 0,-1.108 -0.892,-2 -2,-2 m -3,7.5 a 0.5,0.5 0 1 1 0,1 0.5,0.5 0 1 1 0,-1"
     fill="#fddda3"
     id="path32" />
</svg>
