<?xml version="1.0" encoding="UTF-8" standalone="no"?>
<svg
   width="32"
   height="32"
   version="1.1"
   id="svg20"
   sodipodi:docname="image-gif.svg"
   inkscape:version="1.1.1 (3bf5ae0d25, 2021-09-20)"
   xmlns:inkscape="http://www.inkscape.org/namespaces/inkscape"
   xmlns:sodipodi="http://sodipodi.sourceforge.net/DTD/sodipodi-0.dtd"
   xmlns:xlink="http://www.w3.org/1999/xlink"
   xmlns="http://www.w3.org/2000/svg"
   xmlns:svg="http://www.w3.org/2000/svg">
  <sodipodi:namedview
     id="namedview22"
     pagecolor="#ffffff"
     bordercolor="#666666"
     borderopacity="1.0"
     inkscape:pageshadow="2"
     inkscape:pageopacity="0.0"
     inkscape:pagecheckerboard="0"
     showgrid="false"
     inkscape:zoom="19.625"
     inkscape:cx="16"
     inkscape:cy="16"
     inkscape:window-width="1920"
     inkscape:window-height="1007"
     inkscape:window-x="0"
     inkscape:window-y="0"
     inkscape:window-maximized="1"
     inkscape:current-layer="svg20" />
  <defs
     id="defs8">
    <linearGradient
       id="a"
       y1="392.36"
       y2="320.48"
       gradientUnits="userSpaceOnUse"
       x2="0"
       gradientTransform="matrix(.5 0 0 .42294 418.57 378.93)">
      <stop
         stop-color="#fff"
         stop-opacity="0"
         id="stop2" />
      <stop
         offset="1"
         stop-color="#fff"
         stop-opacity=".2"
         id="stop4" />
    </linearGradient>
    <linearGradient
       xlink:href="#a"
       id="b"
       x1="-.978"
       y1="29.155"
       x2="-.978"
       y2="-1.341"
       gradientUnits="userSpaceOnUse"
       gradientTransform="translate(-19.999997)" />
  </defs>
  <rect
     width="28"
     height="25"
     x="2"
     y="5"
     ry="3"
     fill="#59cfd3"
     id="rect10" />
  <path
     d="M 3.99,7.056 V 7.058 A 0.995,0.995 0 0 0 3.002,8.05 L 3,8.056 v 1 h 2 v -2 z m 2.01,0 v 2 h 2 v -2 z m 3,0 v 2 h 2 v -2 z m 3,0 v 2 h 2 v -2 z m 3,0 v 2 h 2 v -2 z m 3,0 v 2 h 2 v -2 z m 3,0 v 2 h 2 v -2 z m 3,0 v 2 h 2 v -2 z m 3,0 v 2 h 2 v -1 L 28.998,8.05 A 0.995,0.995 0 0 0 28.01,7.058 V 7.056 Z m -15.498,5.998 a 1.5,1.5 0 0 0 -1.5,1.5 1.5,1.5 0 0 0 1.5,1.5 1.5,1.5 0 0 0 1.5,-1.5 1.5,1.5 0 0 0 -1.5,-1.5 z m 0,1 a 0.5,0.5 0 0 1 0.5,0.5 0.5,0.5 0 0 1 -0.5,0.5 0.5,0.5 0 0 1 -0.5,-0.5 0.5,0.5 0 0 1 0.5,-0.5 z m 9.5,1 -5.6,5.58 -2.601,-2.58 -6,6 h 1.406 l 3.12,-3.082 1.407,-1.404 1.566,1.418 1.101,1.068 5.599,-5.398 3.594,3.398 H 26 Z M 3,26.056 v 1 l 0.002,0.006 a 0.995,0.995 0 0 0 0.988,0.992 v 0.002 H 5 v -2 z m 3,0 v 2 h 2 v -2 z m 3,0 v 2 h 2 v -2 z m 3,0 v 2 h 2 v -2 z m 3,0 v 2 h 2 v -2 z m 3,0 v 2 h 2 v -2 z m 3,0 v 2 h 2 v -2 z m 3,0 v 2 h 2 v -2 z m 3,0 v 2 h 1.01 v -0.002 a 0.995,0.995 0 0 0 0.988,-0.992 L 29,27.056 v -1 z"
     color="#000000"
     opacity="0.5"
     fill="#ffffff"
     fill-rule="evenodd"
     id="path12" />
  <rect
     width="28"
     height="25"
     x="2"
     y="5"
     ry="3"
     fill="url(#b)"
     id="rect14"
     style="fill:url(#b)" />
  <path
     d="m 29.952923,25.751 a 2.99,2.99 0 0 1 -3,3 H 4.9529228 a 2.99,2.99 0 0 1 -3,-3 v 1.244 c 0,1.662 1.338,3 3,3 H 26.952923 c 1.662,0 3,-1.338 3,-3 z"
     opacity="0.25"
     id="path16" />
  <path
     d="m 5.0000168,4.9 c -1.662,0 -3,1.338 -3,3 v 1.156 a 2.99,2.99 0 0 1 3,-3 H 27.000017 a 2.99,2.99 0 0 1 3,3 V 7.9 c 0,-1.662 -1.338,-3 -3,-3 z"
     opacity="0.5"
     fill="#ffffff"
     id="path18" />
</svg>
