<?xml version="1.0" encoding="UTF-8" standalone="no"?>
<svg
   width="32"
   height="32"
   version="1.1"
   id="svg29"
   sodipodi:docname="text-x-qml.svg"
   inkscape:version="1.1.1 (3bf5ae0d25, 2021-09-20)"
   xmlns:inkscape="http://www.inkscape.org/namespaces/inkscape"
   xmlns:sodipodi="http://sodipodi.sourceforge.net/DTD/sodipodi-0.dtd"
   xmlns:xlink="http://www.w3.org/1999/xlink"
   xmlns="http://www.w3.org/2000/svg"
   xmlns:svg="http://www.w3.org/2000/svg">
  <sodipodi:namedview
     id="namedview31"
     pagecolor="#ffffff"
     bordercolor="#666666"
     borderopacity="1.0"
     inkscape:pageshadow="2"
     inkscape:pageopacity="0.0"
     inkscape:pagecheckerboard="0"
     showgrid="false"
     inkscape:zoom="19.625"
     inkscape:cx="16"
     inkscape:cy="16"
     inkscape:window-width="1920"
     inkscape:window-height="1007"
     inkscape:window-x="0"
     inkscape:window-y="0"
     inkscape:window-maximized="1"
     inkscape:current-layer="svg29" />
  <defs
     id="defs13">
    <linearGradient
       gradientTransform="matrix(.5 0 0 -.48276 6 31.45)"
       gradientUnits="userSpaceOnUse"
       x2="61.689"
       x1="3.116"
       y2="-3.454"
       y1="68.42"
       id="a">
      <stop
         offset="0"
         stop-color="#239161"
         id="stop2" />
      <stop
         stop-color="#66b036"
         offset="1"
         id="stop4" />
    </linearGradient>
    <linearGradient
       id="c"
       y1="524.8"
       x1="404.57"
       y2="531.8"
       x2="411.57"
       gradientUnits="userSpaceOnUse">
      <stop
         stop-color="#383e51"
         id="stop7" />
      <stop
         offset="1"
         stop-color="#655c6f"
         stop-opacity="0"
         id="stop9" />
    </linearGradient>
    <linearGradient
       xlink:href="#a"
       id="b"
       x1="5"
       y1="30"
       x2="5"
       y2="2"
       gradientUnits="userSpaceOnUse"
       gradientTransform="translate(-20)" />
  </defs>
  <path
     d="M 20,2 H 7.9999997 c -1.662,0 -3,1.338 -3,3 v 22 c 0,1.662 1.338,3 3,3 H 24 c 1.662,0 3,-1.338 3,-3 V 9 Z"
     fill="url(#b)"
     id="path15"
     style="fill:url(#b)" />
  <path
     d="M8 2a2.99 2.99 0 00-2.123.877c-.031.031-.02.09-.05.123H20V2z"
     color="#000"
     opacity=".5"
     fill="#fff"
     id="path17" />
  <path
     d="M5.826 29c.03.033.02.092.051.123A2.99 2.99 0 008 30h16a2.99 2.99 0 002.123-.877c.031-.031.02-.09.05-.123z"
     color="#000"
     opacity=".25"
     id="path19" />
  <g
     fill-rule="evenodd"
     id="g25">
    <path
       d="M27 9l-7-7v7z"
       opacity=".5"
       fill="#fff"
       id="path21" />
    <path
       d="M411.57 531.8l-7-7h7z"
       opacity=".2"
       fill="url(#c)"
       transform="translate(-384.57 -515.8)"
       id="path23" />
  </g>
  <path
     d="M 21.764825,12.182319 H 9.2538248 a 0.746,0.746 0 0 0 -0.747,0.747 v 10.457 c 0,0.413 0.334,0.747 0.747,0.747 H 21.765825 a 0.747,0.747 0 0 0 0.747,-0.747 v -10.459 a 0.75,0.75 0 0 0 -0.749,-0.746 m -1.649,0.935 a 0.59,0.59 0 1 1 0,1.18 0.59,0.59 0 0 1 0,-1.18 m -1.665,0 a 0.59,0.59 0 1 1 0,1.18 0.59,0.59 0 0 1 0,-1.18 m -1.665,0 a 0.59,0.59 0 1 1 0,1.18 0.59,0.59 0 0 1 0,-1.18 m 4.233,9.522 H 9.9978248 v -7.594 H 21.017825 Z"
     fill="#e3f5df"
     id="path27" />
</svg>
