<?xml version="1.0" encoding="UTF-8" standalone="no"?>
<svg
   fill="none"
   viewBox="0 0 22 22"
   version="1.1"
   id="svg7"
   sodipodi:docname="applications-all.svg"
   inkscape:version="1.3.2 (091e20ef0f, 2023-11-25)"
   xmlns:inkscape="http://www.inkscape.org/namespaces/inkscape"
   xmlns:sodipodi="http://sodipodi.sourceforge.net/DTD/sodipodi-0.dtd"
   xmlns="http://www.w3.org/2000/svg"
   xmlns:svg="http://www.w3.org/2000/svg">
  <sodipodi:namedview
     id="namedview7"
     pagecolor="#ffffff"
     bordercolor="#000000"
     borderopacity="0.25"
     inkscape:showpageshadow="2"
     inkscape:pageopacity="0.0"
     inkscape:pagecheckerboard="0"
     inkscape:deskcolor="#d1d1d1"
     showgrid="true"
     inkscape:zoom="34.636364"
     inkscape:cx="10.769029"
     inkscape:cy="13.858268"
     inkscape:window-width="1920"
     inkscape:window-height="994"
     inkscape:window-x="0"
     inkscape:window-y="0"
     inkscape:window-maximized="1"
     inkscape:current-layer="svg7">
    <inkscape:grid
       id="grid7"
       units="px"
       originx="0"
       originy="0"
       spacingx="1"
       spacingy="1"
       empcolor="#0099e5"
       empopacity="0.30196078"
       color="#0099e5"
       opacity="0.14901961"
       empspacing="5"
       dotted="false"
       gridanglex="30"
       gridanglez="30"
       visible="true" />
  </sodipodi:namedview>
  <path
     fill="url(#a)"
     d="m 3,4 v 14 c 0,0.5 0.4215246,1 0.9962109,1 H 17.95513 C 18.498715,19 19,18.558941 19,18 V 4 C 19,3.415733 18.536761,3 17.929134,3 H 4.0131234 C 3.4182404,3 3,3.4963544 3,4 Z"
     id="path1"
     sodipodi:nodetypes="ccccccccc" />
  <path
     stroke="#fff"
     d="M9.5 9.5h-4v-4h4zm7 0h-4v-4h4zm-7 7h-4v-4h4zm7 0h-4v-4h4z"
     id="path2" />
  <path
     fill="#000000"
     d="m 3,18 h 16 v 0 c 0,0.521771 -0.470041,1 -1,1 H 3.9809555 C 3.4706392,19 3,18.553905 3,18 Z"
     opacity="0.15"
     id="path3"
     sodipodi:nodetypes="cccccc" />
  <path
     fill="url(#b)"
     fill-rule="evenodd"
     d="m 10,5 2,2 v 3 h 5 V 5 l 2,2 v 11 l -0.993832,1 H 7 L 5,17 h 5 V 12 H 7 L 5,10 h 5 z m 2,12 v -5 h 5 v 5 z"
     clip-rule="evenodd"
     opacity="0.2"
     id="path4"
     sodipodi:nodetypes="ccccccccccccccccccccc"
     style="fill:url(#b)" />
  <defs
     id="defs7">
    <linearGradient
       id="a"
       x1="2.577"
       x2="18.335"
       y1="2.579"
       y2="18.815"
       gradientUnits="userSpaceOnUse">
      <stop
         stop-color="#21C9FB"
         id="stop4" />
      <stop
         offset="1"
         stop-color="#1A86F2"
         id="stop5" />
    </linearGradient>
    <linearGradient
       id="b"
       x1="3.444"
       x2="18.703979"
       y1="3.444"
       y2="18.775433"
       gradientUnits="userSpaceOnUse">
      <stop
         id="stop6" />
      <stop
         offset="1"
         stop-opacity="0"
         id="stop7" />
    </linearGradient>
  </defs>
</svg>
