<?xml version="1.0" encoding="UTF-8" standalone="no"?>
<svg
   fill="none"
   viewBox="0 0 22 22"
   version="1.1"
   id="svg1"
   sodipodi:docname="applications-engineering-symbolic.svg"
   inkscape:version="1.4.2 (unknown)"
   xmlns:inkscape="http://www.inkscape.org/namespaces/inkscape"
   xmlns:sodipodi="http://sodipodi.sourceforge.net/DTD/sodipodi-0.dtd"
   xmlns="http://www.w3.org/2000/svg"
   xmlns:svg="http://www.w3.org/2000/svg">
  <defs
     id="defs1" />
  <sodipodi:namedview
     id="namedview1"
     pagecolor="#ffffff"
     bordercolor="#000000"
     borderopacity="0.25"
     inkscape:showpageshadow="2"
     inkscape:pageopacity="0.0"
     inkscape:pagecheckerboard="0"
     inkscape:deskcolor="#d1d1d1"
     inkscape:zoom="34.909091"
     inkscape:cx="11.014323"
     inkscape:cy="11"
     inkscape:current-layer="svg1" />
  <path
     fill="#232629"
     fill-rule="evenodd"
     d="M10.4 3.6a.6.6 0 0 1 1.2 0v1.23a2.251 2.251 0 0 1 .654 4.039L13.864 13H15.5a.5.5 0 0 1 0 1h-1.247l1.356 3.48-.24 2.151L13.18 14H8.82l-2.19 5.631-.24-2.15L7.748 14H6.5a.5.5 0 0 1 0-1h1.636l1.61-4.131A2.251 2.251 0 0 1 10.4 4.83zM9.209 13l1.467-3.773a2.269 2.269 0 0 0 .648 0L12.791 13zM11 8.25a1.25 1.25 0 1 0 0-2.5 1.25 1.25 0 0 0 0 2.5"
     clip-rule="evenodd"
     id="path1"
     style="fill:#f2f2f2" />
</svg>
