<?xml version="1.0" encoding="UTF-8" standalone="no"?>
<svg
   fill="none"
   viewBox="0 0 22 22"
   version="1.1"
   id="svg9"
   sodipodi:docname="applications-education-mathematics.svg"
   inkscape:version="1.3.2 (091e20ef0f, 2023-11-25)"
   xmlns:inkscape="http://www.inkscape.org/namespaces/inkscape"
   xmlns:sodipodi="http://sodipodi.sourceforge.net/DTD/sodipodi-0.dtd"
   xmlns:xlink="http://www.w3.org/1999/xlink"
   xmlns="http://www.w3.org/2000/svg"
   xmlns:svg="http://www.w3.org/2000/svg">
  <sodipodi:namedview
     id="namedview9"
     pagecolor="#ffffff"
     bordercolor="#000000"
     borderopacity="0.25"
     inkscape:showpageshadow="2"
     inkscape:pageopacity="0.0"
     inkscape:pagecheckerboard="0"
     inkscape:deskcolor="#d1d1d1"
     inkscape:zoom="17.318182"
     inkscape:cx="7.9685039"
     inkscape:cy="20.845144"
     inkscape:window-width="1920"
     inkscape:window-height="994"
     inkscape:window-x="0"
     inkscape:window-y="0"
     inkscape:window-maximized="1"
     inkscape:current-layer="svg9" />
  <defs
     id="defs9">
    <linearGradient
       id="a"
       x1="20.75"
       x2="1.07"
       y1="19"
       y2="4.24"
       gradientUnits="userSpaceOnUse">
      <stop
         stop-color="#343B40"
         id="stop6" />
      <stop
         offset="1"
         stop-color="#555E63"
         id="stop7" />
    </linearGradient>
    <linearGradient
       id="b"
       x1="11"
       x2="11"
       y1="19"
       y2="3"
       gradientUnits="userSpaceOnUse">
      <stop
         stop-color="#BD8D48"
         id="stop8" />
      <stop
         offset="1"
         stop-color="#E8B971"
         id="stop9" />
    </linearGradient>
    <linearGradient
       inkscape:collect="always"
       xlink:href="#linearGradient2"
       id="linearGradient3085"
       gradientUnits="userSpaceOnUse"
       gradientTransform="matrix(0.37499953,0,0,0.39998676,-142.21408,-198.51203)"
       x1="434.57144"
       y1="543.79797"
       x2="384.57144"
       y2="503.798" />
    <linearGradient
       inkscape:collect="always"
       id="linearGradient2">
      <stop
         style="stop-color:#262b2f;stop-opacity:1;"
         offset="0"
         id="stop1" />
      <stop
         style="stop-color:#40474b;stop-opacity:1;"
         offset="1"
         id="stop2" />
    </linearGradient>
    <linearGradient
       inkscape:collect="always"
       xlink:href="#linearGradient4152-0"
       id="linearGradient3087"
       gradientUnits="userSpaceOnUse"
       gradientTransform="matrix(0.37499953,0,0,0.39998635,2,1.4005595)"
       x1="24"
       y1="43.999973"
       x2="24"
       y2="4" />
    <linearGradient
       id="linearGradient4152-0"
       inkscape:collect="always">
      <stop
         id="stop4154-0"
         offset="0"
         style="stop-color:#bd8d48;stop-opacity:1" />
      <stop
         id="stop4156-8"
         offset="1"
         style="stop-color:#e8b971;stop-opacity:1" />
    </linearGradient>
  </defs>
  <rect
     y="3.0005245"
     x="2.0000145"
     height="15.999475"
     width="17.999973"
     id="rect4567"
     style="fill:url(#linearGradient3085);fill-opacity:1;stroke:none;stroke-width:0.377966"
     ry="1.6785151"
     rx="1.6523422" />
  <path
     id="rect4778"
     d="M 3.181253,3.0005085 C 2.5931093,2.9809585 2.0373547,3.5280235 2,4.1433285 V 17.857158 c 0.064881,0.577217 0.6015026,1.096302 1.1435656,1.142811 H 18.874987 c 0.66196,-0.101951 1.056084,-0.597771 1.125008,-1.199942 l -2.7e-5,-13.6566985 c 0.0048,-0.600843 -0.543577,-1.076376 -1.124981,-1.14282 v 0 H 3.1435656 Z m -0.05624,1.14282 H 18.874987 V 17.857158 H 3.1250257 Z"
     style="fill:url(#linearGradient3087);fill-opacity:1;stroke:none;stroke-width:0.377966"
     inkscape:connector-curvature="0"
     sodipodi:nodetypes="cccccccccccccccc" />
  <path
     id="rect4553"
     d="m 3.1250257,4.1173535 v 13.7398045 0 H 18.874987 v 0 -13.7398045 0 z m 0.5624764,0.597382 H 18.312488 V 17.285749 H 3.6875021 Z"
     style="color:#000000;text-decoration:none;text-decoration-line:none;display:inline;overflow:visible;visibility:visible;fill:#aa7f41;fill-opacity:0.498039;fill-rule:nonzero;stroke:none;stroke-width:0.377966;enable-background:accumulate"
     inkscape:connector-curvature="0"
     sodipodi:nodetypes="ccccccccccccc" />
  <path
     fill="#ffffff"
     d="m 16.500001,6.9999845 h -5.83 l -1.6699996,4.0000005 -1.125,3 0.125,-1.5 V 9.9999845 H 5.5000012 v 1.0000005 h 1.5 v 4 H 8.5500014 L 11.330001,7.9999845 h 5.17 z"
     id="path5-7" />
  <path
     fill="#ffffff"
     d="m 16.000001,13.999985 v -0.9 h -2 l -1,0.1 c 0,0 3,-0.849997 3,-2.699997 0,-1.1000005 -1,-1.5000005 -2,-1.5000005 -1,0 -2,0.5 -2,1.5000005 h 1 c 0,-0.5000005 0.5,-0.6000005 1,-0.6000005 0.5,0 1,0.1 1,0.6000005 0,0.732 -0.804,1.196 -1.823,1.785 -0.373,0.215 -0.775,0.447 -1.177,0.715 v 0.999997 z"
     id="path6-5" />
</svg>
