<?xml version="1.0" encoding="UTF-8" standalone="no"?>
<svg
   fill="none"
   viewBox="0 0 22 22"
   version="1.1"
   id="svg8"
   sodipodi:docname="applications-education.svg"
   inkscape:version="1.3.2 (091e20ef0f, 2023-11-25)"
   xmlns:inkscape="http://www.inkscape.org/namespaces/inkscape"
   xmlns:sodipodi="http://sodipodi.sourceforge.net/DTD/sodipodi-0.dtd"
   xmlns:xlink="http://www.w3.org/1999/xlink"
   xmlns="http://www.w3.org/2000/svg"
   xmlns:svg="http://www.w3.org/2000/svg">
  <sodipodi:namedview
     id="namedview8"
     pagecolor="#ffffff"
     bordercolor="#000000"
     borderopacity="0.25"
     inkscape:showpageshadow="2"
     inkscape:pageopacity="0.0"
     inkscape:pagecheckerboard="0"
     inkscape:deskcolor="#d1d1d1"
     inkscape:zoom="12.245804"
     inkscape:cx="-1.959855"
     inkscape:cy="29.806128"
     inkscape:window-width="1920"
     inkscape:window-height="994"
     inkscape:window-x="0"
     inkscape:window-y="0"
     inkscape:window-maximized="1"
     inkscape:current-layer="svg8" />
  <defs
     id="defs8">
    <linearGradient
       id="a"
       x1="20.75"
       x2="1.07"
       y1="19"
       y2="4.24"
       gradientUnits="userSpaceOnUse">
      <stop
         stop-color="#343B40"
         id="stop5" />
      <stop
         offset="1"
         stop-color="#555E63"
         id="stop6" />
    </linearGradient>
    <linearGradient
       id="b"
       x1="11"
       x2="11"
       y1="19"
       y2="3"
       gradientUnits="userSpaceOnUse">
      <stop
         stop-color="#BD8D48"
         id="stop7" />
      <stop
         offset="1"
         stop-color="#E8B971"
         id="stop8" />
    </linearGradient>
    <linearGradient
       inkscape:collect="always"
       xlink:href="#linearGradient2"
       id="linearGradient3085"
       gradientUnits="userSpaceOnUse"
       gradientTransform="matrix(0.37499953,0,0,0.39998676,-142.21408,-198.51229)"
       x1="434.57144"
       y1="543.79797"
       x2="384.57144"
       y2="503.798" />
    <linearGradient
       inkscape:collect="always"
       id="linearGradient2">
      <stop
         style="stop-color:#262b2f;stop-opacity:1;"
         offset="0"
         id="stop1" />
      <stop
         style="stop-color:#40474b;stop-opacity:1;"
         offset="1"
         id="stop2" />
    </linearGradient>
    <linearGradient
       inkscape:collect="always"
       xlink:href="#linearGradient4152-0"
       id="linearGradient3087"
       gradientUnits="userSpaceOnUse"
       gradientTransform="matrix(0.37499953,0,0,0.39998635,1.9999989,1.4002978)"
       x1="24"
       y1="43.999973"
       x2="24"
       y2="4" />
    <linearGradient
       id="linearGradient4152-0"
       inkscape:collect="always">
      <stop
         id="stop4154-0"
         offset="0"
         style="stop-color:#bd8d48;stop-opacity:1" />
      <stop
         id="stop4156-8"
         offset="1"
         style="stop-color:#e8b971;stop-opacity:1" />
    </linearGradient>
  </defs>
  <rect
     y="3.0002627"
     x="2.0000134"
     height="15.999475"
     width="17.999973"
     id="rect4567"
     style="fill:url(#linearGradient3085);fill-opacity:1;stroke:none;stroke-width:0.377966"
     ry="1.6785151"
     rx="1.6523422" />
  <path
     id="rect4778"
     d="m 3.1812519,3.0002468 c -0.5881437,-0.01955 -1.1438983,0.527515 -1.181253,1.14282 V 17.856896 c 0.064881,0.577217 0.6015026,1.096302 1.1435656,1.142811 H 18.874986 c 0.66196,-0.101951 1.056084,-0.597771 1.125008,-1.199942 l -2.7e-5,-13.6566982 c 0.0048,-0.600843 -0.543577,-1.076376 -1.124981,-1.14282 v 0 H 3.1435645 Z m -0.05624,1.14282 H 18.874986 V 17.856896 H 3.1250246 Z"
     style="fill:url(#linearGradient3087);fill-opacity:1;stroke:none;stroke-width:0.377966"
     inkscape:connector-curvature="0"
     sodipodi:nodetypes="cccccccccccccccc" />
  <path
     id="rect4553"
     d="m 3.1250246,4.1170918 v 13.7398042 0 H 18.874986 v 0 -13.7398042 0 z M 3.687501,4.7144738 H 18.312487 V 17.285487 H 3.687501 Z"
     style="color:#000000;text-decoration:none;text-decoration-line:none;display:inline;overflow:visible;visibility:visible;fill:#aa7f41;fill-opacity:0.498039;fill-rule:nonzero;stroke:none;stroke-width:0.377966;enable-background:accumulate"
     inkscape:connector-curvature="0"
     sodipodi:nodetypes="ccccccccccccc" />
  <rect
     y="16.71406"
     x="12.687499"
     height="0.57140392"
     width="2.2499766"
     id="rect4568"
     style="color:#000000;text-decoration:none;text-decoration-line:none;display:inline;overflow:visible;visibility:visible;fill:#007ad9;fill-opacity:1;fill-rule:nonzero;stroke:none;stroke-width:0.377966;enable-background:accumulate" />
  <rect
     y="16.71406"
     x="15.499994"
     height="0.57141435"
     width="2.2499895"
     id="rect4570"
     style="color:#000000;text-decoration:none;text-decoration-line:none;display:inline;overflow:visible;visibility:visible;fill:#d6d6d6;fill-opacity:1;fill-rule:nonzero;stroke:none;stroke-width:0.377966;enable-background:accumulate" />
  <path
     style="opacity:0.2;stroke-width:0.223089"
     d="m 7.8500397,10.225971 h 6.2998633 v 2.43321 c 0,0 -0.449959,1.327262 -3.149935,1.327262 -2.6999619,0 -3.1499283,-1.327262 -3.1499283,-1.327262 z"
     id="path1-5" />
  <path
     style="fill:#656565;fill-opacity:1;stroke-width:0.223089"
     d="m 7.8500397,10.004748 h 6.2998633 v 2.433238 c 0,0 -0.449959,1.327206 -3.149935,1.327206 -2.6999619,0 -3.1499283,-1.327206 -3.1499283,-1.327206 z"
     id="path2-6" />
  <path
     style="opacity:0.2;stroke-width:0.223089"
     d="m 10.894148,7.7956658 a 0.94674116,0.46539162 0 0 0 -0.563269,0.133084 l -3.5540166,1.74735 a 0.94674116,0.46539162 0 0 0 0,0.6576122 l 3.5540166,1.746946 a 0.94674116,0.46539162 0 0 0 1.338198,0 l 3.554067,-1.746946 a 0.94674116,0.46539162 0 0 0 0,-0.6576122 l -3.554067,-1.74735 a 0.94674116,0.46539162 0 0 0 -0.774929,-0.133084 z"
     id="path3-2" />
  <path
     style="fill:#7e7e7e;fill-opacity:1;stroke-width:0.223089"
     d="m 10.894148,7.5744528 a 0.94674116,0.46539162 0 0 0 -0.563269,0.133108 l -3.5540166,1.747331 a 0.94674116,0.46539162 0 0 0 0,0.6576162 l 3.5540166,1.746944 a 0.94674116,0.46539162 0 0 0 1.338198,0 l 3.554067,-1.746944 a 0.94674116,0.46539162 0 0 0 0,-0.6576162 l -3.554067,-1.747331 a 0.94674116,0.46539162 0 0 0 -0.774929,-0.133108 z"
     id="path4-9" />
  <path
     style="opacity:0.2;stroke-width:0.223089"
     d="M 10.966542,9.5649458 7.6562367,10.056171 c -0.3116251,0.02579 -0.520237,0.207408 -0.6112911,0.374181 -0.092145,0.168792 -0.094924,0.333053 -0.094924,0.333053 a 0.22501799,0.22122337 0 0 0 0,0.0055 v 1.459885 a 0.16877608,0.18435288 0 0 0 -0.1093686,0.136057 l -0.3375331,1.843539 a 0.16877608,0.18435288 0 0 0 0.1656932,0.2203 H 7.6813089 A 0.16877608,0.18435288 0 0 0 7.8469344,14.208097 L 7.509428,12.364599 A 0.16877608,0.18435288 0 0 0 7.4000478,12.228511 v -1.454215 c 0,0 0.00191,-0.0658 0.04143,-0.135222 0.037662,-0.06935 0.079518,-0.130916 0.2575049,-0.14299 a 0.22501799,0.22122337 0 0 0 0.018386,-0.0033 l 3.3164695,-0.491117 a 0.22499548,0.22120144 0 0 0 0.188955,-0.2514052 0.22499548,0.22120144 0 0 0 -0.255744,-0.185805 z"
     id="path5-1" />
  <path
     style="fill:none;stroke:#cccccc;stroke-width:0.446198;stroke-linecap:round;stroke-linejoin:round;stroke-opacity:1"
     d="M 10.999968,9.5623588 7.6832016,10.054378 c -0.4960979,0.03353 -0.5081687,0.493365 -0.5081687,0.493365 v 1.890243"
     id="path6" />
  <path
     style="fill:#e8b971;fill-opacity:1;stroke-width:0.223089"
     d="m 7.0062753,11.995605 a 0.16877608,0.18435288 0 0 0 -0.1654792,0.14827 L 6.503289,13.987242 a 0.16877608,0.18435288 0 0 0 0.1654499,0.220325 h 1.0125957 a 0.16877608,0.18435288 0 0 0 0.165491,-0.220325 L 7.5092892,12.143875 a 0.16877608,0.18435288 0 0 0 -0.1654876,-0.14827 z"
     id="path7" />
  <path
     style="opacity:0.1;fill:#ffffff;stroke-width:0.223089"
     d="m 10.894059,7.5745848 a 0.94674116,0.46539162 0 0 0 -0.563327,0.133103 l -3.5537831,1.747099 a 0.94674116,0.46539162 0 0 0 -0.2474361,0.439405 0.94674116,0.46539162 0 0 1 0.2474361,-0.218216 l 3.5537831,-1.747116 a 0.94674116,0.46539162 0 0 1 0.563327,-0.133029 0.94674116,0.46539162 0 0 1 0.775179,0.133029 l 3.553803,1.747116 a 0.94674116,0.46539162 0 0 1 0.249579,0.218216 0.94674116,0.46539162 0 0 0 -0.249579,-0.439405 l -3.553803,-1.747099 a 0.94674116,0.46539162 0 0 0 -0.775179,-0.133103 z"
     id="path8" />
</svg>
