<?xml version="1.0" encoding="UTF-8" standalone="no"?>
<svg
   fill="none"
   viewBox="0 0 22 22"
   version="1.1"
   id="svg8"
   sodipodi:docname="applications-education-language.svg"
   inkscape:version="1.3.2 (091e20ef0f, 2023-11-25)"
   xmlns:inkscape="http://www.inkscape.org/namespaces/inkscape"
   xmlns:sodipodi="http://sodipodi.sourceforge.net/DTD/sodipodi-0.dtd"
   xmlns:xlink="http://www.w3.org/1999/xlink"
   xmlns="http://www.w3.org/2000/svg"
   xmlns:svg="http://www.w3.org/2000/svg">
  <sodipodi:namedview
     id="namedview8"
     pagecolor="#ffffff"
     bordercolor="#000000"
     borderopacity="0.25"
     inkscape:showpageshadow="2"
     inkscape:pageopacity="0.0"
     inkscape:pagecheckerboard="0"
     inkscape:deskcolor="#d1d1d1"
     inkscape:zoom="17.318182"
     inkscape:cx="8.3149606"
     inkscape:cy="14.666667"
     inkscape:window-width="1920"
     inkscape:window-height="994"
     inkscape:window-x="0"
     inkscape:window-y="0"
     inkscape:window-maximized="1"
     inkscape:current-layer="svg8" />
  <defs
     id="defs8">
    <linearGradient
       id="a"
       x1="20.75"
       x2="-.538"
       y1="20"
       y2="5.808"
       gradientUnits="userSpaceOnUse">
      <stop
         stop-color="#343B40"
         id="stop5" />
      <stop
         offset="1"
         stop-color="#555E63"
         id="stop6" />
    </linearGradient>
    <linearGradient
       id="b"
       x1="11"
       x2="11"
       y1="20"
       y2="2"
       gradientUnits="userSpaceOnUse">
      <stop
         stop-color="#BD8D48"
         id="stop7" />
      <stop
         offset="1"
         stop-color="#E8B971"
         id="stop8" />
    </linearGradient>
    <linearGradient
       inkscape:collect="always"
       xlink:href="#linearGradient2"
       id="linearGradient3085"
       gradientUnits="userSpaceOnUse"
       gradientTransform="matrix(0.37499953,0,0,0.39998676,-142.21409,-198.51203)"
       x1="434.57144"
       y1="543.79797"
       x2="384.57144"
       y2="503.798" />
    <linearGradient
       inkscape:collect="always"
       id="linearGradient2">
      <stop
         style="stop-color:#262b2f;stop-opacity:1;"
         offset="0"
         id="stop1" />
      <stop
         style="stop-color:#40474b;stop-opacity:1;"
         offset="1"
         id="stop2" />
    </linearGradient>
    <linearGradient
       inkscape:collect="always"
       xlink:href="#linearGradient4152-0"
       id="linearGradient3087"
       gradientUnits="userSpaceOnUse"
       gradientTransform="matrix(0.37499953,0,0,0.39998635,1.9999937,1.4005595)"
       x1="24"
       y1="43.999973"
       x2="24"
       y2="4" />
    <linearGradient
       id="linearGradient4152-0"
       inkscape:collect="always">
      <stop
         id="stop4154-0"
         offset="0"
         style="stop-color:#bd8d48;stop-opacity:1" />
      <stop
         id="stop4156-8"
         offset="1"
         style="stop-color:#e8b971;stop-opacity:1" />
    </linearGradient>
  </defs>
  <rect
     y="3.000524"
     x="2.0000081"
     height="15.999475"
     width="17.999973"
     id="rect4567"
     style="fill:url(#linearGradient3085);fill-opacity:1;stroke:none;stroke-width:0.377966"
     ry="1.6785151"
     rx="1.6523422" />
  <path
     id="rect4778"
     d="m 3.1812467,3.0005085 c -0.5881437,-0.01955 -1.1438983,0.527515 -1.181253,1.14282 V 17.857157 c 0.064881,0.577217 0.6015026,1.096302 1.1435656,1.142811 H 18.874981 c 0.66196,-0.101951 1.056084,-0.597771 1.125008,-1.199942 l -2.7e-5,-13.6566975 c 0.0048,-0.600843 -0.543577,-1.076376 -1.124981,-1.14282 v 0 H 3.1435593 Z m -0.05624,1.14282 H 18.874981 V 17.857157 H 3.1250194 Z"
     style="fill:url(#linearGradient3087);fill-opacity:1;stroke:none;stroke-width:0.377966"
     inkscape:connector-curvature="0"
     sodipodi:nodetypes="cccccccccccccccc" />
  <path
     id="rect4553"
     d="m 3.1250194,4.1173535 v 13.7398035 0 H 18.874981 v 0 -13.7398035 0 z m 0.5624764,0.597382 H 18.312482 V 17.285748 H 3.6874958 Z"
     style="color:#000000;text-decoration:none;text-decoration-line:none;display:inline;overflow:visible;visibility:visible;fill:#aa7f41;fill-opacity:0.498039;fill-rule:nonzero;stroke:none;stroke-width:0.377966;enable-background:accumulate"
     inkscape:connector-curvature="0"
     sodipodi:nodetypes="ccccccccccccc" />
  <path
     fill="#f2f2f2"
     d="M 7.7428575,4.999984 5.8571427,10.142841 H 6.8600001 L 7.4428575,8.4285554 H 9.4142861 L 9.9971427,10.142841 H 11 L 9.1142861,4.999984 Z m 4.1142825,0 v 5.142857 h 1.714286 c 0.428574,0 2.14286,0 2.14286,-1.4999996 0,-0.7971434 -0.505712,-1.1451434 -1.056,-1.2977148 0.490288,-0.1585712 0.798,-0.5005712 0.798,-0.9308566 C 15.45714,5.1285554 14.428574,4.999984 13.14286,4.999984 Z M 8.3000001,5.8571266 h 0.2571426 l 0.574286,1.8 H 7.7257141 Z m 4.4142859,0 h 0.642854 c 0.64286,0 1.2,0 1.2,0.6 C 14.55714,7.01427 14,7.01427 13.571426,7.01427 h -0.85714 z m 0,1.9285714 h 0.85714 c 0.428574,0 1.157148,0 1.157148,0.778286 0,0.7225714 -0.728574,0.721714 -0.94286,0.721714 h -1.071428 z m -7.7142859,3.214286 v 0.85714 h 5.1428569 v -0.85714 z m 5.9999999,0 v 6 h 0.85714 v -0.85714 h 4.28572 v 0.85714 H 17 v -6 z m 0.85714,0.85714 h 0.857146 v 1.714286 c 0,0.466288 -0.3,0.75086 -0.649712,0.831434 l 0.138852,0.554566 c 0.588,-0.0917 1.368,-0.434566 1.368,-1.386 v -1.714286 h 0.857148 v 1.714286 c 0,0.771434 0.428566,0.857148 0.85714,0.857148 h 0.857146 v 0.85714 h -4.28572 z m 3.428574,0 h 0.857146 v 1.81286 c -0.006,0.201426 -0.05315,0.201426 -0.428574,0.201426 -0.214286,0 -0.428572,0 -0.428572,-0.3 z M 5.8571427,13.57141 v 0.857148 H 9.2857141 V 13.57141 Z m -0.8571426,2.571434 v 0.85714 h 5.1428569 v -0.85714 z"
     id="path3-3"
     style="stroke-width:0.85714" />
</svg>
