<?xml version="1.0" encoding="UTF-8" standalone="no"?>
<svg
   width="32"
   height="32"
   version="1.1"
   id="svg29"
   sodipodi:docname="application-x-designer.svg"
   inkscape:version="1.1.1 (3bf5ae0d25, 2021-09-20)"
   xmlns:inkscape="http://www.inkscape.org/namespaces/inkscape"
   xmlns:sodipodi="http://sodipodi.sourceforge.net/DTD/sodipodi-0.dtd"
   xmlns:xlink="http://www.w3.org/1999/xlink"
   xmlns="http://www.w3.org/2000/svg"
   xmlns:svg="http://www.w3.org/2000/svg">
  <sodipodi:namedview
     id="namedview31"
     pagecolor="#ffffff"
     bordercolor="#666666"
     borderopacity="1.0"
     inkscape:pageshadow="2"
     inkscape:pageopacity="0.0"
     inkscape:pagecheckerboard="0"
     showgrid="false"
     inkscape:zoom="19.625"
     inkscape:cx="16"
     inkscape:cy="16"
     inkscape:window-width="1920"
     inkscape:window-height="1007"
     inkscape:window-x="0"
     inkscape:window-y="0"
     inkscape:window-maximized="1"
     inkscape:current-layer="svg29" />
  <defs
     id="defs13">
    <linearGradient
       id="c"
       y1="524.8"
       x1="404.57"
       y2="531.8"
       x2="411.57"
       gradientUnits="userSpaceOnUse"
       gradientTransform="translate(-384.57 -515.8)">
      <stop
         stop-color="#383e51"
         id="stop2" />
      <stop
         offset="1"
         stop-color="#655c6f"
         stop-opacity="0"
         id="stop4" />
    </linearGradient>
    <linearGradient
       xlink:href="#a"
       id="b"
       x1="5"
       y1="30"
       x2="5"
       y2="2"
       gradientUnits="userSpaceOnUse"
       gradientTransform="translate(-19.999999)" />
    <linearGradient
       id="a"
       y1="392.36"
       y2="365.36"
       x2="0"
       gradientUnits="userSpaceOnUse"
       gradientTransform="translate(309.57 152.44)">
      <stop
         stop-color="#fff"
         stop-opacity="0"
         id="stop8" />
      <stop
         offset="1"
         stop-color="#fff"
         stop-opacity=".2"
         id="stop10" />
    </linearGradient>
  </defs>
  <path
     d="M20 2H8C6.338 2 5 3.338 5 5v22c0 1.662 1.338 3 3 3h16c1.662 0 3-1.338 3-3V9z"
     fill="#47cffb"
     id="path15" />
  <path
     d="M8 2a2.99 2.99 0 00-2.123.877c-.031.031-.02.09-.05.123H20V2z"
     color="#000"
     opacity=".5"
     fill="#fff"
     id="path17" />
  <path
     d="M5.826 29c.03.033.02.092.051.123A2.99 2.99 0 008 30h16a2.99 2.99 0 002.123-.877c.031-.031.02-.09.05-.123z"
     color="#000"
     opacity=".25"
     id="path19" />
  <path
     d="M 20,2 H 8.0000005 c -1.662,0 -3,1.338 -3,3 v 22 c 0,1.662 1.338,3 3,3 H 24 c 1.662,0 3,-1.338 3,-3 V 9 Z"
     opacity="0.4"
     fill="url(#b)"
     id="path21"
     style="fill:url(#b)" />
  <path
     d="M27 9l-7-7v7z"
     fill-rule="evenodd"
     opacity=".4"
     id="path23" />
  <path
     d="M27 16l-7-7h7z"
     opacity=".2"
     fill="url(#c)"
     fill-rule="evenodd"
     id="path25" />
  <path
     d="m 16.082756,10.476676 c -0.247,0 -0.45,0.2 -0.45,0.447 v 0.408 a 1.81,1.81 0 0 0 -1.368,1.762 c 0,0.594 0.283,1.122 0.726,1.455 a 0.315,0.315 0 0 1 0.076,0.205 0.496,0.496 0 0 1 -0.004,0.067 l -1.968,4.173 h -0.815 a 0.242,0.242 0 0 0 -0.242,0.24 c 0,0.134 0.11,0.24 0.242,0.24 h 0.588 l -1.52,3.224 a 0.529,0.529 0 0 0 0.102,0.593 l -0.586,1.19 0.926,-1.002 a 0.537,0.537 0 0 0 0.621,-0.29 l 1.752,-3.714 h 1.54 v 0.318 a 0.37,0.37 0 0 0 0.37,0.367 h 0.02 a 0.37,0.37 0 0 0 0.37,-0.367 v -0.318 h 1.575 l 1.754,3.715 c 0.11,0.237 0.373,0.353 0.617,0.289 l 0.926,1.002 -0.584,-1.19 a 0.531,0.531 0 0 0 0.102,-0.593 l -1.52,-3.223 h 0.55 a 0.24,0.24 0 0 0 0.243,-0.24 0.242,0.242 0 0 0 -0.242,-0.24 h -0.778 l -1.968,-4.174 a 0.496,0.496 0 0 1 -0.004,-0.067 c 0,-0.077 0.028,-0.15 0.074,-0.205 0.443,-0.333 0.73,-0.86 0.73,-1.455 0,-0.86 -0.6,-1.575 -1.406,-1.77 v -0.4 c 0,-0.247 -0.2,-0.447 -0.449,-0.447 z m 0.43,1.648 a 1.05,1.05 0 0 1 -0.412,2.018 1.049,1.049 0 0 1 -1.056,-1.049 c 0,-0.42 0.253,-0.778 0.613,-0.945 0.056,0.183 0.22,0.32 0.424,0.32 a 0.443,0.443 0 0 0 0.43,-0.344 z m -0.42,3.489 h 0.018 c 0.056,0 0.107,0.028 0.138,0.068 l 1.562,3.312 h -1.346 v -0.388 a 0.369,0.369 0 0 0 -0.371,-0.367 h -0.02 a 0.37,0.37 0 0 0 -0.37,0.367 v 0.388 h -1.313 l 1.562,-3.312 a 0.18,0.18 0 0 1 0.14,-0.068 z"
     opacity="0.4"
     id="path27" />
</svg>
