<?xml version="1.0" encoding="UTF-8" standalone="no"?>
<svg
   width="32"
   height="32"
   version="1.1"
   id="svg29"
   sodipodi:docname="application-x-partial-download.svg"
   inkscape:version="1.1.1 (3bf5ae0d25, 2021-09-20)"
   xmlns:inkscape="http://www.inkscape.org/namespaces/inkscape"
   xmlns:sodipodi="http://sodipodi.sourceforge.net/DTD/sodipodi-0.dtd"
   xmlns:xlink="http://www.w3.org/1999/xlink"
   xmlns="http://www.w3.org/2000/svg"
   xmlns:svg="http://www.w3.org/2000/svg">
  <sodipodi:namedview
     id="namedview31"
     pagecolor="#ffffff"
     bordercolor="#666666"
     borderopacity="1.0"
     inkscape:pageshadow="2"
     inkscape:pageopacity="0.0"
     inkscape:pagecheckerboard="0"
     showgrid="false"
     inkscape:zoom="19.625"
     inkscape:cx="16"
     inkscape:cy="16"
     inkscape:window-width="1920"
     inkscape:window-height="1007"
     inkscape:window-x="0"
     inkscape:window-y="0"
     inkscape:window-maximized="1"
     inkscape:current-layer="svg29" />
  <defs
     id="defs13">
    <linearGradient
       id="c"
       y1="524.8"
       x1="404.57"
       y2="531.8"
       x2="411.57"
       gradientUnits="userSpaceOnUse"
       gradientTransform="translate(-384.57 -515.8)">
      <stop
         stop-color="#383e51"
         id="stop2" />
      <stop
         offset="1"
         stop-color="#655c6f"
         stop-opacity="0"
         id="stop4" />
    </linearGradient>
    <linearGradient
       id="a"
       y1="392.36"
       y2="365.36"
       x2="0"
       gradientUnits="userSpaceOnUse"
       gradientTransform="translate(309.57 152.44)">
      <stop
         stop-color="#fff"
         stop-opacity="0"
         id="stop7" />
      <stop
         offset="1"
         stop-color="#fff"
         stop-opacity=".2"
         id="stop9" />
    </linearGradient>
    <linearGradient
       xlink:href="#a"
       id="b"
       gradientUnits="userSpaceOnUse"
       gradientTransform="translate(-20)"
       x1="5"
       y1="30"
       x2="5"
       y2="2" />
  </defs>
  <path
     d="M8 2C6.338 2 5 3.338 5 5v24l2.75-2 2.75 2 2.75-2L16 29l2.75-2 2.75 2 2.75-2L27 29V9l-7-7H8z"
     fill="#ccc"
     id="path15" />
  <path
     d="M8 2a2.99 2.99 0 00-2.123.877c-.031.031-.02.09-.05.123H20V2z"
     color="#000"
     opacity=".5"
     fill="#fff"
     id="path17" />
  <path
     d="M 8,2 C 6.338,2 5,3.338 5,5 V 30 H 27 V 9 L 20,2 Z"
     opacity="0.4"
     fill="url(#b)"
     id="path19"
     style="fill:url(#b)" />
  <path
     d="M27 9l-7-7v7z"
     opacity=".5"
     fill="#fff"
     fill-rule="evenodd"
     id="path21" />
  <path
     d="M27 16l-7-7h7z"
     opacity=".2"
     fill="url(#c)"
     fill-rule="evenodd"
     id="path23" />
  <path
     d="m 16.262,10.91588 a 6,6 0 1 0 0,12 6,6 0 0 0 0,-12 m 0,1 a 5.0005,5.0005 0 1 1 -0.001,10.001 5.0005,5.0005 0 0 1 0.001,-10.001 m -1,1 v 5 h 5 v -1 h -4 v -4 z"
     opacity="0.5"
     id="path25" />
  <path
     d="M7.75 27L5 29v1l2.75-2 2.75 2 2.75-2L16 30l2.75-2 2.75 2 2.75-2L27 30v-1l-2.75-2-2.75 2-2.75-2L16 29l-2.75-2-2.75 2z"
     color="#000"
     opacity=".25"
     id="path27" />
</svg>
