<?xml version="1.0" encoding="UTF-8" standalone="no"?>
<svg
   width="32"
   height="32"
   version="1.1"
   id="svg29"
   sodipodi:docname="application-x-trash.svg"
   inkscape:version="1.1.1 (3bf5ae0d25, 2021-09-20)"
   xmlns:inkscape="http://www.inkscape.org/namespaces/inkscape"
   xmlns:sodipodi="http://sodipodi.sourceforge.net/DTD/sodipodi-0.dtd"
   xmlns:xlink="http://www.w3.org/1999/xlink"
   xmlns="http://www.w3.org/2000/svg"
   xmlns:svg="http://www.w3.org/2000/svg">
  <sodipodi:namedview
     id="namedview31"
     pagecolor="#ffffff"
     bordercolor="#666666"
     borderopacity="1.0"
     inkscape:pageshadow="2"
     inkscape:pageopacity="0.0"
     inkscape:pagecheckerboard="0"
     showgrid="false"
     inkscape:zoom="19.625"
     inkscape:cx="16"
     inkscape:cy="16"
     inkscape:window-width="1920"
     inkscape:window-height="1007"
     inkscape:window-x="0"
     inkscape:window-y="0"
     inkscape:window-maximized="1"
     inkscape:current-layer="svg29" />
  <defs
     id="defs13">
    <linearGradient
       id="c"
       y1="524.8"
       x1="404.57"
       y2="531.8"
       x2="411.57"
       gradientUnits="userSpaceOnUse"
       gradientTransform="translate(-384.57 -515.8)">
      <stop
         stop-color="#383e51"
         id="stop2" />
      <stop
         offset="1"
         stop-color="#655c6f"
         stop-opacity="0"
         id="stop4" />
    </linearGradient>
    <linearGradient
       xlink:href="#a"
       id="b"
       x1="5"
       y1="30"
       x2="5"
       y2="2"
       gradientUnits="userSpaceOnUse"
       gradientTransform="translate(-19.999999)" />
    <linearGradient
       id="a"
       y1="392.36"
       y2="365.36"
       x2="0"
       gradientUnits="userSpaceOnUse"
       gradientTransform="translate(309.57 152.44)">
      <stop
         stop-color="#fff"
         stop-opacity="0"
         id="stop8" />
      <stop
         offset="1"
         stop-color="#fff"
         stop-opacity=".2"
         id="stop10" />
    </linearGradient>
  </defs>
  <path
     d="M20 2H8C6.338 2 5 3.338 5 5v22c0 1.662 1.338 3 3 3h16c1.662 0 3-1.338 3-3V9z"
     fill="#2cbd2c"
     id="path15" />
  <path
     d="M8 2a2.99 2.99 0 00-2.123.877c-.031.031-.02.09-.05.123H20V2z"
     color="#000"
     opacity=".5"
     fill="#fff"
     id="path17" />
  <path
     d="M5.826 29c.03.033.02.092.051.123A2.99 2.99 0 008 30h16a2.99 2.99 0 002.123-.877c.031-.031.02-.09.05-.123z"
     color="#000"
     opacity=".25"
     id="path19" />
  <path
     d="M 20,2 H 8.0000005 c -1.662,0 -3,1.338 -3,3 v 22 c 0,1.662 1.338,3 3,3 H 24 c 1.662,0 3,-1.338 3,-3 V 9 Z"
     opacity="0.4"
     fill="url(#b)"
     id="path21"
     style="fill:url(#b)" />
  <path
     d="M27 9l-7-7v7z"
     fill-rule="evenodd"
     opacity=".6"
     id="path23" />
  <path
     d="M27 16l-7-7h7z"
     opacity=".2"
     fill="url(#c)"
     fill-rule="evenodd"
     id="path25" />
  <path
     d="m 12.123252,20.31362 c -0.122,0.219 -0.22,0.549 -0.22,0.756 0,0.049 0,0.11 0.013,0.195 l -1.525,-2.622 a 0.68,0.68 0 0 1 -0.085,-0.317 c 0,-0.11 0.036,-0.244 0.085,-0.33 l 0.732,-1.28 -0.817,-0.463 2.659,-0.05 1.293,2.33 -0.83,-0.476 -1.305,2.257 m 1.171,-7.392 c 0.232,-0.403 0.61,-0.623 1.073,-0.623 0.5,0 0.891,0.232 1.171,0.707 l 0.415,0.696 -1.44,2.489 -2.329,-1.354 1.11,-1.915 m 0.17,9.502 a 1.275,1.275 0 0 1 -1.268,-1.269 c 0,-0.195 0.086,-0.525 0.208,-0.732 l 0.39,-0.695 h 2.89 v 2.696 h -2.22 m 2.318,-9.576 a 1.495,1.495 0 0 0 -0.72,-0.659 h 3.002 c 0.268,0 0.475,0.11 0.598,0.318 l 0.744,1.269 0.804,-0.477 -1.293,2.319 -2.647,-0.038 0.817,-0.463 -1.305,-2.269 m 4.623,6.904 c 0.366,0 0.67,-0.098 0.927,-0.293 l -1.513,2.635 a 0.676,0.676 0 0 1 -0.597,0.329 h -1.428 v 0.939 l -1.366,-2.28 1.366,-2.282 v 0.952 h 2.611 m 1.17,-2.196 c 0.11,0.195 0.172,0.402 0.172,0.622 0,0.44 -0.281,0.903 -0.671,1.122 -0.183,0.098 -0.44,0.16 -0.695,0.16 h -0.806 l -1.439,-2.49 2.33,-1.33 1.11,1.916"
     opacity="0.7"
     id="path27" />
</svg>
