<?xml version="1.0" encoding="UTF-8" standalone="no"?>
<svg
   width="32"
   height="32"
   version="1.1"
   id="svg29"
   sodipodi:docname="application-pgp-signature.svg"
   inkscape:version="1.1.1 (3bf5ae0d25, 2021-09-20)"
   xmlns:inkscape="http://www.inkscape.org/namespaces/inkscape"
   xmlns:sodipodi="http://sodipodi.sourceforge.net/DTD/sodipodi-0.dtd"
   xmlns:xlink="http://www.w3.org/1999/xlink"
   xmlns="http://www.w3.org/2000/svg"
   xmlns:svg="http://www.w3.org/2000/svg">
  <sodipodi:namedview
     id="namedview31"
     pagecolor="#ffffff"
     bordercolor="#666666"
     borderopacity="1.0"
     inkscape:pageshadow="2"
     inkscape:pageopacity="0.0"
     inkscape:pagecheckerboard="0"
     showgrid="false"
     inkscape:zoom="19.625"
     inkscape:cx="16"
     inkscape:cy="16"
     inkscape:window-width="1920"
     inkscape:window-height="1007"
     inkscape:window-x="0"
     inkscape:window-y="0"
     inkscape:window-maximized="1"
     inkscape:current-layer="svg29" />
  <defs
     id="defs13">
    <linearGradient
       id="c"
       y1="524.8"
       x1="404.57"
       y2="531.8"
       x2="411.57"
       gradientUnits="userSpaceOnUse"
       gradientTransform="translate(-384.57 -515.8)">
      <stop
         stop-color="#383e51"
         id="stop2" />
      <stop
         offset="1"
         stop-color="#655c6f"
         stop-opacity="0"
         id="stop4" />
    </linearGradient>
    <linearGradient
       xlink:href="#a"
       id="b"
       x1="5"
       y1="30"
       x2="5"
       y2="2"
       gradientUnits="userSpaceOnUse"
       gradientTransform="translate(-20)" />
    <linearGradient
       id="a"
       y1="392.36"
       y2="365.36"
       x2="0"
       gradientUnits="userSpaceOnUse"
       gradientTransform="translate(309.57 152.44)">
      <stop
         stop-color="#fff"
         stop-opacity="0"
         id="stop8" />
      <stop
         offset="1"
         stop-color="#fff"
         stop-opacity=".2"
         id="stop10" />
    </linearGradient>
  </defs>
  <path
     d="M20 2H8C6.338 2 5 3.338 5 5v22c0 1.662 1.338 3 3 3h16c1.662 0 3-1.338 3-3V9z"
     fill="#2cbd2c"
     id="path15" />
  <path
     d="m 20.986651,10.420197 a 0.37,0.37 0 0 0 -0.205,0.059 c -0.035,0.024 -0.19,0.208 -0.342,0.408 l -0.275,0.367 -0.1,-0.068 c -0.138,-0.093 -0.273,-0.113 -0.398,-0.057 -0.087,0.039 -0.29,0.3 -1.631,2.065 -0.846,1.112 -1.535,2.03 -1.533,2.045 0.001,0.012 0.34,0.28 0.752,0.592 l 0.752,0.57 1,-1.317 c 0.55,-0.725 1.008,-1.312 1.02,-1.304 0.034,0.026 0.095,0.597 0.081,0.781 -0.005,0.1 -0.042,0.281 -0.082,0.4 -0.07,0.214 -0.079,0.227 -1.318,1.866 -0.686,0.906 -1.255,1.674 -1.266,1.705 -0.03,0.084 0.001,0.241 0.065,0.332 0.105,0.153 0.37,0.201 0.52,0.093 0.103,-0.074 2.558,-3.342 2.636,-3.513 0.229,-0.487 0.279,-1.113 0.139,-1.729 a 4,4 0 0 0 -0.2,-0.646 c -0.02,-0.046 0.015,-0.105 0.245,-0.41 0.217,-0.292 0.267,-0.374 0.271,-0.45 0.01,-0.16 -0.04,-0.25 -0.197,-0.375 l -0.147,-0.115 0.295,-0.392 c 0.242,-0.324 0.293,-0.409 0.297,-0.485 a 0.394,0.394 0 0 0 -0.379,-0.422 z m -4.959,5.428 c -0.007,10e-4 -0.908,1.186 -2.004,2.631 -1.763,2.326 -2.014,2.67 -2.177,2.967 -0.324,0.59 -0.678,1.49 -0.915,2.312 -0.153,0.528 -0.159,0.479 0.051,0.367 0.648,-0.345 1.495,-0.906 1.989,-1.32 0.482,-0.405 0.564,-0.51 2.613,-3.209 l 1.97,-2.6 -0.757,-0.576 a 25.207,25.207 0 0 0 -0.77,-0.572 z m 0.217,6.026 a 1.116,1.116 0 0 0 -0.26,0.011 c -0.304,0.065 -0.643,0.329 -0.806,0.633 a 2.833,2.833 0 0 0 -0.159,0.393 4.053,4.053 0 0 1 -0.082,0.255 c -0.023,0.03 -0.607,0.17 -0.949,0.229 -0.806,0.141 -1.026,0.194 -1.105,0.268 -0.155,0.144 -0.035,0.286 0.185,0.222 0.06,-0.018 0.307,-0.066 0.547,-0.107 0.24,-0.041 0.608,-0.117 0.816,-0.164 0.208,-0.05 0.384,-0.083 0.393,-0.074 0.009,0.009 -0.026,0.177 -0.082,0.373 l -0.1,0.351 -0.22,0.098 a 3.03,3.03 0 0 0 -0.383,0.205 c -0.275,0.182 -0.33,0.41 -0.137,0.557 0.106,0.079 0.4,0.075 0.58,-0.004 0.161,-0.073 0.253,-0.177 0.38,-0.444 0.066,-0.138 0.118,-0.21 0.16,-0.218 0.031,-0.01 0.323,-0.067 0.646,-0.135 0.322,-0.064 0.614,-0.126 0.652,-0.135 0.062,-0.015 0.068,-0.01 0.05,0.047 a 1.818,1.818 0 0 1 -0.12,0.228 0.658,0.658 0 0 0 -0.1,0.243 c 0,0.09 0.077,0.182 0.139,0.158 a 0.264,0.264 0 0 1 0.068,-0.018 c 0.015,0 0.08,-0.046 0.145,-0.105 0.12,-0.108 0.41,-0.64 0.41,-0.75 0,-0.056 0.044,-0.072 0.07,-0.028 0.01,0.015 0.076,0.043 0.149,0.06 0.103,0.027 0.132,0.048 0.132,0.095 0,0.09 0.15,0.222 0.282,0.248 a 0.698,0.698 0 0 0 0.375,-0.063 c 0.05,-0.02 0.053,-0.014 0.035,0.063 a 1.959,1.959 0 0 1 -0.19,0.334 c -0.193,0.287 -0.427,0.744 -0.488,0.947 -0.05,0.173 -0.028,0.302 0.063,0.363 0.082,0.053 0.217,0.03 0.287,-0.047 0.062,-0.067 0.394,-0.773 0.517,-1.095 0.088,-0.226 0.13,-0.287 0.328,-0.498 0.164,-0.173 0.217,-0.216 0.182,-0.149 -0.059,0.126 -0.055,0.223 0.01,0.281 0.138,0.126 0.337,0.005 0.51,-0.312 0.103,-0.188 0.18,-0.245 0.56,-0.424 l 0.2,-0.09 -0.022,0.108 a 2.27,2.27 0 0 1 -0.148,0.369 c -0.138,0.29 -0.164,0.475 -0.082,0.633 0.056,0.108 0.112,0.11 0.382,0.017 0.375,-0.126 0.867,-0.415 0.993,-0.582 0.173,-0.234 0.225,-0.46 0.119,-0.537 -0.108,-0.079 -0.169,-0.046 -0.307,0.156 -0.185,0.275 -0.415,0.489 -0.635,0.598 -0.103,0.053 -0.192,0.087 -0.2,0.078 -0.013,-0.012 0.223,-0.641 0.349,-0.937 a 0.595,0.595 0 0 0 0.047,-0.17 c 0,-0.082 -0.105,-0.176 -0.192,-0.176 -0.04,0 -0.234,0.08 -0.428,0.18 -0.402,0.199 -0.373,0.216 -0.271,-0.159 0.062,-0.23 0.04,-0.293 -0.102,-0.308 -0.135,-0.015 -0.187,0.03 -0.31,0.25 -0.08,0.149 -0.185,0.272 -0.387,0.459 -0.267,0.246 -0.278,0.255 -0.34,0.21 -0.094,-0.066 -0.147,-0.058 -0.375,0.057 -0.223,0.111 -0.295,0.126 -0.351,0.059 -0.047,-0.056 0.025,-0.085 0.433,-0.164 0.396,-0.076 0.446,-0.098 0.446,-0.18 0,-0.132 -0.11,-0.257 -0.303,-0.342 -0.334,-0.149 -0.373,-0.159 -0.52,-0.12 -0.158,0.04 -0.391,0.268 -0.423,0.408 -0.032,0.147 -0.133,0.103 -0.133,-0.06 0,-0.066 -0.082,-0.237 -0.13,-0.267 -0.1,-0.067 -0.259,0.08 -0.382,0.35 l -0.098,0.207 -0.216,0.047 a 75.83,75.83 0 0 1 -1.208,0.246 c -0.07,0.012 -0.083,0.006 -0.068,-0.035 0.012,-0.03 0.047,-0.157 0.082,-0.29 0.091,-0.362 0.118,-0.41 0.25,-0.456 0.158,-0.056 0.691,-0.285 0.828,-0.356 a 1.74,1.74 0 0 0 0.293,-0.22 c 0.296,-0.275 0.344,-0.53 0.133,-0.717 a 0.871,0.871 0 0 0 -0.17,-0.117 0.927,0.927 0 0 0 -0.244,-0.041 z m -0.145,0.345 c 0.155,0.01 0.216,0.024 0.26,0.07 0.06,0.06 0.06,0.063 0.006,0.174 a 0.688,0.688 0 0 1 -0.22,0.223 c -0.18,0.123 -0.738,0.35 -0.756,0.309 -0.024,-0.067 0.154,-0.469 0.27,-0.598 0.151,-0.173 0.196,-0.192 0.44,-0.178 z m -1.654,2.453 c 0.022,0.002 0.021,0.02 0.004,0.055 -0.038,0.073 -0.138,0.127 -0.193,0.107 -0.064,-0.026 -0.047,-0.063 0.056,-0.115 a 0.34,0.34 0 0 1 0.133,-0.047 z"
     opacity="0.4"
     id="path17" />
  <path
     d="M8 2a2.99 2.99 0 00-2.123.877c-.031.031-.02.09-.05.123H20V2z"
     color="#000"
     opacity=".5"
     fill="#fff"
     id="path19" />
  <path
     d="M5.826 29c.03.033.02.092.051.123A2.99 2.99 0 008 30h16a2.99 2.99 0 002.123-.877c.031-.031.02-.09.05-.123z"
     color="#000"
     opacity=".25"
     id="path21" />
  <path
     d="M 20,2 H 7.9999996 c -1.662,0 -3,1.338 -3,3 v 22 c 0,1.661999 1.338,3 3,3 H 24 c 1.662,0 3,-1.338001 3,-3 V 9 Z"
     opacity="0.4"
     fill="url(#b)"
     id="path23"
     style="fill:url(#b)" />
  <path
     d="M27 9l-7-7v7z"
     opacity=".4"
     fill-rule="evenodd"
     id="path25" />
  <path
     d="M27 16l-7-7h7z"
     opacity=".2"
     fill="url(#c)"
     fill-rule="evenodd"
     id="path27" />
</svg>
