<?xml version="1.0" encoding="UTF-8" standalone="no"?>
<svg
   inkscape:version="1.1.2 (0a00cf5339, 2022-02-04)"
   sodipodi:docname="application-vnd.kde.kleopatra.keygroup.svg"
   id="svg37"
   version="1.1"
   height="32"
   width="32"
   xmlns:inkscape="http://www.inkscape.org/namespaces/inkscape"
   xmlns:sodipodi="http://sodipodi.sourceforge.net/DTD/sodipodi-0.dtd"
   xmlns="http://www.w3.org/2000/svg"
   xmlns:svg="http://www.w3.org/2000/svg">
  <sodipodi:namedview
     inkscape:current-layer="svg37"
     showgrid="true"
     id="namedview39"
     inkscape:window-height="1015"
     inkscape:window-width="1920"
     inkscape:pageshadow="2"
     inkscape:pageopacity="0"
     guidetolerance="10"
     gridtolerance="10"
     objecttolerance="10"
     borderopacity="1"
     bordercolor="#666666"
     pagecolor="#ffffff"
     inkscape:pagecheckerboard="0"
     inkscape:zoom="19.4375"
     inkscape:cx="16"
     inkscape:cy="15.974277"
     inkscape:window-x="0"
     inkscape:window-y="0"
     inkscape:window-maximized="1">
    <inkscape:grid
       type="xygrid"
       id="grid838" />
  </sodipodi:namedview>
  <defs
     id="defs17">
    <linearGradient
       gradientTransform="matrix(.5 0 0-.48276 384.57 547.25)"
       gradientUnits="userSpaceOnUse"
       x2="0"
       y2="3"
       y1="61"
       id="a">
      <stop
         offset="0"
         stop-color="#d91e18"
         id="stop4" />
      <stop
         offset="1"
         stop-color="#cf000f"
         id="stop2" />
    </linearGradient>
    <linearGradient
       gradientUnits="userSpaceOnUse"
       x2="0"
       y2="524.8"
       y1="518.04"
       id="b">
      <stop
         offset="0"
         stop-color="#fcbcbe"
         id="stop9" />
      <stop
         offset="1"
         stop-color="#fb7d80"
         id="stop7" />
    </linearGradient>
    <linearGradient
       gradientUnits="userSpaceOnUse"
       x2="411.57"
       y2="531.8"
       x1="404.57"
       y1="524.8"
       id="c">
      <stop
         id="stop12"
         stop-color="#383e51" />
      <stop
         id="stop14"
         stop-opacity="0"
         stop-color="#655c6f"
         offset="1" />
    </linearGradient>
  </defs>
  <g
     id="g35"
     transform="translate(-384.57,-515.8)">
    <path
       id="path19"
       d="m 389.57,542.8 v -22 c 0,-2 1,-3 2.92876,-3 H 404.57 l 7,7 v 17.93379 c 0,2.06621 -1,3.06621 -3,3.06621 h -4 -12.05145 c -1.94855,0 -2.94855,-1 -2.94855,-3 z"
       fill="url(#a)"
       sodipodi:nodetypes="cccccccccc" />
    <g
       id="g25"
       transform="scale(1,-1)" />
    <g
       id="g31"
       fill-rule="evenodd">
      <path
         id="path27"
         d="m 411.57,524.8 -7,-7 v 7 z"
         fill="url(#b)" />
      <path
         id="path29"
         d="m 411.57,531.8 -7,-7 h 7 z"
         fill="url(#c)"
         opacity="0.2" />
    </g>
    <path
       id="path33"
       d="m 400.64,526.65 c -2.02,0 -3.644,1.625 -3.644,3.644 0,1.178 0.556,2.218 1.417,2.883 v 5.62 l 2.227,-1.62 2.227,1.62 v -5.62 c 0.862,-0.665 1.417,-1.706 1.417,-2.883 0,-2.02 -1.625,-3.644 -3.644,-3.644"
       fill="#fcbcbe" />
  </g>
  <path
     d="m 5.553,29 c 0.030588,0.033 0.020392,0.092 0.052004,0.123 A 3.04878,2.99 0 0 0 7.7697384,30 H 24.08428 a 3.04878,2.99 0 0 0 2.164736,-0.877 C 26.280628,29.092 26.269412,29.033 26.3,29 Z"
     color="#000000"
     opacity="0.25"
     id="path24"
     style="stroke-width:1.00978" />
  <path
     d="M 7.745996,2 A 3.0532895,2.99 0 0 0 5.5780584,2.877 C 5.5464023,2.908 5.5576351,2.967 5.527,3 H 20 V 2 Z"
     color="#000000"
     opacity="0.5"
     fill="#ffffff"
     id="path22"
     style="stroke-width:1.01053" />
</svg>
