<?xml version="1.0" encoding="UTF-8" standalone="no"?>
<svg
   width="32"
   height="32"
   version="1.1"
   id="svg34"
   sodipodi:docname="image-vnd.adobe.photoshop.svg"
   inkscape:version="1.1.1 (3bf5ae0d25, 2021-09-20)"
   xmlns:inkscape="http://www.inkscape.org/namespaces/inkscape"
   xmlns:sodipodi="http://sodipodi.sourceforge.net/DTD/sodipodi-0.dtd"
   xmlns:xlink="http://www.w3.org/1999/xlink"
   xmlns="http://www.w3.org/2000/svg"
   xmlns:svg="http://www.w3.org/2000/svg">
  <sodipodi:namedview
     id="namedview36"
     pagecolor="#ffffff"
     bordercolor="#666666"
     borderopacity="1.0"
     inkscape:pageshadow="2"
     inkscape:pageopacity="0.0"
     inkscape:pagecheckerboard="0"
     showgrid="false"
     inkscape:zoom="19.625"
     inkscape:cx="16"
     inkscape:cy="16"
     inkscape:window-width="1920"
     inkscape:window-height="1007"
     inkscape:window-x="0"
     inkscape:window-y="0"
     inkscape:window-maximized="1"
     inkscape:current-layer="svg34" />
  <defs
     id="defs18">
    <linearGradient
       id="c"
       y1="17"
       x1="47"
       y2="24"
       gradientUnits="userSpaceOnUse"
       x2="54"
       gradientTransform="translate(-24 -5)">
      <stop
         stop-color="#060606"
         id="stop2" />
      <stop
         offset="1"
         stop-opacity="0"
         id="stop4" />
    </linearGradient>
    <linearGradient
       spreadMethod="pad"
       x1="0"
       gradientTransform="matrix(1 0 0 .84587 11 536.63)"
       x2="0"
       gradientUnits="userSpaceOnUse"
       y2="320.48"
       y1="392.36"
       id="a">
      <stop
         stop-opacity="0"
         stop-color="#fff"
         id="stop7" />
      <stop
         stop-color="#fff"
         offset="1"
         id="stop9" />
    </linearGradient>
    <linearGradient
       xlink:href="#b"
       id="d"
       x1="-.978"
       y1="29.155"
       x2="-.978"
       y2="-1.341"
       gradientUnits="userSpaceOnUse"
       gradientTransform="translate(-20,0.004)" />
    <linearGradient
       id="b"
       y1="392.36"
       y2="320.48"
       gradientUnits="userSpaceOnUse"
       x2="0"
       gradientTransform="matrix(.5 0 0 .42294 418.57 378.93)">
      <stop
         stop-color="#fff"
         stop-opacity="0"
         id="stop13" />
      <stop
         offset="1"
         stop-color="#fff"
         stop-opacity=".2"
         id="stop15" />
    </linearGradient>
  </defs>
  <path
     d="M23.002 5.002H4.998c-1.662 0-3 1.338-3 3v19c0 1.662 1.338 3 3 3h22c1.662 0 3-1.338 3-3V11.998l-6.996-6.996z"
     fill="#0c2d63"
     id="path20" />
  <path
     d="M30 12l-7-7v7z"
     style="isolation:auto;mix-blend-mode:normal;solid-color:#000;solid-opacity:1;filter-blend-mode:normal;filter-gaussianBlur-deviation:0"
     fill="#1d70f7"
     color="#000"
     overflow="visible"
     id="path22" />
  <path
     d="M23 12l7 7v-7z"
     opacity=".2"
     fill="url(#c)"
     fill-rule="evenodd"
     id="path24" />
  <path
     style="isolation:auto;mix-blend-mode:normal;solid-color:#000000;solid-opacity:1"
     d="m 12.780205,12.439098 a 3.689,3.689 0 0 0 -3.6969995,3.697 c 0,0.675 0.182,1.305 0.496,1.848 l -0.003,-0.001 0.051,0.08 c 0.036,0.058 0.07,0.117 0.108,0.172 l 4.8939995,7.757 v -6.16 h 4.312 a 3.689,3.689 0 0 0 3.697,-3.698 3.689,3.689 0 0 0 -3.697,-3.696 z m 6.16,1.232 a 2.464,2.464 0 0 1 2.465,2.465 2.464,2.464 0 0 1 -2.464,2.464 2.464,2.464 0 0 1 -2.465,-2.464 2.464,2.464 0 0 1 2.465,-2.465"
     color="#000000"
     overflow="visible"
     fill="#1d70f7"
     id="path26" />
  <path
     d="M 23.004,5.004 H 4.9999996 c -1.662,0 -3,1.338 -3,3 v 19 c 0,1.662 1.338,3 3,3 H 27 c 1.662,0 3,-1.338 3,-3 V 12 Z"
     fill="url(#d)"
     id="path28"
     style="fill:url(#d)" />
  <path
     d="M29.998 25.758a2.99 2.99 0 01-3 3h-22a2.99 2.99 0 01-3-3v1.244c0 1.662 1.338 3 3 3h22c1.662 0 3-1.338 3-3z"
     opacity=".25"
     id="path30" />
  <path
     d="M23 5.002H4.998c-1.662 0-3 1.338-3 3v1.156a2.99 2.99 0 013-3H23z"
     opacity=".5"
     fill="#fff"
     id="path32" />
</svg>
