<?xml version="1.0" encoding="UTF-8" standalone="no"?>
<svg
   width="32"
   height="32"
   version="1.1"
   id="svg34"
   sodipodi:docname="text-x-lua.svg"
   inkscape:version="1.1.1 (3bf5ae0d25, 2021-09-20)"
   xmlns:inkscape="http://www.inkscape.org/namespaces/inkscape"
   xmlns:sodipodi="http://sodipodi.sourceforge.net/DTD/sodipodi-0.dtd"
   xmlns:xlink="http://www.w3.org/1999/xlink"
   xmlns="http://www.w3.org/2000/svg"
   xmlns:svg="http://www.w3.org/2000/svg">
  <sodipodi:namedview
     id="namedview36"
     pagecolor="#ffffff"
     bordercolor="#666666"
     borderopacity="1.0"
     inkscape:pageshadow="2"
     inkscape:pageopacity="0.0"
     inkscape:pagecheckerboard="0"
     showgrid="false"
     inkscape:zoom="19.625"
     inkscape:cx="16"
     inkscape:cy="16"
     inkscape:window-width="1920"
     inkscape:window-height="1007"
     inkscape:window-x="0"
     inkscape:window-y="0"
     inkscape:window-maximized="1"
     inkscape:current-layer="svg34" />
  <defs
     id="defs18">
    <linearGradient
       gradientTransform="matrix(.5 0 0 -.48276 10 31.448)"
       gradientUnits="userSpaceOnUse"
       x2="0"
       y2="3"
       y1="61"
       id="a">
      <stop
         offset="0"
         stop-color="#3f5aa9"
         id="stop2" />
      <stop
         stop-color="#3a539b"
         offset="1"
         id="stop4" />
    </linearGradient>
    <linearGradient
       id="c"
       y1="2.241"
       y2="9"
       x2="0"
       gradientUnits="userSpaceOnUse">
      <stop
         stop-color="#97aad8"
         id="stop7" />
      <stop
         offset="1"
         stop-color="#c1cae7"
         id="stop9" />
    </linearGradient>
    <linearGradient
       id="d"
       y1="9"
       x1="20"
       y2="16"
       x2="27"
       gradientUnits="userSpaceOnUse">
      <stop
         stop-color="#383e51"
         id="stop12" />
      <stop
         offset="1"
         stop-color="#655c6f"
         stop-opacity="0"
         id="stop14" />
    </linearGradient>
    <linearGradient
       xlink:href="#a"
       id="b"
       x1="5"
       y1="30"
       x2="5"
       y2="2"
       gradientUnits="userSpaceOnUse"
       gradientTransform="translate(-20)" />
  </defs>
  <path
     d="M 20,2 H 8.0000004 c -1.662,0 -3,1.338 -3,3 v 22 c 0,1.662 1.338,3 3,3 H 24 c 1.662,0 3,-1.338 3,-3 V 9 Z"
     fill="url(#b)"
     id="path20"
     style="fill:url(#b)" />
  <path
     d="M8 2a2.99 2.99 0 00-2.123.877c-.031.031-.02.09-.05.123H20V2z"
     color="#000"
     opacity=".5"
     fill="#fff"
     id="path22" />
  <path
     d="M5.826 29c.03.033.02.092.051.123A2.99 2.99 0 008 30h16a2.99 2.99 0 002.123-.877c.031-.031.02-.09.05-.123z"
     color="#000"
     opacity=".25"
     id="path24" />
  <g
     fill-rule="evenodd"
     id="g30">
    <path
       fill="url(#c)"
       d="M27 9l-7-7v7z"
       id="path26" />
    <path
       opacity=".2"
       fill="url(#d)"
       d="M27 16l-7-7h7z"
       id="path28" />
  </g>
  <path
     fill="#c1cae7"
     color="#4d4d4d"
     d="m 20.348882,12.101911 a 1.5,1.5 0 0 0 -1.5,1.5 1.5,1.5 0 0 0 1.5,1.5 1.5,1.5 0 0 0 1.5,-1.5 1.5,1.5 0 0 0 -1.5,-1.5 m -5,1 a 5.5,5.5 0 0 0 -5.5000004,5.5 5.5,5.5 0 0 0 5.5000004,5.5 5.5,5.5 0 0 0 5.5,-5.5 5.5,5.5 0 0 0 -1.283,-3.523 2,2 0 0 1 0.283,1.023 2,2 0 0 1 -2,2 2,2 0 0 1 -2,-2 2,2 0 0 1 2,-2 2,2 0 0 1 1.053,0.303 5.5,5.5 0 0 0 -3.553,-1.303"
     id="path32" />
</svg>
