<?xml version="1.0" encoding="UTF-8" standalone="no"?>
<svg
   width="32"
   height="32"
   version="1.1"
   id="svg29"
   sodipodi:docname="text-dockerfile.svg"
   inkscape:version="1.1.1 (3bf5ae0d25, 2021-09-20)"
   xmlns:inkscape="http://www.inkscape.org/namespaces/inkscape"
   xmlns:sodipodi="http://sodipodi.sourceforge.net/DTD/sodipodi-0.dtd"
   xmlns:xlink="http://www.w3.org/1999/xlink"
   xmlns="http://www.w3.org/2000/svg"
   xmlns:svg="http://www.w3.org/2000/svg">
  <sodipodi:namedview
     id="namedview31"
     pagecolor="#ffffff"
     bordercolor="#666666"
     borderopacity="1.0"
     inkscape:pageshadow="2"
     inkscape:pageopacity="0.0"
     inkscape:pagecheckerboard="0"
     showgrid="false"
     inkscape:zoom="19.625"
     inkscape:cx="16"
     inkscape:cy="16"
     inkscape:window-width="1920"
     inkscape:window-height="1007"
     inkscape:window-x="0"
     inkscape:window-y="0"
     inkscape:window-maximized="1"
     inkscape:current-layer="svg29" />
  <defs
     id="defs13">
    <linearGradient
       id="c"
       y1="524.8"
       x1="404.57"
       y2="531.8"
       x2="411.57"
       gradientUnits="userSpaceOnUse"
       gradientTransform="translate(-384.57 -515.8)">
      <stop
         stop-color="#383e51"
         id="stop2" />
      <stop
         offset="1"
         stop-color="#655c6f"
         stop-opacity="0"
         id="stop4" />
    </linearGradient>
    <linearGradient
       xlink:href="#a"
       id="b"
       x1="5"
       y1="30"
       x2="5"
       y2="2"
       gradientUnits="userSpaceOnUse"
       gradientTransform="translate(-20)" />
    <linearGradient
       id="a"
       y1="392.36"
       y2="365.36"
       x2="0"
       gradientUnits="userSpaceOnUse"
       gradientTransform="translate(309.57 152.44)">
      <stop
         stop-color="#fff"
         stop-opacity="0"
         id="stop8" />
      <stop
         offset="1"
         stop-color="#fff"
         stop-opacity=".2"
         id="stop10" />
    </linearGradient>
  </defs>
  <path
     d="M20 2H8C6.338 2 5 3.338 5 5v22c0 1.662 1.338 3 3 3h16c1.662 0 3-1.338 3-3V9z"
     fill="#47cffb"
     id="path15" />
  <path
     d="M8 2a2.99 2.99 0 00-2.123.877c-.031.031-.02.09-.05.123H20V2z"
     color="#000"
     opacity=".5"
     fill="#fff"
     id="path17" />
  <path
     d="M5.826 29c.03.033.02.092.051.123A2.99 2.99 0 008 30h16a2.99 2.99 0 002.123-.877c.031-.031.02-.09.05-.123z"
     color="#000"
     opacity=".25"
     id="path19" />
  <path
     d="M 20,2 H 8.0000001 c -1.662,0 -3,1.338 -3,3 v 22 c 0,1.662 1.338,3 3,3 H 24 c 1.662,0 3,-1.338 3,-3 V 9 Z"
     opacity="0.4"
     fill="url(#b)"
     id="path21"
     style="fill:url(#b)" />
  <path
     d="M27 9l-7-7v7z"
     fill-rule="evenodd"
     opacity=".4"
     id="path23" />
  <path
     d="M27 16l-7-7h7z"
     opacity=".2"
     fill="url(#c)"
     fill-rule="evenodd"
     id="path25" />
  <path
     d="m 14.144268,12.481158 v 1.558 h 1.558 v -1.558 z m 2,0 v 1.558 h 1.558 v -1.558 z m 4.26,1.283 a 1.5,1.5 0 0 0 -0.602,1.623 1.5,1.5 0 0 0 1.332,1.105 1.5,1.5 0 0 0 1.412,1 1.5,1.5 0 0 0 1.412,-1 1.5,1.5 0 0 0 -1.412,-1 1.5,1.5 0 0 0 -0.848,0.266 1.5,1.5 0 0 0 -1.294,-1.994 z m 0.73,2.728 h -12 c 0,3.314 2.686,5 6,5 3.314,0 6,-1.686 6,-5 z m -9.559,-2.004 v 1.559 h 1.559 v -1.559 z m 2,0 v 1.559 h 1.559 v -1.559 z m 2,0 v 1.559 h 1.559 v -1.559 z m 2,0 v 1.559 h 1.559 v -1.559 z m -5.941,3.004 a 0.5,0.5 0 0 1 0.5,0.5 0.5,0.5 0 0 1 -0.5,0.5 0.5,0.5 0 0 1 -0.5,-0.5 0.5,0.5 0 0 1 0.5,-0.5 z"
     style="isolation:auto;mix-blend-mode:normal;solid-color:#000000;solid-opacity:1;marker:none"
     color="#000000"
     overflow="visible"
     opacity="0.4"
     stroke-width="0.132"
     id="path27" />
</svg>
