<?xml version="1.0" encoding="UTF-8" standalone="no"?>
<svg
   viewBox="0 0 22 22"
   version="1.1"
   id="svg1"
   sodipodi:docname="folder-linux-symbolic22.svg"
   xml:space="preserve"
   inkscape:version="1.4.2 (ebf0e940d0, 2025-05-08)"
   xmlns:inkscape="http://www.inkscape.org/namespaces/inkscape"
   xmlns:sodipodi="http://sodipodi.sourceforge.net/DTD/sodipodi-0.dtd"
   xmlns="http://www.w3.org/2000/svg"
   xmlns:svg="http://www.w3.org/2000/svg"><sodipodi:namedview
     id="namedview1"
     pagecolor="#505050"
     bordercolor="#ffffff"
     borderopacity="1"
     inkscape:showpageshadow="0"
     inkscape:pageopacity="0"
     inkscape:pagecheckerboard="1"
     inkscape:deskcolor="#505050"
     inkscape:zoom="52.545455"
     inkscape:cx="10.990484"
     inkscape:cy="11"
     inkscape:window-width="2556"
     inkscape:window-height="1364"
     inkscape:window-x="0"
     inkscape:window-y="0"
     inkscape:window-maximized="1"
     inkscape:current-layer="svg1" /><defs
     id="defs3051"><style
       type="text/css"
       id="current-color-scheme">
      .ColorScheme-Text {
        color:#eff0f1
      }
      </style></defs><path
     d="m 17.639672,16.10993 c -0.10622,-0.0969 -0.26557,-0.16872 -0.3718,-0.22183 -0.15934,-0.0625 -0.26557,-0.14372 -0.3718,-0.23746 -0.15934,-0.0968 -0.21246,-0.20621 -0.26557,-0.32181 l -0.0531,-0.39055 c -0.0531,-0.24995 -0.10623,-0.40929 -0.15934,-0.48115 -0.0531,-0.0719 -0.10623,-0.11561 -0.21246,-0.11561 0.10623,-0.34368 0.15934,-0.69986 0.15934,-1.06541 0,-0.73736 -0.15934,-1.42472 -0.42491,-1.95587 -0.21246,-0.58114 -0.58114,-1.1654 -1.05917,-1.69342 -0.21246,-0.31869 -0.42492,-0.58114 -0.58114,-0.84671 -0.15934,-0.21246 -0.26557,-0.42492 -0.3718,-0.63425 -0.10623,-0.15934 -0.15934,-0.3718 -0.21246,-0.58114 -0.0531,-0.26557 -0.0531,-0.47803 -0.10623,-0.63425 0,-0.15934 -0.0531,-0.3718 -0.0531,-0.68736 -0.0531,-0.37181 -0.0531,-0.63425 -0.10623,-0.89983 -0.0531,-0.42491 -0.15935,-0.74048 -0.26557,-1.05917 -0.15935,-0.26557 -0.31869,-0.53114 -0.53115,-0.68736 -0.15935,-0.15935 -0.3718,-0.26557 -0.58114,-0.3718 C 11.806472,3.11872 11.594012,3.0656 11.437792,3.0656 11.281572,3 11.122232,3 10.966012,3 c -0.42492,0 -0.7936,0.0531 -1.1122801,0.15934 -0.31869,0.10623 -0.53115,0.31869 -0.68737,0.53115 -0.18121,0.21246 -0.30307,0.47803 -0.3718,0.74048 -0.0687,0.26557 -0.1,0.53115 -0.1,0.89982 0,0.47804 0.025,1.00606 0.0781,1.5372 0.0594,0.53115 0.0844,0.84671 0.0844,0.95294 0,0.21246 -0.0531,0.47804 -0.1531,0.68737 -0.1,0.20933 -0.28119,0.47803 -0.55614,0.79359 l -0.3968,0.47804 c -0.31869,0.3718 -0.51865,0.74048 -0.60301,1.11228 -0.10623,0.42492 -0.19996,0.74048 -0.29056,0.95294 -0.0844,0.21246 -0.19997,0.42491 -0.35618,0.70923 l -0.18434,0.33431 c -0.19059,0.35618 -0.2812,0.62488 -0.2812,0.81547 -0.009,0.0312 -0.009,0.0844 -0.009,0.14372 0,0.0844 0.0219,0.1531 0.0625,0.20621 -0.0375,0.0437 -0.0625,0.0844 -0.0844,0.12185 -0.009,0.025 -0.0219,0.0594 -0.0312,0.0906 -0.009,0.0219 -0.0219,0.0687 -0.0469,0.13122 -0.0219,0.0625 -0.0531,0.13123 -0.0906,0.21871 -0.11248,0.0625 -0.18434,0.0906 -0.23433,0.0906 h -0.61238 c -0.1156,0 -0.22808,0.0687 -0.34368,0.19996 -0.1156,0.13122 -0.16872,0.31869 -0.16872,0.54989 0,0.075 0.0219,0.24995 0.0625,0.5249 0.0437,0.28119 0.0625,0.44054 0.0625,0.49365 0,0.0531 -0.009,0.10623 -0.0219,0.15935 -0.009,0.0594 -0.0312,0.10623 -0.0531,0.15309 -0.0219,0.0531 -0.0437,0.1 -0.075,0.14685 -0.0219,0.0531 -0.0531,0.10623 -0.0906,0.16559 -0.0375,0.0531 -0.075,0.11248 -0.10936,0.16872 -0.0375,0.0969 -0.0531,0.18746 -0.0531,0.27182 0,0.0844 0.0375,0.15934 0.10935,0.22496 0.0781,0.0656 0.18434,0.12185 0.31869,0.16246 0.13747,0.05 0.26557,0.0844 0.37493,0.10936 0.12185,0.025 0.25932,0.05 0.40929,0.0719 0.1531,0.025 0.24995,0.0437 0.29057,0.0531 0.42804,0.0969 0.9217,0.24371 1.47784,0.43429 0.54989,0.19996 0.95919,0.30307 1.21851,0.30307 0.41242,0 0.70924,-0.16559 0.97481,-0.48116 v 0.0156 c 0.3718,-0.18434 0.8998201,-0.27808 1.5903101,-0.27808 0.42492,0 1.11229,0.05 1.959,0.1531 0.15934,0.32181 0.42491,0.53427 0.84671,0.64675 l 0.3718,0.0437 c 0.21246,0 0.42492,-0.0469 0.58113,-0.14372 0.15935,-0.0906 0.37181,-0.23746 0.58114,-0.44367 l 0.53115,-0.44991 c 0.26557,-0.22495 0.53114,-0.41554 0.79359,-0.57176 0.31869,-0.14997 0.53115,-0.2562 0.63425,-0.30932 0.15935,-0.0469 0.26558,-0.12185 0.37181,-0.22808 0.10623,-0.0968 0.15934,-0.22808 0.15934,-0.40929 0.003,-0.11873 -0.05,-0.22808 -0.1531,-0.33431 m -3.64928,-5.6114 c 0.26557,0.0531 0.47803,0.21245 0.68736,0.53114 0.21246,0.31869 0.31869,0.68737 0.31869,1.21851 0,0.38118 -0.0531,0.81547 -0.21246,1.30912 0.0531,0.009 0.15935,0.0219 0.21246,0.025 0.0531,0 0.0531,0 0.10623,0.009 0,0 0.0531,0 0.10623,0.006 0.31869,0.0437 0.58114,0.14372 0.74048,0.30307 0.15934,0.15309 0.21246,0.29056 0.21246,0.40929 0,0.0469 0,0.0687 -0.0531,0.0687 0,0 -0.0531,-0.0312 -0.0531,-0.1 -0.0531,-0.0687 -0.10623,-0.14372 -0.15934,-0.22183 -0.0531,-0.0844 -0.15935,-0.15935 -0.37181,-0.22809 -0.15934,-0.075 -0.42491,-0.11247 -0.68736,-0.11247 -0.15935,0 -0.26558,0.0469 -0.42492,0.13747 -0.10623,0.0906 -0.15934,0.18121 -0.26557,0.2687 -0.0531,0.0906 -0.10623,0.13747 -0.10623,0.13747 -0.0531,0 -0.0531,-0.025 -0.0531,-0.075 0.15935,-0.30619 0.37181,-0.50303 0.58114,-0.58739 0.21246,-0.56239 0.26557,-0.9998 0.26557,-1.29662 0,-0.3718 -0.0531,-0.68737 -0.21246,-1.05917 -0.15934,-0.31869 -0.42491,-0.53115 -0.68736,-0.63425 0.003,-0.0562 0.003,-0.0562 0.0562,-0.10935 M 11.075752,5.53 q 0.23902,-0.15935 0.47803,-0.15935 c 0.21246,0 0.37181,0.0531 0.53115,0.21246 0.10623,0.15934 0.15934,0.3718 0.15934,0.68737 0,0.26557 -0.0531,0.47803 -0.10623,0.79359 -0.10622,-0.0531 -0.15934,-0.10623 -0.26557,-0.10623 -0.0531,0 -0.10623,-0.0531 -0.10623,-0.0531 q 0.31869,-0.0797 0.31869,-0.47803 c 0,-0.15935 -0.0531,-0.26558 -0.10623,-0.42492 -0.10623,-0.10623 -0.21246,-0.21246 -0.3718,-0.21246 q -0.15935,0 -0.31869,0.15934 c -0.10623,0.15935 -0.10623,0.26558 -0.10623,0.47804 0,0.10622 0,0.21245 0.0531,0.26557 -0.0531,0 -0.10623,-0.0531 -0.15935,-0.0531 -0.10623,-0.21245 -0.15934,-0.42491 -0.15934,-0.68736 0,-0.15622 0.0531,-0.26245 0.15934,-0.42179 m 0.58426,0.58426 c 0,-0.0531 -0.0531,-0.0531 -0.0531,-0.10623 0.0531,0 0.10623,-0.0531 0.10623,-0.0531 0.0531,0 0.10623,0.0531 0.15934,0.10623 0.0531,0.0531 0.0531,0.10623 0.0531,0.15935 0,0.0531 0,0.10623 0.0531,0.15934 h -0.10623 c -0.0531,-0.15934 -0.10623,-0.26557 -0.21246,-0.26557 m -0.15934,0.79359 c 0.53115,0.15935 0.79359,0.31869 0.84671,0.42492 0.0531,0 0.0531,0.0531 0.0531,0.10623 0,0.15934 -0.10623,0.26557 -0.21246,0.3718 l -0.47803,0.31869 c -0.53114,0.3718 -0.95294,0.58113 -1.32474,0.58113 -0.26557,0 -0.5311401,-0.10622 -0.7404801,-0.31868 L 9.3260419,8.0733 c -0.0531,-0.0531 -0.10623,-0.15934 -0.15934,-0.26557 0.31869,0.26557 0.68737,0.42491 1.0591701,0.42491 0.42492,0 0.95294,-0.21246 1.64343,-0.68736 0,0 0,-0.0531 -0.0531,-0.0531 V 7.38595 c -0.68736,0.53115 -1.21851,0.74048 -1.64343,0.74048 -0.3186801,0 -0.6342501,-0.15934 -0.9529401,-0.42491 -0.0531,-0.10623 -0.10622,-0.15935 -0.10622,-0.15935 0,-0.21246 0.21245,-0.42491 0.53114,-0.63425 0.3718001,-0.21246 0.6342501,-0.31869 0.7936001,-0.31869 0.21558,0 0.58426,0.10623 1.06229,0.31869 M 9.4885319,6.11433 V 6.0081 c 0.0531,0 0.0531,-0.0531 0.0531,-0.0531 0.15934,0 0.26557,0.15935 0.26557,0.42492 h -0.10623 c 0,-0.10623 -0.0531,-0.15934 -0.0531,-0.26557 z m -0.31869,-0.37181 c 0.0531,-0.15934 0.21246,-0.26557 0.37181,-0.26557 0.21246,0 0.31868,0.10623 0.42491,0.26557 0.1062301,0.15935 0.1062301,0.31869 0.1062301,0.47804 0,0.21245 0,0.31868 -0.0531,0.31868 v 0.0531 h -0.0531 V 6.48611 c 0,-0.15934 -0.0531,-0.31869 -0.10623,-0.47803 -0.10622,-0.10623 -0.15934,-0.15935 -0.26557,-0.15935 -0.10623,0 -0.21246,0.0531 -0.26557,0.15935 -0.10623,0.10623 -0.10623,0.21246 -0.10623,0.3718 0,0.26557 0.0531,0.42492 0.26557,0.53115 -0.0531,0.0531 -0.10623,0.0531 -0.15934,0.10623 -0.21246,-0.21246 -0.28745,-0.42492 -0.28745,-0.63426 0,-0.26869 0.0219,-0.42804 0.1281,-0.6405 m 0.0469,12.5538 c -0.25308,0.31869 -0.56239,0.48116 -0.93107,0.48116 -0.14372,0 -0.53427,-0.12185 -1.17477,-0.35618 -0.6405,-0.23433 -1.20914,-0.39055 -1.69967,-0.46241 v -0.003 c -0.6405,-0.0844 -0.99043,-0.22808 -1.04354,-0.43429 0,-0.12185 0.0687,-0.29056 0.19996,-0.51865 0.13122,-0.2187 0.19683,-0.43429 0.19683,-0.65299 0,-0.11248 -0.0219,-0.2687 -0.0625,-0.46554 -0.0437,-0.19996 -0.0625,-0.34368 -0.0625,-0.42804 0,-0.18434 0.0687,-0.3593 0.19996,-0.5124 0.1,-0.0531 0.29057,-0.0844 0.57176,-0.0844 h 0.14373 c 0.0687,-0.006 0.1156,-0.006 0.14372,-0.006 0.12185,-0.025 0.21246,-0.0531 0.26557,-0.0844 0.0531,-0.0375 0.0844,-0.11248 0.1,-0.22184 0.009,-0.1156 0.0531,-0.22808 0.1281,-0.32806 0.075,-0.1 0.22808,-0.17496 0.44991,-0.2187 0.17497,0.0437 0.33431,0.12185 0.47179,0.2437 0.14372,0.12185 0.25307,0.2437 0.32181,0.36555 0.0781,0.11248 0.18121,0.2687 0.29057,0.47803 0.1156,0.20621 0.20621,0.35931 0.28119,0.45929 l 0.35931,0.48116 c 0.603,0.7686 0.90607,1.39972 0.90607,1.90275 -0.003,0.1406 -0.003,0.26245 -0.0562,0.36555 m 1.1654001,-1.0373 c -0.6342501,0 -1.1122901,-0.14684 -1.3341201,-0.44991 -0.11247,-0.20621 -0.16559,-0.31244 -0.16559,-0.31868 0,-0.025 0.006,-0.0375 0.0156,-0.0375 0.12185,0 0.26558,-0.0625 0.3718,-0.19059 0.15935,-0.12185 0.21246,-0.23432 0.21246,-0.34368 0,-0.21246 -0.31868,-0.57176 -0.91544,-1.09041 l -0.56239,-0.36555 c -0.44367,-0.32182 -0.72486,-0.57802 -0.84359,-0.75298 -0.10623,-0.18122 -0.16559,-0.38743 -0.16559,-0.62488 0,-0.32181 0.1156,-0.76235 0.33743,-1.24038 0.22183,-0.53115 0.4093,-0.89983 0.56239,-1.05917 l 0.0531,0.0531 c 0.0437,0 0.0687,0 0.0781,0.0531 -0.18434,0.21246 -0.37493,0.53114 -0.56552,1.00605 -0.19683,0.47803 -0.29057,0.87796 -0.29057,1.24351 0,0.29682 0.11561,0.5249 0.35619,0.68736 -0.0219,-0.1281 -0.0312,-0.25307 -0.0312,-0.37492 0,-0.60926 0.21871,-1.34661 0.64675,-2.14021 l 0.3968,-0.79359 c 0.009,0 0.025,-0.10623 0.0469,-0.21246 0.0156,-0.15935 0.0969,-0.3718 0.24371,-0.74048 l 0.33431,-0.63425 c 0.10622,-0.21246 0.15934,-0.42492 0.15934,-0.58114 l 0.31869,0.26557 c 0.15934,0.21246 0.4249101,0.26558 0.7404801,0.26558 0.3718,0 0.79359,-0.15935 1.32474,-0.53115 l 0.47803,-0.3718 c 0.10623,0.21246 0.21246,0.47803 0.31869,0.74048 0.15934,0.26557 0.26557,0.53114 0.42492,0.79359 0,0.26558 0.0531,0.42492 0.10622,0.63425 0.10623,0.15935 0.15935,0.31869 0.26558,0.47804 l 0.31869,0.47803 c 0.10622,0.21246 0.21245,0.47803 0.26557,0.79359 0.10623,0.3718 0.10623,0.7686 0.10623,1.24976 0,0.31869 0,0.67174 -0.0531,1.08104 -0.10623,-0.0781 -0.21246,-0.11561 -0.31868,-0.11561 -0.15935,0 -0.26558,0.0781 -0.37181,0.24996 -0.10623,0.16871 -0.15934,0.42804 -0.15934,0.77172 v 0.19684 c 0.0531,0.0687 0.0531,0.23433 0.0531,0.49677 -0.69361,0.95607 -1.59344,1.43097 -2.75883,1.43097 m 7.10174,-0.44678 c -0.10623,0.0844 -0.21246,0.14684 -0.37181,0.19058 -0.10623,0.0469 -0.31868,0.13123 -0.53114,0.25933 -0.26558,0.1281 -0.47803,0.27495 -0.68737,0.44366 l -0.89982,0.77798 c -0.0531,0.025 -0.0531,0.0531 -0.15935,0.0906 -0.0531,0.0437 -0.10623,0.0781 -0.15934,0.11561 -0.0531,0.0437 -0.15934,0.0781 -0.26557,0.1 q -0.15935,0.0469 -0.31869,0.0469 c -0.42492,0 -0.7936,-0.19996 -1.00606,-0.59988 v -0.0125 l 0.10623,-0.58738 c 0,-0.20934 0,-0.3968 0.0531,-0.56239 0,-0.1656 0.0531,-0.2687 0.0531,-0.31869 v -1.64656 c 0,-0.55614 0.10623,-0.83108 0.37181,-0.83108 0.10622,0 0.15934,0.0469 0.26557,0.13747 0.0531,0.22183 0.10623,0.41867 0.21246,0.58739 0.15934,0.22808 0.3718,0.34368 0.79359,0.34368 0.10623,0 0.26558,-0.0469 0.42492,-0.13747 0.10623,-0.0906 0.26557,-0.18434 0.31869,-0.29057 0.10623,-0.10623 0.21246,-0.20621 0.31868,-0.29682 0.0531,-0.0906 0.15935,-0.13747 0.21246,-0.13747 0.0531,0 0.0531,0.006 0.0531,0.0219 0.0531,0.0594 0.0531,0.16559 0.10623,0.30619 l 0.0531,0.30619 c 0.0531,0.24995 0.15935,0.44054 0.26557,0.57801 0.15935,0.14372 0.26558,0.22808 0.37181,0.26557 0.10623,0.0375 0.21246,0.0969 0.31868,0.18122 0.10623,0.0844 0.21246,0.19996 0.21246,0.35618 -0.006,0.13122 -0.0594,0.23433 -0.11247,0.31244 m -6.93615,-9.95743 c 0,0 -0.0531,-0.0531 -0.0531,-0.10623 0,-0.0531 0,-0.0531 0.0531,-0.0531 l 0.10623,0.0531 c 0.0531,0.0531 0.10623,0.10623 0.10623,0.15934 0,0.0531 -0.0531,0.0531 -0.0531,0.0531 h -0.0531 c -0.0531,0 -0.0531,-0.0531 -0.10623,-0.10623 m -0.53115,0.0531 c 0,-0.0531 0,-0.10623 0.0531,-0.15934 0.10623,0 0.15934,-0.0531 0.15934,-0.0531 0.0531,0 0.0531,0.0531 0.0531,0.0531 0,0.0531 -0.0531,0.10623 -0.15935,0.21246 h -0.0531 c -0.0531,0 -0.0531,0 -0.0531,-0.0531"
     style="fill:currentColor"
     id="path1-7"
     class="ColorScheme-Text" /></svg>
