<?xml version="1.0" encoding="UTF-8" standalone="no"?>
<svg
   viewBox="0 0 22 22"
   version="1.1"
   id="svg1"
   sodipodi:docname="folder-keys-symbolic22.svg"
   xml:space="preserve"
   inkscape:version="1.4.2 (ebf0e940d0, 2025-05-08)"
   xmlns:inkscape="http://www.inkscape.org/namespaces/inkscape"
   xmlns:sodipodi="http://sodipodi.sourceforge.net/DTD/sodipodi-0.dtd"
   xmlns="http://www.w3.org/2000/svg"
   xmlns:svg="http://www.w3.org/2000/svg"><sodipodi:namedview
     id="namedview1"
     pagecolor="#505050"
     bordercolor="#ffffff"
     borderopacity="1"
     inkscape:showpageshadow="0"
     inkscape:pageopacity="0"
     inkscape:pagecheckerboard="1"
     inkscape:deskcolor="#505050"
     inkscape:zoom="52.545455"
     inkscape:cx="10.990484"
     inkscape:cy="11"
     inkscape:window-width="2556"
     inkscape:window-height="1364"
     inkscape:window-x="0"
     inkscape:window-y="0"
     inkscape:window-maximized="1"
     inkscape:current-layer="svg1" /><defs
     id="defs3051"><style
       type="text/css"
       id="current-color-scheme">
      .ColorScheme-Text {
        color:#eff0f1
      }
      </style></defs><path
     d="m 11.121082,12.214545 c -0.247273,0.24 -0.530909,0.45091 -0.843636,0.603637 v 4.727273 L 8.8229003,19 7.3683548,17.545455 8.8229003,16.301818 7.7319912,15.363636 8.8229003,14.425455 7.3683548,13.181818 V 12.818182 C 6.2774457,12.287273 5.550173,11.189091 5.550173,9.9090909 c 0,-1.8181818 1.4545455,-3.2727273 3.2727273,-3.2727273 0.029091,0 0.058182,0 0.08,0 -0.014545,0.050909 -0.050909,0.087273 -0.08,0.1309091 C 8.6265366,7.2109091 8.5174457,7.6763636 8.4810821,8.1490909 8.0447185,8.2945455 7.7319912,8.7018182 7.7319912,9.1818182 c 0,0.6036363 0.4872727,1.0909088 1.0909091,1.0909088 0.021818,0 0.050909,0 0.072727,0 0.4654546,0.909091 1.2654547,1.6 2.2254547,1.941818 m 2.429091,-5.5781814 c 0,-0.4581818 -0.07273,-0.9090909 -0.203636,-1.3236363 0.974545,0.2763636 1.810909,0.9963636 2.189091,2.0218182 0.436363,1.2072727 0.116363,2.4945454 -0.712728,3.3672725 L 16.459264,15.130909 15.571991,17 13.710173,16.127273 14.641082,14.461818 13.3029,13.952727 14.008355,12.701818 12.211991,12.025455 12.095628,11.690909 C 10.9029,11.56 9.8265366,10.781818 9.3829003,9.5745455 8.7647185,7.88 9.6447185,5.9963636 11.339264,5.3781818 11.470173,5.3345455 11.608355,5.3054545 11.731991,5.2763636 11.251991,4.36 10.299264,3.7272727 9.1865366,3.7272727 c -1.6072727,0 -2.9090909,1.3018182 -2.9090909,2.9090909 0,0.065455 0,0.1236364 0.021818,0.1890909 -0.24,0.1963637 -0.4581818,0.4072728 -0.64,0.6472728 C 5.5938094,7.2036364 5.550173,6.9272727 5.550173,6.6363636 5.550173,4.6290909 7.1792639,3 9.1865366,3 11.193809,3 12.8229,4.6290909 12.8229,6.6363636 12.8229,7.48 12.531991,8.2436364 12.051991,8.8618182 13.608355,8.7309091 13.550173,6.6363636 13.550173,6.6363636 m -2.32,1.5272728 c 0.04364,0.1236363 0.109091,0.2254545 0.181818,0.32 0.407273,-0.48 0.661818,-1.0909091 0.683637,-1.7672728 -0.08,0.014545 -0.145455,0.029091 -0.218182,0.050909 -0.567273,0.2109092 -0.872727,0.8363638 -0.647273,1.3963638 z"
     id="path1"
     style="fill:currentColor"
     class="ColorScheme-Text" /></svg>
