<?xml version="1.0" encoding="UTF-8" standalone="no"?>
<svg
   viewBox="0 0 22 22"
   version="1.1"
   id="svg1"
   sodipodi:docname="folder-google-symbolic22.svg"
   xml:space="preserve"
   inkscape:version="1.4.2 (ebf0e940d0, 2025-05-08)"
   xmlns:inkscape="http://www.inkscape.org/namespaces/inkscape"
   xmlns:sodipodi="http://sodipodi.sourceforge.net/DTD/sodipodi-0.dtd"
   xmlns="http://www.w3.org/2000/svg"
   xmlns:svg="http://www.w3.org/2000/svg"><sodipodi:namedview
     id="namedview1"
     pagecolor="#505050"
     bordercolor="#ffffff"
     borderopacity="1"
     inkscape:showpageshadow="0"
     inkscape:pageopacity="0"
     inkscape:pagecheckerboard="1"
     inkscape:deskcolor="#505050"
     inkscape:zoom="52.545455"
     inkscape:cx="10.990484"
     inkscape:cy="11"
     inkscape:window-width="2556"
     inkscape:window-height="1364"
     inkscape:window-x="0"
     inkscape:window-y="0"
     inkscape:window-maximized="1"
     inkscape:current-layer="svg1" /><defs
     id="defs3051"><style
       type="text/css"
       id="current-color-scheme">
      .ColorScheme-Text {
        color:#eff0f1
      }
      </style><style
       type="text/css"
       id="current-color-scheme-5">.ColorScheme-Text {color:#fcfcfc;}</style></defs><path
     d="m 19,11.347549 c 0,-0.58031 -0.05101,-1.135114 -0.14986,-1.670785 h -7.687525 v 3.159824 h 4.393782 c -0.143484,0.762057 -0.506974,1.434835 -1.042646,1.970507 l -0.0032,0.0032 c -0.02232,0.02232 -0.04783,0.04783 -0.07333,0.07015 -0.159425,0.14986 -0.334794,0.290155 -0.522917,0.414508 -0.03827,0.02551 -0.07971,0.05101 -0.12116,0.07652 -0.01595,0.0096 -0.03508,0.02232 -0.05101,0.03188 -0.01913,0.0128 -0.04145,0.02551 -0.06059,0.03507 -0.471901,0.274213 -1.020327,0.468713 -1.635712,0.567557 l 0.0064,0.0032 c -0.283779,0.04464 -0.580311,0.07015 -0.889597,0.07015 -0.382623,0 -0.752491,-0.04783 -1.109606,-0.133919 0.0032,-0.0064 0.0032,-0.0096 0.0064,-0.0128 C 8.5385013,15.559544 7.2886,14.456316 6.701912,13.015104 c 0,-0.0032 -0.0032,-0.0064 -0.0032,-0.0096 -0.019133,-0.04464 -0.035067,-0.08928 -0.051013,-0.133917 -0.0032,-0.0064 -0.0064,-0.01595 -0.0096,-0.02232 L 6.590272,12.715384 h -0.0096 l 0.0032,-0.0032 0.0064,-0.0032 c -0.015947,-0.04783 -0.02232,-0.09884 -0.038267,-0.146672 -0.0032,0.0032 -0.0064,0.0032 -0.0064,0.0064 C 6.507338,12.447552 6.475458,12.323196 6.446752,12.198844 6.370232,11.864049 6.3287787,11.5165 6.3287787,11.159387 c 0,-0.414508 0.057387,-0.816262 0.1562373,-1.2020737 0.03188,-0.1179733 0.063773,-0.2327613 0.1020267,-0.347548 0.0128,-0.035067 0.025507,-0.070147 0.035067,-0.1052266 l 0.0096,-0.028693 c 0.0096,-0.025507 0.019133,-0.0542 0.028693,-0.07972 l 0.0096,-0.028693 c 0.0128,-0.028693 0.02232,-0.057387 0.035067,-0.086093 0.0032,-0.0032 0.0032,-0.0096 0.0064,-0.0128 0.03188,-0.073333 0.063773,-0.143484 0.095653,-0.213632 C 7.2694587,8.085596 8.037892,7.2820893 8.984884,6.7878684 l -0.0032,-0.00319 c 0.65366,-0.341168 1.390208,-0.5356678 2.171396,-0.5356678 1.202072,0 2.270227,0.4145078 3.124751,1.2180154 L 16.614987,5.129929 C 15.208848,3.8098844 13.365883,3 11.162615,3 8.136708,3 5.5029892,4.6484655 4.0936628,7.1004384 c 0,0.00319 -0.00319,0.00319 -0.00319,0.00637 -0.035073,0.060581 -0.070148,0.121164 -0.1020333,0.184935 -0.00637,0.0096 -0.00956,0.019133 -0.015943,0.028693 C 3.9406148,7.3810267 3.9087295,7.4416 3.8768441,7.5053733 3.3188521,8.602232 3,9.8425667 3,11.162615 c 0,1.320048 0.3188521,2.560382 0.8768433,3.657233 v 0.0096 c 0.025508,0.05101 0.051016,0.09884 0.076524,0.146672 0.00637,0.01595 0.015943,0.02869 0.02232,0.04145 0.019131,0.03827 0.041451,0.07652 0.060581,0.114787 0.00637,0.0128 0.01276,0.02551 0.02232,0.03827 0.057393,0.10204 0.1147866,0.200877 0.1785572,0.299721 0.00319,0.0064 0.00956,0.01595 0.01276,0.02232 0.028696,0.04783 0.060581,0.09247 0.089279,0.140295 0,0.0032 0.00319,0.0032 0.00319,0.0064 1.2052611,1.836588 3.1311275,3.156636 5.3758475,3.558389 h 0.0064 c 0.04464,0.0064 0.08928,0.01595 0.1339173,0.02232 0.0064,0 0.0096,0.0032 0.015947,0.0032 l 0.1243466,0.01913 c 0.0096,0 0.015947,0.0032 0.025507,0.0032 0.03827,0.0064 0.07652,0.0096 0.117973,0.01595 0.0128,0 0.02232,0.0032 0.03508,0.0032 0.03508,0.0032 0.07333,0.0096 0.108414,0.0128 0.01595,0 0.02869,0.0032 0.04464,0.0032 0.03188,0.0032 0.06696,0.0064 0.09884,0.0096 0.01913,0 0.03507,0.0032 0.0542,0.0032 0.03188,0.0032 0.06059,0.0064 0.09247,0.0064 0.02232,0 0.04145,0.0032 0.06377,0.0032 0.02869,0.0032 0.0542,0.0032 0.08291,0.0064 0.02551,0 0.05101,0.0032 0.07333,0.0032 0.02551,0 0.04783,0.0032 0.07333,0.0032 0.03188,0 0.06059,0.0032 0.09247,0.0032 h 0.200877 c 0.220008,0 0.436827,-0.0064 0.650457,-0.02232 0.159427,-0.0096 0.312476,-0.02551 0.468714,-0.04464 0.06059,-0.0064 0.117973,-0.01595 0.175368,-0.02232 1.479474,-0.207253 2.758072,-0.768433 3.784776,-1.603827 0.0096,-0.0096 0.02232,-0.01595 0.03188,-0.02551 0.02232,-0.01913 0.04464,-0.03827 0.06696,-0.0542 0.02232,-0.01913 0.04145,-0.03508 0.06377,-0.0542 0.01595,-0.0128 0.03188,-0.02869 0.04783,-0.04145 0.03827,-0.03507 0.07652,-0.06696 0.114786,-0.102026 0.602631,-0.557991 1.106416,-1.218015 1.498604,-1.964128 C 18.668393,14.226784 19,12.862096 19,11.347549"
     style="fill:currentColor"
     id="path1-3"
     class="ColorScheme-Text" /></svg>
