<?xml version="1.0" encoding="UTF-8" standalone="no"?>
<svg
   viewBox="0 0 22 22"
   version="1.1"
   id="svg1"
   sodipodi:docname="folder-wireless-router-symbolic22.svg"
   xml:space="preserve"
   inkscape:version="1.4.2 (ebf0e940d0, 2025-05-08)"
   xmlns:inkscape="http://www.inkscape.org/namespaces/inkscape"
   xmlns:sodipodi="http://sodipodi.sourceforge.net/DTD/sodipodi-0.dtd"
   xmlns="http://www.w3.org/2000/svg"
   xmlns:svg="http://www.w3.org/2000/svg"><sodipodi:namedview
     id="namedview1"
     pagecolor="#505050"
     bordercolor="#ffffff"
     borderopacity="1"
     inkscape:showpageshadow="0"
     inkscape:pageopacity="0"
     inkscape:pagecheckerboard="1"
     inkscape:deskcolor="#505050"
     inkscape:zoom="52.545455"
     inkscape:cx="10.990484"
     inkscape:cy="11"
     inkscape:window-width="2556"
     inkscape:window-height="1364"
     inkscape:window-x="0"
     inkscape:window-y="0"
     inkscape:window-maximized="1"
     inkscape:current-layer="svg1" /><defs
     id="defs3051"><style
       type="text/css"
       id="current-color-scheme">
      .ColorScheme-Text {
        color:#eff0f1
      }
      </style></defs><path
     d="m 18.2,4.4325952 -0.64,0.64 c -0.96,-0.88 -2.16,-1.36 -3.36,-1.36 -1.2,0 -2.4,0.48 -3.36,1.36 l -0.64,-0.64 c 1.12,-1.12 2.56,-1.68 4,-1.68 1.44,0 2.88,0.56 4,1.68 m -4,0.16 c 0.96,0 1.92,0.4 2.64,1.12 l -0.64,0.64 c -0.56,-0.56 -1.28,-0.8 -2,-0.8 -0.72,0 -1.44,0.24 -2,0.8 l -0.64,-0.64 c 0.72,-0.72 1.68,-1.12 2.64,-1.12 m 0.8,5.36 h 1.6 c 0.424,0 0.832,0.1679998 1.128,0.4719998 0.304,0.296 0.472,0.704 0.472,1.128 v 1.6 c 0,0.424 -0.168,0.832 -0.472,1.128 -0.296,0.304 -0.704,0.472 -1.128,0.472 h -4.8 v 1.6 h 0.8 c 0.44,0 0.8,0.36 0.8,0.8 H 19 v 1.6 h -5.6 c 0,0.44 -0.36,0.8 -0.8,0.8 H 9.4 c -0.44,0 -0.8,-0.36 -0.8,-0.8 H 3 v -1.6 h 5.6 c 0,-0.44 0.36,-0.8 0.8,-0.8 h 0.8 v -1.6 H 5.4 c -0.424,0 -0.832,-0.168 -1.128,-0.472 -0.304,-0.296 -0.472,-0.704 -0.472,-1.128 v -1.6 c 0,-0.424 0.168,-0.832 0.472,-1.128 0.296,-0.304 0.704,-0.4719998 1.128,-0.4719998 h 8 v -3.2 H 15 v 3.2 M 5.4,13.152595 H 7 v -1.6 H 5.4 v 1.6 m 2.8,0 h 1.6 v -1.6 H 8.2 v 1.6 m 2.8,0 h 1.6 v -1.6 H 11 Z"
     id="path1-7"
     style="fill:currentColor"
     class="ColorScheme-Text" /></svg>
