<?xml version="1.0" encoding="UTF-8" standalone="no"?>
<svg
   viewBox="0 0 22 22"
   version="1.1"
   id="svg1"
   sodipodi:docname="folder-paw-symbolic22.svg"
   xml:space="preserve"
   inkscape:version="1.4.2 (ebf0e940d0, 2025-05-08)"
   xmlns:inkscape="http://www.inkscape.org/namespaces/inkscape"
   xmlns:sodipodi="http://sodipodi.sourceforge.net/DTD/sodipodi-0.dtd"
   xmlns="http://www.w3.org/2000/svg"
   xmlns:svg="http://www.w3.org/2000/svg"><sodipodi:namedview
     id="namedview1"
     pagecolor="#505050"
     bordercolor="#ffffff"
     borderopacity="1"
     inkscape:showpageshadow="0"
     inkscape:pageopacity="0"
     inkscape:pagecheckerboard="1"
     inkscape:deskcolor="#505050"
     inkscape:zoom="52.545455"
     inkscape:cx="10.990484"
     inkscape:cy="11"
     inkscape:window-width="2556"
     inkscape:window-height="1364"
     inkscape:window-x="0"
     inkscape:window-y="0"
     inkscape:window-maximized="1"
     inkscape:current-layer="svg1" /><defs
     id="defs3051"><style
       type="text/css"
       id="current-color-scheme">
      .ColorScheme-Text {
        color:#eff0f1
      }
      </style><style
       type="text/css"
       id="current-color-scheme-5">.ColorScheme-Text {color:#fcfcfc;}</style></defs><path
     d="m 8.0919001,3.3419854 c 0.940153,-0.1354458 1.9360769,0.8923482 2.2229039,2.3105448 0.286827,1.4102294 -0.231055,2.6690774 -1.1712069,2.8124904 -0.932185,0.143414 -1.936077,-0.884381 -2.23087,-2.302577 -0.294795,-1.4102292 0.239021,-2.6690777 1.179173,-2.8204582 m 5.6966879,0 c 0.948121,0.1513805 1.473969,1.410229 1.195109,2.8204582 -0.30276,1.418196 -1.298685,2.445991 -2.238837,2.302577 -0.94812,-0.143413 -1.466001,-1.402261 -1.171208,-2.8124904 0.286827,-1.4181966 1.282751,-2.4459906 2.214936,-2.3105448 M 3.8293439,7.0069876 c 0.908283,-0.390403 2.1432291,0.318696 2.7885882,1.553641 0.605523,1.2588504 0.398371,2.5814364 -0.501945,2.9718394 C 5.215671,11.922871 3.9886917,11.22174 3.3592675,9.970859 2.7298432,8.7199766 2.9529303,7.3894226 3.8293439,7.0069876 m 14.3413121,0 c 0.876413,0.382435 1.099501,1.712989 0.470076,2.9638714 -0.629424,1.250881 -1.856403,1.952012 -2.756719,1.561609 -0.900316,-0.390403 -1.107468,-1.712989 -0.501945,-2.9718394 0.645359,-1.234945 1.880305,-1.944044 2.788588,-1.553641 M 16.840101,15.59584 c 0.03187,0.748936 -0.541782,1.577544 -1.226978,1.888273 -1.426164,0.653327 -3.115252,-0.70113 -4.700764,-0.70113 -1.5855119,0 -3.2905349,1.410228 -4.6927959,0.70113 -0.7967401,-0.390402 -1.3464904,-1.426164 -1.2429143,-2.286642 0.1434132,-1.187143 1.5695763,-1.824535 2.4141203,-2.69298 1.123403,-1.123403 1.920143,-3.2347634 3.5215899,-3.2347634 1.593478,0 2.438022,2.0794914 3.513621,3.2347634 0.884381,0.972021 2.358349,1.792664 2.414121,3.091349 z"
     id="path1"
     style="fill:currentColor"
     class="ColorScheme-Text" /></svg>
