<?xml version="1.0" encoding="UTF-8" standalone="no"?>
<svg
   xmlns:dc="http://purl.org/dc/elements/1.1/"
   xmlns:cc="http://creativecommons.org/ns#"
   xmlns:rdf="http://www.w3.org/1999/02/22-rdf-syntax-ns#"
   xmlns:svg="http://www.w3.org/2000/svg"
   xmlns="http://www.w3.org/2000/svg"
   xmlns:xlink="http://www.w3.org/1999/xlink"
   xmlns:sodipodi="http://sodipodi.sourceforge.net/DTD/sodipodi-0.dtd"
   xmlns:inkscape="http://www.inkscape.org/namespaces/inkscape"
   viewBox="0 0 64 64"
   version="1.1"
   id="svg12"
   sodipodi:docname="folder-green.svg"
   inkscape:version="1.0.2 (e86c870879, 2021-01-15)">
  <metadata
     id="metadata16">
    <rdf:RDF>
      <cc:Work
         rdf:about="">
        <dc:format>image/svg+xml</dc:format>
        <dc:type
           rdf:resource="http://purl.org/dc/dcmitype/StillImage" />
      </cc:Work>
    </rdf:RDF>
  </metadata>
  <sodipodi:namedview
     pagecolor="#ffffff"
     bordercolor="#666666"
     borderopacity="1"
     objecttolerance="10"
     gridtolerance="10"
     guidetolerance="10"
     inkscape:pageopacity="0"
     inkscape:pageshadow="2"
     inkscape:window-width="1920"
     inkscape:window-height="1011"
     id="namedview14"
     showgrid="true"
     inkscape:zoom="8"
     inkscape:cx="25.66409"
     inkscape:cy="28.695989"
     inkscape:window-x="0"
     inkscape:window-y="0"
     inkscape:window-maximized="1"
     inkscape:current-layer="svg12"
     inkscape:document-rotation="0"
     inkscape:lockguides="false">
    <inkscape:grid
       type="xygrid"
       id="grid841" />
  </sodipodi:namedview>
  <defs
     id="defs3051">
    <linearGradient
       inkscape:collect="always"
       id="linearGradient839">
      <stop
         style="stop-color:#3bad7e;stop-opacity:1"
         offset="0"
         id="stop835" />
      <stop
         style="stop-color:#45cc87;stop-opacity:1"
         offset="1"
         id="stop837" />
    </linearGradient>
    <style
       type="text/css"
       id="current-color-scheme">
      .ColorScheme-Text {
        color:#31363b;
      }
      .ColorScheme-Background {
        color:#eff0f1;
      }
      .ColorScheme-Highlight {
        color:#3daee9;
      }
      .ColorScheme-ViewText {
        color:#31363b;
      }
      .ColorScheme-ViewBackground {
        color:#fcfcfc;
      }
      .ColorScheme-ViewHover {
        color:#93cee9;
      }
      .ColorScheme-ViewFocus{
        color:#3daee9;
      }
      .ColorScheme-ButtonText {
        color:#31363b;
      }
      .ColorScheme-ButtonBackground {
        color:#eff0f1;
      }
      .ColorScheme-ButtonHover {
        color:#93cee9;
      }
      .ColorScheme-ButtonFocus{
        color:#3daee9;
      }
      </style>
    <linearGradient
       inkscape:collect="always"
       xlink:href="#linearGradient839"
       id="linearGradient841"
       x1="3"
       y1="32.000017"
       x2="61.008"
       y2="32.000017"
       gradientUnits="userSpaceOnUse" />
  </defs>
  <path
     style="fill:url(#linearGradient841);fill-opacity:1;stroke:none"
     d="m 9,6.000034 c -3,0 -5,2 -4.992,5.197014 L 4,20 c -0.5255187,0 -1,0.363715 -1,1 l 0.008,0.197048 H 3.01 c -5e-5,0.004 -0.002,0.008 -0.002,0.01172 L 3,53 c 0,3 2,5 5,5 v 0 h 48 v 0 c 3,0 5,-2 5,-5 l 0.008,-31.791232 v -0.01172 L 61,17 c 0,-0.484427 -0.416433,-1 -1,-1 v 0 0 l 0.008,-0.802952 C 60,12 58,10 55,10 H 32 C 32,8 30,6 28,6.000034 Z"
     class="ColorScheme-Highlight"
     id="path4"
     sodipodi:nodetypes="ccccccsccccccccccccccccc" />
  <path
     style="fill-opacity:1;fill-rule:evenodd;fill:#0f9b71"
     d="M 9,6 C 6,6 4,8 4.0000003,11 v 9 H 22 l 4,-4 h 34 v -1 0 0 c 0,-3 -2,-5 -5,-5 L 32,9.9999657 C 32,8 30,6 28,5.9999657 Z"
     id="path6"
     sodipodi:nodetypes="ccccccccccccc" />
  <path
     style="fill:#737373;fill-opacity:0.2;fill-rule:evenodd;opacity:0.01"
     d="m 28,6 3,5 h 2 22 V 10 H 33 32 C 32,8 30,6 28,6 Z m -2,10 -4,4 H 4 c -0.5804871,0 -1,0.403257 -1,1 h 20 z"
     id="path8"
     sodipodi:nodetypes="cccccccccccccc" />
  <path
     style="fill-opacity:0.2;fill-rule:evenodd"
     d="m 26,16 -6,3 H 4 v 1 H 22 Z M 5,57 c 0,0.416776 2,1 3,1 h 2 42 3 c 2.476706,0 4,-0.558829 4,-1 H 52 10 Z"
     class="ColorScheme-Text"
     id="path10"
     sodipodi:nodetypes="ccccccccccccccc" />
</svg>
