<?xml version="1.0" encoding="UTF-8" standalone="no"?>
<svg
   width="48"
   height="48"
   viewBox="0 0 12.699752 12.699752"
   version="1.1"
   id="svg3"
   sodipodi:docname="1cedt.svg"
   inkscape:version="1.4 (e7c3feb100, 2024-10-09)"
   xmlns:inkscape="http://www.inkscape.org/namespaces/inkscape"
   xmlns:sodipodi="http://sodipodi.sourceforge.net/DTD/sodipodi-0.dtd"
   xmlns="http://www.w3.org/2000/svg"
   xmlns:svg="http://www.w3.org/2000/svg">
  <defs
     id="defs3" />
  <sodipodi:namedview
     id="namedview3"
     pagecolor="#ffffff"
     bordercolor="#999999"
     borderopacity="1"
     inkscape:showpageshadow="2"
     inkscape:pageopacity="0"
     inkscape:pagecheckerboard="0"
     inkscape:deskcolor="#d1d1d1"
     inkscape:zoom="6.2265625"
     inkscape:cx="29.14931"
     inkscape:cy="47.377666"
     inkscape:window-width="1920"
     inkscape:window-height="994"
     inkscape:window-x="0"
     inkscape:window-y="0"
     inkscape:window-maximized="1"
     inkscape:current-layer="svg3" />
  <circle
     cx="6.3498759"
     cy="6.3498759"
     r="5.5561414"
     fill="#f2f2f2"
     style="stroke-width:0.777735;paint-order:stroke fill markers"
     id="circle1" />
  <g
     id="g859"
     transform="matrix(0.20210467,0,0,0.19843363,-0.11747334,-1.6e-7)">
    <path
       style="fill:#6f8a91"
       d="m 26.988282,36.675782 -7.070313,12.234374 3.464843,2.003906 7.070312,-12.234374 z"
       id="path10" />
    <path
       style="fill:#5599ff"
       d="m 40.5625,13.1875 -7.175782,12.421876 3.460938,2 7.179688,-12.421876 z"
       id="path12" />
    <path
       style="fill:#6f8a91"
       d="m 20.445312,24 -8.082031,14 8.082031,14 h 16.164064 l 8.08203,-14 -8.08203,-14 z m 2.308594,4 h 11.546876 l 5.773436,10 -5.773436,10 H 22.753906 L 16.980469,38 Z"
       id="path16" />
    <path
       style="fill:#5599ff"
       d="m 27.390624,12 -8.08203,14 8.08203,14 h 16.164064 l 8.08203,-14 -8.078124,-14 z m 2.308594,4 H 41.25 l 5.769532,10 -5.773438,10 H 29.703124 L 23.925782,26 Z"
       id="path20" />
  </g>
</svg>
