<?xml version="1.0" encoding="UTF-8" standalone="no"?>
<svg
   version="1"
   width="48"
   height="48"
   id="svg22"
   sodipodi:docname="about.svg"
   inkscape:version="1.3.2 (091e20ef0f, 2023-11-25)"
   xmlns:inkscape="http://www.inkscape.org/namespaces/inkscape"
   xmlns:sodipodi="http://sodipodi.sourceforge.net/DTD/sodipodi-0.dtd"
   xmlns:xlink="http://www.w3.org/1999/xlink"
   xmlns="http://www.w3.org/2000/svg"
   xmlns:svg="http://www.w3.org/2000/svg">
  <sodipodi:namedview
     id="namedview24"
     pagecolor="#ffffff"
     bordercolor="#666666"
     borderopacity="1.0"
     inkscape:showpageshadow="2"
     inkscape:pageopacity="0.0"
     inkscape:pagecheckerboard="0"
     inkscape:deskcolor="#d1d1d1"
     showgrid="true"
     inkscape:zoom="6.9532167"
     inkscape:cx="8.772918"
     inkscape:cy="30.633304"
     inkscape:window-width="1920"
     inkscape:window-height="996"
     inkscape:window-x="0"
     inkscape:window-y="0"
     inkscape:window-maximized="1"
     inkscape:current-layer="svg22">
    <inkscape:grid
       type="xygrid"
       id="grid1216"
       originx="0"
       originy="0"
       spacingy="1"
       spacingx="1"
       units="px"
       visible="true" />
  </sodipodi:namedview>
  <defs
     id="defs8">
    <linearGradient
       id="linearGradient4167">
      <stop
         style="stop-color:#29a883;stop-opacity:1;"
         offset="0"
         id="stop2" />
      <stop
         style="stop-color:#3485fd;stop-opacity:1"
         offset="1"
         id="stop4" />
    </linearGradient>
    <linearGradient
       xlink:href="#linearGradient4167"
       id="linearGradient4161"
       x1="-44.000004"
       y1="-4.0000148"
       x2="-4.0000005"
       y2="-44.000004"
       gradientUnits="userSpaceOnUse"
       gradientTransform="matrix(1.0499999,0,0,1.0499999,1.2,1.2)" />
    <linearGradient
       id="linearGradient2403"
       x1="37.452"
       x2="37.452"
       y1="9.4727001"
       y2="14.003"
       gradientTransform="matrix(0.74046,0,0,1.4809,28.731,9.3751)"
       gradientUnits="userSpaceOnUse">
      <stop
         stop-color="#2e3440"
         offset="0"
         id="stop29845" />
      <stop
         stop-color="#4c566a"
         offset="1"
         id="stop29847" />
    </linearGradient>
    <linearGradient
       id="linearGradient4426"
       x1="39.580002"
       x2="39.580002"
       y1="17.903"
       y2="20.146999"
       gradientUnits="userSpaceOnUse">
      <stop
         stop-color="#2e3440"
         stop-opacity=".25"
         offset="0"
         id="stop29850" />
      <stop
         stop-color="#2e3440"
         stop-opacity="0"
         offset="1"
         id="stop29852" />
    </linearGradient>
    <linearGradient
       id="linearGradient35715"
       y1="1003.36"
       y2="1027.36"
       x1="-93"
       x2="-70"
       gradientUnits="userSpaceOnUse"
       gradientTransform="translate(188.253,-1036.7346)">
      <stop
         stop-color="#292c2f"
         id="stop35711" />
      <stop
         offset="1"
         stop-opacity="0"
         id="stop35713"
         style="stop-color:#000000;stop-opacity:0.05963883;" />
    </linearGradient>
    <filter
       x="-0.045"
       y="-0.05"
       width="1.09"
       height="1.1277778"
       filterUnits="objectBoundingBox"
       id="filter-11">
      <feOffset
         dx="0"
         dy="2"
         in="SourceAlpha"
         result="shadowOffsetOuter1"
         id="feOffset84" />
      <feGaussianBlur
         stdDeviation="1.5"
         in="shadowOffsetOuter1"
         result="shadowBlurOuter1"
         id="feGaussianBlur86" />
      <feColorMatrix
         values="0 0 0 0 0   0 0 0 0 0   0 0 0 0 0  0 0 0 0.515133304 0"
         type="matrix"
         in="shadowBlurOuter1"
         id="feColorMatrix88" />
    </filter>
    <linearGradient
       inkscape:collect="always"
       xlink:href="#linearGradient1022"
       id="linearGradient1024"
       x1="162.52524"
       y1="45.556984"
       x2="219.2032"
       y2="101.69257"
       gradientUnits="userSpaceOnUse"
       gradientTransform="matrix(0.53071862,0,0,0.58612027,-77.604295,-18.096634)" />
    <linearGradient
       inkscape:collect="always"
       id="linearGradient1022">
      <stop
         style="stop-color:#a9fae6;stop-opacity:1"
         offset="0"
         id="stop1018" />
      <stop
         style="stop-color:#6babfe;stop-opacity:1"
         offset="1"
         id="stop1020" />
    </linearGradient>
    <filter
       x="-0.13090909"
       y="-0.31304348"
       width="1.2618182"
       height="1.7130435"
       filterUnits="objectBoundingBox"
       id="filter-1">
      <feOffset
         dx="0"
         dy="2"
         in="SourceAlpha"
         result="shadowOffsetOuter1"
         id="feOffset6" />
      <feGaussianBlur
         stdDeviation="3"
         in="shadowOffsetOuter1"
         result="shadowBlurOuter1"
         id="feGaussianBlur8" />
      <feComposite
         in="shadowBlurOuter1"
         in2="SourceAlpha"
         operator="out"
         result="shadowBlurOuter1"
         id="feComposite10" />
      <feColorMatrix
         values="0 0 0 0 0   0 0 0 0 0   0 0 0 0 0  0 0 0 0.2 0"
         type="matrix"
         in="shadowBlurOuter1"
         result="shadowMatrixOuter1"
         id="feColorMatrix12" />
      <feMerge
         id="feMerge18">
        <feMergeNode
           in="shadowMatrixOuter1"
           id="feMergeNode14" />
        <feMergeNode
           in="SourceGraphic"
           id="feMergeNode16" />
      </feMerge>
    </filter>
    <linearGradient
       x1="36.536842"
       y1="83.69062"
       x2="36.536842"
       y2="119.07159"
       id="linearGradient-13"
       gradientTransform="matrix(1.5463843,0,0,0.64666979,-76,-54.999999)"
       gradientUnits="userSpaceOnUse">
      <stop
         stop-color="#000000"
         stop-opacity="0.8"
         offset="0%"
         id="stop114" />
      <stop
         stop-color="#000000"
         stop-opacity="0.531304633"
         offset="99.4721284%"
         id="stop116" />
    </linearGradient>
    <filter
       x="-0.16041666"
       y="-0.36666667"
       width="1.3208333"
       height="1.8285714"
       filterUnits="objectBoundingBox"
       id="filter633">
      <feOffset
         dx="0"
         dy="2"
         in="SourceAlpha"
         result="shadowOffsetOuter1"
         id="feOffset619" />
      <feGaussianBlur
         stdDeviation="3"
         in="shadowOffsetOuter1"
         result="shadowBlurOuter1"
         id="feGaussianBlur621" />
      <feComposite
         in="shadowBlurOuter1"
         in2="SourceAlpha"
         operator="out"
         result="shadowBlurOuter1"
         id="feComposite623" />
      <feColorMatrix
         values="0 0 0 0 0   0 0 0 0 0   0 0 0 0 0  0 0 0 0.2 0"
         type="matrix"
         in="shadowBlurOuter1"
         result="shadowMatrixOuter1"
         id="feColorMatrix625" />
      <feMerge
         id="feMerge631">
        <feMergeNode
           in="shadowMatrixOuter1"
           id="feMergeNode627" />
        <feMergeNode
           in="SourceGraphic"
           id="feMergeNode629" />
      </feMerge>
    </filter>
    <linearGradient
       inkscape:collect="always"
       xlink:href="#linearGradient1045"
       id="linearGradient1047"
       x1="37.873047"
       y1="129.58203"
       x2="90.796875"
       y2="129.58203"
       gradientUnits="userSpaceOnUse"
       gradientTransform="matrix(0.38463041,0,0,0.4006172,-1.0891175,-11.912793)" />
    <linearGradient
       inkscape:collect="always"
       id="linearGradient1045">
      <stop
         style="stop-color:#f1df66;stop-opacity:1"
         offset="0"
         id="stop1041" />
      <stop
         style="stop-color:#cfa20f;stop-opacity:1"
         offset="1"
         id="stop1043" />
    </linearGradient>
  </defs>
  <rect
     style="fill:url(#linearGradient4161);fill-opacity:1;stroke-width:1.05"
     ry="20.999994"
     rx="20.999994"
     transform="matrix(0,-1,-1,0,0,0)"
     height="41.999989"
     width="41.999989"
     y="-45.000004"
     x="-45"
     id="rect10" />
  <path
     d="M 3.0122845,23.475 C 3.00798,23.650345 3,23.8236 3,24 3,35.634 12.366,45 24,45 35.634,45 45,35.634 45,24 45,23.8236 44.9919,23.650345 44.9874,23.475 44.7102,34.8633 35.4576,43.95 24,43.95 12.5424,43.95 3.2898,34.8633 3.0126,23.475 Z"
     style="opacity:0.15;stroke-width:1.05"
     id="path12" />
  <rect
     style="opacity:0.984;fill:url(#linearGradient1024);fill-opacity:1;stroke:none;stroke-width:1.11546;stroke-linecap:round;stroke-miterlimit:4;stroke-dasharray:none;stroke-opacity:1"
     id="rect1016"
     width="42.457493"
     height="42.200668"
     x="2.8169999"
     y="3.01"
     ry="21.100334"
     rx="21.228746" />
  <path
     d="m -42,-28.169966 h 1.677844 c 0.414214,0 0.789214,0.167893 1.06066,0.43934 0.271447,0.271446 0.43934,0.646446 0.43934,1.06066 v 1.432343 c 0,0.414214 -0.167893,0.789214 -0.43934,1.06066 -0.271446,0.271447 -0.646446,0.43934 -1.06066,0.43934 H -42 c -0.414214,0 -0.789214,-0.167893 -1.06066,-0.43934 -0.271447,-0.271446 -0.43934,-0.646446 -0.43934,-1.06066 v -1.432343 c 0,-0.414214 0.167893,-0.789214 0.43934,-1.06066 0.271446,-0.271447 0.646446,-0.43934 1.06066,-0.43934 z m -1.5,18.853135 v -12.019802 c 0,-0.414213 0.167893,-0.789213 0.43934,-1.06066 0.271446,-0.271446 0.646446,-0.43934 1.06066,-0.43934 h 1.677844 c 0.414214,0 0.789214,0.167894 1.06066,0.43934 0.271447,0.271447 0.43934,0.646447 0.43934,1.06066 v 12.019802 c 0,0.414214 -0.167893,0.789214 -0.43934,1.06066 -0.271446,0.271447 -0.646446,0.43934 -1.06066,0.43934 H -42 c -0.414214,0 -0.789214,-0.167893 -1.06066,-0.43934 C -43.332107,-8.527617 -43.5,-8.902617 -43.5,-9.316831 Z m 21.343593,-7.712871 v 7.712871 c 0,0.414214 -0.167893,0.789214 -0.43934,1.06066 -0.271446,0.271447 -0.646446,0.43934 -1.06066,0.43934 h -1.677844 c -0.414214,0 -0.789214,-0.167893 -1.06066,-0.43934 -0.271447,-0.271446 -0.43934,-0.646446 -0.43934,-1.06066 v -6.155115 c 0,-1.425201 -0.05887,-2.35146 -0.207021,-2.770697 -0.11957,-0.338356 -0.310422,-0.604622 -0.580236,-0.792769 -0.274189,-0.191198 -0.605821,-0.279769 -0.990127,-0.279769 -0.530557,0 -1.007253,0.145102 -1.429063,0.438515 -0.413277,0.287477 -0.697012,0.668091 -0.850248,1.142548 -0.178651,0.553147 -0.257201,1.577277 -0.257201,3.067452 v 5.349835 c 0,0.414214 -0.167893,0.789214 -0.43934,1.06066 -0.271447,0.271447 -0.646447,0.43934 -1.06066,0.43934 h -1.677844 c -0.414214,0 -0.789214,-0.167893 -1.060661,-0.43934 -0.271446,-0.271446 -0.439339,-0.646446 -0.439339,-1.06066 v -12.019802 c 0,-0.414213 0.167893,-0.789213 0.439339,-1.06066 0.271447,-0.271446 0.646447,-0.43934 1.060661,-0.43934 h 1.416076 c 0.414213,0 0.789213,0.167894 1.06066,0.43934 0.222698,0.222698 0.375696,0.515095 0.423468,0.841662 1.154039,-1.068457 2.521163,-1.597833 4.096817,-1.597833 0.885081,0 1.693405,0.162935 2.425946,0.484387 0.76232,0.33452 1.333,0.767547 1.723285,1.285773 0.386172,0.512764 0.65587,1.094224 0.807435,1.745166 0.141394,0.607255 0.215897,1.476356 0.215897,2.608436 z m 8.092838,7.712871 c 0,0.414214 -0.167893,0.789214 -0.43934,1.06066 -0.271446,0.271447 -0.646446,0.43934 -1.06066,0.43934 h -1.677844 c -0.414214,0 -0.789214,-0.167893 -1.06066,-0.43934 -0.271447,-0.271446 -0.43934,-0.646446 -0.43934,-1.06066 v -9.60231 h -1.448962 l -0.680136,-3.288444 2.129098,-0.52138 v -0.663773 c 0,-1.269479 0.146158,-2.2129 0.413373,-2.837051 0.289376,-0.675914 0.814735,-1.234642 1.593926,-1.660987 0.730766,-0.399849 1.653107,-0.609223 2.772612,-0.609223 1.245805,0 2.462186,0.213719 3.649116,0.641328 l -0.681653,3.546224 c -0.727198,-0.222936 -1.419558,-0.336067 -2.077451,-0.336067 -0.346416,0 -0.62061,0.04483 -0.777614,0.215139 -0.177018,0.19202 -0.214465,0.57991 -0.214465,1.106643 l 2.155736,0.490099 0.686198,3.317757 -2.841934,0.516984 z m 4.178562,-10.016926 c 0.649476,-1.243702 1.570523,-2.191954 2.760978,-2.846895 1.175738,-0.646844 2.488114,-0.972812 3.93849,-0.972812 2.250756,0 4.091049,0.74416 5.527814,2.216844 C 3.775882,-19.467173 4.5,-17.6125 4.5,-15.366336 c 0,2.263223 -0.73031,4.135402 -2.176833,5.622552 -1.451739,1.492511 -3.277788,2.243785 -5.482529,2.243785 -1.352321,0 -2.642253,-0.307878 -3.869591,-0.924505 -1.251194,-0.628612 -2.201949,-1.550624 -2.853435,-2.764842 -0.636789,-1.186826 -0.962514,-2.630579 -0.962514,-4.335405 0,-1.311576 0.318877,-2.581504 0.959895,-3.809006 z m 3.809569,4.007025 c 0,1.239084 0.269484,2.200723 0.856017,2.863306 0.553235,0.624968 1.234711,0.940325 2.04697,0.940325 0.811345,0 1.49035,-0.314758 2.039329,-0.939081 0.583426,-0.663497 0.85057,-1.634607 0.85057,-2.890952 0,-1.222996 -0.268254,-2.175913 -0.85057,-2.838147 -0.548979,-0.624323 -1.227984,-0.939081 -2.039329,-0.939081 -0.812259,0 -1.493735,0.315356 -2.04697,0.940325 -0.586533,0.662583 -0.856017,1.624222 -0.856017,2.863305 z"
     id="info"
     inkscape:connector-curvature="0"
     style="fill:#000000;fill-opacity:0.6;fill-rule:nonzero;stroke:#000000;stroke-width:1;stroke-opacity:0.05"
     transform="matrix(0.53071862,0,0,0.55277744,34.979918,23.928395)" />
  <path
     d="m -40,19.000001 c 0.828427,0 1.5,0.671573 1.5,1.5 0,0.828427 -0.671573,1.5 -1.5,1.5 h -5.5 c -0.828427,0 -1.5,-0.671573 -1.5,-1.5 0,-0.828427 0.671573,-1.5 1.5,-1.5 z m 12.5,0 c 0.828427,0 1.5,0.671573 1.5,1.5 0,0.828427 -0.671573,1.5 -1.5,1.5 h -3 c -0.828427,0 -1.5,-0.671573 -1.5,-1.5 0,-0.828427 0.671573,-1.5 1.5,-1.5 z m 23,0 c 0.828427,0 1.5,0.671573 1.5,1.5 0,0.828427 -0.671573,1.5 -1.5,1.5 h -18 c -0.828427,0 -1.5,-0.671573 -1.5,-1.5 0,-0.828427 0.671573,-1.5 1.5,-1.5 z m -31,-5 c 0.828427,0 1.5,0.671573 1.5,1.5 0,0.828427 -0.671573,1.5 -1.5,1.5 h -10 c -0.828427,0 -1.5,-0.671573 -1.5,-1.5 0,-0.828427 0.671573,-1.5 1.5,-1.5 z m 19,0 c 0.828427,0 1.5,0.671573 1.5,1.5 0,0.828427 -0.671573,1.5 -1.5,1.5 h -14 c -0.828427,0 -1.5,-0.671573 -1.5,-1.5 0,-0.828427 0.671573,-1.5 1.5,-1.5 z m 18,0 c 0.828427,0 1.5,0.671573 1.5,1.5 0,0.828427 -0.671573,1.5 -1.5,1.5 h -13 c -0.828427,0 -1.5,-0.671573 -1.5,-1.5 0,-0.828427 0.671573,-1.5 1.5,-1.5 z m -39,-5 c 0.828427,0 1.5,0.671573 1.5,1.5 0,0.828427 -0.671573,1.5 -1.5,1.5 h -8 c -0.828427,0 -1.5,-0.671573 -1.5,-1.5 0,-0.828427 0.671573,-1.5 1.5,-1.5 z m 32,0 c 0.828427,0 1.5,0.671573 1.5,1.5 0,0.828427 -0.671573,1.5 -1.5,1.5 h -25 c -0.828427,0 -1.5,-0.671573 -1.5,-1.5 0,-0.828427 0.671573,-1.5 1.5,-1.5 z m -35,-5 c 0.828427,0 1.5,0.671573 1.5,1.5 0,0.828427 -0.671573,1.5 -1.5,1.5 h -5 c -0.828427,0 -1.5,-0.671573 -1.5,-1.5 0,-0.828427 0.671573,-1.5 1.5,-1.5 z m 17,0 c 0.828427,0 1.5,0.671573 1.5,1.5 0,0.828427 -0.671573,1.5 -1.5,1.5 h -7 c -0.828427,0 -1.5,-0.671573 -1.5,-1.5 0,-0.828427 0.671573,-1.5 1.5,-1.5 z m 20,0 c 0.828427,0 1.5,0.671573 1.5,1.5 0,0.828427 -0.671573,1.5 -1.5,1.5 h -15 c -0.828427,0 -1.5,-0.671573 -1.5,-1.5 0,-0.828427 0.671573,-1.5 1.5,-1.5 z m 10,0 c 0.828427,0 1.5,0.671573 1.5,1.5 0,0.828427 -0.671573,1.5 -1.5,1.5 h -5 c -0.828427,0 -1.5,-0.671573 -1.5,-1.5 0,-0.828427 0.671573,-1.5 1.5,-1.5 z m -44,-5 c 0.828427,0 1.5,0.671573 1.5,1.5 0,0.828427 -0.671573,1.5 -1.5,1.5 h -8 c -0.828427,0 -1.5,-0.671573 -1.5,-1.5 0,-0.828427 0.671573,-1.5 1.5,-1.5 z m 21,0 c 0.828427,0 1.5,0.671573 1.5,1.5 0,0.828427 -0.671573,1.5 -1.5,1.5 h -14 c -0.828427,0 -1.5,-0.671573 -1.5,-1.5 0,-0.828427 0.671573,-1.5 1.5,-1.5 z m 16,0 c 0.828427,0 1.5,0.671573 1.5,1.5 0,0.828427 -0.671573,1.5 -1.5,1.5 h -11 c -0.828427,0 -1.5,-0.671573 -1.5,-1.5 0,-0.828427 0.671573,-1.5 1.5,-1.5 z"
     id="path143"
     style="opacity:1;fill:url(#linearGradient-13);fill-rule:evenodd;stroke:none;stroke-width:1"
     inkscape:connector-curvature="0"
     transform="matrix(0.53071862,0,0,0.55277744,34.979918,23.928395)" />
  <path
     inkscape:connector-curvature="0"
     id="rect1026"
     d="m 14.123317,38.156536 c -0.357531,0 -0.645308,0.299736 -0.645308,0.672125 v 2.342678 c 0,0.37239 0.287777,0.672125 0.645308,0.672125 h 0.663336 c 0.35753,0 0.645307,-0.299735 0.645307,-0.672125 v -2.342678 c 0,-0.372389 -0.287777,-0.672125 -0.645307,-0.672125 z m 3.066524,0 c -0.357533,0 -0.645308,0.299736 -0.645308,0.672125 v 2.342678 c 0,0.37239 0.287775,0.672125 0.645308,0.672125 h 0.664092 c 0.35753,0 0.645303,-0.299735 0.645303,-0.672125 v -2.342678 c 0,-0.372389 -0.287773,-0.672125 -0.645303,-0.672125 z m 3.06728,0 c -0.357532,0 -0.645308,0.299736 -0.645308,0.672125 v 2.342678 c 0,0.37239 0.287776,0.672125 0.645308,0.672125 h 0.664088 c 0.357533,0 0.645308,-0.299735 0.645308,-0.672125 v -2.342678 c 0,-0.372389 -0.287775,-0.672125 -0.645308,-0.672125 z m 3.067277,0 c -0.357535,0 -0.646061,0.299736 -0.646061,0.672125 v 2.342678 c 0,0.37239 0.288526,0.672125 0.646061,0.672125 h 0.663338 c 0.357531,0 0.645303,-0.299735 0.645303,-0.672125 v -2.342678 c 0,-0.372389 -0.287772,-0.672125 -0.645303,-0.672125 z m 3.066527,0 c -0.357532,0 -0.645308,0.299736 -0.645308,0.672125 v 2.342678 c 0,0.37239 0.287776,0.672125 0.645308,0.672125 h 0.664087 c 0.357534,0 0.645308,-0.299735 0.645308,-0.672125 v -2.342678 c 0,-0.372389 -0.287774,-0.672125 -0.645308,-0.672125 z m 3.067276,0 c -0.357534,0 -0.64531,0.299736 -0.64531,0.672125 v 2.342678 c 0,0.37239 0.287776,0.672125 0.64531,0.672125 h 0.663339 c 0.35753,0 0.646056,-0.299735 0.646056,-0.672125 v -2.342678 c 0,-0.372389 -0.288526,-0.672125 -0.646056,-0.672125 z m 3.067274,0 c -0.357532,0 -0.646054,0.299736 -0.646054,0.672125 v 2.342678 c 0,0.37239 0.288522,0.672125 0.646054,0.672125 h 0.663341 c 0.357533,0 0.645307,-0.299735 0.645307,-0.672125 v -2.342678 c 0,-0.372389 -0.287774,-0.672125 -0.645307,-0.672125 z"
     style="fill:url(#linearGradient1047);fill-opacity:1;stroke:none;stroke-width:0.785091;stroke-linecap:round;stroke-miterlimit:4;stroke-dasharray:none;stroke-opacity:1" />
  <path
     id="path1049"
     d="m 14.123309,38.156464 c -0.357531,0 -0.645309,0.29974 -0.645309,0.672131 v 0.422521 c 0,-0.372387 0.287778,-0.672125 0.645309,-0.672125 h 0.663336 c 0.357531,0 0.645307,0.299738 0.645307,0.672125 v -0.422521 c 0,-0.372391 -0.287776,-0.672131 -0.645307,-0.672131 z m 3.066523,0 c -0.357528,0 -0.645303,0.29974 -0.645303,0.672131 v 0.422521 c 0,-0.372387 0.287775,-0.672125 0.645303,-0.672125 h 0.664093 c 0.357531,0 0.645308,0.299738 0.645308,0.672125 v -0.422521 c 0,-0.372391 -0.287777,-0.672131 -0.645308,-0.672131 z m 3.067281,0 c -0.357532,0 -0.64531,0.29974 -0.64531,0.672131 v 0.422521 c 0,-0.372387 0.287778,-0.672125 0.64531,-0.672125 h 0.664085 c 0.357534,0 0.645312,0.299738 0.645312,0.672125 v -0.422521 c 0,-0.372391 -0.287778,-0.672131 -0.645312,-0.672131 z m 3.067276,0 c -0.357535,0 -0.646058,0.29974 -0.646058,0.672131 v 0.422521 c 0,-0.372387 0.288523,-0.672125 0.646058,-0.672125 h 0.663339 c 0.357531,0 0.645308,0.299738 0.645308,0.672125 v -0.422521 c 0,-0.372391 -0.287777,-0.672131 -0.645308,-0.672131 z m 3.066527,0 c -0.357531,0 -0.645309,0.29974 -0.645309,0.672131 v 0.422521 c 0,-0.372387 0.287778,-0.672125 0.645309,-0.672125 h 0.664085 c 0.357535,0 0.645312,0.299738 0.645312,0.672125 v -0.422521 c 0,-0.372391 -0.287777,-0.672131 -0.645312,-0.672131 z m 3.067274,0 c -0.357532,0 -0.645307,0.29974 -0.645307,0.672131 v 0.422521 c 0,-0.372387 0.287775,-0.672125 0.645307,-0.672125 h 0.663342 c 0.35753,0 0.646055,0.299738 0.646055,0.672125 v -0.422521 c 0,-0.372391 -0.288525,-0.672131 -0.646055,-0.672131 z m 3.067277,0 c -0.357529,0 -0.646057,0.29974 -0.646057,0.672131 v 0.422521 c 0,-0.372387 0.288528,-0.672125 0.646057,-0.672125 h 0.663338 c 0.357534,0 0.645311,0.299738 0.645311,0.672125 v -0.422521 c 0,-0.372391 -0.287777,-0.672131 -0.645311,-0.672131 z"
     style="fill:#453734;fill-opacity:0.556738;stroke:none;stroke-width:0.785091;stroke-linecap:round;stroke-miterlimit:4;stroke-dasharray:none;stroke-opacity:1"
     inkscape:connector-curvature="0" />
</svg>
