<?xml version="1.0" encoding="UTF-8" standalone="no"?>
<svg
   xmlns:dc="http://purl.org/dc/elements/1.1/"
   xmlns:cc="http://creativecommons.org/ns#"
   xmlns:rdf="http://www.w3.org/1999/02/22-rdf-syntax-ns#"
   xmlns:svg="http://www.w3.org/2000/svg"
   xmlns="http://www.w3.org/2000/svg"
   xmlns:xlink="http://www.w3.org/1999/xlink"
   xmlns:sodipodi="http://sodipodi.sourceforge.net/DTD/sodipodi-0.dtd"
   xmlns:inkscape="http://www.inkscape.org/namespaces/inkscape"
   width="48"
   height="48"
   version="1.1"
   id="svg49"
   sodipodi:docname="kmenuedit.svg"
   inkscape:version="0.92.5 (2060ec1f9f, 2020-04-08)">
  <metadata
     id="metadata53">
    <rdf:RDF>
      <cc:Work
         rdf:about="">
        <dc:format>image/svg+xml</dc:format>
        <dc:type
           rdf:resource="http://purl.org/dc/dcmitype/StillImage" />
        <dc:title></dc:title>
      </cc:Work>
    </rdf:RDF>
  </metadata>
  <sodipodi:namedview
     pagecolor="#ffffff"
     bordercolor="#666666"
     borderopacity="1"
     objecttolerance="10"
     gridtolerance="10"
     guidetolerance="10"
     inkscape:pageopacity="0"
     inkscape:pageshadow="2"
     inkscape:window-width="1085"
     inkscape:window-height="480"
     id="namedview51"
     showgrid="false"
     inkscape:zoom="4.9166667"
     inkscape:cx="2.1355932"
     inkscape:cy="24"
     inkscape:window-x="0"
     inkscape:window-y="25"
     inkscape:window-maximized="0"
     inkscape:current-layer="svg49" />
  <defs
     id="defs21">
    <linearGradient
       id="c">
      <stop
         stop-color="#eff1f1"
         id="stop2" />
      <stop
         offset="1"
         stop-color="#cfd5d5"
         id="stop4" />
    </linearGradient>
    <linearGradient
       id="b">
      <stop
         id="stop7" />
      <stop
         offset="1"
         stop-opacity="0"
         id="stop9" />
    </linearGradient>
    <linearGradient
       xlink:href="#a"
       id="f"
       y1="37"
       y2="4"
       x2="0"
       gradientUnits="userSpaceOnUse" />
    <linearGradient
       xlink:href="#b"
       id="g"
       y1="22.313"
       x1="20.438"
       y2="25.406"
       x2="23.531"
       gradientUnits="userSpaceOnUse" />
    <linearGradient
       id="a">
      <stop
         stop-color="#da4453"
         id="stop14" />
      <stop
         offset="1"
         stop-color="#ff7336"
         id="stop16" />
    </linearGradient>
    <linearGradient
       xlink:href="#c"
       id="e"
       y1="16"
       y2="44"
       x2="0"
       gradientUnits="userSpaceOnUse"
       gradientTransform="matrix(1,0,0,1.03571,0,-1.571)" />
    <linearGradient
       xlink:href="#c"
       id="d"
       y1="16"
       y2="44"
       x2="0"
       gradientUnits="userSpaceOnUse"
       gradientTransform="translate(21,-7)" />
  </defs>
  <rect
     width="19"
     x="25"
     y="9"
     height="28"
     ry="4"
     rx="4"
     id="rect23"
     style="fill:url(#d)" />
  <path
     d="m 25,25 h 19 v 4 H 25 Z"
     id="path25"
     inkscape:connector-curvature="0"
     style="fill:#3b85b5" />
  <path
     d="m 32,22 h 6 v 2 h -6 z m -6,-4 h 4 v 2 h -4 z m 4,12 h 6 v 2 h -6 z m -4,-8 h 3 v 2 h -3 z m 11,8 h 2 v 2 h -2 z m -11,0 h 3 v 2 h -3 z m 3,4 h 9 v 2 h -9 z m 2,-12 h -1 v 2 h 1 z m 0,-4 h 12 v 2 H 31 Z m -5,-4 h 9 v 2 h -9 z m 11,0 h -1 v 2 h 1 z M 26,10 h 6 v 2 h -6 z m 10,0 h 3 v 2 h -3 z m -1,0 h -2 v 2 h 2 z"
     id="path27"
     inkscape:connector-curvature="0"
     style="fill:#b0b8b8" />
  <rect
     width="19"
     x="4"
     y="15"
     height="29"
     ry="4"
     rx="4"
     id="rect29"
     style="fill:url(#e)" />
  <g
     id="g33"
     style="fill:#b0b8b8">
    <path
       d="m 6,17 h 6 v 2 H 6 Z m 0,8 h 4 v 2 H 6 Z m 0,4 h 6 v 2 H 6 Z m 5,-4 h 3 v 2 h -3 z m 2,4 h 2 v 2 h -2 z m -7,4 h 3 v 2 H 6 Z m 4,0 h 9 v 2 h -9 z m 11,0 h -1 v 2 h 1 z M 6,37 h 2 v 2 H 6 Z m 3,0 h 4 v 2 H 9 Z m 1,4 h 6 v 2 h -6 z"
       id="path31"
       inkscape:connector-curvature="0" />
  </g>
  <path
     d="m 4,20 h 19 v 4 H 4 Z"
     id="path35"
     inkscape:connector-curvature="0"
     style="fill:#3b85b5" />
  <g
     id="g43"
     style="fill-rule:evenodd">
    <path
       d="m 33.998,4 -2.33,1.143 c -2.332,1.144 -4.794,3.75 -4.794,3.75 l 0.366,2.945 c -0.138,0.2 -0.283,0.414 -0.43,0.629 l -1.035,-1.857 -1.686,2.098 1.19,2.043 -0.023,0.033 -1.49,-1.694 c 0,0 -0.972,1.144 -3.951,5.402 -2.98,4.26 -5.441,9.217 -5.441,9.217 l 0.114,3.369 c -0.16,0.237 -0.33,0.494 -0.486,0.724 l -0.47,-2.758 -1.036,1.716 -0.26,1.655 -0.582,0.7 c 0,0 -0.962,3.598 -0.777,4.249 0.184,0.65 2.624,-0.629 2.624,-0.629 l 0.128,-0.857 1.975,-0.634 -2.198,-0.439 0.172,-0.286 c 0.263,0.08 0.573,0.172 1.153,0.278 1.393,0.254 2.33,-0.253 2.33,-0.253 l 1.005,-1.272 c 0,0 -0.777,0.54 -1.651,0.699 -0.862,0.157 -2.326,-0.205 -2.37,-0.216 l 0.237,-0.394 c 0.37,-0.094 3.703,-0.963 5.662,-2.345 2.072,-1.462 6.185,-5.975 6.185,-5.975 0,0 -0.992,-0.011 -3.129,-0.041 -2.014,-0.03 -3.794,-0.016 -4,0 0.093,-0.149 0,-1 0,-1 l 8.586,-1.344 c 0,0 0.552,-1.05 1.394,-2.734 C 29.822,18.238 32,14 32,14 c 0,0 -1.462,-0.042 -2.768,-0.221 a 25.128,25.128 0 0 1 -2.536,-0.5 l 0.046,-0.07 c 0.181,-0.084 1.346,-0.62 2.216,-0.891 0.938,-0.292 3.8,-0.697 3.8,-0.697 0,0 0.024,-0.404 0.23,-1.236 0.206,-0.831 0.618,-2.742 0.618,-2.742 l -4.98,2.807 c 0.21,-0.289 0.407,-0.545 0.612,-0.818 l 4.551,-2.663 c 0,0 0.046,-0.584 0.138,-1.348 C 34.018,4.857 33.998,4 33.998,4 Z"
       transform="translate(-1)"
       id="path37"
       style="fill:url(#f)"
       inkscape:connector-curvature="0" />
    <path
       d="M 33,4 C 33,4 28.38,8.94 23.778,15.275 19.176,21.608 14.51,28.774 9.844,36.955 5.792,44.058 7.258,44 7.258,44 c 0,0 0.46,-1.184 3.678,-6.761 C 14.012,31.907 17.903,25.023 24.41,15.534 27.51,11.012 33,4 33,4 Z"
       id="path39"
       inkscape:connector-curvature="0"
       style="fill:#31363b" />
    <path
       d="m 33.998,4 -0.707,0.883 -2.577,3.298 -3.972,5.028 c 0.182,-0.084 1.345,-0.62 2.215,-0.89 0.939,-0.293 3.8,-0.698 3.8,-0.698 0,0 0.025,-0.405 0.231,-1.236 0.206,-0.832 0.617,-2.742 0.617,-2.742 l -4.3,2.408 c 0.21,-0.288 0.409,-0.544 0.613,-0.816 l 3.871,-2.266 c 0,0 0.045,-0.584 0.137,-1.348 C 34.017,4.857 33.998,4 33.998,4 Z M 26.742,13.209 19,24 27.586,22.656 c 0,0 0.552,-1.05 1.394,-2.734 C 29.822,18.237 32,14 32,14 c 0,0 -1.462,-0.04 -2.768,-0.22 a 25.182,25.182 0 0 1 -2.537,-0.5 z M 19,24 11.035,37.52 c 0.58,0.203 2.465,-0.786 2.465,-0.786 l 0.129,-0.855 1.976,-0.635 -2.199,-0.44 0.172,-0.284 a 9.03,9.03 0 0 0 1.154,0.277 c 1.393,0.254 2.329,-0.252 2.329,-0.252 l 1.005,-1.274 c 0,0 -0.778,0.54 -1.652,0.7 -0.861,0.156 -2.325,-0.206 -2.37,-0.217 l 0.237,-0.393 c 0.37,-0.094 3.703,-0.963 5.662,-2.345 2.073,-1.462 6.186,-5.975 6.186,-5.975 0,0 -0.992,-0.01 -3.129,-0.041 -2.014,-0.03 -3.794,-0.016 -4,0 0.093,-0.149 0,-1 0,-1 z"
       transform="translate(-1)"
       id="path41"
       style="opacity:0.2;fill:url(#g)"
       inkscape:connector-curvature="0" />
  </g>
  <path
     d="m 6,21 h 3 v 2 H 6 Z"
     id="path45"
     inkscape:connector-curvature="0"
     style="fill:#fcfcfc" />
  <path
     d="m 10,21 h 6 v 2 h -6 z m -4,0 h 3 v 2 H 6 Z m 31,5 h 2 v 2 h -2 z m -11,0 h 10 v 2 H 26 Z"
     id="path47"
     inkscape:connector-curvature="0"
     style="fill:#7cbcec" />
</svg>
