<?xml version="1.0" encoding="UTF-8" standalone="no"?>
<svg
   height="48"
   width="48"
   version="1.1"
   id="svg10"
   sodipodi:docname="Alva.svg"
   inkscape:version="1.3.2 (091e20ef0f, 2023-11-25)"
   xmlns:inkscape="http://www.inkscape.org/namespaces/inkscape"
   xmlns:sodipodi="http://sodipodi.sourceforge.net/DTD/sodipodi-0.dtd"
   xmlns:xlink="http://www.w3.org/1999/xlink"
   xmlns="http://www.w3.org/2000/svg"
   xmlns:svg="http://www.w3.org/2000/svg"
   xmlns:rdf="http://www.w3.org/1999/02/22-rdf-syntax-ns#"
   xmlns:cc="http://creativecommons.org/ns#"
   xmlns:dc="http://purl.org/dc/elements/1.1/">
  <metadata
     id="metadata16">
    <rdf:RDF>
      <cc:Work
         rdf:about="">
        <dc:format>image/svg+xml</dc:format>
        <dc:type
           rdf:resource="http://purl.org/dc/dcmitype/StillImage" />
      </cc:Work>
    </rdf:RDF>
  </metadata>
  <defs
     id="defs14">
    <linearGradient
       inkscape:collect="always"
       id="linearGradient3593">
      <stop
         style="stop-color:#2d2d2d;stop-opacity:0;"
         offset="0"
         id="stop3589" />
      <stop
         style="stop-color:#333333;stop-opacity:1"
         offset="1"
         id="stop3591" />
    </linearGradient>
    <linearGradient
       id="c"
       x1="31.458"
       x2="31.458"
       y1="51.726002"
       y2="62.897999"
       gradientTransform="matrix(0.36079,0,0,0.36079,-2.8832,-9.4399)"
       gradientUnits="userSpaceOnUse">
      <stop
         stop-color="#1776ff"
         offset="0"
         id="stop292" />
      <stop
         stop-color="#2fceff"
         offset="1"
         id="stop294" />
    </linearGradient>
    <linearGradient
       id="d"
       x1="31.458"
       x2="31.458"
       y1="36.897999"
       y2="59.897999"
       gradientTransform="matrix(0.36079,0,0,0.36079,-2.8832,-9.4399)"
       gradientUnits="userSpaceOnUse">
      <stop
         stop-color="#ff5514"
         offset="0"
         id="stop297" />
      <stop
         stop-color="#ff9014"
         offset="1"
         id="stop299" />
    </linearGradient>
    <linearGradient
       id="a"
       x1="31.458"
       x2="31.458"
       y1="46.897999"
       y2="56.897999"
       gradientTransform="matrix(0.36079,0,0,0.36079,-2.8832,-9.4399)"
       gradientUnits="userSpaceOnUse">
      <stop
         stop-color="#c0e5fb"
         offset="0"
         id="stop302" />
      <stop
         stop-color="#c3faff"
         offset="1"
         id="stop304" />
    </linearGradient>
    <linearGradient
       gradientTransform="matrix(1.0394952,0,0,1.0394363,-448.49881,-520.66414)"
       gradientUnits="userSpaceOnUse"
       x2="426.69501"
       y2="499.92099"
       y1="547.67499"
       id="a-6"
       x1="389.32001">
      <stop
         stop-color="#18222a"
         style="stop-color:#436077;stop-opacity:1;"
         id="stop216"
         offset="0" />
      <stop
         stop-color="#566069"
         offset="1"
         style="stop-color:#6d7983;stop-opacity:1"
         id="stop218" />
    </linearGradient>
    <linearGradient
       id="e"
       x1="8.4461002"
       x2="24.603001"
       y1="6.2688999"
       y2="24.570999"
       gradientUnits="userSpaceOnUse"
       gradientTransform="translate(0.254427,-38.49298)">
      <stop
         stop-opacity=".2088"
         offset="0"
         id="stop4" />
      <stop
         stop-opacity="0"
         offset="1"
         id="stop6" />
    </linearGradient>
    <linearGradient
       id="d-3"
       x1="7.8488002"
       x2="14.108"
       y1="3.5121"
       y2="14.183"
       gradientUnits="userSpaceOnUse"
       gradientTransform="translate(0.254427,-38.49298)">
      <stop
         stop-opacity=".2088"
         offset="0"
         id="stop14" />
      <stop
         stop-opacity="0"
         offset="1"
         id="stop16" />
    </linearGradient>
    <linearGradient
       id="c-6"
       x1="31.458"
       x2="31.458"
       y1="51.726002"
       y2="62.897999"
       gradientTransform="matrix(0.36079,0,0,0.36079,-2.8832,-9.4399)"
       gradientUnits="userSpaceOnUse">
      <stop
         stop-color="#1776ff"
         offset="0"
         id="stop292-7"
         style="stop-color:#55ddff;stop-opacity:1" />
      <stop
         stop-color="#2fceff"
         offset="1"
         id="stop294-5"
         style="stop-color:#00ccff;stop-opacity:1" />
    </linearGradient>
    <linearGradient
       id="d-35"
       x1="31.458"
       x2="31.458"
       y1="36.897999"
       y2="59.897999"
       gradientTransform="matrix(0.36079,0,0,0.36079,-2.8832,-9.4399)"
       gradientUnits="userSpaceOnUse">
      <stop
         stop-color="#ff5514"
         offset="0"
         id="stop297-6"
         style="stop-color:#ffccaa;stop-opacity:1" />
      <stop
         stop-color="#ff9014"
         offset="1"
         id="stop299-2"
         style="stop-color:#ff9955;stop-opacity:1" />
    </linearGradient>
    <linearGradient
       id="a-9"
       x1="31.458"
       x2="31.458"
       y1="46.897999"
       y2="56.897999"
       gradientTransform="matrix(0.36079,0,0,0.36079,-2.8832,-9.4399)"
       gradientUnits="userSpaceOnUse">
      <stop
         stop-color="#c0e5fb"
         offset="0"
         id="stop302-1"
         style="stop-color:#e3d7f4;stop-opacity:1" />
      <stop
         stop-color="#c3faff"
         offset="1"
         id="stop304-2"
         style="stop-color:#aa87de;stop-opacity:1" />
    </linearGradient>
    <linearGradient
       inkscape:collect="always"
       xlink:href="#linearGradient3593"
       id="linearGradient3595"
       x1="-98.162651"
       y1="152.83574"
       x2="-4.8500652"
       y2="3.0038986"
       gradientUnits="userSpaceOnUse" />
    <linearGradient
       xlink:href="#a-7"
       id="d-36"
       x1="26.176001"
       x2="42.175999"
       y1="32.806"
       y2="32.806"
       gradientUnits="userSpaceOnUse"
       gradientTransform="translate(-10.175993,-8.8059983)" />
    <linearGradient
       id="a-7">
      <stop
         offset="0"
         stop-color="#dda641"
         id="stop2-5" />
      <stop
         offset="1"
         stop-color="#ffdf5e"
         id="stop4-3" />
    </linearGradient>
  </defs>
  <sodipodi:namedview
     pagecolor="#ffffff"
     bordercolor="#666666"
     borderopacity="1"
     objecttolerance="10"
     gridtolerance="10"
     guidetolerance="10"
     inkscape:pageopacity="0"
     inkscape:pageshadow="2"
     inkscape:window-width="1920"
     inkscape:window-height="994"
     id="namedview12"
     showgrid="false"
     inkscape:zoom="5.6715856"
     inkscape:cx="65.766441"
     inkscape:cy="38.437223"
     inkscape:window-x="0"
     inkscape:window-y="0"
     inkscape:window-maximized="1"
     inkscape:current-layer="svg10"
     inkscape:document-rotation="0"
     inkscape:showpageshadow="2"
     inkscape:pagecheckerboard="0"
     inkscape:deskcolor="#d1d1d1" />
  <rect
     width="41.579815"
     x="-44.58094"
     y="3.0038986"
     rx="20.789907"
     height="41.577457"
     transform="scale(-1,1)"
     id="rect223"
     ry="20.788729"
     style="fill:url(#linearGradient3595);fill-opacity:1" />
  <path
     style="display:inline;opacity:0.3;fill:#373e48;fill-opacity:1;stroke-width:2.9105;stroke-opacity:0.55"
     d="M 3.012474,23.272953 C 3.008614,23.446232 3,23.618528 3,23.792801 c 0,11.517041 9.272321,20.788741 20.789843,20.788741 11.517538,0 20.789997,-9.2717 20.789997,-20.788741 0,-0.174273 -0.0079,-0.345575 -0.01247,-0.519848 -0.274537,11.274746 -9.438704,20.268992 -20.777509,20.268992 -11.342962,0 -20.502976,-8.994246 -20.7773726,-20.268992"
     id="path225" />
  <path
     d="M 3.012474,24.308587 C 3.008614,24.135308 3,23.964004 3,23.788739 3,12.271797 12.272321,3 23.789843,3 35.307381,3 44.57984,12.271797 44.57984,23.788739 c 0,0.174273 -0.0079,0.346566 -0.01247,0.519848 C 44.292828,13.033846 35.128661,4.039596 23.789855,4.039596 c -11.342962,0 -20.5029756,8.99425 -20.7773722,20.268991"
     style="display:inline;opacity:0.3;fill:#ffffff;fill-opacity:1;stroke-width:2.9105;stroke-opacity:0.55"
     id="path229" />
  <path
     style="fill:#5d0111;fill-opacity:0.431296;fill-rule:evenodd;stroke-width:0.759914"
     d="m 33.709237,21.542847 c 0.437093,0 0.697273,0.507092 0.442299,0.869303 L 22.225049,39.420484 c -0.312209,0.434654 -0.983465,0.217337 -0.983465,-0.320818 V 22.091332 c 0,-0.300115 0.244566,-0.548485 0.541171,-0.548485 z"
     id="path890" />
  <path
     style="fill:#ff0369;fill-opacity:1;fill-rule:evenodd;stroke-width:0.699902"
     d="m 32.65266,21.550336 c 0.39973,0 0.63767,0.470371 0.404492,0.80635 L 22.150117,38.133318 c -0.285524,0.403177 -0.899401,0.201599 -0.899401,-0.297584 V 22.059102 c 0,-0.278381 0.22366,-0.508766 0.494911,-0.508766 z"
     id="path8" />
  <path
     style="fill:#09017c;fill-opacity:0.169565;fill-rule:evenodd;stroke-width:0.699902"
     d="m 25.649721,10.35187 a 0.47594123,0.47993427 0 0 0 -0.395062,0.21599 L 14.345997,26.343041 c -0.237971,0.335953 -6.36e-4,0.80653 0.399162,0.80653 h 10.908664 c 0.271288,0 0.496221,-0.231517 0.496221,-0.509891 V 10.865867 c 0,-0.316757 -0.248077,-0.513994 -0.500323,-0.513994 z m -1.599389,5.651179 v 9.046807 h -6.25676 z"
     id="path10" />
  <path
     style="fill:#6602ef;fill-opacity:1;fill-rule:evenodd;stroke-width:0.699902"
     d="M 25.649721,9.6519669 A 0.47594123,0.47993427 0 0 0 25.254659,9.8679562 L 14.345997,25.643138 c -0.237971,0.33595 -6.36e-4,0.80653 0.399162,0.80653 h 10.908664 c 0.271288,0 0.496221,-0.231517 0.496221,-0.509892 V 10.165961 c 0,-0.3167547 -0.248077,-0.5139916 -0.500323,-0.5139916 z m -1.599389,5.6511791 v 9.046806 h -6.25676 z"
     id="path12" />
  <path
     style="fill:#51004d;fill-rule:evenodd;stroke-width:0.699902"
     d="m 24.050332,21.550336 v 2.799616 h -2.799616 v 2.099712 h 4.403107 c 0.271288,0 0.496221,-0.231516 0.496221,-0.50989 v -4.389438 z"
     id="path16" />
</svg>
