<?xml version="1.0" encoding="UTF-8" standalone="no"?>
<svg
   width="64"
   height="64"
   version="1.1"
   id="svg8"
   sodipodi:docname="cutter.svg"
   inkscape:version="1.4 (unknown)"
   xmlns:inkscape="http://www.inkscape.org/namespaces/inkscape"
   xmlns:sodipodi="http://sodipodi.sourceforge.net/DTD/sodipodi-0.dtd"
   xmlns="http://www.w3.org/2000/svg"
   xmlns:svg="http://www.w3.org/2000/svg">
  <defs
     id="defs8" />
  <sodipodi:namedview
     id="namedview8"
     pagecolor="#ffffff"
     bordercolor="#000000"
     borderopacity="0.25"
     inkscape:showpageshadow="2"
     inkscape:pageopacity="0.0"
     inkscape:pagecheckerboard="0"
     inkscape:deskcolor="#d1d1d1"
     inkscape:zoom="12.109375"
     inkscape:cx="31.95871"
     inkscape:cy="32"
     inkscape:window-width="1920"
     inkscape:window-height="998"
     inkscape:window-x="0"
     inkscape:window-y="0"
     inkscape:window-maximized="1"
     inkscape:current-layer="svg8" />
  <circle
     style="opacity:0.2"
     cx="32"
     cy="33"
     r="28"
     id="circle1" />
  <circle
     style="fill:#bbc9dd;fill-opacity:1"
     cx="32"
     cy="32"
     r="28"
     id="circle2" />
  <path
     style="opacity:0.1"
     d="M 32,10 A 23,23 0 0 0 9,33 23,23 0 0 0 32,56 23,23 0 0 0 48.488281,49 H 37.5 l -8,-16 8,-16 H 48.521484 A 23,23 0 0 0 32,10 Z m 11,16 -5,3.5 -5,3.5 5,3.5 5,3.5 v -7 z m 0,7 5,3.5 5,3.5 v -7 -7 l -5,3.5 z"
     id="path2" />
  <path
     style="fill:#2d3d53;fill-opacity:1"
     transform="matrix(1.2375863,0,0,1.5004937,3.0471814,-4.7838033)"
     d="m 24.20261,24.514467 4.040122,-2.332565 4.040122,-2.332566 0,4.665131 0,4.665131 -4.040122,-2.332565 z"
     id="path3" />
  <path
     style="fill:#2d3d53;fill-opacity:1"
     d="M 32 9 A 23 23 0 0 0 9 32 A 23 23 0 0 0 32 55 A 23 23 0 0 0 48.488281 48 L 37.5 48 L 29.5 32 L 37.5 16 L 48.521484 16 A 23 23 0 0 0 32 9 z"
     id="path4" />
  <path
     style="fill:#2d3d53;fill-opacity:1"
     transform="matrix(1.2375863,0,0,1.5004937,13.047181,-4.7838033)"
     d="m 24.20261,24.514467 4.040122,-2.332565 4.040122,-2.332566 0,4.665131 0,4.665131 -4.040122,-2.332565 z"
     id="path5" />
  <path
     style="opacity:0.2"
     d="m 20.684304,17 c -1.029339,2.06e-4 -1.974464,0.573568 -2.457052,1.490577 L 4.3283371,44.87853 C 3.3452848,46.74727 4.6879209,48.999414 6.7853874,49 H 29.214785 c 2.094801,-7e-4 3.437534,-2.24774 2.459662,-4.116204 L 25.259259,33 30.706183,21.126739 C 31.694432,19.25773 30.351888,17.000459 28.251743,17 Z"
     id="path6" />
  <path
     style="fill:#eef1f7;fill-opacity:1"
     d="m 20.684304,16 c -1.029339,2.06e-4 -1.974464,0.573568 -2.457052,1.490577 L 4.3283371,43.87853 C 3.3452848,45.74727 4.6879209,47.999414 6.7853874,48 H 29.214785 c 2.094801,-7e-4 3.437534,-2.24774 2.459662,-4.116204 L 25.259259,32 30.706183,20.126739 C 31.694432,18.25773 30.351888,16.000459 28.251743,16 Z"
     id="path7" />
  <path
     style="fill:#ffffff;opacity:0.2"
     d="M 32 4 A 28 28 0 0 0 4 32 A 28 28 0 0 0 4.0214844 32.585938 A 28 28 0 0 1 32 5 A 28 28 0 0 1 59.978516 32.414062 A 28 28 0 0 0 60 32 A 28 28 0 0 0 32 4 z"
     id="path8" />
</svg>
