<?xml version="1.0" encoding="UTF-8" standalone="no"?>
<svg
   width="48"
   height="48"
   version="1"
   id="svg6"
   sodipodi:docname="authy.svg"
   inkscape:version="1.3.2 (091e20ef0f, 2023-11-25)"
   xmlns:inkscape="http://www.inkscape.org/namespaces/inkscape"
   xmlns:sodipodi="http://sodipodi.sourceforge.net/DTD/sodipodi-0.dtd"
   xmlns="http://www.w3.org/2000/svg"
   xmlns:svg="http://www.w3.org/2000/svg">
  <defs
     id="defs6" />
  <sodipodi:namedview
     id="namedview6"
     pagecolor="#ffffff"
     bordercolor="#999999"
     borderopacity="1"
     inkscape:showpageshadow="2"
     inkscape:pageopacity="0"
     inkscape:pagecheckerboard="0"
     inkscape:deskcolor="#d1d1d1"
     inkscape:zoom="4.2094951"
     inkscape:cx="16.629073"
     inkscape:cy="36.58396"
     inkscape:window-width="1920"
     inkscape:window-height="994"
     inkscape:window-x="0"
     inkscape:window-y="0"
     inkscape:window-maximized="1"
     inkscape:current-layer="svg6" />
  <path
     style="opacity:0.2;stroke-width:0.743392"
     d="m 3.0381016,24.632182 c -0.00884,0.246098 -0.038099,0.487775 -0.038099,0.736821 C 3.0000027,36.798575 12.365739,46 23.999411,46 c 11.633673,0 20.999407,-9.201425 20.999407,-20.630997 0,-0.24881 -0.02929,-0.490193 -0.03808,-0.736821 -0.39599,11.083266 -9.581731,19.894175 -20.961909,19.894175 -11.380481,0 -20.5659222,-8.810909 -20.9619108,-19.894175 z"
     id="path1" />
  <rect
     width="42"
     height="41.263157"
     x="3.0000031"
     y="4"
     rx="20.999252"
     ry="20.630842"
     id="rect1"
     style="fill:#c83771" />
  <path
     style="opacity:0.1;fill:#ffffff;stroke-width:0.743392"
     d="m 23.999411,4.0012052 c -11.633672,0 -20.9994083,9.2014248 -20.9994083,20.6309968 0,0.24881 0.029282,0.490193 0.038086,0.736822 C 3.4342252,14.286347 12.619517,5.4748478 23.999996,5.4748478 c 11.380481,0 20.565921,8.8114992 20.961911,19.8941762 0.0088,-0.246629 0.03809,-0.488012 0.03809,-0.736822 0,-11.429572 -9.365738,-20.6309968 -20.99941,-20.6309968 z"
     id="path2" />
  <g
     style="opacity:0.2;enable-background:new"
     transform="matrix(0.30168651,0,0,0.29639375,-38.121341,-63.865954)"
     id="g4">
    <path
       d="m 199.99,286.44 16.56,16.561 c 2.394,2.393 6.273,2.391 8.667,-0.002 2.395,-2.396 2.397,-6.275 0.003,-8.668 l -16.561,-16.562 c -11.85,-11.851 -31.001,-12.044 -43.104,-0.6 -0.111,0.094 -0.222,0.191 -0.326,0.295 -0.051,0.052 -0.099,0.105 -0.148,0.158 -0.052,0.05 -0.107,0.097 -0.157,0.146 -0.106,0.106 -0.2,0.215 -0.294,0.325 -11.445,12.105 -11.25,31.254 0.6,43.105 l 16.561,16.559 c 2.394,2.394 6.272,2.394 8.666,0 2.394,-2.396 2.396,-6.275 0.002,-8.667 l -16.56,-16.562 c -7.225,-7.225 -7.275,-18.949 -0.149,-26.24 7.289,-7.123 19.014,-7.074 26.24,0.152 z"
       id="path3" />
    <path
       d="m 221.37,264.39 c -2.394,2.394 -2.392,6.274 0.002,8.667 l 16.56,16.56 c 7.226,7.228 7.271,18.951 0.147,26.242 -7.29,7.122 -19.013,7.075 -26.239,-0.15 l -16.559,-16.561 c -2.394,-2.393 -6.277,-2.393 -8.671,0 -2.394,2.396 -2.394,6.279 0,8.672 l 16.56,16.56 c 11.851,11.851 31.002,12.044 43.102,0.6 0.111,-0.095 0.222,-0.188 0.327,-0.295 0.051,-0.053 0.097,-0.104 0.149,-0.155 0.051,-0.052 0.107,-0.1 0.159,-0.15 0.104,-0.106 0.196,-0.216 0.291,-0.327 11.447,-12.1 11.253,-31.251 -0.598,-43.102 l -16.558,-16.56 c -2.394,-2.395 -6.279,-2.395 -8.672,-0.001 z"
       id="path4" />
  </g>
  <g
     style="fill:#ff8bff;enable-background:new"
     transform="matrix(0.30168651,0,0,0.29639375,-38.121341,-64.602755)"
     id="g6">
    <path
       d="m 199.99,286.44 16.56,16.561 c 2.394,2.393 6.273,2.391 8.667,-0.002 2.395,-2.396 2.397,-6.275 0.003,-8.668 l -16.561,-16.562 c -11.85,-11.851 -31.001,-12.044 -43.104,-0.6 -0.111,0.094 -0.222,0.191 -0.326,0.295 -0.051,0.052 -0.099,0.105 -0.148,0.158 -0.052,0.05 -0.107,0.097 -0.157,0.146 -0.106,0.106 -0.2,0.215 -0.294,0.325 -11.445,12.105 -11.25,31.254 0.6,43.105 l 16.561,16.559 c 2.394,2.394 6.272,2.394 8.666,0 2.394,-2.396 2.396,-6.275 0.002,-8.667 l -16.56,-16.562 c -7.225,-7.225 -7.275,-18.949 -0.149,-26.24 7.289,-7.123 19.014,-7.074 26.24,0.152 z"
       id="path5" />
    <path
       d="m 221.37,264.39 c -2.394,2.394 -2.392,6.274 0.002,8.667 l 16.56,16.56 c 7.226,7.228 7.271,18.951 0.147,26.242 -7.29,7.122 -19.013,7.075 -26.239,-0.15 l -16.559,-16.561 c -2.394,-2.393 -6.277,-2.393 -8.671,0 -2.394,2.396 -2.394,6.279 0,8.672 l 16.56,16.56 c 11.851,11.851 31.002,12.044 43.102,0.6 0.111,-0.095 0.222,-0.188 0.327,-0.295 0.051,-0.053 0.097,-0.104 0.149,-0.155 0.051,-0.052 0.107,-0.1 0.159,-0.15 0.104,-0.106 0.196,-0.216 0.291,-0.327 11.447,-12.1 11.253,-31.251 -0.598,-43.102 l -16.558,-16.56 c -2.394,-2.395 -6.279,-2.395 -8.672,-0.001 z"
       id="path6" />
  </g>
</svg>
