<?xml version="1.0" encoding="UTF-8" standalone="no"?>
<svg
   xmlns:dc="http://purl.org/dc/elements/1.1/"
   xmlns:cc="http://creativecommons.org/ns#"
   xmlns:rdf="http://www.w3.org/1999/02/22-rdf-syntax-ns#"
   xmlns:svg="http://www.w3.org/2000/svg"
   xmlns="http://www.w3.org/2000/svg"
   xmlns:xlink="http://www.w3.org/1999/xlink"
   xmlns:sodipodi="http://sodipodi.sourceforge.net/DTD/sodipodi-0.dtd"
   xmlns:inkscape="http://www.inkscape.org/namespaces/inkscape"
   width="48"
   height="48"
   version="1.1"
   id="svg54"
   sodipodi:docname="utilities-system-monitor.svg"
   inkscape:version="0.92.5 (2060ec1f9f, 2020-04-08)">
  <metadata
     id="metadata58">
    <rdf:RDF>
      <cc:Work
         rdf:about="">
        <dc:format>image/svg+xml</dc:format>
        <dc:type
           rdf:resource="http://purl.org/dc/dcmitype/StillImage" />
        <dc:title></dc:title>
      </cc:Work>
    </rdf:RDF>
  </metadata>
  <sodipodi:namedview
     pagecolor="#ffffff"
     bordercolor="#666666"
     borderopacity="1"
     objecttolerance="10"
     gridtolerance="10"
     guidetolerance="10"
     inkscape:pageopacity="0"
     inkscape:pageshadow="2"
     inkscape:window-width="1076"
     inkscape:window-height="480"
     id="namedview56"
     showgrid="false"
     inkscape:zoom="4.9166667"
     inkscape:cx="2.6440678"
     inkscape:cy="24"
     inkscape:window-x="0"
     inkscape:window-y="25"
     inkscape:window-maximized="0"
     inkscape:current-layer="svg54" />
  <defs
     id="defs34">
    <linearGradient
       id="e"
       y1="543.8"
       y2="503.8"
       x2="0"
       gradientUnits="userSpaceOnUse"
       gradientTransform="translate(-384.57,-499.8)">
      <stop
         stop-color="#2a2c2f"
         id="stop2" />
      <stop
         offset="1"
         stop-color="#424649"
         id="stop4" />
    </linearGradient>
    <linearGradient
       id="d"
       y1="44"
       y2="12"
       x2="0"
       gradientUnits="userSpaceOnUse"
       x1="0">
      <stop
         stop-color="#77b76b"
         id="stop7" />
      <stop
         offset="1"
         stop-color="#58b4b4"
         id="stop9" />
    </linearGradient>
    <linearGradient
       id="a"
       y1="21"
       y2="15"
       x2="0"
       gradientUnits="userSpaceOnUse">
      <stop
         stop-color="#b8ddd2"
         id="stop12" />
      <stop
         offset="1"
         stop-color="#c4e4dd"
         id="stop14" />
    </linearGradient>
    <linearGradient
       xlink:href="#a"
       id="j"
       y1="21"
       y2="15"
       x2="0"
       gradientUnits="userSpaceOnUse"
       gradientTransform="translate(22,10)" />
    <linearGradient
       id="c"
       y1="15"
       x1="9"
       y2="21.928"
       x2="13"
       gradientUnits="userSpaceOnUse">
      <stop
         stop-color="#fff"
         id="stop18" />
      <stop
         offset="1"
         stop-color="#fff"
         stop-opacity="0"
         id="stop20" />
    </linearGradient>
    <linearGradient
       id="b"
       y1="15"
       x1="10"
       y2="41"
       x2="36"
       gradientUnits="userSpaceOnUse">
      <stop
         stop-color="#292c2f"
         id="stop23" />
      <stop
         offset="1"
         stop-opacity="0"
         id="stop25" />
    </linearGradient>
    <linearGradient
       xlink:href="#b"
       id="i"
       y1="11"
       x1="6"
       y2="27"
       gradientUnits="userSpaceOnUse"
       x2="22"
       gradientTransform="translate(22,10)" />
    <linearGradient
       xlink:href="#c"
       id="h"
       gradientUnits="userSpaceOnUse"
       x1="9"
       y1="15"
       x2="13"
       y2="21.928" />
    <linearGradient
       xlink:href="#b"
       id="k"
       gradientUnits="userSpaceOnUse"
       x1="10"
       y1="15"
       x2="36"
       y2="41" />
    <linearGradient
       xlink:href="#a"
       id="l"
       gradientUnits="userSpaceOnUse"
       y1="21"
       x2="0"
       y2="15" />
    <linearGradient
       xlink:href="#d"
       id="f"
       x1="-42"
       y1="44"
       x2="-42"
       y2="18.025"
       gradientUnits="userSpaceOnUse"
       gradientTransform="translate(60)" />
    <path
       fill-rule="evenodd"
       id="g"
       d="M12.637 17.938c-.205.01-.418.031-.637.063-5.639.806-4.793 8.099-10 11.428v1C7.207 27.1 6.361 19.807 12 19.001c7-1 7 9 12 12 6.586 3.088 9-8 17 2 2 2 3.367.637 5 .488v-1c-1.633.149-3 1.512-5-.488-8-10-10.414 1.088-17-2-4.844-2.906-4.995-12.382-11.363-12.06" />
  </defs>
  <rect
     height="40"
     y="4"
     x="4"
     width="40"
     ry="9"
     id="rect36"
     style="fill:url(#e)" />
  <path
     d="m 13.676,17.936 c -0.226,0.01 -0.46,0.03 -0.7,0.058 C 7.633,18.636 7.587,23.739 4,27.102 v 14.9 H 44 V 30.105 C 35.859,22.32 33.152,31.84 26.15,29.075 21.005,26.477 20.683,18.2 14.332,17.935 a 7.72,7.72 0 0 0 -0.656,0 z"
     id="path38"
     inkscape:connector-curvature="0"
     style="opacity:0.11000001;fill:#1a1a1a;fill-rule:evenodd" />
  <path
     d="M 13,18 C 7.542,18.006 7.691,22.847 4,28 V 44 H 44 V 33 c 0,0 -5.472,-5.342 -9.035,-5.342 -3.008,0 -5.316,2.942 -8.69,2.928 C 20.157,30.56 19.19,17.993 13,18 Z"
     id="path40"
     style="fill:url(#f);fill-rule:evenodd"
     inkscape:connector-curvature="0" />
  <use
     xlink:href="#g"
     width="100%"
     height="100%"
     id="use42"
     style="fill:url(#h)"
     x="0"
     y="0" />
  <path
     d="m 34,25 v 1 h -1 v 1 h -1 l 12,12 v -4 l -6,-6 z m 4,0 v 2 h -1 l 7,7 v -3 z m -6,4 v 2 L 44,43 V 40 L 33,29 Z"
     id="path44"
     style="opacity:0.2;fill:url(#i);fill-rule:evenodd"
     inkscape:connector-curvature="0" />
  <path
     d="m 32,25 v 2 h 1 v -1 h 1 v -1 z m 4,0 v 1 h 1 v 1 h 1 v -2 z m -4,4 v 2 h 2 v -1 h -1 v -1 z m 5,0 v 1 h -1 v 1 h 2 v -2 z"
     id="path46"
     style="fill:url(#j)"
     inkscape:connector-curvature="0" />
  <path
     d="m 12,15 v 1 h -1 v 1 h -1 l 27,27 h 4 L 16,19 Z m 4,0 v 2 h -1 l 27,27 h 3 z m -6,4 v 2 l 23,23 h 3 L 11,19 Z"
     id="path48"
     style="opacity:0.2;fill:url(#k);fill-rule:evenodd"
     inkscape:connector-curvature="0" />
  <path
     d="m 10,15 v 2 h 1 v -1 h 1 v -1 z m 4,0 v 1 h 1 v 1 h 1 v -2 z m -4,4 v 2 h 2 v -1 h -1 v -1 z m 5,0 v 1 h -1 v 1 h 2 v -2 z"
     id="path50"
     style="fill:url(#l)"
     inkscape:connector-curvature="0" />
  <path
     d="m 4,43 h 40 v 1 H 4 Z"
     id="path52"
     inkscape:connector-curvature="0"
     style="fill:#498d48" />
</svg>
