<?xml version="1.0" encoding="UTF-8" standalone="no"?>
<svg
   height="48"
   width="48"
   version="1.1"
   id="svg25"
   sodipodi:docname="appimagekit-bitwarden.svg"
   inkscape:version="1.3.2 (091e20ef0f, 2023-11-25)"
   xmlns:inkscape="http://www.inkscape.org/namespaces/inkscape"
   xmlns:sodipodi="http://sodipodi.sourceforge.net/DTD/sodipodi-0.dtd"
   xmlns:xlink="http://www.w3.org/1999/xlink"
   xmlns="http://www.w3.org/2000/svg"
   xmlns:svg="http://www.w3.org/2000/svg">
  <defs
     id="defs29">
    <linearGradient
       inkscape:collect="always"
       id="linearGradient1417">
      <stop
         style="stop-color:#55bcf2;stop-opacity:1"
         offset="0"
         id="stop1413" />
      <stop
         style="stop-color:#1a80e2;stop-opacity:1"
         offset="1"
         id="stop1415" />
    </linearGradient>
    <linearGradient
       xlink:href="#1"
       id="0-6"
       y1="543.79797"
       x2="0"
       y2="503.798"
       gradientUnits="userSpaceOnUse"
       gradientTransform="translate(5.325e-4)" />
    <linearGradient
       id="1">
      <stop
         stop-color="#197cf1"
         id="stop3-3" />
      <stop
         offset="1"
         stop-color="#20bcfa"
         id="stop5-6" />
    </linearGradient>
    <linearGradient
       inkscape:collect="always"
       xlink:href="#linearGradient1417"
       id="linearGradient614"
       gradientUnits="userSpaceOnUse"
       gradientTransform="matrix(1.4439222,0,0,1.4439222,-0.460024,-0.63664618)"
       x1="17.249893"
       y1="29.643475"
       x2="17.249893"
       y2="3.0563629" />
    <clipPath
       clipPathUnits="userSpaceOnUse"
       id="clipPath1518">
      <path
         sodipodi:nodetypes="ccccsccccccccccccccsccccsccccccccccsccccscccccccccccsccccscccccc"
         id="path1520"
         d="m 24.50871,5.8844622 c -2.741607,0 -5.470924,0.548943 -8.010878,1.621463 -2.53998,1.072554 -4.859542,2.6516748 -6.8174348,4.6475258 -1.957644,1.995757 -3.525686,4.383345 -4.593207,7.010325 -1.064741,2.626367 -1.614087,5.459505 -1.614087,8.311166 0,2.852648 0.548049,5.685106 1.615446,8.312395 1.067458,2.627014 2.635499,5.014473 4.593207,7.010324 1.9577058,1.995701 4.2774868,3.574757 6.8174348,4.647527 2.481932,1.048078 5.145947,1.590844 7.82416,1.615445 0.06328,0.0023 0.123931,0.0037 0.186886,0.006 6.512212,0.308447 11.759387,-2.275831 15.599867,-6.027678 2.625286,-2.564727 4.687956,-5.59344 6.570232,-8.679961 1.882375,3.086521 3.944795,6.115325 6.570233,8.679961 3.84048,3.751911 9.087654,6.335993 15.599867,6.027678 0.06297,-0.0023 0.123591,-0.003 0.186898,-0.006 2.678116,-0.02268 5.336062,-0.567367 7.81799,-1.615445 2.539968,-1.072521 4.865708,-2.651675 6.823299,-4.647527 l 0.01172,-0.02419 c 1.94959,-1.992117 3.516738,-4.366987 4.581168,-6.986252 1.06474,-2.626364 1.61409,-5.459505 1.61409,-8.311167 0,-2.852674 -0.54808,-5.685411 -1.61544,-8.312394 l -0.0181,-0.03591 c -1.06772,-2.610924 -2.629345,-4.987306 -4.576735,-6.974823 -1.956662,-1.993693 -4.277492,-3.5738308 -6.81744,-4.6478328 -2.539949,-1.070917 -5.268163,-1.62026 -8.008713,-1.62026 -6.860954,0 -12.279413,2.821568 -16.280992,6.7449138 -2.314662,2.265279 -4.191073,4.857695 -5.891573,7.508746 -1.7005,-2.651059 -3.576914,-5.243475 -5.888492,-7.508753 C 36.785305,8.7040762 31.36592,5.8832822 24.505275,5.8832822 Z m -0.07235,6.1724218 c 5.473394,0 8.969453,1.961443 12.176023,5.207978 2.541865,2.573438 4.770664,6.074283 6.980085,9.891613 -2.521561,4.459881 -4.958616,8.533369 -7.697318,11.296147 -3.019117,3.045532 -6.14773,4.724988 -11.259728,4.430253 h -0.198905 c -1.949527,0 -3.914857,-0.411455 -5.708253,-1.1935 -1.769447,-0.771552 -3.402236,-1.917928 -4.749985,-3.321377 l -0.05425,-0.05424 C 12.566091,36.887905 11.473573,35.165801 10.745227,33.32025 10.01997,31.471608 9.6434522,29.459398 9.6434522,27.471877 c 0,-1.988414 0.3764858,-4.000653 1.1030718,-5.84682 0.726526,-1.84645 1.818457,-3.56149 3.176638,-4.991021 l 0.05425,-0.06028 c 1.347623,-1.403365 2.980443,-2.549763 4.749985,-3.32138 1.793087,-0.780809 3.755918,-1.191277 5.7064,-1.191277 z m 44.484631,0 c 1.949556,0 3.914849,0.411455 5.70825,1.1935 1.76942,0.771552 3.402229,1.917925 4.749978,3.321377 l 0.05431,0.06028 c 1.358181,1.429622 2.450109,3.144537 3.176629,4.991017 0.725272,1.845555 1.101781,3.857764 1.101781,5.845285 0,1.988474 -0.376478,4.000344 -1.10307,5.846825 -0.726531,1.846416 -1.818429,3.567348 -3.17664,4.996883 l -0.05431,0.05424 c -1.347628,1.403358 -2.980448,2.54973 -4.749989,3.321377 -1.793518,0.782045 -3.758687,1.193496 -5.708243,1.193496 h -0.198919 c -5.110756,0.293177 -8.240171,-1.385712 -11.258487,-4.4318 -2.737466,-2.762158 -5.175571,-6.835952 -7.697008,-11.295527 2.209731,-3.81764 4.437975,-7.320491 6.981007,-9.891303 3.206574,-3.24669 6.703249,-5.209524 12.175102,-5.209524 z"
         inkscape:connector-curvature="0"
         style="fill:#ffffff;stroke-width:3.08621" />
    </clipPath>
    <linearGradient
       inkscape:collect="always"
       xlink:href="#linearGradient51"
       id="linearGradient54"
       x1="2.5000019"
       y1="14.500036"
       x2="14.975058"
       y2="2.4440012"
       gradientUnits="userSpaceOnUse"
       gradientTransform="matrix(5.3754295,0,0,5.3241871,119.68718,345.9218)" />
    <linearGradient
       id="linearGradient51"
       inkscape:collect="always">
      <stop
         style="stop-color:#b380ff;stop-opacity:1"
         offset="0"
         id="stop51" />
      <stop
         style="stop-color:#ffe680;stop-opacity:1"
         offset="1"
         id="stop52" />
    </linearGradient>
  </defs>
  <sodipodi:namedview
     id="namedview27"
     pagecolor="#ffffff"
     bordercolor="#666666"
     borderopacity="1.0"
     inkscape:showpageshadow="2"
     inkscape:pageopacity="0.0"
     inkscape:pagecheckerboard="0"
     inkscape:deskcolor="#d1d1d1"
     showgrid="false"
     inkscape:zoom="6.9532168"
     inkscape:cx="31.78385"
     inkscape:cy="38.759039"
     inkscape:window-width="1920"
     inkscape:window-height="994"
     inkscape:window-x="0"
     inkscape:window-y="0"
     inkscape:window-maximized="1"
     inkscape:current-layer="svg25">
    <inkscape:grid
       type="xygrid"
       id="grid803"
       originx="80"
       originy="15"
       spacingy="1"
       spacingx="1"
       units="px"
       visible="false" />
  </sodipodi:namedview>
  <linearGradient
     id="a"
     gradientUnits="userSpaceOnUse"
     x1="-20"
     x2="-20"
     xlink:href="#b"
     y1="44"
     y2="4"
     gradientTransform="matrix(1.0499999,0,0,1.0499999,-1.1999973,-1.1999973)" />
  <linearGradient
     id="b"
     gradientUnits="userSpaceOnUse"
     x2="0"
     y1="543.79999"
     y2="503.79999">
    <stop
       offset="0"
       stop-color="#197cf1"
       id="stop3" />
    <stop
       offset="1"
       stop-color="#20bcfa"
       id="stop5" />
  </linearGradient>
  <linearGradient
     id="c"
     gradientUnits="userSpaceOnUse"
     x1="19"
     x2="44"
     y1="19"
     y2="44"
     gradientTransform="matrix(1.0499999,0,0,1.0499999,-1.1999973,-1.1999973)">
    <stop
       offset="0"
       stop-color="#292c2f"
       id="stop8" />
    <stop
       offset="1"
       stop-color="#292c2f"
       stop-opacity="0"
       id="stop10" />
  </linearGradient>
  <rect
     style="fill:url(#linearGradient614);fill-opacity:1;stroke-width:3.88082;stroke-linecap:round;stroke-linejoin:round"
     id="rect849-3"
     width="42"
     height="42"
     x="3"
     y="2.9999995"
     rx="20.999998"
     ry="20.999998" />
  <path
     d="m 12.455089,11.616329 c 0.476503,-0.395863 1.120099,-0.488614 1.71905,-0.490275 1.62581,0.0012 3.251646,7.43e-4 4.877481,3.73e-4 0.812912,-1.82e-4 1.625807,-3.73e-4 2.438736,-3.73e-4 0.326276,0.0064 0.652826,0.0039 0.979323,1.43e-4 0.489705,-0.0054 0.979285,-0.0085 1.467696,0.015 0.643646,0.04455 0.958073,0.728768 0.878631,1.305165 -0.0034,0.826684 -0.0027,1.653346 -0.0022,2.479866 3.54e-4,0.991759 8.86e-4,1.983306 -0.0049,2.97433 0.0052,2.040568 0.0071,4.079472 0,6.118374 0.0049,1.138243 0.0044,2.27649 0.0039,3.414657 -3.57e-4,0.910576 -7.1e-4,1.821159 0.0015,2.731903 -0.0085,0.969863 -0.0054,1.940434 -0.002,2.910644 0.0047,1.382715 0.009,2.765069 -0.01969,4.14514 2.339475,-1.250386 4.576392,-2.767725 6.364865,-4.746954 1.558636,-1.662895 2.70687,-3.834447 2.658698,-6.163021 -0.01008,-1.463507 -0.0057,-2.926446 0.0013,-4.389156 0.0052,-1.083321 0.008,-2.166511 0.0064,-3.249741 0.0059,-0.707777 0,-1.416083 -0.0059,-2.124369 -0.008,-1.080175 -0.01507,-2.160359 0.01507,-3.238733 -0.01181,-0.02242 -0.02747,-0.05571 -0.04386,-0.08929 -0.01556,-0.03369 -0.03298,-0.06723 -0.04372,-0.08928 -0.842698,-0.04958 -1.688045,-0.04265 -2.533046,-0.03515 -0.508703,0.0064 0.04894,0.0097 -0.459108,5.23e-4 -0.311549,-0.03442 -0.637168,-0.01525 -0.96369,0.0039 -0.635791,0.03565 -1.274076,0.07155 -1.814063,-0.28071 -0.529684,-0.518397 -0.241732,-1.533721 0.496258,-1.659611 0.769462,-0.04286 1.541765,-0.03642 2.313709,-0.02956 0.452888,0.0062 -0.160855,0.0085 0.291144,0.0016 0.400277,0.03517 0.821891,0.01549 1.246519,-6.25e-4 1.026656,-0.04368 2.071258,-0.08836 2.876447,0.618401 0.02564,0.03717 0.0519,0.07362 0.07761,0.110486 0.114813,0.162759 0.22984,0.325568 0.316029,0.503888 0.231431,0.833731 0.206414,1.698013 0.181301,2.561519 -0.01482,0.44018 -0.02557,0.880203 -0.0062,1.315864 0.0013,0.3994 0.0044,0.798819 0.0062,1.198284 0.0083,2.199711 0.01507,4.400233 -0.0037,6.599589 0.0015,0.150791 0.0047,0.301956 0.0066,0.453422 0.02331,1.892172 0.04768,3.831886 -0.734976,5.595345 -0.600689,1.442505 -1.510736,2.739296 -2.58432,3.867249 -2.085739,2.248041 -4.675126,3.965628 -7.403336,5.332113 -0.607656,0.325502 -1.325725,0.547455 -2.000765,0.290576 -1.342251,-0.635529 -2.647663,-1.344429 -3.888533,-2.159204 -1.012584,-0.670802 -1.990391,-1.396307 -2.887126,-2.217785 -0.67504,-0.634278 -1.320292,-1.300315 -1.927501,-2.00093 -0.04414,-0.05439 -0.09158,-0.10887 -0.139111,-0.163736 -0.114631,-0.131627 -0.230949,-0.265552 -0.309269,-0.405999 -0.713095,-0.904405 -1.255785,-1.93778 -1.642934,-3.022859 -0.352417,-1.023491 -0.557565,-2.103435 -0.550953,-3.189924 -8.11e-4,-2.15556 0,-4.311557 8.31e-4,-6.467762 8.26e-4,-2.156391 0.0018,-4.312996 8.26e-4,-6.469602 -0.0165,-0.682403 0.201849,-1.41615 0.744528,-1.86334 z m 5.187809,1.477089 c -1.32231,-0.0085 -2.644611,-0.015 -3.965109,0.03498 -0.0171,2.463781 -0.01409,4.92812 -0.01064,7.392367 0.0025,1.798221 0.0049,3.596389 -8.3e-4,5.394268 -0.0034,0.417361 0.01008,0.834799 0.05286,1.250471 0.0064,0.07042 0.01008,0.129585 0.01303,0.184432 0.01302,0.212745 0.02184,0.35957 0.15738,0.832592 0.767201,2.678272 2.73158,4.660846 3.591938,5.457633 0.860341,0.796597 1.796793,1.508866 2.776251,2.153024 0.08782,0.05458 0.175624,0.109237 0.263435,0.163914 0.734495,0.457497 1.471849,0.916755 2.258032,1.282153 l 0.0562,-0.0431 c 0.0106,-0.887103 0.0093,-1.775097 0.0079,-2.663269 -0.0013,-0.64593 -0.0024,-1.292208 0.0011,-1.937953 l -0.0017,-6.13991 c -0.0017,-2.093582 -0.0017,-4.185488 0.0017,-6.279063 -0.0054,-1.37571 -0.0037,-2.751419 -0.0015,-4.127125 5.17e-4,-0.393218 0.0011,-0.786437 0.0015,-1.179657 0.0011,-0.182308 -0.0012,-0.364986 -0.0034,-0.547594 -0.0049,-0.411045 -0.01008,-0.82238 0.02136,-1.232931 -0.767288,0.0085 -1.534561,0.0074 -2.301849,0.0062 -0.109616,-2.44e-4 -0.219208,-4.7e-4 -0.32881,-6.59e-4 -0.862448,0.01297 -1.725421,0.008 -2.588388,0.0014 z"
     id="path1"
     stroke-width="1.41674"
     fill-rule="evenodd"
     clip-rule="evenodd"
     style="isolation:isolate;fill:url(#linearGradient54);fill-opacity:1;stroke:url(#linearGradient54);stroke-opacity:1" />
</svg>
