<?xml version="1.0" encoding="UTF-8" standalone="no"?>
<svg
   width="48"
   height="48"
   version="1"
   id="svg7"
   sodipodi:docname="cosmigo-pro-motion-icon.svg"
   inkscape:version="1.4.2 (unknown)"
   xmlns:inkscape="http://www.inkscape.org/namespaces/inkscape"
   xmlns:sodipodi="http://sodipodi.sourceforge.net/DTD/sodipodi-0.dtd"
   xmlns:xlink="http://www.w3.org/1999/xlink"
   xmlns="http://www.w3.org/2000/svg"
   xmlns:svg="http://www.w3.org/2000/svg">
  <defs
     id="defs7">
    <linearGradient
       id="linearGradient7"
       inkscape:collect="always">
      <stop
         style="stop-color:#384850;stop-opacity:1;"
         offset="0"
         id="stop8" />
      <stop
         style="stop-color:#384850;stop-opacity:1;"
         offset="0.59162253"
         id="stop10" />
      <stop
         style="stop-color:#eff2f6;stop-opacity:1;"
         offset="0.92173076"
         id="stop11" />
      <stop
         style="stop-color:#eff2f6;stop-opacity:1;"
         offset="1"
         id="stop9" />
    </linearGradient>
    <linearGradient
       id="c-3"
       gradientUnits="userSpaceOnUse"
       x1="24.072048"
       x2="23.959682"
       y1="0.75082099"
       y2="46.056854">
      <stop
         offset="0"
         stop-color="#fff"
         id="stop3" />
      <stop
         offset="1"
         stop-color="#d9d9d9"
         id="stop4" />
    </linearGradient>
    <linearGradient
       id="b-6"
       gradientUnits="userSpaceOnUse"
       x1="29.203026"
       x2="34.121048"
       xlink:href="#a-7"
       y1="24.827356"
       y2="29.224836" />
    <linearGradient
       id="a-7">
      <stop
         offset="0"
         id="stop1" />
      <stop
         offset="1"
         stop-opacity="0"
         id="stop2" />
    </linearGradient>
    <linearGradient
       id="d"
       gradientUnits="userSpaceOnUse"
       x1="15.948756"
       x2="25.031786"
       xlink:href="#a-7"
       y1="23.618279"
       y2="33.69899" />
    <linearGradient
       id="e"
       gradientUnits="userSpaceOnUse"
       x1="21.990562"
       x2="29.320522"
       xlink:href="#a-7"
       y1="33.780373"
       y2="41.931858" />
    <linearGradient
       id="paint154_linear_890_11"
       x1="778"
       y1="812.29199"
       x2="788"
       y2="812.29199"
       gradientUnits="userSpaceOnUse"
       gradientTransform="translate(-751,-696)">
      <stop
         stop-color="#EFF2F6"
         id="stop1050" />
      <stop
         offset="0.600785"
         stop-color="#B7C6CD"
         id="stop1051" />
    </linearGradient>
    <linearGradient
       id="paint155_linear_890_11"
       x1="783"
       y1="813"
       x2="783"
       y2="817"
       gradientUnits="userSpaceOnUse"
       gradientTransform="translate(-751,-696)">
      <stop
         stop-color="#EFF2F6"
         id="stop1052" />
      <stop
         offset="0.734138"
         stop-color="#B7C6CD"
         id="stop1053" />
    </linearGradient>
    <radialGradient
       id="paint156_radial_890_11"
       cx="0"
       cy="0"
       r="1"
       gradientUnits="userSpaceOnUse"
       gradientTransform="matrix(27.999986,27.999976,-27.999986,27.999976,32.302392,33.999998)">
      <stop
         offset="0.60067803"
         stop-color="#B7C6CD"
         id="stop1054"
         style="stop-color:#384850;stop-opacity:1;" />
      <stop
         offset="0.876735"
         stop-color="#EFF2F6"
         id="stop1055" />
    </radialGradient>
    <linearGradient
       id="paint157_linear_890_11"
       x1="796.84485"
       y1="799.43359"
       x2="768.90088"
       y2="770.81476"
       gradientUnits="userSpaceOnUse"
       gradientTransform="matrix(1.1666666,0,0,1.1666668,-881.19764,-881.8333)">
      <stop
         offset="0.00000057"
         stop-color="#2E2E41"
         id="stop1056"
         style="stop-color:#495361;stop-opacity:1;" />
      <stop
         offset="0.711139"
         stop-color="#566C80"
         id="stop1057" />
    </linearGradient>
    <linearGradient
       id="paint158_linear_890_11"
       x1="792"
       y1="794"
       x2="774"
       y2="776"
       gradientUnits="userSpaceOnUse"
       gradientTransform="translate(-751,-696)">
      <stop
         offset="0.304478"
         stop-color="#2E2E41"
         id="stop1058" />
      <stop
         offset="1"
         stop-color="#566C80"
         id="stop1059" />
    </linearGradient>
    <linearGradient
       id="paint159_linear_890_11"
       x1="788"
       y1="790"
       x2="778"
       y2="780"
       gradientUnits="userSpaceOnUse"
       gradientTransform="translate(-751,-696)">
      <stop
         offset="0.391394"
         stop-color="#5200FF"
         id="stop1060" />
      <stop
         offset="1"
         stop-color="#0085FF"
         id="stop1061" />
    </linearGradient>
    <linearGradient
       id="paint160_linear_890_11"
       x1="784"
       y1="798"
       x2="782"
       y2="796"
       gradientUnits="userSpaceOnUse"
       gradientTransform="translate(-751,-696)">
      <stop
         stop-color="#FF7E07"
         id="stop1062" />
      <stop
         offset="1"
         stop-color="#FFE607"
         id="stop1063" />
    </linearGradient>
    <radialGradient
       inkscape:collect="always"
       xlink:href="#linearGradient7"
       id="radialGradient9"
       cx="32.302387"
       cy="34"
       fx="32.302387"
       fy="34"
       r="28"
       gradientUnits="userSpaceOnUse"
       gradientTransform="matrix(0.99999997,0.99999997,-0.99999997,0.99999997,32.697613,-35.302387)" />
    <linearGradient
       inkscape:collect="always"
       xlink:href="#linearGradient933"
       id="linearGradient935"
       x1="63.855331"
       y1="122.63078"
       x2="63.855331"
       y2="15.286823"
       gradientUnits="userSpaceOnUse"
       gradientTransform="matrix(0.39895775,0,0,0.39895809,5.5244204,5.408958)" />
    <linearGradient
       inkscape:collect="always"
       id="linearGradient933">
      <stop
         style="stop-color:#ced2d9;stop-opacity:1;"
         offset="0"
         id="stop929" />
      <stop
         style="stop-color:#b9bfc9;stop-opacity:1;"
         offset="1"
         id="stop931" />
    </linearGradient>
    <linearGradient
       id="paint0_linear_54_1196"
       x1="64"
       y1="120"
       x2="64"
       y2="8"
       gradientUnits="userSpaceOnUse"
       gradientTransform="matrix(0.28571429,0,0,0.28571429,12.714302,12.714286)">
      <stop
         stop-color="#5570FF"
         id="stop2-6" />
      <stop
         offset="1"
         stop-color="#4DD3FF"
         id="stop3-8" />
    </linearGradient>
    <linearGradient
       id="linear0"
       gradientUnits="userSpaceOnUse"
       x1="31.999998"
       y1="60"
       x2="31.999998"
       y2="3.999999"
       gradientTransform="matrix(0.75,0,0,0.75,8,47)">
      <stop
         offset="0"
         style="stop-color:rgb(0%,0%,0%);stop-opacity:0.2;"
         id="stop1-3" />
      <stop
         offset="1"
         style="stop-color:rgb(100%,100%,100%);stop-opacity:0;"
         id="stop2-67" />
    </linearGradient>
  </defs>
  <sodipodi:namedview
     id="namedview7"
     pagecolor="#ffffff"
     bordercolor="#000000"
     borderopacity="0.25"
     inkscape:showpageshadow="2"
     inkscape:pageopacity="0.0"
     inkscape:pagecheckerboard="0"
     inkscape:deskcolor="#d1d1d1"
     inkscape:zoom="8.3306018"
     inkscape:cx="35.951784"
     inkscape:cy="44.474578"
     inkscape:window-width="1920"
     inkscape:window-height="998"
     inkscape:window-x="0"
     inkscape:window-y="0"
     inkscape:window-maximized="1"
     inkscape:current-layer="svg7" />
  <g
     id="g1">
    <path
       d="M 45,24 C 45,35.598112 35.598129,45 23.999999,45 12.401876,45 3.0000001,35.598112 3.0000001,24 3.0000001,12.401876 12.401876,3 23.999999,3 35.598129,3 45,12.401876 45,24 Z"
       id="path154"
       style="fill:url(#radialGradient9);stroke-width:0.999997" />
    <circle
       style="fill:url(#linearGradient935);fill-opacity:1;stroke:none;stroke-width:0.604378;stroke-linecap:round;stroke-miterlimit:4;stroke-dasharray:none;stroke-opacity:1"
       id="path1096"
       cx="24"
       cy="24"
       r="17.500126" />
    <path
       style="opacity:0;fill:#ffffff;stroke-width:0.833325"
       d="M 24.010998,6.082398 A 17.500125,17.500125 0 0 0 6.510873,23.582523 17.500125,17.500125 0 0 0 6.5242995,23.836444 17.500125,17.500125 0 0 1 24.010998,6.7073932 17.500125,17.500125 0 0 1 41.500125,24 17.500125,17.500125 0 0 0 41.51112,23.582523 17.500125,17.500125 0 0 0 24.010995,6.082398 Z M 40.113395,30.435601 C 30.48634,34.925662 20.156426,36.39793 11.326583,35.627297 a 17.500125,17.500125 0 0 0 0.708012,0.675044 c 8.558803,0.625889 18.44331,-0.837478 27.710166,-5.07816 a 17.500125,17.500125 0 0 0 0.368634,-0.78858 z"
       id="path7" />
    <g
       id="g3"
       transform="matrix(0.75,0,0,0.75,-3,-45)"
       style="stroke-width:1.33333">
      <g
         id="g2"
         style="stroke-width:1.33333">
        <circle
           r="16"
           style="opacity:0.2;stroke-width:1.33333"
           cx="36"
           cy="93"
           id="circle3" />
        <circle
           r="16"
           style="fill:#ff3636;stroke-width:1.33333"
           cx="36"
           cy="92"
           id="circle4" />
        <path
           style="fill:#924ab4;stroke-width:1.33333"
           d="m 36,76 a 16,16 0 0 0 -9.132812,2.886719 L 36,93 45.140625,78.875 A 16,16 0 0 0 36,76 Z"
           id="path4" />
        <path
           style="fill:#ffdb4c;stroke-width:1.33333"
           d="m 36,93 -8.220703,12.70313 A 16,16 0 0 0 36,108 a 16,16 0 0 0 8.220703,-2.29492 z"
           id="path5" />
        <path
           style="fill:#8bdb4c;stroke-width:1.33333"
           d="m 36,93 8.220703,12.70508 A 16,16 0 0 0 51.949219,93 Z"
           id="path6" />
        <path
           style="fill:#476bd7;stroke-width:1.33333"
           d="M 45.140625,78.875 36,93 H 51.949219 A 16,16 0 0 0 52,92 16,16 0 0 0 45.140625,78.875 Z"
           id="path7-3" />
        <path
           style="fill:#f1502f;stroke-width:1.33333"
           d="m 20.037109,93 a 16,16 0 0 0 7.742188,12.70313 L 36,93 Z"
           id="path8" />
        <circle
           r="12"
           style="opacity:0.1;stroke-width:1.33333"
           cx="36"
           cy="93"
           id="circle8" />
        <circle
           r="12"
           style="fill:#373e48;stroke-width:1.33333"
           cx="36"
           cy="92"
           id="circle9" />
        <path
           style="opacity:0.2;fill:#ffffff;stroke-width:1.33333"
           d="M 36,76 A 16,16 0 0 0 20,92 16,16 0 0 0 20.021484,92.580078 16,16 0 0 1 36,77 16,16 0 0 1 51.978516,92.419922 16,16 0 0 0 52,92 16,16 0 0 0 36,76 Z"
           id="path9" />
        <circle
           r="3"
           style="opacity:0.2;stroke-width:1.33333"
           cx="31"
           cy="89"
           id="circle10" />
        <circle
           r="3"
           style="fill:#ffffff;stroke-width:1.33333"
           cx="31"
           cy="88"
           id="circle11" />
      </g>
    </g>
  </g>
</svg>
