<?xml version="1.0" encoding="UTF-8" standalone="no"?>
<svg
   width="48"
   height="48"
   version="1.1"
   id="svg6"
   sodipodi:docname="crunchyroll.svg"
   inkscape:version="1.4.2 (unknown)"
   xmlns:inkscape="http://www.inkscape.org/namespaces/inkscape"
   xmlns:sodipodi="http://sodipodi.sourceforge.net/DTD/sodipodi-0.dtd"
   xmlns="http://www.w3.org/2000/svg"
   xmlns:svg="http://www.w3.org/2000/svg">
  <defs
     id="defs6" />
  <sodipodi:namedview
     id="namedview6"
     pagecolor="#ffffff"
     bordercolor="#000000"
     borderopacity="0.25"
     inkscape:showpageshadow="2"
     inkscape:pageopacity="0.0"
     inkscape:pagecheckerboard="0"
     inkscape:deskcolor="#d1d1d1"
     inkscape:zoom="8.4300387"
     inkscape:cx="23.25019"
     inkscape:cy="33.155245"
     inkscape:current-layer="svg6" />
  <g
     id="g6"
     transform="matrix(0.75,0,0,0.75,0.375,0)"
     style="stroke-width:1.33333">
    <ellipse
       style="opacity:0.2;stroke-width:1.33329"
       cx="31.499996"
       cy="32.491234"
       id="circle1"
       rx="27.499996"
       ry="27.508766" />
    <ellipse
       style="fill:#373e48;stroke-width:1.33329"
       cx="31.499996"
       cy="31.508766"
       id="circle2"
       rx="27.499996"
       ry="27.508766" />
    <path
       style="opacity:0.2;stroke-width:1.33329"
       d="m 31.94887,12.76591 c -1.113198,-0.02241 -2.235972,0.0092 -2.957938,0.103616 -4.416627,0.578537 -8.316126,2.46462 -11.39439,5.510965 -1.645638,1.628563 -2.805689,3.23904 -3.813476,5.292215 -1.34555,2.74128 -1.923706,5.29218 -1.925922,8.489034 -0.0023,3.192978 0.565905,5.689969 1.933594,8.485198 2.494809,5.09879 7.212539,8.913187 12.779362,10.334978 0.643923,0.164462 2.378718,0.464283 3.038508,0.525766 0.181244,0.0169 0.995252,0.03596 1.810826,0.04219 1.494734,0.0114 1.802299,-0.0793 0.590821,-0.176527 -1.01178,-0.08121 -2.545866,-0.423362 -3.740585,-0.832783 -5.065922,-1.736048 -9.061639,-5.733965 -10.730678,-10.737939 -0.946409,-2.837435 -1.123894,-5.710364 -0.533272,-8.642542 1.194464,-5.92997 5.546244,-10.830122 11.336843,-12.760421 7.502256,-2.500887 15.606761,0.296259 19.949776,6.881035 1.428877,2.166414 2.463981,5.061722 2.666366,7.456686 0.04087,0.483097 0.07192,0.598842 0.13428,0.487392 0.11432,-0.204322 0.01629,-2.650948 -0.15347,-3.826209 C 50.146806,23.909232 47.106679,19.12998 42.418667,16.004939 40.162193,14.500769 37.642329,13.49878 34.837751,12.988491 34.163465,12.865803 33.062072,12.788318 31.94887,12.765906 Z m 3.264858,7.9364 c -0.632535,0.0022 -1.230841,0.03366 -1.695732,0.09978 -6.116375,0.86995 -10.808435,5.551107 -11.743511,11.720396 -0.157477,1.038864 -0.119589,3.149818 0.0767,4.279057 1.07851,6.203859 6.246555,10.911335 12.483955,11.371161 3.39714,0.250441 6.813352,-0.738899 9.395576,-2.720942 2.728229,-2.094114 4.507675,-4.928208 5.213796,-8.304824 0.221708,-1.060212 0.303375,-3.1821 0.164963,-4.298246 -0.05612,-0.452408 -0.11994,-0.85396 -0.141962,-0.890351 -0.02201,-0.03639 -0.268987,0.170457 -0.548619,0.460528 -0.828294,0.859253 -1.736051,1.404645 -2.896553,1.738486 -0.897532,0.258183 -2.271787,0.258091 -3.168942,0 -2.492007,-0.716893 -4.225569,-2.70928 -4.569267,-5.25 -0.343215,-2.537149 1.118473,-5.184581 3.487372,-6.316883 L 41.92755,22.27578 41.229308,21.945734 C 40.32991,21.521742 39.185232,21.145016 38.152446,20.932572 37.410378,20.779921 36.267911,20.698836 35.21369,20.702308 Z"
       id="path2" />
    <path
       style="fill:#ff9955;stroke-width:1.33329"
       d="m 29.608203,50.525406 c -0.659785,-0.06148 -2.395688,-0.362329 -3.039608,-0.526789 -5.566823,-1.421792 -10.281202,-5.234973 -12.776009,-10.333763 -1.367687,-2.79523 -1.937685,-5.294973 -1.935435,-8.48795 0.0023,-3.196858 0.580997,-5.74667 1.926544,-8.487949 1.007788,-2.053179 2.166969,-3.661585 3.812599,-5.290149 3.078264,-3.046344 6.977425,-4.93216 11.394052,-5.510702 1.443934,-0.18914 4.500481,-0.1276 5.849052,0.117776 2.804577,0.510286 5.32258,1.512529 7.579054,3.016701 4.688014,3.125036 7.728739,7.904333 8.521456,13.393679 0.169714,1.17526 0.267961,3.62102 0.153647,3.825343 -0.06236,0.111449 -0.09475,-0.0054 -0.135594,-0.488401 -0.20239,-2.394966 -1.23804,-5.290887 -2.666911,-7.457306 -4.343018,-6.584767 -12.445959,-9.378414 -19.948213,-6.877524 -5.790606,1.930302 -10.142645,6.827636 -11.33711,12.757608 -0.590621,2.932178 -0.413389,5.8063 0.533023,8.643736 1.669037,5.003973 5.663684,9.001619 10.729609,10.737665 1.194719,0.40942 2.729024,0.750581 3.740805,0.831793 1.211477,0.09728 0.906154,0.189713 -0.588582,0.178278 -0.815573,-0.0064 -1.631144,-0.02516 -1.812383,-0.04206 z"
       id="path3" />
    <path
       style="fill:#ff9955;stroke-width:1.33329"
       d="M 34.33693,47.18984 C 28.099528,46.730017 22.931543,42.022761 21.853026,35.818902 c -0.196307,-1.129238 -0.234138,-3.240148 -0.07668,-4.279009 0.935084,-6.169291 5.623641,-10.849707 11.740016,-11.719654 1.239709,-0.176333 3.448836,-0.114515 4.636149,0.129725 1.032785,0.212441 2.177682,0.589552 3.077086,1.013542 l 0.697471,0.3288 -0.656443,0.313771 c -2.368898,1.132305 -3.830992,3.780839 -3.487778,6.317985 0.343699,2.54072 2.079605,4.534912 4.57161,5.251804 0.897156,0.25809 2.269053,0.258018 3.166587,-1.64e-4 1.160502,-0.33384 2.070624,-0.879822 2.898918,-1.739075 0.279632,-0.290074 0.526431,-0.497625 0.548445,-0.46122 0.02201,0.03639 0.08595,0.436341 0.142037,0.88875 0.138404,1.116145 0.05716,3.239683 -0.164569,4.299895 -0.706125,3.376615 -2.485341,6.210832 -5.213571,8.304946 -2.582225,1.982042 -5.998231,2.971306 -9.395371,2.720864 z"
       id="path4" />
    <path
       style="opacity:0.1;fill:#ffffff;stroke-width:1.33329"
       d="M 31.5,4 A 27.5,27.50877 0 0 0 4,31.50877 27.5,27.50877 0 0 0 4.03261,31.98273 27.5,27.50877 0 0 1 31.5,4.982456 27.5,27.50877 0 0 1 58.982735,31.746708 27.5,27.50877 0 0 0 59,31.50877 27.5,27.50877 0 0 0 31.5,4 Z"
       id="path5" />
    <path
       style="opacity:0.2;fill:#ffffff;stroke-width:1.33329"
       d="m 31.950788,11.784813 c -1.113201,-0.02241 -2.23789,0.0092 -2.959856,0.103618 -4.416627,0.578538 -8.316126,2.464621 -11.39439,5.510964 -1.645637,1.628566 -2.805689,3.237123 -3.813476,5.290298 -1.34555,2.741275 -1.923662,5.29026 -1.925922,8.487114 -1.24e-4,0.173302 0.0084,0.33721 0.01152,0.506577 0.05821,-2.973948 0.637246,-5.409266 1.914416,-8.011236 1.007787,-2.053175 2.167839,-3.661727 3.813476,-5.290296 3.078264,-3.04634 6.977763,-4.932423 11.39439,-5.510965 0.721966,-0.09457 1.846655,-0.126029 2.959856,-0.103619 1.113199,0.02242 2.214596,0.09798 2.888883,0.22067 2.804577,0.510288 5.322521,1.512278 7.578996,3.016448 4.68801,3.12504 7.72814,7.904293 8.520857,13.393636 0.09792,0.678081 0.166719,1.744626 0.189905,2.594302 0.04486,-0.682982 -0.04606,-2.58042 -0.189905,-3.576754 -0.79272,-5.489349 -3.83285,-10.268599 -8.52086,-13.39364 -2.256475,-1.504172 -4.774419,-2.506164 -7.578996,-3.01645 -0.674286,-0.122684 -1.775684,-0.198253 -2.888887,-0.220667 z m 3.264858,7.934486 c -0.632531,0.0021 -1.234678,0.03561 -1.699567,0.101697 -6.116379,0.86995 -10.804595,5.549188 -11.739679,11.718474 -0.0846,0.558049 -0.108748,1.421196 -0.08635,2.279608 0.01114,-0.494421 0.0351,-0.959045 0.08635,-1.29715 0.935084,-6.169289 5.6233,-10.84853 11.739679,-11.718473 0.464889,-0.06611 1.067036,-0.09963 1.699567,-0.101703 1.054223,-0.0035 2.194766,0.0776 2.936838,0.230263 0.91367,0.187942 1.90541,0.507099 2.746928,0.871165 0.121743,-0.06926 0.245052,-0.136896 0.372143,-0.197643 l 0.656041,-0.312775 -0.698243,-0.330047 C 40.329948,20.53873 39.185268,20.162001 38.152484,19.949561 37.410412,19.79691 36.269869,19.715825 35.215646,19.719299 Z m 2.543597,7.953672 c -0.03528,0.409482 -0.03249,0.823319 0.02303,1.233826 0.343699,2.54072 2.0811,4.535025 4.573104,5.251919 0.897156,0.25809 2.267577,0.258183 3.165111,0 1.160502,-0.333842 2.072091,-0.881154 2.900391,-1.740407 0.279626,-0.290074 0.524688,-0.496936 0.546697,-0.460527 0.02201,0.03639 0.08586,0.436027 0.141954,0.888434 0.03072,0.247782 0.04558,0.558232 0.05562,0.882676 0.0161,-0.696646 0.0047,-1.379435 -0.05562,-1.865134 -0.05612,-0.452406 -0.119933,-0.852039 -0.141954,-0.88843 -0.022,-0.03642 -0.267071,0.17045 -0.546697,0.460525 -0.8283,0.859253 -1.739889,1.406567 -2.900391,1.740407 -0.897534,0.258182 -2.267955,0.258092 -3.165111,0 -2.492004,-0.716892 -4.229405,-2.7112 -4.573104,-5.251919 -0.01134,-0.08375 -0.01557,-0.167431 -0.02303,-0.25137 z m -21.077708,6.334156 c -0.06039,1.952341 0.219637,3.882692 0.857457,5.794955 1.547621,4.639946 5.096432,8.410882 9.643031,10.319626 0.795544,0.162621 1.900619,0.35395 2.426586,0.402959 0.181236,0.0169 0.99717,0.03597 1.812744,0.04223 1.494735,0.01144 1.79846,-0.08122 0.586983,-0.178455 -1.011782,-0.0812 -2.545862,-0.421445 -3.740583,-0.830867 C 23.201828,47.82152 19.20803,43.823606 17.538992,38.81963 17.008312,37.2286 16.728836,35.625199 16.681535,34.007133 Z"
       id="path6" />
  </g>
</svg>
