<?xml version="1.0" encoding="UTF-8" standalone="no"?>
<svg
   width="48"
   height="48"
   version="1.1"
   id="svg1877"
   sodipodi:docname="distributor-logo-chakra.svg"
   inkscape:version="1.2.2 (b0a8486541, 2022-12-01)"
   xmlns:inkscape="http://www.inkscape.org/namespaces/inkscape"
   xmlns:sodipodi="http://sodipodi.sourceforge.net/DTD/sodipodi-0.dtd"
   xmlns:xlink="http://www.w3.org/1999/xlink"
   xmlns="http://www.w3.org/2000/svg"
   xmlns:svg="http://www.w3.org/2000/svg">
  <sodipodi:namedview
     id="namedview1879"
     pagecolor="#ffffff"
     bordercolor="#666666"
     borderopacity="1.0"
     inkscape:showpageshadow="2"
     inkscape:pageopacity="0.0"
     inkscape:pagecheckerboard="0"
     inkscape:deskcolor="#d1d1d1"
     showgrid="true"
     inkscape:zoom="9.8333334"
     inkscape:cx="8.5932203"
     inkscape:cy="23.847457"
     inkscape:window-width="1920"
     inkscape:window-height="1000"
     inkscape:window-x="0"
     inkscape:window-y="0"
     inkscape:window-maximized="1"
     inkscape:current-layer="svg1877">
    <inkscape:grid
       type="xygrid"
       id="grid684" />
  </sodipodi:namedview>
  <defs
     id="defs1863">
    <filter
       id="a"
       color-interpolation-filters="sRGB"
       x="-0.059983201"
       y="-0.058522604"
       width="1.1199664"
       height="1.1414295">
      <feFlood
         flood-opacity=".196"
         flood-color="#000"
         result="flood"
         id="feFlood1852" />
      <feComposite
         in="flood"
         in2="SourceGraphic"
         operator="in"
         result="composite1"
         id="feComposite1854" />
      <feGaussianBlur
         in="composite1"
         stdDeviation="1"
         result="blur"
         id="feGaussianBlur1856" />
      <feOffset
         dx="0"
         dy="1"
         result="offset"
         id="feOffset1858" />
      <feComposite
         in="SourceGraphic"
         in2="offset"
         operator="over"
         result="composite2"
         id="feComposite1860" />
    </filter>
    <linearGradient
       xlink:href="#b-675"
       id="f-3"
       y1="514.09998"
       x1="416.82999"
       y2="503.79999"
       x2="416.57001"
       gradientUnits="userSpaceOnUse" />
    <linearGradient
       spreadMethod="reflect"
       id="b-675"
       x1="41"
       x2="25"
       gradientUnits="userSpaceOnUse"
       gradientTransform="translate(383.57,500.8)">
      <stop
         stop-color="#197cf1"
         id="stop341" />
      <stop
         offset="1"
         stop-color="#21c9fb"
         id="stop343" />
    </linearGradient>
    <linearGradient
       xlink:href="#b-675"
       id="n-3"
       y1="513.03003"
       x1="410.70999"
       y2="524.07001"
       x2="392.13"
       gradientUnits="userSpaceOnUse" />
    <linearGradient
       spreadMethod="reflect"
       id="linearGradient2017"
       x1="41"
       x2="25"
       gradientUnits="userSpaceOnUse"
       gradientTransform="translate(383.57,500.8)">
      <stop
         stop-color="#197cf1"
         id="stop2013" />
      <stop
         offset="1"
         stop-color="#21c9fb"
         id="stop2015" />
    </linearGradient>
    <linearGradient
       id="g-56"
       y1="518.73999"
       x1="406.82001"
       y2="523.66998"
       x2="411.76001"
       gradientUnits="userSpaceOnUse">
      <stop
         stop-color="#18222a"
         id="stop350" />
      <stop
         offset="1"
         stop-color="#566069"
         id="stop352" />
    </linearGradient>
    <linearGradient
       xlink:href="#a-9"
       id="c-2"
       y1="528.79999"
       y2="502.79999"
       x2="0"
       gradientUnits="userSpaceOnUse"
       gradientTransform="translate(-384.57,-499.8)" />
    <linearGradient
       spreadMethod="reflect"
       id="a-9"
       x1="425.57001"
       x2="409.57001"
       gradientUnits="userSpaceOnUse"
       gradientTransform="translate(-1,1)">
      <stop
         stop-color="#2f3943"
         id="stop336" />
      <stop
         offset="1"
         stop-color="#808c9b"
         id="stop338" />
    </linearGradient>
    <linearGradient
       xlink:href="#h-2"
       id="i-1"
       y1="9"
       x1="23"
       y2="15"
       x2="27"
       gradientUnits="userSpaceOnUse" />
    <linearGradient
       id="h-2"
       y1="31"
       x1="19"
       y2="37"
       x2="25"
       gradientUnits="userSpaceOnUse"
       gradientTransform="translate(384.57,499.8)">
      <stop
         id="stop355" />
      <stop
         offset="1"
         stop-opacity="0"
         id="stop357" />
    </linearGradient>
    <linearGradient
       spreadMethod="reflect"
       id="linearGradient2043"
       x1="425.57001"
       x2="409.57001"
       gradientUnits="userSpaceOnUse"
       gradientTransform="translate(-1,1)">
      <stop
         stop-color="#2f3943"
         id="stop2039" />
      <stop
         offset="1"
         stop-color="#808c9b"
         id="stop2041" />
    </linearGradient>
    <linearGradient
       spreadMethod="reflect"
       id="linearGradient2050"
       x1="41"
       x2="25"
       gradientUnits="userSpaceOnUse"
       gradientTransform="translate(383.57,500.8)">
      <stop
         stop-color="#197cf1"
         id="stop2046" />
      <stop
         offset="1"
         stop-color="#21c9fb"
         id="stop2048" />
    </linearGradient>
    <linearGradient
       xlink:href="#a-9"
       id="d-7"
       y1="528.79999"
       y2="502.79999"
       x2="0"
       gradientUnits="userSpaceOnUse" />
    <linearGradient
       spreadMethod="reflect"
       id="linearGradient2057"
       x1="425.57001"
       x2="409.57001"
       gradientUnits="userSpaceOnUse"
       gradientTransform="translate(-1,1)">
      <stop
         stop-color="#2f3943"
         id="stop2053" />
      <stop
         offset="1"
         stop-color="#808c9b"
         id="stop2055" />
    </linearGradient>
    <linearGradient
       id="j-0"
       y1="506.79999"
       x1="421.57001"
       y2="516.79999"
       x2="414.57001"
       gradientUnits="userSpaceOnUse">
      <stop
         stop-color="#18222a"
         id="stop361" />
      <stop
         offset="1"
         stop-color="#18222a"
         stop-opacity="0"
         id="stop363" />
    </linearGradient>
    <linearGradient
       xlink:href="#j-0"
       id="l-9"
       y1="509.60999"
       x1="420.95001"
       y2="513.52002"
       x2="424.85001"
       gradientUnits="userSpaceOnUse" />
    <linearGradient
       xlink:href="#b-675"
       id="m-3"
       y1="527.79999"
       x1="423.57001"
       y2="519.29999"
       x2="411.57001"
       gradientUnits="userSpaceOnUse" />
    <linearGradient
       spreadMethod="reflect"
       id="linearGradient2075"
       x1="41"
       x2="25"
       gradientUnits="userSpaceOnUse"
       gradientTransform="translate(383.57,500.8)">
      <stop
         stop-color="#197cf1"
         id="stop2071" />
      <stop
         offset="1"
         stop-color="#21c9fb"
         id="stop2073" />
    </linearGradient>
    <linearGradient
       xlink:href="#a-9"
       id="e-6"
       y1="512.79999"
       y2="501.79999"
       x2="0"
       gradientUnits="userSpaceOnUse" />
    <linearGradient
       spreadMethod="reflect"
       id="linearGradient2082"
       x1="425.57001"
       x2="409.57001"
       gradientUnits="userSpaceOnUse"
       gradientTransform="translate(-1,1)">
      <stop
         stop-color="#2f3943"
         id="stop2078" />
      <stop
         offset="1"
         stop-color="#808c9b"
         id="stop2080" />
    </linearGradient>
    <linearGradient
       xlink:href="#g-56"
       id="k-0"
       y1="519.29999"
       x1="400.07001"
       y2="524.45001"
       x2="405.23001"
       gradientUnits="userSpaceOnUse" />
    <filter
       id="a-1"
       color-interpolation-filters="sRGB"
       x="-0.079999737"
       y="-0.11660674"
       width="1.1599995"
       height="1.2817996">
      <feFlood
         flood-opacity=".196"
         flood-color="#000"
         result="flood"
         id="feFlood1852-2" />
      <feComposite
         in="flood"
         in2="SourceGraphic"
         operator="in"
         result="composite1"
         id="feComposite1854-7" />
      <feGaussianBlur
         in="composite1"
         stdDeviation="1"
         result="blur"
         id="feGaussianBlur1856-0" />
      <feOffset
         dx="0"
         dy="1"
         result="offset"
         id="feOffset1858-9" />
      <feComposite
         in="SourceGraphic"
         in2="offset"
         operator="over"
         result="composite2"
         id="feComposite1860-3" />
    </filter>
  </defs>
  <path
     d="m 44.003,24 c 0.124,7.866 -4.949,15.451 -12.219,18.428 -7.142,3.093 -16.011,1.5 -21.585,-3.949 C 4.554,33.234 2.494,24.592 5.129,17.354 7.677,9.852 15.044,4.325 22.97,4.028 c 7.706,-0.498 15.403,3.968 18.844,10.87 1.44,2.8 2.193,5.95 2.189,9.102 z"
     fill="#0079c1"
     id="path1865-0"
     transform="matrix(1.0532022,0,0,1.0532022,-1.3353329,-1.5251607)"
     style="filter:url(#a-1)" />
  <path
     d="M 43.979,24.418 A 20,20 0 0 1 24,44 20,20 0 0 1 4.022,24.582 20,20 0 0 0 4,25 20,20 0 0 0 24,45 20,20 0 0 0 44,25 20,20 0 0 0 43.979,24.418 Z"
     opacity="0.2"
     id="path1867-6"
     transform="matrix(1.0532022,0,0,1.0532022,-1.3353329,-1.5251607)"
     style="filter:url(#a-1)" />
  <path
     d="M 24,4 A 20,20 0 0 0 4,24 20,20 0 0 0 4.021,24.582 20,20 0 0 1 24,5 20,20 0 0 1 43.978,24.418 20,20 0 0 0 44,24 20,20 0 0 0 24,4 Z"
     opacity="0.2"
     fill="#ffffff"
     id="path1869-2"
     transform="matrix(1.0532022,0,0,1.0532022,-1.3353329,-1.5251607)"
     style="filter:url(#a-1)" />
  <path
     d="m 24.702,10 c -3.342,0.109 8.905,17.006 -0.528,15.927 7.866,2.179 9.668,-7.973 8.061,-12.94 -1.59,-4.92 -2.418,-1.85 -7.16,-2.943 A 1.477,1.477 0 0 0 24.702,10 Z m -9.372,2.356 c -5.17,-0.007 -2.507,1.729 -5.011,5.901 -2.392,3.985 18.894,-3.152 14.826,5.764 4.503,-6.807 -4.596,-11.658 -9.816,-11.665 z m 3.637,7.628 c -4.137,-0.01 -8.3,4.69 -9.464,8.257 -1.605,4.915 0.87,2.918 4.063,6.59 3.05,3.506 2.843,-18.946 10.065,-12.322 -1.43,-1.796 -3.045,-2.521 -4.664,-2.525 z m 17.782,0.798 c -2.793,0.267 -12.981,13.217 -14.687,4.813 0.359,8.154 10.573,6.73 14.8,3.668 4.186,-3.034 1.01,-2.873 0.584,-7.721 -0.051,-0.579 -0.299,-0.798 -0.697,-0.76 z m -15.023,2.7 c -7.644,2.86 -3.134,12.135 1.085,15.208 4.18,3.045 3.045,0.074 7.523,-1.83 4.278,-1.817 -17.14,-8.557 -8.609,-13.379 z"
     fill-rule="evenodd"
     opacity="0.2"
     id="path1871-6"
     transform="matrix(1.0532022,0,0,1.0532022,-1.3353329,-1.5251607)"
     style="filter:url(#a-1)" />
  <path
     d="m 24.702,9 c -3.342,0.109 8.905,17.006 -0.528,15.927 7.866,2.179 9.668,-7.973 8.061,-12.94 -1.59,-4.92 -2.418,-1.85 -7.16,-2.943 A 1.477,1.477 0 0 0 24.703,9 Z m -9.372,2.356 c -5.17,-0.007 -2.507,1.729 -5.011,5.901 -2.392,3.985 18.894,-3.152 14.826,5.764 4.503,-6.807 -4.596,-11.658 -9.816,-11.665 z m 3.637,7.628 c -4.137,-0.01 -8.3,4.69 -9.464,8.257 -1.605,4.915 0.87,2.918 4.063,6.59 3.05,3.506 2.843,-18.946 10.065,-12.322 -1.43,-1.796 -3.045,-2.521 -4.664,-2.525 z m 17.782,0.798 c -2.793,0.267 -12.981,13.217 -14.687,4.813 0.359,8.154 10.573,6.73 14.8,3.668 4.186,-3.034 1.01,-2.873 0.584,-7.721 -0.051,-0.579 -0.299,-0.798 -0.697,-0.76 z m -15.023,2.7 c -7.644,2.86 -3.134,12.135 1.085,15.208 4.18,3.045 3.045,0.074 7.523,-1.83 4.278,-1.817 -17.14,-8.557 -8.609,-13.379 z"
     fill-rule="evenodd"
     fill="#ffffff"
     id="path1873-1"
     transform="matrix(1.0532022,0,0,1.0532022,-1.3353329,-1.5251607)"
     style="filter:url(#a-1)" />
</svg>
