<?xml version="1.0" encoding="UTF-8" standalone="no"?>
<svg
   width="48"
   height="48"
   version="1.1"
   id="svg5"
   sodipodi:docname="electrum.svg"
   inkscape:version="1.4 (unknown)"
   xmlns:inkscape="http://www.inkscape.org/namespaces/inkscape"
   xmlns:sodipodi="http://sodipodi.sourceforge.net/DTD/sodipodi-0.dtd"
   xmlns:xlink="http://www.w3.org/1999/xlink"
   xmlns="http://www.w3.org/2000/svg"
   xmlns:svg="http://www.w3.org/2000/svg">
  <defs
     id="defs5">
    <linearGradient
       id="linearGradient7"
       inkscape:collect="always">
      <stop
         style="stop-color:#bfbfbf;stop-opacity:1;"
         offset="0"
         id="stop7" />
      <stop
         style="stop-color:#dadada;stop-opacity:1;"
         offset="1"
         id="stop8" />
    </linearGradient>
    <linearGradient
       inkscape:collect="always"
       xlink:href="#linearGradient7"
       id="linearGradient8"
       x1="31.508766"
       y1="60"
       x2="31.508768"
       y2="4.9824562"
       gradientUnits="userSpaceOnUse" />
  </defs>
  <sodipodi:namedview
     id="namedview5"
     pagecolor="#ffffff"
     bordercolor="#000000"
     borderopacity="0.25"
     inkscape:showpageshadow="2"
     inkscape:pageopacity="0.0"
     inkscape:pagecheckerboard="0"
     inkscape:deskcolor="#d1d1d1"
     inkscape:zoom="7.0710678"
     inkscape:cx="27.789297"
     inkscape:cy="29.910617"
     inkscape:window-width="1920"
     inkscape:window-height="998"
     inkscape:window-x="0"
     inkscape:window-y="0"
     inkscape:window-maximized="1"
     inkscape:current-layer="svg5" />
  <g
     id="g7"
     transform="matrix(0.72525066,0.19423039,-0.19433033,0.7248777,7.3668159,-5.3160463)">
    <g
       id="g6">
      <g
         id="g5">
        <circle
           style="opacity:0.2;stroke-width:0.98246"
           cx="31.508766"
           cy="32.491234"
           r="27.508766"
           id="circle1" />
        <circle
           style="fill:url(#linearGradient8);stroke-width:0.98246"
           cx="31.508766"
           cy="31.508766"
           r="27.508766"
           id="circle2" />
        <ellipse
           style="fill:none;stroke:#1488c4;stroke-width:2.02577"
           cx="31.508766"
           cy="31.508766"
           rx="24.561405"
           ry="14.736841"
           id="ellipse2" />
        <ellipse
           style="fill:none;stroke:#1488c4;stroke-width:2.02577"
           cx="43.041958"
           cy="-11.533195"
           rx="24.561405"
           ry="14.736841"
           transform="rotate(60)"
           id="ellipse3" />
        <ellipse
           style="fill:none;stroke:#1488c4;stroke-width:2.02577"
           cx="11.533195"
           cy="43.041958"
           rx="24.561405"
           ry="14.736841"
           transform="matrix(-0.5,0.8660254,0.8660254,0.5,0,0)"
           id="ellipse4" />
        <path
           style="opacity:0.2;fill:#ffffff;stroke-width:0.98246"
           d="M 31.508768,4 A 27.508768,27.508768 0 0 0 4,31.508768 27.508768,27.508768 0 0 0 4.0172701,31.992322 27.508768,27.508768 0 0 1 31.508768,4.982456 27.508768,27.508768 0 0 1 58.992591,31.992322 27.508768,27.508768 0 0 0 59.017536,31.508768 27.508768,27.508768 0 0 0 31.508768,4 Z"
           id="path4" />
        <path
           style="fill:#1488c4;stroke-width:0.98246"
           d="m 27.578944,19.719298 v 3.929822 c -0.483068,0.01962 -1.371682,0 -1.834428,0 H 23.64912 v 1.964912 c 0,0 0.706226,-0.0295 0.679276,0 0.904114,-0.01379 1.192028,0.640692 1.285636,1.078398 v 9.728618 c -0.03468,0.276612 -0.0052,0.962808 -0.637058,0.982456 0.0292,0.02551 -1.327854,0 -1.327854,0 v 1.964912 h 2.214364 c 0.54055,-0.01964 1.193268,0 1.71546,0 v 3.929824 l 1.964912,-0.03456 V 39.3684 h 1.93421 l 0.0614,3.929825 h 1.964912 l -0.0614,-3.929825 c 3.748682,-0.272092 5.925438,-0.719888 5.925438,-4.91228 0,-2.947368 -1.966702,-3.927946 -4.290968,-3.929824 C 36.551756,30.41465 37.402442,29.54384 37.403106,27.0877 36.872532,24.094975 36.139754,23.649104 33.47368,23.649104 V 19.71929 h -1.964912 v 3.929822 c -0.58677,-10e-6 -1.369209,-0.0216 -1.964912,0 V 19.71929 Z m 1.964912,5.894734 c 2.77089,0 3.930096,2.8e-5 3.929824,1.964912 2.72e-4,1.965042 -1.435618,1.964912 -3.929824,1.964912 z m 0,5.894736 c 3.929824,1.48e-4 5.895144,4.6e-5 5.894736,2.947368 4.08e-4,2.947564 -1.964912,2.947368 -5.894736,2.947368 z"
           id="path5" />
      </g>
    </g>
  </g>
</svg>
