<?xml version="1.0" encoding="UTF-8" standalone="no"?>
<svg
   width="48"
   height="48"
   version="1.1"
   id="svg4390"
   sodipodi:docname="ipython-notebook.svg"
   inkscape:version="1.3.2 (091e20ef0f, 2023-11-25)"
   xmlns:inkscape="http://www.inkscape.org/namespaces/inkscape"
   xmlns:sodipodi="http://sodipodi.sourceforge.net/DTD/sodipodi-0.dtd"
   xmlns:xlink="http://www.w3.org/1999/xlink"
   xmlns="http://www.w3.org/2000/svg"
   xmlns:svg="http://www.w3.org/2000/svg">
  <sodipodi:namedview
     id="namedview4392"
     pagecolor="#ffffff"
     bordercolor="#666666"
     borderopacity="1.0"
     inkscape:showpageshadow="2"
     inkscape:pageopacity="0.0"
     inkscape:pagecheckerboard="0"
     inkscape:deskcolor="#d1d1d1"
     showgrid="true"
     inkscape:zoom="4.9166667"
     inkscape:cx="24"
     inkscape:cy="24.508474"
     inkscape:window-width="1920"
     inkscape:window-height="994"
     inkscape:window-x="0"
     inkscape:window-y="0"
     inkscape:window-maximized="1"
     inkscape:current-layer="svg4390">
    <inkscape:grid
       type="xygrid"
       id="grid5049"
       originx="0"
       originy="0"
       spacingy="1"
       spacingx="1"
       units="px"
       visible="true" />
  </sodipodi:namedview>
  <defs
     id="defs4378">
    <linearGradient
       inkscape:collect="always"
       id="linearGradient847">
      <stop
         style="stop-color:#1e2b35;stop-opacity:1;"
         offset="0"
         id="stop843" />
      <stop
         style="stop-color:#6d7983;stop-opacity:1;"
         offset="1"
         id="stop845" />
    </linearGradient>
    <linearGradient
       id="a"
       y1="547.634"
       y2="499.679"
       x2="388.865"
       gradientUnits="userSpaceOnUse"
       gradientTransform="translate(-384.57,-499.8)"
       x1="428.816">
      <stop
         stop-color="#2a2c2f"
         id="stop4363"
         offset="0"
         style="stop-color:#1e2b35;stop-opacity:1;" />
      <stop
         offset="1"
         stop-color="#536161"
         id="stop4365"
         style="stop-color:#6d7983;stop-opacity:1;" />
    </linearGradient>
    <linearGradient
       id="b"
       y1="44"
       y2="12"
       x2="14"
       gradientUnits="userSpaceOnUse"
       x1="36">
      <stop
         stop-color="#536161"
         style="stop-color:#bfc9c9;stop-opacity:1"
         id="stop4368" />
      <stop
         offset="1"
         stop-color="#f4f5f5"
         style="stop-color:#fbfbfb;stop-opacity:1"
         id="stop4370" />
    </linearGradient>
    <linearGradient
       id="c"
       y1="527.014"
       x1="406.501"
       y2="539.825"
       x2="419.974"
       gradientUnits="userSpaceOnUse"
       gradientTransform="translate(-384.57,-499.8)">
      <stop
         stop-color="#292c2f"
         id="stop4373" />
      <stop
         offset="1"
         stop-opacity="0"
         id="stop4375" />
    </linearGradient>
    <linearGradient
       xlink:href="#a"
       id="linearGradient4151"
       gradientUnits="userSpaceOnUse"
       x1="4.0000024"
       y1="43.999989"
       x2="43.999992"
       y2="3.9999998"
       gradientTransform="matrix(1.0499999,0,0,1.0499999,-1.2000002,-1.1999984)" />
    <linearGradient
       id="linearGradient4141">
      <stop
         style="stop-color:#ffccaa;stop-opacity:1"
         offset="0"
         id="stop7" />
      <stop
         style="stop-color:#ff9955;stop-opacity:1"
         offset="1"
         id="stop9" />
    </linearGradient>
    <linearGradient
       inkscape:collect="always"
       xlink:href="#linearGradient847"
       id="linearGradient849"
       x1="40.37009"
       y1="48"
       x2="10"
       y2="0"
       gradientUnits="userSpaceOnUse" />
  </defs>
  <rect
     width="41.999985"
     height="41.999985"
     x="3"
     y="3"
     ry="20.999992"
     rx="20.999992"
     id="rect16"
     style="fill-opacity:1;fill:url(#linearGradient849)" />
  <path
     style="opacity:0.2;stroke-width:0.814813"
     d="m 12.058,14.348812 v 2.444444 18.740743 H 14.502449 17.7617 V 33.08955 H 14.502449 V 16.793256 H 17.7617 v -2.444444 h -3.259251 z m 17.111107,0 v 2.444444 h 3.259257 V 33.08955 h -3.259257 v 2.444449 h 5.703706 V 33.08955 14.348812 Z m 7.740742,3.259253 a 1.2222214,1.2222214 0 0 0 -1.222222,1.222234 1.2222214,1.2222214 0 0 0 1.222222,1.222214 1.2222214,1.2222214 0 0 0 1.222217,-1.222214 1.2222214,1.2222214 0 0 0 -1.222217,-1.222234 z m 0,12.222233 a 1.2222214,1.2222214 0 0 0 -1.222222,1.222215 1.2222214,1.2222214 0 0 0 1.222222,1.222228 1.2222214,1.2222214 0 0 0 1.222217,-1.222228 1.2222214,1.2222214 0 0 0 -1.222217,-1.222215 z"
     id="path3" />
  <rect
     style="fill:#267edb;stroke-width:0.814813"
     width="2.4444435"
     height="21.185184"
     x="12.058006"
     y="13.534"
     id="rect6" />
  <rect
     style="fill:#267edb;stroke-width:0.814813"
     width="5.703701"
     height="2.4444435"
     x="12.058006"
     y="13.534"
     id="rect7" />
  <rect
     style="fill:#267edb;stroke-width:0.814813"
     width="5.703701"
     height="2.4444435"
     x="12.058006"
     y="32.274734"
     id="rect8" />
  <rect
     style="fill:#267edb;stroke-width:0.814813"
     width="2.4444435"
     height="21.185184"
     x="-34.872768"
     y="13.534"
     transform="scale(-1,1)"
     id="rect9" />
  <rect
     style="fill:#267edb;stroke-width:0.814813"
     width="5.703701"
     height="2.4444435"
     x="-34.872768"
     y="13.534"
     transform="scale(-1,1)"
     id="rect10" />
  <rect
     style="fill:#267edb;stroke-width:0.814813"
     width="5.703701"
     height="2.4444435"
     x="-34.872768"
     y="32.274734"
     transform="scale(-1,1)"
     id="rect11" />
  <path
     style="opacity:0.2;stroke-width:0.814813"
     d="m 20.000848,17.641494 -2.196173,1.07422 5.589115,11.420135 c -0.189784,0.362766 -0.378727,0.712373 -0.566543,1.024876 -0.421818,0.701842 -0.839661,1.260014 -1.1713,1.583492 -0.33165,0.323468 -0.525041,0.345333 -0.472664,0.345333 H 20.20615 v 2.444449 h 0.977133 c 0.907935,0 1.607337,-0.481987 2.180268,-1.040796 0.572941,-0.558822 1.07239,-1.261395 1.559611,-2.072053 0.974437,-1.62133 1.877336,-3.680696 2.675204,-5.732356 1.595719,-4.103284 2.746807,-8.178373 2.746807,-8.178373 l -2.352132,-0.665219 c 0,0 -1.130712,3.993801 -2.67202,7.957166 -0.193549,0.497688 -0.394983,0.993919 -0.599976,1.481631 z"
     id="path11" />
  <path
     style="fill:none;stroke:#ffffff;stroke-width:2.44449"
     d="m 18.90245,17.363634 5.703701,11.651842"
     id="path12" />
  <path
     style="fill:none;stroke:#ffffff;stroke-width:2.44449"
     d="m 29.169108,17.363634 c 0,0 -4.562957,16.133328 -7.985182,16.133328 H 20.20615"
     id="path13" />
  <path
     style="fill:#267edb;stroke-width:0.814813"
     d="m 38.132066,18.015484 a 1.2222214,1.2222214 0 0 1 -1.222217,1.222215 1.2222214,1.2222214 0 0 1 -1.222222,-1.222215 1.2222214,1.2222214 0 0 1 1.222222,-1.222227 1.2222214,1.2222214 0 0 1 1.222217,1.222227 z"
     id="path14" />
  <path
     style="fill:#267edb;stroke-width:0.814813"
     d="m 38.132066,30.237699 a 1.2222214,1.2222214 0 0 1 -1.222217,1.222226 1.2222214,1.2222214 0 0 1 -1.222222,-1.222226 1.2222214,1.2222214 0 0 1 1.222222,-1.222222 1.2222214,1.2222214 0 0 1 1.222217,1.222222 z"
     id="path15" />
</svg>
