<?xml version="1.0" encoding="UTF-8" standalone="no"?>
<svg
   version="1.1"
   id="Layer_1"
   x="0px"
   y="0px"
   viewBox="0 0 45.000003 44.999997"
   enable-background="new 0 0 196.6 72"
   xml:space="preserve"
   inkscape:version="1.2.1 (9c6d41e410, 2022-07-14)"
   sodipodi:docname="kaccounts-nextcloud.svg"
   width="48"
   height="48"
   inkscape:export-filename="nextcloud-icon-1024.png"
   inkscape:export-xdpi="612.79999"
   inkscape:export-ydpi="612.79999"
   xmlns:inkscape="http://www.inkscape.org/namespaces/inkscape"
   xmlns:sodipodi="http://sodipodi.sourceforge.net/DTD/sodipodi-0.dtd"
   xmlns:xlink="http://www.w3.org/1999/xlink"
   xmlns="http://www.w3.org/2000/svg"
   xmlns:svg="http://www.w3.org/2000/svg"
   xmlns:rdf="http://www.w3.org/1999/02/22-rdf-syntax-ns#"
   xmlns:cc="http://creativecommons.org/ns#"
   xmlns:dc="http://purl.org/dc/elements/1.1/">
    <metadata
   id="metadata20">
        <rdf:RDF>
            <cc:Work
   rdf:about="">
                <dc:format>image/svg+xml</dc:format>
                <dc:type
   rdf:resource="http://purl.org/dc/dcmitype/StillImage" />
                
            </cc:Work>
        </rdf:RDF>
    </metadata>
    <defs
   id="defs18">
        <linearGradient
   inkscape:collect="always"
   id="linearGradient857">
            <stop
   style="stop-color:#0082c9;stop-opacity:1;"
   offset="0"
   id="stop853" />
            <stop
   style="stop-color:#1cafff;stop-opacity:1"
   offset="1"
   id="stop855" />
        </linearGradient>
        <clipPath
   clipPathUnits="userSpaceOnUse"
   id="clipPath8812">
            <circle
   id="circle8814"
   cx="95.669289"
   cy="95.669296"
   r="79.724197"
   style="fill:#00080d;fill-opacity:1;stroke-width:1" />
        </clipPath>
        <linearGradient
   gradientTransform="matrix(0.24753307,0,0,0.24753307,22.546877,22.546875)"
   inkscape:collect="always"
   xlink:href="#linearGradient857"
   id="linearGradient1192"
   gradientUnits="userSpaceOnUse"
   x1="18.230097"
   y1="150"
   x2="150.00002"
   y2="-7.6293945e-06" />
    </defs>
    <sodipodi:namedview
   pagecolor="#ffffff"
   bordercolor="#666666"
   borderopacity="1"
   objecttolerance="10"
   gridtolerance="10"
   guidetolerance="10"
   inkscape:pageopacity="0"
   inkscape:pageshadow="2"
   inkscape:window-width="1920"
   inkscape:window-height="1011"
   id="namedview16"
   showgrid="false"
   inkscape:zoom="2.8284271"
   inkscape:cx="57.982757"
   inkscape:cy="72.831999"
   inkscape:current-layer="Layer_1"
   fit-margin-top="0"
   fit-margin-left="0"
   fit-margin-right="0"
   fit-margin-bottom="0"
   inkscape:window-x="0"
   inkscape:window-y="0"
   inkscape:window-maximized="1"
   units="px"
   inkscape:snap-bbox="true"
   inkscape:bbox-paths="true"
   inkscape:bbox-nodes="true"
   inkscape:snap-bbox-edge-midpoints="true"
   inkscape:snap-bbox-midpoints="true"
   inkscape:snap-page="true"
   inkscape:document-rotation="0"
   inkscape:showpageshadow="2"
   inkscape:pagecheckerboard="0"
   inkscape:deskcolor="#d1d1d1" />
    <circle
   r="19.734375"
   cy="22.546875"
   cx="22.546875"
   id="circle1050"
   style="opacity:1;fill:url(#linearGradient1192);fill-opacity:1;fill-rule:evenodd;stroke:none;stroke-width:0.0247533;stroke-miterlimit:4;stroke-dasharray:none;stroke-opacity:1"
   inkscape:export-filename="nextcloud-icon.png"
   inkscape:export-xdpi="300"
   inkscape:export-ydpi="300" />
    <path
   inkscape:connector-curvature="0"
   id="path1052"
   d="m 22.572208,14.980396 c -3.445552,0 -6.365944,2.335859 -7.27107,5.500681 -0.786649,-1.678669 -2.491346,-2.854719 -4.454861,-2.854719 -2.7002961,0 -4.9200104,2.219715 -4.9200104,4.92001 0,2.700293 2.2197143,4.92102 4.9200104,4.92102 1.963515,0 3.668212,-1.176768 4.454861,-2.855734 0.905126,3.165064 3.825518,5.5017 7.27107,5.5017 3.420072,0 6.325573,-2.301394 7.25385,-5.430759 0.801182,1.640849 2.484777,2.784793 4.420404,2.784793 2.700297,0 4.921021,-2.220727 4.921021,-4.92102 0,-2.700295 -2.220724,-4.92001 -4.921021,-4.92001 -1.935627,0 -3.619222,1.143227 -4.420404,2.783783 -0.928277,-3.129121 -3.833778,-5.429745 -7.25385,-5.429745 z m 0,2.888163 c 2.601004,0 4.678825,2.076814 4.678825,4.677809 0,2.600992 -2.077821,4.678821 -4.678825,4.678821 -2.600988,0 -4.677802,-2.077829 -4.677802,-4.678821 0,-2.600995 2.076814,-4.677808 4.677802,-4.677809 z M 10.846277,20.51452 c 1.139554,0 2.032859,0.892288 2.032859,2.031848 0,1.139557 -0.893305,2.032858 -2.032859,2.032858 -1.1395567,0 -2.0318542,-0.893301 -2.0318542,-2.032858 0,-1.13956 0.8922975,-2.031848 2.0318542,-2.031848 z m 23.400185,0 c 1.139568,0 2.032866,0.892288 2.032866,2.031848 0,1.139557 -0.893304,2.032858 -2.032866,2.032858 -1.139548,0 -2.031841,-0.893301 -2.031841,-2.032858 0,-1.13956 0.892295,-2.031848 2.031841,-2.031848 z"
   style="color:#000000;font-style:normal;font-variant:normal;font-weight:normal;font-stretch:normal;font-size:medium;line-height:normal;font-family:sans-serif;text-indent:0;text-align:start;text-decoration:none;text-decoration-line:none;text-decoration-style:solid;text-decoration-color:#000000;letter-spacing:normal;word-spacing:normal;text-transform:none;writing-mode:lr-tb;direction:ltr;baseline-shift:baseline;text-anchor:start;white-space:normal;clip-rule:nonzero;display:inline;overflow:visible;visibility:visible;opacity:1;isolation:auto;mix-blend-mode:normal;color-interpolation:sRGB;color-interpolation-filters:linearRGB;solid-color:#000000;solid-opacity:1;fill:#ffffff;fill-opacity:1;fill-rule:nonzero;stroke:none;stroke-width:1.6245;stroke-linecap:butt;stroke-linejoin:miter;stroke-miterlimit:10;stroke-dasharray:none;stroke-dashoffset:0;stroke-opacity:1;color-rendering:auto;image-rendering:auto;shape-rendering:auto;text-rendering:auto;enable-background:accumulate"
   inkscape:export-filename="Nextcloud Hub logo variants.png"
   inkscape:export-xdpi="300"
   inkscape:export-ydpi="300" />
</svg>
