<?xml version="1.0" encoding="UTF-8" standalone="no"?>
<svg
   xmlns:dc="http://purl.org/dc/elements/1.1/"
   xmlns:cc="http://creativecommons.org/ns#"
   xmlns:rdf="http://www.w3.org/1999/02/22-rdf-syntax-ns#"
   xmlns:svg="http://www.w3.org/2000/svg"
   xmlns="http://www.w3.org/2000/svg"
   xmlns:xlink="http://www.w3.org/1999/xlink"
   xmlns:sodipodi="http://sodipodi.sourceforge.net/DTD/sodipodi-0.dtd"
   xmlns:inkscape="http://www.inkscape.org/namespaces/inkscape"
   width="48"
   height="48"
   version="1.1"
   id="svg55"
   sodipodi:docname="preferences-devices-cpu.svg"
   inkscape:version="0.92.5 (2060ec1f9f, 2020-04-08)">
  <metadata
     id="metadata59">
    <rdf:RDF>
      <cc:Work
         rdf:about="">
        <dc:format>image/svg+xml</dc:format>
        <dc:type
           rdf:resource="http://purl.org/dc/dcmitype/StillImage" />
        <dc:title></dc:title>
      </cc:Work>
    </rdf:RDF>
  </metadata>
  <sodipodi:namedview
     pagecolor="#ffffff"
     bordercolor="#666666"
     borderopacity="1"
     objecttolerance="10"
     gridtolerance="10"
     guidetolerance="10"
     inkscape:pageopacity="0"
     inkscape:pageshadow="2"
     inkscape:window-width="1085"
     inkscape:window-height="480"
     id="namedview57"
     showgrid="false"
     inkscape:zoom="4.9166667"
     inkscape:cx="2.1355932"
     inkscape:cy="24"
     inkscape:window-x="0"
     inkscape:window-y="25"
     inkscape:window-maximized="0"
     inkscape:current-layer="svg55" />
  <defs
     id="defs35">
    <linearGradient
       id="c"
       y1="44"
       y2="4"
       gradientUnits="userSpaceOnUse"
       x2="0"
       gradientTransform="translate(0 1004.36)">
      <stop
         stop-color="#63984b"
         id="stop2" />
      <stop
         offset="1"
         stop-color="#8fc278"
         id="stop4" />
    </linearGradient>
    <linearGradient
       id="b"
       y1="11"
       x1="17"
       y2="41"
       gradientUnits="userSpaceOnUse"
       x2="44"
       gradientTransform="translate(0 1004.36)">
      <stop
         id="stop7" />
      <stop
         offset="1"
         stop-opacity="0"
         id="stop9" />
    </linearGradient>
    <linearGradient
       id="a"
       y1="1040.95"
       y2="1012.95"
       gradientUnits="userSpaceOnUse"
       x2="0"
       gradientTransform="translate(-42)"
       x1="0"
       spreadMethod="pad">
      <stop
         stop-color="#999a9c"
         id="stop12" />
      <stop
         offset="1"
         stop-color="#dcdfdf"
         id="stop14" />
    </linearGradient>
    <linearGradient
       xlink:href="#c"
       id="g"
       gradientUnits="userSpaceOnUse"
       y1="44"
       x2="0"
       y2="4" />
    <linearGradient
       xlink:href="#b"
       id="h"
       gradientUnits="userSpaceOnUse"
       x1="17"
       y1="11"
       x2="44"
       y2="41" />
    <linearGradient
       id="d"
       gradientUnits="userSpaceOnUse"
       x1="378.571"
       x2="378.571"
       y1="553.798"
       y2="525.798"
       gradientTransform="translate(-336.571 -523.798)">
      <stop
         offset="0"
         stop-color="#63984b"
         id="stop19" />
      <stop
         offset="1"
         stop-color="#8fc278"
         id="stop21" />
    </linearGradient>
    <linearGradient
       id="e"
       gradientUnits="userSpaceOnUse"
       x1="389.571"
       x2="399.571"
       y1="536.798"
       y2="546.798">
      <stop
         offset="0"
         stop-color="#292c2f"
         id="stop24" />
      <stop
         offset="1"
         stop-opacity="0"
         id="stop26" />
    </linearGradient>
    <linearGradient
       id="f"
       gradientUnits="userSpaceOnUse"
       x1="394.571"
       x2="394.571"
       y1="549.798"
       y2="529.798"
       gradientTransform="translate(-576.816 257.22) scale(1.42857)">
      <stop
         offset="0"
         stop-color="#999a9c"
         id="stop29" />
      <stop
         offset="1"
         stop-color="#dcdfdf"
         id="stop31" />
    </linearGradient>
    <linearGradient
       xlink:href="#a"
       id="i"
       x1="15"
       y1="1042.36"
       x2="15"
       y2="1012.36"
       gradientUnits="userSpaceOnUse"
       gradientTransform="translate(0,-1004.36)" />
  </defs>
  <path
     d="M 10,4 A 5.983,5.983 0 0 0 4.47,7.66 6.01,6.01 0 0 0 4,10 v 3 l 3,2 -3,2 V 38 A 5.983,5.983 0 0 0 7.66,43.53 6.01,6.01 0 0 0 10,44 H 38 A 5.983,5.983 0 0 0 43.53,40.34 6.01,6.01 0 0 0 44,38 V 10 A 5.983,5.983 0 0 0 40.34,4.47 6.01,6.01 0 0 0 38,4 Z"
     id="path37"
     inkscape:connector-curvature="0"
     style="fill:#dce269;fill-rule:evenodd" />
  <path
     d="M 10,4 A 5.983,5.983 0 0 0 4.47,7.66 6.01,6.01 0 0 0 4,10 v 2 l 3,2 -3,2 v 22 a 5.983,5.983 0 0 0 1.754,4.246 C 6.072,42.565 6.489,42.76 6.873,43 h 34.254 c 0.384,-0.24 0.8,-0.435 1.12,-0.754 A 5.983,5.983 0 0 0 44,38 V 10 A 5.983,5.983 0 0 0 40.34,4.47 6.01,6.01 0 0 0 38,4 Z"
     id="path39"
     style="fill:url(#g);fill-rule:evenodd"
     inkscape:connector-curvature="0" />
  <g
     id="g43"
     style="color:#000000;fill:#dee372">
    <path
       d="m 9,40 v 1 h 1 v -1 z m 1,1 v 1 h 1 v -1 z m 1,0 h 1 v -1 h -1 z m 1,0 v 1 h 1 v -1 z m 1,0 h 1 v -1 h -1 z m 1,0 v 1 h 1 v -1 z m 1,0 h 1 v -1 h -1 z m 1,0 v 1 h 1 v -1 z m 1,0 h 1 v -1 h -1 z m 1,0 v 1 h 1 v -1 z m 1,0 h 1 v -1 h -1 z m 1,0 v 1 h 1 v -1 z m 1,0 h 1 v -1 h -1 z m 1,0 v 1 h 1 v -1 z m 1,0 h 1 v -1 h -1 z m 1,0 v 1 h 1 v -1 z m 11,-1 v 1 h 1 v -1 z m 1,1 v 1 h 1 v -1 z m 1,0 h 1 v -1 h -1 z m 1,0 v 1 h 1 v -1 z m 1,0 h 1 v -1 h -1 z m -4,0 h -1 v 1 h 1 z"
       id="path41"
       inkscape:connector-curvature="0"
       style="opacity:0.6" />
  </g>
  <path
     d="m 42,9 v 1 h 1 V 9 Z m 0,1 h -1 v 1 h 1 z m 0,1 v 1 h 1 v -1 z m 0,1 h -1 v 1 h 1 z m 0,1 v 1 h 1 v -1 z m 0,1 h -1 v 1 h 1 z m 0,1 v 1 h 1 v -1 z m 0,1 h -1 v 1 h 1 z m 0,1 v 1 h 1 v -1 z m 0,1 h -1 v 1 h 1 z m 0,1 v 1 h 1 v -1 z m 0,1 h -1 v 1 h 1 z m 0,1 v 1 h 1 v -1 z m 0,1 h -1 v 1 h 1 z m 0,1 v 1 h 1 v -1 z m 0,1 h -1 v 1 h 1 z"
     id="path45"
     inkscape:connector-curvature="0"
     style="color:#000000;opacity:0.6;fill:#dee372" />
  <path
     d="M 12.584,44 H 38 A 5.983,5.983 0 0 0 43.53,40.34 6.01,6.01 0 0 0 44,38 V 12 L 40,8 V 39 H 8 Z"
     id="path47"
     style="opacity:0.2;fill:url(#h);fill-rule:evenodd"
     inkscape:connector-curvature="0" />
  <path
     d="M 8,8 H 40 V 39 H 8 Z"
     id="path49"
     style="fill:url(#i);fill-rule:evenodd"
     inkscape:connector-curvature="0" />
  <path
     d="m 8,38 h 32 v 1 H 8 Z"
     id="path51"
     inkscape:connector-curvature="0"
     style="fill:#5c5c5c;fill-rule:evenodd" />
  <path
     d="m 31,11 v 6 h 2 v -2 h 2 v -2 h -2 v -2 z m 4,2 h 2 v -2 h -2 z m 0,2 v 2 h 2 V 15 Z M 11,29 v 2 h 6 v -2 z m 0,4 v 2 h 4 v -2 z"
     id="path53"
     inkscape:connector-curvature="0"
     style="fill:#484a4b;paint-order:stroke fill markers" />
</svg>
