<?xml version="1.0" encoding="UTF-8" standalone="no"?>
<svg
   id="svg2"
   viewBox="0 0 48 48"
   version="1.1"
   sodipodi:docname="keepassxc-locked.svg"
   width="48"
   height="48"
   inkscape:version="1.2.2 (b0a8486541, 2022-12-01)"
   xmlns:inkscape="http://www.inkscape.org/namespaces/inkscape"
   xmlns:sodipodi="http://sodipodi.sourceforge.net/DTD/sodipodi-0.dtd"
   xmlns="http://www.w3.org/2000/svg"
   xmlns:svg="http://www.w3.org/2000/svg">
  <defs
     id="defs471" />
  <sodipodi:namedview
     id="namedview469"
     pagecolor="#ffffff"
     bordercolor="#000000"
     borderopacity="0.25"
     inkscape:showpageshadow="2"
     inkscape:pageopacity="0.0"
     inkscape:pagecheckerboard="0"
     inkscape:deskcolor="#d1d1d1"
     showgrid="true"
     inkscape:zoom="13.350176"
     inkscape:cx="11.572881"
     inkscape:cy="26.029619"
     inkscape:window-width="1920"
     inkscape:window-height="1002"
     inkscape:window-x="0"
     inkscape:window-y="0"
     inkscape:window-maximized="1"
     inkscape:current-layer="svg2">
    <inkscape:grid
       type="xygrid"
       id="grid590" />
  </sodipodi:namedview>
  <circle
     style="clip-rule:evenodd;fill:#ffffff;fill-rule:evenodd;stroke:#515151;stroke-width:1.31964;stroke-linecap:round;stroke-linejoin:round"
     cx="24"
     cy="24"
     r="19.340179"
     id="circle450" />
  <linearGradient
     id="SVGID_1_"
     gradientUnits="userSpaceOnUse"
     x1="50.269299"
     y1="-1470.9402"
     x2="49.6968"
     y2="-1392.7863"
     gradientTransform="matrix(0.42135466,0,0,-0.42135466,2.9322609,-580.26903)">
    <stop
       offset="0"
       style="stop-color:gray"
       id="stop452" />
    <stop
       offset="1"
       style="stop-color:#4b4b4d"
       id="stop454" />
  </linearGradient>
  <path
     style="fill:url(#SVGID_1_);stroke-width:0.421355"
     d="m 26.823069,8.7048196 c 0.04214,0.2106773 0.08427,0.4213547 0.08427,0.632032 0,1.6011474 -1.3062,2.9073464 -2.907348,2.9073464 -1.601147,0 -2.907347,-1.306199 -2.907347,-2.9073464 0,-0.2106773 0.04214,-0.4213547 0.08427,-0.632032 0.92698,-0.1685419 1.896096,-0.2528128 2.823076,-0.2528128 0.969116,-0.042135 1.896096,0.084271 2.823077,0.2528128 z M 15.825712,12.244198 c 0,3.244431 1.896096,6.067507 4.677037,7.373707 v 14.789549 l 3.497243,3.497243 3.497244,-3.497243 -0.210677,-3.075889 1.643283,-1.643284 -1.643283,-1.643283 2.485992,-2.485992 -2.485992,-2.485993 0.210677,-3.455108 c 2.738805,-1.3062 4.677037,-4.129276 4.677037,-7.373707 0,-0.547761 -0.04214,-1.053386 -0.168542,-1.601147 4.677037,2.823076 7.542248,7.879332 7.584384,13.356942 0,8.595636 -6.952352,15.590123 -15.590123,15.590123 -8.595635,0 -15.5901205,-6.952352 -15.5901205,-15.590123 0,-5.47761 2.8652105,-10.533866 7.5843825,-13.356942 -0.08427,0.547761 -0.168542,1.053386 -0.168542,1.601147 z m 5.85683,9.311938 h 1.179793 v 11.671525 h -1.179793 z"
     id="path457" />
  <linearGradient
     id="SVGID_2_"
     gradientUnits="userSpaceOnUse"
     x1="73.800003"
     y1="1532.1382"
     x2="73.800003"
     y2="1574.0038"
     gradientTransform="matrix(0.42135466,0,0,0.42135466,2.9322609,-622.35806)">
    <stop
       offset="0"
       style="stop-color:#d69029"
       id="stop459" />
    <stop
       offset="1"
       style="stop-color:#af7125"
       id="stop461" />
  </linearGradient>
  <path
     style="fill:url(#SVGID_2_);stroke-width:0.421355"
     d="m 28.044997,42.876682 c -1.559012,0 -2.823076,-1.264064 -2.823076,-2.823076 v -8.637771 c 0,-1.39047 1.053387,-2.570263 2.401722,-2.78094 v -1.727554 c 0,-3.53938 2.865211,-6.404591 6.40459,-6.404591 3.53938,0 6.404591,2.865211 6.404591,6.404591 v 1.727554 c 1.348335,0.210677 2.401722,1.39047 2.401722,2.78094 v 8.637771 c 0,1.559012 -1.264064,2.823076 -2.823076,2.823076 0,0 -11.966473,0 -11.966473,0 z m 8.469229,-14.241787 v -2.106774 c 0,-1.348335 -1.095522,-2.485992 -2.485993,-2.485992 -1.39047,0 -2.443857,1.095522 -2.443857,2.485992 v 2.106774 z"
     id="path464" />
  <path
     style="fill:#ffffff;stroke-width:0.421355"
     d="m 34.028233,20.924104 c 3.286567,0 5.983237,2.69667 5.983237,5.983237 v 2.148908 c 1.306199,0 2.401721,1.095523 2.401721,2.401722 v 8.637771 c 0,1.306199 -1.095522,2.401721 -2.401721,2.401721 H 28.044997 c -1.306199,0 -2.401721,-1.095522 -2.401721,-2.401721 v -8.679907 c 0,-1.306199 1.095522,-2.401721 2.401721,-2.401721 v -2.148909 c 0,-3.244431 2.69667,-5.941101 5.983236,-5.941101 m -2.865211,8.132145 h 5.772559 v -2.528128 c 0,-1.601147 -1.3062,-2.907347 -2.907348,-2.907347 -1.601147,0 -2.865211,1.3062 -2.865211,2.907347 v 2.528128 m 2.865211,-8.974854 c -3.750056,0 -6.825945,3.075889 -6.825945,6.825946 v 1.39047 c -1.390471,0.379219 -2.401722,1.643283 -2.401722,3.118024 v 8.637771 c 0,1.76969 1.432606,3.244431 3.244431,3.244431 H 40.01147 c 1.769689,0 3.244431,-1.432606 3.244431,-3.244431 v -8.637771 c 0,-1.474741 -1.011252,-2.738805 -2.401722,-3.118024 v -1.39047 c 0,-3.750057 -3.075889,-6.825946 -6.825946,-6.825946 z m -2.022502,8.132145 v -1.685419 c 0,-1.137657 0.92698,-2.064637 2.064638,-2.064637 1.137657,0 2.064638,0.92698 2.064638,2.064637 v 1.685419 z"
     id="path466" />
</svg>
