<?xml version="1.0" encoding="UTF-8" standalone="no"?>
<!-- Generator: Adobe Illustrator 19.0.0, SVG Export Plug-In . SVG Version: 6.00 Build 0)  -->

<svg
   version="1.1"
   id="Layer_1"
   x="0px"
   y="0px"
   viewBox="0 0 48 48"
   xml:space="preserve"
   sodipodi:docname="kid3.svg"
   width="48"
   height="48"
   inkscape:version="1.4 (unknown)"
   xmlns:inkscape="http://www.inkscape.org/namespaces/inkscape"
   xmlns:sodipodi="http://sodipodi.sourceforge.net/DTD/sodipodi-0.dtd"
   xmlns:xlink="http://www.w3.org/1999/xlink"
   xmlns="http://www.w3.org/2000/svg"
   xmlns:svg="http://www.w3.org/2000/svg"><defs
   id="defs250"><linearGradient
   id="linearGradient1"
   inkscape:collect="always"><stop
     style="stop-color:#aa87de;stop-opacity:1;"
     offset="0"
     id="stop1" /><stop
     style="stop-color:#3485fd;stop-opacity:1"
     offset="1"
     id="stop3" /></linearGradient>
	
		

	
	
	
	
	
	

		
		
		
	
		
	
		
			
	
		
	<filter
   id="filter1233-7-3"
   x="-0.090926088"
   y="-0.087357096"
   width="1.1818522"
   height="1.1747142"
   color-interpolation-filters="sRGB"><feGaussianBlur
     stdDeviation="1.2350037"
     id="feGaussianBlur385-5-6" /></filter><filter
   id="filter402"
   x="-0.21788193"
   y="-0.087357096"
   width="1.435764"
   height="1.1747142"
   color-interpolation-filters="sRGB"><feGaussianBlur
     stdDeviation="1.2350037"
     id="feGaussianBlur400" /></filter><filter
   id="filter406"
   x="-0.21788193"
   y="-0.087357096"
   width="1.435764"
   height="1.1747142"
   color-interpolation-filters="sRGB"><feGaussianBlur
     stdDeviation="1.2350037"
     id="feGaussianBlur404" /></filter><linearGradient
   gradientTransform="translate(-0.13681623,0.08656289)"
   xlink:href="#linearGradient4300-1"
   id="linearGradient4205-3"
   x1="408.70801"
   y1="543.711"
   x2="408.70801"
   y2="503.711"
   gradientUnits="userSpaceOnUse" /><linearGradient
   id="linearGradient4300-1"><stop
     offset="0"
     style="stop-color:#65257e;stop-opacity:1"
     id="stop13" /><stop
     offset="1"
     style="stop-color:#ae79c4;stop-opacity:1"
     id="stop15" /></linearGradient><linearGradient
   xlink:href="#linearGradient4178"
   id="linearGradient4184-6"
   x1="30.207001"
   y1="43"
   x2="14"
   y2="10"
   gradientUnits="userSpaceOnUse" /><linearGradient
   id="linearGradient4178"><stop
     style="stop-color:#cebee5;stop-opacity:1"
     offset="0"
     id="stop2" /><stop
     style="stop-color:#f1f1f1;stop-opacity:1"
     offset="1"
     id="stop4" /></linearGradient><linearGradient
   inkscape:collect="always"
   xlink:href="#linearGradient1"
   id="linearGradient3"
   x1="24"
   y1="45"
   x2="24"
   y2="3"
   gradientUnits="userSpaceOnUse" /></defs><sodipodi:namedview
   id="namedview248"
   pagecolor="#ffffff"
   bordercolor="#000000"
   borderopacity="1"
   inkscape:showpageshadow="2"
   inkscape:pageopacity="0.0"
   inkscape:pagecheckerboard="0"
   inkscape:deskcolor="#d1d1d1"
   showgrid="false"
   inkscape:zoom="14.037331"
   inkscape:cx="21.05101"
   inkscape:cy="23.473123"
   inkscape:window-width="1920"
   inkscape:window-height="996"
   inkscape:window-x="0"
   inkscape:window-y="0"
   inkscape:window-maximized="1"
   inkscape:current-layer="Layer_1" />
<style
   type="text/css"
   id="style230">
	.st0{fill:#B19DCB;}
	.st1{opacity:0.4;fill:#666699;}
	.st2{fill:#583494;}
	.st3{opacity:0.4;fill:#3D296D;}
</style>


<g
   id="g1"><ellipse
     cx="24"
     cy="24"
     opacity="0.99"
     id="circle2-3"
     style="fill:url(#linearGradient3);fill-opacity:1;stroke-width:1.58695"
     rx="20.999996"
     ry="21" /><path
     d="m 34.325989,9.8146454 -15.1928,3.1614276 c -2.658873,0.319619 -2.87368,2.763422 -2.873425,2.760186 V 26.44397 c -0.490371,-0.129807 -0.99501,-0.196586 -1.501902,-0.199588 -3.317926,0 -6.0076066,2.68746 -6.0076066,6.002646 0,3.315186 2.6896806,6.002645 6.0076066,6.002645 3.025356,-0.0029 5.576636,-2.253168 5.954815,-5.252314 0,0 0.0528,-0.545731 0.0528,-0.750331 V 17.187891 L 32.78069,14.593228 v 8.849162 c -0.490371,-0.129807 -0.99501,-0.196587 -1.501902,-0.199588 -3.317926,0 -6.007606,2.68746 -6.007606,6.002646 0,3.315186 -0.314386,4.501984 3.00354,4.501984 3.025356,-0.0029 5.576636,-2.253168 5.954815,-5.252315 l 0.05257,-0.750331 3.004066,-1.753597 V 12.210908 c 0,0 0.0205,-2.928088 -2.960181,-2.3962626 z"
     id="path1"
     style="opacity:0.2;stroke-width:0.750641" /><path
     style="fill:#f8f2fd;fill-opacity:1;stroke-width:0.750641"
     d="M 34.325989,9.0645724 19.133189,12.226 c -2.658873,0.319619 -2.87368,2.763422 -2.873425,2.760186 v 10.707711 c -0.490371,-0.129807 -0.99501,-0.196586 -1.501902,-0.199588 -3.317926,0 -6.0076066,2.68746 -6.0076066,6.002646 0,3.315186 2.6896806,6.002645 6.0076066,6.002645 3.025356,-0.0029 5.576636,-2.253168 5.954815,-5.252314 0,0 0.0528,-0.545731 0.0528,-0.750331 V 16.437818 L 32.78069,13.843155 v 8.849162 c -0.490371,-0.129807 -0.99501,-0.196587 -1.501902,-0.199588 -3.317926,0 -6.007606,2.68746 -6.007606,6.002646 0,3.315186 -0.314386,4.501984 3.00354,4.501984 3.025356,-0.0029 5.576636,-2.253168 5.954815,-5.252315 l 0.05257,-0.750331 3.004066,-0.71449 V 11.460835 c 0,0 0.0205,-2.928088 -2.960181,-2.3962626 z"
     id="path2" /><path
     style="opacity:0.2;fill:#ffffff;stroke-width:1.50128"
     d="m 35.30902,9.0160863 c -0.2847,-0.029167 -0.610104,-0.016651 -0.98269,0.049826 L 19.134242,12.225509 c -2.658873,0.319619 -2.874989,2.764218 -2.874733,2.760982 v 0.750331 c -2.56e-4,0.0032 0.21586,-2.441363 2.874733,-2.760983 L 34.32633,9.8133127 c 2.980682,-0.5318254 2.959802,2.3975413 2.959802,2.3975413 v -0.750331 c 0,0 0.01579,-2.2402639 -1.977112,-2.4444367 z M 31.278526,22.492729 c -3.317927,0 -6.007607,2.68746 -6.007607,6.002646 0,0.128426 0.03017,0.248737 0.03813,0.375165 0.197353,-3.13703 2.780085,-5.62748 5.969474,-5.62748 0.506891,0.003 1.01153,0.0695 1.501901,0.199306 v -0.750331 c -0.490371,-0.129806 -0.99501,-0.196304 -1.501901,-0.199306 z m -16.520919,3.001323 c -3.317926,0 -6.0076069,2.687459 -6.0076069,6.002646 0,0.128426 0.030181,0.248737 0.038135,0.375165 0.1973506,-3.137031 2.7800839,-5.62748 5.9694719,-5.62748 0.506892,0.003 1.011531,0.06949 1.501902,0.199306 v -0.750331 c -0.490371,-0.129806 -0.99501,-0.196305 -1.501902,-0.199306 z"
     id="path3" /><path
     style="fill:#f6d656;fill-opacity:1;stroke-width:1.5013"
     d="M 43.98373,26.418943 C 42.10635,23.170016 34.47669,24.13959 32.800562,25.072697 l -13.657093,7.877727 c -0.720553,0.415669 -0.965667,1.3299 -0.549713,2.049901 l 5.256362,9.096559 c 0.416007,0.71996 1.330999,0.964953 2.051445,0.54926 l 13.656946,-7.878178 c 1.061575,-0.63541 6.301978,-7.100826 4.424601,-10.349608 z m -2.601291,1.500585 a 1.5018267,1.5005864 0 0 1 -0.549725,2.049753 1.5018267,1.5005864 0 0 1 -2.051593,-0.54926 1.5018267,1.5005864 0 0 1 0.549717,-2.049902 1.5018267,1.5005864 0 0 1 2.051601,0.549261 z"
     id="path4-2" /><path
     style="fill:#473a06;fill-opacity:1;stroke-width:1.5013"
     d="m 41.380937,27.919606 a 1.5018267,1.5005864 0 0 0 -2.051605,-0.549393 1.5018267,1.5005864 0 0 0 -0.549696,2.05065 1.5018267,1.5005864 0 0 0 2.051596,0.549246 1.5018267,1.5005864 0 0 0 0.549705,-2.050503 z m -0.650326,0.375017 c 0.211798,0.366552 0.092,0.813311 -0.274872,1.024898 -0.366847,0.211629 -0.813979,0.09195 -1.025754,-0.274614 -0.211789,-0.36655 -0.09201,-0.813314 0.274853,-1.02491 0.366853,-0.211627 0.813982,-0.09194 1.02576,0.274638 z"
     id="path6" /><path
     style="fill:#473a06;fill-opacity:1;stroke-width:1.5013"
     d="m 20.645374,35.549563 0.750951,1.299579 1.300644,-0.750331 3.003656,5.198288 1.300643,-0.750332 -3.003652,-5.198289 1.300646,-0.750329 -0.750952,-1.299572 -1.300646,0.750329 -1.300646,0.750334 z m 5.202433,-3.001169 0.750923,1.299516 0.750921,1.299587 0.75092,1.299584 1.501832,2.599149 1.30066,-0.7503 -1.501826,-2.599149 1.30066,-0.750301 1.501826,2.599148 1.30066,-0.7503 -3.754603,-6.497714 -2.601289,1.500583 -1.300661,0.7503 z m 5.202443,-3.001174 0.75092,1.299516 3.003657,5.198134 1.300585,-0.7503 2.601293,-1.500584 -0.750921,-1.299588 -0.375461,-0.649785 0.650307,-0.37515 -0.750921,-1.299508 -2.60129,1.500584 0.750923,1.299511 0.650305,-0.375151 0.37546,0.649769 -1.300662,0.7503 -2.252708,-3.898717 2.601297,-1.500586 -0.750921,-1.29951 -3.901942,2.250841 z m -3.150988,3.550417 1.300657,-0.750301 0.75092,1.29959 -1.300657,0.750301 z"
     id="path7" /><path
     style="opacity:0.2;fill:#ffffff;stroke-width:0.750607"
     d="m 38.315805,24.178026 c -2.351497,-0.04708 -4.677609,0.42733 -5.516004,0.893946 l -13.657618,7.878222 c -0.595234,0.343378 -0.859341,1.027088 -0.701036,1.660337 0.09958,-0.369979 0.341204,-0.702445 0.701042,-0.91004 l 13.657617,-7.878222 c 1.677542,-0.933382 9.3061,-1.902074 11.183417,1.346697 0.22036,0.381352 0.338835,0.807842 0.381333,1.263197 0.05706,-0.739793 -0.04356,-1.430065 -0.381481,-2.013794 -0.938659,-1.62446 -3.315616,-2.193542 -5.667113,-2.240568 z"
     id="path8" /></g></svg>
