<?xml version="1.0" encoding="UTF-8" standalone="no"?>
<svg
   xmlns:dc="http://purl.org/dc/elements/1.1/"
   xmlns:cc="http://creativecommons.org/ns#"
   xmlns:rdf="http://www.w3.org/1999/02/22-rdf-syntax-ns#"
   xmlns:svg="http://www.w3.org/2000/svg"
   xmlns="http://www.w3.org/2000/svg"
   xmlns:xlink="http://www.w3.org/1999/xlink"
   xmlns:sodipodi="http://sodipodi.sourceforge.net/DTD/sodipodi-0.dtd"
   xmlns:inkscape="http://www.inkscape.org/namespaces/inkscape"
   width="48"
   height="48"
   version="1.1"
   id="svg56"
   sodipodi:docname="kipi-expoblending.svg"
   inkscape:version="1.0.2 (e86c870879, 2021-01-15)">
  <metadata
     id="metadata60">
    <rdf:RDF>
      <cc:Work
         rdf:about="">
        <dc:format>image/svg+xml</dc:format>
        <dc:type
           rdf:resource="http://purl.org/dc/dcmitype/StillImage" />
      </cc:Work>
    </rdf:RDF>
  </metadata>
  <sodipodi:namedview
     pagecolor="#ffffff"
     bordercolor="#666666"
     borderopacity="1"
     objecttolerance="10"
     gridtolerance="10"
     guidetolerance="10"
     inkscape:pageopacity="0"
     inkscape:pageshadow="2"
     inkscape:window-width="1920"
     inkscape:window-height="1005"
     id="namedview58"
     showgrid="true"
     inkscape:zoom="6.5416667"
     inkscape:cx="35.368473"
     inkscape:cy="44.083847"
     inkscape:window-x="0"
     inkscape:window-y="0"
     inkscape:window-maximized="1"
     inkscape:current-layer="svg56">
    <inkscape:grid
       type="xygrid"
       id="grid885" />
  </sodipodi:namedview>
  <defs
     id="defs18">
    <linearGradient
       id="a"
       y1="532.8"
       x1="409.57"
       y2="543.8"
       x2="420.57"
       gradientUnits="userSpaceOnUse"
       gradientTransform="translate(-2-2.999)">
      <stop
         stop-opacity=".314"
         id="stop2" />
      <stop
         offset="1"
         stop-opacity="0"
         id="stop4" />
    </linearGradient>
    <linearGradient
       id="c"
       y1="531.8"
       y2="507.82"
       x2="0"
       gradientUnits="userSpaceOnUse"
       gradientTransform="matrix(1 0 0 1.33561-.003-168.45)">
      <stop
         stop-color="#2a2c2f"
         id="stop7" />
      <stop
         offset="1"
         stop-color="#424649"
         id="stop9" />
    </linearGradient>
    <linearGradient
       id="d"
       y1="577.8"
       y2="541.8"
       gradientUnits="userSpaceOnUse"
       x2="0"
       gradientTransform="matrix(1.50001 0 0 1-588.86-533.81)">
      <stop
         stop-color="#c6cdd1"
         id="stop12" />
      <stop
         offset="1"
         stop-color="#e0e5e7"
         id="stop14" />
    </linearGradient>
    <path
       fill="#feb70d"
       stroke-linejoin="bevel"
       id="e"
       d="m410.57 528.8l-1.996-10h12z" />
  </defs>
  <g
     transform="translate(-384.57,-499.8)"
     id="g54">
    <g
       stroke-linejoin="round"
       stroke-width="2"
       id="g24">
      <path
         fill="url(#c)"
         d="m 387.57,508.8 h 41.999 v 34 H 387.57 Z"
         id="path20" />
      <path
         fill="url(#d)"
         d="m 2,11 v 30 c 0,2 1,3 3.0773957,3 H 42.900338 C 45,44 46,43 46,41 V 11 C 46,9 45,8 42.75655,8 H 4.954736 C 3,8 2,9 2,11 Z M 4,10 H 44 V 42 H 4 Z"
         transform="translate(384.57,499.8)"
         id="path22"
         sodipodi:nodetypes="cccccccccccccc" />
    </g>
    <g
       transform="translate(0,-3)"
       id="g52">
      <g
         transform="translate(20)"
         id="g34">
        <g
           transform="translate(-34,9.999)"
           id="g30">
          <path
             fill="#6af804"
             fill-rule="evenodd"
             d="m 410.57,528.8 4.14,-5.64 5.86,-4.36 2,10 z"
             id="path26" />
          <use
             xlink:href="#e"
             id="use28"
             x="0"
             y="0"
             width="100%"
             height="100%" />
        </g>
        <path
           fill="#ffffff"
           stroke-linejoin="bevel"
           fill-opacity="0.353"
           d="m 376.58,538.8 -2,-10 h 12 l 1.994,10 z"
           id="path32" />
      </g>
      <g
         transform="translate(-7,4.999)"
         id="g40">
        <path
           fill="#6af804"
           fill-rule="evenodd"
           d="m 410.57,528.8 3.751,-6.06 6.249,-3.936 2,10 z"
           id="path36" />
        <use
           xlink:href="#e"
           id="use38"
           x="0"
           y="0"
           width="100%"
           height="100%" />
      </g>
      <g
         fill-rule="evenodd"
         id="g46">
        <path
           fill="url(#a)"
           d="m 415.56,533.8 h -11.982 l 4.984,5 h -11.99 v -0.002 l -0.004,0.002 8,8 h 26 v -18 l -9.992,-9.992 1.992,9.992 H 410.57 Z"
           id="path42" />
        <path
           fill="#6af804"
           d="m 410.57,528.8 4.627,-5.577 5.373,-4.423 2,10 z"
           id="path44" />
      </g>
      <use
         xlink:href="#e"
         id="use48"
         x="0"
         y="0"
         width="100%"
         height="100%" />
      <path
         stroke-linejoin="bevel"
         fill-opacity="0.353"
         d="m 410.57,528.8 -1.996,-10 h 12 l 1.994,10 z"
         id="path50" />
    </g>
  </g>
</svg>
