<?xml version="1.0" encoding="UTF-8" standalone="no"?>
<svg
   width="48"
   height="48"
   version="1.1"
   id="svg8"
   sodipodi:docname="kpatience.svg"
   inkscape:version="1.3.2 (091e20ef0f, 2023-11-25)"
   xmlns:inkscape="http://www.inkscape.org/namespaces/inkscape"
   xmlns:sodipodi="http://sodipodi.sourceforge.net/DTD/sodipodi-0.dtd"
   xmlns="http://www.w3.org/2000/svg"
   xmlns:svg="http://www.w3.org/2000/svg">
  <defs
     id="defs8" />
  <sodipodi:namedview
     id="namedview8"
     pagecolor="#ffffff"
     bordercolor="#000000"
     borderopacity="0.25"
     inkscape:showpageshadow="2"
     inkscape:pageopacity="0.0"
     inkscape:pagecheckerboard="0"
     inkscape:deskcolor="#d1d1d1"
     showgrid="true"
     inkscape:zoom="11.984375"
     inkscape:cx="32"
     inkscape:cy="25.28292"
     inkscape:window-width="1920"
     inkscape:window-height="994"
     inkscape:window-x="0"
     inkscape:window-y="0"
     inkscape:window-maximized="1"
     inkscape:current-layer="svg8">
    <inkscape:grid
       id="grid8"
       units="px"
       originx="0"
       originy="0"
       spacingx="1"
       spacingy="1"
       empcolor="#0099e5"
       empopacity="0.30196078"
       color="#0099e5"
       opacity="0.14901961"
       empspacing="5"
       dotted="false"
       gridanglex="30"
       gridanglez="30"
       visible="true" />
  </sodipodi:namedview>
  <circle
     style="opacity:0.2;stroke-width:0.736842"
     cx="23.981579"
     cy="24.368422"
     r="20.631578"
     id="circle1" />
  <circle
     style="fill:#e4e4e4;stroke-width:0.736842"
     cx="23.981579"
     cy="23.631578"
     r="20.631578"
     id="circle2" />
  <path
     style="opacity:0.2;fill:#ffffff;stroke-width:0.736842"
     d="M 23.981579,3 A 20.631579,20.631579 0 0 0 3.35,23.631579 20.631579,20.631579 0 0 0 3.3658306,24.063323 20.631579,20.631579 0 0 1 23.981579,3.7368421 20.631579,20.631579 0 0 1 44.597328,23.936677 20.631579,20.631579 0 0 0 44.613158,23.631579 20.631579,20.631579 0 0 0 23.981579,3 Z"
     id="path8" />
  <path
     d="m 20.637416,17.813178 c -2.162909,0 -3.928725,1.624731 -3.928725,3.636368 0,1.046965 0.473493,2.002177 1.233775,2.666616 l 5.941814,5.333816 6.136731,-5.333816 c 0.760725,-0.663275 1.233455,-1.618909 1.233455,-2.666184 0,-2.011632 -1.765823,-3.636363 -3.92873,-3.636363 -1.424,0 -2.658909,0.699638 -3.344,1.757094 -0.685093,-1.057456 -1.92,-1.757094 -3.344,-1.757094 z"
     id="path2"
     style="fill:#c83771" />
  <path
     d="m 12.461998,14.904087 c -0.865307,0 -1.571491,0.609459 -1.571491,1.364366 0,0.39127 0.189384,0.750548 0.493525,0.99927 l 2.376584,2 2.454982,-2 c 0.304,-0.248722 0.493093,-0.608 0.493093,-0.99927 0,-0.754907 -0.706909,-1.364366 -1.571493,-1.364366 -0.569891,0 -1.063566,0.261822 -1.3376,0.658914 -0.274038,-0.397092 -0.767707,-0.658914 -1.3376,-0.658914 z"
     id="path3"
     style="fill:#c83771" />
  <path
     d="m 14.890507,12.722272 h -2.181816 l -0.363637,0.727272 H 10.890507 L 13.04556,7.6313624 h 1.481308 l 2.244148,5.8181816 h -1.51687 z m -1.747639,-1.454473 h 1.375499 L 13.799598,9.0859077 13.143016,11.267653 Z"
     id="path4"
     style="fill:#c83771" />
  <path
     d="m 35.501416,32.358637 c 0.864,0 1.570907,-0.609459 1.570907,-1.364366 0,-0.39127 -0.189091,-0.750548 -0.493091,-0.99927 l -2.376725,-2 -2.455275,2 c -0.304,0.248722 -0.493086,0.608 -0.493086,0.99927 0,0.754907 0.706908,1.364366 1.570908,1.364366 0.570178,0 1.064728,-0.261822 1.338178,-0.658914 0.273459,0.397092 0.768,0.658914 1.338184,0.658914 z"
     id="path5"
     style="fill:#c83771" />
  <path
     d="m 35.254146,34.540453 h -2.181823 l -0.363632,-0.727275 h -1.454545 l 2.155052,5.818184 h 1.481309 l 2.24414,-5.818184 h -1.516865 z m -1.747639,1.454471 h 1.375491 l -0.718766,2.181891 -0.656578,-2.181744 z"
     id="path6"
     style="fill:#c83771" />
</svg>
