<?xml version="1.0" encoding="UTF-8" standalone="no"?>
<svg
   xmlns:dc="http://purl.org/dc/elements/1.1/"
   xmlns:cc="http://creativecommons.org/ns#"
   xmlns:rdf="http://www.w3.org/1999/02/22-rdf-syntax-ns#"
   xmlns:svg="http://www.w3.org/2000/svg"
   xmlns="http://www.w3.org/2000/svg"
   xmlns:xlink="http://www.w3.org/1999/xlink"
   xmlns:sodipodi="http://sodipodi.sourceforge.net/DTD/sodipodi-0.dtd"
   xmlns:inkscape="http://www.inkscape.org/namespaces/inkscape"
   width="48"
   height="48"
   version="1.1"
   id="svg79"
   sodipodi:docname="hwinfo.svg"
   inkscape:version="0.92.5 (2060ec1f9f, 2020-04-08)">
  <metadata
     id="metadata83">
    <rdf:RDF>
      <cc:Work
         rdf:about="">
        <dc:format>image/svg+xml</dc:format>
        <dc:type
           rdf:resource="http://purl.org/dc/dcmitype/StillImage" />
        <dc:title></dc:title>
      </cc:Work>
    </rdf:RDF>
  </metadata>
  <sodipodi:namedview
     pagecolor="#ffffff"
     bordercolor="#666666"
     borderopacity="1"
     objecttolerance="10"
     gridtolerance="10"
     guidetolerance="10"
     inkscape:pageopacity="0"
     inkscape:pageshadow="2"
     inkscape:window-width="1085"
     inkscape:window-height="480"
     id="namedview81"
     showgrid="false"
     inkscape:zoom="4.9166667"
     inkscape:cx="2.1355932"
     inkscape:cy="24"
     inkscape:window-x="0"
     inkscape:window-y="25"
     inkscape:window-maximized="0"
     inkscape:current-layer="svg79" />
  <defs
     id="defs57">
    <linearGradient
       x2="-22.15"
       x1="-50"
       gradientUnits="userSpaceOnUse"
       id="j">
      <stop
         stop-color="#c5edf8"
         offset="0"
         id="stop2" />
      <stop
         stop-color="#f4fcff"
         offset="1"
         id="stop4" />
    </linearGradient>
    <linearGradient
       id="c"
       y1="44"
       y2="4"
       gradientUnits="userSpaceOnUse"
       x2="0"
       gradientTransform="translate(0 1004.36)">
      <stop
         stop-color="#63984b"
         id="stop7" />
      <stop
         offset="1"
         stop-color="#8fc278"
         id="stop9" />
    </linearGradient>
    <linearGradient
       id="b"
       y1="11"
       x1="17"
       y2="41"
       gradientUnits="userSpaceOnUse"
       x2="44"
       gradientTransform="translate(0 1004.36)">
      <stop
         id="stop12" />
      <stop
         offset="1"
         stop-opacity="0"
         id="stop14" />
    </linearGradient>
    <linearGradient
       id="a"
       y1="1040.95"
       y2="1012.95"
       gradientUnits="userSpaceOnUse"
       x2="0"
       gradientTransform="translate(-42)"
       x1="0"
       spreadMethod="pad">
      <stop
         stop-color="#999a9c"
         id="stop17" />
      <stop
         offset="1"
         stop-color="#dcdfdf"
         id="stop19" />
    </linearGradient>
    <linearGradient
       xlink:href="#c"
       id="k"
       gradientUnits="userSpaceOnUse"
       y1="44"
       x2="0"
       y2="4" />
    <linearGradient
       xlink:href="#b"
       id="l"
       gradientUnits="userSpaceOnUse"
       x1="17"
       y1="11"
       x2="44"
       y2="41" />
    <linearGradient
       id="d"
       gradientUnits="userSpaceOnUse"
       x1="378.571"
       x2="378.571"
       y1="553.798"
       y2="525.798"
       gradientTransform="translate(-336.571 -523.798)">
      <stop
         offset="0"
         stop-color="#63984b"
         id="stop24" />
      <stop
         offset="1"
         stop-color="#8fc278"
         id="stop26" />
    </linearGradient>
    <linearGradient
       id="e"
       gradientUnits="userSpaceOnUse"
       x1="389.571"
       x2="399.571"
       y1="536.798"
       y2="546.798">
      <stop
         offset="0"
         stop-color="#292c2f"
         id="stop29" />
      <stop
         offset="1"
         stop-opacity="0"
         id="stop31" />
    </linearGradient>
    <linearGradient
       id="f"
       gradientUnits="userSpaceOnUse"
       x1="394.571"
       x2="394.571"
       y1="549.798"
       y2="529.798"
       gradientTransform="translate(-576.816 257.22) scale(1.42857)">
      <stop
         offset="0"
         stop-color="#999a9c"
         id="stop34" />
      <stop
         offset="1"
         stop-color="#dcdfdf"
         id="stop36" />
    </linearGradient>
    <linearGradient
       xlink:href="#g"
       id="m"
       x1="15"
       y1="1043.36"
       x2="15"
       y2="1012.36"
       gradientUnits="userSpaceOnUse"
       gradientTransform="translate(0,-1004.36)" />
    <linearGradient
       id="g"
       gradientUnits="userSpaceOnUse"
       x1="402.571"
       x2="402.571"
       y1="549.798"
       y2="529.798"
       gradientTransform="translate(-596.816 217.22) scale(1.42857)">
      <stop
         offset="0"
         stop-color="#195df1"
         id="stop40" />
      <stop
         offset="1"
         stop-color="#20bcfa"
         id="stop42" />
    </linearGradient>
    <linearGradient
       id="h"
       gradientUnits="userSpaceOnUse"
       x1="-50"
       x2="-22.15">
      <stop
         offset="0"
         stop-color="#7cbaf8"
         id="stop45" />
      <stop
         offset="1"
         stop-color="#f4fcff"
         id="stop47" />
    </linearGradient>
    <linearGradient
       id="n"
       gradientUnits="userSpaceOnUse"
       x1="391.571"
       x2="397.571"
       xlink:href="#i"
       y1="537.798"
       y2="543.798"
       gradientTransform="matrix(1.42857,0,0,1.42857,-536.816,-749.14)" />
    <linearGradient
       id="i"
       gradientUnits="userSpaceOnUse"
       x1="802.643"
       x2="816.643"
       y1="36.236"
       y2="50.236">
      <stop
         offset="0"
         stop-color="#292c2f"
         id="stop51" />
      <stop
         offset="1"
         stop-opacity="0"
         id="stop53" />
    </linearGradient>
    <linearGradient
       xlink:href="#j"
       id="o"
       x1="55"
       y1="36"
       x2="55"
       y2="18"
       gradientUnits="userSpaceOnUse"
       gradientTransform="translate(-40)" />
  </defs>
  <path
     d="M 10,4 A 5.983,5.983 0 0 0 4.47,7.66 6.01,6.01 0 0 0 4,10 v 3 l 3,2 -3,2 V 38 A 5.983,5.983 0 0 0 7.66,43.53 6.01,6.01 0 0 0 10,44 H 38 A 5.983,5.983 0 0 0 43.53,40.34 6.01,6.01 0 0 0 44,38 V 10 A 5.983,5.983 0 0 0 40.34,4.47 6.01,6.01 0 0 0 38,4 Z"
     id="path59"
     inkscape:connector-curvature="0"
     style="fill:#dce269;fill-rule:evenodd" />
  <path
     d="M 10,4 A 5.983,5.983 0 0 0 4.47,7.66 6.01,6.01 0 0 0 4,10 v 2 l 3,2 -3,2 v 22 a 5.983,5.983 0 0 0 1.754,4.246 C 6.072,42.565 6.489,42.76 6.873,43 h 34.254 c 0.384,-0.24 0.8,-0.435 1.12,-0.754 A 5.983,5.983 0 0 0 44,38 V 10 A 5.983,5.983 0 0 0 40.34,4.47 6.01,6.01 0 0 0 38,4 Z"
     id="path61"
     style="fill:url(#k);fill-rule:evenodd"
     inkscape:connector-curvature="0" />
  <g
     id="g65"
     style="color:#000000;fill:#dee372">
    <path
       d="m 9,40 v 1 h 1 v -1 z m 1,1 v 1 h 1 v -1 z m 1,0 h 1 v -1 h -1 z m 1,0 v 1 h 1 v -1 z m 1,0 h 1 v -1 h -1 z m 1,0 v 1 h 1 v -1 z m 1,0 h 1 v -1 h -1 z m 1,0 v 1 h 1 v -1 z m 1,0 h 1 v -1 h -1 z m 1,0 v 1 h 1 v -1 z m 1,0 h 1 v -1 h -1 z m 1,0 v 1 h 1 v -1 z m 1,0 h 1 v -1 h -1 z m 1,0 v 1 h 1 v -1 z m 1,0 h 1 v -1 h -1 z m 1,0 v 1 h 1 v -1 z m 11,-1 v 1 h 1 v -1 z m 1,1 v 1 h 1 v -1 z m 1,0 h 1 v -1 h -1 z m 1,0 v 1 h 1 v -1 z m 1,0 h 1 v -1 h -1 z m -4,0 h -1 v 1 h 1 z"
       id="path63"
       inkscape:connector-curvature="0"
       style="opacity:0.6" />
  </g>
  <path
     d="m 42,9 v 1 h 1 V 9 Z m 0,1 h -1 v 1 h 1 z m 0,1 v 1 h 1 v -1 z m 0,1 h -1 v 1 h 1 z m 0,1 v 1 h 1 v -1 z m 0,1 h -1 v 1 h 1 z m 0,1 v 1 h 1 v -1 z m 0,1 h -1 v 1 h 1 z m 0,1 v 1 h 1 v -1 z m 0,1 h -1 v 1 h 1 z m 0,1 v 1 h 1 v -1 z m 0,1 h -1 v 1 h 1 z m 0,1 v 1 h 1 v -1 z m 0,1 h -1 v 1 h 1 z m 0,1 v 1 h 1 v -1 z m 0,1 h -1 v 1 h 1 z"
     id="path67"
     inkscape:connector-curvature="0"
     style="color:#000000;opacity:0.6;fill:#dee372" />
  <path
     d="M 12.584,44 H 38 A 5.983,5.983 0 0 0 43.53,40.34 6.01,6.01 0 0 0 44,38 V 12 L 40,8 V 39 H 8 Z"
     id="path69"
     style="opacity:0.2;fill:url(#l);fill-rule:evenodd"
     inkscape:connector-curvature="0" />
  <path
     d="M 8,8 H 40 V 39 H 8 Z"
     id="path71"
     style="fill:url(#m);fill-rule:evenodd"
     inkscape:connector-curvature="0" />
  <path
     d="m 8,38 h 32 v 1 H 8 Z"
     id="path73"
     inkscape:connector-curvature="0"
     style="fill:#1c5593;fill-rule:evenodd" />
  <path
     d="M 25,15 38,28 38.286,34.857 29,35 23,29 v -8 l 2,-2 -2,-2 z"
     id="path75"
     style="opacity:0.2;fill:url(#n)"
     inkscape:connector-curvature="0" />
  <path
     d="M 24,11 A 11,11 0 0 0 13,22 11,11 0 0 0 24,33 11,11 0 0 0 35,22 11,11 0 0 0 24,11 Z m 0,1 A 10,10 0 0 1 34,22 10,10 0 0 1 24,32 10,10 0 0 1 14,22 10,10 0 0 1 24,12 Z m -1,3 v 2 h 2 v -2 z m 0,4 v 10.143 h 2 V 19 Z"
     id="path77"
     style="opacity:0.8;fill:url(#o);paint-order:stroke fill markers"
     inkscape:connector-curvature="0" />
</svg>
