<?xml version="1.0" encoding="UTF-8" standalone="no"?>
<svg
   xmlns:dc="http://purl.org/dc/elements/1.1/"
   xmlns:cc="http://creativecommons.org/ns#"
   xmlns:rdf="http://www.w3.org/1999/02/22-rdf-syntax-ns#"
   xmlns:svg="http://www.w3.org/2000/svg"
   xmlns="http://www.w3.org/2000/svg"
   xmlns:xlink="http://www.w3.org/1999/xlink"
   xmlns:sodipodi="http://sodipodi.sourceforge.net/DTD/sodipodi-0.dtd"
   xmlns:inkscape="http://www.inkscape.org/namespaces/inkscape"
   height="48"
   width="48"
   version="1.1"
   id="svg112"
   sodipodi:docname="yast-sw_source.svg"
   inkscape:version="0.92.5 (2060ec1f9f, 2020-04-08)">
  <metadata
     id="metadata116">
    <rdf:RDF>
      <cc:Work
         rdf:about="">
        <dc:format>image/svg+xml</dc:format>
        <dc:type
           rdf:resource="http://purl.org/dc/dcmitype/StillImage" />
        <dc:title></dc:title>
      </cc:Work>
    </rdf:RDF>
  </metadata>
  <sodipodi:namedview
     pagecolor="#ffffff"
     bordercolor="#666666"
     borderopacity="1"
     objecttolerance="10"
     gridtolerance="10"
     guidetolerance="10"
     inkscape:pageopacity="0"
     inkscape:pageshadow="2"
     inkscape:window-width="1085"
     inkscape:window-height="480"
     id="namedview114"
     showgrid="false"
     inkscape:zoom="4.9166667"
     inkscape:cx="2.1355932"
     inkscape:cy="24"
     inkscape:window-x="0"
     inkscape:window-y="25"
     inkscape:window-maximized="0"
     inkscape:current-layer="svg112" />
  <defs
     id="defs60">
    <linearGradient
       xlink:href="#a"
       id="o"
       gradientUnits="userSpaceOnUse"
       gradientTransform="translate(-384.57,-499.8)"
       y1="543.8"
       x2="0"
       y2="512.8" />
    <linearGradient
       id="a"
       y1="543.8"
       y2="512.8"
       x2="0"
       gradientUnits="userSpaceOnUse">
      <stop
         stop-color="#cea476"
         id="stop3" />
      <stop
         offset="1"
         stop-color="#dab58b"
         id="stop5" />
    </linearGradient>
    <linearGradient
       id="b"
       y1="512.8"
       y2="503.8"
       x2="0"
       gradientUnits="userSpaceOnUse">
      <stop
         stop-color="#ebc69a"
         id="stop8" />
      <stop
         offset="1"
         stop-color="#f4e0c8"
         stop-opacity="0"
         id="stop10" />
    </linearGradient>
    <linearGradient
       xlink:href="#c"
       id="q"
       gradientUnits="userSpaceOnUse"
       gradientTransform="matrix(0.50313,0,0,1,-171.625,-499.8)"
       x1="411.427"
       y1="543.8"
       x2="411.427"
       y2="512.8" />
    <linearGradient
       id="d"
       gradientUnits="userSpaceOnUse"
       x2="0"
       y1="30"
       y2="8">
      <stop
         offset="0"
         stop-color="#cea476"
         id="stop14" />
      <stop
         offset="1"
         stop-color="#dab58b"
         id="stop16" />
    </linearGradient>
    <linearGradient
       id="e"
       gradientUnits="userSpaceOnUse"
       x2="0"
       y1="30"
       y2="8">
      <stop
         offset="0"
         stop-color="#cfd2d5"
         id="stop19" />
      <stop
         offset="1"
         stop-color="#eff0f1"
         id="stop21" />
    </linearGradient>
    <linearGradient
       id="f"
       gradientTransform="matrix(.66667 0 0 -.37037 -256.38 197.926)"
       gradientUnits="userSpaceOnUse"
       x1="408.57"
       x2="408.57"
       y1="512.798"
       y2="504.698">
      <stop
         offset="0"
         stop-color="#ebc69a"
         id="stop24" />
      <stop
         offset="1"
         stop-color="#73ba25"
         stop-opacity="0"
         id="stop26" />
    </linearGradient>
    <linearGradient
       id="g"
       x1="18"
       x2="30"
       y1="18"
       y2="30"
       gradientUnits="userSpaceOnUse"
       gradientTransform="translate(40)">
      <stop
         stop-color="#292c2f"
         offset="0"
         id="stop29" />
      <stop
         stop-opacity="0"
         offset="1"
         id="stop31" />
    </linearGradient>
    <linearGradient
       id="h"
       x2="0"
       y1="30"
       y2="8"
       gradientUnits="userSpaceOnUse">
      <stop
         stop-color="#cfd2d5"
         offset="0"
         id="stop34" />
      <stop
         stop-color="#eff0f1"
         offset="1"
         id="stop36" />
    </linearGradient>
    <linearGradient
       id="i"
       gradientUnits="userSpaceOnUse"
       x2="0"
       y1="30"
       y2="8">
      <stop
         offset="0"
         stop-color="#cea476"
         id="stop39" />
      <stop
         offset="1"
         stop-color="#dab58b"
         id="stop41" />
    </linearGradient>
    <linearGradient
       id="j"
       gradientUnits="userSpaceOnUse"
       x2="0"
       y1="30"
       y2="8">
      <stop
         offset="0"
         stop-color="#cfd2d5"
         id="stop44" />
      <stop
         offset="1"
         stop-color="#eff0f1"
         id="stop46" />
    </linearGradient>
    <linearGradient
       id="u"
       gradientUnits="userSpaceOnUse"
       x1="18"
       x2="30"
       y1="18"
       y2="30"
       gradientTransform="matrix(1.42857,0,0,1.42857,1.143,1.143)">
      <stop
         offset="0"
         stop-color="#292c2f"
         id="stop49" />
      <stop
         offset="1"
         stop-opacity="0"
         id="stop51" />
    </linearGradient>
    <linearGradient
       id="k"
       gradientUnits="userSpaceOnUse"
       x2="0"
       y1="30"
       y2="8">
      <stop
         offset="0"
         stop-color="#cfd2d5"
         id="stop54" />
      <stop
         offset="1"
         stop-color="#eff0f1"
         id="stop56" />
    </linearGradient>
    <linearGradient
       xlink:href="#j"
       id="v"
       x1="425.748"
       y1="547.859"
       x2="425.748"
       y2="517.859"
       gradientUnits="userSpaceOnUse"
       gradientTransform="translate(-400.748,-504.86)" />
  </defs>
  <linearGradient
     id="l">
    <stop
       offset="0"
       stop-color="#cea476"
       id="stop62" />
    <stop
       offset="1"
       stop-color="#dab58b"
       id="stop64" />
  </linearGradient>
  <linearGradient
     id="r"
     gradientUnits="userSpaceOnUse"
     x1="21"
     x2="21"
     xlink:href="#l"
     y1="13"
     y2="4" />
  <linearGradient
     id="t"
     gradientTransform="matrix(1,0,0,-0.55556,-384.57,297.89)"
     gradientUnits="userSpaceOnUse"
     x1="408.57"
     x2="408.57"
     xlink:href="#m"
     y1="512.798"
     y2="505.598" />
  <linearGradient
     id="s"
     gradientTransform="translate(-384.57,-499.801)"
     gradientUnits="userSpaceOnUse"
     x1="411.57"
     x2="411.57"
     xlink:href="#m"
     y1="512.801"
     y2="503.801">
    <stop
       offset="0"
       stop-color="#ebc69a"
       id="stop69" />
    <stop
       offset="1"
       stop-color="#f4e0c8"
       stop-opacity="0"
       id="stop71" />
  </linearGradient>
  <linearGradient
     id="p"
     gradientTransform="matrix(1.41667,0,0,1.4091,1.167,1.727)"
     gradientUnits="userSpaceOnUse"
     x2="0"
     xlink:href="#n"
     y1="30"
     y2="8" />
  <linearGradient
     id="n"
     gradientUnits="userSpaceOnUse"
     x2="0"
     y1="30"
     y2="8">
    <stop
       offset="0"
       stop-color="#cfd2d5"
       id="stop75" />
    <stop
       offset="1"
       stop-color="#eff0f1"
       id="stop77" />
  </linearGradient>
  <linearGradient
     id="c"
     gradientTransform="matrix(.50313 0 0 1 -231.625 -499.8)"
     gradientUnits="userSpaceOnUse"
     x1="411.427"
     x2="411.427"
     y1="543.8"
     y2="512.8">
    <stop
       offset="0"
       stop-color="#73ba25"
       id="stop80" />
    <stop
       offset="1"
       stop-color="#81c13b"
       stop-opacity=".85"
       id="stop82" />
  </linearGradient>
  <linearGradient
     id="m"
     gradientTransform="matrix(.66667 0 0 -.37037 -256.38 197.926)"
     gradientUnits="userSpaceOnUse"
     x1="408.57"
     x2="408.57"
     y1="512.798"
     y2="504.698">
    <stop
       offset="0"
       stop-color="#ebc69a"
       id="stop85" />
    <stop
       offset="1"
       stop-color="#73ba25"
       stop-opacity="0"
       id="stop87" />
  </linearGradient>
  <path
     d="m 4,13 v 25.682 c 0,0.736 0.148,1.437 0.416,2.074 a 5.306,5.306 0 0 0 1.139,1.69 c 0.48,0.48 1.052,0.87 1.69,1.138 A 5.327,5.327 0 0 0 9.317,44 h 29.364 c 0.736,0 1.437,-0.148 2.074,-0.416 a 5.306,5.306 0 0 0 1.69,-1.139 c 0.48,-0.48 0.87,-1.052 1.138,-1.69 A 5.327,5.327 0 0 0 44,38.683 V 13 H 9.318 Z"
     id="path90"
     style="fill:url(#o)"
     inkscape:connector-curvature="0" />
  <path
     d="m 4,13 v 25.682 c 0,0.736 0.148,1.437 0.416,2.074 a 5.306,5.306 0 0 0 1.139,1.69 c 0.48,0.48 1.052,0.87 1.69,1.138 A 5.327,5.327 0 0 0 9.317,44 H 21 V 13 Z"
     id="path92"
     style="fill:url(#p)"
     inkscape:connector-curvature="0" />
  <path
     d="m 21,44 h 17.682 c 0.736,0 1.437,-0.148 2.074,-0.416 a 5.306,5.306 0 0 0 1.69,-1.139 c 0.48,-0.48 0.87,-1.052 1.138,-1.69 A 5.327,5.327 0 0 0 44,38.683 V 13 H 21 Z"
     id="path94"
     style="fill:url(#q)"
     inkscape:connector-curvature="0" />
  <path
     d="m 4,13 6,-9 h 29 l 5,9 z"
     id="path96"
     style="fill:url(#r);fill-rule:evenodd"
     inkscape:connector-curvature="0" />
  <path
     d="m 21,4 v 14 l 1,-1 1,1 1,-1 1,1 1,-1 1,1 V 4 Z"
     id="path98"
     inkscape:connector-curvature="0"
     style="fill:#f4e0c8" />
  <path
     d="m 21,4 h 6 v 9 h -6 z"
     id="path100"
     style="fill:url(#s)"
     inkscape:connector-curvature="0" />
  <path
     d="m 21,18 h 6 v -5 h -6 z"
     id="path102"
     style="fill:url(#t)"
     inkscape:connector-curvature="0" />
  <path
     d="M 21,41.229 H 4.734 c 0.24,0.43 0.475,0.87 0.82,1.216 0.481,0.48 1.053,0.87 1.69,1.139 A 5.327,5.327 0 0 0 9.318,44 H 21 Z"
     id="path104"
     inkscape:connector-curvature="0"
     style="fill:#999999" />
  <path
     d="M 21,41.229 V 44 h 17.682 c 0.736,0 1.437,-0.148 2.074,-0.416 a 5.306,5.306 0 0 0 1.69,-1.139 c 0.345,-0.346 0.58,-0.785 0.82,-1.216 z"
     id="path106"
     inkscape:connector-curvature="0"
     style="fill:#447821" />
  <path
     d="m 31.88,44 h 8.046 a 4.062,4.062 0 0 0 2.883,-1.191 4.06,4.06 0 0 0 0.272,-0.3 4.06,4.06 0 0 0 0.24,-0.329 4.06,4.06 0 0 0 0.208,-0.349 4.06,4.06 0 0 0 0.172,-0.367 4.06,4.06 0 0 0 0.135,-0.383 4.06,4.06 0 0 0 0.094,-0.392 4.06,4.06 0 0 0 0.057,-0.403 A 4.06,4.06 0 0 0 44,39.926 V 31.88 L 38.631,26.511 36.857,25.429 32.571,24 28.286,25.429 25.429,28.286 24,32.57 l 1.429,4.286 1.082,1.774 z"
     id="path108"
     style="opacity:0.2;fill:url(#u)"
     inkscape:connector-curvature="0" />
  <path
     d="m 31.97,23.93 c -0.319,0 -0.628,0.027 -0.938,0.064 a 8.18,8.18 0 0 0 -0.905,0.156 c -0.094,0.022 -0.185,0.067 -0.281,0.094 -0.084,0.023 -0.167,0.037 -0.25,0.063 -0.105,0.033 -0.214,0.059 -0.313,0.094 -0.107,0.038 -0.207,0.083 -0.313,0.125 -0.206,0.083 -0.397,0.182 -0.594,0.28 -0.071,0.036 -0.15,0.056 -0.22,0.094 -0.23,0.121 -0.44,0.263 -0.655,0.406 -0.082,0.055 -0.17,0.098 -0.25,0.156 -0.033,0.024 -0.061,0.038 -0.094,0.063 -0.094,0.071 -0.191,0.142 -0.281,0.219 -0.107,0.089 -0.21,0.187 -0.313,0.28 -0.032,0.03 -0.062,0.065 -0.094,0.095 l -0.031,0.03 c -0.016,0.017 -0.015,0.048 -0.031,0.064 -0.21,0.204 -0.439,0.399 -0.625,0.625 -0.005,0.01 0.005,0.025 0,0.03 -0.18,0.22 -0.343,0.448 -0.5,0.688 -0.02,0.032 -0.042,0.061 -0.063,0.094 -0.015,0.024 -0.047,0.037 -0.063,0.063 -0.06,0.098 -0.1,0.21 -0.156,0.313 -0.018,0.033 -0.045,0.061 -0.063,0.094 -0.075,0.146 -0.15,0.29 -0.219,0.438 -0.004,0.01 0.004,0.023 0,0.03 a 8.026,8.026 0 0 0 -0.313,0.781 c -0.019,0.053 -0.045,0.103 -0.063,0.156 -0.003,0.01 0.003,0.022 0,0.031 -0.02,0.062 -0.044,0.125 -0.063,0.188 -0.073,0.257 -0.14,0.514 -0.188,0.781 -0.034,0.192 -0.074,0.397 -0.094,0.594 a 8.104,8.104 0 0 0 -0.03,0.812 c 0,0.404 0.035,0.8 0.093,1.188 0.006,0.04 -0.007,0.085 0,0.125 0.044,0.266 0.118,0.525 0.188,0.78 0.026,0.096 0.064,0.186 0.094,0.281 0.04,0.13 0.08,0.25 0.125,0.375 0.077,0.212 0.156,0.422 0.25,0.625 0.05,0.106 0.102,0.21 0.156,0.313 a 8,8 0 0 0 0.5,0.843 c 0.016,0.024 0.046,0.04 0.063,0.063 0.198,0.281 0.394,0.56 0.625,0.813 0.04,0.044 0.084,0.082 0.125,0.125 0.04,0.042 0.084,0.084 0.125,0.125 0.214,0.214 0.45,0.405 0.688,0.594 0.306,0.243 0.629,0.458 0.969,0.655 0.012,0.01 0.019,0.024 0.03,0.031 0.054,0.03 0.104,0.065 0.157,0.094 0.316,0.156 0.692,0.325 0.938,0.438 0.11,0.042 0.23,0.057 0.344,0.094 0.053,0.018 0.103,0.046 0.156,0.063 0.136,0.04 0.268,0.09 0.406,0.125 l 0.125,0.03 c 0.291,0.07 0.601,0.122 0.905,0.157 0.31,0.036 0.618,0.063 0.938,0.063 0.34,0 0.671,-0.021 1,-0.063 0.365,-0.048 0.681,-0.124 1,-0.188 a 7.909,7.909 0 0 0 4.219,-2.749 c 0.028,-0.035 0.067,-0.058 0.094,-0.094 0.009,-0.012 0.022,-0.02 0.03,-0.03 0.015,-0.019 0.019,-0.045 0.032,-0.064 a 7.964,7.964 0 0 0 1.343,-2.812 c 0.056,-0.216 0.118,-0.431 0.156,-0.655 0.005,-0.03 -0.005,-0.063 0,-0.094 0.006,-0.04 0.025,-0.08 0.031,-0.125 0.006,-0.043 0.026,-0.082 0.031,-0.125 h -0.03 c 0.043,-0.33 0.093,-0.659 0.093,-1 0,-0.551 -0.05,-1.103 -0.156,-1.624 -0.009,-0.043 -0.022,-0.082 -0.03,-0.125 -0.047,-0.208 -0.125,-0.423 -0.189,-0.625 -0.003,-0.01 0.003,-0.022 0,-0.03 a 3.439,3.439 0 0 0 -0.03,-0.095 c -0.04,-0.119 -0.082,-0.258 -0.126,-0.374 -0.012,-0.032 -0.018,-0.064 -0.03,-0.094 -0.044,-0.11 -0.109,-0.206 -0.157,-0.313 -0.002,0 0.002,-0.026 0,-0.031 -0.025,-0.054 -0.068,-0.103 -0.094,-0.156 a 7.813,7.813 0 0 0 -0.313,-0.594 c -0.058,-0.098 -0.094,-0.217 -0.156,-0.313 -0.024,-0.036 -0.069,-0.058 -0.094,-0.094 -0.067,-0.099 -0.147,-0.185 -0.219,-0.28 -0.08,-0.1 -0.14,-0.217 -0.218,-0.314 -0.005,-0.01 0.005,-0.025 0,-0.03 -0.172,-0.21 -0.37,-0.403 -0.563,-0.594 -0.093,-0.092 -0.184,-0.194 -0.281,-0.281 -0.028,-0.025 -0.065,-0.038 -0.094,-0.063 a 8.131,8.131 0 0 0 -0.656,-0.5 c -0.055,-0.038 -0.101,-0.088 -0.156,-0.125 -0.07,-0.046 -0.148,-0.08 -0.22,-0.125 -0.134,-0.084 -0.265,-0.174 -0.405,-0.25 a 8.093,8.093 0 0 0 -0.375,-0.187 7.9,7.9 0 0 0 -0.656,-0.281 7.649,7.649 0 0 0 -0.813,-0.25 7.757,7.757 0 0 0 -1.969,-0.25 m 0,1 a 7.023,7.023 0 0 1 1.406,0.156 h 0.031 c 0.166,0.035 0.338,0.08 0.5,0.125 0.096,0.027 0.187,0.063 0.281,0.094 0.172,0.057 0.334,0.117 0.5,0.188 0.194,0.08 0.379,0.153 0.563,0.25 l -0.094,0.031 a 0.319,0.319 0 0 0 -0.125,0.125 c -0.02,0.048 0.005,0.115 0,0.188 0.038,0.017 0.06,0.089 0.125,0.125 0.025,0.014 0.04,-0.01 0.063,0 0.038,0.02 0.07,0.087 0.063,0.125 -0.011,0.055 -0.088,0.022 -0.125,0.063 0.006,0.078 -0.043,0.105 -0.063,0.156 0.012,0.033 0.057,0.024 0.063,0.063 -0.007,0.043 -0.08,0.049 -0.063,0.094 0.072,0.056 0.15,-0.022 0.219,-0.031 0.149,-0.02 0.283,0.04 0.375,-0.031 -0.012,-0.071 0.1,-0.092 0.094,-0.156 -0.006,-0.048 -0.09,-0.061 -0.125,-0.094 -0.02,-0.018 -0.04,-0.06 -0.063,-0.094 -0.026,-0.04 -0.064,-0.087 -0.094,-0.125 -0.04,-0.052 -0.125,-0.117 -0.125,-0.156 0,-0.045 0.052,-0.063 0.063,-0.125 -0.012,-0.057 -0.117,0 -0.125,-0.063 a 0.162,0.162 0 0 1 0.03,-0.063 c 0.15,0.082 0.299,0.179 0.439,0.28 l 0.094,0.064 c 0.108,0.08 0.207,0.17 0.313,0.25 -0.067,0.012 -0.101,0.09 -0.156,0.156 a 0.464,0.464 0 0 1 -0.156,0.125 c -0.028,0.012 -0.068,-0.016 -0.094,0 -0.037,0.025 -0.051,0.096 -0.094,0.125 -0.031,0.02 -0.124,0.094 -0.156,0.094 -0.038,0 -0.098,-0.04 -0.125,-0.031 -0.04,0.013 -0.017,0.077 -0.063,0.094 -0.088,0.03 -0.25,-0.07 -0.281,0.063 0.038,0.076 0.153,0.05 0.219,0.094 a 0.475,0.475 0 0 1 0.125,0.187 0.644,0.644 0 0 1 0,0.22 c -0.041,0.105 -0.16,0.096 -0.281,0.093 H 35.03 c -0.207,-0.014 -0.407,-0.085 -0.5,0.063 0.007,0.113 0.025,0.183 0,0.281 -0.018,0.072 -0.097,0.125 -0.094,0.188 0.002,0.032 0.055,0.082 0.063,0.125 0.005,0.023 -0.011,0.073 0,0.094 0.034,0.066 0.127,-0.01 0.188,0 0.059,0.01 0.126,0.12 0.125,0.188 a 0.346,0.346 0 0 1 -0.063,0.156 c -0.058,0.089 -0.167,0.077 -0.25,0.125 -0.07,0.039 -0.084,0.119 -0.125,0.188 -0.044,0.074 -0.081,0.11 -0.063,0.219 a 0.485,0.485 0 0 1 -0.25,0.25 c -0.037,0.016 -0.092,0.038 -0.125,0.062 a 0.63,0.63 0 0 0 -0.094,0.094 c -0.047,0.052 -0.1,0.085 -0.125,0.125 -0.019,0.031 -0.01,0.084 -0.031,0.125 -0.029,0.056 -0.088,0.1 -0.125,0.156 -0.017,0.026 -0.043,0.06 -0.063,0.094 -0.042,0.077 -0.101,0.151 -0.094,0.22 0.007,0.065 0.089,0.067 0.094,0.124 0.004,0.032 -0.033,0.059 -0.031,0.094 0.001,0.051 0.027,0.086 0.031,0.125 0.01,0.099 -0.044,0.12 -0.063,0.188 -0.009,0.032 0.008,0.068 0,0.094 -0.016,0.05 -0.093,0.098 -0.094,0.156 -10e-4,0.042 0.059,0.097 0.063,0.156 0.002,0.04 -0.038,0.057 -0.031,0.094 0.014,0.073 0.162,0.162 0.219,0.219 0.075,0.075 0.155,0.139 0.188,0.219 0.027,0.067 0.041,0.168 0.094,0.219 0.039,0.037 0.106,0.054 0.156,0.094 0.047,0.036 0.107,0.055 0.156,0.094 0.08,0.064 0.183,0.196 0.313,0.187 0.068,-0.01 0.142,-0.05 0.219,-0.063 0.079,-0.014 0.17,-0.039 0.25,-0.03 0.06,0.01 0.124,0.065 0.188,0.062 0.067,0 0.143,-0.06 0.219,-0.094 0.132,-0.057 0.339,-0.152 0.53,-0.124 0.147,0.02 0.15,0.216 0.25,0.28 0.119,0.01 0.22,-0.054 0.314,-0.03 0.07,0.016 0.149,0.131 0.156,0.187 0.007,0.058 -0.054,0.121 -0.063,0.156 -0.018,0.078 -0.017,0.17 -0.031,0.22 -0.011,0.037 -0.032,0.085 -0.031,0.124 a 0.54,0.54 0 0 0 0.094,0.188 c 0.044,0.056 0.103,0.096 0.156,0.156 a 1.8,1.8 0 0 1 0.219,0.375 c 0.017,0.037 -0.016,0.077 0,0.125 -0.03,0.224 -0.103,0.377 -0.25,0.624 -0.07,0.08 -0.158,0.15 -0.156,0.25 -0.005,0.24 0.136,0.393 0.125,0.625 -0.024,0.312 0.024,0.333 0,0.5 0.105,0.053 0.03,0.233 0,0.344 -0.045,0.132 -0.1,0.162 -0.125,0.25 0.07,0.03 0.17,0.019 0.25,0 0,0 0.096,0.4 0.094,0.405 a 7.003,7.003 0 0 1 -2.938,1.719 C 33.419,38.79 33.256,38.79 33,38.845 a 6.383,6.383 0 0 1 -1.03,0.094 c -0.244,0 -0.484,-0.01 -0.72,-0.03 -0.182,-0.019 -0.354,-0.063 -0.53,-0.095 a 7.17,7.17 0 0 1 -0.157,-0.03 c -0.163,-0.056 -0.35,-0.089 -0.5,-0.125 a 7.067,7.067 0 0 1 -0.5,-0.156 c 0.015,-0.013 0.028,-0.011 0.032,-0.031 0.009,-0.04 0.002,-0.062 0,-0.125 0.015,-0.065 0.08,-0.058 0.094,-0.125 -0.028,-0.048 -0.083,-0.038 -0.125,-0.063 a 0.133,0.133 0 0 1 -0.063,-0.125 c 0.07,-0.03 0.2,0.066 0.25,-0.031 0.025,-0.046 -0.034,-0.141 0,-0.188 0.023,-0.031 0.168,-0.055 0.218,-0.063 0.071,-0.012 0.148,-0.01 0.188,-0.031 a 0.223,0.223 0 0 0 0.094,-0.188 c -0.004,-0.04 -0.033,-0.06 -0.063,-0.094 -0.025,-0.03 -0.013,-0.066 -0.03,-0.094 -0.032,-0.047 -0.08,-0.058 -0.095,-0.125 0.096,-0.02 0.236,0.102 0.375,0.063 0.066,-0.02 0.157,-0.188 0.188,-0.25 0.01,-0.019 -0.01,-0.04 0,-0.063 0.012,-0.026 0.06,-0.049 0.063,-0.063 0.01,-0.036 -0.008,-0.071 0,-0.094 0.024,-0.068 0.085,-0.075 0.125,-0.125 0.03,-0.038 0.065,-0.087 0.094,-0.125 0.031,-0.04 0.042,-0.089 0.063,-0.125 0.02,-0.122 -0.06,-0.206 -0.03,-0.313 0.031,-0.12 0.195,-0.165 0.312,-0.219 0.04,-0.019 0.092,-0.05 0.125,-0.063 0.08,-0.028 0.176,-0.036 0.25,-0.063 0.125,-0.046 0.157,-0.166 0.22,-0.28 a 0.611,0.611 0 0 0 0.062,-0.156 c 0.005,-0.035 -0.007,-0.053 0,-0.094 0.006,-0.04 0.02,-0.081 0.031,-0.125 a 1.1,1.1 0 0 0 0.031,-0.22 c 0,-0.052 -0.029,-0.077 -0.03,-0.124 -0.01,-0.173 0.06,-0.218 0.124,-0.313 0.032,-0.047 0.04,-0.09 0.063,-0.125 0.108,-0.16 0.295,-0.226 0.281,-0.469 -0.005,-0.08 -0.035,-0.255 -0.094,-0.28 -0.034,-0.015 -0.107,-0.011 -0.156,-0.031 -0.158,-0.06 -0.274,-0.27 -0.438,-0.281 -0.035,0 -0.055,0.03 -0.094,0.03 -0.065,0 -0.147,-0.052 -0.219,-0.062 -0.046,-0.01 -0.129,0.013 -0.156,0 -0.042,-0.02 -0.029,-0.102 -0.063,-0.125 -0.027,-0.018 -0.084,-0.015 -0.125,-0.031 -0.066,-0.025 -0.112,-0.056 -0.188,-0.063 -0.023,-10e-4 -0.067,0 -0.094,0 -0.042,-0.01 -0.086,-0.04 -0.125,-0.063 a 0.208,0.208 0 0 1 -0.094,-0.094 c 0.044,-0.144 -0.096,-0.167 -0.125,-0.25 -0.014,-0.04 0.013,-0.09 0,-0.125 -0.017,-0.05 -0.07,-0.084 -0.125,-0.125 -0.097,-0.074 -0.174,-0.139 -0.313,-0.156 -0.06,-0.01 -0.145,0 -0.219,0 a 0.367,0.367 0 0 1 -0.218,-0.125 c -0.056,-0.065 -0.076,-0.125 -0.125,-0.156 -0.047,-0.03 -0.124,-0.03 -0.156,-0.063 -0.014,-0.014 -0.017,-0.03 -0.031,-0.063 -0.023,-0.048 -0.061,-0.098 -0.031,-0.156 -0.053,-0.027 -0.035,0.072 -0.094,0.063 -0.052,-0.074 -0.101,-0.115 -0.22,-0.094 -0.053,0.01 -0.092,0.06 -0.155,0.063 -0.052,0 -0.088,-0.053 -0.156,-0.063 -0.052,-0.01 -0.12,0.036 -0.156,0.031 -0.057,-0.01 -0.073,-0.059 -0.125,-0.094 -0.038,-0.025 -0.104,-0.095 -0.125,-0.094 -0.067,0 -0.126,0.143 -0.22,0.094 -0.044,-0.057 0.086,-0.07 0.032,-0.125 -0.04,-0.04 -0.061,0.01 -0.094,0.031 a 0.666,0.666 0 0 1 -0.125,0.063 c -0.092,0.034 -0.147,0.025 -0.22,0.063 -0.065,0.034 -0.086,0.088 -0.124,0.156 -0.031,0.056 -0.08,0.153 -0.125,0.156 -0.056,0 -0.106,-0.072 -0.156,-0.094 -0.153,-0.066 -0.248,0.03 -0.375,0.031 -0.118,0 -0.287,-0.17 -0.281,-0.28 0.004,-0.068 0.054,-0.167 0.063,-0.25 0.006,-0.067 0.062,-0.128 0.063,-0.189 0,-0.08 -0.135,-0.147 -0.188,-0.156 -0.125,-0.023 -0.295,0.061 -0.438,0 -0.027,-0.045 0.047,-0.08 0.063,-0.124 0.009,-0.025 -0.01,-0.034 0,-0.063 0.016,-0.042 0.074,-0.08 0.094,-0.125 0.015,-0.034 0.016,-0.082 0.03,-0.125 0.018,-0.05 0.06,-0.091 0.064,-0.125 0.005,-0.045 -0.027,-0.095 -0.063,-0.125 -0.111,0.01 -0.187,0 -0.25,0.03 -0.144,0.067 -0.106,0.267 -0.25,0.314 -0.05,0.016 -0.133,0.02 -0.188,0.03 -0.047,0.01 -0.107,0.033 -0.156,0.032 a 0.354,0.354 0 0 1 -0.188,-0.094 0.174,0.174 0 0 1 -0.03,-0.063 c 0.001,-0.01 -0.003,-0.021 0,-0.031 0.045,-0.223 0.092,-0.444 0.155,-0.656 0.003,-0.01 -0.003,-0.022 0,-0.031 0.042,-0.139 0.103,-0.27 0.156,-0.406 0.013,-0.01 0.019,-0.023 0.031,-0.03 0.077,-0.054 0.156,-0.12 0.25,-0.126 0.057,0 0.164,0.02 0.219,0.031 0.05,0.01 0.082,0.06 0.125,0.063 0.123,0.01 0.149,-0.103 0.25,-0.156 0.104,0.015 0.156,-0.01 0.25,0 0.064,0.01 0.138,0.09 0.188,0.094 0.042,0 0.053,-0.069 0.094,-0.063 0.04,0.01 0.119,0.108 0.125,0.156 0.007,0.06 -0.048,0.122 -0.031,0.188 0.063,0.064 0.19,0.056 0.28,0.094 0.06,-0.048 0.01,-0.118 0,-0.188 -10e-4,-0.03 0.005,-0.066 0,-0.094 -0.005,-0.048 -0.03,-0.084 -0.03,-0.125 -0.001,-0.19 0.154,-0.3 0.28,-0.375 0.056,-0.033 0.109,-0.069 0.157,-0.094 0.067,-0.034 0.1,-0.063 0.156,-0.094 0.1,-0.057 0.202,-0.092 0.28,-0.155 0.038,-0.086 -0.003,-0.196 0,-0.281 0.038,-0.022 0.056,0 0.095,0 0.06,-0.013 0.09,-0.091 0.125,-0.125 0.02,-0.02 0.069,-0.043 0.094,-0.063 0.06,-0.048 0.072,-0.104 0.125,-0.125 0.019,-0.01 0.064,-0.017 0.094,-0.031 0.04,-0.011 0.092,-0.04 0.156,-0.063 0.042,-0.014 0.14,-0.015 0.156,-0.031 0.02,-0.02 -0.006,-0.095 0,-0.125 0.032,-0.151 0.272,-0.168 0.406,-0.22 0.094,-0.035 0.178,-0.113 0.28,-0.093 -0.02,0.072 -0.11,0.038 -0.093,0.125 0.023,0.12 0.176,-0.013 0.219,-0.031 0.08,-0.034 0.236,-0.055 0.343,-0.094 0.094,-0.034 0.245,-0.08 0.156,-0.188 -0.074,0 -0.092,0.066 -0.156,0.094 -0.044,0.01 -0.056,-0.027 -0.094,-0.031 -0.036,0 -0.057,0.038 -0.094,0.03 -0.037,-0.01 -0.088,-0.081 -0.094,-0.124 -0.015,-0.111 0.11,-0.136 0.156,-0.219 -0.03,-0.1 -0.166,-0.024 -0.25,-0.063 a 0.148,0.148 0 0 1 0.125,-0.125 c 0.057,-0.01 0.185,0.01 0.22,0.031 0.02,0.017 0,0.066 0.03,0.094 0.034,0.031 0.081,0.01 0.125,0 0.016,-0.076 -0.106,-0.043 -0.094,-0.094 0.09,-0.059 0.265,-0.016 0.375,-0.03 0.063,-0.01 0.131,-0.063 0.188,-0.095 0.054,-0.03 0.1,-0.08 0.156,-0.03 0.016,0.053 -0.032,0.065 -0.063,0.093 a 2.182,2.182 0 0 0 -0.28,0.313 c 0.048,0.048 0.135,0.022 0.218,0.031 0.032,0 0.06,0.025 0.094,0.031 0.04,0.01 0.094,-0.012 0.125,0 0.056,0.014 0.07,0.094 0.125,0.094 0.091,0 0.083,-0.125 0.031,-0.188 0.016,-0.063 0.053,-0.08 0.031,-0.125 -0.04,-0.082 -0.21,0.014 -0.219,-0.094 -0.005,-0.067 0.07,-0.075 0.094,-0.125 -0.01,-0.129 0.106,-0.135 0.094,-0.25 -0.006,-0.048 -0.06,-0.049 -0.094,-0.094 -0.017,-0.023 -0.01,-0.076 -0.03,-0.094 -0.07,-0.059 -0.21,-0.044 -0.22,-0.156 -0.004,-0.066 0.01,-0.115 0,-0.188 -0.009,-0.067 -0.066,-0.267 -0.125,-0.28 -0.075,-0.016 -0.129,0.113 -0.219,0.155 a 0.389,0.389 0 0 1 -0.188,0.031 c -0.032,-0.01 -0.089,-0.032 -0.094,-0.094 -0.006,-0.07 0.05,-0.082 0.063,-0.155 -0.01,-0.044 -0.05,-0.03 -0.094,-0.063 -0.049,-0.037 -0.09,-0.116 -0.156,-0.125 -0.033,0 -0.093,0.029 -0.125,0.03 -0.06,0 -0.105,-0.014 -0.155,-0.03 0.02,-0.01 0.04,-0.024 0.063,-0.031 0.121,-0.042 0.25,-0.06 0.374,-0.094 0.022,-0.01 0.041,-0.025 0.063,-0.031 0.031,0.033 0.056,0.103 0.094,0.125 0.025,0.014 0.063,-0.01 0.094,0 0.098,0.03 0.174,0.085 0.281,0.063 0.037,-0.065 -0.074,-0.074 -0.03,-0.125 0.071,0.01 0.131,0.04 0.187,0.063 0.077,-0.056 0.128,-0.066 0.125,-0.156 0,-0.046 -0.062,-0.063 -0.094,-0.094 0.063,-0.011 0.124,-0.022 0.188,-0.031 0.005,0.017 0.021,0.03 0.031,0.03 0.038,0.01 0.165,-0.05 0.188,-0.062 0.004,0 -0.006,-0.027 0,-0.031 0.253,-0.027 0.521,-0.031 0.781,-0.031 m -2.5,0.469 c -0.022,0.043 -0.046,0.079 -0.093,0.094 0.012,0.065 -0.084,0.104 -0.094,0.155 -0.006,0.035 -0.002,0.094 0,0.125 0.02,0.32 -0.251,0.477 -0.563,0.47 -0.061,0.057 -0.03,0.169 -0.063,0.249 -0.028,0.067 -0.12,0.13 -0.188,0.125 -0.05,0 -0.125,-0.08 -0.125,-0.125 0,-0.057 0.08,-0.091 0.03,-0.156 0.008,-0.044 0.107,-0.086 0.095,-0.156 -0.012,-0.074 -0.096,-0.019 -0.188,-0.03 a 0.923,0.923 0 0 1 -0.188,-0.064 c 0.1,-0.067 0.205,-0.126 0.313,-0.188 0.094,-0.056 0.185,-0.105 0.28,-0.156 0.253,-0.127 0.523,-0.244 0.782,-0.343 m 5.374,0.749 c -0.027,0 -0.04,0.018 -0.063,0.031 -0.051,0.031 -0.054,0.079 -0.094,0.094 -0.054,0.021 -0.117,0.01 -0.125,0.063 -0.006,0.041 0.033,0.055 0.03,0.094 -0.02,0.049 -0.052,0.066 -0.062,0.125 0.068,0.11 0.229,-0.01 0.313,-0.031 0.038,-0.011 0.073,0 0.094,-0.031 0.023,-0.035 0.013,-0.105 0.03,-0.156 0.02,-0.056 0.07,-0.043 0.064,-0.094 -0.006,-0.05 -0.106,-0.102 -0.188,-0.094 m -7.312,0.78 c 0.06,0.017 0.196,0.194 0.063,0.25 a 0.931,0.931 0 0 1 -0.22,0.032 c -0.045,-0.01 -0.077,-0.086 -0.124,-0.094 -0.092,-0.016 -0.218,0.1 -0.281,0 0.016,-0.06 0.086,-0.043 0.156,-0.063 0.125,-0.034 0.298,-0.153 0.406,-0.125 m 0.25,0.312 c 0.03,0 0.056,0.06 0.094,0.063 0.036,0 0.072,-0.036 0.094,-0.03 0.056,0.014 0.084,0.114 0.03,0.155 -0.043,0 -0.06,-0.037 -0.093,-0.03 -0.091,0.015 -0.12,0.192 -0.188,0.187 -0.064,-0.01 -0.096,-0.14 -0.031,-0.188 0.002,-0.04 -0.033,-0.054 -0.031,-0.094 0.02,-0.025 0.072,-0.066 0.125,-0.063 m -0.313,0.031 h 0.03 c -0.008,0.071 -0.038,0.091 -0.093,0.125 a 0.378,0.378 0 0 0 -0.188,0.25 c -0.01,0.036 -0.111,0.134 -0.156,0.125 -0.106,-0.022 0.038,-0.22 0.063,-0.25 0.027,-0.033 0.062,-0.056 0.094,-0.094 0.03,-0.037 0.033,-0.105 0.063,-0.125 a 0.441,0.441 0 0 1 0.188,-0.03 m 9.499,0.03 c 0.048,0.013 0.058,0.07 0.094,0.094 0.027,0.018 0.064,0.012 0.094,0.031 0.035,0.022 0.054,0.06 0.094,0.094 0.056,0.047 0.14,0.088 0.219,0.125 0.016,0.01 0.044,0.023 0.063,0.031 0.055,0.071 0.104,0.145 0.156,0.22 0.006,0.04 0.012,0.098 0.03,0.124 0.053,0.071 0.132,0.132 0.189,0.219 -10e-4,0.083 0.036,0.133 0.094,0.156 0.073,0.124 0.149,0.248 0.219,0.375 0.029,0.058 0.035,0.129 0.063,0.188 -0.021,0 -0.043,0.01 -0.063,0 -0.066,-0.116 -0.41,-0.14 -0.438,0.03 -0.013,0.076 0.049,0.176 -0.063,0.189 -0.071,0.01 -0.153,-0.073 -0.25,-0.094 -0.04,-0.01 -0.094,0.014 -0.125,0 -0.073,-0.025 -0.062,-0.112 -0.125,-0.156 a 0.547,0.547 0 0 0 -0.188,-0.063 h -0.094 c -0.045,-0.01 -0.118,-0.01 -0.156,-0.031 -0.036,-0.022 -0.116,-0.062 -0.125,-0.094 -0.014,-0.05 0.09,-0.114 0.094,-0.156 0.002,-0.031 -0.023,-0.045 -0.031,-0.094 -0.005,-0.03 0.006,-0.074 0,-0.094 -0.01,-0.034 -0.071,-0.062 -0.125,-0.063 -0.048,0 -0.084,0.03 -0.125,0.03 -0.06,0.002 -0.177,-0.036 -0.25,-0.03 -0.044,0 -0.084,0.028 -0.125,0.03 -0.116,0.01 -0.191,-0.01 -0.281,0 a 0.76,0.76 0 0 0 -0.25,0.064 c -0.031,0.014 -0.054,0.043 -0.094,0.063 a 0.619,0.619 0 0 1 -0.063,0.03 c -0.038,0.018 -0.09,0.054 -0.125,0.064 -0.052,0.013 -0.124,0 -0.22,0 -0.067,0 -0.186,-0.014 -0.187,-0.094 -10e-4,-0.123 0.227,-0.072 0.344,-0.094 0.044,-0.01 0.073,-0.063 0.125,-0.094 0.025,-0.015 0.039,-0.015 0.063,-0.031 0.04,-0.028 0.119,-0.093 0.125,-0.125 0.006,-0.03 -0.035,-0.072 -0.031,-0.094 0.005,-0.028 0.057,-0.058 0.094,-0.094 0.056,-0.055 0.087,-0.12 0.156,-0.156 0.047,-0.025 0.135,-0.024 0.156,-0.063 0.005,-0.043 -0.001,-0.055 0,-0.094 0.029,-0.027 0.038,-0.058 0.063,-0.063 0.072,-0.016 0.135,0.035 0.219,0.031 0.036,0 0.086,-0.01 0.125,-0.031 0.033,-0.022 0.062,-0.045 0.094,-0.063 0.035,-0.018 0.05,-0.059 0.094,-0.063 0.105,-0.01 0.17,0.124 0.219,0.188 0.04,0.053 0.153,0.119 0.219,0.156 0.037,0.02 0.084,0.045 0.125,0.063 0.087,0.039 0.247,0.165 0.25,0.25 0.002,0.042 -0.038,0.054 -0.031,0.094 0.066,0.01 0.123,-0.06 0.125,-0.125 0,-0.041 -0.04,-0.05 -0.031,-0.094 0.03,-0.066 0.148,-0.01 0.188,-0.031 -0.007,-0.075 -0.124,-0.086 -0.188,-0.125 -0.034,-0.021 -0.058,-0.048 -0.094,-0.063 -0.052,-0.021 -0.116,-0.032 -0.156,-0.063 -0.038,-0.03 -0.057,-0.08 -0.094,-0.125 -0.054,-0.064 -0.158,-0.073 -0.125,-0.219 0.016,-0.022 0.037,-0.069 0.063,-0.063 m -8.812,0.219 h 0.094 c 0.034,0.001 0.08,-0.018 0.094,0 -0.022,0.088 -0.212,0.063 -0.281,0.031 0.004,-0.033 0.05,-0.027 0.094,-0.031 m -0.313,0.156 c 0.023,0 0.039,-0.01 0.063,0 a 0.71,0.71 0 0 1 -0.25,0.125 c -0.051,0.016 -0.116,0.025 -0.125,-0.031 -0.011,-0.07 0.047,-0.056 0.094,-0.063 0.058,-0.01 0.15,-0.03 0.219,-0.031 m 8.687,0 c -0.043,0.014 -0.066,0.113 0,0.125 0.03,-0.018 0.039,-0.068 0.03,-0.125 -0.016,-0.018 -0.016,0 -0.03,0 m -0.031,0.188 c -0.021,0.01 -0.04,0.01 -0.063,0.03 0,0.076 0.015,0.124 0,0.189 0.043,0.082 0.134,0.026 0.156,-0.031 0.026,-0.14 -0.03,-0.205 -0.094,-0.188 m 0.438,0.375 c 0.049,0.08 0.14,0.137 0.25,0.156 0.04,-0.03 0.044,-0.105 0.063,-0.156 h -0.156 c -0.06,0 -0.122,-0.028 -0.156,0 M 25.252,30.93 c 0.164,-0.01 0.212,0.216 0.344,0.281 0.033,0.017 0.082,0.022 0.125,0.031 0.035,0.01 0.061,0.02 0.094,0.031 0.071,0.024 0.162,0.01 0.22,0.031 0.084,0.038 0.145,0.207 0.218,0.25 0.004,0.043 -0.013,0.093 0,0.125 0.035,0.047 0.1,0.064 0.156,0.094 0.068,0.037 0.092,0.127 0.156,0.156 0.022,0.01 0.06,-0.01 0.094,0 0.088,0.027 0.112,0.147 0.188,0.125 0.05,-0.014 0.055,-0.078 0.063,-0.125 0.033,-0.036 0.074,-0.093 0.125,-0.094 0.083,0 0.095,0.075 0.125,0.156 0.017,0.046 0.051,0.108 0.063,0.156 0.021,0.083 0.017,0.325 0,0.375 -0.021,0.06 -0.106,0.089 -0.156,0.156 -0.024,0.03 -0.044,0.07 -0.063,0.094 -0.032,0.04 -0.069,0.057 -0.094,0.094 -0.014,0.02 -0.018,0.066 -0.031,0.094 -0.04,0.085 -0.096,0.148 -0.063,0.25 0.014,0.041 0.062,0.075 0.063,0.124 0,0.058 -0.115,0.093 -0.125,0.156 -0.007,0.047 0.048,0.126 0.063,0.188 0.011,0.047 0.097,0.094 0.125,0.125 0.047,0.053 0.082,0.121 0.125,0.188 0.085,0.13 0.136,0.28 0.219,0.406 0.043,0.066 0.127,0.119 0.156,0.188 0.015,0.035 -0.014,0.094 0,0.125 0.048,0.108 0.266,0.228 0.375,0.28 0.05,0.026 0.11,0 0.156,0.032 a 0.919,0.919 0 0 1 0.25,0.219 c 0.032,0.056 0.047,0.193 0.063,0.28 0.02,0.117 -0.005,0.217 0,0.344 0.004,0.07 0.03,0.12 0.03,0.188 0,0.024 0.002,0.07 0,0.094 -10e-4,0.083 0.008,0.166 0,0.25 a 0.744,0.744 0 0 0 0,0.125 c 0.005,0.041 0.029,0.057 0.032,0.094 0.002,0.039 -0.035,0.095 -0.031,0.125 0.009,0.084 0.077,0.142 0.094,0.219 0.013,0.06 0.039,0.208 0.03,0.28 -0.004,0.04 -0.024,0.084 -0.03,0.126 -0.004,0.033 0.005,0.062 0,0.094 -0.006,0.047 -0.034,0.08 -0.031,0.125 0.006,0.09 0.08,0.16 0.094,0.25 0.005,0.03 -0.001,0.065 0,0.094 0,0.027 0.023,0.038 0.03,0.063 a 6.979,6.979 0 0 1 -0.749,-0.5 7.065,7.065 0 0 1 -0.656,-0.563 L 27.068,36.898 A 7.23,7.23 0 0 1 26.474,36.242 C 26.37,36.11 26.256,35.975 26.161,35.837 26.105,35.754 26.057,35.673 26.005,35.587 25.973,35.536 25.942,35.483 25.911,35.431 a 6.577,6.577 0 0 1 -0.25,-0.469 c -0.049,-0.101 -0.08,-0.208 -0.125,-0.313 a 6.742,6.742 0 0 1 -0.28,-0.75 c -0.055,-0.184 -0.087,-0.37 -0.126,-0.562 -0.03,-0.146 -0.073,-0.29 -0.094,-0.438 -0.01,-0.081 -0.023,-0.168 -0.03,-0.25 a 7.108,7.108 0 0 1 0.031,-1.593 v -0.031 c 0.063,0 0.15,-0.092 0.22,-0.094 m 2.687,0.75 c 0.064,-0.03 0.084,0.117 0.03,0.125 -0.05,0.01 -0.08,-0.102 -0.03,-0.125"
     class="ColorScheme-Text"
     id="path110"
     style="fill:url(#v)"
     inkscape:connector-curvature="0" />
</svg>
