<?xml version="1.0" encoding="UTF-8" standalone="no"?>
<svg
   xmlns:dc="http://purl.org/dc/elements/1.1/"
   xmlns:cc="http://creativecommons.org/ns#"
   xmlns:rdf="http://www.w3.org/1999/02/22-rdf-syntax-ns#"
   xmlns:svg="http://www.w3.org/2000/svg"
   xmlns="http://www.w3.org/2000/svg"
   xmlns:xlink="http://www.w3.org/1999/xlink"
   xmlns:sodipodi="http://sodipodi.sourceforge.net/DTD/sodipodi-0.dtd"
   xmlns:inkscape="http://www.inkscape.org/namespaces/inkscape"
   width="48"
   height="48"
   version="1.1"
   id="svg63"
   sodipodi:docname="ksnapshot.svg"
   inkscape:version="0.92.5 (2060ec1f9f, 2020-04-08)">
  <metadata
     id="metadata67">
    <rdf:RDF>
      <cc:Work
         rdf:about="">
        <dc:format>image/svg+xml</dc:format>
        <dc:type
           rdf:resource="http://purl.org/dc/dcmitype/StillImage" />
        <dc:title></dc:title>
      </cc:Work>
    </rdf:RDF>
  </metadata>
  <sodipodi:namedview
     pagecolor="#ffffff"
     bordercolor="#666666"
     borderopacity="1"
     objecttolerance="10"
     gridtolerance="10"
     guidetolerance="10"
     inkscape:pageopacity="0"
     inkscape:pageshadow="2"
     inkscape:window-width="1085"
     inkscape:window-height="480"
     id="namedview65"
     showgrid="false"
     inkscape:zoom="4.9166667"
     inkscape:cx="2.1355932"
     inkscape:cy="24"
     inkscape:window-x="0"
     inkscape:window-y="25"
     inkscape:window-maximized="0"
     inkscape:current-layer="svg63" />
  <defs
     id="defs35">
    <linearGradient
       id="a"
       y1="41.22"
       x1="24.392"
       y2="25.343"
       x2="20.643"
       gradientUnits="userSpaceOnUse">
      <stop
         stop-color="#334545"
         id="stop2" />
      <stop
         offset="1"
         stop-color="#536161"
         id="stop4" />
    </linearGradient>
    <linearGradient
       id="d"
       y1="547.8"
       y2="536.8"
       x2="0"
       gradientUnits="userSpaceOnUse"
       gradientTransform="matrix(1,0,0,0.54545,-384.57,-255.8)">
      <stop
         stop-color="#c6cdd1"
         id="stop7" />
      <stop
         offset="1"
         stop-color="#e0e5e7"
         id="stop9" />
    </linearGradient>
    <linearGradient
       id="e"
       y1="536.8"
       y2="503.8"
       x2="0"
       gradientUnits="userSpaceOnUse"
       gradientTransform="translate(-384.57,-499.8)">
      <stop
         stop-color="#2a2c2f"
         id="stop12" />
      <stop
         offset="1"
         stop-color="#424649"
         id="stop14" />
    </linearGradient>
    <linearGradient
       xlink:href="#b"
       id="f"
       gradientUnits="userSpaceOnUse"
       gradientTransform="translate(-9.995,-0.003)"
       x1="42.799"
       y1="5.342"
       x2="11.999"
       y2="31.357" />
    <linearGradient
       id="b"
       y1="5.342"
       x1="42.799"
       y2="31.357"
       x2="11.999"
       gradientUnits="userSpaceOnUse"
       gradientTransform="matrix(1 0 0 1 -9.995 -40.003)">
      <stop
         stop-color="#1abc9c"
         id="stop18" />
      <stop
         offset="1"
         stop-color="#2980b9"
         id="stop20" />
    </linearGradient>
    <linearGradient
       xlink:href="#c"
       id="g"
       gradientUnits="userSpaceOnUse"
       gradientTransform="translate(-9.995,-0.003)"
       x1="29.855"
       y1="22.346"
       x2="54.32"
       y2="28.506" />
    <linearGradient
       id="c"
       y1="22.346"
       x1="29.855"
       y2="28.506"
       x2="54.32"
       gradientUnits="userSpaceOnUse"
       gradientTransform="matrix(1 0 0 1 -9.995 -40.003)">
      <stop
         stop-color="#cc4a5e"
         id="stop24" />
      <stop
         offset="1"
         stop-color="#aa478a"
         id="stop26" />
    </linearGradient>
    <linearGradient
       xlink:href="#a"
       id="h"
       gradientUnits="userSpaceOnUse"
       x1="24.392"
       y1="41.22"
       x2="20.643"
       y2="25.343"
       gradientTransform="translate(-9.995,-0.003)" />
    <linearGradient
       xlink:href="#a"
       id="i"
       y1="568.8"
       x1="431.57"
       y2="562.8"
       x2="439.57"
       gradientUnits="userSpaceOnUse"
       gradientTransform="matrix(-0.91667,0,0,0.91667,418.694,-492.484)" />
    <linearGradient
       xlink:href="#a"
       id="j"
       y1="40.899"
       x1="56.03"
       y2="32.475"
       x2="40.647"
       gradientUnits="userSpaceOnUse"
       gradientTransform="translate(-9.995,-0.003)" />
    <linearGradient
       xlink:href="#a"
       id="k"
       y1="32.15"
       x1="60.895"
       y2="27.06"
       x2="53.41"
       gradientUnits="userSpaceOnUse"
       gradientTransform="translate(-29.997,-0.003)" />
    <linearGradient
       xlink:href="#a"
       id="l"
       y1="36.527"
       x1="33.32"
       y2="31.348"
       x2="24.78"
       gradientUnits="userSpaceOnUse"
       gradientTransform="translate(-9.995,-0.003)" />
    <linearGradient
       xlink:href="#a"
       id="m"
       y1="36.765"
       x1="34"
       y2="49.571"
       x2="40.25"
       gradientUnits="userSpaceOnUse"
       gradientTransform="translate(-9.995,-0.003)" />
  </defs>
  <path
     d="m 18,37 v 6 h 12 v -6 z"
     id="path37"
     style="fill:url(#d)"
     inkscape:connector-curvature="0" />
  <rect
     height="36"
     y="4"
     width="48"
     ry="5"
     rx="5"
     id="rect39"
     style="fill:url(#e)"
     x="0" />
  <path
     d="M 5.008,6 A 2.987,2.987 0 0 0 2.004,8.99 v 27.008 h 44 V 8.996 A 2.984,2.984 0 0 0 45.129,6.877 3.003,3.003 0 0 0 43,6 Z"
     id="path41"
     style="fill:url(#f)"
     inkscape:connector-curvature="0" />
  <path
     d="M 44.752,6.72 15.725,23.48 37.406,36 h 8.6 V 33 L 46.004,8.997 A 2.984,2.984 0 0 0 45.129,6.878 C 45.033,6.782 44.861,6.804 44.752,6.722 Z"
     id="path43"
     style="fill:url(#g)"
     inkscape:connector-curvature="0" />
  <path
     d="m 15.755,23.413 -13.75,7.94 v 4.644 H 37.61 Z"
     id="path45"
     style="fill:url(#h)"
     inkscape:connector-curvature="0" />
  <path
     d="m 23.326,27.79 -7.571,-4.37 v 8.741 z"
     id="path47"
     style="fill:url(#i)"
     inkscape:connector-curvature="0" />
  <path
     d="m 30.896,32.157 v 3.844 h 6.656 z"
     id="path49"
     style="fill:url(#j)"
     inkscape:connector-curvature="0" />
  <path
     d="m 23.323,27.784 v 8.213 h 0.916 l 6.654,-3.842 z"
     id="path51"
     style="fill:url(#k)"
     inkscape:connector-curvature="0" />
  <path
     d="M 15.755,32.157 V 36 h 6.654 z"
     id="path53"
     style="fill:url(#l)"
     inkscape:connector-curvature="0" />
  <path
     d="m 30.896,32.157 -6.656,3.844 h 6.656 z"
     id="path55"
     style="fill:url(#m)"
     inkscape:connector-curvature="0" />
  <path
     d="M 46.004,8.996 A 2.984,2.984 0 0 0 45.129,6.877 C 45.034,6.782 44.863,6.804 44.756,6.723 l -29.03,16.76 30.278,-8.942 z"
     id="path57"
     inkscape:connector-curvature="0"
     style="fill:#aa478a" />
  <path
     d="m 13,42 h 22 v 2 H 13 Z"
     id="path59"
     inkscape:connector-curvature="0"
     style="fill:#99a1a7" />
  <path
     d="m 4,8 v 5 H 5 V 9 H 9 V 8 Z m 35,0 v 1 h 4 v 4 h 1 V 8 Z m -17,6 v 3 H 20 V 28 H 33 V 17 h -2 v -3 z m 1,1 h 7 v 2 h -7 z m -8,2 v 11 h 4 V 17 Z m 11.5,1 C 28.993,18 31,20.01 31,22.5 31,24.993 28.99,27 26.5,27 24.007,27 22,24.99 22,22.5 22,20.007 24.01,18 26.5,18 Z m 0,1 A 3.492,3.492 0 0 0 23,22.5 C 23,24.439 24.561,26 26.5,26 28.439,26 30,24.439 30,22.5 30,20.561 28.439,19 26.5,19 Z M 4,29 v 5 H 9 V 33 H 5 v -4 z m 39,0 v 4 h -4 v 1 h 5 v -5 z"
     id="path61"
     inkscape:connector-curvature="0"
     style="fill:#ffffff" />
</svg>
