<?xml version="1.0" encoding="UTF-8" standalone="no"?>
<svg
   width="48"
   height="48"
   version="1.1"
   id="svg40"
   sodipodi:docname="opera.svg"
   inkscape:version="1.2.1 (9c6d41e410, 2022-07-14)"
   xmlns:inkscape="http://www.inkscape.org/namespaces/inkscape"
   xmlns:sodipodi="http://sodipodi.sourceforge.net/DTD/sodipodi-0.dtd"
   xmlns:xlink="http://www.w3.org/1999/xlink"
   xmlns="http://www.w3.org/2000/svg"
   xmlns:svg="http://www.w3.org/2000/svg">
  <sodipodi:namedview
     id="namedview42"
     pagecolor="#ffffff"
     bordercolor="#666666"
     borderopacity="1.0"
     inkscape:showpageshadow="2"
     inkscape:pageopacity="0.0"
     inkscape:pagecheckerboard="0"
     inkscape:deskcolor="#d1d1d1"
     showgrid="true"
     inkscape:zoom="9.8333334"
     inkscape:cx="18.813559"
     inkscape:cy="41.644068"
     inkscape:window-width="1920"
     inkscape:window-height="1000"
     inkscape:window-x="0"
     inkscape:window-y="0"
     inkscape:window-maximized="1"
     inkscape:current-layer="svg40">
    <inkscape:grid
       type="xygrid"
       id="grid710" />
  </sodipodi:namedview>
  <defs
     id="defs26">
    <linearGradient
       inkscape:collect="always"
       id="linearGradient975">
      <stop
         style="stop-color:#7e4ace;stop-opacity:1;"
         offset="0"
         id="stop971" />
      <stop
         style="stop-color:#d35f5f;stop-opacity:1"
         offset="0.46867633"
         id="stop1043" />
      <stop
         style="stop-color:#d40055;stop-opacity:1"
         offset="1"
         id="stop973" />
    </linearGradient>
    <linearGradient
       id="linearGradient4317">
      <stop
         style="stop-color:#3b85b5;stop-opacity:1"
         offset="0"
         id="stop2" />
      <stop
         style="stop-color:#7cbcec;stop-opacity:1"
         offset="1"
         id="stop4" />
    </linearGradient>
    <linearGradient
       id="linearGradient4309">
      <stop
         style="stop-color:#3bb566;stop-opacity:1;"
         offset="0"
         id="stop7" />
      <stop
         style="stop-color:#7ceca4;stop-opacity:1"
         offset="1"
         id="stop9" />
    </linearGradient>
    <linearGradient
       id="linearGradient4301">
      <stop
         style="stop-color:#ffa92d;stop-opacity:1;"
         offset="0"
         id="stop12" />
      <stop
         style="stop-color:#ffc169;stop-opacity:1"
         offset="1"
         id="stop14" />
    </linearGradient>
    <linearGradient
       id="linearGradient4293">
      <stop
         style="stop-color:#bf4231;stop-opacity:1;"
         offset="0"
         id="stop17" />
      <stop
         style="stop-color:#f58273;stop-opacity:1"
         offset="1"
         id="stop19" />
    </linearGradient>
    <linearGradient
       xlink:href="#linearGradient4293"
       id="linearGradient4299"
       x1="16"
       y1="20"
       x2="7"
       y2="7"
       gradientUnits="userSpaceOnUse" />
    <linearGradient
       xlink:href="#linearGradient4301"
       id="linearGradient4307"
       x1="39"
       y1="20"
       x2="30"
       y2="7"
       gradientUnits="userSpaceOnUse" />
    <linearGradient
       xlink:href="#linearGradient4309"
       id="linearGradient4315"
       x1="17"
       y1="40.124"
       x2="10"
       y2="28"
       gradientUnits="userSpaceOnUse" />
    <linearGradient
       xlink:href="#linearGradient4317"
       id="linearGradient4323"
       x1="38"
       y1="42"
       x2="30"
       y2="29"
       gradientUnits="userSpaceOnUse" />
    <linearGradient
       gradientTransform="matrix(1.0499636,0,0,1.0499041,-452.98598,-525.93779)"
       gradientUnits="userSpaceOnUse"
       x2="426.69501"
       y2="499.92099"
       y1="547.67499"
       id="a-6"
       x1="389.32001">
      <stop
         stop-color="#18222a"
         style="stop-color:#1e2b35;stop-opacity:1"
         id="stop216" />
      <stop
         stop-color="#566069"
         offset="1"
         style="stop-color:#6d7983;stop-opacity:1"
         id="stop218" />
    </linearGradient>
    <linearGradient
       id="linearGradient4235">
      <stop
         style="stop-color:#abdaf9;stop-opacity:1"
         offset="0"
         id="stop7-9" />
      <stop
         style="stop-color:#7cbcec;stop-opacity:1"
         offset="1"
         id="stop9-3" />
    </linearGradient>
    <linearGradient
       id="linearGradient4255">
      <stop
         style="stop-color:#000000;stop-opacity:1;"
         offset="0"
         id="stop2-1" />
      <stop
         style="stop-color:#000000;stop-opacity:0;"
         offset="1"
         id="stop4-9" />
    </linearGradient>
    <linearGradient
       id="linearGradient4216">
      <stop
         style="stop-color:#c42c2c;stop-opacity:1"
         offset="0"
         id="stop17-4" />
      <stop
         style="stop-color:#f36856;stop-opacity:1"
         offset="1"
         id="stop19-7" />
    </linearGradient>
    <linearGradient
       id="linearGradient4224">
      <stop
         style="stop-color:#375a7d;stop-opacity:1"
         offset="0"
         id="stop12-8" />
      <stop
         style="stop-color:#54a3d8;stop-opacity:1"
         offset="1"
         id="stop14-4" />
    </linearGradient>
    <linearGradient
       xlink:href="#linearGradient4293"
       id="linearGradient4299-5"
       x1="16"
       y1="20"
       x2="7"
       y2="7"
       gradientUnits="userSpaceOnUse" />
    <linearGradient
       xlink:href="#linearGradient4301"
       id="linearGradient4307-6"
       x1="39"
       y1="20"
       x2="30"
       y2="7"
       gradientUnits="userSpaceOnUse" />
    <linearGradient
       xlink:href="#linearGradient4309"
       id="linearGradient4315-6"
       x1="17"
       y1="40.124001"
       x2="10"
       y2="28"
       gradientUnits="userSpaceOnUse" />
    <linearGradient
       xlink:href="#linearGradient4317"
       id="linearGradient4323-0"
       x1="38"
       y1="42"
       x2="30"
       y2="29"
       gradientUnits="userSpaceOnUse" />
    <filter
       id="d"
       x="-0.036"
       y="-0.03600006"
       width="1.072"
       height="1.0720001"
       color-interpolation-filters="sRGB">
      <feGaussianBlur
         stdDeviation="9"
         id="feGaussianBlur238" />
    </filter>
    <linearGradient
       id="a"
       x2="1"
       gradientTransform="matrix(0,27.855134,-27.855134,0,21.623876,10.014044)"
       gradientUnits="userSpaceOnUse"
       xlink:href="#b">
      <stop
         stop-color="#ff5a46"
         offset="0"
         id="stop231"
         style="stop-color:#d40055;stop-opacity:1" />
      <stop
         stop-color="#ff5a46"
         stop-opacity=".88235"
         offset=".3"
         id="stop233" />
      <stop
         stop-color="#7814aa"
         offset="1"
         id="stop235"
         style="stop-color:#7137c8;stop-opacity:1" />
    </linearGradient>
    <linearGradient
       id="b"
       x2="1"
       gradientTransform="matrix(0,24.636573,-24.636573,0,28.840091,12.155627)"
       gradientUnits="userSpaceOnUse">
      <stop
         stop-color="#7814aa"
         offset="0"
         id="stop224"
         style="stop-color:#b380ff;stop-opacity:1" />
      <stop
         stop-color="#ff5a46"
         stop-opacity=".88235"
         offset=".7"
         id="stop226" />
      <stop
         stop-color="#ff5a46"
         offset="1"
         id="stop228"
         style="stop-color:#d40055;stop-opacity:1" />
    </linearGradient>
    <linearGradient
       inkscape:collect="always"
       xlink:href="#linearGradient975"
       id="linearGradient356"
       gradientUnits="userSpaceOnUse"
       gradientTransform="matrix(0,24.636573,-24.636573,0,28.840091,11.655627)"
       x2="1" />
    <linearGradient
       inkscape:collect="always"
       xlink:href="#linearGradient975"
       id="linearGradient977"
       x1="20"
       y1="38"
       x2="20"
       y2="10"
       gradientUnits="userSpaceOnUse" />
  </defs>
  <rect
     width="41.99855"
     x="-45.000397"
     y="3.0039384"
     rx="20.999275"
     height="41.99617"
     transform="scale(-1,1)"
     style="display:inline;fill:url(#a-6);stroke-width:2.93982;stroke-opacity:0.55"
     id="rect223"
     ry="20.998085" />
  <path
     style="display:inline;opacity:0.3;fill:#000000;fill-opacity:1;stroke-width:2.93982;stroke-opacity:0.55"
     d="m 3.0133075,23.477117 c -0.0042,0.175027 -0.0126,0.349055 -0.0126,0.525082 0,11.633028 9.3656955,20.998099 20.9992145,20.998099 11.633531,0 20.99937,-9.365071 20.99937,-20.998099 0,-0.176027 -0.008,-0.349055 -0.0126,-0.525082 -0.2773,11.388289 -9.53376,20.473116 -20.986761,20.473116 -11.457195,0 -20.7094525,-9.084827 -20.9866105,-20.473116"
     id="path225" />
  <path
     d="m 3.0133075,24.523181 c -0.0042,-0.175027 -0.0126,-0.348055 -0.0126,-0.525082 C 3.0007075,12.365171 12.366403,3 23.999922,3 c 11.633531,0 20.99937,9.365171 20.99937,20.998099 0,0.176027 -0.008,0.350055 -0.0126,0.525082 -0.2773,-11.388289 -9.53376,-20.473116 -20.986761,-20.473116 -11.457195,0 -20.7094515,9.084827 -20.9866095,20.473116"
     style="display:inline;opacity:0.3;fill:#ffffff;fill-opacity:1;stroke-width:2.93982;stroke-opacity:0.55"
     id="path229" />
  <g
     transform="matrix(0.0479043,0,0,0.0479043,-0.64433279,-0.36932417)"
     fill="#010101"
     filter="url(#d)"
     opacity="0.2"
     stroke-width="93.632"
     id="g254">
    <path
       d="m 518.75,213.01 c -165.67,0 -300,134.33 -300,300 0,160.9 126.69,292.18 285.73,299.64 4.7761,0.23881 9.4925,0.35821 14.269,0.35821 76.836,0 146.87,-28.896 199.94,-76.358 -35.164,23.343 -76.299,36.716 -120.24,36.716 -71.463,0 -135.4,-35.463 -178.45,-91.343 -33.194,-39.164 -54.627,-97.015 -56.119,-161.97 v -14.149 c 1.4925,-64.955 22.925,-122.87 56.119,-161.97 43.045,-55.881 107.04,-91.343 178.45,-91.343 43.94,0 85.075,13.433 120.24,36.776 -52.776,-47.224 -122.45,-76.06 -198.81,-76.358 h -1.1343 z"
       id="path250" />
    <path
       d="m 420,343.94 c 27.522,-32.478 63.104,-52.119 101.91,-52.119 87.343,0 158.15,99.045 158.15,221.13 0,122.15 -70.806,221.13 -158.15,221.13 -38.866,0 -74.388,-19.582 -101.91,-52.06 43.045,55.881 106.99,91.343 178.45,91.343 43.94,0 85.075,-13.433 120.24,-36.716 61.433,-54.925 100.06,-134.75 100.06,-223.64 0,-88.836 -38.627,-168.72 -100.06,-223.64 -35.164,-23.343 -76.299,-36.716 -120.24,-36.716 -71.463,0 -135.4,35.463 -178.45,91.343"
       id="path252" />
  </g>
  <path
     d="m 24.020521,9.544487 c -7.935972,0 -14.3715858,6.435019 -14.3715858,14.371587 0,7.70756 6.0689898,13.99668 13.6878968,14.354298 0.228797,0.01143 0.454733,0.01714 0.683551,0.01714 3.680764,0 7.035681,-1.384265 9.578298,-3.657845 -1.684486,1.118232 -3.655062,1.758862 -5.759981,1.758862 -3.423357,0 -6.486255,-1.69883 -8.548266,-4.375704 -1.590126,-1.876142 -2.616849,-4.647461 -2.688375,-7.759415 v -0.677798 c 0.07152,-3.11165 1.098173,-5.885968 2.688375,-7.759403 2.062011,-2.676948 5.127691,-4.375718 8.548266,-4.375718 2.104919,0 4.075495,0.643501 5.759981,1.761724 C 31.070489,10.93998 27.73277,9.558643 24.074473,9.544364 h -0.05429 z"
     stroke-width="4.48539"
     id="path256"
     style="fill-opacity:1;fill:url(#linearGradient977)" />
  <path
     d="m 19.289591,15.817072 c 1.318452,-1.555864 3.022926,-2.496714 4.881934,-2.496714 4.184134,0 7.576096,4.744673 7.576096,10.593307 0,5.851487 -3.391892,10.593304 -7.576096,10.593304 -1.86186,0 -3.563482,-0.938071 -4.881934,-2.493863 2.062013,2.676952 5.125279,4.375716 8.548274,4.375716 2.104912,0 4.075489,-0.643504 5.759973,-1.758866 2.942913,-2.631123 4.793287,-6.45508 4.793287,-10.71351 0,-4.255655 -1.850374,-8.082469 -4.793287,-10.713514 -1.684484,-1.118229 -3.655061,-1.758865 -5.759973,-1.758865 -3.423365,0 -6.486261,1.698835 -8.548274,4.375708"
     stroke-width="4.48539"
     id="path258"
     style="fill:url(#linearGradient356);fill-opacity:1.0" />
</svg>
