<?xml version="1.0" encoding="UTF-8" standalone="no"?>
<svg
   xmlns:dc="http://purl.org/dc/elements/1.1/"
   xmlns:cc="http://creativecommons.org/ns#"
   xmlns:rdf="http://www.w3.org/1999/02/22-rdf-syntax-ns#"
   xmlns:svg="http://www.w3.org/2000/svg"
   xmlns="http://www.w3.org/2000/svg"
   xmlns:xlink="http://www.w3.org/1999/xlink"
   xmlns:sodipodi="http://sodipodi.sourceforge.net/DTD/sodipodi-0.dtd"
   xmlns:inkscape="http://www.inkscape.org/namespaces/inkscape"
   width="48"
   height="48"
   version="1.1"
   id="svg67"
   sodipodi:docname="applications-multimedia.svg"
   inkscape:version="0.92.5 (2060ec1f9f, 2020-04-08)">
  <metadata
     id="metadata71">
    <rdf:RDF>
      <cc:Work
         rdf:about="">
        <dc:format>image/svg+xml</dc:format>
        <dc:type
           rdf:resource="http://purl.org/dc/dcmitype/StillImage" />
        <dc:title></dc:title>
      </cc:Work>
    </rdf:RDF>
  </metadata>
  <sodipodi:namedview
     pagecolor="#ffffff"
     bordercolor="#666666"
     borderopacity="1"
     objecttolerance="10"
     gridtolerance="10"
     guidetolerance="10"
     inkscape:pageopacity="0"
     inkscape:pageshadow="2"
     inkscape:window-width="1085"
     inkscape:window-height="480"
     id="namedview69"
     showgrid="false"
     inkscape:zoom="4.9166667"
     inkscape:cx="2.1355932"
     inkscape:cy="24"
     inkscape:window-x="0"
     inkscape:window-y="25"
     inkscape:window-maximized="0"
     inkscape:current-layer="svg67" />
  <defs
     id="defs41">
    <linearGradient
       id="d">
      <stop
         stop-color="#ee6406"
         id="stop2" />
      <stop
         offset="1"
         stop-color="#ffce0d"
         id="stop4" />
    </linearGradient>
    <linearGradient
       id="c">
      <stop
         stop-color="#21c9fb"
         id="stop7" />
      <stop
         offset="1"
         stop-color="#197cf1"
         id="stop9" />
    </linearGradient>
    <linearGradient
       id="a">
      <stop
         stop-color="#2a2c2f"
         id="stop12" />
      <stop
         offset="1"
         stop-color="#424649"
         id="stop14" />
    </linearGradient>
    <linearGradient
       xlink:href="#b"
       id="g"
       y1="547.798"
       y2="536.798"
       x2="0"
       gradientUnits="userSpaceOnUse"
       gradientTransform="matrix(1,0,0,0.54545,-384.571,-255.799)" />
    <linearGradient
       id="b">
      <stop
         stop-color="#c6cdd1"
         id="stop18" />
      <stop
         offset="1"
         stop-color="#e0e5e7"
         id="stop20" />
    </linearGradient>
    <linearGradient
       xlink:href="#d"
       id="k"
       y1="21"
       x1="33"
       y2="12"
       x2="24"
       gradientUnits="userSpaceOnUse" />
    <linearGradient
       xlink:href="#d"
       id="j"
       x1="428.571"
       x2="388.571"
       gradientUnits="userSpaceOnUse"
       gradientTransform="translate(-384.571,-499.798)" />
    <linearGradient
       id="h"
       y1="536.8"
       y2="503.8"
       x2="0"
       gradientUnits="userSpaceOnUse"
       gradientTransform="translate(-384.57,-499.8)"
       xlink:href="#a">
      <stop
         stop-color="#2a2c2f"
         id="stop25" />
      <stop
         offset="1"
         stop-color="#424649"
         id="stop27" />
    </linearGradient>
    <linearGradient
       id="e">
      <stop
         stop-color="#383e51"
         id="stop30" />
      <stop
         offset="1"
         stop-color="#655c6f"
         stop-opacity="0"
         id="stop32" />
    </linearGradient>
    <linearGradient
       id="f">
      <stop
         stop-color="#c61423"
         id="stop35" />
      <stop
         offset="1"
         stop-color="#dc2b41"
         id="stop37" />
    </linearGradient>
    <linearGradient
       xlink:href="#c"
       id="i"
       gradientUnits="userSpaceOnUse"
       gradientTransform="translate(-384.571,-499.798)"
       y1="535.798"
       x2="0"
       y2="505.798" />
  </defs>
  <path
     d="m 18,37 v 6 h 12 v -6 z"
     id="path43"
     style="fill:url(#g)"
     inkscape:connector-curvature="0" />
  <rect
     height="36"
     y="4"
     width="48"
     ry="5"
     rx="5"
     id="rect45"
     style="fill:url(#h)"
     x="0" />
  <path
     d="m 5.004,6.002 a 2.987,2.987 0 0 0 -3,2.988 V 35.998 H 45.998 V 8.982 A 2.983,2.983 0 0 0 45.128,6.877 3.003,3.003 0 0 0 43.004,6.002 Z"
     id="path47"
     style="fill:url(#i)"
     inkscape:connector-curvature="0" />
  <path
     d="m 12.999,42.002 h 22 v 2 h -22 z"
     id="path49"
     inkscape:connector-curvature="0"
     style="fill:#99a1a7" />
  <path
     d="m 1.999,32.002 h 44 v 4 h -44 z m 3.005,-26 a 2.987,2.987 0 0 0 -3,2.988 v 1.012 H 45.998 V 8.982 A 2.983,2.983 0 0 0 45.128,6.877 3.003,3.003 0 0 0 43.004,6.002 Z"
     id="path51"
     inkscape:connector-curvature="0"
     style="opacity:0.85;fill-opacity:0.62099998" />
  <path
     d="m 24,14 c -3.878,0 -7,3.122 -7,7 0,3.878 3.122,7 7,7 3.878,0 7,-3.122 7,-7 0,-3.878 -3.122,-7 -7,-7 z m 0,1 c 3.324,0 6,2.676 6,6 0,3.324 -2.676,6 -6,6 -3.324,0 -6,-2.676 -6,-6 0,-3.324 2.676,-6 6,-6 z"
     id="path53"
     inkscape:connector-curvature="0"
     style="opacity:0.85;fill:#ffffff;fill-opacity:0.453" />
  <circle
     cx="24"
     cy="21"
     r="6"
     id="circle55"
     style="opacity:0.8;paint-order:stroke fill markers" />
  <path
     d="m 5.5,33.5 a 0.5,0.5 0 1 0 0,1 H 30 v -1 z"
     id="path57"
     style="fill:url(#j)"
     inkscape:connector-curvature="0" />
  <path
     d="m 24,14 v 1 c 3.324,0 6,2.676 6,6 h 1 c 0,-3.878 -3.122,-7 -7,-7 z"
     id="path59"
     style="opacity:0.85;fill:url(#k)"
     inkscape:connector-curvature="0" />
  <path
     d="m 30,33.5 v 1 h 12.5 a 0.5,0.5 0 1 0 0,-1 z"
     id="path61"
     inkscape:connector-curvature="0"
     style="fill:#999999" />
  <rect
     height="2"
     rx="1"
     y="33.001999"
     x="28.999001"
     width="2"
     id="rect63"
     style="fill:#ffffff" />
  <path
     d="m 22,18 5,3 -5,3 z"
     id="path65"
     inkscape:connector-curvature="0"
     style="fill:#ffffff" />
</svg>
