<?xml version="1.0" encoding="UTF-8" standalone="no"?>
<svg
   width="48"
   height="48"
   version="1.1"
   id="svg1714"
   sodipodi:docname="org.kde.merkuro.mail.svg"
   inkscape:version="1.3.2 (091e20ef0f, 2023-11-25)"
   xmlns:inkscape="http://www.inkscape.org/namespaces/inkscape"
   xmlns:sodipodi="http://sodipodi.sourceforge.net/DTD/sodipodi-0.dtd"
   xmlns:xlink="http://www.w3.org/1999/xlink"
   xmlns="http://www.w3.org/2000/svg"
   xmlns:svg="http://www.w3.org/2000/svg">
  <sodipodi:namedview
     id="namedview1716"
     pagecolor="#ffffff"
     bordercolor="#666666"
     borderopacity="1.0"
     inkscape:showpageshadow="2"
     inkscape:pageopacity="0.0"
     inkscape:pagecheckerboard="0"
     inkscape:deskcolor="#d1d1d1"
     showgrid="false"
     inkscape:zoom="4.9166667"
     inkscape:cx="24"
     inkscape:cy="24"
     inkscape:window-width="1920"
     inkscape:window-height="994"
     inkscape:window-x="0"
     inkscape:window-y="0"
     inkscape:window-maximized="1"
     inkscape:current-layer="svg1714" />
  <defs
     id="defs1684">
    <linearGradient
       id="a"
       x1="543.8"
       x2="503.8"
       gradientUnits="userSpaceOnUse"
       gradientTransform="matrix(0 1-1.16667 0-452.67-499.8)">
      <stop
         stop-color="#197cf1"
         id="stop1649" />
      <stop
         offset="1"
         stop-color="#21c9fb"
         id="stop1651" />
    </linearGradient>
    <linearGradient
       id="b"
       y1="547.8"
       x1="384.57"
       y2="530.48"
       x2="394.57"
       gradientUnits="userSpaceOnUse">
      <stop
         stop-color="#ffffff"
         stop-opacity="0"
         id="stop1654" />
      <stop
         offset="1"
         stop-color="#ffffff"
         stop-opacity=".314"
         id="stop1656" />
    </linearGradient>
    <linearGradient
       id="c"
       x1="384.57"
       x2="414.57"
       gradientUnits="userSpaceOnUse">
      <stop
         stop-opacity=".275"
         id="stop1659" />
      <stop
         offset="1"
         stop-color="#ffffff"
         stop-opacity="0"
         id="stop1661" />
    </linearGradient>
    <linearGradient
       id="d"
       y1="547.8"
       x1="432.57"
       y2="527.8"
       x2="421.02"
       gradientUnits="userSpaceOnUse">
      <stop
         stop-opacity=".082"
         id="stop1664" />
      <stop
         offset="1"
         stop-opacity="0"
         id="stop1666" />
    </linearGradient>
    <linearGradient
       id="e"
       y1="44"
       y2="20"
       x2="0"
       gradientUnits="userSpaceOnUse">
      <stop
         stop-color="#eef1f2"
         id="stop1669" />
      <stop
         offset="1"
         stop-color="#f9fafb"
         id="stop1671" />
    </linearGradient>
    <linearGradient
       id="f"
       y1="523.8"
       y2="507.8"
       gradientUnits="userSpaceOnUse"
       x2="0"
       gradientTransform="translate(-386.57,-551.86432)">
      <stop
         stop-color="#7cbaf8"
         id="stop1674" />
      <stop
         offset="1"
         stop-color="#f4fcff"
         id="stop1676" />
    </linearGradient>
    <linearGradient
       id="g"
       y1="511.8"
       x1="414.57"
       y2="519.8"
       x2="422.57"
       gradientUnits="userSpaceOnUse">
      <stop
         stop-color="#292c2f"
         id="stop1679" />
      <stop
         offset="1"
         stop-opacity="0"
         id="stop1681" />
    </linearGradient>
    <linearGradient
       id="linearGradient1545"
       x1="70.794998"
       x2="81.377998"
       y1="20.511999"
       y2="20.511999"
       gradientTransform="matrix(7.5637,0,0,7.5637,-543.5,-123.14)"
       gradientUnits="userSpaceOnUse">
      <stop
         stop-color="#b5cddc"
         offset="0"
         id="stop10521" />
      <stop
         stop-color="#cee0e9"
         offset="1"
         id="stop10523" />
    </linearGradient>
    <linearGradient
       id="linearGradient1454"
       x1="76.042999"
       x2="76.042999"
       y1="24.482"
       y2="20.084"
       gradientTransform="matrix(7.5637,0,0,7.5637,-543.5,-123.14)"
       gradientUnits="userSpaceOnUse">
      <stop
         stop-color="#dde8ed"
         offset="0"
         id="stop10516" />
      <stop
         stop-color="#dee6ee"
         offset="1"
         id="stop10518" />
    </linearGradient>
    <linearGradient
       id="linearGradient863"
       x1="8.5761003"
       x2="8.5761003"
       y1="9.4981003"
       y2="2.6824999"
       gradientTransform="matrix(3.7328212,0,0,3.7328212,65.656718,-46.841811)"
       gradientUnits="userSpaceOnUse"
       xlink:href="#a">
      <stop
         stop-color="#ff5f19"
         offset="0"
         id="stop10526" />
      <stop
         stop-color="#ffc819"
         offset="1"
         id="stop10528" />
    </linearGradient>
    <radialGradient
       xlink:href="#linearGradient4986"
       id="radialGradient4984-1"
       cx="36.651001"
       cy="12.791"
       fx="36.651001"
       fy="12.791"
       r="5.8540001"
       gradientTransform="matrix(0.23047061,-0.06922441,0.37154152,1.2369828,98.420164,-33.52786)"
       gradientUnits="userSpaceOnUse" />
    <linearGradient
       gradientUnits="userSpaceOnUse"
       x2="422.57001"
       y2="519.79999"
       x1="414.57001"
       y1="511.79999"
       id="linearGradient4986">
      <stop
         stop-color="#292c2f"
         style="stop-opacity:0.466"
         id="stop10258" />
      <stop
         stop-opacity="0"
         offset="1"
         id="stop10260" />
    </linearGradient>
    <radialGradient
       xlink:href="#g"
       id="radialGradient4974-4"
       cx="18.992001"
       cy="-11.809"
       fx="18.992001"
       fy="-11.809"
       r="8.4259996"
       gradientTransform="matrix(0.28187284,0.47473352,-0.11868335,0.07046819,87.364945,-24.051279)"
       gradientUnits="userSpaceOnUse" />
    <radialGradient
       xlink:href="#linearGradient4978"
       id="radialGradient4976-5"
       cx="28.299999"
       cy="10.776"
       fx="28.299999"
       fy="10.776"
       r="9.4639997"
       gradientTransform="matrix(0.20319894,-0.05805684,0.21133007,0.73965535,95.591814,-27.19503)"
       gradientUnits="userSpaceOnUse" />
    <linearGradient
       gradientUnits="userSpaceOnUse"
       x2="422.57001"
       y2="519.79999"
       x1="414.57001"
       y1="511.79999"
       id="linearGradient4978">
      <stop
         stop-color="#292c2f"
         style="stop-opacity:0.572"
         id="stop10263" />
      <stop
         stop-opacity="0"
         offset="1"
         id="stop10265" />
    </linearGradient>
    <linearGradient
       id="linearGradient4574">
      <stop
         style="stop-color:#f4be00;stop-opacity:1;"
         offset="0"
         id="stop10278" />
      <stop
         style="stop-color:#fff4ca;stop-opacity:1"
         offset="1"
         id="stop10280" />
    </linearGradient>
    <linearGradient
       id="linearGradient4838">
      <stop
         offset="0"
         style="stop-color:#2e9000;stop-opacity:1"
         id="stop10268" />
      <stop
         offset="1"
         style="stop-color:#00ba00;stop-opacity:1"
         id="stop10270" />
    </linearGradient>
    <linearGradient
       inkscape:collect="always"
       xlink:href="#a"
       id="linearGradient2975"
       x1="79.531097"
       y1="-19.124838"
       x2="115.72017"
       y2="-19.124838"
       gradientUnits="userSpaceOnUse"
       gradientTransform="translate(-73.627119,37.830508)" />
    <linearGradient
       id="f-3"
       y1="523.79999"
       y2="507.79999"
       gradientUnits="userSpaceOnUse"
       x2="0"
       gradientTransform="translate(-327.21407,-553.02034)">
      <stop
         stop-color="#7cbaf8"
         id="stop1674-6" />
      <stop
         offset="1"
         stop-color="#f4fcff"
         id="stop1676-7" />
    </linearGradient>
    <linearGradient
       id="f-35"
       y1="523.79999"
       y2="507.79999"
       gradientUnits="userSpaceOnUse"
       x2="0"
       gradientTransform="matrix(0.95,0,0,0.95,-362.33764,-476.49648)">
      <stop
         stop-color="#7cbaf8"
         id="stop1674-62" />
      <stop
         offset="1"
         stop-color="#f4fcff"
         id="stop1676-9" />
    </linearGradient>
  </defs>
  <g
     stroke-width="7.5637"
     id="g10556"
     transform="matrix(2.6457026,0,0,2.6457026,1.6000002,1.6000002)">
    <path
       transform="scale(0.26458)"
       d="M 32,2 A 30,30 0 0 0 2,32 30,30 0 0 0 32,62 30,30 0 0 0 62,32 30,30 0 0 0 32,2 Z"
       fill="url(#linearGradient1545)"
       id="path10550"
       style="fill:url(#linearGradient1545)" />
    <path
       transform="scale(0.26458)"
       d="m 31.945,28.529 a 3.7146,3.129 0 0 0 -0.36719,0.02344 3.7146,3.129 0 0 0 -0.36719,0.04687 3.7146,3.129 0 0 0 -0.35547,0.08594 3.7146,3.129 0 0 0 -0.35156,0.10938 3.7146,3.129 0 0 0 -0.33203,0.14062 3.7146,3.129 0 0 0 -0.3125,0.16797 3.7146,3.129 0 0 0 -0.29102,0.19141 3.7146,3.129 0 0 0 -0.19531,0.15234 l -22.486,18.943 a 30,30 0 0 0 25.113,13.609 30,30 0 0 0 25.104,-13.619 l -22.477,-18.934 A 3.7146,3.129 0 0 0 34.35329,29.23503 3.7146,3.129 0 0 0 34.05251,29.05144 3.7146,3.129 0 0 0 33.7361,28.89128 3.7146,3.129 0 0 0 33.40016,28.75847 3.7146,3.129 0 0 0 33.0486,28.65691 3.7146,3.129 0 0 0 32.68337,28.58269 3.7146,3.129 0 0 0 32.31618,28.53972 3.7146,3.129 0 0 0 31.94509,28.528 Z"
       fill="url(#linearGradient1454)"
       id="path10552"
       style="fill:url(#linearGradient1454)" />
    <path
       transform="scale(0.26458)"
       d="M 32,2 A 30,30 0 0 0 6.898,15.617 l 22.475,18.932 a 3.7146,3.129 0 0 0 0.19531,0.15234 3.7146,3.129 0 0 0 0.29102,0.19141 3.7146,3.129 0 0 0 0.3125,0.16797 3.7146,3.129 0 0 0 0.33203,0.14062 3.7146,3.129 0 0 0 0.35156,0.10938 3.7146,3.129 0 0 0 0.35547,0.08594 3.7146,3.129 0 0 0 0.36719,0.04687 3.7146,3.129 0 0 0 0.36719,0.02344 3.7146,3.129 0 0 0 0.37109,-0.0098 3.7146,3.129 0 0 0 0.36719,-0.04297 3.7146,3.129 0 0 0 0.36523,-0.07422 3.7146,3.129 0 0 0 0.35156,-0.10156 3.7146,3.129 0 0 0 0.33594,-0.13281 3.7146,3.129 0 0 0 0.31641,-0.16211 3.7146,3.129 0 0 0 0.30078,-0.18359 3.7146,3.129 0 0 0 0.27344,-0.21094 l 22.486,-18.941 a 30,30 0 0 0 -25.113,-13.607 z"
       fill="#ffffff"
       id="path10554" />
  </g>
  <path
     d="M 40.426901,10.919805 24.156112,23.442112 c 0.02112,-0.01617 -0.336972,-0.0162 -0.315813,0 L 7.5869902,10.93381 a 21.000011,21.000011 0 0 0 -1.683008,2.454128 L 22.027075,25.798943 c 1.200303,0.923854 2.742684,0.923791 3.94298,0 L 42.093051,13.390037 a 21.000011,21.000011 0 0 0 -1.6664,-2.470507 z"
     color-rendering="auto"
     dominant-baseline="auto"
     image-rendering="auto"
     shape-rendering="auto"
     solid-color="#000000"
     style="font-variant-ligatures:normal;font-variant-position:normal;font-variant-caps:normal;font-variant-numeric:normal;font-variant-alternates:normal;font-feature-settings:normal;text-indent:0;text-decoration-line:none;text-decoration-style:solid;text-decoration-color:#000000;text-transform:none;text-orientation:mixed;white-space:normal;shape-padding:0;isolation:auto;mix-blend-mode:normal;fill:url(#linearGradient2975);fill-opacity:1;stroke-width:0.699997;paint-order:stroke fill markers"
     id="path10558" />
</svg>
