<?xml version="1.0" encoding="UTF-8" standalone="no"?>
<svg
   width="48"
   height="48"
   version="1.1"
   viewBox="0 0 12.7 12.7"
   id="svg61"
   sodipodi:docname="marknote.svg"
   inkscape:version="1.4 (e7c3feb100, 2024-10-09)"
   xmlns:inkscape="http://www.inkscape.org/namespaces/inkscape"
   xmlns:sodipodi="http://sodipodi.sourceforge.net/DTD/sodipodi-0.dtd"
   xmlns:xlink="http://www.w3.org/1999/xlink"
   xmlns="http://www.w3.org/2000/svg"
   xmlns:svg="http://www.w3.org/2000/svg"
   xmlns:rdf="http://www.w3.org/1999/02/22-rdf-syntax-ns#"
   xmlns:cc="http://creativecommons.org/ns#"
   xmlns:dc="http://purl.org/dc/elements/1.1/">
  <sodipodi:namedview
     id="namedview63"
     pagecolor="#ffffff"
     bordercolor="#666666"
     borderopacity="1.0"
     inkscape:showpageshadow="2"
     inkscape:pageopacity="0.0"
     inkscape:pagecheckerboard="0"
     inkscape:deskcolor="#d1d1d1"
     showgrid="false"
     inkscape:zoom="4.9166667"
     inkscape:cx="21.661017"
     inkscape:cy="24.406779"
     inkscape:window-width="1920"
     inkscape:window-height="994"
     inkscape:window-x="0"
     inkscape:window-y="0"
     inkscape:window-maximized="1"
     inkscape:current-layer="svg61" />
  <defs
     id="defs17">
    <linearGradient
       inkscape:collect="always"
       id="linearGradient879">
      <stop
         style="stop-color:#1ba97f;stop-opacity:1"
         offset="0"
         id="stop875" />
      <stop
         style="stop-color:#4fbabb;stop-opacity:1;"
         offset="0.81965989"
         id="stop3" />
      <stop
         style="stop-color:#008080;stop-opacity:1"
         offset="0.82922381"
         id="stop1" />
      <stop
         style="stop-color:#008080;stop-opacity:1"
         offset="1"
         id="stop877" />
    </linearGradient>
    <linearGradient
       id="linearGradient1737"
       x1="26"
       x2="26"
       y1="-2.3248892"
       y2="36.339279"
       gradientTransform="matrix(1,0,0,0.97619054,-22.502366,-246.90532)"
       gradientUnits="userSpaceOnUse">
      <stop
         stop-color="#da4453"
         offset="0"
         id="stop1733"
         style="stop-color:#1ba97f;stop-opacity:1" />
      <stop
         stop-color="#da4453"
         stop-opacity=".07522124"
         offset="1"
         id="stop1735"
         style="stop-color:#61c0cf;stop-opacity:1" />
    </linearGradient>
    <linearGradient
       id="linearGradient967"
       x1="24"
       x2="24"
       y1="318.58539"
       y2="131.68687"
       gradientTransform="matrix(0.26458217,0,0,0.25828373,-22.502315,-68.199054)"
       gradientUnits="userSpaceOnUse">
      <stop
         stop-color="#da4453"
         offset="0"
         id="stop2" />
      <stop
         stop-color="#fcfcfc"
         offset="1"
         id="stop4" />
    </linearGradient>
    <linearGradient
       id="linearGradient2591"
       x1="26"
       x2="26"
       y1="-2.3248892"
       y2="36.339279"
       gradientTransform="matrix(1,0,0,0.97619054,-22.502366,-246.90532)"
       gradientUnits="userSpaceOnUse">
      <stop
         stop-color="#da4453"
         offset="0"
         id="stop7" />
      <stop
         stop-color="#da4453"
         stop-opacity=".07522124"
         offset="1"
         id="stop9" />
    </linearGradient>
    <linearGradient
       id="linearGradient2617"
       x1="10.219758"
       x2="10.219758"
       y1="12.866261"
       y2="31.200516"
       gradientTransform="matrix(0.26458217,0,0,0.26458335,-20.924216,-2.5948147)"
       gradientUnits="userSpaceOnUse">
      <stop
         stop-color="#da4453"
         offset="0"
         id="stop12" />
      <stop
         stop-color="#da4453"
         stop-opacity="0"
         offset="1"
         id="stop14" />
    </linearGradient>
    <linearGradient
       gradientTransform="matrix(0.27780271,0,0,0.27778711,-119.85224,-139.15435)"
       gradientUnits="userSpaceOnUse"
       x2="426.69501"
       y2="499.92099"
       y1="547.67499"
       id="a-6"
       x1="389.32001"
       xlink:href="#linearGradient2617">
      <stop
         stop-color="#18222a"
         style="stop-color:#1e2b35;stop-opacity:1"
         id="stop216-3" />
      <stop
         stop-color="#566069"
         offset="1"
         style="stop-color:#6d7983;stop-opacity:1"
         id="stop218" />
    </linearGradient>
    <linearGradient
       id="b"
       x1="13"
       x2="42"
       y1="14"
       y2="43"
       gradientUnits="userSpaceOnUse"
       gradientTransform="matrix(0.79499994,0,0,0.79499994,61.987735,-38.788769)">
      <stop
         stop-color="#ffb24d"
         offset="0"
         id="stop7-3" />
      <stop
         stop-color="#ffa733"
         offset=".36206895"
         id="stop9-6" />
      <stop
         stop-color="#f28100"
         offset="1"
         id="stop11" />
    </linearGradient>
    <linearGradient
       id="c"
       x1="23"
       x2="42"
       y1="25"
       y2="44"
       gradientUnits="userSpaceOnUse"
       gradientTransform="matrix(0.79499994,0,0,0.79499994,61.987735,-38.788769)">
      <stop
         stop-color="#e5840b"
         offset="0"
         id="stop14-7" />
      <stop
         stop-color="#f27a00"
         offset="1"
         id="stop16" />
    </linearGradient>
    <linearGradient
       id="f"
       x1="16"
       x2="34"
       y1="22"
       y2="28"
       gradientUnits="userSpaceOnUse"
       gradientTransform="matrix(0.79499994,0,0,0.79499994,61.987735,-38.788769)">
      <stop
         stop-color="#ffb24d"
         offset="0"
         id="stop21" />
      <stop
         stop-color="#ffa733"
         offset=".15737528"
         id="stop23" />
      <stop
         stop-color="#f28100"
         offset="1"
         id="stop25" />
    </linearGradient>
    <linearGradient
       id="a">
      <stop
         stop-color="#fff"
         offset="0"
         id="stop2-5" />
      <stop
         stop-color="#f5f5f5"
         offset="1"
         id="stop4-3" />
    </linearGradient>
    <linearGradient
       inkscape:collect="always"
       xlink:href="#linearGradient879"
       id="linearGradient881"
       x1="-11.90587"
       y1="6.3505816"
       x2="-0.79374999"
       y2="6.4884243"
       gradientUnits="userSpaceOnUse" />
    <radialGradient
       id="b-2"
       cx="-12.915"
       cy="3.5248001"
       r="11.947"
       gradientTransform="matrix(0.25904124,-5.6426488e-4,-0.00116448,0.06564168,1.2428881,11.348246)"
       gradientUnits="userSpaceOnUse">
      <stop
         offset="0"
         id="stop3-9" />
      <stop
         stop-opacity=".88235"
         offset=".39103"
         id="stop4-1" />
      <stop
         stop-opacity=".31013"
         offset=".79634"
         id="stop5-2" />
      <stop
         stop-opacity="0"
         offset="1"
         id="stop6-7" />
    </radialGradient>
  </defs>
  <metadata
     id="metadata19">
    <rdf:RDF>
      <cc:Work
         rdf:about="">
        <dc:format>image/svg+xml</dc:format>
        <dc:type
           rdf:resource="http://purl.org/dc/dcmitype/StillImage" />
      </cc:Work>
    </rdf:RDF>
  </metadata>
  <rect
     width="11.112109"
     x="-11.906064"
     y="0.79476839"
     rx="5.5560546"
     height="11.111486"
     transform="scale(-1,1)"
     id="rect223"
     ry="5.5557432"
     style="fill-opacity:1;fill:url(#linearGradient881)" />
  <path
     style="display:inline;overflow:visible;opacity:0.3;fill:#000000;fill-opacity:1;stroke-width:0.777827;stroke-opacity:0.55"
     d="m 0.79705,6.2116517 c -0.0011,0.04631 -0.0033,0.092356 -0.0033,0.1389301 0,3.0779031 2.478006,5.5557452 5.556039,5.5557452 3.078033,0 5.556081,-2.4778421 5.556081,-5.5557452 0,-0.046575 -0.0021,-0.092356 -0.0033,-0.1389301 -0.07337,3.0131516 -2.522474,5.4168473 -5.552741,5.4168473 -3.031384,0 -5.479376,-2.4036957 -5.552707,-5.4168473"
     id="path225" />
  <path
     d="m 0.79705,6.4884244 c -0.0011,-0.04631 -0.0033,-0.092091 -0.0033,-0.1389274 0,-3.0778792 2.478006,-5.555747 5.556039,-5.555747 3.078033,0 5.556081,2.4778678 5.556081,5.555747 0,0.046572 -0.0021,0.092617 -0.0033,0.1389274 -0.07337,-3.0131515 -2.522476,-5.416846 -5.552744,-5.416846 -3.031382,0 -5.479373,2.4036945 -5.552705,5.416846"
     style="display:inline;overflow:visible;opacity:0.3;fill:#ffffff;fill-opacity:1;stroke-width:0.777827;stroke-opacity:0.55"
     id="path229" />
  <path
     d="m 3.4353475,7.2341138 h 2.116 c 0.53,0 0.794,-0.264 1.323,-0.264 0.53,0 0.874,0.264 1.323,0.264 H 10.314347 M 3.4353475,4.0591142 h 0.794 c 0.529,0 0.793,-0.265 1.322,-0.265 0.53,0 0.874,0.265 1.323,0.265 H 10.314347 M 3.4353475,5.6471138 h 3.44 c 0.529,0 0.793,-0.2649996 1.322,-0.2649996 0.53,0 0.8729999,0.2649996 1.3229999,0.2649996 h 0.7939996"
     fill="none"
     stroke="#ffffff"
     stroke-width="0.529"
     id="path20" />
  <path
     d="m 3.4353475,8.5571138 v 0.5299999 h 3.775 l 0.194,-0.5299999 z"
     fill="#ffffff"
     style="-inkscape-stroke:none"
     id="path21" />
  <path
     d="m 3.3633475,7.4991141 h 2.117 c 0.53,0 0.794,-0.265 1.323,-0.265 0.53,0 0.873,0.265 1.323,0.265 h 2.1169995 m -6.8799995,-3.175 h 0.794 c 0.53,0 0.794,-0.265 1.323,-0.265 0.53,0 0.873,0.265 1.323,0.265 h 3.4399995 m -6.8799995,1.588 h 3.44 c 0.53,0 0.794,-0.265 1.323,-0.265 0.53,0 0.8729999,0.264 1.3229999,0.264 h 0.7939996"
     fill="none"
     opacity="0.3"
     stroke="#ffffff"
     stroke-width="0.529"
     id="path22" />
  <path
     d="m 3.3643475,8.8221137 v 0.53 h 3.775 l 0.265,-0.53 z"
     fill="#ffffff"
     style="opacity:0.3;-inkscape-stroke:none"
     id="path23" />
  <rect
     transform="matrix(0.49696149,-0.8677726,0.89227089,0.45150045,0,0)"
     x="-7.1029959"
     y="10.38792"
     width="8.0453444"
     height="1.9991777"
     fill="url(#b)"
     opacity="0.43346"
     stroke-width="0.112554"
     id="rect23"
     style="fill:url(#b-2)" />
  <path
     d="M 10.338245,3.2056917 10.130854,3.2169401 7.9163392,8.3391487 7.8896244,9.3409527 8.5996752,8.6344174 10.81419,3.5122087 10.679913,3.3533261 Z"
     fill="#bdc3c7"
     id="path24-0"
     style="stroke-width:0.703021" />
  <path
     d="M 10.130151,3.2169401 7.9177452,8.3391487 8.0513191,8.4987344 10.265131,3.3765258 Z"
     fill-opacity="0.2"
     id="path25-9"
     style="stroke-width:0.703021" />
  <path
     d="M 10.813487,3.5122087 10.606096,3.5234571 8.3922841,8.6463687 8.5996752,8.6344174 Z"
     fill="#ffffff"
     fill-opacity="0.2"
     id="path26-3"
     style="stroke-width:0.703021" />
  <path
     d="m 8.0506161,8.4980314 0.341668,0.1476343 -0.5026597,0.695287 z"
     fill-opacity="0.2"
     id="path27"
     style="stroke-width:0.703021" />
  <path
     d="M 7.9170422,8.3391487 8.0506161,8.4987344 7.8889214,9.3409527 Z"
     fill-opacity="0.4"
     id="path28"
     style="stroke-width:0.703021" />
  <path
     d="m 10.338245,3.2056917 -0.207391,0.011248 0.133574,0.1595857 0.341668,0.1476343 0.207391,-0.011951 -0.133574,-0.1588826 z"
     fill-opacity="0.2"
     id="path29-6"
     style="stroke-width:0.703021" />
  <path
     d="m 8.0646765,7.9981837 -0.073817,0.170834 0.1335739,0.1588827 0.341668,0.1476343 0.2073911,-0.011951 0.073817,-0.170131 -0.2073911,0.011248 -0.3416681,-0.1476343 z m 1.9550995,-4.5253441 -0.07382,0.170834 0.133574,0.1595857 0.341668,0.1476343 0.208094,-0.011951 0.07382,-0.1708341 -0.208095,0.011951 -0.340965,-0.1476343 z m -0.1476336,0.341668 -0.07382,0.170834 0.133574,0.1595857 0.3416676,0.1476343 0.208094,-0.011951 0.07382,-0.170834 -0.208094,0.011951 -0.340965,-0.1476343 z"
     fill="#ffffff"
     fill-opacity="0.4"
     id="path30-0"
     style="stroke-width:0.703021" />
  <path
     d="m 8.3156549,8.9170317 -0.135683,0.0232 -0.1968458,-0.08507 -0.077332,-0.1131861 -0.01617,0.5989731 z"
     fill-opacity="0.266"
     id="path31"
     style="stroke-width:0.703021" />
</svg>
