<?xml version="1.0" encoding="UTF-8" standalone="no"?>
<svg
   width="48"
   height="48"
   version="1"
   id="svg4"
   sodipodi:docname="eclipse.svg"
   inkscape:version="1.3.2 (091e20ef0f, 2023-11-25)"
   xmlns:inkscape="http://www.inkscape.org/namespaces/inkscape"
   xmlns:sodipodi="http://sodipodi.sourceforge.net/DTD/sodipodi-0.dtd"
   xmlns="http://www.w3.org/2000/svg"
   xmlns:svg="http://www.w3.org/2000/svg">
  <defs
     id="defs4" />
  <sodipodi:namedview
     id="namedview4"
     pagecolor="#ffffff"
     bordercolor="#999999"
     borderopacity="1"
     inkscape:showpageshadow="2"
     inkscape:pageopacity="0"
     inkscape:pagecheckerboard="0"
     inkscape:deskcolor="#d1d1d1"
     inkscape:zoom="6.2265625"
     inkscape:cx="31.959849"
     inkscape:cy="20.958595"
     inkscape:window-width="1920"
     inkscape:window-height="994"
     inkscape:window-x="0"
     inkscape:window-y="0"
     inkscape:window-maximized="1"
     inkscape:current-layer="svg4" />
  <g
     transform="matrix(0.80769048,0,0,0.80769048,-4.2691668,-1.8460951)"
     id="g4">
    <rect
       width="52"
       height="52"
       x="-58"
       y="-58"
       fill="#f7941e"
       rx="26"
       ry="26"
       transform="matrix(0,-1,-1,0,0,0)"
       id="rect1" />
    <g
       stroke-width="0.871"
       id="g3">
      <path
         d="M 38,6 A 25.938,25.938 0 0 0 13.37,23.642 H 62.63 A 25.938,25.938 0 0 0 37.999,6 Z M 12.42,27.358 a 26.183,26.183 0 0 0 -0.346,2.785 h 51.855 a 26.183,26.183 0 0 0 -0.346,-2.786 z m -0.347,6.498 c 0.066,0.945 0.183,1.873 0.346,2.786 h 51.163 c 0.163,-0.913 0.28,-1.841 0.346,-2.786 z m 1.297,6.501 A 25.938,25.938 0 0 0 38.001,58 25.938,25.938 0 0 0 62.631,40.357 Z"
         id="path1"
         style="fill:#bc5fd3" />
      <path
         d="M 21.245,39.429 A 18.2,18.2 0 0 0 38,50.57 18.2,18.2 0 0 0 54.747,39.428 Z"
         id="path2"
         style="fill:#5f5fd3" />
      <path
         fill="#ffffff"
         d="m 13.37,23.643 a 25.884,25.884 0 0 0 -0.952,3.714 h 51.163 a 25.884,25.884 0 0 0 -0.95,-3.714 z m -1.298,6.5 A 26.547,26.547 0 0 0 12,32 c 0,0.625 0.03,1.243 0.072,1.857 H 63.927 A 26.71,26.71 0 0 0 64,32 c 0,-0.625 -0.03,-1.243 -0.073,-1.857 z m 0.346,6.5 a 25.884,25.884 0 0 0 0.951,3.714 h 49.26 a 25.884,25.884 0 0 0 0.951,-3.714 z"
         id="path3" />
    </g>
  </g>
</svg>
