<?xml version="1.0" encoding="UTF-8" standalone="no"?>
<svg
   width="48"
   height="48"
   version="1.1"
   id="svg6"
   sodipodi:docname="portal-2.svg"
   inkscape:version="1.4 (unknown)"
   xmlns:inkscape="http://www.inkscape.org/namespaces/inkscape"
   xmlns:sodipodi="http://sodipodi.sourceforge.net/DTD/sodipodi-0.dtd"
   xmlns:xlink="http://www.w3.org/1999/xlink"
   xmlns="http://www.w3.org/2000/svg"
   xmlns:svg="http://www.w3.org/2000/svg">
  <defs
     id="defs6">
    <linearGradient
       id="linearGradient6"
       inkscape:collect="always">
      <stop
         style="stop-color:#2d3d53;stop-opacity:1;"
         offset="0"
         id="stop6" />
      <stop
         style="stop-color:#374762;stop-opacity:1;"
         offset="1"
         id="stop7" />
    </linearGradient>
    <linearGradient
       inkscape:collect="always"
       xlink:href="#linearGradient6"
       id="linearGradient7"
       x1="31.5"
       y1="59.017548"
       x2="31.5"
       y2="4.9824524"
       gradientUnits="userSpaceOnUse"
       gradientTransform="translate(-0.5,-1)" />
  </defs>
  <sodipodi:namedview
     id="namedview6"
     pagecolor="#ffffff"
     bordercolor="#000000"
     borderopacity="0.25"
     inkscape:showpageshadow="2"
     inkscape:pageopacity="0.0"
     inkscape:pagecheckerboard="0"
     inkscape:deskcolor="#d1d1d1"
     inkscape:zoom="5"
     inkscape:cx="48"
     inkscape:cy="73.3"
     inkscape:window-width="1920"
     inkscape:window-height="998"
     inkscape:window-x="0"
     inkscape:window-y="0"
     inkscape:window-maximized="1"
     inkscape:current-layer="svg6" />
  <g
     id="g1"
     transform="matrix(0.75,0,0,0.75,0.875,0.75)">
    <ellipse
       style="opacity:0.2;stroke-width:0.982302"
       cx="31"
       cy="31.491226"
       id="circle1"
       rx="27.5"
       ry="27.508774" />
    <ellipse
       style="fill:url(#linearGradient7);stroke-width:0.982302"
       cx="31"
       cy="30.508774"
       id="circle2"
       rx="27.5"
       ry="27.508774" />
    <path
       style="opacity:0.1;fill:#ffffff;stroke-width:0.982302"
       d="M 30.998078,3 A 27.499991,27.508765 0 0 0 3.5,30.508765 27.499991,27.508765 0 0 0 3.5172646,30.992322 27.499991,27.508765 0 0 1 30.998078,3.9824558 h 0.0019 A 27.499991,27.508765 0 0 1 58.473131,30.999995 27.499991,27.508765 0 0 0 58.498078,30.508765 27.499991,27.508765 0 0 0 30.999991,3 Z"
       id="path4" />
    <path
       d="m 28.998469,50.928126 c -1.85772,-0.184427 -3.685949,-0.593854 -4.894942,-1.102871 a 11.057841,11.065526 0 0 1 -0.549208,-0.236065 29.48758,29.508074 0 0 1 -0.21747,-1.165566 l -0.372277,-2.076629 c -0.58238,-3.146302 -1.208994,-6.897516 -1.164759,-6.941775 0.02209,-0.02587 3.604853,2.375398 7.747862,5.186038 3.792839,2.57458 4.530029,3.076212 6.258737,4.234412 1.732396,1.165565 1.629187,1.084425 1.54441,1.132373 a 14.743791,14.754038 0 0 1 -1.783999,0.579092 22.115682,22.131052 0 0 1 -2.639134,0.416801 33.173529,33.196584 0 0 1 -3.92922,-0.02584 m 9.111662,-1.991803 a 77.404895,77.458691 0 0 1 -3.844447,-2.648346 70.033002,70.081674 0 0 0 -2.458526,-1.700408 7.3718951,7.3770185 0 0 1 -1.172132,-0.811468 c -0.250646,-0.213928 -0.36122,-0.383609 -0.250646,-0.383609 0.06631,0 3.391076,-0.619665 5.823802,-1.084416 2.819744,-0.538523 8.002188,-1.556553 11.503838,-2.253679 0.641359,-0.129098 1.179503,-0.221309 1.201619,-0.199182 0.03688,0.03691 -0.250643,0.601229 -0.729814,1.40532 a 19.53552,19.549097 0 0 1 -4.799105,5.470061 29.48758,29.508074 0 0 1 -2.506448,1.685648 22.115682,22.131052 0 0 1 -1.975666,0.988519 c -0.03687,0 -0.394392,-0.210239 -0.792475,-0.464751 z M 21.372239,48.512105 a 16.955356,16.96714 0 0 1 -4.471051,-3.290146 20.641306,20.655652 0 0 1 -3.177289,-4.086868 25.801632,25.819564 0 0 1 -1.050491,-1.954914 c 0,-0.05532 1.573896,-2.415975 2.904522,-4.356126 1.102099,-1.611877 2.204199,-3.260644 2.786579,-4.179083 0.07003,-0.103275 0.136382,-0.17705 0.151123,-0.162295 0.07371,0.07381 1.017323,4.647524 1.809799,8.774963 0.70033,3.644249 0.840399,4.370891 1.113155,5.735638 0.313311,1.582367 0.715073,3.544653 0.77405,3.773338 q 0.0332,0.136479 -0.02209,0.136479 c -0.02952,0 -0.398083,-0.177046 -0.818282,-0.390986 M 39.23068,40.415831 c -0.0184,-0.05162 0.03687,-0.15861 0.15481,-0.291389 0.09952,-0.118042 0.685589,-0.966393 1.297453,-1.892216 0.987836,-1.490156 1.691854,-2.508176 3.206779,-4.658579 a 254.33035,254.50711 0 0 0 5.610009,-8.177426 7.3718951,7.3770185 0 0 1 0.434942,-0.638115 c 0.06264,-0.008 0.409138,0.999584 0.597126,1.72622 0.361219,1.401641 0.471801,2.452863 0.468114,4.359827 q -0.01472,4.116369 -1.231107,7.299558 l -0.147437,0.3836 -0.258019,0.05162 -1.039439,0.202867 -4.482109,0.85573 a 320.67743,320.9003 0 0 1 -4.441562,0.829924 q -0.143751,0.03691 -0.169555,-0.05162 M 11.910424,36.944944 c -0.637664,-1.619259 -0.906739,-3.338105 -0.910426,-5.802023 0,-1.991802 0.12532,-3.18319 0.527088,-4.983175 0.158499,-0.722951 0.619241,-2.172539 0.718761,-2.272125 0.03688,-0.03691 0.486546,-0.136479 1.006266,-0.225 0.939915,-0.16229 2.701801,-0.486881 4.681153,-0.863115 3.30998,-0.627042 4.769613,-0.874172 4.883881,-0.829911 0.03687,0.01473 0.07371,0.07006 0.07371,0.121722 0,0.10696 0.01472,0.07749 -0.932545,1.412704 l -1.150017,1.626624 -1.607069,2.279506 a 409.14017,409.42452 0 0 0 -6.1666,8.881925 22.115682,22.131052 0 0 1 -0.858828,1.239335 3.6859473,3.688509 0 0 1 -0.26539,-0.590158 z M 43.296255,31.655619 A 33.173529,33.196584 0 0 0 43.111956,30.567513 L 42.761792,28.586782 41.434853,20.72288 C 41.22107,19.413457 40.524426,15.459377 40.281151,14.186841 a 5.1603263,5.1639127 0 0 1 -0.132695,-0.962698 c 0.05895,-0.05899 1.091044,0.520075 2.016215,1.136056 a 19.53552,19.549097 0 0 1 5.643182,5.735632 c 0.589754,0.922128 1.356431,2.342202 1.62182,3.009824 l 0.09583,0.250821 -0.309617,0.486887 c -0.335422,0.531143 -0.803538,1.187695 -2.174712,3.072521 -0.490229,0.678694 -1.197933,1.681962 -1.57021,2.231543 -0.939918,1.37951 -1.9941,2.773769 -2.108365,2.773769 -0.0184,0 -0.04792,-0.118034 -0.06631,-0.265577 M 40.111607,22.884347 A 40.545421,40.5736 0 0 0 38.158055,21.519596 575.00778,575.40741 0 0 1 25.607401,12.858978 11.057841,11.065526 0 0 1 24.542163,11.973737 c 0,-0.0369 1.065238,-0.36885 1.599701,-0.494264 0.534463,-0.125405 1.717653,-0.331965 2.403239,-0.413112 0.346483,-0.04427 1.164765,-0.06636 2.403239,-0.06636 1.647623,0 1.975671,0.01841 2.679689,0.110653 1.253217,0.173364 2.137845,0.346725 3.004043,0.597544 0.774051,0.221307 2.027275,0.697128 2.027275,0.767205 l 0.202722,1.180327 c 0.110582,0.627044 0.368596,2.183597 0.578699,3.452445 0.368596,2.279497 0.597122,3.614738 0.855136,5.045876 0.121637,0.682379 0.129011,0.896309 0.02953,0.896309 A 0.73718951,0.73770185 0 0 1 40.11161,22.884358 M 12.975655,22.320004 a 19.314367,19.32779 0 0 1 7.733119,-8.513074 c 0.836711,-0.501638 2.182081,-1.180328 2.340579,-1.180328 0.117951,0 0.40177,0.195495 4.0914,2.788514 2.185767,1.530731 2.823438,1.969665 3.55694,2.438106 0.63398,0.405739 1.25322,0.892617 1.25322,0.988523 0,0.02209 -0.06264,0.05531 -0.136377,0.07004 A 1017.3212,1018.0282 0 0 1 20.35861,21.065918 l -7.346095,1.364752 c -0.07744,0.02215 -0.08112,0.008 -0.03687,-0.110653"
       style="fill:#ff9955;fill-opacity:1;stroke-width:0.0500901"
       id="path1" />
  </g>
</svg>
