<?xml version="1.0" encoding="UTF-8" standalone="no"?>
<svg
   xmlns:dc="http://purl.org/dc/elements/1.1/"
   xmlns:cc="http://creativecommons.org/ns#"
   xmlns:rdf="http://www.w3.org/1999/02/22-rdf-syntax-ns#"
   xmlns:svg="http://www.w3.org/2000/svg"
   xmlns="http://www.w3.org/2000/svg"
   xmlns:xlink="http://www.w3.org/1999/xlink"
   xmlns:sodipodi="http://sodipodi.sourceforge.net/DTD/sodipodi-0.dtd"
   xmlns:inkscape="http://www.inkscape.org/namespaces/inkscape"
   viewBox="0 0 48 48"
   version="1.1"
   id="svg42"
   sodipodi:docname="baloo.svg"
   inkscape:version="0.92.5 (2060ec1f9f, 2020-04-08)">
  <metadata
     id="metadata46">
    <rdf:RDF>
      <cc:Work
         rdf:about="">
        <dc:format>image/svg+xml</dc:format>
        <dc:type
           rdf:resource="http://purl.org/dc/dcmitype/StillImage" />
        <dc:title></dc:title>
      </cc:Work>
    </rdf:RDF>
  </metadata>
  <sodipodi:namedview
     pagecolor="#ffffff"
     bordercolor="#666666"
     borderopacity="1"
     objecttolerance="10"
     gridtolerance="10"
     guidetolerance="10"
     inkscape:pageopacity="0"
     inkscape:pageshadow="2"
     inkscape:window-width="1085"
     inkscape:window-height="480"
     id="namedview44"
     showgrid="false"
     inkscape:zoom="4.9166667"
     inkscape:cx="2.1355932"
     inkscape:cy="24"
     inkscape:window-x="0"
     inkscape:window-y="25"
     inkscape:window-maximized="0"
     inkscape:current-layer="svg42" />
  <defs
     id="defs17">
    <linearGradient
       id="a"
       x1="370.22"
       x2="370.03"
       y1="509.64"
       y2="479.76"
       gradientTransform="matrix(1.4,0,0,1.4,-494.1,-384.37)"
       gradientUnits="userSpaceOnUse">
      <stop
         stop-color="#197cf1"
         offset="0"
         id="stop2" />
      <stop
         stop-color="#21c9fb"
         offset="1"
         id="stop4" />
    </linearGradient>
    <linearGradient
       id="d"
       x2="0"
       y1="532.79"
       y2="514.8"
       gradientTransform="matrix(1.7778,0,0,1.7778,-703.31,-908.76)"
       gradientUnits="userSpaceOnUse">
      <stop
         stop-color="#7cbaf8"
         offset="0"
         id="stop7" />
      <stop
         stop-color="#f4fcff"
         offset="1"
         id="stop9" />
    </linearGradient>
    <linearGradient
       id="c"
       x1="25.793"
       x2="41.606"
       y1="26.896"
       y2="43.624"
       gradientTransform="translate(-5.029,277.22)"
       gradientUnits="userSpaceOnUse">
      <stop
         stop-color="#292c2f"
         offset="0"
         id="stop12" />
      <stop
         stop-color="#292c2f"
         stop-opacity="0"
         offset="1"
         id="stop14" />
    </linearGradient>
  </defs>
  <g
     transform="translate(0,-284.3)"
     id="g38">
    <circle
       cx="24"
       cy="308.29999"
       r="21"
       id="circle19"
       style="fill:url(#a)" />
    <g
       transform="matrix(0.86117,0,0,0.80538,4.807,61.107)"
       id="g34"
       style="fill:#ffffff">
      <path
         d="m 19.174,308.68 c -0.921,-0.433 -2.647,-0.403 -3.447,-0.039 -2.624,1.194 -5.883,0.327 -5.843,-2.367 0.036,-2.437 0.799,-3.356 3.34,-5.018 1.962,-1.698 2.658,-2.328 3.927,-2.262 1.782,0.093 2.447,0.872 3.785,2.262 2.236,1.537 3.71,2.236 3.601,4.707 -0.054,2.95 -3.448,3.38 -5.363,2.717 z"
         id="path21"
         inkscape:connector-curvature="0"
         style="opacity:0.68999999" />
      <path
         id="b"
         d="m 17.021,298.2 c -0.737,-0.045 -1.364,-0.683 -1.404,-1.657 -0.037,-0.897 0.076,-1.818 0.924,-2.63 0.165,-1.953 0.265,-1.866 0.798,-3.693 0.327,1.877 0.384,2.228 0.404,3.71 0.733,0.563 0.907,1.275 0.808,2.37 -0.084,0.934 -0.616,1.897 -1.53,1.9 z"
         inkscape:connector-curvature="0"
         style="opacity:0.68999999;fill:#ffffff;stroke-width:0.93599999" />
      <g
         id="g32"
         style="stroke-width:1.03299999">
        <use
           transform="translate(-6.863,3.941)"
           width="100%"
           height="100%"
           xlink:href="#b"
           id="use24"
           x="0"
           y="0" />
        <use
           transform="translate(-3.501,1.038)"
           width="100%"
           height="100%"
           xlink:href="#b"
           id="use26"
           x="0"
           y="0" />
        <use
           transform="matrix(-1,0,0,1,37.832,1.502)"
           width="100%"
           height="100%"
           xlink:href="#b"
           id="use28"
           x="0"
           y="0" />
        <use
           transform="matrix(-1,0,0,1,41.131,4.028)"
           width="100%"
           height="100%"
           xlink:href="#b"
           id="use30"
           x="0"
           y="0" />
      </g>
    </g>
    <path
       d="m 27.5,293.8 1.378,5.116 0.42,8.8 -4.119,4.398 -6.852,1.643 L 10,311.3 27.5,328.8 c 7.606,-0.022 16.947,-9.27 17,-18 z"
       id="path36"
       style="opacity:0.2;fill:url(#c)"
       inkscape:connector-curvature="0" />
  </g>
  <path
     d="m 19.493,6.444 c -6.87,0 -12.438,5.569 -12.438,12.438 0,6.87 5.569,12.438 12.438,12.438 a 12.439,12.439 0 0 0 7.437,-2.488 l 9.613,10.113 2.512,-2.512 -9.613,-10.113 a 12.438,12.438 0 0 0 2.489,-7.437 c 0,-6.87 -5.57,-12.438 -12.438,-12.438 m 0,3.553 a 8.884,8.884 0 0 1 8.884,8.885 8.865,8.865 0 0 1 -8.885,8.884 8.884,8.884 0 0 1 -8.885,-8.884 c 0,-5.53 3.898,-8.884 8.885,-8.884"
     id="path40"
     style="fill:url(#d)"
     inkscape:connector-curvature="0" />
</svg>
