<?xml version="1.0" encoding="UTF-8" standalone="no"?>
<svg
   xmlns:dc="http://purl.org/dc/elements/1.1/"
   xmlns:cc="http://creativecommons.org/ns#"
   xmlns:rdf="http://www.w3.org/1999/02/22-rdf-syntax-ns#"
   xmlns:svg="http://www.w3.org/2000/svg"
   xmlns="http://www.w3.org/2000/svg"
   xmlns:xlink="http://www.w3.org/1999/xlink"
   xmlns:sodipodi="http://sodipodi.sourceforge.net/DTD/sodipodi-0.dtd"
   xmlns:inkscape="http://www.inkscape.org/namespaces/inkscape"
   width="48"
   height="48"
   version="1.1"
   id="svg149"
   sodipodi:docname="preferences-desktop-theme-global.svg"
   inkscape:version="0.92.5 (2060ec1f9f, 2020-04-08)">
  <metadata
     id="metadata153">
    <rdf:RDF>
      <cc:Work
         rdf:about="">
        <dc:format>image/svg+xml</dc:format>
        <dc:type
           rdf:resource="http://purl.org/dc/dcmitype/StillImage" />
        <dc:title></dc:title>
      </cc:Work>
    </rdf:RDF>
  </metadata>
  <sodipodi:namedview
     pagecolor="#ffffff"
     bordercolor="#666666"
     borderopacity="1"
     objecttolerance="10"
     gridtolerance="10"
     guidetolerance="10"
     inkscape:pageopacity="0"
     inkscape:pageshadow="2"
     inkscape:window-width="1085"
     inkscape:window-height="480"
     id="namedview151"
     showgrid="false"
     inkscape:zoom="4.9166667"
     inkscape:cx="2.1355932"
     inkscape:cy="24"
     inkscape:window-x="0"
     inkscape:window-y="25"
     inkscape:window-maximized="0"
     inkscape:current-layer="svg149" />
  <defs
     id="defs109">
    <linearGradient
       id="a"
       y1="542.22"
       x1="398.09"
       y2="524.9"
       x2="394"
       gradientUnits="userSpaceOnUse"
       gradientTransform="translate(-384.57 -499.8)">
      <stop
         stop-color="#334545"
         id="stop2" />
      <stop
         offset="1"
         stop-color="#536161"
         id="stop4" />
    </linearGradient>
    <linearGradient
       id="c"
       y1="521.63"
       x1="404.05"
       y2="528.35"
       x2="430.74"
       gradientUnits="userSpaceOnUse"
       gradientTransform="translate(-444.57 -499.8)">
      <stop
         stop-color="#cc4a5e"
         id="stop7" />
      <stop
         offset="1"
         stop-color="#aa478a"
         id="stop9" />
    </linearGradient>
    <linearGradient
       id="b"
       y1="503.08"
       x1="418.17"
       y2="531.46"
       x2="384.57"
       gradientUnits="userSpaceOnUse"
       gradientTransform="translate(-384.57 -499.8)">
      <stop
         stop-color="#4ce0c6"
         id="stop12" />
      <stop
         offset="1"
         stop-color="#3b85b5"
         id="stop14" />
    </linearGradient>
    <linearGradient
       id="d">
      <stop
         stop-color="#eff0f1"
         id="stop17" />
      <stop
         offset="1"
         stop-color="#fcfcfc"
         id="stop19" />
    </linearGradient>
    <linearGradient
       id="e">
      <stop
         stop-color="#383e51"
         id="stop22" />
      <stop
         offset="1"
         stop-color="#655c6f"
         stop-opacity="0"
         id="stop24" />
    </linearGradient>
    <linearGradient
       id="f">
      <stop
         stop-color="#1abc9c"
         id="stop27" />
      <stop
         offset="1"
         stop-color="#2980b9"
         id="stop29" />
    </linearGradient>
    <linearGradient
       id="g">
      <stop
         stop-color="#cc4a5e"
         id="stop32" />
      <stop
         offset="1"
         stop-color="#aa478a"
         id="stop34" />
    </linearGradient>
    <linearGradient
       id="h">
      <stop
         stop-color="#334545"
         id="stop37" />
      <stop
         offset="1"
         stop-color="#536161"
         id="stop39" />
    </linearGradient>
    <linearGradient
       id="n"
       gradientTransform="matrix(1.5078875,0.40403723,0.40403723,-1.5078875,-29.885987,40.491889)"
       gradientUnits="userSpaceOnUse"
       x1="8"
       x2="24"
       xlink:href="#i"
       y1="24"
       y2="8" />
    <linearGradient
       id="i">
      <stop
         offset="0"
         stop-color="#e51561"
         id="stop43" />
      <stop
         offset=".312"
         stop-color="#e4156c"
         id="stop45" />
      <stop
         offset=".562"
         stop-color="#e71e2c"
         id="stop47" />
      <stop
         offset=".75"
         stop-color="#e8301e"
         id="stop49" />
      <stop
         offset="1"
         stop-color="#e6320e"
         id="stop51" />
    </linearGradient>
    <linearGradient
       xlink:href="#j"
       id="o"
       gradientUnits="userSpaceOnUse"
       gradientTransform="matrix(-1.5078875,-0.40403723,-0.40403723,1.5078875,61.885387,-12.491783)"
       x1="8"
       y1="24"
       x2="24"
       y2="8" />
    <linearGradient
       id="j">
      <stop
         offset="0"
         stop-color="#bec900"
         id="stop55" />
      <stop
         offset=".312"
         stop-color="#9ec80a"
         id="stop57" />
      <stop
         offset=".562"
         stop-color="#71b93d"
         id="stop59" />
      <stop
         offset=".75"
         stop-color="#35a48f"
         id="stop61" />
      <stop
         offset="1"
         stop-color="#018fca"
         id="stop63" />
    </linearGradient>
    <linearGradient
       xlink:href="#k"
       id="p"
       gradientUnits="userSpaceOnUse"
       gradientTransform="matrix(-1.5078875,-0.40403723,0.40403723,-1.5078875,42.491765,59.885565)"
       x1="8"
       y1="24"
       x2="24"
       y2="8" />
    <linearGradient
       id="k">
      <stop
         offset="0"
         stop-color="#c1cc00"
         id="stop67" />
      <stop
         offset=".312"
         stop-color="#dfcd00"
         id="stop69" />
      <stop
         offset=".562"
         stop-color="#f0cc00"
         id="stop71" />
      <stop
         offset=".75"
         stop-color="#fd8c08"
         id="stop73" />
      <stop
         offset="1"
         stop-color="#f25c13"
         id="stop75" />
    </linearGradient>
    <linearGradient
       xlink:href="#j"
       id="q"
       gradientUnits="userSpaceOnUse"
       gradientTransform="matrix(-0.40403723,-1.5078875,-1.5078875,0.40403723,61.886107,40.491385)"
       x1="8"
       y1="24"
       x2="24"
       y2="8" />
    <linearGradient
       xlink:href="#j"
       id="r"
       gradientUnits="userSpaceOnUse"
       gradientTransform="matrix(-1.1038503,-1.1038503,-1.1038503,1.1038503,68.985328,13.999832)"
       x1="8"
       y1="24"
       x2="24"
       y2="8" />
    <linearGradient
       id="s"
       gradientTransform="matrix(0.40403723,1.5078875,-1.5078875,0.40403723,42.492937,-31.886741)"
       gradientUnits="userSpaceOnUse"
       x1="8"
       x2="24"
       xlink:href="#l"
       y1="24"
       y2="8" />
    <linearGradient
       id="l">
      <stop
         offset="0"
         stop-color="#e81877"
         id="stop81" />
      <stop
         offset=".312"
         stop-color="#dd1d8c"
         id="stop83" />
      <stop
         offset=".562"
         stop-color="#6d57b1"
         id="stop85" />
      <stop
         offset=".75"
         stop-color="#2a78c1"
         id="stop87" />
      <stop
         offset="1"
         stop-color="#018dcb"
         id="stop89" />
    </linearGradient>
    <linearGradient
       xlink:href="#l"
       id="u"
       gradientUnits="userSpaceOnUse"
       gradientTransform="matrix(1.5078875,0.40403723,-0.40403723,1.5078875,-10.491907,-31.885809)"
       x1="8"
       y1="24"
       x2="24"
       y2="8" />
    <linearGradient
       id="v"
       gradientTransform="matrix(1.1038503,1.1038503,1.1038503,-1.1038503,-36.984101,13.999751)"
       gradientUnits="userSpaceOnUse"
       x1="8"
       x2="24"
       xlink:href="#i"
       y1="24"
       y2="8" />
    <linearGradient
       id="w"
       gradientTransform="matrix(-1.1038503,-1.1038503,1.1038503,-1.1038503,15.999771,66.985322)"
       gradientUnits="userSpaceOnUse"
       x1="8"
       x2="24"
       xlink:href="#k"
       y1="24"
       y2="8" />
    <linearGradient
       id="x"
       gradientTransform="matrix(-0.40403723,-1.5078875,1.5078875,-0.40403723,-10.493176,59.886063)"
       gradientUnits="userSpaceOnUse"
       x1="8"
       x2="24"
       xlink:href="#k"
       y1="24"
       y2="8" />
    <linearGradient
       id="y"
       gradientTransform="matrix(1.1038503,1.1038503,-1.1038503,1.1038503,16.000129,-38.985727)"
       gradientUnits="userSpaceOnUse"
       x1="8"
       x2="24"
       xlink:href="#l"
       y1="24"
       y2="8" />
    <linearGradient
       xlink:href="#m"
       id="z"
       gradientUnits="userSpaceOnUse"
       gradientTransform="translate(-384.571,-515.798)"
       x1="394.571"
       y1="523.798"
       x2="408.571"
       y2="537.798" />
    <linearGradient
       id="m"
       gradientUnits="userSpaceOnUse"
       x1="394.571"
       x2="408.571"
       y1="523.798"
       y2="537.798"
       gradientTransform="translate(-344.571 -515.798)">
      <stop
         offset="0"
         stop-color="#292c2f"
         id="stop98" />
      <stop
         offset="1"
         stop-color="#292c2f"
         stop-opacity=".036"
         id="stop100" />
    </linearGradient>
    <linearGradient
       id="A"
       gradientTransform="matrix(0.99946,0,0,0.99953,-384.36,-515.548)"
       gradientUnits="userSpaceOnUse"
       x1="400.571"
       x2="400.571"
       y1="536.798"
       y2="522.798">
      <stop
         offset="0"
         stop-color="#eff0f1"
         id="stop103" />
      <stop
         offset="1"
         stop-color="#fcfcfc"
         id="stop105" />
    </linearGradient>
    <linearGradient
       xlink:href="#l"
       id="t"
       gradientUnits="userSpaceOnUse"
       gradientTransform="matrix(1.5078875,0.40403723,-0.40403723,1.5078875,-10.491907,-31.885809)"
       x1="8"
       y1="24"
       x2="24"
       y2="8" />
  </defs>
  <g
     transform="matrix(1.50627,0,0,1.43185,0,1.136)"
     id="g147">
    <path
       d="m 0,9.713 v 15.289 a 5.004,5.004 0 0 0 0.025,0.498 5.004,5.004 0 0 0 0.075,0.496 5.004,5.004 0 0 0 0.123,0.484 5.004,5.004 0 0 0 0.17,0.47 5.004,5.004 0 0 0 0.216,0.45 5.004,5.004 0 0 0 0.262,0.428 5.004,5.004 0 0 0 0.303,0.399 5.004,5.004 0 0 0 0.287,0.312 4.99,4.99 0 0 0 0.37,0.334 4.99,4.99 0 0 0 0.4,0.297 4.99,4.99 0 0 0 0.43,0.254 4.99,4.99 0 0 0 0.452,0.21 4.99,4.99 0 0 0 0.471,0.165 4.99,4.99 0 0 0 0.484,0.115 4.99,4.99 0 0 0 0.495,0.068 A 4.99,4.99 0 0 0 5,30 h 6.713 L 16,14 Z"
       id="path111"
       style="fill:url(#n)"
       inkscape:connector-curvature="0" />
    <path
       d="M 32,18.287 V 7 A 5.004,5.004 0 0 0 31.977,6.5 5.004,5.004 0 0 0 31.902,6.006 5.004,5.004 0 0 0 31.779,5.521 5.004,5.004 0 0 0 31.607,5.051 5.004,5.004 0 0 0 31.391,4.6 5.004,5.004 0 0 0 31.129,4.174 5.004,5.004 0 0 0 30.829,3.775 5.004,5.004 0 0 0 30.539,3.461 4.99,4.99 0 0 0 30.169,3.127 4.99,4.99 0 0 0 29.768,2.83 4.99,4.99 0 0 0 29.34,2.576 4.99,4.99 0 0 0 28.887,2.366 4.99,4.99 0 0 0 28.416,2.203 4.99,4.99 0 0 0 27.932,2.086 4.99,4.99 0 0 0 27.438,2.02 4.99,4.99 0 0 0 27,2.002 H 19.215 L 16,14 Z"
       id="path113"
       style="fill:url(#o)"
       inkscape:connector-curvature="0" />
    <path
       d="M 11.713,30 H 27 a 5.004,5.004 0 0 0 0.5,-0.023 5.004,5.004 0 0 0 0.494,-0.075 5.004,5.004 0 0 0 0.485,-0.123 5.004,5.004 0 0 0 0.47,-0.172 5.004,5.004 0 0 0 0.451,-0.216 5.004,5.004 0 0 0 0.426,-0.26 5.004,5.004 0 0 0 0.399,-0.303 5.004,5.004 0 0 0 0.314,-0.289 4.99,4.99 0 0 0 0.336,-0.37 4.99,4.99 0 0 0 0.295,-0.401 4.99,4.99 0 0 0 0.254,-0.428 4.99,4.99 0 0 0 0.21,-0.453 4.99,4.99 0 0 0 0.165,-0.471 4.99,4.99 0 0 0 0.115,-0.484 4.99,4.99 0 0 0 0.068,-0.494 A 4.99,4.99 0 0 0 32,25 V 18.287 L 16,14 Z"
       id="path115"
       style="fill:url(#p)"
       inkscape:connector-curvature="0" />
    <path
       d="M 20.287,30 H 27 a 5.004,5.004 0 0 0 0.5,-0.023 5.004,5.004 0 0 0 0.494,-0.075 5.004,5.004 0 0 0 0.485,-0.123 5.004,5.004 0 0 0 0.47,-0.172 5.004,5.004 0 0 0 0.451,-0.216 5.004,5.004 0 0 0 0.426,-0.26 5.004,5.004 0 0 0 0.399,-0.303 5.004,5.004 0 0 0 0.314,-0.289 4.99,4.99 0 0 0 0.336,-0.37 4.99,4.99 0 0 0 0.295,-0.401 4.99,4.99 0 0 0 0.254,-0.428 4.99,4.99 0 0 0 0.21,-0.453 4.99,4.99 0 0 0 0.165,-0.471 4.99,4.99 0 0 0 0.115,-0.484 4.99,4.99 0 0 0 0.068,-0.494 A 4.99,4.99 0 0 0 32,25 V 9.713 L 16,14 Z"
       id="path117"
       style="opacity:0.3;fill:url(#q)"
       inkscape:connector-curvature="0" />
    <path
       d="m 30.54,28.54 a 4.99,4.99 0 0 0 0.335,-0.37 4.99,4.99 0 0 0 0.295,-0.402 4.99,4.99 0 0 0 0.254,-0.428 4.99,4.99 0 0 0 0.21,-0.453 4.99,4.99 0 0 0 0.165,-0.471 4.99,4.99 0 0 0 0.115,-0.484 4.99,4.99 0 0 0 0.068,-0.494 A 4.99,4.99 0 0 0 32,25 V 7 A 5.004,5.004 0 0 0 31.977,6.5 5.004,5.004 0 0 0 31.902,6.006 5.004,5.004 0 0 0 31.779,5.521 5.004,5.004 0 0 0 31.607,5.051 5.004,5.004 0 0 0 31.391,4.6 5.004,5.004 0 0 0 31.129,4.174 5.004,5.004 0 0 0 30.829,3.775 5.004,5.004 0 0 0 30.539,3.461 4.99,4.99 0 0 0 30.169,3.127 4.99,4.99 0 0 0 29.768,2.83 4.99,4.99 0 0 0 29.34,2.576 4.99,4.99 0 0 0 28.887,2.366 4.99,4.99 0 0 0 28.416,2.203 4.99,4.99 0 0 0 27.932,2.086 4.99,4.99 0 0 0 27.916,2.084 L 16,14 Z"
       id="path119"
       style="opacity:0.35;fill:url(#r)"
       inkscape:connector-curvature="0" />
    <path
       d="M 32,9.713 V 7 A 5.004,5.004 0 0 0 31.977,6.5 5.004,5.004 0 0 0 31.902,6.006 5.004,5.004 0 0 0 31.779,5.521 5.004,5.004 0 0 0 31.607,5.051 5.004,5.004 0 0 0 31.391,4.6 5.004,5.004 0 0 0 31.129,4.174 5.004,5.004 0 0 0 30.829,3.775 5.004,5.004 0 0 0 30.539,3.461 4.99,4.99 0 0 0 30.169,3.127 4.99,4.99 0 0 0 29.768,2.83 4.99,4.99 0 0 0 29.34,2.576 4.99,4.99 0 0 0 28.887,2.366 4.99,4.99 0 0 0 28.416,2.203 4.99,4.99 0 0 0 27.932,2.086 4.99,4.99 0 0 0 27.438,2.02 4.99,4.99 0 0 0 27,2.002 L 12.785,2 16,14 Z"
       id="path121"
       style="opacity:0.3;fill:url(#s)"
       inkscape:connector-curvature="0" />
    <path
       d="M 5,2 A 5.004,5.004 0 0 0 4.5,2.023 5.004,5.004 0 0 0 4.006,2.098 5.004,5.004 0 0 0 3.521,2.221 5.004,5.004 0 0 0 3.051,2.393 5.004,5.004 0 0 0 2.6,2.609 5.004,5.004 0 0 0 2.174,2.871 5.004,5.004 0 0 0 1.775,3.171 5.004,5.004 0 0 0 1.461,3.461 4.99,4.99 0 0 0 1.125,3.831 4.99,4.99 0 0 0 0.83,4.232 4.99,4.99 0 0 0 0.576,4.662 4.99,4.99 0 0 0 0.366,5.113 4.99,4.99 0 0 0 0.201,5.586 4.99,4.99 0 0 0 0.086,6.07 4.99,4.99 0 0 0 0.018,6.564 4.99,4.99 0 0 0 0,7.002 v 2.71 L 16,14 19.215,2.002 Z"
       id="path123"
       style="fill:url(#t)"
       inkscape:connector-curvature="0" />
    <path
       d="M 5,2 A 5.004,5.004 0 0 0 4.5,2.023 5.004,5.004 0 0 0 4.006,2.098 5.004,5.004 0 0 0 3.521,2.221 5.004,5.004 0 0 0 3.051,2.393 5.004,5.004 0 0 0 2.6,2.609 5.004,5.004 0 0 0 2.174,2.871 5.004,5.004 0 0 0 1.775,3.171 5.004,5.004 0 0 0 1.461,3.461 4.99,4.99 0 0 0 1.125,3.831 4.99,4.99 0 0 0 0.83,4.232 4.99,4.99 0 0 0 0.576,4.662 4.99,4.99 0 0 0 0.366,5.113 4.99,4.99 0 0 0 0.201,5.586 4.99,4.99 0 0 0 0.086,6.07 4.99,4.99 0 0 0 0.018,6.564 4.99,4.99 0 0 0 0,7.002 V 18.287 L 16,14 12.785,2 Z"
       id="path125"
       style="fill:url(#u)"
       inkscape:connector-curvature="0" />
    <path
       d="M 4.086,2.086 A 5.004,5.004 0 0 0 4.006,2.098 5.004,5.004 0 0 0 3.521,2.221 5.004,5.004 0 0 0 3.051,2.393 5.004,5.004 0 0 0 2.6,2.609 5.004,5.004 0 0 0 2.174,2.871 5.004,5.004 0 0 0 1.775,3.171 5.004,5.004 0 0 0 1.461,3.461 4.99,4.99 0 0 0 1.125,3.831 4.99,4.99 0 0 0 0.83,4.232 4.99,4.99 0 0 0 0.576,4.662 4.99,4.99 0 0 0 0.366,5.113 4.99,4.99 0 0 0 0.201,5.586 4.99,4.99 0 0 0 0.086,6.07 4.99,4.99 0 0 0 0.018,6.564 4.99,4.99 0 0 0 0,7.002 v 18 a 5.004,5.004 0 0 0 0.025,0.498 5.004,5.004 0 0 0 0.075,0.496 5.004,5.004 0 0 0 0.123,0.484 5.004,5.004 0 0 0 0.17,0.47 5.004,5.004 0 0 0 0.216,0.45 5.004,5.004 0 0 0 0.262,0.428 5.004,5.004 0 0 0 0.303,0.399 5.004,5.004 0 0 0 0.287,0.312 L 16,14 Z"
       id="path127"
       style="opacity:0.35;fill:url(#v)"
       inkscape:connector-curvature="0" />
    <path
       d="m 1.46,28.54 a 4.99,4.99 0 0 0 0.37,0.333 4.99,4.99 0 0 0 0.4,0.297 4.99,4.99 0 0 0 0.43,0.254 4.99,4.99 0 0 0 0.453,0.21 4.99,4.99 0 0 0 0.471,0.165 4.99,4.99 0 0 0 0.484,0.115 4.99,4.99 0 0 0 0.495,0.068 A 4.99,4.99 0 0 0 5,30 h 22 a 5.004,5.004 0 0 0 0.5,-0.023 5.004,5.004 0 0 0 0.494,-0.075 5.004,5.004 0 0 0 0.485,-0.123 5.004,5.004 0 0 0 0.47,-0.172 5.004,5.004 0 0 0 0.451,-0.216 5.004,5.004 0 0 0 0.426,-0.26 5.004,5.004 0 0 0 0.399,-0.303 5.004,5.004 0 0 0 0.314,-0.289 L 16,14 Z"
       id="path129"
       style="opacity:0.35;fill:url(#w)"
       inkscape:connector-curvature="0" />
    <path
       d="m 0,18.287 v 6.715 a 5.004,5.004 0 0 0 0.025,0.498 5.004,5.004 0 0 0 0.075,0.496 5.004,5.004 0 0 0 0.123,0.484 5.004,5.004 0 0 0 0.17,0.47 5.004,5.004 0 0 0 0.216,0.45 5.004,5.004 0 0 0 0.262,0.428 5.004,5.004 0 0 0 0.303,0.399 5.004,5.004 0 0 0 0.287,0.312 4.99,4.99 0 0 0 0.37,0.334 4.99,4.99 0 0 0 0.4,0.297 4.99,4.99 0 0 0 0.43,0.254 4.99,4.99 0 0 0 0.452,0.21 4.99,4.99 0 0 0 0.471,0.165 4.99,4.99 0 0 0 0.484,0.115 4.99,4.99 0 0 0 0.495,0.068 A 4.99,4.99 0 0 0 5,30 H 20.287 L 16,14 Z"
       id="path131"
       style="opacity:0.3;fill:url(#x)"
       inkscape:connector-curvature="0" />
    <path
       d="M 4,2 16,14 28,2 Z"
       id="path133"
       style="opacity:0.35;fill:url(#y)"
       inkscape:connector-curvature="0" />
    <path
       d="m 22.865,7.137 a 1.75,7.875 44.998 0 1 -4.332,6.804 1.75,7.875 44.998 0 1 -3.545,3.061 l 12.834,12.926 a 5.004,5.004 0 0 0 0.172,-0.026 5.004,5.004 0 0 0 0.485,-0.123 5.004,5.004 0 0 0 0.47,-0.172 5.004,5.004 0 0 0 0.451,-0.216 5.004,5.004 0 0 0 0.426,-0.26 5.004,5.004 0 0 0 0.399,-0.303 5.004,5.004 0 0 0 0.314,-0.289 4.99,4.99 0 0 0 0.336,-0.37 4.99,4.99 0 0 0 0.295,-0.401 4.99,4.99 0 0 0 0.254,-0.428 4.99,4.99 0 0 0 0.21,-0.453 4.99,4.99 0 0 0 0.165,-0.471 4.99,4.99 0 0 0 0.115,-0.484 4.99,4.99 0 0 0 0.068,-0.494 A 4.99,4.99 0 0 0 32,25 V 16.271 Z M 13.018,14.987 13,15 l 0.004,0.004 a 1.75,7.875 44.998 0 1 0.014,-0.018 z m 0.136,0.17 1.703,1.714 a 3.013,3.013 0 0 0 -1.703,-1.715 z m 0.696,1.618 c 0.422,0.389 0.4,0.942 0.4,1.305 C 14.25,19.248 12.503,21 9,21 l 9,9 h 9 a 5.004,5.004 0 0 0 0.07,-0.004 z"
       id="path135"
       style="opacity:0.25;fill:url(#z)"
       inkscape:connector-curvature="0" />
    <path
       d="m 0.102,26 a 5.004,5.004 0 0 0 0.12,0.48 5.004,5.004 0 0 0 0.17,0.47 5.004,5.004 0 0 0 0.217,0.45 5.004,5.004 0 0 0 0.262,0.428 5.004,5.004 0 0 0 0.303,0.399 5.004,5.004 0 0 0 0.287,0.312 4.99,4.99 0 0 0 0.37,0.334 4.99,4.99 0 0 0 0.4,0.297 4.99,4.99 0 0 0 0.43,0.254 4.99,4.99 0 0 0 0.452,0.21 4.99,4.99 0 0 0 0.471,0.165 4.99,4.99 0 0 0 0.484,0.115 4.99,4.99 0 0 0 0.495,0.068 A 4.99,4.99 0 0 0 5,30 h 11 v -4 z"
       id="path137"
       inkscape:connector-curvature="0"
       style="fill:#ffffff;fill-opacity:0.78399999" />
    <path
       d="m 16,30 h 11 a 5.004,5.004 0 0 0 0.5,-0.023 5.004,5.004 0 0 0 0.494,-0.075 5.004,5.004 0 0 0 0.485,-0.123 5.004,5.004 0 0 0 0.47,-0.172 5.004,5.004 0 0 0 0.451,-0.216 5.004,5.004 0 0 0 0.426,-0.26 5.004,5.004 0 0 0 0.399,-0.303 5.004,5.004 0 0 0 0.314,-0.289 4.99,4.99 0 0 0 0.336,-0.37 4.99,4.99 0 0 0 0.295,-0.401 4.99,4.99 0 0 0 0.254,-0.428 4.99,4.99 0 0 0 0.21,-0.453 4.99,4.99 0 0 0 0.165,-0.471 4.99,4.99 0 0 0 0.1,-0.416 H 16 Z"
       id="path139"
       inkscape:connector-curvature="0"
       style="fill:#31363b;fill-opacity:0.86199999" />
    <circle
       cx="27"
       cy="28"
       r="1"
       id="circle141"
       style="fill:#eff0f1" />
    <path
       d="m 4,27 v 1 h 1 v -1 z m 1,1 v 1 h 1 v -1 z"
       id="path143"
       inkscape:connector-curvature="0"
       style="fill:#4d4d4d" />
    <path
       d="m 22.574,7.006 a 1.75,7.875 44.998 0 0 -6.515,4.461 1.75,7.875 44.998 0 0 -3.1,3.6 3.037,3.037 0 0 1 1.976,1.975 1.75,7.875 44.998 0 0 3.599,-3.1 1.75,7.875 44.998 0 0 4.33,-6.806 1.75,7.875 44.998 0 0 -0.29,-0.13 M 12.5,16.331 C 9,17.269 11.625,19.484 9,21 c 3.503,0 5.25,-1.75 5.25,-2.919 0,-0.582 0.059,-1.653 -1.75,-1.75 z"
       id="path145"
       style="fill:url(#A)"
       inkscape:connector-curvature="0" />
  </g>
</svg>
