<?xml version="1.0" encoding="UTF-8" standalone="no"?>
<!-- Created with Inkscape (http://www.inkscape.org/) -->

<svg
   width="48"
   height="48"
   version="1.1"
   viewBox="0 0 48 48"
   id="svg5104"
   sodipodi:docname="reddit.svg"
   inkscape:version="1.3 (0e150ed6c4, 2023-07-21)"
   xmlns:inkscape="http://www.inkscape.org/namespaces/inkscape"
   xmlns:sodipodi="http://sodipodi.sourceforge.net/DTD/sodipodi-0.dtd"
   xmlns="http://www.w3.org/2000/svg"
   xmlns:svg="http://www.w3.org/2000/svg">
  <sodipodi:namedview
     id="namedview5106"
     pagecolor="#ffffff"
     bordercolor="#666666"
     borderopacity="1.0"
     inkscape:showpageshadow="2"
     inkscape:pageopacity="0.0"
     inkscape:pagecheckerboard="0"
     inkscape:deskcolor="#d1d1d1"
     showgrid="false"
     inkscape:zoom="3.6875"
     inkscape:cx="-67.389831"
     inkscape:cy="32.135593"
     inkscape:window-width="1920"
     inkscape:window-height="996"
     inkscape:window-x="0"
     inkscape:window-y="0"
     inkscape:window-maximized="1"
     inkscape:current-layer="svg5104" />
  <defs
     id="defs5064">
    <linearGradient
       id="linearGradient959"
       x1="22.816"
       x2="38.476002"
       y1="14.449"
       y2="-1.0493"
       gradientTransform="matrix(2.6456692,0,0,2.6456693,-135.44043,-65.048019)"
       gradientUnits="userSpaceOnUse">
      <stop
         stop-color="#dc3282"
         offset="0"
         id="stop5034" />
      <stop
         stop-color="#f05a50"
         offset="1"
         id="stop5036"
         style="stop-color:#ff9955;stop-opacity:1" />
    </linearGradient>
    <linearGradient
       id="linearGradient875"
       x1="-123.61"
       x2="-124.83"
       y1="-218.50999"
       y2="-149.55"
       gradientTransform="matrix(0.044571,0,0,0.045384,11.938,21.687)"
       gradientUnits="userSpaceOnUse">
      <stop
         stop-color="#d9d9d9"
         offset="0"
         id="stop5039" />
      <stop
         stop-color="#fff"
         offset="1"
         id="stop5041" />
    </linearGradient>
    <linearGradient
       id="linearGradient841"
       x1="-194.48"
       x2="-194.66"
       y1="-239.97"
       y2="-166.64"
       gradientTransform="matrix(0.044571,0,0,0.045384,11.938,21.687)"
       gradientUnits="userSpaceOnUse">
      <stop
         stop-color="#f35966"
         offset="0"
         id="stop5044" />
      <stop
         stop-color="#e0283f"
         offset="1"
         id="stop5046" />
    </linearGradient>
    <linearGradient
       id="linearGradient851"
       x1="-145.39999"
       x2="-145.58"
       y1="-167.25999"
       y2="-280.64999"
       gradientTransform="matrix(0.044571,0,0,0.045384,11.938,21.687)"
       gradientUnits="userSpaceOnUse">
      <stop
         stop-color="#f06712"
         offset="0"
         id="stop5049" />
      <stop
         stop-color="#ffb436"
         offset="1"
         id="stop5051" />
    </linearGradient>
    <linearGradient
       id="linearGradient859"
       x1="-98.577003"
       x2="-101.03"
       y1="-166.03"
       y2="-348.97"
       gradientTransform="matrix(0.044571,0,0,0.045384,11.938,21.687)"
       gradientUnits="userSpaceOnUse">
      <stop
         stop-color="#01bb22"
         offset="0"
         id="stop5054" />
      <stop
         stop-color="#51e784"
         offset="1"
         id="stop5056" />
    </linearGradient>
    <linearGradient
       id="linearGradient867"
       x1="-50.257999"
       x2="-52.706001"
       y1="-167.99001"
       y2="-309.35001"
       gradientTransform="matrix(0.044571,0,0,0.045384,11.938,21.687)"
       gradientUnits="userSpaceOnUse">
      <stop
         stop-color="#017bf5"
         offset="0"
         id="stop5059" />
      <stop
         stop-color="#52cdfb"
         offset="1"
         id="stop5061" />
    </linearGradient>
  </defs>
  <ellipse
     style="opacity:0.2;stroke-width:2.80969"
     cx="24.000946"
     cy="24.369032"
     id="circle1"
     rx="20.999056"
     ry="20.630964" />
  <ellipse
     style="fill:#ff4500;fill-opacity:1;stroke-width:2.80969"
     cx="24.000946"
     cy="23.63098"
     id="circle2"
     rx="20.999056"
     ry="20.630964" />
  <path
     style="opacity:0.2;stroke-width:2.80969"
     d="m 25.511719,11.10249 c -0.37643,-0.0056 -0.69854,0.264292 -0.75293,0.630375 l -1.28613,8.232028 c -2.95445,0.08605 -5.75774,0.906169 -7.872073,2.302658 -0.560326,-0.541535 -1.314593,-0.845402 -2.100587,-0.846237 -1.656862,0 -3.00001,1.319624 -3,2.947432 8.03e-4,1.099306 0.624227,2.10682 1.617188,2.613515 -0.07406,0.354776 -0.113202,0.712476 -0.117187,1.070733 -9e-6,4.476485 5.372576,8.105395 11.999999,8.105395 6.627421,0 12.000011,-3.62891 12.000001,-8.105395 -0.005,-0.357366 -0.0453,-0.714091 -0.12011,-1.067864 0.99503,-0.506389 1.61984,-1.515435 1.62012,-2.616384 10e-6,-1.627808 -1.34314,-2.947432 -3,-2.947432 -0.78844,8.3e-5 -1.54515,0.30512 -2.10645,0.849106 -1.9986,-1.325557 -4.62074,-2.137093 -7.412101,-2.294026 l 1.139641,-7.241891 3.89942,0.852002 c 0.13889,1.106491 1.09471,1.938219 2.22949,1.940001 1.24264,0 2.25,-0.98969 2.25,-2.21056 0,-1.22087 -1.00736,-2.21056 -2.25,-2.21056 -0.77391,6.41e-4 -1.49316,0.392039 -1.9043,1.036199 L 25.667,11.122653 c -0.0509,-0.01114 -0.10296,-0.0195 -0.155271,-0.0195 z m -5.26172,13.266256 c 1.24264,0 2.25,0.98969 2.25,2.21056 0,1.220869 -1.00736,2.21056 -2.25,2.21056 -1.24264,0 -2.25,-0.989691 -2.25,-2.21056 0,-1.22087 1.00736,-2.21056 2.25,-2.21056 z m 7.500001,0 c 1.24264,0 2.25,0.98969 2.25,2.21056 0,1.220869 -1.00736,2.21056 -2.25,2.21056 -1.24264,0 -2.250001,-0.989691 -2.250001,-2.21056 0,-1.22087 1.007361,-2.21056 2.250001,-2.21056 z m 1.45898,6.605557 c 0.6978,-0.05793 1.09102,0.769567 0.59766,1.257826 0,0 -0.49136,0.512153 -1.42676,0.935467 -0.9354,0.423425 -2.37233,0.816327 -4.397461,0.782907 -2.01346,-0.0337 -3.4248,-0.425068 -4.35058,-0.826102 -0.92579,-0.400755 -1.41797,-0.872137 -1.41797,-0.872137 -0.45927,-0.442586 -0.1755,-1.210593 0.46582,-1.260695 0.0243,-0.0021 0.0488,-0.0028 0.0733,-0.0028 0.20307,0.0023 0.39652,0.0855 0.53613,0.230316 0,0 0.21382,0.235886 0.95215,0.555516 0.73833,0.319713 1.94629,0.663154 3.77636,0.696573 1.818401,0.03063 3.000781,-0.312138 3.729501,-0.641877 0.72872,-0.329571 0.94336,-0.58718 0.94336,-0.58718 0.12897,-0.154287 0.31601,-0.250925 0.51855,-0.267634 z"
     id="path2" />
  <path
     style="fill:#ffffff;stroke-width:2.80969"
     d="m 25.511719,10.365562 c -0.37643,-0.0056 -0.69854,0.264293 -0.75293,0.630375 l -1.28613,8.232028 c -2.95445,0.08606 -5.75774,0.906169 -7.872073,2.302658 -0.560326,-0.541534 -1.314593,-0.845401 -2.100587,-0.846237 -1.656862,0 -3.00001,1.319625 -3,2.947432 8.03e-4,1.099306 0.624227,2.10682 1.617188,2.613516 -0.07406,0.354775 -0.113202,0.712475 -0.117187,1.070732 -9e-6,4.476485 5.372576,8.105396 11.999999,8.105396 6.627421,0 12.000011,-3.628911 12.000001,-8.105396 -0.005,-0.357366 -0.0453,-0.714091 -0.12011,-1.067864 0.99503,-0.506389 1.61984,-1.515435 1.62012,-2.616384 10e-6,-1.627807 -1.34314,-2.947432 -3,-2.947432 -0.78844,8.4e-5 -1.54515,0.30512 -2.10645,0.849106 -1.9986,-1.325556 -4.62074,-2.137093 -7.412101,-2.294025 l 1.139641,-7.241892 3.89942,0.852002 c 0.13889,1.106491 1.09471,1.938219 2.22949,1.940001 1.24264,0 2.25,-0.98969 2.25,-2.21056 0,-1.220869 -1.00736,-2.210559 -2.25,-2.210559 -0.77391,6.4e-4 -1.49316,0.392038 -1.9043,1.036199 L 25.667,10.385725 c -0.0509,-0.01114 -0.10296,-0.01949 -0.155271,-0.01949 z m -5.26172,13.266256 c 1.24264,0 2.25,0.98969 2.25,2.21056 0,1.22087 -1.00736,2.21056 -2.25,2.21056 -1.24264,0 -2.25,-0.98969 -2.25,-2.21056 0,-1.22087 1.00736,-2.21056 2.25,-2.21056 z m 7.500001,0 c 1.24264,0 2.25,0.98969 2.25,2.21056 0,1.22087 -1.00736,2.21056 -2.25,2.21056 -1.24264,0 -2.250001,-0.98969 -2.250001,-2.21056 0,-1.22087 1.007361,-2.21056 2.250001,-2.21056 z m 1.45898,6.605557 c 0.6978,-0.05793 1.09102,0.769567 0.59766,1.257826 0,0 -0.49136,0.512154 -1.42676,0.935467 -0.9354,0.423425 -2.37233,0.816327 -4.397461,0.782907 -2.01346,-0.0337 -3.4248,-0.425068 -4.35058,-0.826101 -0.92579,-0.400756 -1.41797,-0.872138 -1.41797,-0.872138 -0.45927,-0.442585 -0.1755,-1.210593 0.46582,-1.260694 0.0243,-0.0021 0.0488,-0.0028 0.0733,-0.0028 0.20307,0.0023 0.39652,0.0855 0.53613,0.230316 0,0 0.21382,0.235886 0.95215,0.555515 0.73833,0.319713 1.94629,0.663154 3.77636,0.696574 1.818401,0.03063 3.000781,-0.312138 3.729501,-0.641877 0.72872,-0.329572 0.94336,-0.587181 0.94336,-0.587181 0.12897,-0.154286 0.31601,-0.250924 0.51855,-0.267634 z"
     id="path3" />
  <path
     style="opacity:0.2;fill:#ffffff;stroke-width:0.743398"
     d="M 23.999999,3 A 20.999999,20.631892 0 0 0 3,23.631892 20.999999,20.631892 0 0 0 3.01318,23.994562 20.999999,20.631892 0 0 1 23.999999,3.736853 20.999999,20.631892 0 0 1 44.98096,23.994562 20.999999,20.631892 0 0 0 44.99996,23.631892 20.999999,20.631892 0 0 0 23.999959,3 Z"
     id="path4" />
</svg>
