<?xml version="1.0" encoding="UTF-8" standalone="no"?>
<svg
   xmlns:dc="http://purl.org/dc/elements/1.1/"
   xmlns:cc="http://creativecommons.org/ns#"
   xmlns:rdf="http://www.w3.org/1999/02/22-rdf-syntax-ns#"
   xmlns:svg="http://www.w3.org/2000/svg"
   xmlns="http://www.w3.org/2000/svg"
   xmlns:sodipodi="http://sodipodi.sourceforge.net/DTD/sodipodi-0.dtd"
   xmlns:inkscape="http://www.inkscape.org/namespaces/inkscape"
   viewBox="0 0 48 48"
   version="1.1"
   id="svg25"
   sodipodi:docname="preferences-desktop-search.svg"
   inkscape:version="0.92.5 (2060ec1f9f, 2020-04-08)">
  <metadata
     id="metadata29">
    <rdf:RDF>
      <cc:Work
         rdf:about="">
        <dc:format>image/svg+xml</dc:format>
        <dc:type
           rdf:resource="http://purl.org/dc/dcmitype/StillImage" />
        <dc:title></dc:title>
      </cc:Work>
    </rdf:RDF>
  </metadata>
  <sodipodi:namedview
     pagecolor="#ffffff"
     bordercolor="#666666"
     borderopacity="1"
     objecttolerance="10"
     gridtolerance="10"
     guidetolerance="10"
     inkscape:pageopacity="0"
     inkscape:pageshadow="2"
     inkscape:window-width="1085"
     inkscape:window-height="480"
     id="namedview27"
     showgrid="false"
     inkscape:zoom="4.9166667"
     inkscape:cx="2.1355932"
     inkscape:cy="24"
     inkscape:window-x="0"
     inkscape:window-y="25"
     inkscape:window-maximized="0"
     inkscape:current-layer="svg25" />
  <defs
     id="defs17">
    <linearGradient
       id="a"
       x1="370.22"
       x2="370.03"
       y1="509.64"
       y2="479.76"
       gradientTransform="matrix(1.4,0,0,1.4,-494.1,-668.67)"
       gradientUnits="userSpaceOnUse">
      <stop
         stop-color="#197cf1"
         offset="0"
         id="stop2" />
      <stop
         stop-color="#21c9fb"
         offset="1"
         id="stop4" />
    </linearGradient>
    <linearGradient
       id="c"
       x2="0"
       y1="532.79"
       y2="514.8"
       gradientTransform="matrix(1.7778,0,0,1.7778,-703.31,-908.76)"
       gradientUnits="userSpaceOnUse">
      <stop
         stop-color="#7cbaf8"
         offset="0"
         id="stop7" />
      <stop
         stop-color="#f4fcff"
         offset="1"
         id="stop9" />
    </linearGradient>
    <linearGradient
       id="b"
       x1="25.793"
       x2="41.606"
       y1="26.896"
       y2="43.624"
       gradientTransform="translate(-5.029,-7.08)"
       gradientUnits="userSpaceOnUse">
      <stop
         stop-color="#292c2f"
         offset="0"
         id="stop12" />
      <stop
         stop-color="#292c2f"
         stop-opacity="0"
         offset="1"
         id="stop14" />
    </linearGradient>
  </defs>
  <circle
     r="21"
     cy="24"
     cx="24"
     id="circle19"
     style="fill:url(#a)" />
  <path
     d="m 27.5,9.5 1.378,5.116 0.42,8.8 -4.119,4.398 -6.852,1.643 L 10,27 27.5,44.5 c 7.606,-0.022 16.947,-9.27 17,-18 z"
     id="path21"
     style="opacity:0.2;fill:url(#b)"
     inkscape:connector-curvature="0" />
  <path
     d="m 19.493,6.444 c -6.87,0 -12.438,5.569 -12.438,12.438 0,6.87 5.569,12.438 12.438,12.438 a 12.439,12.439 0 0 0 7.437,-2.488 l 9.613,10.113 2.512,-2.512 -9.613,-10.113 a 12.438,12.438 0 0 0 2.489,-7.437 c 0,-6.87 -5.57,-12.438 -12.438,-12.438 m 0,3.553 a 8.884,8.884 0 0 1 8.884,8.885 8.865,8.865 0 0 1 -8.885,8.884 8.884,8.884 0 0 1 -8.885,-8.884 c 0,-5.53 3.898,-8.884 8.885,-8.884"
     id="path23"
     style="fill:url(#c)"
     inkscape:connector-curvature="0" />
</svg>
