<?xml version="1.0" encoding="UTF-8" standalone="no"?>
<svg
   height="48"
   width="48"
   version="1.1"
   id="svg25"
   sodipodi:docname="upscayl.svg"
   inkscape:version="1.4 (e7c3feb100, 2024-10-09)"
   xmlns:inkscape="http://www.inkscape.org/namespaces/inkscape"
   xmlns:sodipodi="http://sodipodi.sourceforge.net/DTD/sodipodi-0.dtd"
   xmlns:xlink="http://www.w3.org/1999/xlink"
   xmlns="http://www.w3.org/2000/svg"
   xmlns:svg="http://www.w3.org/2000/svg">
  <defs
     id="defs29">
    <linearGradient
       xlink:href="#1"
       id="0-6"
       y1="543.79797"
       x2="0"
       y2="503.798"
       gradientUnits="userSpaceOnUse"
       gradientTransform="translate(5.325e-4)" />
    <linearGradient
       id="1">
      <stop
         stop-color="#197cf1"
         id="stop3-3" />
      <stop
         offset="1"
         stop-color="#20bcfa"
         id="stop5-6" />
    </linearGradient>
    <clipPath
       clipPathUnits="userSpaceOnUse"
       id="clipPath1518">
      <path
         sodipodi:nodetypes="ccccsccccccccccccccsccccsccccccccccsccccscccccccccccsccccscccccc"
         id="path1520"
         d="m 24.50871,5.8844622 c -2.741607,0 -5.470924,0.548943 -8.010878,1.621463 -2.53998,1.072554 -4.859542,2.6516748 -6.8174348,4.6475258 -1.957644,1.995757 -3.525686,4.383345 -4.593207,7.010325 -1.064741,2.626367 -1.614087,5.459505 -1.614087,8.311166 0,2.852648 0.548049,5.685106 1.615446,8.312395 1.067458,2.627014 2.635499,5.014473 4.593207,7.010324 1.9577058,1.995701 4.2774868,3.574757 6.8174348,4.647527 2.481932,1.048078 5.145947,1.590844 7.82416,1.615445 0.06328,0.0023 0.123931,0.0037 0.186886,0.006 6.512212,0.308447 11.759387,-2.275831 15.599867,-6.027678 2.625286,-2.564727 4.687956,-5.59344 6.570232,-8.679961 1.882375,3.086521 3.944795,6.115325 6.570233,8.679961 3.84048,3.751911 9.087654,6.335993 15.599867,6.027678 0.06297,-0.0023 0.123591,-0.003 0.186898,-0.006 2.678116,-0.02268 5.336062,-0.567367 7.81799,-1.615445 2.539968,-1.072521 4.865708,-2.651675 6.823299,-4.647527 l 0.01172,-0.02419 c 1.94959,-1.992117 3.516738,-4.366987 4.581168,-6.986252 1.06474,-2.626364 1.61409,-5.459505 1.61409,-8.311167 0,-2.852674 -0.54808,-5.685411 -1.61544,-8.312394 l -0.0181,-0.03591 c -1.06772,-2.610924 -2.629345,-4.987306 -4.576735,-6.974823 -1.956662,-1.993693 -4.277492,-3.5738308 -6.81744,-4.6478328 -2.539949,-1.070917 -5.268163,-1.62026 -8.008713,-1.62026 -6.860954,0 -12.279413,2.821568 -16.280992,6.7449138 -2.314662,2.265279 -4.191073,4.857695 -5.891573,7.508746 -1.7005,-2.651059 -3.576914,-5.243475 -5.888492,-7.508753 C 36.785305,8.7040762 31.36592,5.8832822 24.505275,5.8832822 Z m -0.07235,6.1724218 c 5.473394,0 8.969453,1.961443 12.176023,5.207978 2.541865,2.573438 4.770664,6.074283 6.980085,9.891613 -2.521561,4.459881 -4.958616,8.533369 -7.697318,11.296147 -3.019117,3.045532 -6.14773,4.724988 -11.259728,4.430253 h -0.198905 c -1.949527,0 -3.914857,-0.411455 -5.708253,-1.1935 -1.769447,-0.771552 -3.402236,-1.917928 -4.749985,-3.321377 l -0.05425,-0.05424 C 12.566091,36.887905 11.473573,35.165801 10.745227,33.32025 10.01997,31.471608 9.6434522,29.459398 9.6434522,27.471877 c 0,-1.988414 0.3764858,-4.000653 1.1030718,-5.84682 0.726526,-1.84645 1.818457,-3.56149 3.176638,-4.991021 l 0.05425,-0.06028 c 1.347623,-1.403365 2.980443,-2.549763 4.749985,-3.32138 1.793087,-0.780809 3.755918,-1.191277 5.7064,-1.191277 z m 44.484631,0 c 1.949556,0 3.914849,0.411455 5.70825,1.1935 1.76942,0.771552 3.402229,1.917925 4.749978,3.321377 l 0.05431,0.06028 c 1.358181,1.429622 2.450109,3.144537 3.176629,4.991017 0.725272,1.845555 1.101781,3.857764 1.101781,5.845285 0,1.988474 -0.376478,4.000344 -1.10307,5.846825 -0.726531,1.846416 -1.818429,3.567348 -3.17664,4.996883 l -0.05431,0.05424 c -1.347628,1.403358 -2.980448,2.54973 -4.749989,3.321377 -1.793518,0.782045 -3.758687,1.193496 -5.708243,1.193496 h -0.198919 c -5.110756,0.293177 -8.240171,-1.385712 -11.258487,-4.4318 -2.737466,-2.762158 -5.175571,-6.835952 -7.697008,-11.295527 2.209731,-3.81764 4.437975,-7.320491 6.981007,-9.891303 3.206574,-3.24669 6.703249,-5.209524 12.175102,-5.209524 z"
         inkscape:connector-curvature="0"
         style="fill:#ffffff;stroke-width:3.08621" />
    </clipPath>
    <filter
       id="filter1357"
       x="-0.02699968"
       y="-0.02699968"
       width="1.0539994"
       height="1.0539994"
       color-interpolation-filters="sRGB">
      <feGaussianBlur
         stdDeviation="0.095248128"
         id="feGaussianBlur3118" />
    </filter>
    <linearGradient
       id="linearGradient1739"
       x1="29.721779"
       x2="34.301811"
       y1="11.614719"
       y2="9.5778847"
       gradientTransform="matrix(1.6845679,0,0,1.6868254,-40.451107,-4.5303006)"
       gradientUnits="userSpaceOnUse">
      <stop
         stop-color="#407fff"
         offset="0"
         id="stop3121"
         style="stop-color:#ffd42a;stop-opacity:1" />
      <stop
         stop-color="#ff407a"
         offset="1"
         id="stop3123" />
    </linearGradient>
    <linearGradient
       id="linearGradient952"
       x1="-20.311083"
       x2="-21.880268"
       y1="5.6837249"
       y2="10.476357"
       gradientTransform="matrix(1.5632456,0,0,1.5653403,48.051047,1.1350094)"
       gradientUnits="userSpaceOnUse">
      <stop
         stop-color="#232323"
         offset="0"
         id="stop3126" />
      <stop
         stop-color="#323296"
         offset=".95004"
         id="stop3128" />
      <stop
         stop-color="#232323"
         offset="1"
         id="stop3130" />
    </linearGradient>
    <radialGradient
       id="radialGradient123159"
       cx="-24.473"
       cy="9.8347998"
       r="1.5211"
       gradientTransform="matrix(2.0435497,0,0,2.0462881,64.020759,-4.7037726)"
       gradientUnits="userSpaceOnUse">
      <stop
         stop-color="#291dc0"
         offset="0"
         id="stop3133" />
      <stop
         stop-color="#1b1b23"
         offset="1"
         id="stop3135" />
    </radialGradient>
    <linearGradient
       id="linearGradient123197"
       x1="-35.642136"
       x2="-33.220001"
       y1="9.7318916"
       y2="7.7403998"
       gradientTransform="matrix(2.1953283,0,0,2.198271,90.123138,-4.7857236)"
       gradientUnits="userSpaceOnUse">
      <stop
         offset="0"
         id="stop3138" />
      <stop
         stop-opacity="0"
         offset="1"
         id="stop3140" />
    </linearGradient>
    <radialGradient
       id="radialGradient123131"
       cx="-24.675173"
       cy="8.9519768"
       r="1.1409"
       gradientTransform="matrix(3.0262071,-0.16983058,0.20038597,3.5802538,86.232389,-22.97495)"
       gradientUnits="userSpaceOnUse"
       xlink:href="#a-9"
       fx="-24.675173"
       fy="8.9519768" />
    <linearGradient
       id="a-9"
       x1="23.487"
       x2="23.487"
       y1="15.18"
       y2="32.912998"
       gradientTransform="matrix(0.12676,0,0,0.12676,-27.515,6.7925)"
       gradientUnits="userSpaceOnUse">
      <stop
         stop-color="#141414"
         offset="0"
         id="stop3144" />
      <stop
         stop-color="#30277f"
         offset="1"
         id="stop3146" />
    </linearGradient>
    <linearGradient
       id="linearGradient123149"
       x1="-24.739855"
       x2="-24.843994"
       y1="10.337357"
       y2="6.9967532"
       gradientTransform="matrix(2.1953283,0,0,2.198271,67.666161,-6.1994736)"
       gradientUnits="userSpaceOnUse">
      <stop
         stop-color="#2d1edc"
         offset="0"
         id="stop3149" />
      <stop
         stop-color="#141414"
         offset="1"
         id="stop3151" />
    </linearGradient>
    <radialGradient
       id="radialGradient123155"
       cx="-24.456715"
       cy="7.8585587"
       r="1.1409"
       gradientTransform="matrix(2.5034369,0,0,1.855509,75.202912,-2.8278036)"
       gradientUnits="userSpaceOnUse"
       xlink:href="#a-9"
       fx="-24.456715"
       fy="7.8585587" />
    <linearGradient
       id="linearGradient123157"
       x1="-24.503464"
       x2="-24.449654"
       y1="10.437069"
       y2="7.757112"
       gradientTransform="matrix(1.7627327,0,0,1.7650948,57.075275,-1.9382156)"
       gradientUnits="userSpaceOnUse"
       xlink:href="#a-9" />
    <radialGradient
       id="c-7"
       cx="24.047001"
       cy="23.948999"
       r="2.9867001"
       gradientTransform="matrix(0.45138002,-8.252458e-8,6.2418292e-8,0.34230756,3.1687644,7.2084244)"
       gradientUnits="userSpaceOnUse">
      <stop
         stop-color="#2839e6"
         offset="0"
         id="stop3156" />
      <stop
         stop-opacity="0"
         offset="1"
         id="stop3158" />
    </radialGradient>
    <linearGradient
       id="linearGradient123141"
       x1="-24.485001"
       x2="-24.485001"
       y1="8.6962004"
       y2="9.7505999"
       gradientTransform="matrix(2.1953283,0,0,2.198271,67.738593,-6.1994736)"
       gradientUnits="userSpaceOnUse"
       xlink:href="#d-6" />
    <linearGradient
       id="d-6"
       x1="361.35999"
       x2="361.35999"
       y1="616.07001"
       y2="722.78998"
       gradientTransform="matrix(0.0040372,0,0,0.0040372,-25.925,7.1257)"
       gradientUnits="userSpaceOnUse">
      <stop
         stop-color="#fff"
         offset="0"
         id="stop3162" />
      <stop
         stop-color="#fff"
         stop-opacity="0"
         offset="1"
         id="stop3164" />
    </linearGradient>
    <linearGradient
       id="linearGradient123161"
       x1="361.35999"
       x2="361.35999"
       y1="616.07001"
       y2="722.78998"
       gradientTransform="matrix(0.00886331,0,0,0.00887517,10.819904,9.4653976)"
       gradientUnits="userSpaceOnUse"
       xlink:href="#d-6" />
    <filter
       id="filter1357-5"
       x="-0.02699968"
       y="-0.02699968"
       width="1.0539994"
       height="1.0539994"
       color-interpolation-filters="sRGB">
      <feGaussianBlur
         stdDeviation="0.095248128"
         id="feGaussianBlur3118-6" />
    </filter>
    <linearGradient
       id="linearGradient1739-2"
       x1="29.721779"
       x2="34.301811"
       y1="11.614719"
       y2="9.5778847"
       gradientTransform="matrix(1.6845679,0,0,1.6868254,-38.970755,-4.8900384)"
       gradientUnits="userSpaceOnUse">
      <stop
         stop-color="#407fff"
         offset="0"
         id="stop3121-9"
         style="stop-color:#ffd42a;stop-opacity:1" />
      <stop
         stop-color="#ff407a"
         offset="1"
         id="stop3123-1" />
    </linearGradient>
    <linearGradient
       id="linearGradient952-2"
       x1="-20.311083"
       x2="-21.880268"
       y1="5.6837249"
       y2="10.476357"
       gradientTransform="matrix(1.5632456,0,0,1.5653403,49.531399,0.77527195)"
       gradientUnits="userSpaceOnUse">
      <stop
         stop-color="#232323"
         offset="0"
         id="stop3126-7" />
      <stop
         stop-color="#323296"
         offset=".95004"
         id="stop3128-0" />
      <stop
         stop-color="#232323"
         offset="1"
         id="stop3130-9" />
    </linearGradient>
    <radialGradient
       id="radialGradient123159-3"
       cx="-24.473"
       cy="9.8347998"
       r="1.5211"
       gradientTransform="matrix(2.0435497,0,0,2.0462881,65.501111,-5.0635104)"
       gradientUnits="userSpaceOnUse">
      <stop
         stop-color="#291dc0"
         offset="0"
         id="stop3133-6" />
      <stop
         stop-color="#1b1b23"
         offset="1"
         id="stop3135-0" />
    </radialGradient>
    <linearGradient
       id="linearGradient123197-6"
       x1="-35.642136"
       x2="-33.220001"
       y1="9.7318916"
       y2="7.7403998"
       gradientTransform="matrix(2.1953283,0,0,2.198271,91.603489,-5.1454614)"
       gradientUnits="userSpaceOnUse">
      <stop
         offset="0"
         id="stop3138-2" />
      <stop
         stop-opacity="0"
         offset="1"
         id="stop3140-6" />
    </linearGradient>
    <radialGradient
       id="radialGradient123131-1"
       cx="-24.675173"
       cy="8.9519768"
       r="1.1409"
       gradientTransform="matrix(3.0262071,-0.16983058,0.20038597,3.5802538,87.712739,-23.334688)"
       gradientUnits="userSpaceOnUse"
       xlink:href="#a-9"
       fx="-24.675173"
       fy="8.9519768" />
    <linearGradient
       id="linearGradient123149-9"
       x1="-24.739855"
       x2="-24.843994"
       y1="10.337357"
       y2="6.9967532"
       gradientTransform="matrix(2.1953283,0,0,2.198271,69.146513,-6.5592114)"
       gradientUnits="userSpaceOnUse">
      <stop
         stop-color="#2d1edc"
         offset="0"
         id="stop3149-2" />
      <stop
         stop-color="#141414"
         offset="1"
         id="stop3151-0" />
    </linearGradient>
    <radialGradient
       id="radialGradient123155-2"
       cx="-24.456715"
       cy="7.8585587"
       r="1.1409"
       gradientTransform="matrix(2.5034369,0,0,1.855509,76.683264,-3.1875411)"
       gradientUnits="userSpaceOnUse"
       xlink:href="#a-9"
       fx="-24.456715"
       fy="7.8585587" />
    <linearGradient
       id="linearGradient123157-9"
       x1="-24.503464"
       x2="-24.449654"
       y1="10.437069"
       y2="7.757112"
       gradientTransform="matrix(1.7627327,0,0,1.7650948,58.555627,-2.2979531)"
       gradientUnits="userSpaceOnUse"
       xlink:href="#a-9" />
    <radialGradient
       id="c-7-2"
       cx="24.047001"
       cy="23.948999"
       r="2.9867001"
       gradientTransform="matrix(0.45138002,-8.252458e-8,6.2418292e-8,0.34230756,4.6491161,6.8486869)"
       gradientUnits="userSpaceOnUse">
      <stop
         stop-color="#2839e6"
         offset="0"
         id="stop3156-8" />
      <stop
         stop-opacity="0"
         offset="1"
         id="stop3158-9" />
    </radialGradient>
    <linearGradient
       id="linearGradient123141-7"
       x1="-24.485001"
       x2="-24.485001"
       y1="8.6962004"
       y2="9.7505999"
       gradientTransform="matrix(2.1953283,0,0,2.198271,69.218945,-6.5592114)"
       gradientUnits="userSpaceOnUse"
       xlink:href="#d-6" />
    <linearGradient
       id="linearGradient123161-1"
       x1="361.35999"
       x2="361.35999"
       y1="616.07001"
       y2="722.78998"
       gradientTransform="matrix(0.00886331,0,0,0.00887517,12.300256,9.1056599)"
       gradientUnits="userSpaceOnUse"
       xlink:href="#d-6" />
    <linearGradient
       inkscape:collect="always"
       id="linearGradient1106">
      <stop
         style="stop-color:#195dca;stop-opacity:1;"
         offset="0"
         id="stop1102" />
      <stop
         style="stop-color:#195dca;stop-opacity:0;"
         offset="1"
         id="stop1104" />
    </linearGradient>
    <linearGradient
       inkscape:collect="always"
       xlink:href="#linearGradient1106"
       id="linearGradient39"
       gradientUnits="userSpaceOnUse"
       x1="0"
       y1="244.05"
       x2="488.10001"
       y2="244.05"
       gradientTransform="translate(-350.54233,-1001.5499)" />
    <linearGradient
       id="paint1_linear_5_77"
       x1="15.895"
       y1="21"
       x2="15.895"
       y2="7"
       gradientUnits="userSpaceOnUse">
      <stop
         stop-color="#5570FF"
         id="stop4" />
      <stop
         offset="1"
         stop-color="#4DD3FF"
         id="stop5-4" />
    </linearGradient>
    <inkscape:path-effect
       effect="fillet_chamfer"
       id="path-effect9"
       is_visible="true"
       lpeversion="1"
       nodesatellites_param="F,0,0,1,0,4.0627408,0,1 @ F,0,0,1,0,4.0627408,0,1 @ F,0,0,1,0,4.0627408,0,1 @ F,0,0,1,0,4.0627408,0,1 | F,0,1,1,0,1.0112507,0,1 @ F,0,1,1,0,1.0112507,0,1 @ F,0,1,1,0,1.0112507,0,1 @ F,0,1,1,0,1.0112507,0,1 | F,0,1,1,0,1.0112507,0,1 @ F,0,1,1,0,1.0112507,0,1 @ F,0,0,1,0,1.0112507,0,1 @ F,0,1,1,0,1.0112507,0,1"
       radius="0"
       unit="px"
       method="auto"
       mode="F"
       chamfer_steps="1"
       flexible="false"
       use_knot_distance="true"
       apply_no_radius="true"
       apply_with_radius="true"
       only_selected="false"
       hide_knots="false" />
    <inkscape:path-effect
       effect="fillet_chamfer"
       id="path-effect9-3"
       is_visible="true"
       lpeversion="1"
       nodesatellites_param="F,0,0,1,0,4.0627408,0,1 @ F,0,0,1,0,4.0627408,0,1 @ F,0,0,1,0,4.0627408,0,1 @ F,0,0,1,0,4.0627408,0,1 | F,0,1,1,0,1.0112507,0,1 @ F,0,1,1,0,1.0112507,0,1 @ F,0,1,1,0,1.0112507,0,1 @ F,0,1,1,0,1.0112507,0,1 | F,0,1,1,0,1.0112507,0,1 @ F,0,1,1,0,1.0112507,0,1 @ F,0,0,1,0,1.0112507,0,1 @ F,0,1,1,0,1.0112507,0,1"
       radius="0"
       unit="px"
       method="auto"
       mode="F"
       chamfer_steps="1"
       flexible="false"
       use_knot_distance="true"
       apply_no_radius="true"
       apply_with_radius="true"
       only_selected="false"
       hide_knots="false" />
  </defs>
  <sodipodi:namedview
     id="namedview27"
     pagecolor="#ffffff"
     bordercolor="#666666"
     borderopacity="1.0"
     inkscape:showpageshadow="2"
     inkscape:pageopacity="0.0"
     inkscape:pagecheckerboard="0"
     inkscape:deskcolor="#d1d1d1"
     showgrid="true"
     inkscape:zoom="13.906434"
     inkscape:cx="34.983808"
     inkscape:cy="25.959208"
     inkscape:window-width="1920"
     inkscape:window-height="994"
     inkscape:window-x="0"
     inkscape:window-y="0"
     inkscape:window-maximized="1"
     inkscape:current-layer="svg25">
    <inkscape:grid
       type="xygrid"
       id="grid803"
       originx="80"
       originy="15"
       spacingy="1"
       spacingx="1"
       units="px"
       visible="true" />
  </sodipodi:namedview>
  <linearGradient
     id="a"
     gradientUnits="userSpaceOnUse"
     x1="-20"
     x2="-20"
     xlink:href="#b"
     y1="44"
     y2="4"
     gradientTransform="matrix(1.0499999,0,0,1.0499999,-1.1999973,-1.1999973)" />
  <linearGradient
     id="b"
     gradientUnits="userSpaceOnUse"
     x2="0"
     y1="543.79999"
     y2="503.79999">
    <stop
       offset="0"
       stop-color="#197cf1"
       id="stop3" />
    <stop
       offset="1"
       stop-color="#20bcfa"
       id="stop5" />
  </linearGradient>
  <linearGradient
     id="c"
     gradientUnits="userSpaceOnUse"
     x1="19"
     x2="44"
     y1="19"
     y2="44"
     gradientTransform="matrix(1.0499999,0,0,1.0499999,-1.1999973,-1.1999973)">
    <stop
       offset="0"
       stop-color="#292c2f"
       id="stop8" />
    <stop
       offset="1"
       stop-color="#292c2f"
       stop-opacity="0"
       id="stop10" />
  </linearGradient>
  <g
     id="g1"
     transform="translate(-3.5000038,-3.8770666)">
    <rect
       style="fill:#4791ce;stroke-width:0.750002"
       width="42.000019"
       height="42"
       x="6.4999943"
       y="6.4755893"
       rx="21.00001"
       ry="21"
       id="rect2" />
    <path
       style="fill:#87bdff;stroke-width:0.751166"
       d="m 15.513964,10.192 c -3.559089,2.840416 -4.257805,3.539142 -6.2199782,6.829957 h 6.2199782 z m 0,6.829957 V 27.538242 H 26.030271 V 17.021957 Z m 0,10.516285 H 6.4999946 v 0 c 9.2e-6,4.140711 1.4982127,8.464691 2.8347087,10.510596 l 6.1792607,0.0057 z m 0,10.516292 -1.63e-4,6.76711 c 2.357753,1.638831 4.736758,2.463883 4.736758,2.463883 2.095724,0.646222 3.244967,0.901519 5.779712,1.285334 V 38.054534 Z"
       id="path2"
       sodipodi:nodetypes="ccccccccccccccccccccc" />
    <rect
       style="opacity:0.2;stroke-width:0.744407"
       width="4.506988"
       height="44.26228"
       x="25.279112"
       y="6.1147861"
       rx="2.253494"
       ry="2.213114"
       id="rect3" />
    <rect
       style="fill:#304059;stroke-width:0.744407"
       width="4.506988"
       height="44.26228"
       x="25.279112"
       y="5.3770676"
       rx="2.253494"
       ry="2.213114"
       id="rect4" />
    <ellipse
       style="opacity:0.2;stroke-width:0.751166"
       cx="27.532597"
       cy="27.898546"
       id="circle4"
       rx="9.0139761"
       ry="9.0139713" />
    <ellipse
       style="fill:#375179;stroke-width:0.751166"
       cx="27.532597"
       cy="27.147402"
       id="circle5"
       rx="9.0139761"
       ry="9.0139713" />
    <path
       style="fill:#9fc8ff;stroke-width:0.751166"
       d="m 29.7861,23.391572 v 7.511612 l 5.258143,-3.755797 z m -4.506997,0 v 7.511612 l -5.25815,-3.755797 z"
       id="path5" />
  </g>
</svg>
