<?xml version="1.0" encoding="UTF-8" standalone="no"?>
<svg
   xmlns:dc="http://purl.org/dc/elements/1.1/"
   xmlns:cc="http://creativecommons.org/ns#"
   xmlns:rdf="http://www.w3.org/1999/02/22-rdf-syntax-ns#"
   xmlns:svg="http://www.w3.org/2000/svg"
   xmlns="http://www.w3.org/2000/svg"
   xmlns:xlink="http://www.w3.org/1999/xlink"
   xmlns:sodipodi="http://sodipodi.sourceforge.net/DTD/sodipodi-0.dtd"
   xmlns:inkscape="http://www.inkscape.org/namespaces/inkscape"
   width="48"
   height="48"
   version="1.1"
   id="svg44"
   sodipodi:docname="virtualbox.svg"
   inkscape:version="0.92.5 (2060ec1f9f, 2020-04-08)">
  <metadata
     id="metadata48">
    <rdf:RDF>
      <cc:Work
         rdf:about="">
        <dc:format>image/svg+xml</dc:format>
        <dc:type
           rdf:resource="http://purl.org/dc/dcmitype/StillImage" />
        <dc:title></dc:title>
      </cc:Work>
    </rdf:RDF>
  </metadata>
  <sodipodi:namedview
     pagecolor="#ffffff"
     bordercolor="#666666"
     borderopacity="1"
     objecttolerance="10"
     gridtolerance="10"
     guidetolerance="10"
     inkscape:pageopacity="0"
     inkscape:pageshadow="2"
     inkscape:window-width="1076"
     inkscape:window-height="480"
     id="namedview46"
     showgrid="false"
     inkscape:zoom="4.9166667"
     inkscape:cx="2.6440678"
     inkscape:cy="24"
     inkscape:window-x="0"
     inkscape:window-y="25"
     inkscape:window-maximized="0"
     inkscape:current-layer="svg44" />
  <defs
     id="defs28">
    <linearGradient
       gradientTransform="translate(-384.57 -499.8)"
       gradientUnits="userSpaceOnUse"
       x2="411.57"
       y2="537.8"
       x1="392.57"
       y1="518.8"
       id="c">
      <stop
         stop-color="#00267a"
         id="stop2" />
      <stop
         stop-opacity="0"
         offset="1"
         id="stop4" />
    </linearGradient>
    <linearGradient
       id="b"
       y1="518.8"
       x1="392.57"
       y2="537.8"
       x2="411.57"
       gradientUnits="userSpaceOnUse"
       gradientTransform="translate(-384.57 -499.8)">
      <stop
         stop-color="#292c2f"
         id="stop7" />
      <stop
         offset="1"
         stop-opacity="0"
         id="stop9" />
    </linearGradient>
    <linearGradient
       xlink:href="#a"
       id="j"
       x1="10"
       y1="24"
       x2="38"
       y2="24"
       gradientUnits="userSpaceOnUse"
       gradientTransform="matrix(1.14286,0,0,1.14286,-3.429,-3.429)" />
    <linearGradient
       id="a">
      <stop
         offset="0"
         stop-color="#eff0f1"
         id="stop13" />
      <stop
         offset="1"
         stop-color="#fcfcfc"
         id="stop15" />
    </linearGradient>
    <linearGradient
       xlink:href="#b"
       id="i"
       x1="15.866"
       y1="23.893"
       x2="23.068"
       y2="23.893"
       gradientUnits="userSpaceOnUse"
       gradientTransform="matrix(1.17647,0,0,1.17647,-4.235,-4.235)" />
    <linearGradient
       xlink:href="#c"
       id="h"
       x1="10"
       y1="10"
       x2="41.704"
       y2="41.704"
       gradientUnits="userSpaceOnUse"
       gradientTransform="matrix(1.17647,0,0,1.17647,-4.235,-4.235)" />
    <linearGradient
       xlink:href="#c"
       id="g"
       x1="10"
       y1="10"
       x2="44"
       y2="44"
       gradientUnits="userSpaceOnUse"
       gradientTransform="matrix(1.17647,0,0,1.17647,-4.235,-4.235)" />
    <linearGradient
       xlink:href="#b"
       id="f"
       x1="23.906"
       y1="22.995"
       x2="42"
       y2="42"
       gradientUnits="userSpaceOnUse"
       gradientTransform="matrix(1.17647,0,0,1.17647,-4.235,-4.235)" />
    <linearGradient
       xlink:href="#d"
       id="e"
       x1="408.57"
       y1="540.8"
       x2="408.57"
       y2="506.8"
       gradientUnits="userSpaceOnUse"
       gradientTransform="matrix(1.17647,0,0,1.17647,-456.67,-592.235)" />
    <linearGradient
       id="d">
      <stop
         offset="0"
         stop-color="#2980b9"
         id="stop23" />
      <stop
         offset="1"
         stop-color="#3498db"
         id="stop25" />
    </linearGradient>
  </defs>
  <rect
     ry="4"
     y="4"
     x="4"
     height="40"
     width="40"
     id="rect30"
     style="fill:url(#e)" />
  <path
     d="m 42.662,42.943 c 0.05,-0.045 0.12,-0.065 0.168,-0.113 0.362,-0.361 0.656,-0.79 0.858,-1.27 0.2,-0.475 0.309,-1 0.31,-1.55 L 44,12 40,8 38,10 39.293,39.293 10,38 l -2,2 2.002,2.943 z"
     id="path32"
     style="opacity:0.2;fill:url(#f);fill-rule:evenodd"
     inkscape:connector-curvature="0" />
  <path
     d="M 8.835,15.774 10,17 l 5.473,5.591 3.414,7.682 h 0.446 L 19.446,36.545 21,38 l 0.693,1.294 h 17.601 v -9.373 h -7.068 l -3.53,-13.04 -2.692,9.421 -2.572,-9.36 -3.619,12.621 -1.645,-0.956 -3.14,-12.833 z"
     id="path34"
     style="opacity:0.2;fill:url(#g);fill-rule:evenodd"
     inkscape:connector-curvature="0" />
  <path
     d="m 23.509,12.585 5.215,4.893 -0.153,-4.907 10.723,10.302 v 7.05 h -7.069 l -3.148,-11.75 -2.885,4.998 -2.709,-4.691 z"
     id="path36"
     style="opacity:0.2;fill:url(#h);fill-rule:evenodd"
     inkscape:connector-curvature="0" />
  <path
     d="m 16,15 6.248,6.071 -2.887,10.774 -4.299,-16.042 z"
     id="path38"
     style="opacity:0.2;fill:url(#i);fill-rule:evenodd"
     inkscape:connector-curvature="0" />
  <path
     d="m 5.338,42.943 c 0.33,0.298 0.686,0.57 1.101,0.745 A 4.008,4.008 0 0 0 8,44 h 32 c 0.554,0 1.082,-0.11 1.56,-0.313 0.416,-0.175 0.773,-0.446 1.102,-0.744 z"
     id="path40"
     inkscape:connector-curvature="0"
     style="opacity:0.50400002;fill:#1f3c64" />
  <path
     d="M 8,8 V 40 H 40 V 8 Z m 2,2 H 38 V 29 H 33 L 29.754,16.987 28.571,12.571 h -0.002 l -1.183,4.418 -1.348,5.036 -1.15,-4.29 -0.2,-0.746 V 16.987 L 23.509,12.585 19.451,27.73 16,15 h -6 z m 0,7 h 4 l 4.263,15.132 1.183,4.413 1.183,-4.411 v -0.002 l 2.875,-10.73 1.35,5.038 1.184,4.417 1.183,-4.417 1.348,-5.036 L 31,31 h 7 v 7 H 10 Z"
     id="path42"
     style="fill:url(#j)"
     inkscape:connector-curvature="0" />
</svg>
