<?xml version="1.0" encoding="UTF-8" standalone="no"?>
<svg
   height="48"
   width="48"
   version="1.1"
   id="svg223"
   sodipodi:docname="vimeo.svg"
   inkscape:version="1.3.2 (091e20ef0f, 2023-11-25)"
   xmlns:inkscape="http://www.inkscape.org/namespaces/inkscape"
   xmlns:sodipodi="http://sodipodi.sourceforge.net/DTD/sodipodi-0.dtd"
   xmlns:xlink="http://www.w3.org/1999/xlink"
   xmlns="http://www.w3.org/2000/svg"
   xmlns:svg="http://www.w3.org/2000/svg">
  <defs
     id="defs227">
    <linearGradient
       inkscape:collect="always"
       id="linearGradient857">
      <stop
         style="stop-color:#0082c9;stop-opacity:1;"
         offset="0"
         id="stop853" />
      <stop
         style="stop-color:#1cafff;stop-opacity:1"
         offset="1"
         id="stop855" />
    </linearGradient>
    <linearGradient
       id="linearGradient4252">
      <stop
         style="stop-color:#000000;stop-opacity:1;"
         offset="0"
         id="stop7" />
      <stop
         style="stop-color:#000000;stop-opacity:0;"
         offset="1"
         id="stop9" />
    </linearGradient>
    <linearGradient
       inkscape:collect="always"
       xlink:href="#linearGradient857"
       id="linearGradient832"
       gradientUnits="userSpaceOnUse"
       gradientTransform="matrix(0.26340811,0,0,0.26340811,28.000004,28)"
       x1="18.230097"
       y1="150"
       x2="150.00002"
       y2="-7.6293945e-06" />
  </defs>
  <sodipodi:namedview
     id="namedview225"
     pagecolor="#ffffff"
     bordercolor="#000000"
     borderopacity="0.25"
     inkscape:showpageshadow="2"
     inkscape:pageopacity="0.0"
     inkscape:pagecheckerboard="0"
     inkscape:deskcolor="#d1d1d1"
     showgrid="false"
     inkscape:zoom="5.6568543"
     inkscape:cx="44.194173"
     inkscape:cy="40.481863"
     inkscape:window-width="1920"
     inkscape:window-height="996"
     inkscape:window-x="0"
     inkscape:window-y="0"
     inkscape:window-maximized="1"
     inkscape:current-layer="svg223">
    <inkscape:grid
       type="xygrid"
       id="grid1413"
       originx="0"
       originy="0"
       spacingy="1"
       spacingx="1"
       units="px"
       visible="false" />
  </sodipodi:namedview>
  <linearGradient
     id="c"
     gradientUnits="userSpaceOnUse"
     x1="7"
     x2="19.6"
     y1="7"
     y2="19.6"
     gradientTransform="translate(-52.88275,-15.414)">
    <stop
       offset="0"
       stop-color="#292c2f"
       id="stop191" />
    <stop
       offset="1"
       stop-opacity="0"
       id="stop193" />
  </linearGradient>
  <linearGradient
     id="a"
     gradientUnits="userSpaceOnUse"
     x1="-277.599"
     x2="-277.599"
     y1="-329.66"
     y2="-349.26001"
     gradientTransform="translate(-52.88275,-15.414)">
    <stop
       offset="0"
       stop-color="#c6cdd1"
       id="stop196" />
    <stop
       offset="1"
       stop-color="#e0e5e7"
       id="stop198" />
  </linearGradient>
  <linearGradient
     id="b"
     gradientUnits="userSpaceOnUse"
     x1="-8.3990002"
     x2="-8.3990002"
     y1="20.197001"
     y2="0.597"
     gradientTransform="translate(-52.88275,-15.414)">
    <stop
       offset="0"
       stop-color="#c61423"
       id="stop201" />
    <stop
       offset="1"
       stop-color="#dc2b41"
       id="stop203" />
  </linearGradient>
  <linearGradient
     id="d"
     gradientTransform="matrix(0.69856,0,0,0.70511,-352.34875,-368.514)"
     gradientUnits="userSpaceOnUse"
     x1="16"
     x2="16"
     y1="25"
     y2="7">
    <stop
       offset="0"
       stop-color="#cea476"
       id="stop206" />
    <stop
       offset="1"
       stop-color="#dab58b"
       id="stop208" />
  </linearGradient>
  <circle
     r="21"
     cy="24"
     cx="24"
     id="circle1050-5"
     style="fill:url(#linearGradient832);fill-opacity:1;fill-rule:evenodd;stroke:none;stroke-width:0.0263408;stroke-miterlimit:4;stroke-dasharray:none;stroke-opacity:1"
     inkscape:export-filename="nextcloud-icon.png"
     inkscape:export-xdpi="300"
     inkscape:export-ydpi="300" />
  <path
     d="m 7.4333992,19.262262 1.666663,2.500011 c 0,0 0.8333445,-1.666677 3.3333328,-1.666677 1.666676,3.333332 4.166672,20.833337 10.000005,20.833337 11.666659,0 17.499999,-19.999995 17.499999,-25.000006 0,-0.833333 0.83334,-4.166664 -4.166664,-4.166664 -6.666668,0 -9.166674,8.333333 -9.166674,8.333333 0,0 2.500006,-0.833334 5.000005,-0.833334 0.833338,2.500011 -1.666668,8.333337 -5.833328,11.666666 -3.333338,-4.166664 -3.333338,-18.333333 -7.5,-18.333333 -3.333339,0 -10.8333388,6.666667 -10.8333388,6.666667 z"
     style="opacity:0.2;stroke-width:0.999967"
     id="path2-3" />
  <path
     d="m 7.4333992,18.428934 1.666663,2.500004 c 0,0 0.8333445,-1.666676 3.3333328,-1.666676 1.666676,3.333332 4.166672,20.833339 10.000005,20.833339 11.666659,0 17.499999,-20.000005 17.499999,-25.000007 0,-0.83332 0.83334,-4.166661 -4.166664,-4.166661 -6.666668,0 -9.166674,8.333329 -9.166674,8.333329 0,0 2.500006,-0.833328 5.000005,-0.833328 0.833338,2.500004 -1.666668,8.33333 -5.833328,11.666659 -3.333338,-4.166659 -3.333338,-18.33333 -7.5,-18.33333 -3.333339,0 -10.8333388,6.666671 -10.8333388,6.666671 z"
     style="fill:#ffffff;stroke-width:0.999967"
     id="path3" />
</svg>
