<?xml version="1.0" encoding="UTF-8" standalone="no"?>
<svg
   width="48"
   height="48"
   version="1.1"
   id="svg1"
   sodipodi:docname="wicked-demo.svg"
   inkscape:version="1.4.2 (unknown)"
   xmlns:inkscape="http://www.inkscape.org/namespaces/inkscape"
   xmlns:sodipodi="http://sodipodi.sourceforge.net/DTD/sodipodi-0.dtd"
   xmlns:xlink="http://www.w3.org/1999/xlink"
   xmlns="http://www.w3.org/2000/svg"
   xmlns:svg="http://www.w3.org/2000/svg">
  <defs
     id="defs1">
    <linearGradient
       id="linearGradient5"
       inkscape:collect="always">
      <stop
         style="stop-color:#8d5fd3;stop-opacity:1"
         offset="0"
         id="stop4" />
      <stop
         style="stop-color:#466186;stop-opacity:1;"
         offset="1"
         id="stop5" />
    </linearGradient>
    <linearGradient
       id="linearGradient1"
       inkscape:collect="always">
      <stop
         style="stop-color:#263448;stop-opacity:1;"
         offset="0"
         id="stop1" />
      <stop
         style="stop-color:#aa87de;stop-opacity:1"
         offset="1"
         id="stop2" />
    </linearGradient>
    <linearGradient
       inkscape:collect="always"
       xlink:href="#linearGradient1"
       id="linearGradient2"
       x1="29"
       y1="62"
       x2="29"
       y2="8"
       gradientUnits="userSpaceOnUse" />
    <linearGradient
       inkscape:collect="always"
       xlink:href="#linearGradient5"
       id="linearGradient4"
       x1="51"
       y1="62"
       x2="50.998226"
       y2="47.059803"
       gradientUnits="userSpaceOnUse"
       gradientTransform="matrix(0.72727268,0,0,0.72727268,3.3471446,3.1491151)" />
  </defs>
  <sodipodi:namedview
     id="namedview1"
     pagecolor="#ffffff"
     bordercolor="#000000"
     borderopacity="0.25"
     inkscape:showpageshadow="2"
     inkscape:pageopacity="0.0"
     inkscape:pagecheckerboard="0"
     inkscape:deskcolor="#d1d1d1"
     inkscape:zoom="8.5626212"
     inkscape:cx="45.138047"
     inkscape:cy="23.6493"
     inkscape:window-width="1920"
     inkscape:window-height="998"
     inkscape:window-x="0"
     inkscape:window-y="0"
     inkscape:window-maximized="1"
     inkscape:current-layer="svg1" />
  <g
     transform="matrix(0.74074074,0,0,0.74074074,2.5185185,-1.9259259)"
     id="g1">
    <circle
       cx="29"
       cy="35"
       r="27"
       fill="#4d4d4d"
       style="fill:url(#linearGradient2);paint-order:stroke markers fill"
       id="circle1" />
    <path
       style="fill:#ffffff;stroke-width:0.0577193"
       d="m 27.958,51.152 -0.577,-0.083 c -1.916,-0.272 -3.896,-1.167 -5.425,-2.451 -2.367,-1.987 -3.762,-4.76 -3.959,-7.867 l -0.04,-0.632 0.513,0.026 c 3.616,0.185 6.8,2.011 8.794,5.041 0.917,1.394 1.597,3.319 1.715,4.854 0.02,0.251 0.054,0.456 0.076,0.456 0.022,0 0.056,-0.205 0.076,-0.456 0.084,-1.09 0.497,-2.539 1.046,-3.669 1.353,-2.788 3.813,-4.875 6.814,-5.781 0.645,-0.195 1.5,-0.36 2.063,-0.397 0.262,-0.017 0.617,-0.045 0.788,-0.06 l 0.312,-0.03 -0.041,0.652 c -0.24,3.807 -2.313,7.126 -5.638,9.03 a 10.962,10.962 0 0 1 -3.97,1.32 c -0.546,0.073 -2.167,0.103 -2.547,0.047 z m -1.553,-8.75 c -0.3,-0.157 -0.34,-0.29 -0.553,-1.833 -0.112,-0.81 -0.217,-1.53 -0.233,-1.602 -0.021,-0.095 -0.172,-0.202 -0.562,-0.397 a 10.22,10.22 0 0 1 -0.992,-0.582 l -0.46,-0.316 -1.558,0.62 c -1.554,0.618 -1.56,0.62 -1.786,0.539 -0.218,-0.078 -0.27,-0.157 -1.466,-2.216 -1.316,-2.268 -1.403,-2.467 -1.189,-2.73 0.059,-0.073 0.666,-0.568 1.348,-1.1 l 1.241,-0.967 -0.027,-0.458 a 7.362,7.362 0 0 1 0.013,-1.383 l 0.043,-0.52 -1.305,-1.01 C 18.131,27.838 17.591,27.38 17.558,27.293 a 0.633,0.633 0 0 1 -0.025,-0.296 c 0.047,-0.236 2.386,-4.273 2.579,-4.451 0.094,-0.088 0.237,-0.159 0.317,-0.159 0.08,0 0.828,0.275 1.661,0.61 l 1.516,0.61 0.547,-0.364 c 0.3,-0.201 0.747,-0.456 0.991,-0.567 0.245,-0.112 0.456,-0.241 0.47,-0.289 0.015,-0.048 0.125,-0.787 0.244,-1.642 0.205,-1.463 0.228,-1.567 0.375,-1.732 l 0.157,-0.176 2.53,-0.014 c 1.937,-0.011 2.563,0.002 2.669,0.057 0.3,0.157 0.34,0.29 0.554,1.833 0.112,0.81 0.216,1.53 0.232,1.602 0.022,0.095 0.173,0.201 0.563,0.396 0.293,0.147 0.74,0.41 0.993,0.583 l 0.46,0.317 1.555,-0.622 1.555,-0.62 0.23,0.08 c 0.221,0.08 0.268,0.15 1.468,2.218 1.316,2.268 1.403,2.467 1.19,2.73 -0.06,0.072 -0.666,0.568 -1.349,1.102 -1.048,0.82 -1.239,0.993 -1.227,1.11 0.031,0.328 0.023,1.954 -0.01,2.06 -0.031,0.097 0.167,0.276 1.266,1.138 0.716,0.562 1.327,1.07 1.358,1.127 a 0.686,0.686 0 0 1 0.056,0.269 c 0,0.205 -2.35,4.301 -2.6,4.533 -0.095,0.087 -0.237,0.159 -0.316,0.159 -0.079,0 -0.825,-0.275 -1.658,-0.611 l -1.515,-0.61 -0.55,0.365 c -0.303,0.2 -0.75,0.456 -0.995,0.567 -0.244,0.111 -0.455,0.241 -0.47,0.289 a 63.05,63.05 0 0 0 -0.243,1.642 c -0.205,1.462 -0.227,1.566 -0.375,1.732 l -0.157,0.175 -2.53,0.015 c -1.937,0.011 -2.562,-0.002 -2.669,-0.058 z m 3.343,-7.4 a 4.284,4.284 0 0 0 2.368,-1.242 c 0.725,-0.725 1.14,-1.569 1.277,-2.598 0.124,-0.929 -0.11,-1.997 -0.623,-2.845 -0.28,-0.462 -0.987,-1.169 -1.449,-1.448 -0.85,-0.515 -1.915,-0.748 -2.852,-0.623 -0.63,0.084 -1.386,0.356 -1.867,0.67 -0.464,0.304 -1.108,0.96 -1.376,1.401 -0.514,0.845 -0.748,1.915 -0.624,2.845 0.134,1.013 0.55,1.87 1.248,2.57 0.491,0.492 0.947,0.798 1.528,1.025 0.797,0.31 1.57,0.39 2.37,0.246 z"
       id="path1" />
  </g>
  <g
     id="g2"
     transform="translate(-4.4380494,-4.2400208)">
    <circle
       cx="40.438049"
       cy="40.240021"
       fill="#f55"
       style="fill:url(#linearGradient4);fill-opacity:1;stroke-width:2.51967"
       paint-order="stroke markers fill"
       id="circle2"
       r="8" />
    <path
       style="fill:#fefefe;fill-opacity:1;stroke-width:0.0134395"
       d="m 36.230843,44.240925 a 1.5286375,1.5286375 0 0 1 -0.661324,-0.24199 1.752633,1.752633 0 0 1 -0.373321,-0.369328 c -0.182667,-0.263327 -0.285331,-0.613325 -0.265331,-0.899315 0.01063,-0.151327 0.63532,-4.540587 0.668656,-4.70191 0.09132,-0.433996 0.326658,-0.853319 0.655986,-1.167318 a 2.3126227,2.3126227 0 0 1 1.203309,-0.605983 l 0.16267,-0.02937 h 5.631218 l 0.163338,0.02937 c 0.75398,0.137335 1.369298,0.604656 1.691297,1.284643 0.08865,0.187996 0.146661,0.367325 0.180665,0.563322 0.04,0.226655 0.645983,4.501243 0.65465,4.619915 0.01532,0.204659 -0.03798,0.473985 -0.135998,0.681313 a 1.3693071,1.3693071 0 0 1 -0.265988,0.389328 1.454639,1.454639 0 0 1 -1.859975,0.214003 c -0.100004,-0.06532 -0.226657,-0.185335 -0.817977,-0.77466 L 42.163401,42.535621 H 38.71146 l -0.693323,0.689993 c -0.395993,0.394655 -0.730648,0.716654 -0.781312,0.752653 -0.119997,0.08399 -0.343334,0.189333 -0.475331,0.222659 -0.09999,0.02531 -0.327324,0.0567 -0.389987,0.05336 a 6.6372078,6.6372078 0 0 1 -0.140664,-0.01337 z m 0.278656,-1.16197 c 0.03535,-0.01398 0.306666,-0.275995 0.890656,-0.859982 l 0.839984,-0.839326 h 4.393916 l 0.839983,0.839983 c 0.584656,0.58333 0.855315,0.845319 0.889988,0.859989 0.127997,0.05266 0.286657,0.01063 0.369318,-0.09799 0.08532,-0.111998 0.102672,0.05199 -0.251996,-2.440619 -0.199995,-1.406645 -0.331993,-2.294627 -0.349317,-2.353288 a 1.1633112,1.1633112 0 0 0 -0.86199,-0.791318 c -0.09332,-0.01995 -0.389992,-0.02198 -2.833279,-0.02198 -2.995274,0 -2.815944,-0.005 -3.024607,0.08 -0.143331,0.05864 -0.233331,0.118002 -0.356661,0.234001 a 1.1333118,1.1333118 0 0 0 -0.334,0.555319 c -0.02198,0.08734 -0.652646,4.49991 -0.651984,4.565915 0,0.09734 0.09332,0.226658 0.194667,0.271325 a 0.41932542,0.41932542 0 0 0 0.245322,-0.0021 z m 1.638641,-2.273292 a 9.6424793,9.6424793 0 0 1 -0.0095,-0.577326 v -0.568656 h -1.141975 v -0.564657 h 1.141972 l 0.0036,-0.574652 0.0036,-0.574662 0.285995,-0.0036 0.285329,-0.0043 v 1.156645 h 1.142643 v 0.564689 h -1.143412 v 1.155312 h -0.280057 c -0.153333,0 -0.283994,-0.0043 -0.288661,-0.0089 z m 5.057903,-0.0057 A 0.55265619,0.55265619 0 0 1 42.916712,40.652897 0.53865648,0.53865648 0 0 1 42.73539,40.236906 c 0,-0.166667 0.05731,-0.297993 0.181322,-0.415328 a 0.56132266,0.56132266 0 0 1 0.786657,0.01135 c 0.394656,0.394657 0.05199,1.059977 -0.497326,0.966646 z m -1.13864,-1.719253 a 0.57065585,0.57065585 0 1 1 0.339993,-1.076646 0.57198918,0.57198918 0 0 1 0.267995,0.749986 0.56932249,0.56932249 0 0 1 -0.607988,0.32666 z"
       id="path2" />
  </g>
</svg>
