<?xml version="1.0" encoding="UTF-8" standalone="no"?>
<svg
   width="48"
   height="48"
   viewBox="0 0 12.699752 12.699752"
   version="1.1"
   id="svg5"
   sodipodi:docname="wine-winecfg.svg"
   inkscape:version="1.3.2 (091e20ef0f, 2023-11-25)"
   xmlns:inkscape="http://www.inkscape.org/namespaces/inkscape"
   xmlns:sodipodi="http://sodipodi.sourceforge.net/DTD/sodipodi-0.dtd"
   xmlns="http://www.w3.org/2000/svg"
   xmlns:svg="http://www.w3.org/2000/svg">
  <defs
     id="defs5" />
  <sodipodi:namedview
     id="namedview5"
     pagecolor="#ffffff"
     bordercolor="#999999"
     borderopacity="1"
     inkscape:showpageshadow="2"
     inkscape:pageopacity="0"
     inkscape:pagecheckerboard="0"
     inkscape:deskcolor="#d1d1d1"
     inkscape:zoom="6.2265625"
     inkscape:cx="34.047679"
     inkscape:cy="43.282309"
     inkscape:window-width="1920"
     inkscape:window-height="994"
     inkscape:window-x="0"
     inkscape:window-y="0"
     inkscape:window-maximized="1"
     inkscape:current-layer="svg5" />
  <circle
     cx="6.3498759"
     cy="6.3498759"
     r="5.5561414"
     fill="#2196f3"
     style="stroke-width:0.777738;paint-order:stroke fill markers"
     id="circle1" />
  <path
     fill="#ffffff"
     d="M 3.539141,6.1445545 3.536803,4.1379972 5.7875694,3.8020156 V 6.1445545 Z M 6.1632203,3.7421301 9.162946,3.2638228 V 6.1445545 H 6.1632203 Z M 9.1637234,6.5559767 9.162946,9.4367088 6.1632203,8.9739561 V 6.555199 Z M 5.7883518,8.9210702 3.539141,8.5827554 V 6.5559767 h 2.2484331 v 2.3650935 z"
     id="path1"
     style="stroke-width:0.777738" />
  <g
     paint-order="stroke markers fill"
     transform="matrix(0.77773543,0,0,0.77773543,0.26533793,-217.62958)"
     id="g5">
    <circle
       cx="11.718"
       cy="291.87"
       r="3.175"
       fill="#ff5555"
       id="circle2" />
    <circle
       cx="11.718"
       cy="291.87"
       r="1.5880001"
       opacity="0.15"
       id="circle3" />
    <g
       fill="#ffffff"
       id="g4">
      <path
         d="m 11.718,290.522 a 1.343,1.343 0 0 0 -1.343,1.344 1.343,1.343 0 0 0 1.343,1.343 1.343,1.343 0 0 0 1.343,-1.343 1.343,1.343 0 0 0 -1.343,-1.344 z m 0,0.61 a 0.733,0.733 0 0 1 0.733,0.734 0.733,0.733 0 0 1 -0.733,0.732 0.733,0.733 0 0 1 -0.733,-0.732 0.733,0.733 0 0 1 0.733,-0.733 z"
         id="path3" />
      <path
         d="m 11.474,289.973 h 0.488 v 0.854 h -0.488 z m 0,2.93 h 0.488 v 0.855 h -0.488 z m 2.137,-1.282 v 0.489 h -0.855 v -0.489 z m -2.931,0 v 0.489 H 9.825 v -0.489 z m 2.55,1.41 -0.346,0.346 -0.604,-0.605 0.345,-0.345 z m -2.073,-2.072 -0.345,0.345 -0.605,-0.604 0.345,-0.345 z m -0.605,2.418 -0.345,-0.346 0.605,-0.604 0.345,0.345 z m 2.073,-2.073 -0.345,-0.345 0.604,-0.604 0.345,0.345 z"
         id="path4" />
    </g>
  </g>
</svg>
