<?xml version="1.0" encoding="UTF-8" standalone="no"?>
<svg
   xmlns:dc="http://purl.org/dc/elements/1.1/"
   xmlns:cc="http://creativecommons.org/ns#"
   xmlns:rdf="http://www.w3.org/1999/02/22-rdf-syntax-ns#"
   xmlns:svg="http://www.w3.org/2000/svg"
   xmlns="http://www.w3.org/2000/svg"
   xmlns:xlink="http://www.w3.org/1999/xlink"
   xmlns:sodipodi="http://sodipodi.sourceforge.net/DTD/sodipodi-0.dtd"
   xmlns:inkscape="http://www.inkscape.org/namespaces/inkscape"
   width="48"
   height="48"
   version="1.1"
   id="svg88"
   sodipodi:docname="preferences-system-splash.svg"
   inkscape:version="0.92.5 (2060ec1f9f, 2020-04-08)">
  <metadata
     id="metadata92">
    <rdf:RDF>
      <cc:Work
         rdf:about="">
        <dc:format>image/svg+xml</dc:format>
        <dc:type
           rdf:resource="http://purl.org/dc/dcmitype/StillImage" />
        <dc:title></dc:title>
      </cc:Work>
    </rdf:RDF>
  </metadata>
  <sodipodi:namedview
     pagecolor="#ffffff"
     bordercolor="#666666"
     borderopacity="1"
     objecttolerance="10"
     gridtolerance="10"
     guidetolerance="10"
     inkscape:pageopacity="0"
     inkscape:pageshadow="2"
     inkscape:window-width="1085"
     inkscape:window-height="480"
     id="namedview90"
     showgrid="false"
     inkscape:zoom="4.9166667"
     inkscape:cx="2.1355932"
     inkscape:cy="24"
     inkscape:window-x="0"
     inkscape:window-y="25"
     inkscape:window-maximized="0"
     inkscape:current-layer="svg88" />
  <defs
     id="defs52">
    <linearGradient
       id="g"
       y1="536.8"
       y2="503.8"
       x2="0"
       gradientUnits="userSpaceOnUse">
      <stop
         stop-color="#2a2c2f"
         id="stop2" />
      <stop
         offset="1"
         stop-color="#424649"
         id="stop4" />
    </linearGradient>
    <linearGradient
       id="f"
       y1="547.8"
       y2="536.8"
       x2="0"
       gradientUnits="userSpaceOnUse"
       gradientTransform="matrix(1,0,0,0.54545,0,244)">
      <stop
         stop-color="#c6cdd1"
         id="stop7" />
      <stop
         offset="1"
         stop-color="#e0e5e7"
         id="stop9" />
    </linearGradient>
    <linearGradient
       id="b"
       y1="5.342"
       x1="42.799"
       y2="31.357"
       x2="11.999"
       gradientUnits="userSpaceOnUse"
       gradientTransform="matrix(1 0 0 1 -9.995 -40.003)">
      <stop
         stop-color="#1abc9c"
         id="stop12" />
      <stop
         offset="1"
         stop-color="#2980b9"
         id="stop14" />
    </linearGradient>
    <linearGradient
       id="c"
       y1="22.346"
       x1="29.855"
       y2="28.506"
       x2="54.32"
       gradientUnits="userSpaceOnUse"
       gradientTransform="matrix(1 0 0 1 -9.995 -40.003)">
      <stop
         stop-color="#cc4a5e"
         id="stop17" />
      <stop
         offset="1"
         stop-color="#aa478a"
         id="stop19" />
    </linearGradient>
    <linearGradient
       id="a"
       y1="41.22"
       x1="24.392"
       y2="25.343"
       x2="20.643"
       gradientUnits="userSpaceOnUse">
      <stop
         stop-color="#334545"
         id="stop22" />
      <stop
         offset="1"
         stop-color="#536161"
         id="stop24" />
    </linearGradient>
    <linearGradient
       xlink:href="#a"
       id="k"
       y1="568.8"
       x1="431.57"
       y2="562.8"
       x2="439.57"
       gradientUnits="userSpaceOnUse"
       gradientTransform="matrix(-0.91667,0,0,0.91667,803.264,7.316)" />
    <linearGradient
       xlink:href="#a"
       id="l"
       y1="40.899"
       x1="56.03"
       y2="32.475"
       x2="40.647"
       gradientUnits="userSpaceOnUse"
       gradientTransform="translate(374.575,499.797)" />
    <linearGradient
       xlink:href="#a"
       id="m"
       y1="32.15"
       x1="60.895"
       y2="27.06"
       x2="53.41"
       gradientUnits="userSpaceOnUse"
       gradientTransform="translate(354.573,499.797)" />
    <linearGradient
       xlink:href="#a"
       id="n"
       y1="36.527"
       x1="33.32"
       y2="31.348"
       x2="24.78"
       gradientUnits="userSpaceOnUse"
       gradientTransform="translate(374.575,499.797)" />
    <linearGradient
       xlink:href="#a"
       id="o"
       y1="36.765"
       x1="34"
       y2="49.571"
       x2="40.25"
       gradientUnits="userSpaceOnUse"
       gradientTransform="translate(374.575,499.797)" />
    <linearGradient
       xlink:href="#a"
       id="j"
       gradientUnits="userSpaceOnUse"
       x1="24.392"
       y1="41.22"
       x2="20.643"
       y2="25.343"
       gradientTransform="translate(374.575,499.797)" />
    <linearGradient
       xlink:href="#b"
       id="h"
       gradientUnits="userSpaceOnUse"
       gradientTransform="translate(374.575,499.797)"
       x1="42.799"
       y1="5.342"
       x2="11.999"
       y2="31.357" />
    <linearGradient
       xlink:href="#c"
       id="i"
       gradientUnits="userSpaceOnUse"
       gradientTransform="translate(374.575,499.797)"
       x1="29.855"
       y1="22.346"
       x2="54.32"
       y2="28.506" />
    <linearGradient
       id="d">
      <stop
         offset="0"
         stop-color="#334545"
         id="stop35" />
      <stop
         offset="1"
         stop-color="#536161"
         id="stop37" />
    </linearGradient>
    <linearGradient
       id="p"
       gradientUnits="userSpaceOnUse"
       x1="14"
       x2="23"
       y1="10"
       y2="19"
       gradientTransform="matrix(1.5,0,0,1.5,384.535,502.765)">
      <stop
         offset="0"
         stop-color="#292c2f"
         id="stop40" />
      <stop
         offset="1"
         stop-color="#292c2f"
         stop-opacity=".031"
         id="stop42" />
    </linearGradient>
    <linearGradient
       id="e"
       gradientUnits="userSpaceOnUse"
       x1="19.514"
       x2="15"
       y1="15.555"
       y2="11"
       gradientTransform="matrix(1.5 0 0 1.5 384.535 500.765)">
      <stop
         offset="0"
         stop-color="#f3f3f3"
         id="stop45" />
      <stop
         offset="1"
         stop-color="#fcfcfc"
         stop-opacity="0"
         id="stop47" />
    </linearGradient>
    <linearGradient
       xlink:href="#e"
       id="r"
       x1="434.57"
       y1="523.8"
       x2="426.57"
       y2="516.8"
       gradientUnits="userSpaceOnUse"
       gradientTransform="translate(-20,2)" />
    <linearGradient
       xlink:href="#e"
       id="q"
       gradientUnits="userSpaceOnUse"
       gradientTransform="matrix(1.5,0,0,1.5,424.535,500.765)"
       x1="19.514"
       y1="15.555"
       x2="15"
       y2="11" />
  </defs>
  <g
     transform="translate(-384.57,-499.8)"
     id="g86">
    <path
       d="m 402.57,536.8 v 6 h 12 v -6 z"
       id="path54"
       style="fill:url(#f)"
       inkscape:connector-curvature="0" />
    <rect
       height="36"
       y="503.79999"
       x="384.57001"
       width="48"
       ry="5"
       rx="5"
       id="rect56"
       style="fill:url(#g)" />
    <path
       d="m 389.578,505.8 a 2.987,2.987 0 0 0 -3.004,2.99 v 27.008 h 44 v -27.002 a 2.984,2.984 0 0 0 -0.875,-2.119 3.003,3.003 0 0 0 -2.129,-0.877 z"
       id="path58"
       style="fill:url(#h)"
       inkscape:connector-curvature="0" />
    <path
       d="m 429.322,506.52 -29.027,16.759 21.681,12.519 h 8.6 v -3 l -0.002,-24.002 a 2.984,2.984 0 0 0 -0.875,-2.119 c -0.096,-0.096 -0.268,-0.074 -0.377,-0.156 z"
       id="path60"
       style="fill:url(#i)"
       inkscape:connector-curvature="0" />
    <path
       d="m 400.325,523.213 -13.75,7.94 v 4.644 h 35.605 z"
       id="path62"
       style="fill:url(#j)"
       inkscape:connector-curvature="0" />
    <path
       d="m 407.896,527.59 -7.571,-4.37 v 8.741 z"
       id="path64"
       style="fill:url(#k)"
       inkscape:connector-curvature="0" />
    <path
       d="m 415.466,531.957 v 3.844 h 6.656 z"
       id="path66"
       style="fill:url(#l)"
       inkscape:connector-curvature="0" />
    <path
       d="m 407.893,527.584 v 8.213 h 0.916 l 6.654,-3.842 z"
       id="path68"
       style="fill:url(#m)"
       inkscape:connector-curvature="0" />
    <path
       d="m 400.325,531.957 v 3.842 h 6.654 z"
       id="path70"
       style="fill:url(#n)"
       inkscape:connector-curvature="0" />
    <path
       d="m 415.466,531.957 -6.656,3.844 h 6.656 z"
       id="path72"
       style="fill:url(#o)"
       inkscape:connector-curvature="0" />
    <path
       d="m 430.574,508.796 a 2.984,2.984 0 0 0 -0.875,-2.119 c -0.095,-0.095 -0.266,-0.073 -0.373,-0.154 l -29.03,16.76 30.278,-8.942 z"
       id="path74"
       inkscape:connector-curvature="0"
       style="fill:#aa478a" />
    <path
       d="m 397.57,541.8 h 22 v 2 h -22 z"
       id="path76"
       inkscape:connector-curvature="0"
       style="fill:#99a1a7" />
    <path
       d="m 408.667,511.765 a 9,9 0 0 0 -6.495,2.637 9,9 0 0 0 0,12.726 l 7.137,7.137 h 21.726 v -3.727 l -16.137,-16.136 a 9,9 0 0 0 -6.231,-2.637 z"
       id="path78"
       style="opacity:0.25;fill:url(#p)"
       inkscape:connector-curvature="0" />
    <path
       d="m 448.535,509.765 a 9,9 0 0 0 -9,9 9,9 0 0 0 9,9 9,9 0 0 0 9,-9 9,9 0 0 0 -9,-9 z m 0,1.5 a 7.5,7.5 0 0 1 7.5,7.5 7.5,7.5 0 0 1 -7.5,7.5 7.5,7.5 0 0 1 -7.5,-7.5 7.5,7.5 0 0 1 7.5,-7.5 z"
       id="path80"
       style="fill:url(#q)"
       inkscape:connector-curvature="0" />
    <path
       d="m 408.57,511.8 a 9,9 0 0 0 -9,9 9,9 0 0 0 9,9 9,9 0 0 0 9,-9 9,9 0 0 0 -9,-9 z m 0,1 a 8,8 0 0 1 0.799,0.04 8,8 0 0 1 0.79,0.12 8,8 0 0 1 0.774,0.197 8,8 0 0 1 0.752,0.274 8,8 0 0 1 0.72,0.348 8,8 0 0 1 0.683,0.418 8,8 0 0 1 0.636,0.484 8,8 0 0 1 0.584,0.545 8,8 0 0 1 0.53,0.601 8,8 0 0 1 0.464,0.65 8,8 0 0 1 0.397,0.694 8,8 0 0 1 0.328,0.73 8,8 0 0 1 0.252,0.758 8,8 0 0 1 0.174,0.782 8,8 0 0 1 0.098,0.793 8,8 0 0 1 0.019,0.566 8,8 0 0 1 -0.04,0.799 8,8 0 0 1 -0.12,0.79 8,8 0 0 1 -0.197,0.774 8,8 0 0 1 -0.274,0.752 8,8 0 0 1 -0.348,0.721 8,8 0 0 1 -0.418,0.682 8,8 0 0 1 -0.484,0.636 8,8 0 0 1 -0.545,0.584 8,8 0 0 1 -0.601,0.53 8,8 0 0 1 -0.65,0.464 8,8 0 0 1 -0.694,0.397 8,8 0 0 1 -0.73,0.328 8,8 0 0 1 -0.758,0.252 8,8 0 0 1 -0.782,0.174 8,8 0 0 1 -0.793,0.098 8,8 0 0 1 -0.566,0.019 8,8 0 0 1 -0.799,-0.04 8,8 0 0 1 -0.79,-0.12 8,8 0 0 1 -0.774,-0.197 8,8 0 0 1 -0.752,-0.274 8,8 0 0 1 -0.721,-0.348 8,8 0 0 1 -0.682,-0.417 8,8 0 0 1 -0.636,-0.485 8,8 0 0 1 -0.584,-0.545 8,8 0 0 1 -0.53,-0.601 8,8 0 0 1 -0.464,-0.65 8,8 0 0 1 -0.397,-0.694 8,8 0 0 1 -0.328,-0.73 8,8 0 0 1 -0.252,-0.758 8,8 0 0 1 -0.174,-0.782 8,8 0 0 1 -0.098,-0.793 8,8 0 0 1 -0.019,-0.566 8,8 0 0 1 0.04,-0.799 8,8 0 0 1 0.12,-0.79 8,8 0 0 1 0.197,-0.774 8,8 0 0 1 0.274,-0.752 8,8 0 0 1 0.348,-0.72 8,8 0 0 1 0.417,-0.683 8,8 0 0 1 0.485,-0.636 8,8 0 0 1 0.545,-0.584 8,8 0 0 1 0.601,-0.53 8,8 0 0 1 0.65,-0.464 8,8 0 0 1 0.694,-0.397 8,8 0 0 1 0.73,-0.328 8,8 0 0 1 0.758,-0.252 8,8 0 0 1 0.782,-0.174 8,8 0 0 1 0.793,-0.098 8,8 0 0 1 0.566,-0.019 z"
       id="path82"
       style="fill:url(#r);paint-order:stroke fill markers"
       inkscape:connector-curvature="0" />
    <path
       d="m 408.57,511.8 a 9,9 0 0 0 -9,9 9,9 0 0 0 9,9 9,9 0 0 0 5.842,-2.158 l -0.711,-0.711 a 8,8 0 0 1 -0.158,0.137 8,8 0 0 1 -0.65,0.464 8,8 0 0 1 -0.694,0.397 8,8 0 0 1 -0.73,0.328 8,8 0 0 1 -0.758,0.252 8,8 0 0 1 -0.782,0.174 8,8 0 0 1 -0.793,0.098 8,8 0 0 1 -0.566,0.019 8,8 0 0 1 -0.799,-0.04 8,8 0 0 1 -0.79,-0.12 8,8 0 0 1 -0.774,-0.197 8,8 0 0 1 -0.752,-0.274 8,8 0 0 1 -0.72,-0.348 8,8 0 0 1 -0.683,-0.418 8,8 0 0 1 -0.636,-0.484 8,8 0 0 1 -0.584,-0.545 8,8 0 0 1 -0.53,-0.601 8,8 0 0 1 -0.464,-0.65 8,8 0 0 1 -0.397,-0.694 8,8 0 0 1 -0.328,-0.73 8,8 0 0 1 -0.252,-0.758 8,8 0 0 1 -0.174,-0.782 8,8 0 0 1 -0.098,-0.793 8,8 0 0 1 -0.019,-0.566 8,8 0 0 1 0.04,-0.799 8,8 0 0 1 0.12,-0.79 8,8 0 0 1 0.197,-0.774 8,8 0 0 1 0.274,-0.752 8,8 0 0 1 0.348,-0.721 8,8 0 0 1 0.418,-0.682 8,8 0 0 1 0.484,-0.636 8,8 0 0 1 0.545,-0.584 8,8 0 0 1 0.601,-0.53 8,8 0 0 1 0.65,-0.464 8,8 0 0 1 0.694,-0.397 8,8 0 0 1 0.73,-0.328 8,8 0 0 1 0.758,-0.252 8,8 0 0 1 0.782,-0.174 8,8 0 0 1 0.793,-0.098 8,8 0 0 1 0.566,-0.019 z"
       id="path84"
       inkscape:connector-curvature="0"
       style="fill:#ffffff;paint-order:stroke fill markers" />
  </g>
</svg>
