<?xml version="1.0" encoding="UTF-8" standalone="no"?>
<svg
   width="48"
   height="48"
   version="1.1"
   id="svg2"
   sodipodi:docname="youtube-music.svg"
   inkscape:version="1.3.2 (091e20ef0f, 2023-11-25)"
   xmlns:inkscape="http://www.inkscape.org/namespaces/inkscape"
   xmlns:sodipodi="http://sodipodi.sourceforge.net/DTD/sodipodi-0.dtd"
   xmlns="http://www.w3.org/2000/svg"
   xmlns:svg="http://www.w3.org/2000/svg">
  <defs
     id="defs2" />
  <sodipodi:namedview
     id="namedview2"
     pagecolor="#ffffff"
     bordercolor="#999999"
     borderopacity="1"
     inkscape:showpageshadow="2"
     inkscape:pageopacity="0"
     inkscape:pagecheckerboard="0"
     inkscape:deskcolor="#d1d1d1"
     inkscape:zoom="4.4028446"
     inkscape:cx="30.434869"
     inkscape:cy="49.172755"
     inkscape:window-width="1920"
     inkscape:window-height="994"
     inkscape:window-x="0"
     inkscape:window-y="0"
     inkscape:window-maximized="1"
     inkscape:current-layer="svg2" />
  <g
     id="g2"
     transform="matrix(0.77777778,0,0,0.77777778,-0.88888896,-0.88888896)">
    <circle
       cx="32"
       cy="32"
       r="27"
       id="circle1"
       style="fill:#c83771" />
    <path
       fill="#ffffff"
       d="m 40.001,32 -14,8.5 v -17 l 7,4.25 z"
       id="path1" />
    <path
       fill="#ffffff"
       d="M 32,15 A 17,17 0 0 0 15,32 17,17 0 0 0 32,49 17,17 0 0 0 49,32 17,17 0 0 0 32,15 Z m -0.027,3 A 14,14 0 0 1 32,18 14,14 0 0 1 46,32 14,14 0 0 1 32,46 14,14 0 0 1 18,32 14,14 0 0 1 31.973,18 Z"
       id="path2" />
  </g>
</svg>
