<?xml version="1.0" encoding="UTF-8" standalone="no"?>
<svg
   width="48"
   height="48"
   viewBox="0 0 12.699752 12.699753"
   version="1.1"
   id="svg1"
   sodipodi:docname="youtube-dl.svg"
   inkscape:version="1.3.2 (091e20ef0f, 2023-11-25)"
   xmlns:inkscape="http://www.inkscape.org/namespaces/inkscape"
   xmlns:sodipodi="http://sodipodi.sourceforge.net/DTD/sodipodi-0.dtd"
   xmlns="http://www.w3.org/2000/svg"
   xmlns:svg="http://www.w3.org/2000/svg">
  <defs
     id="defs1" />
  <sodipodi:namedview
     id="namedview1"
     pagecolor="#ffffff"
     bordercolor="#999999"
     borderopacity="1"
     inkscape:showpageshadow="2"
     inkscape:pageopacity="0"
     inkscape:pagecheckerboard="0"
     inkscape:deskcolor="#d1d1d1"
     inkscape:zoom="5.6568542"
     inkscape:cx="24.395184"
     inkscape:cy="38.272155"
     inkscape:window-width="1920"
     inkscape:window-height="994"
     inkscape:window-x="0"
     inkscape:window-y="0"
     inkscape:window-maximized="1"
     inkscape:current-layer="svg1" />
  <g
     id="g1"
     transform="matrix(0.99992858,0,0,0.99992858,-0.52816442,-0.52216576)">
    <circle
       cx="6.8785319"
       cy="6.8725328"
       r="5.5565386"
       style="stroke-width:0.777793;paint-order:stroke markers fill;fill:#c83771"
       id="circle1" />
    <path
       fill="#ffffff"
       d="M 9.7244776,5.784406 C 9.6925904,5.3986222 9.4623592,4.9132806 8.9902384,4.8953912 c -1.3191349,-0.088668 -2.8809385,-0.11278 -4.223405,0 -0.4168957,0.046667 -0.7023448,0.5545647 -0.7334565,0.9395712 a 10.971515,10.971515 0 0 0 0,2.0798118 c 0.031117,0.3857844 0.3095604,0.8960201 0.7334565,0.9489061 1.3588009,0.089446 2.9136041,0.1011136 4.223405,0 0.412225,-0.070766 0.7031226,-0.5631217 0.7342392,-0.9489061 a 11.542412,11.542412 0 0 0 0,-2.1303682 z M 6.154412,7.9015521 V 5.8264066 L 7.9643302,6.86398 Z"
       id="path1"
       style="stroke-width:0.777793" />
  </g>
  <circle
     cx="9.2602358"
     cy="8.2019234"
     r="2.1166253"
     id="circle2"
     style="stroke-width:0.571442;fill:#00ccff" />
  <path
     fill="#ffffff"
     d="m 8.2019334,8.3527888 1.058301,1.209744 1.0583196,-1.209744 H 9.7139674 v -1.512037 h -0.907453 v 1.512037 z"
     id="path2"
     style="stroke-width:0.571442" />
</svg>
