<?xml version="1.0" encoding="UTF-8" standalone="no"?>
<svg
   width="48"
   height="48"
   version="1.1"
   id="svg6"
   sodipodi:docname="zaz.svg"
   inkscape:version="1.4.2 (unknown)"
   xmlns:inkscape="http://www.inkscape.org/namespaces/inkscape"
   xmlns:sodipodi="http://sodipodi.sourceforge.net/DTD/sodipodi-0.dtd"
   xmlns="http://www.w3.org/2000/svg"
   xmlns:svg="http://www.w3.org/2000/svg">
  <defs
     id="defs6" />
  <sodipodi:namedview
     id="namedview6"
     pagecolor="#ffffff"
     bordercolor="#000000"
     borderopacity="0.25"
     inkscape:showpageshadow="2"
     inkscape:pageopacity="0.0"
     inkscape:pagecheckerboard="0"
     inkscape:deskcolor="#d1d1d1"
     inkscape:zoom="6.0546875"
     inkscape:cx="21.058065"
     inkscape:cy="47.153548"
     inkscape:window-width="1920"
     inkscape:window-height="998"
     inkscape:window-x="0"
     inkscape:window-y="0"
     inkscape:window-maximized="1"
     inkscape:current-layer="svg6" />
  <g
     id="g2"
     transform="matrix(0.75,0,0,0.75,1.125,1.125)">
    <path
       style="opacity:0.2;stroke-width:0.982295"
       d="M 3.0422321,29.839789 A 27.5,27.508772 0 0 0 3,30.991228 27.5,27.508772 0 0 0 30.5,58.5 27.5,27.508772 0 0 0 58,30.991228 27.5,27.508772 0 0 0 57.95875,30.177755 27.5,27.508772 0 0 1 30.5,56.535087 27.5,27.508772 0 0 1 3.0432143,29.839789 Z"
       id="path1" />
    <path
       style="fill:#2d3d53;fill-opacity:1;stroke-width:0.982295"
       d="M 30.5,2.5 A 27.5,27.508772 0 0 0 3,30.008772 27.5,27.508772 0 0 0 30.5,57.517544 27.5,27.508772 0 0 0 58,30.008772 27.5,27.508772 0 0 0 30.5,2.5 Z"
       id="path2" />
    <path
       style="opacity:0.1;fill:#ffffff;stroke-width:0.982295"
       d="M 30.498082,2.5 A 27.5,27.508772 0 0 0 3,30.008772 27.5,27.508772 0 0 0 3.0211008,30.407895 27.5,27.508772 0 0 1 30.498082,3.4824562 h 0.002 A 27.5,27.508772 0 0 1 57.976976,30.584431 27.5,27.508772 0 0 0 57.99807,30.008772 27.5,27.508772 0 0 0 30.5,2.5 Z"
       id="path3" />
    <g
       id="g1"
       transform="matrix(1.09561,0,0,1.0916179,16.372395,-67.745611)">
      <circle
         style="opacity:0.2;stroke-width:0.631579"
         cx="12.894737"
         cy="83.368423"
         r="10.736842"
         id="circle1" />
      <path
         style="opacity:0.2;stroke-width:0.631579"
         d="M 1.7019427,90.331882 C 0.21046968,90.331743 -0.99922568,91.505217 -1,92.952404 c 7.5789e-4,1.075415 0.765516,1.863651 1.70970379,2.435653 1.76372401,1.068492 5.02640651,4.544634 7.25776171,5.673803 0.8384633,0.40447 1.7701692,0.54141 2.5950855,0.55802 l 4.236945,-0.002 c 0.91962,0.0254 2.035273,-0.0801 3.022512,-0.55633 2.231355,-1.129172 5.494038,-4.605306 7.257762,-5.673799 0.944188,-0.571964 1.708963,-1.3602 1.709704,-2.435615 -7.58e-4,-1.447187 -1.21047,-2.620661 -2.701943,-2.620522 -0.819707,1.83e-4 -1.59406,0.361345 -2.106599,0.982061 -0.986851,1.315863 -1.91693,2.914087 -2.991584,4.40251 -1.651201,2.503686 -4.386083,4.14989 -5.945351,4.150301 C 10.184817,99.776476 8.6730257,98.267545 6.8763181,95.821301 5.7692613,94.303326 4.8186408,92.660646 3.8085421,91.313785 3.2960032,90.693069 2.5216495,90.331907 1.7019427,90.331724 Z"
         id="path1-3" />
      <ellipse
         style="opacity:0.2;stroke-width:0.631579"
         cx="12.894737"
         cy="104.52631"
         rx="8.8421049"
         ry="3.4736843"
         id="ellipse1" />
      <circle
         style="fill:#6675cc;fill-opacity:1;stroke-width:0.631579"
         cx="12.894737"
         cy="82.736839"
         r="10.736842"
         id="circle2" />
      <path
         style="fill:#cbcbcb;fill-opacity:1;stroke-width:0.631579"
         d="M 1.7019427,89.700303 C 0.21046968,89.700164 -0.99922568,90.873638 -1,92.320825 c 7.5789e-4,1.075415 0.765516,1.863651 1.70970379,2.435653 1.76372401,1.068493 5.02640651,4.544634 7.25776171,5.673802 0.8384633,0.40448 1.7701692,0.54141 2.5950855,0.55803 l 4.236945,-0.002 c 0.91962,0.0254 2.035273,-0.0801 3.022512,-0.55633 2.231355,-1.129171 5.494038,-4.605305 7.257762,-5.673798 0.944188,-0.571964 1.708963,-1.3602 1.709704,-2.435615 -7.58e-4,-1.447187 -1.21047,-2.620661 -2.701943,-2.620522 -0.819707,1.83e-4 -1.59406,0.361346 -2.106599,0.982061 -0.986851,1.315863 -1.91693,2.914087 -2.991584,4.40251 -1.651201,2.503686 -4.386083,4.14989 -5.945351,4.150301 C 10.184817,99.144897 8.6730257,97.635966 6.8763181,95.189722 5.7692613,93.671747 4.8186408,92.029067 3.8085421,90.682206 3.2960032,90.061491 2.5216495,89.700328 1.7019427,89.700145 Z"
         id="path2-6" />
      <path
         style="opacity:0.1;fill:#ffffff;stroke-width:0.631579"
         d="M 1.7014804,89.700246 C 0.21000737,89.700107 -0.99922568,90.87312 -1,92.320314 c 8.337e-5,0.117903 0.0131558,0.231833 0.03084,0.342928 0.15065621,-1.309497 1.28111558,-2.331543 2.6706417,-2.331417 0.8197067,1.9e-4 1.5943686,0.361194 2.1069076,0.98191 1.0100987,1.346867 1.9607886,2.989427 3.0678454,4.507402 1.7967076,2.446244 3.3085833,3.955932 6.1677633,4.046052 1.559268,-4.16e-4 4.294523,-1.647221 5.945724,-4.150907 1.074654,-1.488423 2.004515,-3.086684 2.991365,-4.402547 0.512539,-0.620716 1.287201,-0.98172 2.106908,-0.98191 1.389526,-1.26e-4 2.519996,1.02192 2.670641,2.331417 0.01768,-0.111095 0.03076,-0.225025 0.03084,-0.342928 -7.58e-4,-1.447194 -1.210007,-2.620207 -2.70148,-2.620068 -0.819707,1.9e-4 -1.594369,0.361194 -2.106908,0.98191 -0.98685,1.315863 -1.916711,2.914124 -2.991365,4.402547 -1.6512,2.503686 -4.386456,4.150491 -5.945724,4.150908 C 10.184819,99.145491 8.6729436,97.635802 6.876236,95.189558 5.7691792,93.671583 4.8184893,92.029023 3.8083905,90.682156 3.2958516,90.06144 2.5211897,89.700436 1.7014829,89.700246 Z"
         id="path3-7" />
      <ellipse
         style="fill:#ffdd55;stroke-width:0.631579"
         cx="12.894737"
         cy="103.89474"
         rx="8.8421049"
         ry="3.4736843"
         id="ellipse3" />
      <path
         style="opacity:0.1;fill:#ffffff;stroke-width:0.631579"
         d="M 12.894737,72 A 10.736842,10.736842 0 0 0 2.1578947,82.736842 10.736842,10.736842 0 0 0 2.1714636,83.103207 10.736842,10.736842 0 0 1 12.894737,72.631579 10.736842,10.736842 0 0 1 23.61801,83.002056 10.736842,10.736842 0 0 0 23.631579,82.736842 10.736842,10.736842 0 0 0 12.894737,72 Z"
         id="path4-5" />
      <path
         style="opacity:0.2;fill:#ffffff;stroke-width:0.631579"
         d="m 12.894737,100.42105 a 8.8421053,3.4736842 0 0 0 -8.8421054,3.47369 8.8421053,3.4736842 0 0 0 0.041943,0.30838 8.8421053,3.4736842 0 0 1 8.8001624,-3.15049 8.8421053,3.4736842 0 0 1 8.800164,3.1653 8.8421053,3.4736842 0 0 0 0.04194,-0.32319 8.8421053,3.4736842 0 0 0 -8.842104,-3.47369 z"
         id="path5-3" />
    </g>
  </g>
</svg>
