<?xml version="1.0" encoding="UTF-8" standalone="no"?>
<svg
   xmlns:dc="http://purl.org/dc/elements/1.1/"
   xmlns:cc="http://creativecommons.org/ns#"
   xmlns:rdf="http://www.w3.org/1999/02/22-rdf-syntax-ns#"
   xmlns:svg="http://www.w3.org/2000/svg"
   xmlns="http://www.w3.org/2000/svg"
   xmlns:xlink="http://www.w3.org/1999/xlink"
   xmlns:sodipodi="http://sodipodi.sourceforge.net/DTD/sodipodi-0.dtd"
   xmlns:inkscape="http://www.inkscape.org/namespaces/inkscape"
   height="32"
   width="32"
   version="1.1"
   id="svg68"
   sodipodi:docname="preferences-desktop-gestures-screenedges.svg"
   inkscape:version="0.92.5 (2060ec1f9f, 2020-04-08)">
  <metadata
     id="metadata72">
    <rdf:RDF>
      <cc:Work
         rdf:about="">
        <dc:format>image/svg+xml</dc:format>
        <dc:type
           rdf:resource="http://purl.org/dc/dcmitype/StillImage" />
        <dc:title></dc:title>
      </cc:Work>
    </rdf:RDF>
  </metadata>
  <sodipodi:namedview
     pagecolor="#ffffff"
     bordercolor="#666666"
     borderopacity="1"
     objecttolerance="10"
     gridtolerance="10"
     guidetolerance="10"
     inkscape:pageopacity="0"
     inkscape:pageshadow="2"
     inkscape:window-width="1366"
     inkscape:window-height="711"
     id="namedview70"
     showgrid="false"
     inkscape:zoom="16.125"
     inkscape:cx="16"
     inkscape:cy="16"
     inkscape:window-x="0"
     inkscape:window-y="25"
     inkscape:window-maximized="1"
     inkscape:current-layer="svg68" />
  <defs
     id="defs35">
    <linearGradient
       xlink:href="#a"
       id="g"
       gradientUnits="userSpaceOnUse"
       gradientTransform="matrix(0.66667,0,0,0.85555,-256.38,-429.026)"
       x1="418.17"
       y1="503.079"
       x2="384.571"
       y2="531.458" />
    <linearGradient
       id="a">
      <stop
         stop-color="#1abc9c"
         id="stop3" />
      <stop
         offset="1"
         stop-color="#2980b9"
         id="stop5" />
    </linearGradient>
    <linearGradient
       xlink:href="#b"
       id="h"
       y1="521.633"
       x1="404.045"
       y2="528.35"
       x2="430.736"
       gradientUnits="userSpaceOnUse"
       gradientTransform="matrix(0.66667,0,0,0.85555,-256.38,-429.027)" />
    <linearGradient
       id="b">
      <stop
         stop-color="#cc4a5e"
         id="stop9" />
      <stop
         offset="1"
         stop-color="#aa478a"
         id="stop11" />
    </linearGradient>
    <linearGradient
       xlink:href="#c"
       id="i"
       y1="542.224"
       x1="398.092"
       y2="524.9"
       x2="394.003"
       gradientUnits="userSpaceOnUse"
       gradientTransform="matrix(0.66667,0,0,0.85555,-256.38,-429.027)" />
    <linearGradient
       id="c">
      <stop
         stop-color="#334545"
         id="stop15" />
      <stop
         offset="1"
         stop-color="#536161"
         id="stop17" />
    </linearGradient>
    <linearGradient
       xlink:href="#c"
       id="j"
       y1="568.798"
       x1="431.571"
       y2="562.798"
       x2="439.571"
       gradientUnits="userSpaceOnUse"
       gradientTransform="matrix(-0.66667,0,0,0.85555,303.047,-463.249)" />
    <linearGradient
       xlink:href="#c"
       id="l"
       y1="581.87"
       x1="406.537"
       y2="572.678"
       x2="423.32"
       gradientUnits="userSpaceOnUse"
       gradientTransform="matrix(-0.66667,0,0,0.85555,303.048,-463.249)" />
    <linearGradient
       xlink:href="#c"
       id="k"
       y1="572.334"
       x1="423.054"
       y2="566.766"
       x2="431.225"
       gradientUnits="userSpaceOnUse"
       gradientTransform="matrix(-0.66667,0,0,0.85555,303.047,-463.249)" />
    <linearGradient
       xlink:href="#c"
       id="m"
       y1="577.102"
       x1="431.313"
       y2="571.445"
       x2="440.632"
       gradientUnits="userSpaceOnUse"
       gradientTransform="matrix(-0.66667,0,0,0.85555,303.048,-463.249)" />
    <linearGradient
       xlink:href="#c"
       id="n"
       y1="577.362"
       x1="430.567"
       y2="591.328"
       x2="423.75"
       gradientUnits="userSpaceOnUse"
       gradientTransform="matrix(-0.66667,0,0,0.85555,303.048,-463.249)" />
    <linearGradient
       id="d">
      <stop
         stop-color="#383e51"
         id="stop25" />
      <stop
         offset="1"
         stop-color="#655c6f"
         stop-opacity="0"
         id="stop27" />
    </linearGradient>
    <linearGradient
       id="e">
      <stop
         stop-color="#eff0f1"
         id="stop30" />
      <stop
         offset="1"
         stop-color="#fcfcfc"
         id="stop32" />
    </linearGradient>
  </defs>
  <linearGradient
     id="f">
    <stop
       offset="0"
       stop-color="#334545"
       id="stop37" />
    <stop
       offset="1"
       stop-color="#536161"
       id="stop39" />
  </linearGradient>
  <path
     d="M 5,2 A 5.004,5.004 0 0 0 1.46,3.461 4.99,4.99 0 0 0 0,7.001 v 18 A 5.004,5.004 0 0 0 1.46,28.539 4.99,4.99 0 0 0 5,30 H 27 A 5.004,5.004 0 0 0 30.54,28.54 4.99,4.99 0 0 0 32,25 V 7 A 5.004,5.004 0 0 0 30.54,3.461 4.99,4.99 0 0 0 27,2.001 Z"
     id="path42"
     style="fill:url(#g)"
     inkscape:connector-curvature="0" />
  <path
     d="M 25.746,30 H 27 A 5.004,5.004 0 0 0 30.54,28.54 4.989,4.989 0 0 0 32,25 V 7 A 5.005,5.005 0 0 0 30.54,3.46 C 30.463,3.385 30.352,3.352 30.271,3.281 L 9.977,18.316 25.747,30 Z"
     id="path44"
     style="fill:url(#h)"
     inkscape:connector-curvature="0" />
  <path
     d="m 0.117,25.58 c 0.057,0.47 0.098,0.949 0.276,1.37 A 4.989,4.989 0 0 0 3.051,29.607 5.004,5.004 0 0 0 5,30 H 25.895 L 10,18.256 Z"
     id="path46"
     style="fill:url(#i)"
     inkscape:connector-curvature="0" />
  <path
     d="M 15.506,22.335 10,18.255 v 8.16 z"
     id="path48"
     style="fill:url(#j)"
     inkscape:connector-curvature="0" />
  <path
     d="M 15.506,22.335 V 30 h 0.666 l 4.84,-3.586 -5.506,-4.08 z"
     id="path50"
     style="fill:url(#k)"
     inkscape:connector-curvature="0" />
  <path
     d="M 32,9.971 V 7.001 A 5.005,5.005 0 0 0 30.54,3.461 C 30.463,3.385 30.352,3.352 30.271,3.281 L 9.977,18.318 Z"
     id="path52"
     inkscape:connector-curvature="0"
     style="fill:#aa478a" />
  <path
     d="M 21.011,26.413 V 30 h 4.841 l -4.84,-3.587 z"
     id="path56"
     style="fill:url(#l)"
     inkscape:connector-curvature="0" />
  <path
     d="M 5,2 A 5.004,5.004 0 0 0 4.5,2.023 5.004,5.004 0 0 0 4.006,2.098 5.004,5.004 0 0 0 3.521,2.221 5.004,5.004 0 0 0 3.051,2.393 5.004,5.004 0 0 0 2.6,2.609 5.004,5.004 0 0 0 2.174,2.871 5.004,5.004 0 0 0 1.775,3.171 5.004,5.004 0 0 0 1.461,3.461 4.99,4.99 0 0 0 1.125,3.831 4.99,4.99 0 0 0 0.83,4.232 4.99,4.99 0 0 0 0.576,4.662 4.99,4.99 0 0 0 0.366,5.113 4.99,4.99 0 0 0 0.201,5.586 4.99,4.99 0 0 0 0.086,6.07 4.99,4.99 0 0 0 0.018,6.564 4.99,4.99 0 0 0 0,7.002 V 12 A 10,10 0 0 0 10,2 Z M 22,2.002 A 10,10 0 0 0 32,12 V 7 A 5.004,5.004 0 0 0 31.977,6.5 5.004,5.004 0 0 0 31.902,6.006 5.004,5.004 0 0 0 31.779,5.521 5.004,5.004 0 0 0 31.607,5.051 5.004,5.004 0 0 0 31.391,4.6 5.004,5.004 0 0 0 31.129,4.174 5.004,5.004 0 0 0 30.829,3.775 5.004,5.004 0 0 0 30.539,3.461 4.99,4.99 0 0 0 30.169,3.127 4.99,4.99 0 0 0 29.768,2.83 4.99,4.99 0 0 0 29.34,2.576 4.99,4.99 0 0 0 28.887,2.366 4.99,4.99 0 0 0 28.416,2.203 4.99,4.99 0 0 0 27.932,2.086 4.99,4.99 0 0 0 27.438,2.02 4.99,4.99 0 0 0 27,2.002 Z M 0.002,20 v 5.041 a 5.004,5.004 0 0 0 0.023,0.459 5.004,5.004 0 0 0 0.075,0.496 5.004,5.004 0 0 0 0.123,0.484 5.004,5.004 0 0 0 0.17,0.47 5.004,5.004 0 0 0 0.216,0.45 5.004,5.004 0 0 0 0.262,0.428 5.004,5.004 0 0 0 0.303,0.399 5.004,5.004 0 0 0 0.287,0.312 4.99,4.99 0 0 0 0.37,0.334 4.99,4.99 0 0 0 0.4,0.297 4.99,4.99 0 0 0 0.43,0.254 4.99,4.99 0 0 0 0.452,0.21 4.99,4.99 0 0 0 0.471,0.165 4.99,4.99 0 0 0 0.484,0.115 4.99,4.99 0 0 0 0.495,0.068 A 4.99,4.99 0 0 0 5,30 h 5.002 a 10,10 0 0 0 -10,-10 z M 32,20 A 10,10 0 0 0 22,30 h 5 a 5.004,5.004 0 0 0 0.5,-0.023 5.004,5.004 0 0 0 0.494,-0.075 5.004,5.004 0 0 0 0.485,-0.123 5.004,5.004 0 0 0 0.47,-0.172 5.004,5.004 0 0 0 0.451,-0.216 5.004,5.004 0 0 0 0.426,-0.26 5.004,5.004 0 0 0 0.399,-0.303 5.004,5.004 0 0 0 0.314,-0.289 4.99,4.99 0 0 0 0.336,-0.37 4.99,4.99 0 0 0 0.295,-0.401 4.99,4.99 0 0 0 0.254,-0.428 4.99,4.99 0 0 0 0.21,-0.453 4.99,4.99 0 0 0 0.165,-0.471 4.99,4.99 0 0 0 0.115,-0.484 4.99,4.99 0 0 0 0.068,-0.494 A 4.99,4.99 0 0 0 32,25 Z"
     id="path54"
     inkscape:connector-curvature="0"
     style="fill:#93cee9" />
  <path
     d="M 10,26.414 V 30 h 4.84 z"
     id="path58"
     style="fill:url(#m)"
     inkscape:connector-curvature="0" />
  <path
     d="M 21.011,26.413 16.171,30 h 4.84 z"
     id="path60"
     style="fill:url(#n)"
     inkscape:connector-curvature="0" />
  <path
     d="m 0.124,26 c 0.067,0.317 0.146,0.658 0.269,0.95 A 4.989,4.989 0 0 0 3.051,29.608 5.004,5.004 0 0 0 5,30 h 22 a 5.004,5.004 0 0 0 3.54,-1.46 4.989,4.989 0 0 0 1.067,-1.59 5.35,5.35 0 0 0 0.285,-0.95 z"
     id="path62"
     inkscape:connector-curvature="0"
     style="fill:#ffffff;fill-opacity:0.78399999" />
  <circle
     cx="28"
     cy="28"
     r="1"
     id="circle64"
     style="fill:#4d4d4d" />
  <path
     d="m 2,27 v 1 h 1 v -1 z m 1,1 v 1 h 1 v -1 z"
     id="path66"
     inkscape:connector-curvature="0"
     style="fill:#4d4d4d" />
</svg>
