<?xml version="1.0" encoding="UTF-8" standalone="no"?>
<svg
   xmlns:dc="http://purl.org/dc/elements/1.1/"
   xmlns:cc="http://creativecommons.org/ns#"
   xmlns:rdf="http://www.w3.org/1999/02/22-rdf-syntax-ns#"
   xmlns:svg="http://www.w3.org/2000/svg"
   xmlns="http://www.w3.org/2000/svg"
   xmlns:xlink="http://www.w3.org/1999/xlink"
   xmlns:sodipodi="http://sodipodi.sourceforge.net/DTD/sodipodi-0.dtd"
   xmlns:inkscape="http://www.inkscape.org/namespaces/inkscape"
   width="32"
   version="1.1"
   height="32"
   id="svg29"
   sodipodi:docname="preferences-kde-connect.svg"
   inkscape:version="1.0.2 (e86c870879, 2021-01-15)">
  <sodipodi:namedview
     pagecolor="#ffffff"
     bordercolor="#666666"
     borderopacity="1"
     objecttolerance="10"
     gridtolerance="10"
     guidetolerance="10"
     inkscape:pageopacity="0"
     inkscape:pageshadow="2"
     inkscape:window-width="1920"
     inkscape:window-height="1007"
     id="namedview31"
     showgrid="true"
     inkscape:zoom="19.625"
     inkscape:cx="6.3949045"
     inkscape:cy="16"
     inkscape:window-x="0"
     inkscape:window-y="0"
     inkscape:window-maximized="1"
     inkscape:current-layer="layer1">
    <inkscape:grid
       type="xygrid"
       id="grid856" />
  </sodipodi:namedview>
  <defs
     id="defs5455">
    <linearGradient
       inkscape:collect="always"
       id="linearGradient4303">
      <stop
         style="stop-color:#c6cdd1"
         id="stop4305" />
      <stop
         offset="1"
         style="stop-color:#e0e5e7"
         id="stop4307" />
    </linearGradient>
    <linearGradient
       inkscape:collect="always"
       xlink:href="#linearGradient4159"
       id="linearGradient4298"
       y1="545.79797"
       y2="517.79797"
       x2="0"
       gradientUnits="userSpaceOnUse" />
    <linearGradient
       inkscape:collect="always"
       id="linearGradient4159">
      <stop
         style="stop-color:#2a2c2f"
         id="stop4161" />
      <stop
         offset="1"
         style="stop-color:#424649"
         id="stop4163" />
    </linearGradient>
    <linearGradient
       inkscape:collect="always"
       xlink:href="#linearGradient4303"
       id="linearGradient4381"
       y1="543.79797"
       y2="518.79797"
       x2="0"
       gradientUnits="userSpaceOnUse"
       gradientTransform="matrix(0.91304246 0 0 0.95652063 35.13704 23.600554)" />
    <linearGradient
       inkscape:collect="always"
       id="linearGradient4227">
      <stop
         style="stop-color:#292c2f"
         id="stop4229" />
      <stop
         offset="1"
         style="stop-opacity:0"
         id="stop4231" />
    </linearGradient>
    <linearGradient
       inkscape:collect="always"
       xlink:href="#linearGradient4227"
       id="linearGradient4173"
       y1="524.79797"
       x1="393.57144"
       y2="538.79797"
       x2="407.57147"
       gradientUnits="userSpaceOnUse"
       gradientTransform="matrix(1 0 0 1 -384.57143 -515.798)" />
    <linearGradient
       inkscape:collect="always"
       xlink:href="#linearGradient4159"
       id="linearGradient4340"
       y1="20"
       y2="11"
       x2="0"
       gradientUnits="userSpaceOnUse"
       gradientTransform="matrix(1 0 0 1 384.57143 516.798)" />
    <linearGradient
       inkscape:collect="always"
       xlink:href="#linearGradient4227"
       id="linearGradient4372"
       y1="14"
       x1="10"
       y2="25"
       x2="21"
       gradientUnits="userSpaceOnUse" />
  </defs>
  <metadata
     id="metadata5458">
    <rdf:RDF>
      <cc:Work
         rdf:about="">
        <dc:format>image/svg+xml</dc:format>
        <dc:type
           rdf:resource="http://purl.org/dc/dcmitype/StillImage" />
      </cc:Work>
    </rdf:RDF>
  </metadata>
  <g
     inkscape:label="Capa 1"
     inkscape:groupmode="layer"
     id="layer1"
     transform="translate(-384.57143,-515.798)">
    <rect
       width="15.999989"
       x="392.57144"
       y="517.79797"
       height="28"
       style="fill:url(#linearGradient4298)"
       id="rect4232"
       ry="2.0000265"
       rx="2.0000117" />
    <path
       style="opacity:0.2;fill:url(#linearGradient4173);fill-rule:evenodd"
       id="path4164"
       d="M 23,5 9,27 12,30 H 24 V 6 Z"
       transform="translate(384.57143,515.798)" />
    <rect
       width="11.999989"
       x="394.57144"
       y="544.79797"
       height="1.0000263"
       style="fill:#1c1e20"
       id="rect4180"
       ry="0.4271248" />
    <rect
       width="14"
       x="393.57144"
       y="520.79797"
       height="22"
       style="fill:url(#linearGradient4381)"
       id="rect4300" />
    <rect
       width="6"
       x="397.57144"
       y="518.79797"
       height="1"
       style="fill:#212324"
       id="rect4607" />
    <path
       style="opacity:0.2;fill:url(#linearGradient4372)"
       id="rect4345"
       d="m 14.853516,12.146484 -0.707032,0.707032 4.5,4.5 L 18,18 l 5,5 1,1 v -6 l -3,-3 -1.646484,1.646484 z m -1.146485,3.146485 -1.414062,1.414062 3,3 L 14.4375,20.5625 23.630859,29.753906 24,29.384766 v -3.507813 l -0.539062,-0.539062 0.146484,-0.146485 z"
       transform="translate(384.57143,515.798)" />
    <path
       style="fill:url(#linearGradient4340)"
       id="path4353"
       d="m 399.07143,527.798 c -0.27614,0 -0.5,0.22386 -0.5,0.5 0,0.27614 0.22386,0.5 0.5,0.5 0.27614,0 0.5,-0.22386 0.5,-0.5 0,-0.27614 -0.22386,-0.5 -0.5,-0.5 z" />
    <path
       style="fill:url(#linearGradient4340)"
       id="path4351"
       d="m 402.57143,527.798 -1,1 2,2 -2,2 1,1 2,-2 1,-1 -1,-1 z" />
    <path
       style="fill:url(#linearGradient4340)"
       id="path4349"
       d="m 397.57143,530.798 c -0.55228,0 -1,0.44772 -1,1 0,0.55228 0.44772,1 1,1 0.55228,0 1,-0.44772 1,-1 0,-0.55228 -0.44772,-1 -1,-1 z" />
    <path
       style="fill:url(#linearGradient4340)"
       id="path4327"
       d="m 400.07143,533.798 c -0.82843,0 -1.5,0.67157 -1.5,1.5 0,0.82843 0.67157,1.5 1.5,1.5 0.82843,0 1.5,-0.67157 1.5,-1.5 0,-0.82843 -0.67157,-1.5 -1.5,-1.5 z" />
  </g>
</svg>
