<?xml version="1.0" encoding="UTF-8" standalone="no"?>
<svg
   xmlns:dc="http://purl.org/dc/elements/1.1/"
   xmlns:cc="http://creativecommons.org/ns#"
   xmlns:rdf="http://www.w3.org/1999/02/22-rdf-syntax-ns#"
   xmlns:svg="http://www.w3.org/2000/svg"
   xmlns="http://www.w3.org/2000/svg"
   xmlns:xlink="http://www.w3.org/1999/xlink"
   xmlns:sodipodi="http://sodipodi.sourceforge.net/DTD/sodipodi-0.dtd"
   xmlns:inkscape="http://www.inkscape.org/namespaces/inkscape"
   width="32"
   version="1.1"
   height="32"
   id="svg34"
   sodipodi:docname="preferences-desktop-launch-feedback.svg"
   inkscape:version="1.0.2 (e86c870879, 2021-01-15)">
  <sodipodi:namedview
     pagecolor="#ffffff"
     bordercolor="#666666"
     borderopacity="1"
     objecttolerance="10"
     gridtolerance="10"
     guidetolerance="10"
     inkscape:pageopacity="0"
     inkscape:pageshadow="2"
     inkscape:window-width="1920"
     inkscape:window-height="1007"
     id="namedview36"
     showgrid="false"
     inkscape:zoom="19.625"
     inkscape:cx="6.3949045"
     inkscape:cy="16"
     inkscape:window-x="0"
     inkscape:window-y="0"
     inkscape:window-maximized="1"
     inkscape:current-layer="layer1" />
  <defs
     id="defs5455">
    <linearGradient
       inkscape:collect="always"
       id="linearGradient4254">
      <stop
         style="stop-color:#197cf1"
         id="stop4256" />
      <stop
         offset="1"
         style="stop-color:#20bcfa"
         id="stop4258" />
    </linearGradient>
    <linearGradient
       inkscape:collect="always"
       id="linearGradient4293">
      <stop
         id="stop4295" />
      <stop
         offset="1"
         style="stop-opacity:0"
         id="stop4297" />
    </linearGradient>
    <linearGradient
       inkscape:collect="always"
       id="linearGradient4303-6">
      <stop
         style="stop-color:#c6cdd1"
         id="stop4305-7" />
      <stop
         offset="1"
         style="stop-color:#e0e5e7"
         id="stop4307-0" />
    </linearGradient>
    <linearGradient
       inkscape:collect="always"
       xlink:href="#linearGradient4303-6"
       id="linearGradient4193"
       y1="25"
       y2="11"
       x2="0"
       gradientUnits="userSpaceOnUse"
       gradientTransform="translate(384.57143,515.798)" />
    <linearGradient
       inkscape:collect="always"
       id="linearGradient4143">
      <stop
         style="stop-color:#197cf1"
         id="stop4145" />
      <stop
         offset="1"
         style="stop-color:#20bcfa;stop-opacity:0"
         id="stop4147" />
    </linearGradient>
    <linearGradient
       inkscape:collect="always"
       xlink:href="#linearGradient4143"
       id="linearGradient4246"
       y1="23"
       x1="22"
       y2="18"
       gradientUnits="userSpaceOnUse"
       x2="16"
       gradientTransform="translate(384.57143,515.798)" />
    <linearGradient
       inkscape:collect="always"
       xlink:href="#linearGradient4254"
       id="linearGradient4252"
       y1="25"
       x1="11"
       y2="11"
       gradientUnits="userSpaceOnUse"
       x2="16"
       gradientTransform="translate(384.57143,515.798)" />
    <linearGradient
       inkscape:collect="always"
       xlink:href="#linearGradient4293"
       id="linearGradient4200"
       y1="10.999974"
       x1="9"
       y2="25"
       x2="23.00003"
       gradientUnits="userSpaceOnUse"
       gradientTransform="translate(384.57143,515.798)" />
    <linearGradient
       inkscape:collect="always"
       xlink:href="#a"
       id="linearGradient848"
       gradientUnits="userSpaceOnUse"
       gradientTransform="matrix(0.66667,0,0,0.63518,-256.38,-317.28)"
       y1="543.79999"
       x2="0"
       y2="502.66" />
    <linearGradient
       id="a"
       x2="0"
       y1="543.79999"
       y2="502.66"
       gradientTransform="matrix(0.66667,0,0,0.63518,-256.38,-317.28)"
       gradientUnits="userSpaceOnUse">
      <stop
         stop-color="#c6cdd1"
         offset="0"
         id="stop2" />
      <stop
         stop-color="#e0e5e7"
         offset="1"
         id="stop4" />
    </linearGradient>
    <linearGradient
       inkscape:collect="always"
       xlink:href="#a"
       id="linearGradient850"
       gradientUnits="userSpaceOnUse"
       gradientTransform="matrix(0.66667,0,0,0.63518,-256.38,-317.28)"
       y1="543.79999"
       x2="0"
       y2="502.66" />
    <linearGradient
       id="linearGradient880"
       x2="0"
       y1="543.79999"
       y2="502.66"
       gradientTransform="matrix(0.66667,0,0,0.63518,-256.38,-317.28)"
       gradientUnits="userSpaceOnUse">
      <stop
         stop-color="#c6cdd1"
         offset="0"
         id="stop876" />
      <stop
         stop-color="#e0e5e7"
         offset="1"
         id="stop878" />
    </linearGradient>
    <radialGradient
       cx="25.641001"
       cy="3.6835999"
       r="17.995001"
       xlink:href="#linearGradient3052"
       id="radialGradient3082-3"
       gradientUnits="userSpaceOnUse"
       gradientTransform="matrix(0.58724559,-4e-7,0,0.25688859,386.86992,526.70784)" />
    <linearGradient
       id="linearGradient3052">
      <stop
         style="stop-color:#555753"
         id="stop3054" />
      <stop
         offset="1"
         style="stop-color:#2e3436"
         id="stop3056" />
    </linearGradient>
  </defs>
  <metadata
     id="metadata5458">
    <rdf:RDF>
      <cc:Work
         rdf:about="">
        <dc:format>image/svg+xml</dc:format>
        <dc:type
           rdf:resource="http://purl.org/dc/dcmitype/StillImage" />
      </cc:Work>
    </rdf:RDF>
  </metadata>
  <g
     inkscape:label="Capa 1"
     inkscape:groupmode="layer"
     id="layer1"
     transform="translate(-384.57143,-515.798)">
    <g
       transform="translate(0.00144288,-0.00198712)"
       id="g35">
      <path
         d="M 32,9 31,8 1.123,27 3.555,30 H 28.8 c 1.774,0 3.2,-1.426 3.2,-3.2 z"
         transform="translate(384.57,515.8)"
         id="path19"
         style="fill:url(#linearGradient848)"
         inkscape:connector-curvature="0" />
      <path
         d="M 3.2,2 A 3.192,3.192 0 0 0 0,5.2 V 26.8 C 0,28.575 1.426,30 3.2,30 H 3.555 L 1.123,27 31,8 32,9 V 5.2 C 32,3.425 30.574,2 28.8,2 Z"
         transform="translate(384.57,515.8)"
         id="path21"
         style="fill:url(#linearGradient850)"
         inkscape:connector-curvature="0" />
      <path
         d="m 387.07,517.8 a 2.492,2.492 0 0 0 -2.5,2.5 v 1.5 h 32 v -1.5 a 2.492,2.492 0 0 0 -2.5,-2.5 z"
         id="path23"
         inkscape:connector-curvature="0"
         style="fill:#566069" />
      <path
         d="m 384.57,521.8 h 32 v 1 h -32 z"
         id="path25"
         inkscape:connector-curvature="0"
         style="fill:#3daee9" />
      <rect
         x="385.57001"
         y="523.79999"
         width="30"
         height="20"
         ry="2"
         id="rect27"
         style="fill:#ffffff" />
      <rect
         x="413.57001"
         y="518.79999"
         width="2"
         height="2"
         rx="1"
         id="rect29"
         style="fill:#eff0f1" />
    </g>
    <path
       style="opacity:0.2;fill:url(#linearGradient4200)"
       id="rect4170"
       d="m 400.57143,527.798 a 6,6 0 0 0 -6,6 6,6 0 0 0 1.75976,4.24024 l -0.70898,0.70898 7.05078,7.05078 h 13.89844 v -5.89844 l -11.05078,-11.05078 -0.70899,0.70899 a 6,6 0 0 0 -4.24023,-1.75977 z" />
    <path
       inkscape:connector-curvature="0"
       style="fill:url(#linearGradient4193)"
       id="path4182"
       d="m 400.57143,526.798 a 7,7 0 0 0 -7,7 7,7 0 0 0 7,7 7,7 0 0 0 7,-7 7,7 0 0 0 -7,-7 z m 0,1 a 6,6 0 0 1 6,6 6,6 0 0 1 -6,6 6,6 0 0 1 -6,-6 6,6 0 0 1 6,-6 z" />
    <path
       inkscape:connector-curvature="0"
       style="fill:url(#linearGradient4246)"
       id="path4195"
       d="m 400.57143,526.798 a 7,7 0 0 0 -7,7 7,7 0 0 0 7,7 7,7 0 0 0 7,-7 7,7 0 0 0 -7,-7 z m 0,1 a 6,6 0 0 1 6,6 6,6 0 0 1 -6,6 6,6 0 0 1 -6,-6 6,6 0 0 1 6,-6 z" />
    <path
       style="fill:url(#linearGradient4252)"
       id="path4250"
       d="m 400.57143,526.798 a 7,7 0 0 0 -7,7 7,7 0 0 0 7,7 7,7 0 0 0 4.94726,-2.05273 l -0.70703,-0.70703 a 6,6 0 0 1 -4.24023,1.75976 6,6 0 0 1 -6,-6 6,6 0 0 1 6,-6 z" />
  </g>
</svg>
