<?xml version="1.0" encoding="UTF-8" standalone="no"?>
<svg
   xmlns:dc="http://purl.org/dc/elements/1.1/"
   xmlns:cc="http://creativecommons.org/ns#"
   xmlns:rdf="http://www.w3.org/1999/02/22-rdf-syntax-ns#"
   xmlns:svg="http://www.w3.org/2000/svg"
   xmlns="http://www.w3.org/2000/svg"
   xmlns:xlink="http://www.w3.org/1999/xlink"
   xmlns:sodipodi="http://sodipodi.sourceforge.net/DTD/sodipodi-0.dtd"
   xmlns:inkscape="http://www.inkscape.org/namespaces/inkscape"
   width="64"
   height="64"
   version="1.1"
   id="svg95"
   sodipodi:docname="camera-photo.svg"
   inkscape:version="0.92.5 (2060ec1f9f, 2020-04-08)">
  <metadata
     id="metadata99">
    <rdf:RDF>
      <cc:Work
         rdf:about="">
        <dc:format>image/svg+xml</dc:format>
        <dc:type
           rdf:resource="http://purl.org/dc/dcmitype/StillImage" />
        <dc:title></dc:title>
      </cc:Work>
    </rdf:RDF>
  </metadata>
  <sodipodi:namedview
     pagecolor="#ffffff"
     bordercolor="#666666"
     borderopacity="1"
     objecttolerance="10"
     gridtolerance="10"
     guidetolerance="10"
     inkscape:pageopacity="0"
     inkscape:pageshadow="2"
     inkscape:window-width="1085"
     inkscape:window-height="480"
     id="namedview97"
     showgrid="false"
     inkscape:zoom="3.6875"
     inkscape:cx="32"
     inkscape:cy="32"
     inkscape:window-x="0"
     inkscape:window-y="25"
     inkscape:window-maximized="0"
     inkscape:current-layer="svg95" />
  <defs
     id="defs59">
    <linearGradient
       id="e">
      <stop
         stop-color="#a1adb3"
         id="stop2" />
      <stop
         offset="1"
         stop-color="#bfc7cb"
         id="stop4" />
    </linearGradient>
    <linearGradient
       id="h">
      <stop
         stop-color="#c6cdd1"
         id="stop7" />
      <stop
         offset="1"
         stop-color="#e0e5e7"
         id="stop9" />
    </linearGradient>
    <linearGradient
       id="f">
      <stop
         id="stop12" />
      <stop
         offset="1"
         stop-opacity="0"
         id="stop14" />
    </linearGradient>
    <linearGradient
       id="a">
      <stop
         stop-color="#2e5d89"
         id="stop17" />
      <stop
         offset="1"
         stop-color="#1b92f4"
         id="stop19" />
    </linearGradient>
    <linearGradient
       id="j"
       xlink:href="#a"
       y1="512.798"
       y2="527.798"
       x1="400.571"
       x2="415.571"
       gradientUnits="userSpaceOnUse"
       gradientTransform="matrix(1.18182 0 0 1.18182 -74.286 -95.732)" />
    <linearGradient
       id="c">
      <stop
         stop-color="#2f3943"
         id="stop23" />
      <stop
         offset="1"
         stop-color="#4d5662"
         id="stop25" />
    </linearGradient>
    <linearGradient
       id="d">
      <stop
         stop-color="#18222a"
         id="stop28" />
      <stop
         offset="1"
         stop-color="#566069"
         id="stop30" />
    </linearGradient>
    <linearGradient
       id="l"
       xlink:href="#b"
       y1="530.798"
       y2="528.798"
       gradientUnits="userSpaceOnUse"
       x2="0"
       gradientTransform="matrix(1.5,0,0,1.5,-182.286,-282.395)" />
    <linearGradient
       id="b">
      <stop
         stop-color="#f33777"
         id="stop34" />
      <stop
         offset="1"
         stop-color="#fd2d65"
         id="stop36" />
    </linearGradient>
    <linearGradient
       id="r"
       xlink:href="#a"
       y1="514.632"
       y2="527.798"
       x1="402.405"
       gradientUnits="userSpaceOnUse"
       x2="415.571"
       gradientTransform="translate(-7,4.027)" />
    <linearGradient
       id="m"
       xlink:href="#a"
       y1="512.798"
       y2="527.798"
       x1="400.571"
       x2="415.571"
       gradientUnits="userSpaceOnUse"
       gradientTransform="translate(79 3.656)" />
    <linearGradient
       id="s"
       xlink:href="#a"
       y1="509.704"
       y2="527.798"
       x1="397.478"
       x2="415.571"
       gradientUnits="userSpaceOnUse"
       gradientTransform="matrix(0.8,0,0,0.8,74.715,107.988)" />
    <linearGradient
       id="t"
       xlink:href="#a"
       y1="498.288"
       y2="527.798"
       x1="386.061"
       x2="415.571"
       gradientUnits="userSpaceOnUse"
       gradientTransform="matrix(0.6,0,0,0.6,156.429,211.947)" />
    <linearGradient
       id="p"
       xlink:href="#c"
       y1="508.798"
       y2="528.798"
       x1="398.572"
       gradientUnits="userSpaceOnUse"
       x2="418.571"
       gradientTransform="rotate(180,405.071,521.812)" />
    <linearGradient
       id="q"
       xlink:href="#d"
       y1="509.531"
       y2="530.998"
       x1="398.305"
       gradientUnits="userSpaceOnUse"
       x2="419.771"
       gradientTransform="matrix(0.78571,0,0,0.78571,80.55,115.412)" />
    <linearGradient
       id="o"
       xlink:href="#e"
       y1="530.798"
       y2="507.798"
       x1="421.571"
       gradientUnits="userSpaceOnUse"
       x2="398.571"
       gradientTransform="translate(-7,4.027)" />
    <linearGradient
       id="n"
       xlink:href="#f"
       y1="519.798"
       y2="541.011"
       gradientUnits="userSpaceOnUse"
       x2="0"
       gradientTransform="rotate(-45,409.933,530.261)" />
    <linearGradient
       xlink:href="#a"
       id="u"
       y1="512.798"
       x1="400.571"
       y2="527.798"
       gradientUnits="userSpaceOnUse"
       x2="415.571"
       gradientTransform="matrix(1.18182 0 0 1.18182 6.714 -89.236)" />
    <linearGradient
       xlink:href="#c"
       id="v"
       y1="41"
       y2="23"
       x2="0"
       gradientUnits="userSpaceOnUse" />
    <linearGradient
       xlink:href="#a"
       id="x"
       y1="512.798"
       x1="400.571"
       y2="527.798"
       gradientUnits="userSpaceOnUse"
       x2="415.571"
       gradientTransform="matrix(1.18182 0 0 1.18182 3.714 -96.236)" />
    <linearGradient
       id="g">
      <stop
         stop-color="#1d1e1e"
         id="stop50" />
      <stop
         offset="1"
         stop-color="#44484c"
         id="stop52" />
    </linearGradient>
    <linearGradient
       xlink:href="#g"
       id="w"
       y1="541.798"
       y2="543.798"
       x2="0"
       gradientUnits="userSpaceOnUse"
       gradientTransform="matrix(1.625,0,0,1.00002,-631.929,-527.808)" />
    <linearGradient
       xlink:href="#g"
       id="y"
       y1="541.798"
       y2="543.798"
       x2="0"
       gradientUnits="userSpaceOnUse"
       gradientTransform="matrix(1.625,0,0,1.00002,-631.929,-493.808)" />
    <linearGradient
       xlink:href="#g"
       id="i"
       y1="504.798"
       y2="499.798"
       x2="0"
       gradientUnits="userSpaceOnUse"
       gradientTransform="translate(-3,2)" />
    <linearGradient
       xlink:href="#h"
       id="k"
       gradientUnits="userSpaceOnUse"
       gradientTransform="matrix(1.08333,0,0,1.5,-34.047,-255.9)"
       y1="531.798"
       x2="0"
       y2="501.699" />
  </defs>
  <g
     transform="translate(-376.571,-491.798)"
     id="g93">
    <path
       d="m 421.571,503.798 h 6 v 3 h -6 z"
       id="path61"
       style="fill:url(#i)"
       inkscape:connector-curvature="0" />
    <path
       d="m 387.571,505.798 a 5.005,5.005 0 0 0 -3.539,1.46 4.989,4.989 0 0 0 -1.46,3.54 v 26 a 5.004,5.004 0 0 0 1.46,3.539 4.989,4.989 0 0 0 3.54,1.461 h 42 a 5.004,5.004 0 0 0 3.538,-1.461 4.989,4.989 0 0 0 1.461,-3.539 v -26 a 5.004,5.004 0 0 0 -1.46,-3.54 4.989,4.989 0 0 0 -3.54,-1.46 z"
       id="path63"
       style="fill:url(#k)"
       inkscape:connector-curvature="0" />
    <path
       d="m 426.071,510.802 a 1.5,1.5 0 0 0 -1.5,1.5 1.5,1.5 0 0 0 1.5,1.5 1.5,1.5 0 0 0 1.5,-1.5 1.5,1.5 0 0 0 -1.5,-1.5 z"
       id="path65"
       style="fill:url(#l)"
       inkscape:connector-curvature="0" />
    <path
       d="m 412.886,512.51 -22.629,22.63 0.686,0.685 h 32.628 v -10.629 z"
       id="path67"
       style="opacity:0.2;fill:url(#n)"
       inkscape:connector-curvature="0" />
    <circle
       cx="401.57101"
       cy="523.82501"
       r="16"
       id="circle69"
       style="fill:url(#o)" />
    <path
       d="m 387.571,523.825 a 14,14 0 0 1 14,-14 14,14 0 0 1 14,14 14,14 0 0 1 -14,14 14,14 0 0 1 -14,-14 z"
       id="path71"
       style="fill:url(#p)"
       inkscape:connector-curvature="0" />
    <circle
       cx="401.57101"
       cy="523.82501"
       r="11"
       id="circle73"
       style="fill:url(#q)" />
    <circle
       cx="401.57101"
       cy="523.82501"
       r="10"
       id="circle75"
       style="fill:url(#r)" />
    <circle
       cx="401.57101"
       cy="523.82501"
       r="8"
       id="circle77"
       style="fill:url(#s)" />
    <circle
       cx="401.57101"
       cy="523.82501"
       r="6"
       id="circle79"
       style="fill:url(#t)" />
    <circle
       cx="401.57101"
       cy="523.82501"
       r="4"
       id="circle81"
       style="fill:#2c3e50" />
    <circle
       cx="398.57101"
       cy="520.82501"
       r="1"
       id="circle83"
       style="fill:#84cbfe" />
    <circle
       cx="396.57101"
       cy="518.82501"
       r="1.5"
       id="circle85"
       style="fill:#84cbfe" />
    <path
       d="m 55,23 c -1.108,0 -2,0.892 -2,2 v 14 c 0,1.108 0.892,2 2,2 h 3 V 23 Z"
       transform="translate(376.571,491.798)"
       id="path87"
       style="fill:url(#v)"
       inkscape:connector-curvature="0" />
    <path
       d="M 11,14 A 5.005,5.005 0 0 0 7.46,15.46 C 7.308,15.614 7.232,15.828 7.1,16 H 56.9 C 56.768,15.828 56.692,15.614 56.54,15.46 A 4.989,4.989 0 0 0 53,14 Z"
       transform="translate(376.571,491.798)"
       id="path89"
       style="fill:url(#w)"
       inkscape:connector-curvature="0" />
    <path
       d="m 7.1,48 c 0.132,0.172 0.208,0.386 0.36,0.54 A 4.989,4.989 0 0 0 11,50 h 42 a 5.005,5.005 0 0 0 3.54,-1.46 C 56.692,48.386 56.768,48.172 56.9,48 Z"
       transform="translate(376.571,491.798)"
       id="path91"
       style="fill:url(#y)"
       inkscape:connector-curvature="0" />
  </g>
</svg>
