<?xml version="1.0" encoding="UTF-8" standalone="no"?>
<svg
   viewBox="0 0 16 16"
   version="1.1"
   id="svg1"
   sodipodi:docname="folder-wireless-router-symbolic16.svg"
   xml:space="preserve"
   inkscape:version="1.4.2 (ebf0e940d0, 2025-05-08)"
   xmlns:inkscape="http://www.inkscape.org/namespaces/inkscape"
   xmlns:sodipodi="http://sodipodi.sourceforge.net/DTD/sodipodi-0.dtd"
   xmlns="http://www.w3.org/2000/svg"
   xmlns:svg="http://www.w3.org/2000/svg"><sodipodi:namedview
     id="namedview1"
     pagecolor="#505050"
     bordercolor="#ffffff"
     borderopacity="1"
     inkscape:showpageshadow="0"
     inkscape:pageopacity="0"
     inkscape:pagecheckerboard="1"
     inkscape:deskcolor="#505050"
     inkscape:zoom="72.25"
     inkscape:cx="7.9930796"
     inkscape:cy="8"
     inkscape:window-width="2556"
     inkscape:window-height="1364"
     inkscape:window-x="0"
     inkscape:window-y="0"
     inkscape:window-maximized="1"
     inkscape:current-layer="svg1" /><defs
     id="defs3051"><style
       type="text/css"
       id="current-color-scheme">.ColorScheme-Text {color:#fcfcfc;}</style></defs><path
     d="m 13.4,2.9693426 -0.48,0.48 c -0.72,-0.66 -1.62,-1.02 -2.52,-1.02 -0.9,0 -1.8,0.36 -2.52,1.02 l -0.48,-0.48 c 0.84,-0.84 1.92,-1.26 3,-1.26 1.08,0 2.16,0.42 3,1.26 m -3,0.12 c 0.72,0 1.44,0.3 1.98,0.84 l -0.48,0.48 c -0.42,-0.42 -0.96,-0.6 -1.5,-0.6 -0.54,0 -1.08,0.18 -1.5,0.6 l -0.48,-0.48 c 0.54,-0.54 1.26,-0.84 1.98,-0.84 m 0.6,4.02 h 1.2 c 0.318,0 0.624,0.126 0.846,0.354 0.228,0.222 0.354,0.528 0.354,0.846 v 1.2 c 0,0.318 -0.126,0.6240004 -0.354,0.8460004 -0.222,0.228 -0.528,0.354 -0.846,0.354 H 8.6 v 1.2 h 0.6 c 0.33,0 0.6,0.27 0.6,0.6 H 14 v 1.2 H 9.8 c 0,0.33 -0.27,0.6 -0.6,0.6 H 6.8 c -0.33,0 -0.6,-0.27 -0.6,-0.6 H 2 v -1.2 h 4.2 c 0,-0.33 0.27,-0.6 0.6,-0.6 h 0.6 v -1.2 H 3.8 c -0.318,0 -0.624,-0.126 -0.846,-0.354 C 2.726,10.133343 2.6,9.8273426 2.6,9.5093426 v -1.2 c 0,-0.318 0.126,-0.624 0.354,-0.846 0.222,-0.228 0.528,-0.354 0.846,-0.354 h 6 v -2.4 H 11 v 2.4 m -7.2,2.4 H 5 v -1.2 H 3.8 v 1.2 m 2.1,0 h 1.2 v -1.2 H 5.9 v 1.2 m 2.1,0 h 1.2 v -1.2 H 8 Z"
     id="path1-7"
     style="fill:currentColor"
     class="ColorScheme-Text" /></svg>
