<?xml version="1.0" encoding="UTF-8" standalone="no"?>
<svg
   viewBox="0 0 16 16"
   version="1.1"
   id="svg1"
   sodipodi:docname="folder-lan-symbolic16.svg"
   xml:space="preserve"
   inkscape:version="1.4.2 (ebf0e940d0, 2025-05-08)"
   xmlns:inkscape="http://www.inkscape.org/namespaces/inkscape"
   xmlns:sodipodi="http://sodipodi.sourceforge.net/DTD/sodipodi-0.dtd"
   xmlns="http://www.w3.org/2000/svg"
   xmlns:svg="http://www.w3.org/2000/svg"><sodipodi:namedview
     id="namedview1"
     pagecolor="#505050"
     bordercolor="#ffffff"
     borderopacity="1"
     inkscape:showpageshadow="0"
     inkscape:pageopacity="0"
     inkscape:pagecheckerboard="1"
     inkscape:deskcolor="#505050"
     inkscape:zoom="72.25"
     inkscape:cx="7.9930796"
     inkscape:cy="8"
     inkscape:window-width="2556"
     inkscape:window-height="1364"
     inkscape:window-x="0"
     inkscape:window-y="0"
     inkscape:window-maximized="1"
     inkscape:current-layer="svg1" /><defs
     id="defs3051"><style
       type="text/css"
       id="current-color-scheme">.ColorScheme-Text {color:#fcfcfc;}</style></defs><path
     d="M 6.8,2 C 6.134,2 5.6,2.534 5.6,3.2 V 5 c 0,0.666 0.534,1.2 1.2,1.2 H 7.4 V 7.4 H 2 V 8.6 H 4.4 V 9.8 H 3.8 C 3.134,9.8 2.6,10.334 2.6,11 v 1.8 c 0,0.666 0.534,1.2 1.2,1.2 h 2.4 c 0.666,0 1.2,-0.534 1.2,-1.2 V 11 C 7.4,10.334 6.866,9.8 6.2,9.8 H 5.6 V 8.6 h 4.8 V 9.8 H 9.8 C 9.134,9.8 8.6,10.334 8.6,11 v 1.8 c 0,0.666 0.534,1.2 1.2,1.2 h 2.4 c 0.666,0 1.2,-0.534 1.2,-1.2 V 11 c 0,-0.666 -0.534,-1.2 -1.2,-1.2 H 11.6 V 8.6 H 14 V 7.4 H 8.6 V 6.2 H 9.2 C 9.866,6.2 10.4,5.666 10.4,5 V 3.2 C 10.4,2.534 9.866,2 9.2,2 H 6.8 m 0,1.2 H 9.2 V 5 H 6.8 V 3.2 m -3,7.8 h 2.4 v 1.8 H 3.8 V 11 m 6,0 h 2.4 v 1.8 H 9.8 Z"
     id="path1"
     class="ColorScheme-Text"
     style="fill:currentColor" /></svg>
