<?xml version="1.0" encoding="UTF-8" standalone="no"?>
<svg
   viewBox="0 0 16 16"
   version="1.1"
   id="svg1"
   sodipodi:docname="folder-freecad-symbolic16.svg"
   xml:space="preserve"
   inkscape:version="1.4.2 (ebf0e940d0, 2025-05-08)"
   xmlns:inkscape="http://www.inkscape.org/namespaces/inkscape"
   xmlns:sodipodi="http://sodipodi.sourceforge.net/DTD/sodipodi-0.dtd"
   xmlns="http://www.w3.org/2000/svg"
   xmlns:svg="http://www.w3.org/2000/svg"><sodipodi:namedview
     id="namedview1"
     pagecolor="#505050"
     bordercolor="#ffffff"
     borderopacity="1"
     inkscape:showpageshadow="0"
     inkscape:pageopacity="0"
     inkscape:pagecheckerboard="1"
     inkscape:deskcolor="#505050"
     inkscape:zoom="72.25"
     inkscape:cx="7.9930796"
     inkscape:cy="8"
     inkscape:window-width="2556"
     inkscape:window-height="1364"
     inkscape:window-x="0"
     inkscape:window-y="0"
     inkscape:window-maximized="1"
     inkscape:current-layer="svg1" /><defs
     id="defs3051"><style
       type="text/css"
       id="current-color-scheme">.ColorScheme-Text {color:#fcfcfc;}</style></defs><path
     d="m 12.520763,6.88296 1.30488,-0.94774 C 13.935321,5.85652 14,5.72993 14,5.59494 L 13.997,3.19888 V 0.8 H 4.398842 L 2,3.19888 v 12 h 4.8286135 c 0.1827872,0 0.3430846,-0.11812 0.3993337,-0.28967 l 0.4330832,-1.33583 c 0.042199,-0.12656 0.1406077,-0.2278 0.2699757,-0.26998 l 0.3346547,-0.10968 c 0.126548,-0.0422 0.2671658,-0.0197 0.376844,0.0591 l 1.136142,0.82681 c 0.1462377,0.10686 0.3459042,0.10686 0.4949522,0 L 11.291623,13.34 c 0.146238,-0.10687 0.208107,-0.29529 0.151867,-0.46965 l -0.433083,-1.33584 c -0.0422,-0.12655 -0.0197,-0.26716 0.0591,-0.37684 l 0.205297,-0.28404 c 0.0787,-0.10968 0.205297,-0.17436 0.340285,-0.17436 h 1.406117 c 0.182788,0 0.343085,-0.11812 0.399334,-0.28967 l 0.388084,-1.19803 c 0.0562,-0.17436 -0.006,-0.36278 -0.151858,-0.46965 L 12.520623,7.91511 C 12.410945,7.83641 12.346266,7.70981 12.346266,7.57482 V 7.22329 c 0,-0.13499 0.0647,-0.26154 0.174357,-0.34029 M 11.598208,5.6006 H 6.797724 V 7.40046 H 9.1965661 V 9.79934 H 6.797724 V 12.8 H 4.398892 V 3.19888 h 7.199316 z"
     style="fill:currentColor"
     id="path1"
     class="ColorScheme-Text" /></svg>
