<?xml version="1.0" encoding="UTF-8" standalone="no"?>
<svg
   viewBox="0 0 16 16"
   version="1.1"
   id="svg1"
   sodipodi:docname="folder-tools-symbolic16.svg"
   xml:space="preserve"
   inkscape:version="1.4.2 (ebf0e940d0, 2025-05-08)"
   xmlns:inkscape="http://www.inkscape.org/namespaces/inkscape"
   xmlns:sodipodi="http://sodipodi.sourceforge.net/DTD/sodipodi-0.dtd"
   xmlns="http://www.w3.org/2000/svg"
   xmlns:svg="http://www.w3.org/2000/svg"><sodipodi:namedview
     id="namedview1"
     pagecolor="#505050"
     bordercolor="#ffffff"
     borderopacity="1"
     inkscape:showpageshadow="0"
     inkscape:pageopacity="0"
     inkscape:pagecheckerboard="1"
     inkscape:deskcolor="#505050"
     inkscape:zoom="72.25"
     inkscape:cx="7.9930796"
     inkscape:cy="8"
     inkscape:window-width="2556"
     inkscape:window-height="1364"
     inkscape:window-x="0"
     inkscape:window-y="0"
     inkscape:window-maximized="1"
     inkscape:current-layer="svg1" /><defs
     id="defs3051"><style
       type="text/css"
       id="current-color-scheme">.ColorScheme-Text {color:#fcfcfc;}</style></defs><path
     d="m 13.826007,12.973565 -0.851966,0.851966 a 0.59997621,0.59997621 0 0 1 -0.845967,0 L 5.0003567,6.7098133 A 2.2859094,2.2859094 0 0 1 4.4003805,6.7998097 2.3999048,2.3999048 0 0 1 2.1324704,3.6199358 L 3.65641,5.1438753 3.9743974,4.825888 4.8263636,3.9739217 5.1443509,3.6559343 3.6204114,2.1319947 a 2.3999048,2.3999048 0 0 1 3.1798739,2.2679101 2.2859094,2.2859094 0 0 1 -0.089996,0.5999763 l 7.1157181,7.1277179 a 0.59997621,0.59997621 0 0 1 0,0.845966 M 2.1744687,12.127599 a 0.59997621,0.59997621 0 0 0 0,0.845966 l 0.8519662,0.851966 a 0.59997621,0.59997621 0 0 0 0.8459665,0 L 7.1542713,10.549661 5.4563386,8.8517285 M 12.800047,2 10.400143,3.1999524 V 4.3999048 L 9.0981942,5.7018532 10.298147,6.9018056 11.600095,5.5998573 h 1.199952 L 14,3.1999524 Z"
     id="path1-7"
     style="fill:currentColor"
     class="ColorScheme-Text" /></svg>
