<?xml version="1.0" encoding="UTF-8" standalone="no"?>
<svg
   viewBox="0 0 16 16"
   version="1.1"
   id="svg1"
   sodipodi:docname="folder-pihole-symbolic16.svg"
   xml:space="preserve"
   inkscape:version="1.4.2 (ebf0e940d0, 2025-05-08)"
   xmlns:inkscape="http://www.inkscape.org/namespaces/inkscape"
   xmlns:sodipodi="http://sodipodi.sourceforge.net/DTD/sodipodi-0.dtd"
   xmlns="http://www.w3.org/2000/svg"
   xmlns:svg="http://www.w3.org/2000/svg"><sodipodi:namedview
     id="namedview1"
     pagecolor="#505050"
     bordercolor="#ffffff"
     borderopacity="1"
     inkscape:showpageshadow="0"
     inkscape:pageopacity="0"
     inkscape:pagecheckerboard="1"
     inkscape:deskcolor="#505050"
     inkscape:zoom="72.25"
     inkscape:cx="7.9930796"
     inkscape:cy="8"
     inkscape:window-width="2556"
     inkscape:window-height="1364"
     inkscape:window-x="0"
     inkscape:window-y="0"
     inkscape:window-maximized="1"
     inkscape:current-layer="svg1" /><defs
     id="defs3051"><style
       type="text/css"
       id="current-color-scheme">.ColorScheme-Text {color:#fcfcfc;}</style></defs><path
     d="m 4.1744219,2 c 0.119,2.396 1.628,3.528 3.1260002,3.688 0.0825,-0.846 -2.1595002,-2.8 -2.1595002,-2.8 -0.004,-0.0055 0.0045,-0.0125 0.0095,-0.007 0,0 2.3240002,2.005 2.7115002,2.8225 1.381,-0.075 2.5979999,-0.9735 2.4999999,-2.456 0,0 -2.0599999,-0.3065 -2.4999999,2.309 C 7.7424221,3.3765 6.4989219,2 4.1744219,2 Z M 8.0024221,5.841 V 5.842 A 1.84,1.84 0 0 0 6.7069219,6.3805 l -2.2345,2.233 a 1.8415,1.8415 0 0 0 -0.43,0.678 1.655,1.655 0 0 0 -0.1185,0.6275 1.8405,1.8405 0 0 0 0.5385,1.306 l 2.232,2.233 a 1.845,1.845 0 0 0 1.1255002,0.53 l 10e-4,5e-4 c 0.0465,0.005 0.0935,0.0075 0.14,0.0085 l -0.05,-0.004 c 0.03,0.0015 0.0585,0.0045 0.0885,0.0045 l -0.0385,-5e-4 0.0415,0.003 -0.002,-0.0025 a 1.84,1.84 0 0 0 1.305,-0.5385 l 2.2344999,-2.2325 a 1.8415,1.8415 0 0 0 0.503,-0.944 l 0.006,-0.0315 a 1.841,1.841 0 0 0 0.0285,-0.2705 l 0.0015,-0.0305 c 0,-0.0085 0.0015,-0.025 0.002,-0.03 h -10e-4 a 1.8415,1.8415 0 0 0 -0.5385,-1.3035 L 9.3084221,6.3825 a 1.847,1.847 0 0 0 -0.782,-0.4635 l -0.035,-0.01 a 1.715,1.715 0 0 0 -0.473,-0.0665 z m 1.5825,1.6785 c 0.0115,0.874 -0.665,1.539 -0.665,2.403 0.082,1.1135 0.8665,1.6035 1.6329999,1.573 -0.0175,0.0015 -0.034,0.0035 -0.052,0.0045 -0.9234999,0.0675 -1.6044999,-0.663 -2.5009999,-0.663 -1.1150002,0.082 -1.6050002,0.868 -1.5735002,1.635 l -0.004,-0.052 c -0.0665,-0.9235 0.6640002,-1.605 0.6640002,-2.501 -0.0865,-1.16 -0.9335002,-1.642 -1.7300002,-1.566 0.05,-0.0055 0.1015,-0.0105 0.155,-0.0135 0.9235,-0.0665 1.6045002,0.664 2.5010002,0.664 1.041,-0.0775 1.537,-0.768 1.5725,-1.484 z M 4.1744219,2 c 0.119,2.396 1.628,3.528 3.1260002,3.688 0.0825,-0.846 -2.1595002,-2.8 -2.1595002,-2.8 -0.004,-0.0055 0.0045,-0.0125 0.0095,-0.007 0,0 2.3240002,2.005 2.7115002,2.8225 1.381,-0.075 2.5979999,-0.9735 2.4999999,-2.456 0,0 -2.0599999,-0.3065 -2.4999999,2.309 C 7.7424221,3.3765 6.4989219,2 4.1744219,2 Z M 8.0024221,5.841 V 5.842 A 1.84,1.84 0 0 0 6.7069219,6.3805 l -2.2345,2.233 a 1.8415,1.8415 0 0 0 -0.43,0.678 1.655,1.655 0 0 0 -0.1185,0.6275 1.8405,1.8405 0 0 0 0.5385,1.306 l 2.232,2.233 a 1.845,1.845 0 0 0 1.1255002,0.53 l 10e-4,5e-4 c 0.0465,0.005 0.0935,0.0075 0.14,0.0085 l -0.05,-0.004 c 0.03,0.0015 0.0585,0.0045 0.0885,0.0045 l -0.0385,-5e-4 0.0415,0.003 -0.002,-0.0025 a 1.84,1.84 0 0 0 1.305,-0.5385 l 2.2344999,-2.2325 a 1.8415,1.8415 0 0 0 0.503,-0.944 l 0.006,-0.0315 a 1.841,1.841 0 0 0 0.0285,-0.2705 l 0.0015,-0.0305 c 0,-0.0085 0.0015,-0.025 0.002,-0.03 h -10e-4 a 1.8415,1.8415 0 0 0 -0.5385,-1.3035 L 9.3084221,6.3825 a 1.847,1.847 0 0 0 -0.782,-0.4635 l -0.035,-0.01 a 1.715,1.715 0 0 0 -0.473,-0.0665 z m 1.5825,1.6785 c 0.0115,0.874 -0.665,1.539 -0.665,2.403 0.082,1.1135 0.8665,1.6035 1.6329999,1.573 -0.0175,0.0015 -0.034,0.0035 -0.052,0.0045 -0.9234999,0.0675 -1.6044999,-0.663 -2.5009999,-0.663 -1.1150002,0.082 -1.6050002,0.868 -1.5735002,1.635 l -0.004,-0.052 c -0.0665,-0.9235 0.6640002,-1.605 0.6640002,-2.501 -0.0865,-1.16 -0.9335002,-1.642 -1.7300002,-1.566 0.05,-0.0055 0.1015,-0.0105 0.155,-0.0135 0.9235,-0.0665 1.6045002,0.664 2.5010002,0.664 1.041,-0.0775 1.537,-0.768 1.5725,-1.484 z"
     id="path1-7"
     style="fill:currentColor"
     class="ColorScheme-Text" /></svg>
