<?xml version="1.0" encoding="UTF-8" standalone="no"?>
<svg
   viewBox="0 0 16 16"
   version="1.1"
   id="svg1"
   sodipodi:docname="folder-wireguard-symbolic16.svg"
   xml:space="preserve"
   inkscape:version="1.4.2 (ebf0e940d0, 2025-05-08)"
   xmlns:inkscape="http://www.inkscape.org/namespaces/inkscape"
   xmlns:sodipodi="http://sodipodi.sourceforge.net/DTD/sodipodi-0.dtd"
   xmlns="http://www.w3.org/2000/svg"
   xmlns:svg="http://www.w3.org/2000/svg"><sodipodi:namedview
     id="namedview1"
     pagecolor="#505050"
     bordercolor="#ffffff"
     borderopacity="1"
     inkscape:showpageshadow="0"
     inkscape:pageopacity="0"
     inkscape:pagecheckerboard="1"
     inkscape:deskcolor="#505050"
     inkscape:zoom="72.25"
     inkscape:cx="7.9930796"
     inkscape:cy="8"
     inkscape:window-width="2556"
     inkscape:window-height="1364"
     inkscape:window-x="0"
     inkscape:window-y="0"
     inkscape:window-maximized="1"
     inkscape:current-layer="svg1" /><defs
     id="defs3051"><style
       type="text/css"
       id="current-color-scheme">.ColorScheme-Text {color:#fcfcfc;}</style></defs><path
     d="m 13.989662,7.82171 c 0,0 0.27655,-5.82171 -6.1216995,-5.82171 -5.66,0 -5.83578,5.585 -5.83578,5.585 0,0 -0.832,6.41466 5.96468,6.41466 6.5224695,0 5.9927995,-6.17795 5.9927995,-6.17795 M 6.0773825,5.78739 c 1.19997,-0.73357 2.73508,-0.28593 3.30928,0.81795 0.10781,0.20859 0.12188,0.53202 0.0539,0.74998 -0.23906,0.75935 -0.80154,1.18356 -1.57261,1.36402 0.22733,-0.19452 0.4078,-0.41483 0.46639,-0.72185 0.0609,-0.29296 -0.005,-0.59764 -0.18281,-0.83904 -0.28124,-0.38671 -0.78279,-0.53905 -1.23278,-0.37499 -0.47576,0.18046 -0.73591,0.61404 -0.68904,1.1484 0.0445,0.49452 0.41952,0.81561 1.12263,0.93748 -0.10547,0.0563 -0.18515,0.0961 -0.26484,0.14062 -0.32108,0.17578 -0.60233,0.41952 -0.82263,0.71482 -0.0703,0.0961 -0.11953,0.10312 -0.22968,0.0375 -1.4109,-0.86013 -1.50231,-3.03038 0.0422,-3.97489 m -1.05934,5.34126 c -0.22734,0.0586 -0.44765,0.14296 -0.67967,0.21796 0.1125,-0.76638 1.01013,-1.47183 1.76948,-1.39215 -0.22031,0.30234 -0.34687,0.66327 -0.3703,1.03591 -0.25078,0.0492 -0.48749,0.0797 -0.71951,0.13828 m 4.83267,-7.4787 c 0.2249995,0.009 0.4499895,0.005 0.6749795,0.009 0.0562,0.005 0.1125,0.0117 0.16641,0.0234 -0.0492,0.0773 -0.10781,0.14999 -0.16875,0.21796 -0.0797,0.075 -0.17109,0.14765 -0.28593,0.0351 -0.0281,-0.0281 -0.0937,-0.0211 -0.14296,-0.0211 -0.2226495,-0.002 -0.4476495,-0.009 -0.6702995,-0.002 -0.19452,0.007 -0.3867,0.0258 -0.57654,0.0586 -0.0352,0.007 -0.0891,0.12421 -0.0727,0.16874 0.0375,0.10313 0.0961,0.21797 0.17812,0.28359 0.30937,0.24374 0.63983,0.46405 0.94919,0.70545 0.3023395,0.23671 0.5835795,0.49452 0.7546695,0.85076 0.22265,0.46405 0.22968,0.94919 0.13359,1.43902 -0.16171,0.8156 -0.5742,1.49058 -1.2421495,1.98041 -0.26953,0.19687 -0.60233,0.30937 -0.90935,0.45233 -0.27187,0.12422 -0.55077,0.23203 -0.82263,0.35624 -0.48983,0.22265 -0.76639,0.75467 -0.68436,1.30778 0.075,0.50623 0.5203,0.93044 1.02888,1.01716 0.6117,0.10546 1.24215,-0.29296 1.39215,-0.91404 0.16874,-0.69842 -0.21094,-1.32418 -0.92342,-1.51168 -0.0305,-0.009 -0.0633,-0.0164 -0.1289,-0.0328 0.18984,-0.0844 0.3539,-0.14531 0.50624,-0.22968 0.26483,-0.14531 0.52498,-0.29999 0.7781,-0.46171 0.075,-0.0469 0.11484,-0.0469 0.18046,0.007 0.4898295,0.42186 0.7804495,0.94919 0.8624795,1.5937 0.13593,1.06638 -0.3703,2.04838 -1.3218395,2.54993 -1.47418,0.7781 -3.27881,-0.10781 -3.60458,-1.74136 -0.2789,-1.39918 0.71013,-2.66945 1.89838,-2.91554 0.51092,-0.10547 0.97966,-0.31874 1.34293,-0.71248 0.23437,-0.25312 0.34921,-0.47108 0.38671,-0.57186 0.0726,-0.18515 0.11015,-0.37968 0.10781,-0.57889 -0.007,-0.17109 -0.0469,-0.33983 -0.11953,-0.49686 -0.12421,-0.28359 -0.59998,-0.73357 -0.71717,-0.82732 l -1.11559,-0.87654 c -0.0398,-0.0328 -0.0844,-0.0305 -0.18046,-0.0234 -0.11484,0.007 -0.40781,0.0234 -0.53436,-0.009 0.10312,-0.0773 0.37967,-0.18984 0.4992,-0.28124 -0.36327,-0.24609 -0.7781,-0.15703 -1.15778,-0.22968 0.0867,-0.16406 0.52264,-0.41484 0.77107,-0.44296 -0.0141,-0.13828 -0.0375,-0.27655 -0.068,-0.41249 -0.0141,-0.0563 -0.0773,-0.11015 -0.13125,-0.14062 -0.13125,-0.0773 -0.27187,-0.14062 -0.42186,-0.21796 0.13593,-0.0867 0.29296,-0.13594 0.45233,-0.14062 0.15234,-0.005 0.30468,0.009 0.45467,0.0445 0.26953,0.0609 0.48514,0.0211 0.69842,-0.16172 -0.16875,-0.068 -0.33749,-0.13124 -0.50155,-0.2039 q -0.24257,-0.10898 -0.47108,-0.24608 c 0.42421,0.0586 0.8367,0.21796 1.27028,0.15937 l 0.0117,-0.0586 -1.00544,-0.23436 c 0.60232,-0.0563 1.16246,-0.0633 1.69214,0.19452 0.14999,0.0727 0.30467,0.13359 0.44764,0.21562 0.0703,0.0398 0.11718,0.11953 0.17343,0.18281 0.0445,0.0492 0.082,0.11484 0.13828,0.14531 0.2109295,0.11249 0.4452995,0.11718 0.6843595,0.11249 l 0.005,-0.0797 c 0.23906,0.075 0.50858,0.35155 0.50858,0.55311 -0.38671,0 -0.77576,-0.002 -1.1624695,0.002 -0.0422,0 -0.082,0.0305 -0.12421,0.0469 0.0375,0.0211 0.0773,0.0609 0.11718,0.0633 m -0.4992,-0.5742 c -0.0281,0.0164 -0.0352,0.0539 -0.0188,0.082 0.002,0.005 0.007,0.009 0.0117,0.0141 0.0234,0.0422 0.0797,0.0586 0.12187,0.0328 0.0375,-0.0187 0.075,-0.0398 0.11953,-0.0633 -0.0375,-0.0305 -0.0656,-0.0562 -0.0961,-0.082 -0.0539,-0.0422 -0.0961,-0.0164 -0.13828,0.0164"
     style="fill:currentColor"
     id="path1-7"
     class="ColorScheme-Text" /></svg>
