<?xml version="1.0" encoding="UTF-8" standalone="no"?>
<svg
   viewBox="0 0 16 16"
   version="1.1"
   id="svg1"
   sodipodi:docname="folder-markdown-symbolic16.svg"
   xml:space="preserve"
   inkscape:version="1.4.2 (ebf0e940d0, 2025-05-08)"
   xmlns:inkscape="http://www.inkscape.org/namespaces/inkscape"
   xmlns:sodipodi="http://sodipodi.sourceforge.net/DTD/sodipodi-0.dtd"
   xmlns="http://www.w3.org/2000/svg"
   xmlns:svg="http://www.w3.org/2000/svg"><sodipodi:namedview
     id="namedview1"
     pagecolor="#505050"
     bordercolor="#ffffff"
     borderopacity="1"
     inkscape:showpageshadow="0"
     inkscape:pageopacity="0"
     inkscape:pagecheckerboard="1"
     inkscape:deskcolor="#505050"
     inkscape:zoom="72.25"
     inkscape:cx="7.9930796"
     inkscape:cy="8"
     inkscape:window-width="2556"
     inkscape:window-height="1364"
     inkscape:window-x="0"
     inkscape:window-y="0"
     inkscape:window-maximized="1"
     inkscape:current-layer="svg1" /><defs
     id="defs3051"><style
       type="text/css"
       id="current-color-scheme">.ColorScheme-Text {color:#fcfcfc;}</style></defs><path
     d="M 13.136,11.6 H 2.864 C 2.39,11.6 2,11.222 2,10.754 V 5.246 C 2,4.778 2.39,4.4 2.864,4.4 H 13.136 C 13.61,4.4 14,4.778 14,5.246 v 5.508 C 14,11.222 13.61,11.6 13.136,11.6 M 2.864,4.964 c -0.156,0 -0.288,0.126 -0.288,0.282 v 5.514 c 0,0.15 0.132,0.276 0.288,0.276 h 10.272 c 0.156,0 0.288,-0.126 0.288,-0.276 V 5.246 c 0,-0.156 -0.132,-0.282 -0.288,-0.282 H 2.864 m 0.87,4.95 V 6.086 H 4.886 L 6.038,7.496 7.19,6.086 H 8.348 V 9.914 H 7.19 V 7.718 L 6.038,9.128 4.886,7.718 V 9.914 H 3.734 m 7.206,0 -1.74,-1.86 h 1.164 V 6.086 h 1.152 v 1.968 h 1.158 l -1.734,1.86"
     id="path1"
     style="fill:currentColor"
     class="ColorScheme-Text" /></svg>
