<?xml version="1.0" encoding="UTF-8" standalone="no"?>
<svg
   viewBox="0 0 16 16"
   version="1.1"
   id="svg1"
   sodipodi:docname="folder-linux-symbolic16.svg"
   xml:space="preserve"
   inkscape:version="1.4.2 (ebf0e940d0, 2025-05-08)"
   xmlns:inkscape="http://www.inkscape.org/namespaces/inkscape"
   xmlns:sodipodi="http://sodipodi.sourceforge.net/DTD/sodipodi-0.dtd"
   xmlns="http://www.w3.org/2000/svg"
   xmlns:svg="http://www.w3.org/2000/svg"><sodipodi:namedview
     id="namedview1"
     pagecolor="#505050"
     bordercolor="#ffffff"
     borderopacity="1"
     inkscape:showpageshadow="0"
     inkscape:pageopacity="0"
     inkscape:pagecheckerboard="1"
     inkscape:deskcolor="#505050"
     inkscape:zoom="72.25"
     inkscape:cx="7.9930796"
     inkscape:cy="8"
     inkscape:window-width="2556"
     inkscape:window-height="1364"
     inkscape:window-x="0"
     inkscape:window-y="0"
     inkscape:window-maximized="1"
     inkscape:current-layer="svg1" /><defs
     id="defs3051"><style
       type="text/css"
       id="current-color-scheme">.ColorScheme-Text {color:#fcfcfc;}</style></defs><path
     d="m 12.980124,11.83244 c -0.0797,-0.0726 -0.19918,-0.12653 -0.27885,-0.16637 -0.11951,-0.0469 -0.19918,-0.10779 -0.27885,-0.17809 -0.11951,-0.0726 -0.15934,-0.15466 -0.19918,-0.24136 l -0.0398,-0.29291 c -0.0398,-0.18746 -0.0797,-0.30697 -0.1195,-0.36087 -0.0398,-0.0539 -0.0797,-0.0867 -0.15935,-0.0867 0.0797,-0.25776 0.11951,-0.5249 0.11951,-0.79906 0,-0.55302 -0.11951,-1.06854 -0.31869,-1.4669 -0.15934,-0.43585 -0.43585,-0.87405 -0.79437,-1.27007 -0.15935,-0.23901 -0.31869,-0.43585 -0.43586,-0.63503 -0.1195,-0.15934 -0.19918,-0.31869 -0.27885,-0.47569 -0.0797,-0.11951 -0.11951,-0.27885 -0.15934,-0.43585 -0.0398,-0.19918 -0.0398,-0.35852 -0.0797,-0.47569 0,-0.11951 -0.0398,-0.27885 -0.0398,-0.51552 C 9.877694,4.15348 9.877694,3.95664 9.837794,3.75746 9.797994,3.43877 9.718284,3.2021 9.638614,2.96308 9.519104,2.7639 9.399594,2.56472 9.240254,2.44756 9.120744,2.32805 8.961404,2.24838 8.804404,2.16871 8.605224,2.08901 8.445874,2.0492 8.328714,2.0492 8.211544,2 8.092044,2 7.974874,2 c -0.31869,0 -0.59519,0.0398 -0.83421,0.11951 -0.23902,0.0797 -0.39836,0.23901 -0.51553,0.39836 -0.13591,0.15934 -0.22729,0.35852 -0.27885,0.55536 -0.0515,0.19918 -0.075,0.39836 -0.075,0.67487 0,0.35852 0.0187,0.75454 0.0586,1.1529 0.0445,0.39836 0.0633,0.63503 0.0633,0.7147 0,0.15934 -0.0398,0.35852 -0.11482,0.51552 -0.075,0.157 -0.2109,0.35853 -0.41711,0.5952 l -0.2976,0.35852 c -0.23901,0.27886 -0.38898,0.55536 -0.45225,0.83422 -0.0797,0.31868 -0.14997,0.55536 -0.21793,0.7147 -0.0633,0.15934 -0.14997,0.31869 -0.26713,0.53193 l -0.13826,0.25073 c -0.14294,0.26714 -0.21089,0.46866 -0.21089,0.6116 -0.007,0.0234 -0.007,0.0633 -0.007,0.10779 0,0.0633 0.0164,0.11482 0.0469,0.15466 -0.0281,0.0328 -0.0469,0.0633 -0.0633,0.0914 -0.007,0.0187 -0.0164,0.0445 -0.0234,0.0679 -0.007,0.0164 -0.0164,0.0515 -0.0351,0.0984 -0.0164,0.0469 -0.0398,0.0984 -0.0679,0.16403 -0.0844,0.0469 -0.13826,0.068 -0.17575,0.068 h -0.45929 c -0.0867,0 -0.17106,0.0515 -0.25776,0.14997 -0.0867,0.0984 -0.12654,0.23901 -0.12654,0.41242 0,0.0562 0.0164,0.18746 0.0469,0.39367 0.0328,0.2109 0.0469,0.3304 0.0469,0.37024 0,0.0398 -0.007,0.0797 -0.0164,0.11951 -0.007,0.0445 -0.0234,0.0797 -0.0398,0.11482 -0.0164,0.0398 -0.0328,0.075 -0.0562,0.11013 -0.0164,0.0398 -0.0398,0.0797 -0.068,0.1242 -0.0281,0.0398 -0.0562,0.0844 -0.082,0.12654 -0.0281,0.0726 -0.0398,0.14059 -0.0398,0.20386 0,0.0633 0.0281,0.11951 0.082,0.16872 0.0586,0.0492 0.13825,0.0914 0.23901,0.12185 0.10311,0.0375 0.19918,0.0633 0.2812,0.082 0.0914,0.0187 0.19449,0.0375 0.30697,0.0539 0.11482,0.0187 0.18746,0.0328 0.21792,0.0398 0.32103,0.0726 0.69127,0.18277 1.10838,0.32572 0.41242,0.14997 0.71939,0.22729 0.91389,0.22729 0.30931,0 0.53192,-0.12419 0.7311,-0.36086 v 0.0117 c 0.27885,-0.13825 0.67487,-0.20855 1.19274,-0.20855 0.31869,0 0.83421,0.0375 1.46924,0.11482 0.11951,0.24136 0.31869,0.40071 0.63503,0.48506 l 0.27886,0.0328 c 0.15934,0 0.31868,-0.0351 0.43585,-0.10779 0.11951,-0.068 0.27885,-0.17809 0.43585,-0.33275 l 0.39836,-0.33743 c 0.19918,-0.16872 0.39836,-0.31166 0.5952,-0.42883 0.23901,-0.11247 0.39836,-0.19215 0.47569,-0.23198 0.1195,-0.0352 0.19918,-0.0914 0.27885,-0.17106 0.0797,-0.0726 0.1195,-0.17106 0.1195,-0.30697 0.002,-0.089 -0.0375,-0.17106 -0.11482,-0.25074 m -2.73696,-4.20855 c 0.19918,0.0398 0.35852,0.15935 0.51552,0.39836 0.15935,0.23902 0.23902,0.51553 0.23902,0.91389 0,0.28588 -0.0398,0.61159 -0.15935,0.98183 0.0398,0.007 0.11951,0.0164 0.15935,0.0188 0.0398,0 0.0398,0 0.0797,0.007 0,0 0.0398,0 0.0797,0.005 0.23902,0.0328 0.43585,0.10779 0.55536,0.2273 0.11951,0.11482 0.15935,0.21792 0.15935,0.30697 0,0.0352 0,0.0516 -0.0398,0.0516 0,0 -0.0398,-0.0234 -0.0398,-0.075 -0.0398,-0.0516 -0.0797,-0.1078 -0.1195,-0.16638 -0.0398,-0.0633 -0.11951,-0.11951 -0.27886,-0.17106 -0.1195,-0.0562 -0.31868,-0.0844 -0.51552,-0.0844 -0.11951,0 -0.19918,0.0351 -0.31869,0.10311 -0.0797,0.0679 -0.11951,0.13591 -0.19918,0.20152 -0.0398,0.068 -0.0797,0.10311 -0.0797,0.10311 -0.0398,0 -0.0398,-0.0188 -0.0398,-0.0562 0.11951,-0.22965 0.27886,-0.37727 0.43586,-0.44054 0.15934,-0.4218 0.19918,-0.74986 0.19918,-0.97247 0,-0.27885 -0.0398,-0.51552 -0.15935,-0.79437 -0.1195,-0.23902 -0.31868,-0.39836 -0.51552,-0.47569 0.002,-0.0422 0.002,-0.0422 0.0422,-0.082 M 8.057394,3.89836 q 0.17926,-0.11951 0.35852,-0.11951 c 0.15934,0 0.27885,0.0398 0.39836,0.15934 0.0797,0.11951 0.11951,0.27885 0.11951,0.51553 0,0.19918 -0.0398,0.35852 -0.0797,0.59519 -0.0797,-0.0398 -0.11951,-0.0797 -0.19918,-0.0797 -0.0398,0 -0.0797,-0.0398 -0.0797,-0.0398 q 0.23902,-0.0598 0.23902,-0.35853 c 0,-0.11951 -0.0398,-0.19918 -0.0797,-0.31869 -0.0797,-0.0797 -0.15935,-0.15934 -0.27885,-0.15934 q -0.11951,0 -0.23902,0.11951 c -0.0797,0.11951 -0.0797,0.19918 -0.0797,0.35852 0,0.0797 0,0.15935 0.0398,0.19918 -0.0398,0 -0.0797,-0.0398 -0.1195,-0.0398 -0.0797,-0.15935 -0.11951,-0.31869 -0.11951,-0.51553 0,-0.11716 0.0398,-0.19684 0.11951,-0.31634 m 0.43819,0.43819 c 0,-0.0398 -0.0398,-0.0398 -0.0398,-0.0797 0.0398,0 0.0797,-0.0398 0.0797,-0.0398 0.0398,0 0.0797,0.0398 0.11951,0.0797 0.0398,0.0398 0.0398,0.0797 0.0398,0.1195 0,0.0398 0,0.0797 0.0398,0.11951 h -0.0797 C 8.614954,4.41628 8.575054,4.33661 8.495404,4.33661 m -0.11951,0.5952 c 0.39836,0.11951 0.5952,0.23901 0.63504,0.31869 0.0398,0 0.0398,0.0398 0.0398,0.0797 0,0.11951 -0.0797,0.19918 -0.15934,0.27885 l -0.35853,0.23902 c -0.39835,0.27885 -0.7147,0.43585 -0.99355,0.43585 -0.19918,0 -0.39836,-0.0797 -0.55536,-0.23902 L 6.744934,5.80589 c -0.0398,-0.0398 -0.0797,-0.11951 -0.11951,-0.19918 0.23902,0.19918 0.51553,0.31868 0.79438,0.31868 0.31869,0 0.71471,-0.15934 1.23257,-0.51552 0,0 0,-0.0398 -0.0398,-0.0398 v -0.0797 c -0.51553,0.39836 -0.91389,0.55536 -1.23257,0.55536 -0.23902,0 -0.47569,-0.11951 -0.71471,-0.31869 -0.0398,-0.0797 -0.0797,-0.1195 -0.0797,-0.1195 0,-0.15935 0.15934,-0.31869 0.39836,-0.47569 0.27885,-0.15935 0.47569,-0.23902 0.59519,-0.23902 0.16169,0 0.4382,0.0797 0.79672,0.23902 m -1.50908,-0.5952 v -0.0797 c 0.0398,0 0.0398,-0.0398 0.0398,-0.0398 0.11951,0 0.19918,0.11951 0.19918,0.31869 h -0.0797 c 0,-0.0797 -0.0398,-0.11951 -0.0398,-0.19918 z M 6.627774,4.0578 c 0.0398,-0.11951 0.15934,-0.19918 0.27885,-0.19918 0.15934,0 0.23902,0.0797 0.31869,0.19918 0.0797,0.11951 0.0797,0.23902 0.0797,0.35852 0,0.15935 0,0.23902 -0.0398,0.23902 v 0.0398 h -0.0398 v -0.0797 c 0,-0.1195 -0.0398,-0.23901 -0.0797,-0.35852 -0.0797,-0.0797 -0.11951,-0.11951 -0.19918,-0.11951 -0.0797,0 -0.15935,0.0398 -0.19918,0.11951 -0.0797,0.0797 -0.0797,0.15934 -0.0797,0.27885 0,0.19918 0.0398,0.31869 0.19918,0.39836 -0.0398,0.0398 -0.0797,0.0398 -0.1195,0.0797 -0.15935,-0.15934 -0.21559,-0.31868 -0.21559,-0.47568 0,-0.20153 0.0164,-0.32104 0.0961,-0.48038 m 0.0352,9.41535 c -0.18981,0.23902 -0.4218,0.36087 -0.6983,0.36087 -0.10779,0 -0.40071,-0.0914 -0.88108,-0.26714 -0.48038,-0.17575 -0.90686,-0.29291 -1.27475,-0.34681 v -0.002 c -0.48038,-0.0633 -0.74283,-0.17106 -0.78266,-0.32572 0,-0.0914 0.0515,-0.21792 0.14997,-0.38898 0.0984,-0.16403 0.14763,-0.32572 0.14763,-0.48975 0,-0.0844 -0.0164,-0.20153 -0.0469,-0.34915 -0.0328,-0.14997 -0.0469,-0.25776 -0.0469,-0.32103 0,-0.13826 0.0516,-0.26948 0.14997,-0.3843 0.075,-0.0398 0.21793,-0.0633 0.42883,-0.0633 h 0.10779 c 0.0515,-0.005 0.0867,-0.005 0.10779,-0.005 0.0914,-0.0188 0.15934,-0.0398 0.19918,-0.0633 0.0398,-0.0281 0.0633,-0.0844 0.075,-0.16637 0.007,-0.0867 0.0398,-0.17106 0.0961,-0.24605 0.0562,-0.075 0.17106,-0.13122 0.33743,-0.16403 0.13123,0.0328 0.25074,0.0914 0.35384,0.18278 0.10779,0.0914 0.18981,0.18278 0.24136,0.27416 0.0586,0.0844 0.13591,0.20153 0.21793,0.35853 0.0867,0.15466 0.15465,0.26948 0.21089,0.34446 l 0.26948,0.36087 c 0.45226,0.57645 0.67956,1.04979 0.67956,1.42706 -0.002,0.10545 -0.002,0.19684 -0.0422,0.27417 m 0.87405,-0.77797 c -0.47569,0 -0.83422,-0.11014 -1.00059,-0.33744 -0.0844,-0.15466 -0.12419,-0.23433 -0.12419,-0.23901 0,-0.0188 0.005,-0.0281 0.0117,-0.0281 0.0914,0 0.19918,-0.0469 0.27885,-0.14294 0.11951,-0.0914 0.15935,-0.17575 0.15935,-0.25777 0,-0.15934 -0.23902,-0.42882 -0.68659,-0.81781 L 5.753794,10.59789 C 5.421044,10.35653 5.210154,10.16438 5.121104,10.03316 5.041404,9.89725 4.996914,9.74259 4.996914,9.5645 c 0,-0.24136 0.0867,-0.57177 0.25307,-0.93029 0.16638,-0.39836 0.30697,-0.67487 0.42179,-0.79438 l 0.0398,0.0398 c 0.0328,0 0.0515,0 0.0586,0.0398 -0.13825,0.15934 -0.28119,0.39836 -0.42413,0.75454 -0.14763,0.35852 -0.21793,0.65846 -0.21793,0.93263 0,0.22261 0.0867,0.39367 0.26714,0.51552 -0.0164,-0.0961 -0.0234,-0.18981 -0.0234,-0.28119 0,-0.45695 0.16403,-1.00996 0.48507,-1.60516 l 0.29759,-0.5952 c 0.007,0 0.0187,-0.0797 0.0351,-0.15934 0.0117,-0.11951 0.0726,-0.27885 0.18278,-0.55536 l 0.25073,-0.47569 c 0.0797,-0.15934 0.11951,-0.31869 0.11951,-0.43585 l 0.23902,0.19918 c 0.1195,0.15934 0.31868,0.19918 0.55536,0.19918 0.27885,0 0.59519,-0.11951 0.99355,-0.39836 l 0.35853,-0.27885 c 0.0797,0.15934 0.15934,0.35852 0.23901,0.55536 0.11951,0.19918 0.19918,0.39836 0.31869,0.59519 0,0.19918 0.0398,0.31869 0.0797,0.47569 0.0797,0.11951 0.11951,0.23902 0.19918,0.35853 l 0.23902,0.35852 c 0.0797,0.15934 0.15934,0.35852 0.19918,0.5952 0.0797,0.27885 0.0797,0.57645 0.0797,0.93731 0,0.23902 0,0.50381 -0.0398,0.81078 -0.0797,-0.0586 -0.15934,-0.0867 -0.23901,-0.0867 -0.11951,0 -0.19918,0.0586 -0.27886,0.18746 -0.0797,0.12654 -0.1195,0.32104 -0.1195,0.5788 v 0.14762 c 0.0398,0.0516 0.0398,0.17575 0.0398,0.37259 -0.52021,0.71705 -1.19508,1.07323 -2.06912,1.07323 m 5.3263,-0.33509 c -0.0797,0.0633 -0.15934,0.11013 -0.27885,0.14294 -0.0797,0.0351 -0.23902,0.0984 -0.39836,0.19449 -0.19918,0.0961 -0.35853,0.20621 -0.51553,0.33275 l -0.67487,0.58348 c -0.0398,0.0187 -0.0398,0.0398 -0.1195,0.068 -0.0398,0.0328 -0.0797,0.0586 -0.11951,0.0867 -0.0398,0.0328 -0.11951,0.0586 -0.19918,0.075 q -0.11951,0.0351 -0.23902,0.0351 c -0.31868,0 -0.59519,-0.14997 -0.75454,-0.44991 v -0.009 l 0.0797,-0.44054 c 0,-0.157 0,-0.29759 0.0398,-0.42179 0,-0.12419 0.0398,-0.20152 0.0398,-0.23901 v -1.23492 c 0,-0.4171 0.0797,-0.62331 0.27885,-0.62331 0.0797,0 0.11951,0.0351 0.19918,0.1031 0.0398,0.16637 0.0797,0.314 0.15934,0.44054 0.11951,0.17106 0.27885,0.25776 0.5952,0.25776 0.0797,0 0.19918,-0.0351 0.31869,-0.1031 0.0797,-0.068 0.19918,-0.13826 0.23901,-0.21793 0.0797,-0.0797 0.15935,-0.15466 0.23902,-0.22261 0.0398,-0.068 0.11951,-0.10311 0.15934,-0.10311 0.0398,0 0.0398,0.005 0.0398,0.0164 0.0398,0.0445 0.0398,0.12419 0.0797,0.22964 l 0.0398,0.22964 c 0.0398,0.18746 0.1195,0.33041 0.19918,0.43351 0.1195,0.10779 0.19918,0.17106 0.27885,0.19918 0.0797,0.0281 0.15934,0.0726 0.23901,0.13591 0.0797,0.0633 0.15935,0.14997 0.15935,0.26714 -0.005,0.0984 -0.0445,0.17574 -0.0844,0.23433 M 7.661134,4.89227 c 0,0 -0.0398,-0.0398 -0.0398,-0.0797 0,-0.0398 0,-0.0398 0.0398,-0.0398 l 0.0797,0.0398 c 0.0398,0.0398 0.0797,0.0797 0.0797,0.11951 0,0.0398 -0.0398,0.0398 -0.0398,0.0398 h -0.0398 c -0.0398,0 -0.0398,-0.0398 -0.0797,-0.0797 m -0.39836,0.0398 c 0,-0.0398 0,-0.0797 0.0398,-0.11951 0.0797,0 0.1195,-0.0398 0.1195,-0.0398 0.0398,0 0.0398,0.0398 0.0398,0.0398 0,0.0398 -0.0398,0.0797 -0.11951,0.15934 h -0.0398 c -0.0398,0 -0.0398,0 -0.0398,-0.0398"
     style="fill:currentColor"
     id="path1"
     class="ColorScheme-Text" /></svg>
