<?xml version="1.0" encoding="UTF-8" standalone="no"?>
<svg
   viewBox="0 0 16 16"
   version="1.1"
   id="svg1"
   sodipodi:docname="folder-keys-symbolic16.svg"
   xml:space="preserve"
   inkscape:version="1.4.2 (ebf0e940d0, 2025-05-08)"
   xmlns:inkscape="http://www.inkscape.org/namespaces/inkscape"
   xmlns:sodipodi="http://sodipodi.sourceforge.net/DTD/sodipodi-0.dtd"
   xmlns="http://www.w3.org/2000/svg"
   xmlns:svg="http://www.w3.org/2000/svg"><sodipodi:namedview
     id="namedview1"
     pagecolor="#505050"
     bordercolor="#ffffff"
     borderopacity="1"
     inkscape:showpageshadow="0"
     inkscape:pageopacity="0"
     inkscape:pagecheckerboard="1"
     inkscape:deskcolor="#505050"
     inkscape:zoom="72.25"
     inkscape:cx="7.9930796"
     inkscape:cy="8"
     inkscape:window-width="2556"
     inkscape:window-height="1364"
     inkscape:window-x="0"
     inkscape:window-y="0"
     inkscape:window-maximized="1"
     inkscape:current-layer="svg1" /><defs
     id="defs3051"><style
       type="text/css"
       id="current-color-scheme">.ColorScheme-Text {color:#fcfcfc;}</style></defs><path
     d="m 8.0882164,8.9109091 c -0.1854545,0.18 -0.3981818,0.3381818 -0.6327273,0.4527273 V 12.909091 L 6.3645801,14 5.273671,12.909091 6.3645801,11.976364 5.5463982,11.272727 6.3645801,10.569091 5.273671,9.6363636 V 9.3636364 C 4.4554892,8.9654545 3.9100346,8.1418182 3.9100346,7.1818182 c 0,-1.3636364 1.0909091,-2.4545455 2.4545455,-2.4545455 0.021818,0 0.043636,0 0.06,0 -0.010909,0.038182 -0.038182,0.065454 -0.06,0.098182 -0.1472728,0.3327271 -0.229091,0.681818 -0.2563637,1.0363635 -0.3272727,0.1090909 -0.5618182,0.4145454 -0.5618182,0.7745454 0,0.4527273 0.3654546,0.8181819 0.8181819,0.8181819 0.016364,0 0.038182,0 0.054545,0 0.3490909,0.6818181 0.9490909,1.2 1.6690909,1.4563636 M 9.9100346,4.7272727 c 0,-0.3436363 -0.054545,-0.6818182 -0.1527273,-0.9927272 0.7309087,0.2072727 1.3581817,0.7472727 1.6418187,1.5163636 0.327272,0.9054545 0.08727,1.8709091 -0.534546,2.5254545 L 12.091853,11.098182 11.426398,12.5 10.030035,11.845454 10.728216,10.596364 9.7245801,10.214546 10.253671,9.2763636 8.9063982,8.7690909 8.8191255,8.5181818 C 7.9245801,8.42 7.1173073,7.8363636 6.7845801,6.9309091 6.3209437,5.66 6.9809437,4.2472727 8.2518528,3.7836364 8.3500346,3.7509091 8.453671,3.7290909 8.5463982,3.7072727 8.1863982,3.02 7.4718528,2.5454545 6.6373073,2.5454545 c -1.2054545,0 -2.1818181,0.9763637 -2.1818181,2.1818182 0,0.049091 0,0.092727 0.016364,0.1418182 -0.18,0.1472727 -0.3436364,0.3054545 -0.48,0.4854545 C 3.9427619,5.1527273 3.9100346,4.9454545 3.9100346,4.7272727 3.9100346,3.2218182 5.1318528,2 6.6373073,2 8.1427619,2 9.3645801,3.2218182 9.3645801,4.7272727 9.3645801,5.36 9.1463982,5.9327273 8.7863982,6.3963636 9.953671,6.2981818 9.9100346,4.7272727 9.9100346,4.7272727 m -1.74,1.1454546 c 0.032727,0.092727 0.081818,0.1690909 0.1363636,0.24 0.3054546,-0.36 0.4963637,-0.8181819 0.5127273,-1.3254546 -0.06,0.010909 -0.1090909,0.021818 -0.1636364,0.038182 C 8.2300346,4.9836364 8.0009437,5.4527273 8.1700346,5.8727273 Z"
     id="path1"
     style="fill:currentColor"
     class="ColorScheme-Text" /></svg>
