<?xml version="1.0" encoding="UTF-8" standalone="no"?>
<svg
   viewBox="0 0 16 16"
   version="1.1"
   id="svg1"
   sodipodi:docname="folder-health-symbolic16.svg"
   xml:space="preserve"
   inkscape:version="1.4.2 (ebf0e940d0, 2025-05-08)"
   xmlns:inkscape="http://www.inkscape.org/namespaces/inkscape"
   xmlns:sodipodi="http://sodipodi.sourceforge.net/DTD/sodipodi-0.dtd"
   xmlns="http://www.w3.org/2000/svg"
   xmlns:svg="http://www.w3.org/2000/svg"><sodipodi:namedview
     id="namedview1"
     pagecolor="#505050"
     bordercolor="#ffffff"
     borderopacity="1"
     inkscape:showpageshadow="0"
     inkscape:pageopacity="0"
     inkscape:pagecheckerboard="1"
     inkscape:deskcolor="#505050"
     inkscape:zoom="72.25"
     inkscape:cx="7.9930796"
     inkscape:cy="8"
     inkscape:window-width="2556"
     inkscape:window-height="1364"
     inkscape:window-x="0"
     inkscape:window-y="0"
     inkscape:window-maximized="1"
     inkscape:current-layer="svg1" /><defs
     id="defs3051"><style
       type="text/css"
       id="current-color-scheme">.ColorScheme-Text {color:#fcfcfc;}</style></defs><path
     d="m 12.2,5.6 c 0.336,0 0.6,0.258 0.6,0.6 a 0.6,0.6 0 0 1 -0.6,0.6 c -0.342,0 -0.6,-0.27 -0.6,-0.6 0,-0.342 0.258,-0.6 0.6,-0.6 M 2,2 V 7.4 C 2,9.176 3.314,10.7 5.084,10.946 5.456,12.752 7.052,14 8.9,14 a 3.9,3.9 0 0 0 3.9,-3.9 V 7.886 C 13.496,7.634 14,6.974 14,6.2 A 1.8,1.8 0 0 0 12.2,4.4 1.8,1.8 0 0 0 10.4,6.2 c 0,0.774 0.504,1.44 1.2,1.686 v 2.16 c 0,1.5 -1.2,2.7 -2.7,2.7 C 7.7,12.746 6.692,12.02 6.332,10.94 8,10.58 9.2,9.08 9.2,7.4 V 2 H 6.8 V 3.8 H 8 V 7.4 A 2.4,2.4 0 0 1 5.6,9.8 2.4,2.4 0 0 1 3.2,7.4 V 3.8 H 4.4 V 2 Z"
     id="path1-7"
     style="fill:currentColor"
     class="ColorScheme-Text" /></svg>
