<?xml version="1.0" encoding="UTF-8" standalone="no"?>
<svg
   viewBox="0 0 16 16"
   version="1.1"
   id="svg1"
   sodipodi:docname="folder-xbox-symbolic16.svg"
   xml:space="preserve"
   inkscape:version="1.4.2 (ebf0e940d0, 2025-05-08)"
   xmlns:inkscape="http://www.inkscape.org/namespaces/inkscape"
   xmlns:sodipodi="http://sodipodi.sourceforge.net/DTD/sodipodi-0.dtd"
   xmlns="http://www.w3.org/2000/svg"
   xmlns:svg="http://www.w3.org/2000/svg"><sodipodi:namedview
     id="namedview1"
     pagecolor="#505050"
     bordercolor="#ffffff"
     borderopacity="1"
     inkscape:showpageshadow="0"
     inkscape:pageopacity="0"
     inkscape:pagecheckerboard="1"
     inkscape:deskcolor="#505050"
     inkscape:zoom="72.25"
     inkscape:cx="7.9930796"
     inkscape:cy="8"
     inkscape:window-width="2556"
     inkscape:window-height="1364"
     inkscape:window-x="0"
     inkscape:window-y="0"
     inkscape:window-maximized="1"
     inkscape:current-layer="svg1" /><defs
     id="defs3051"><style
       type="text/css"
       id="current-color-scheme">.ColorScheme-Text {color:#fcfcfc;}</style></defs><path
     d="m 6.0529189,9.9740023 c -1.1981525,0 -1.6474597,1.3479217 -2.845612,1.9469977 -1.1981525,0 -2.0967667,-1.797229 0.299538,-6.8893758 H 3.656614 L 3.9202075,4.534391 c 0,0 1.6834042,-1.0004573 2.4801755,-0.2635936 H 9.5994501 C 10.396222,3.5339337 12.079626,4.534391 12.079626,4.534391 l 0.263593,0.4972332 h 0.14977 C 14.889293,10.123771 13.990678,11.921 12.792526,11.921 11.594374,11.321924 11.145066,9.9740023 9.9469143,9.9740023 H 6.0529189 M 7.9999166,4.7320861 A 0.59907621,0.59907621 0 0 0 7.4008404,5.3311623 0.59907621,0.59907621 0 0 0 7.9999166,5.9302385 0.59907621,0.59907621 0 0 0 8.5989927,5.3311623 0.59907621,0.59907621 0 0 0 7.9999166,4.7320861 Z"
     id="path1"
     style="fill:currentColor"
     class="ColorScheme-Text" /></svg>
