<?xml version="1.0" encoding="UTF-8" standalone="no"?>
<svg
   viewBox="0 0 16 16"
   version="1.1"
   id="svg1"
   sodipodi:docname="folder-hospital-symbolic16.svg"
   xml:space="preserve"
   inkscape:version="1.4.2 (ebf0e940d0, 2025-05-08)"
   xmlns:inkscape="http://www.inkscape.org/namespaces/inkscape"
   xmlns:sodipodi="http://sodipodi.sourceforge.net/DTD/sodipodi-0.dtd"
   xmlns="http://www.w3.org/2000/svg"
   xmlns:svg="http://www.w3.org/2000/svg"><sodipodi:namedview
     id="namedview1"
     pagecolor="#505050"
     bordercolor="#ffffff"
     borderopacity="1"
     inkscape:showpageshadow="0"
     inkscape:pageopacity="0"
     inkscape:pagecheckerboard="1"
     inkscape:deskcolor="#505050"
     inkscape:zoom="72.25"
     inkscape:cx="7.9930796"
     inkscape:cy="8"
     inkscape:window-width="2556"
     inkscape:window-height="1364"
     inkscape:window-x="0"
     inkscape:window-y="0"
     inkscape:window-maximized="1"
     inkscape:current-layer="svg1" /><defs
     id="defs3051"><style
       type="text/css"
       id="current-color-scheme">.ColorScheme-Text {color:#fcfcfc;}</style></defs><path
     d="M 2,14 V 5 A 0.6,0.6 0 0 1 2.6,4.4 H 5 V 2 h 6 v 2.4 h 2.4 A 0.6,0.6 0 0 1 14,5 v 9 H 9.2 V 11 H 6.8 v 3 H 2 M 6.2,3.2 V 6.8 H 7.4 V 5.6 H 8.6 V 6.8 H 9.8 V 3.2 H 8.6 V 4.4 H 7.4 V 3.2 H 6.2 m -3,9.6 H 5.6 V 11 H 3.2 v 1.8 m 0,-3 H 5.6 V 8 H 3.2 v 1.8 m 7.2,3 h 2.4 V 11 h -2.4 v 1.8 m 0,-3 h 2.4 V 8 h -2.4 v 1.8 m -3.6,0 H 9.2 V 8 H 6.8 Z"
     id="path1"
     style="fill:currentColor"
     class="ColorScheme-Text" /></svg>
