<?xml version="1.0" encoding="UTF-8" standalone="no"?>
<svg
   viewBox="0 0 16 16"
   version="1.1"
   id="svg1"
   sodipodi:docname="folder-toy-symbolic16.svg"
   xml:space="preserve"
   inkscape:version="1.4.2 (ebf0e940d0, 2025-05-08)"
   xmlns:inkscape="http://www.inkscape.org/namespaces/inkscape"
   xmlns:sodipodi="http://sodipodi.sourceforge.net/DTD/sodipodi-0.dtd"
   xmlns="http://www.w3.org/2000/svg"
   xmlns:svg="http://www.w3.org/2000/svg"><sodipodi:namedview
     id="namedview1"
     pagecolor="#505050"
     bordercolor="#ffffff"
     borderopacity="1"
     inkscape:showpageshadow="0"
     inkscape:pageopacity="0"
     inkscape:pagecheckerboard="1"
     inkscape:deskcolor="#505050"
     inkscape:zoom="72.25"
     inkscape:cx="7.9930796"
     inkscape:cy="8"
     inkscape:window-width="2556"
     inkscape:window-height="1364"
     inkscape:window-x="0"
     inkscape:window-y="0"
     inkscape:window-maximized="1"
     inkscape:current-layer="svg1" /><defs
     id="defs3051"><style
       type="text/css"
       id="current-color-scheme">.ColorScheme-Text {color:#fcfcfc;}</style></defs><path
     d="m 10.5,12.753333 c -0.5533333,0 -1,-0.56 -1,-1.253333 0,-0.686667 0.4466667,-1.246667 1,-1.246667 0.553333,0 1,0.56 1,1.246667 0,0.693333 -0.446667,1.253333 -1,1.253333 M 8,7.5 C 7.1733333,7.5 6.5,6.94 6.5,6.2533333 6.5,5.56 7.1733333,5 8,5 8.8266667,5 9.5,5.56 9.5,6.2533333 9.5,6.94 8.8266667,7.5 8,7.5 m -2.5,5.253333 c -0.5533333,0 -1,-0.56 -1,-1.253333 0,-0.686667 0.4466667,-1.246667 1,-1.246667 0.5533333,0 1,0.56 1,1.246667 0,0.693333 -0.4466667,1.253333 -1,1.253333 M 8,5.5 C 8.2733333,5.5 8.5,5.7266667 8.5,6 8.5,6.2733333 8.2733333,6.5 8,6.5 7.7266667,6.5 7.5,6.2733333 7.5,6 7.5,5.7266667 7.7266667,5.5 8,5.5 M 12.5,8 C 12.286667,8 12.08,8.0466667 11.893333,8.1333333 11.573333,7.7266667 11.14,7.38 10.62,7.1133333 c 0.38,-0.5333333 0.606667,-1.18 0.606667,-1.88 0,-0.013333 0,-0.026667 0,-0.04 C 11.953333,5.04 12.5,4.3933333 12.5,3.6133333 12.5,2.7266667 11.773333,2 10.886667,2 10.426667,2 10,2.1933333 9.72,2.5 9.22,2.1866667 8.6333333,2 8,2 7.3666667,2 6.7733333,2.1866667 6.28,2.5 6,2.1933333 5.5733333,2 5.1133333,2 4.2266667,2 3.5,2.7266667 3.5,3.6133333 c 0,0.7733334 0.5466667,1.42 1.2666667,1.58 0,0.013333 0,0.026667 0,0.04 0,0.7 0.2333333,1.3533334 0.6066666,1.88 C 4.86,7.38 4.4266667,7.7266667 4.1066667,8.1333333 3.92,8.0466667 3.7133333,8 3.5,8 2.6666667,8 2,8.6666667 2,9.5 2,10.333333 2.6666667,11 3.5,11 c 0.013333,0 0.026667,0 0.04,0 -0.026667,0.16 -0.04,0.333333 -0.04,0.5 0,1.38 0.8933333,2.5 2,2.5 0.6733333,0 1.2666667,-0.42 1.6333333,-1.06 C 7.4133333,12.98 7.7,13 8,13 8.3,13 8.5866667,12.98 8.8666667,12.94 9.2333333,13.58 9.8266667,14 10.5,14 c 1.106667,0 2,-1.12 2,-2.5 0,-0.166667 -0.01333,-0.34 -0.04,-0.5 0.01333,0 0.02667,0 0.04,0 C 13.333333,11 14,10.333333 14,9.5 14,8.6666667 13.333333,8 12.5,8"
     id="path1"
     style="fill:currentColor"
     class="ColorScheme-Text" /></svg>
