<?xml version="1.0" encoding="UTF-8" standalone="no"?>
<svg
   viewBox="0 0 16 16"
   version="1.1"
   id="svg1"
   sodipodi:docname="folder-lab-symbolic16.svg"
   xml:space="preserve"
   inkscape:version="1.4.2 (ebf0e940d0, 2025-05-08)"
   xmlns:inkscape="http://www.inkscape.org/namespaces/inkscape"
   xmlns:sodipodi="http://sodipodi.sourceforge.net/DTD/sodipodi-0.dtd"
   xmlns="http://www.w3.org/2000/svg"
   xmlns:svg="http://www.w3.org/2000/svg"><sodipodi:namedview
     id="namedview1"
     pagecolor="#505050"
     bordercolor="#ffffff"
     borderopacity="1"
     inkscape:showpageshadow="0"
     inkscape:pageopacity="0"
     inkscape:pagecheckerboard="1"
     inkscape:deskcolor="#505050"
     inkscape:zoom="72.25"
     inkscape:cx="7.9930796"
     inkscape:cy="8"
     inkscape:window-width="2556"
     inkscape:window-height="1364"
     inkscape:window-x="0"
     inkscape:window-y="0"
     inkscape:window-maximized="1"
     inkscape:current-layer="svg1" /><defs
     id="defs3051"><style
       type="text/css"
       id="current-color-scheme">.ColorScheme-Text {color:#fcfcfc;}</style></defs><path
     d="M 3.3333333,12.683333 A 0.66666667,0.66666667 0 0 0 4,13.35 h 8 a 0.66666667,0.66666667 0 0 0 0.666667,-0.666667 c 0,-0.14 -0.04667,-0.273333 -0.12,-0.38 L 8.6666667,5.5833333 v -2.9 H 7.3333333 v 2.9 l -3.88,6.7199997 c -0.073333,0.106667 -0.12,0.24 -0.12,0.38 m 0.6666667,2 a 2,2 0 0 1 -2,-2 c 0,-0.4 0.12,-0.773333 0.3333333,-1.086666 L 6,5.2233333 V 4.0166667 A 0.66666667,0.66666667 0 0 1 5.3333333,3.35 V 2.6833333 A 1.3333333,1.3333333 0 0 1 6.6666667,1.35 H 9.3333333 A 1.3333333,1.3333333 0 0 1 10.666667,2.6833333 V 3.35 A 0.66666667,0.66666667 0 0 1 10,4.0166667 v 1.2066666 l 3.666667,6.3733337 C 13.88,11.91 14,12.283333 14,12.683333 a 2,2 0 0 1 -2,2 H 4 m 4.6666667,-4 L 9.56,9.79 10.846667,12.016667 H 5.1533333 l 1.7733334,-3.0733337 1.74,1.7399997 M 8.3333333,8.0166667 A 0.33333333,0.33333333 0 0 1 8.6666667,8.35 0.33333333,0.33333333 0 0 1 8.3333333,8.6833333 0.33333333,0.33333333 0 0 1 8,8.35 0.33333333,0.33333333 0 0 1 8.3333333,8.0166667 Z"
     id="path1"
     style="fill:currentColor"
     class="ColorScheme-Text" /></svg>
