<?xml version="1.0" encoding="UTF-8" standalone="no"?>
<svg
   viewBox="0 0 16 16"
   version="1.1"
   id="svg1"
   sodipodi:docname="folder-raspberrypi-symbolic16.svg"
   xml:space="preserve"
   inkscape:version="1.4.2 (ebf0e940d0, 2025-05-08)"
   xmlns:inkscape="http://www.inkscape.org/namespaces/inkscape"
   xmlns:sodipodi="http://sodipodi.sourceforge.net/DTD/sodipodi-0.dtd"
   xmlns="http://www.w3.org/2000/svg"
   xmlns:svg="http://www.w3.org/2000/svg"><sodipodi:namedview
     id="namedview1"
     pagecolor="#505050"
     bordercolor="#ffffff"
     borderopacity="1"
     inkscape:showpageshadow="0"
     inkscape:pageopacity="0"
     inkscape:pagecheckerboard="1"
     inkscape:deskcolor="#505050"
     inkscape:zoom="72.25"
     inkscape:cx="7.9930796"
     inkscape:cy="8"
     inkscape:window-width="2556"
     inkscape:window-height="1364"
     inkscape:window-x="0"
     inkscape:window-y="0"
     inkscape:window-maximized="1"
     inkscape:current-layer="svg1" /><defs
     id="defs3051"><style
       type="text/css"
       id="current-color-scheme">.ColorScheme-Text {color:#fcfcfc;}</style></defs><path
     d="m 11.865161,7.4507622 -0.0844,-0.1522929 c 0.002,-1.0871592 -0.494363,-1.5299785 -1.073085,-1.8673728 0.175721,-0.046898 0.356133,-0.086696 0.405341,-0.3092756 0.302245,-0.077296 0.363162,-0.2202397 0.393621,-0.3701927 0.0797,-0.053897 0.342074,-0.2038405 0.313965,-0.4592285 0.147603,-0.1030952 0.229609,-0.236649 0.187431,-0.4240802 0.159333,-0.1757318 0.201501,-0.320995 0.133554,-0.4545488 0.189781,-0.2413287 0.105435,-0.3655029 0.0234,-0.4896871 C 12.31025,2.6593259 12.183686,2.378169 11.785425,2.4250269 11.626102,2.1883879 11.281678,2.2422754 11.227791,2.2422754 11.166894,2.1672789 11.089558,2.101692 10.845879,2.1321505 10.688896,1.9892272 10.513175,2.015006 10.330423,2.0829528 10.114863,1.9119108 9.9719398,2.0501544 9.8102774,2.101652 9.5501995,2.0172559 9.4892824,2.1344504 9.3604184,2.1813482 9.0769216,2.1204511 8.9902257,2.251645 8.8519921,2.3898685 l -0.1593225,-0.002 C 8.2638996,2.6409168 8.0506796,3.1563727 7.9757131,3.4211303 7.9007166,3.1563727 7.6875165,2.6409168 7.2587465,2.3878686 l -0.1593225,0.002 C 6.9635303,2.251635 6.8768444,2.1204311 6.5909977,2.1813482 6.4621337,2.1344504 6.4035565,2.0173359 6.1411387,2.101652 6.0333637,2.0688535 5.9349583,1.9985668 5.8201537,2.0009067 5.7592565,2.0029066 5.6936296,2.0243056 5.620993,2.0829028 5.4382415,2.0126061 5.2625197,1.9892072 5.1055371,2.1321005 4.8618684,2.0993021 4.784542,2.164899 4.7236249,2.2422254 c -0.053898,0 -0.3983114,-0.053898 -0.557634,0.1827515 -0.3983114,-0.046898 -0.5248255,0.234299 -0.3819021,0.4967168 -0.081996,0.1265241 -0.1663523,0.2506983 0.023399,0.492027 -0.067897,0.1335538 -0.025799,0.278817 0.1335437,0.4545488 -0.042198,0.1874312 0.039798,0.320985 0.1874413,0.4240802 -0.028099,0.2577279 0.2366489,0.4076809 0.3139653,0.4592285 0.030499,0.149953 0.093696,0.2905265 0.3936216,0.3701927 C 4.8852577,5.3443506 5.065679,5.3841887 5.2414008,5.4310465 4.6626778,5.7684408 4.165961,6.2112601 4.1683109,7.2984193 l -0.084396,0.1522929 c -0.665409,0.4029912 -1.2628711,1.7033605 -0.3280147,2.7577118 0.060897,0.330354 0.1640123,0.567003 0.255388,0.829421 0.1358937,1.059031 1.0262321,1.553408 1.2605312,1.611975 0.3444239,0.262418 0.7099268,0.510776 1.2066437,0.684158 0.4662582,0.482657 0.9723446,0.665409 1.4831207,0.665409 h 0.023399 c 0.5084263,0 1.0145127,-0.182752 1.4831208,-0.665409 0.4943669,-0.173382 0.8622194,-0.42174 1.2066434,-0.684158 0.234299,-0.0586 1.124637,-0.555284 1.260531,-1.611975 0.09139,-0.262418 0.194471,-0.499067 0.255388,-0.829421 C 13.127862,9.1517228 12.52805,7.8537034 11.864981,7.4507122 M 11.26518,7.263271 C 11.230081,7.7014105 8.983096,5.7379822 9.369688,5.6723752 10.424039,5.4966534 11.300327,6.1222342 11.26518,7.263271 M 8.7980047,2.6873946 C 8.8167038,2.78579 8.8402027,2.8490571 8.8636016,2.8678062 8.9877858,2.7319125 9.090871,2.593679 9.2525434,2.4624651 c 0,0.077296 -0.037498,0.1616725 0.058597,0.2202397 0.084396,-0.1171445 0.2038405,-0.2225796 0.3584733,-0.3139553 -0.074997,0.128864 -0.0117,0.171032 0.028099,0.2249295 0.1171445,-0.1030952 0.2319591,-0.2061904 0.4475093,-0.2881966 -0.0609,0.072597 -0.142924,0.1452733 -0.0539,0.2319592 0.121835,-0.077296 0.243669,-0.1546328 0.534205,-0.2085303 -0.0656,0.072597 -0.19915,0.1476132 -0.117154,0.2202498 0.152303,-0.060897 0.320995,-0.1030952 0.508436,-0.1265241 -0.089,0.074997 -0.164012,0.1476031 -0.0914,0.2061803 0.164013,-0.051498 0.388932,-0.1194944 0.609181,-0.060897 l -0.140583,0.1429233 c -0.0164,0.018799 0.325675,0.016399 0.552944,0.018799 -0.082,0.1171446 -0.166352,0.2272694 -0.21555,0.4264201 0.0211,0.021099 0.133544,0.009 0.238979,0 -0.107775,0.2319592 -0.295216,0.2881866 -0.337384,0.3889419 0.0656,0.051498 0.156972,0.037498 0.257728,0.002 -0.0773,0.1616624 -0.241329,0.2741272 -0.370193,0.405341 0.0328,0.023399 0.089,0.037498 0.224929,0.021099 -0.119494,0.1288639 -0.262417,0.2460085 -0.433459,0.3514436 0.0305,0.035098 0.133553,0.035098 0.231959,0.035098 -0.154643,0.1546328 -0.353793,0.2319592 -0.538894,0.3327045 0.0914,0.065597 0.159322,0.049198 0.231959,0.046898 -0.131204,0.110125 -0.356134,0.1687023 -0.564664,0.2319594 0.0398,0.060897 0.0797,0.079696 0.164013,0.098395 -0.22024,0.1241742 -0.534206,0.065597 -0.623241,0.128864 0.0211,0.060897 0.082,0.1030951 0.154642,0.1358936 C 10.013988,5.3558 9.0439832,5.3206017 8.8588918,4.5779163 9.2173651,4.1702354 9.8804341,3.6969475 11.019131,3.1088549 10.133482,3.4087609 9.3321697,3.8117521 8.6644209,4.3646963 7.870148,3.9991934 8.4137226,3.0619971 8.7979747,2.6871146 M 7.9732332,5.3745291 c 0.5576339,-0.007 1.2488217,0.4147107 1.2464818,0.8130221 -0.002,0.3514536 -0.4850074,0.6349503 -1.2417921,0.6302706 -0.7403854,-0.009 -1.2394521,-0.3584833 -1.2371022,-0.6982174 0.002,-0.278817 0.6044918,-0.7614745 1.2324125,-0.7450753 M 5.1546048,5.0722833 C 5.2390008,5.055884 5.278789,5.0371849 5.3186171,4.9738879 5.1100868,4.9082909 4.8851673,4.8497136 4.7539535,4.7419387 c 0.072597,0.002 0.1358936,0.016399 0.2319591,-0.046898 C 4.7984714,4.5942956 4.6016606,4.5146293 4.4470278,4.3623364 c 0.096096,-0.002 0.1991507,-0.002 0.2319492,-0.035098 C 4.507945,4.221813 4.3650216,4.1046584 4.2455272,3.9757945 c 0.1358937,0.016399 0.192121,0.002 0.2249295,-0.021099 C 4.3415927,3.8234916 4.1775804,3.7110268 4.100264,3.5493544 c 0.1007453,0.035198 0.192121,0.046898 0.257728,-0.002 C 4.313494,3.448959 4.1260328,3.3903718 4.0205977,3.1584126 c 0.1054351,0.009 0.2178998,0.021099 0.2389889,0 -0.051498,-0.1991507 -0.1335538,-0.3116154 -0.21556,-0.42876 0.2249295,-0.002 0.5670035,0.002 0.5529442,-0.018799 L 4.4563974,2.5679302 c 0.2202397,-0.060897 0.4451692,0.009 0.6091815,0.060897 0.072597,-0.058597 -0.002,-0.1312038 -0.091396,-0.2061803 0.1874412,0.025799 0.3561434,0.067897 0.5084363,0.1265241 0.081996,-0.072597 -0.053898,-0.1476131 -0.1171546,-0.2202498 0.2881966,0.053897 0.4123708,0.1312139 0.5342051,0.2085303 0.088996,-0.084396 0.005,-0.1569827 -0.053897,-0.2319592 0.21321,0.081996 0.3256748,0.1874413 0.4451692,0.2905365 0.039798,-0.053897 0.1030952,-0.093696 0.028099,-0.2249295 0.1546328,0.088996 0.2717873,0.1944709 0.3584733,0.3139653 0.096096,-0.060897 0.056197,-0.1429233 0.058597,-0.2202497 C 6.8977837,2.5960288 6.998529,2.7342623 7.1250531,2.870156 7.1508521,2.851457 7.1719511,2.79046 7.1906501,2.6897444 7.5725619,3.0622871 8.1184864,3.9994833 7.3312331,4.372016 6.6611344,3.8190718 5.8598318,3.4184205 4.9765231,3.1161746 6.11287,3.7019272 6.7759391,4.177555 7.1367622,4.5805462 6.9516709,5.3256214 5.9816662,5.3584199 5.6278727,5.3373309 5.7004693,5.3022325 5.7614264,5.2647343 5.7825154,5.2014372 5.6888198,5.1405401 5.3748345,5.1964375 5.1545848,5.0725732 m 1.305049,0.5693535 C 6.8485757,5.7075236 4.5993007,7.668622 4.5641523,7.2328224 4.5313539,6.0894358 5.407633,5.463855 6.4596338,5.6419267 M 4.100244,10.013963 C 3.5519796,9.5734731 3.3785977,8.2871732 4.3907704,7.7084502 5.0022919,7.5467877 4.5969508,10.234203 4.100244,10.013963 m 2.1297806,2.303162 c -0.3069357,0.187442 -1.0566907,0.110125 -1.5885559,-0.653689 -0.3584732,-0.64199 -0.3139553,-1.29334 -0.060897,-1.483121 0.3772224,-0.2296195 0.9582852,0.0797 1.4058043,0.599802 0.3912818,0.466258 0.5693434,1.29334 0.2436687,1.537008 M 5.6255528,9.5149058 C 5.0655789,9.147053 4.9624837,8.3012325 5.3982834,7.6381635 5.834073,6.9774343 6.6564746,6.7361056 7.2164485,7.1039584 7.7764224,7.4718112 7.8795175,8.3176317 7.4437179,8.9807008 7.0079182,9.6414199 6.1855266,9.8804088 5.6255528,9.5149058 m 2.3476804,4.1119582 c -0.6771284,0.0281 -1.3425374,-0.555294 -1.3331678,-0.756785 -0.009,-0.297566 0.8270814,-0.529525 1.370656,-0.515465 0.5482644,-0.0234 1.2839701,0.175731 1.2839701,0.442829 0.009,0.255388 -0.665419,0.838791 -1.3214583,0.829421 M 9.369658,10.695771 v 0.007 c 0,0.691187 -0.6162013,1.258191 -1.3636164,1.258191 -0.7474251,0 -1.3636263,-0.567004 -1.3636263,-1.258191 v -0.0141 c 0,-0.6911777 0.6162012,-1.2581912 1.3636263,-1.2581912 0.7474151,0 1.3636164,0.5670135 1.3636164,1.2581912 z M 8.5144679,8.9127539 C 8.0786682,8.2520248 8.1817634,7.4038644 8.7417373,7.0360116 9.304061,6.6681587 10.124113,6.9094875 10.559902,7.5702166 10.995702,8.2309358 10.892607,9.0791062 10.332633,9.446959 9.7726592,9.8124619 8.9502675,9.5711332 8.5144679,8.9127539 m 2.7623901,2.7881601 c -0.583402,0.810682 -1.3753349,0.841141 -1.6682112,0.616211 -0.3069357,-0.290526 -0.072597,-1.192584 0.3491037,-1.686961 0.4850075,-0.548254 1.0004635,-0.9020481 1.3589455,-0.623231 0.241329,0.241329 0.384253,1.150406 -0.0398,1.693981 M 11.736127,9.9811541 C 11.239411,10.201404 10.83408,7.5116394 11.4456,7.6756517 c 1.012173,0.578713 0.834102,1.8650229 0.290527,2.3055024"
     style="fill:currentColor"
     id="path1-7"
     class="ColorScheme-Text" /></svg>
