<?xml version="1.0" encoding="UTF-8" standalone="no"?>
<svg
   viewBox="0 0 16 16"
   version="1.1"
   id="svg1"
   sodipodi:docname="folder-food-symbolic16.svg"
   xml:space="preserve"
   inkscape:version="1.4.2 (ebf0e940d0, 2025-05-08)"
   xmlns:inkscape="http://www.inkscape.org/namespaces/inkscape"
   xmlns:sodipodi="http://sodipodi.sourceforge.net/DTD/sodipodi-0.dtd"
   xmlns="http://www.w3.org/2000/svg"
   xmlns:svg="http://www.w3.org/2000/svg"><sodipodi:namedview
     id="namedview1"
     pagecolor="#505050"
     bordercolor="#ffffff"
     borderopacity="1"
     inkscape:showpageshadow="0"
     inkscape:pageopacity="0"
     inkscape:pagecheckerboard="1"
     inkscape:deskcolor="#505050"
     inkscape:zoom="72.25"
     inkscape:cx="7.9930796"
     inkscape:cy="8"
     inkscape:window-width="2556"
     inkscape:window-height="1364"
     inkscape:window-x="0"
     inkscape:window-y="0"
     inkscape:window-maximized="1"
     inkscape:current-layer="svg1" /><defs
     id="defs3051"><style
       type="text/css"
       id="current-color-scheme">.ColorScheme-Text {color:#fcfcfc;}</style></defs><path
     d="m 2.6,2.6047361 a 0.6,0.6 0 0 0 -0.6,0.6 v 2.3999999 0.9 c 0,1.014 0.618,1.878 1.5,2.2320002 v 3.7679998 a 0.9,0.9 0 0 0 0.9,0.900001 0.9,0.9 0 0 0 0.9,-0.900001 V 8.7367362 C 6.182,8.382736 6.8,7.518736 6.8,6.504736 v -0.9 -2.3999999 a 0.6,0.6 0 0 0 -0.6,-0.6 0.6,0.6 0 0 0 -0.6,0.6 V 5.604736 a 0.3,0.3 0 0 1 -0.3,0.3 0.3,0.3 0 0 1 -0.3,-0.3 V 3.2047361 a 0.6,0.6 0 0 0 -0.6,-0.6 0.6,0.6 0 0 0 -0.6,0.6 V 5.604736 a 0.3,0.3 0 0 1 -0.3,0.3 0.3,0.3 0 0 1 -0.3,-0.3 V 3.2047361 a 0.6,0.6 0 0 0 -0.6,-0.6 m 10.128,0 c -0.078,0 -0.156,0.054 -0.228,0.096 L 10.4,3.954736 v 2.25 H 8 v 1.2 h 0.6 l 0.6,6.000001 h 3.6 L 13.4,7.404736 H 14 v -1.2 h -2.4 v -1.596 l 1.5,-0.9 c 0.3,-0.1679999 0.378,-0.5039999 0.204,-0.8039999 -0.126,-0.216 -0.348,-0.33 -0.576,-0.3 z"
     id="path1"
     style="fill:currentColor"
     class="ColorScheme-Text" /></svg>
