<?xml version="1.0" encoding="UTF-8" standalone="no"?>
<svg
   viewBox="0 0 22 22"
   version="1.1"
   id="svg1"
   sodipodi:docname="media-playback-paused.svg"
   width="22"
   height="22"
   inkscape:version="1.4.2 (unknown)"
   xmlns:inkscape="http://www.inkscape.org/namespaces/inkscape"
   xmlns:sodipodi="http://sodipodi.sourceforge.net/DTD/sodipodi-0.dtd"
   xmlns="http://www.w3.org/2000/svg"
   xmlns:svg="http://www.w3.org/2000/svg">
  <sodipodi:namedview
     id="namedview1"
     pagecolor="#ffffff"
     bordercolor="#000000"
     borderopacity="0.25"
     inkscape:showpageshadow="2"
     inkscape:pageopacity="0.0"
     inkscape:pagecheckerboard="0"
     inkscape:deskcolor="#d1d1d1"
     inkscape:zoom="11.984375"
     inkscape:cx="9.3872229"
     inkscape:cy="17.063885"
     inkscape:window-width="1920"
     inkscape:window-height="998"
     inkscape:window-x="0"
     inkscape:window-y="0"
     inkscape:window-maximized="1"
     inkscape:current-layer="svg1" />
  <defs
     id="defs1">
    <style
       type="text/css"
       id="style1">.ColorScheme-Text { color:#d8dee9; }
</style>
  </defs>
  <path
     d="M 11.916933,13.935977 V 8.3752779 c 0.006,-1.4188674 1.840157,-1.4188674 1.846134,0 v 5.5606991 c -0.006,1.418867 -1.840157,1.418867 -1.846134,0 z M 13.39384,8.3752779 Z"
     id="path8-6-7-3"
     style="fill:currentColor;fill-opacity:1;stroke-width:0.198701"
     sodipodi:nodetypes="cccccccccc"
     class="ColorScheme-Text " />
  <path
     d="M 8.415401,13.928662 V 8.3756002 c 0,-1.4239586 1.846272,-1.4239586 1.846272,0 v 5.5530618 c 0,1.423959 -1.846272,1.423959 -1.846272,0 z M 9.892339,8.3756002 Z"
     id="path8-6-6-67"
     style="fill:currentColor;fill-opacity:1;stroke-width:0.198574"
     sodipodi:nodetypes="sssssccccc"
     class="ColorScheme-Text " />
  <path
     d="M 16.65687,5.343159 C 15.145877,3.832126 13.136727,3 11,3 8.863273,3 6.854117,3.832126 5.34327,5.343159 3.8321399,6.854198 3,8.863179 3,11 3,13.136821 3.8321399,15.145801 5.34327,16.65684 6.854117,18.167769 8.863273,19 11,19 c 2.136873,0 4.145877,-0.832231 5.65687,-2.34316 1.51089,-1.511039 2.343127,-3.520019 2.343127,-5.65684 0,-2.136821 -0.832237,-4.145896 -2.343127,-5.656841 z M 15.743333,16.20977 C 14.27032,17.459241 13.082325,18.049913 11,18.034661 8.789356,18.018443 7.96936,17.60312 6.256667,16.209339 4.8650601,14.817838 3.9653339,12.967969 3.9653339,11 3.9653339,9.03193 4.8936101,6.939718 6.256667,5.79 7.785856,4.446272 9.060453,3.980027 11,3.965339 12.967918,3.950389 14.285054,4.57832 15.743333,5.790144 17.134917,7.181735 18.034661,9.03193 18.034661,11 c 0,1.967969 -0.899744,3.818267 -2.291328,5.20977 z"
     id="path2-36-912-5"
     style="fill:currentColor;fill-opacity:1;stroke-width:0.0249998"
     sodipodi:nodetypes="cscscscsccscscscsc"
     class="ColorScheme-Text " />
</svg>
