<?xml version="1.0" encoding="UTF-8" standalone="no"?>
<svg
   viewBox="0 0 32 32"
   version="1.1"
   id="svg1"
   sodipodi:docname="media-playback-playing.svg"
   width="32"
   height="32"
   inkscape:version="1.4.2 (unknown)"
   xmlns:inkscape="http://www.inkscape.org/namespaces/inkscape"
   xmlns:sodipodi="http://sodipodi.sourceforge.net/DTD/sodipodi-0.dtd"
   xmlns="http://www.w3.org/2000/svg"
   xmlns:svg="http://www.w3.org/2000/svg">
  <sodipodi:namedview
     id="namedview1"
     pagecolor="#ffffff"
     bordercolor="#000000"
     borderopacity="0.25"
     inkscape:showpageshadow="2"
     inkscape:pageopacity="0.0"
     inkscape:pagecheckerboard="0"
     inkscape:deskcolor="#d1d1d1"
     inkscape:zoom="11.984375"
     inkscape:cx="15.895698"
     inkscape:cy="25.324641"
     inkscape:window-width="1920"
     inkscape:window-height="994"
     inkscape:window-x="0"
     inkscape:window-y="0"
     inkscape:window-maximized="1"
     inkscape:current-layer="svg1" />
  <defs
     id="defs1">
    <style
       type="text/css"
       id="style1">.ColorScheme-Text { color:#d8dee9; }
</style>
  </defs>
  <path
     d="M 24.485297,7.514746 C 22.218817,5.248193 19.2051,4 16,4 12.7949,4 9.78117,5.248193 7.5149,7.514746 5.24821,9.781298 4,12.794773 4,16 4,19.205227 5.24821,22.218695 7.5149,24.485253 9.78117,26.751662 12.7949,28 16,28 c 3.2053,0 6.218817,-1.248338 8.485297,-3.514747 2.26634,-2.266558 3.5147,-5.280026 3.5147,-8.485253 0,-3.205227 -1.24836,-6.218849 -3.5147,-8.485254 z M 23.115,23.81465 C 20.905477,25.688857 19.123498,26.574873 16,26.552 12.684023,26.52772 11.454045,25.904686 8.885,23.814 6.79759,21.726745 5.448,18.951956 5.448,16 5.448,13.047903 6.840416,9.909571 8.885,8.185 11.178791,6.169405 13.090681,5.470038 16,5.448 c 2.951865,-0.02236 4.927587,0.91947 7.115,2.737205 2.08737,2.087403 3.437,4.862698 3.437,7.814795 0,2.951956 -1.34963,5.727395 -3.437,7.81465 z"
     id="path2-36-912-3"
     style="fill:currentColor;fill-opacity:1;stroke-width:0.0374999"
     sodipodi:nodetypes="cscscscsccscscscsc"
     class="ColorScheme-Text " />
  <path
     d="m 21.600262,15.999822 c 3.3e-4,0.19226 -0.076,0.376171 -0.21206,0.512 l -5.93206,5.338437 c -0.58054,0.439139 -2,0.59774 -2.00052,-0.89554 V 16.348 v -4 c 0,-0.55855 -0.12313,-1.63231 0.371,-2.12836 v 0 c 0.49547,-0.49552 1.29886,-0.49552 1.79433,0 l 5.76725,5.267182 c 0.13608,0.135829 0.21239,0.320731 0.21206,0.513 z"
     id="path4-3-3-9-1"
     style="fill:currentColor;fill-opacity:1;stroke-width:0.36249"
     sodipodi:nodetypes="ccccccssccc"
     class="ColorScheme-Text " />
</svg>
