<?xml version="1.0" encoding="UTF-8" standalone="no"?>
<svg
   version="1.1"
   viewBox="0 0 48 48"
   id="svg28"
   sodipodi:docname="passwordsafe.svg"
   inkscape:version="1.3.2 (091e20ef0f, 2023-11-25)"
   xmlns:inkscape="http://www.inkscape.org/namespaces/inkscape"
   xmlns:sodipodi="http://sodipodi.sourceforge.net/DTD/sodipodi-0.dtd"
   xmlns:xlink="http://www.w3.org/1999/xlink"
   xmlns="http://www.w3.org/2000/svg"
   xmlns:svg="http://www.w3.org/2000/svg">
  <sodipodi:namedview
     id="namedview30"
     pagecolor="#ffffff"
     bordercolor="#666666"
     borderopacity="1.0"
     inkscape:showpageshadow="2"
     inkscape:pageopacity="0.0"
     inkscape:pagecheckerboard="0"
     inkscape:deskcolor="#d1d1d1"
     showgrid="false"
     inkscape:zoom="4.9166667"
     inkscape:cx="30.915254"
     inkscape:cy="73.220338"
     inkscape:window-width="1920"
     inkscape:window-height="998"
     inkscape:window-x="0"
     inkscape:window-y="0"
     inkscape:window-maximized="1"
     inkscape:current-layer="svg28">
    <inkscape:grid
       type="xygrid"
       id="grid1420"
       originx="0"
       originy="0"
       spacingy="1"
       spacingx="1"
       units="px"
       visible="false" />
  </sodipodi:namedview>
  <defs
     id="defs12">
    <linearGradient
       id="b"
       x1="15.425"
       x2="31.702721"
       y1="13.05"
       y2="30.814844"
       gradientTransform="matrix(1.0041687,0,0,0.94967539,386.73655,504.5339)"
       gradientUnits="userSpaceOnUse">
      <stop
         offset="0"
         id="stop2" />
      <stop
         stop-opacity="0"
         offset="1"
         id="stop4" />
    </linearGradient>
    <linearGradient
       id="a"
       x1="30.207"
       x2="14"
       y1="43"
       y2="10"
       gradientTransform="matrix(-1,0,0,1,432.30321,499.798)"
       gradientUnits="userSpaceOnUse">
      <stop
         stop-color="#cebee5"
         offset="0"
         id="stop7" />
      <stop
         stop-color="#f1f1f1"
         offset="1"
         id="stop9" />
    </linearGradient>
    <linearGradient
       inkscape:collect="always"
       xlink:href="#linearGradient1689"
       id="linearGradient1691"
       x1="-1492.5676"
       y1="188.07291"
       x2="-1441.9921"
       y2="137.49736"
       gradientUnits="userSpaceOnUse"
       gradientTransform="matrix(0.55565273,0,0,0.54387946,791.82891,-64.005103)" />
    <linearGradient
       inkscape:collect="always"
       id="linearGradient1689">
      <stop
         style="stop-color:#9aedfe;stop-opacity:1;"
         offset="0"
         id="stop1685" />
      <stop
         style="stop-color:#9bfdd4;stop-opacity:1;"
         offset="1"
         id="stop1687" />
    </linearGradient>
  </defs>
  <rect
     style="fill:url(#linearGradient1691);fill-opacity:1;stroke:none;stroke-width:1.09947;stroke-linecap:round;stroke-linejoin:round;stroke-miterlimit:4;stroke-dasharray:none;stroke-opacity:1"
     id="rect1533-9"
     width="42"
     height="42"
     x="-45"
     y="3"
     rx="21"
     ry="21"
     transform="scale(-1,1)" />
  <path
     style="opacity:0.2;stroke-width:0.545455"
     d="m 8.750731,23.917086 a 8.7274304,8.72721 0 0 0 -0.02346,0.628361 8.7274304,8.72721 0 0 0 8.727431,8.727212 8.7274304,8.72721 0 0 0 8.083994,-5.454507 h 5.007361 V 26.727246 H 25.538925 A 8.7274304,8.72721 0 0 1 17.45514,32.181759 8.7274304,8.72721 0 0 1 8.751163,23.917087 Z m 27.249213,2.81016 v 1.090906 h 3.272782 v -1.090906 z m -5.454647,3.272703 v 1.09091 h 5.454647 v -1.09091 z"
     id="path1-7" />
  <path
     style="fill:#4bae4f;stroke-width:0.545455"
     d="m 17.454481,15.272791 a 8.72721,8.72721 0 0 0 -8.727207,8.727213 8.72721,8.72721 0 0 0 8.727207,8.727205 8.72721,8.72721 0 0 0 8.0838,-5.454507 h 5.007239 v 3.272707 h 5.454502 v -3.272707 h 3.272704 v -6.54541 H 25.540459 a 8.72721,8.72721 0 0 0 -8.085868,-5.454501 z"
     id="path2-5" />
  <circle
     style="opacity:0.2;stroke-width:0.545455"
     cx="17.454552"
     cy="24.545385"
     r="3.2727287"
     id="circle2-3" />
  <circle
     style="fill:#f9f9f9;stroke-width:0.545455"
     cx="17.454552"
     cy="23.999937"
     r="3.2727287"
     id="circle3-5" />
  <path
     style="opacity:0.2;fill:#ffffff;stroke-width:0.545455"
     d="m 17.454546,15.272657 a 8.72721,8.72721 0 0 0 -8.703833,8.098721 8.72721,8.72721 0 0 1 -0.01171,-0.234375 8.72721,8.72721 0 0 0 -0.01171,0.317467 8.72721,8.72721 0 0 0 0.02344,0.462366 8.72721,8.72721 0 0 1 8.703834,-8.098723 8.72721,8.72721 0 0 1 8.08594,5.454546 H 39.272735 V 20.727207 H 25.540494 a 8.72721,8.72721 0 0 0 -8.085941,-5.45455 z"
     id="path3-6" />
</svg>
