<?xml version="1.0" encoding="UTF-8" standalone="no"?>
<svg
   xmlns:dc="http://purl.org/dc/elements/1.1/"
   xmlns:cc="http://creativecommons.org/ns#"
   xmlns:rdf="http://www.w3.org/1999/02/22-rdf-syntax-ns#"
   xmlns:svg="http://www.w3.org/2000/svg"
   xmlns="http://www.w3.org/2000/svg"
   xmlns:sodipodi="http://sodipodi.sourceforge.net/DTD/sodipodi-0.dtd"
   xmlns:inkscape="http://www.inkscape.org/namespaces/inkscape"
   width="48"
   height="48"
   viewBox="0 0 12.699752 12.699752"
   version="1.1"
   id="svg3"
   sodipodi:docname="extensions.svg"
   inkscape:version="1.0.1 (3bc2e813f5, 2020-09-07)">
  <style
     id="style833"></style>
  <metadata
     id="metadata8">
    <rdf:RDF>
      <cc:Work
         rdf:about="">
        <dc:format>image/svg+xml</dc:format>
        <dc:type
           rdf:resource="http://purl.org/dc/dcmitype/StillImage" />
      </cc:Work>
    </rdf:RDF>
  </metadata>
  <defs
     id="defs3">
    <linearGradient
       id="paint1_linear_8_859"
       x1="89.400002"
       y1="120"
       x2="89.400002"
       y2="56"
       gradientUnits="userSpaceOnUse"
       gradientTransform="scale(0.26457817)">
      <stop
         stop-color="#02AA93"
         id="stop4-7" />
      <stop
         offset="1"
         stop-color="#67FF80"
         id="stop5-5" />
    </linearGradient>
  </defs>
  <sodipodi:namedview
     id="namedview3"
     pagecolor="#ffffff"
     bordercolor="#999999"
     borderopacity="1"
     inkscape:showpageshadow="2"
     inkscape:pageopacity="0"
     inkscape:pagecheckerboard="0"
     inkscape:deskcolor="#d1d1d1"
     inkscape:zoom="10.653797"
     inkscape:cx="29.029509"
     inkscape:cy="29.228567"
     inkscape:window-width="1920"
     inkscape:window-height="994"
     inkscape:window-x="0"
     inkscape:window-y="0"
     inkscape:window-maximized="1"
     inkscape:current-layer="svg3"
     inkscape:document-rotation="0"
     showgrid="true">
    <inkscape:grid
       type="xygrid"
       id="grid858" />
  </sodipodi:namedview>
  <circle
     cx="6.3498759"
     cy="6.3498759"
     r="5.5561414"
     style="stroke-width:0.777735;paint-order:stroke fill markers;fill:#008080"
     id="circle1" />
  <path
     fill-rule="evenodd"
     d="M 2.8521672,2.037511 A 5.555877,5.555877 0 0 0 0.79443497,6.350312 5.555877,5.555877 0 0 0 2.8521672,10.661467 Z"
     opacity="0.2"
     style="stroke-width:0.205773;paint-order:fill markers stroke"
     id="path2" />
  <path
     d="m 5.8881399,2.6457817 c -0.5214662,0 -0.9441741,0.2926476 -0.9441741,0.6536605 0.015112,0.1346751 0.1003086,0.3047549 0.1452705,0.363142 0.2178828,0.2905156 0.2178828,0.4720873 0.1634178,0.5810352 H 3.4913966 c -0.3218898,0 -0.5810368,0.2591476 -0.5810368,0.5810355 v 1.4707397 c 0.1089547,0.054466 0.2905148,0.054466 0.5810368,-0.1634165 0.058372,-0.044939 0.2284492,-0.1300884 0.363147,-0.14527 0.3610063,0 0.653653,0.4227334 0.653653,0.9441783 0,0.5214691 -0.2926467,0.9441777 -0.6536531,0.9441777 C 3.743746,7.873241 3.5752932,7.7741 3.4913966,7.7298217 3.2008746,7.51194 3.0193106,7.51194 2.9103598,7.5664056 v 1.9065295 c 0,0.3218876 0.259147,0.5810359 0.5810368,0.5810359 H 5.833781 C 5.8882748,9.9450154 5.8882748,9.7634532 5.6703663,9.4729351 5.6253816,9.4145432 5.5402736,9.2444608 5.525099,9.1097927 c 0,-0.3610109 0.4227314,-0.653659 0.9441769,-0.653659 0.5214423,0 0.9441759,0.2926481 0.9441759,0.653659 C 7.4110687,9.2205863 7.312484,9.3890363 7.2681773,9.4729351 7.0503005,9.7634532 7.0503005,9.9450218 7.1047655,10.053971 H 8.139736 c 0.3218818,0 0.5810388,-0.2591483 0.5810388,-0.5810359 V 7.8569233 c 0.1089517,-0.054467 0.2905178,-0.054467 0.5810337,0.1634167 0.0839,0.044277 0.2523614,0.1433761 0.363138,0.1452434 0.3610145,0 0.6536655,-0.4227333 0.6536655,-0.9441781 0,-0.5214692 -0.292651,-0.9441774 -0.6536655,-0.9441774 C 9.5302755,6.2923324 9.3601924,6.3775362 9.3018085,6.4224986 9.0112926,6.6403783 8.8297156,6.6403783 8.7207748,6.5859127 V 4.8246549 c 0,-0.3218879 -0.259157,-0.5810355 -0.5810388,-0.5810355 H 6.5237278 C 6.4692172,4.1346651 6.4692172,3.9530999 6.6871436,3.6625843 6.7314176,3.5786713 6.8305206,3.4102174 6.832417,3.2994422 c 0,-0.3610129 -0.4227336,-0.6536605 -0.944178,-0.6536605 z"
     fill="#f9f9f9"
     stroke-width="0.68218"
     id="path3"
     style="fill:#ffffff;fill-opacity:1" />
  <path
     fill-rule="evenodd"
     clip-rule="evenodd"
     d="m 9.4571648,5.3345423 c 0.059236,0.031508 0.1049671,0.081197 0.1371235,0.1309134 0.062712,0.1027377 0.057548,0.2286779 -0.00328,0.3397034 l -0.118527,0.1988485 c -0.062672,0.1060535 -0.1795335,0.1723412 -0.2997768,0.1723412 -0.059256,0 -0.1253168,-0.016593 -0.1794867,-0.049708 -0.044006,-0.028176 -0.094822,-0.038117 -0.1490376,-0.038117 -0.1676246,0 -0.3082016,0.1375374 -0.3132812,0.3015937 0,0.1905644 -0.1558022,0.339704 -0.3505541,0.339704 H 7.9500041 c -0.1964477,0 -0.352246,-0.1491396 -0.352246,-0.339704 C 7.5944781,6.226062 7.4538113,6.0885244 7.2861549,6.0885244 c -0.055852,0 -0.106685,0.00992 -0.1490256,0.038117 -0.054222,0.033165 -0.1219339,0.049708 -0.1795117,0.049708 -0.121934,0 -0.2387774,-0.066278 -0.3014387,-0.1723412 L 6.5391944,5.805159 C 6.4765519,5.6974454 6.4731858,5.5681934 6.5359178,5.4654556 6.5630142,5.4157461 6.6138412,5.3660275 6.6713942,5.3345423 6.7187658,5.3113361 6.7493076,5.2732273 6.7780811,5.2284882 6.8627663,5.0859765 6.811979,4.8987255 6.6680093,4.8142145 6.5005842,4.7197593 6.4463893,4.509308 6.5429188,4.3452558 L 6.6563775,4.1497153 C 6.7546055,3.9856647 6.9645939,3.9276672 7.1339462,4.0237798 7.2812747,4.1033238 7.472637,4.0502928 7.559005,3.9094389 7.586111,3.8630409 7.601363,3.8133269 7.597917,3.7636142 7.594637,3.6989862 7.613178,3.6376749 7.645269,3.5879623 7.707921,3.4852224 7.821391,3.4189381 7.94502,3.4156243 h 0.2387764 c 0.125314,0 0.2387776,0.069595 0.301439,0.172338 0.030472,0.049707 0.050807,0.1110256 0.045734,0.1756519 -0.00328,0.049708 0.011866,0.099426 0.038912,0.1458247 0.086374,0.1408537 0.2777569,0.1938801 0.4267388,0.1143408 0.167675,-0.096112 0.3793708,-0.038115 0.4758994,0.1259356 l 0.1134217,0.1955405 c 0.098238,0.1640522 0.044006,0.3745036 -0.1253218,0.4689587 -0.1439538,0.084512 -0.1947609,0.271762 -0.1083809,0.4142737 0.027086,0.044742 0.057558,0.082854 0.1050179,0.1060541 z M 7.5858453,5.0743789 c 0,0.2601634 0.2150756,0.4673057 0.4809527,0.4673057 0.2658748,0 0.475866,-0.2071422 0.475866,-0.4673055 0,-0.2601644 -0.2099912,-0.4689593 -0.475866,-0.4689593 -0.265877,0 -0.4809527,0.2087949 -0.4809527,0.4689591 z"
     fill="url(#paint1_linear_8_859)"
     id="path2-3"
     style="fill:#00ffff;stroke-width:0.264578;fill-opacity:1" />
</svg>
