<?xml version="1.0" encoding="UTF-8" standalone="no"?>
<svg
   width="48"
   height="48"
   version="1.1"
   id="svg1"
   sodipodi:docname="ableton.svg"
   inkscape:version="1.3.2 (091e20ef0f, 2023-11-25)"
   xmlns:inkscape="http://www.inkscape.org/namespaces/inkscape"
   xmlns:sodipodi="http://sodipodi.sourceforge.net/DTD/sodipodi-0.dtd"
   xmlns="http://www.w3.org/2000/svg"
   xmlns:svg="http://www.w3.org/2000/svg">
  <defs
     id="defs1" />
  <sodipodi:namedview
     id="namedview1"
     pagecolor="#ffffff"
     bordercolor="#999999"
     borderopacity="1"
     inkscape:showpageshadow="2"
     inkscape:pageopacity="0"
     inkscape:pagecheckerboard="0"
     inkscape:deskcolor="#d1d1d1"
     inkscape:zoom="6.2265625"
     inkscape:cx="31.156838"
     inkscape:cy="44.08532"
     inkscape:window-width="1920"
     inkscape:window-height="994"
     inkscape:window-x="0"
     inkscape:window-y="0"
     inkscape:window-maximized="1"
     inkscape:current-layer="svg1" />
  <g
     id="g1"
     transform="matrix(0.77777778,0,0,0.77777778,-0.88888896,-0.88888896)">
    <circle
       cx="32"
       cy="32"
       r="27"
       id="circle1"
       style="fill:#bc5fd3" />
    <path
       d="m 12.39,41.164 c -0.15,-0.04 -0.159,-0.552 -0.159,-9.158 0,-8.23 0.014,-9.123 0.144,-9.172 0.187,-0.072 1.98,-0.072 2.166,0 0.13,0.05 0.144,0.942 0.144,9.168 v 9.113 l -0.204,0.054 c -0.232,0.063 -1.848,0.058 -2.09,-0.005 z m 5.271,-0.036 c -0.15,-0.087 -0.159,-0.616 -0.159,-9.077 0,-4.942 0.025,-9.05 0.055,-9.129 0.046,-0.12 0.231,-0.144 1.097,-0.144 0.573,0 1.12,0.043 1.217,0.095 0.172,0.092 0.176,0.289 0.176,9.13 0,8.84 -0.004,9.038 -0.176,9.13 -0.226,0.12 -2,0.117 -2.21,-0.005 z m 5.316,0.005 -0.205,-0.083 0.002,-9.043 c 0.003,-8.815 0.007,-9.045 0.177,-9.135 0.186,-0.1 1.983,-0.13 2.223,-0.038 0.13,0.05 0.144,0.942 0.144,9.168 v 9.113 l -0.205,0.054 c -0.313,0.084 -1.904,0.057 -2.136,-0.036 z m 5.317,-0.005 c -0.15,-0.087 -0.159,-0.62 -0.159,-9.165 v -9.072 l 0.205,-0.055 c 0.385,-0.104 2.116,-0.063 2.23,0.052 0.084,0.083 0.11,2.234 0.11,9.13 0,8.825 -0.004,9.023 -0.176,9.115 -0.226,0.12 -2,0.117 -2.21,-0.005 z m 5.215,0.017 c -0.176,-0.112 -0.175,-2.27 0.002,-2.383 0.067,-0.043 4.191,-0.068 9.164,-0.056 l 9.043,0.022 0.025,1.192 c 0.025,1.175 0.022,1.194 -0.182,1.249 -0.325,0.087 -17.913,0.064 -18.052,-0.024 z m -0.063,-5.399 c -0.026,-0.065 -0.035,-0.607 -0.02,-1.204 l 0.025,-1.085 h 18.267 l 0.025,1.204 0.026,1.204 h -9.14 c -7.443,0 -9.146,-0.022 -9.183,-0.119 z m -0.058,-6.29 c -0.015,-0.625 -0.014,-1.177 0.003,-1.227 0.02,-0.057 3.282,-0.089 9.204,-0.089 h 9.174 l -0.026,1.204 -0.025,1.205 -9.15,0.023 -9.152,0.023 z m 0.128,-4.21 c -0.14,-0.09 -0.185,-2.247 -0.049,-2.383 0.052,-0.052 3.61,-0.076 9.168,-0.062 l 9.083,0.023 0.025,1.193 c 0.025,1.174 0.022,1.193 -0.182,1.248 -0.315,0.085 -17.911,0.066 -18.045,-0.02 z"
       style="fill:#ffffff;fill-opacity:1;stroke-width:0.0908778"
       id="path1" />
  </g>
</svg>
