<?xml version="1.0" encoding="UTF-8" standalone="no"?>
<svg
   width="48"
   height="48"
   version="1.1"
   viewBox="0 0 12.69975 12.69975"
   id="svg10"
   sodipodi:docname="accessories-media-converter.svg"
   inkscape:version="1.3.2 (091e20ef0f, 2023-11-25)"
   xmlns:inkscape="http://www.inkscape.org/namespaces/inkscape"
   xmlns:sodipodi="http://sodipodi.sourceforge.net/DTD/sodipodi-0.dtd"
   xmlns="http://www.w3.org/2000/svg"
   xmlns:svg="http://www.w3.org/2000/svg">
  <defs
     id="defs14" />
  <sodipodi:namedview
     id="namedview12"
     pagecolor="#ffffff"
     bordercolor="#666666"
     borderopacity="1.0"
     inkscape:showpageshadow="2"
     inkscape:pageopacity="0.0"
     inkscape:pagecheckerboard="0"
     inkscape:deskcolor="#d1d1d1"
     showgrid="false"
     inkscape:zoom="3.6875"
     inkscape:cx="32"
     inkscape:cy="32"
     inkscape:window-width="1920"
     inkscape:window-height="994"
     inkscape:window-x="0"
     inkscape:window-y="0"
     inkscape:window-maximized="1"
     inkscape:current-layer="svg10" />
  <rect
     transform="matrix(0,-1,-1,0,0,0)"
     x="-11.906013"
     y="-11.906015"
     width="11.112281"
     height="11.112281"
     rx="5.5562186"
     ry="5.5562186"
     fill="#4c627f"
     id="rect2"
     style="stroke-width:0.77779" />
  <rect
     transform="matrix(0,-1,-1,0,0,0)"
     x="-10.871563"
     y="-10.877778"
     width="9.055028"
     height="9.055028"
     rx="4.527514"
     ry="4.527514"
     id="rect4"
     style="fill:#303a49;fill-opacity:1;opacity:1" />
  <path
     d="m 6.3499515,3.4395342 c -0.5378639,0 -1.0381175,0.1548916 -1.4703616,0.4092676 L 6.1832292,5.1523965 6.5318746,4.8037599 5.743627,4.0155406 c 0.094684,-0.024785 0.1891074,-0.047394 0.2880161,-0.060637 0.025483,-0.0038 0.050137,-0.012263 0.07573,-0.015193 0.081473,-0.00833 0.1587728,-0.015193 0.2425453,-0.015193 1.3394884,0 2.4253808,1.0858513 2.4253808,2.4252916 0,0.11788 -0.014059,0.2355007 -0.030338,0.3486355 -0.00928,0.066081 -0.015401,0.1328104 -0.030347,0.1970553 -0.032517,0.1390162 -0.080879,0.2656277 -0.1364239,0.3941098 -0.00616,0.014952 -0.00788,0.030755 -0.015289,0.045478 -0.019841,0.044451 -0.05263,0.079214 -0.075761,0.1212581 -0.00122,0.00393 0.00112,0.011113 0,0.015193 L 8.8509529,7.8201747 C 9.1053381,7.3878998 9.2602344,6.8876982 9.2602344,6.3498656 c 0,-1.6073379 -1.3030601,-2.91035 -2.9104521,-2.91035 z M 3.8488002,4.8795758 C 3.594409,5.3118501 3.4395156,5.8120512 3.4395156,6.3498844 c 0,1.6073369 1.3030611,2.9103499 2.9104602,2.9103499 0.5378498,0 1.0380994,-0.1548923 1.4703476,-0.4092686 L 7.4565238,8.4871727 6.5166921,7.5625545 6.183203,7.896032 6.9563266,8.6842507 c -0.094683,0.024785 -0.1891277,0.047406 -0.2880222,0.060635 -0.025473,0.0038 -0.050137,0.012263 -0.075751,0.015193 -0.081473,0.00833 -0.1587717,0.015193 -0.2425361,0.015193 -0.083662,0 -0.1609587,-0.00675 -0.2425351,-0.015193 C 6.026009,8.7517506 5.9439239,8.7459663 5.8649482,8.7297576 4.7597635,8.5036089 3.9246411,7.5219618 3.9246411,6.3499643 c 0,-0.1204148 0.013766,-0.2329202 0.030347,-0.3486359 0.00928,-0.066087 0.015401,-0.1328104 0.030367,-0.1970552 0.032497,-0.139016 0.080899,-0.2656276 0.1364157,-0.3941096 0.00606,-0.014962 0.00798,-0.03073 0.015288,-0.045479 0.019751,-0.04311 0.052742,-0.079906 0.075761,-0.1212642 v -0.015193 z"
     id="path1"
     style="color:#363636;fill:#00ccff;stroke-width:0.485073" />
  <circle
     cx="9.9216795"
     cy="10.186257"
     r="1.8520468"
     style="stroke-width:0.538541;paint-order:stroke fill markers;fill:#00aad4"
     id="circle1" />
  <path
     fill="#ffffff"
     d="m 9.356216,10.339211 c 0,0.327978 0.00595,0.442143 -0.204646,0.442143 -0.2100318,0 -0.3769795,0.06837 -0.3769795,0.260115 0,0.191727 0.1981834,0.284352 0.3215096,0.284352 0.1233262,0 0.368363,-0.08613 0.368363,-0.346275 V 9.8039003 l 1.0517739,-0.24396 v 0.8999047 c 0,0 0.01236,0.108251 -0.126559,0.108251 -0.13894,0 -0.4459118,-0.03987 -0.4459118,0.253656 0,0.294045 0.2972758,0.275189 0.3435888,0.275189 0.04633,0 0.346287,-0.04901 0.346287,-0.398514 V 9.0461713 L 9.3502923,9.2939007 Z"
     id="path3"
     style="stroke-width:0.538541" />
</svg>
