<?xml version="1.0" encoding="UTF-8" standalone="no"?>
<svg
   width="48"
   height="48"
   viewBox="0 0 12.699752 12.699752"
   version="1.1"
   id="svg7"
   sodipodi:docname="addressbook.svg"
   inkscape:version="1.3.2 (091e20ef0f, 2023-11-25)"
   xmlns:inkscape="http://www.inkscape.org/namespaces/inkscape"
   xmlns:sodipodi="http://sodipodi.sourceforge.net/DTD/sodipodi-0.dtd"
   xmlns="http://www.w3.org/2000/svg"
   xmlns:svg="http://www.w3.org/2000/svg">
  <defs
     id="defs7" />
  <sodipodi:namedview
     id="namedview7"
     pagecolor="#ffffff"
     bordercolor="#999999"
     borderopacity="1"
     inkscape:showpageshadow="2"
     inkscape:pageopacity="0"
     inkscape:pagecheckerboard="0"
     inkscape:deskcolor="#d1d1d1"
     inkscape:zoom="5.953125"
     inkscape:cx="30.068241"
     inkscape:cy="31.91601"
     inkscape:window-width="1920"
     inkscape:window-height="994"
     inkscape:window-x="0"
     inkscape:window-y="0"
     inkscape:window-maximized="1"
     inkscape:current-layer="svg7" />
  <path
     d="M 10.272393,2.5314591 9.6963732,3.1076356 c 1.8484478,1.8484975 1.8484478,4.8452325 0,6.6935243 L 10.274039,10.378571 A 5.5564572,5.5559874 0 0 0 10.451022,2.7078103 5.5564572,5.5559874 0 0 0 10.272393,2.5314591 Z m 1.610961,3.4311309 0.0037,0.04774 c -0.0012,-0.015845 -0.0023,-0.031896 -0.0037,-0.04774 z m 0.0214,0.5502485 -0.0016,0.054943 c 4.11e-4,-0.018314 0.0014,-0.036628 0.0016,-0.054943 z m -0.03334,0.5502485 a 4.630381,4.6299895 0 0 1 -0.007,0.056589 z m -0.09055,0.5597143 -0.0064,0.028603 z m -0.145085,0.5414001 -0.0056,0.017285 z m -0.737157,1.4795389 -0.0177,0.024693 z m -0.334828,0.4292517 c -0.01296,0.01523 -0.02593,0.03066 -0.0391,0.04568 0.01338,-0.01502 0.02614,-0.03066 0.0391,-0.04568 z"
     style="stroke-width:0.777871;paint-order:stroke fill markers;fill:#9955ff;fill-opacity:1"
     id="path1" />
  <path
     fill="#ffce3d"
     d="M 10.272187,2.5318707 9.696579,3.1078413 c 1.328611,1.3282926 1.702334,3.2502527 1.120964,4.9125218 0.01482,-0.042184 0.03025,-0.083751 0.04383,-0.1265531 l 0.784695,0.2483732 a 5.5564572,5.5559874 0 0 0 0.221024,-1.042262 5.5564572,5.5559874 0 0 0 0.03787,-0.5807036 v -0.00638 A 5.5564572,5.5559874 0 0 0 10.272187,2.5318707 Z m 0.545356,5.4884924 A 4.7141394,4.7137408 0 0 1 9.696579,9.8011599 l 0.00453,0.00453 a 4.706525,4.7061271 0 0 0 1.116434,-1.7853268 z m 1.066016,-2.0577731 0.0037,0.04774 c -0.0012,-0.015845 -0.0023,-0.031896 -0.0037,-0.04774 z m -0.247571,2.2016114 -0.0056,0.017285 z m -0.737156,1.4795389 -0.0177,0.024693 z m -0.334828,0.4290457 c -0.01297,0.01523 -0.02593,0.03087 -0.0391,0.04589 0.01338,-0.01502 0.02614,-0.03066 0.0391,-0.04589 z"
     style="stroke-width:0.777871;paint-order:stroke fill markers"
     id="path2" />
  <path
     fill="#ff584c"
     d="M 10.274451,2.5296071 9.6963732,3.1078413 A 4.7094061,4.709008 0 0 1 10.921263,5.2296112 L 11.716248,5.0166317 A 5.5564572,5.5559874 0 0 0 10.274451,2.5296071 Z m 0.700525,2.9238898 0.0053,0.022841 z m 0.04342,0.2277955 0.0058,0.034982 z m 0.02861,0.2010444 c 0.0033,0.028192 0.0076,0.056177 0.01029,0.084369 -0.0029,-0.028192 -0.0068,-0.056177 -0.01029,-0.084369 z m 0.83635,0.080253 0.0037,0.047946 c -0.0012,-0.015845 -0.0021,-0.031896 -0.0037,-0.04774 z m -0.815771,0.1242895 c 0.0031,0.041155 0.0066,0.082311 0.0088,0.1234663 -0.0021,-0.041155 -0.0058,-0.082311 -0.0088,-0.1234663 z m 0.01111,0.197752 c 0.0021,0.054325 0.0041,0.1084446 0.0041,0.1627698 0,-0.054119 -0.0021,-0.1084446 -0.0041,-0.1627698 z m 0.0033,0.2070119 z m 0.822767,0.021195 -0.0016,0.055148 c 4.11e-4,-0.01852 0.0014,-0.036628 0.0016,-0.055148 z m -0.83141,0.2275897 z m -0.01996,0.2343804 a 4.7394522,4.7390514 0 0 1 -0.01852,0.1526867 c 0.0074,-0.050621 0.01296,-0.101654 0.01852,-0.1526867 z m 0.818033,0.088484 a 4.630381,4.6299895 0 0 1 -0.0068,0.056589 l 0.0068,-0.056795 z M 11.02128,7.2114525 c -0.007,0.043419 -0.014,0.087044 -0.02223,0.130257 0.0082,-0.043213 0.01523,-0.086838 0.02223,-0.130257 z m 0.759588,0.4115546 -0.0064,0.028603 z m -0.145085,0.5414001 -0.0056,0.017285 z m -0.248806,0.6313248 -0.02079,0.043213 a 5.5564572,5.5559874 0 0 0 0.02079,-0.043213 z m -0.25642,0.4872806 c -0.0093,0.015845 -0.01934,0.030867 -0.02881,0.046506 a 5.5564572,5.5559874 0 0 0 0.02881,-0.046506 z m -1.042145,0.072639 -0.03416,0.043831 c 0.01153,-0.014404 0.02264,-0.02922 0.03416,-0.043831 z M 9.9645237,9.5079272 c -0.024078,0.028397 -0.04795,0.057 -0.072646,0.08478 0.024695,-0.02778 0.048567,-0.056177 0.072646,-0.08478 z m 0.9343083,0.1358131 -0.0179,0.025105 0.0177,-0.025105 z m -1.0804225,0.029426 z m 1.0079825,0.069141 -0.03416,0.045888 a 5.5564572,5.5559874 0 0 0 0.03416,-0.045888 z m -0.262594,0.3306847 c -0.01296,0.01523 -0.02572,0.03087 -0.0391,0.04589 0.01338,-0.01502 0.02614,-0.03066 0.0391,-0.04589 z m -0.0957,0.109062 -0.01996,0.02161 a 5.5564572,5.5559874 0 0 0 0.01996,-0.02161 z"
     style="stroke-width:0.777871;paint-order:stroke fill markers"
     id="path3" />
  <path
     d="m 10.278627,2.5252916 a 5.5567215,5.5562517 0 0 0 -7.8582804,0 5.5567215,5.5562517 0 0 0 0,7.8576164 5.5567215,5.5562517 0 0 0 7.8582804,0 L 9.696821,9.8011506 a 4.7330137,4.7326136 0 0 0 0,-6.6933236 z m 1.604635,3.4376586 0.0039,0.047443 a 5.5567215,5.5562517 0 0 0 -0.0039,-0.047443 z m 0.02178,0.5498698 -0.0016,0.054442 a 5.5567215,5.5562517 0 0 0 0.0016,-0.054442 z m -0.03344,0.5498698 -0.0078,0.056776 a 5.5567215,5.5562517 0 0 0 0.0078,-0.056776 z m -0.09101,0.5599806 -0.0062,0.028777 a 5.5567215,5.5562517 0 0 0 0.0062,-0.028777 z m -0.144674,0.5413145 -0.0054,0.017111 a 5.5567215,5.5562517 0 0 0 0.0054,-0.017111 z m -0.73737,1.4800597 -0.01711,0.02411 a 5.5567215,5.5562517 0 0 0 0.01711,-0.02411 z m -0.334461,0.4293194 -0.03889,0.04511 a 5.5567215,5.5562517 0 0 0 0.03889,-0.04511 z"
     style="stroke-width:0.777784;paint-order:stroke fill markers;fill:#00b2b2;fill-opacity:1"
     id="path4" />
  <g
     fill="#ffffff"
     id="g7"
     transform="matrix(0.77781657,0,0,0.7777508,-0.2358969,-0.13150507)">
    <path
       d="M 9.742,9.67 A 1.587,1.587 0 0 1 8.466,10.315 1.587,1.587 0 0 1 7.192,9.671 3.704,2.381 0 0 0 4.762,11.903 h 7.41 A 3.704,2.381 0 0 0 9.742,9.669 Z"
       style="paint-order:stroke markers fill"
       transform="translate(0,0.001)"
       id="path5" />
    <g
       style="paint-order:stroke markers fill"
       transform="translate(0.264,-278.48)"
       id="g6">
      <circle
         cx="8.2019997"
         cy="284.82999"
         r="1.587"
         id="circle5" />
      <path
         d="m 6.615,284.83 a 1.587,2.646 0 0 0 1.587,2.645 1.587,2.646 0 0 0 1.588,-2.646 z"
         id="path6" />
    </g>
  </g>
</svg>
