<?xml version="1.0" encoding="UTF-8" standalone="no"?>
<svg
   width="48"
   height="48"
   version="1.1"
   viewBox="0 0 12.69975 12.69975"
   id="svg62"
   sodipodi:docname="akregator.svg"
   inkscape:version="1.2.2 (b0a8486541, 2022-12-01)"
   xmlns:inkscape="http://www.inkscape.org/namespaces/inkscape"
   xmlns:sodipodi="http://sodipodi.sourceforge.net/DTD/sodipodi-0.dtd"
   xmlns:xlink="http://www.w3.org/1999/xlink"
   xmlns="http://www.w3.org/2000/svg"
   xmlns:svg="http://www.w3.org/2000/svg"
   xmlns:rdf="http://www.w3.org/1999/02/22-rdf-syntax-ns#"
   xmlns:cc="http://creativecommons.org/ns#"
   xmlns:dc="http://purl.org/dc/elements/1.1/">
  <sodipodi:namedview
     id="namedview64"
     pagecolor="#ffffff"
     bordercolor="#666666"
     borderopacity="1.0"
     inkscape:showpageshadow="2"
     inkscape:pageopacity="0.0"
     inkscape:pagecheckerboard="0"
     inkscape:deskcolor="#d1d1d1"
     showgrid="true"
     inkscape:zoom="14.75"
     inkscape:cx="26.542373"
     inkscape:cy="25.118644"
     inkscape:window-width="1920"
     inkscape:window-height="1002"
     inkscape:window-x="0"
     inkscape:window-y="0"
     inkscape:window-maximized="1"
     inkscape:current-layer="svg62">
    <inkscape:grid
       type="xygrid"
       id="grid293"
       originx="0"
       originy="0" />
  </sodipodi:namedview>
  <defs
     id="defs18">
    <filter
       id="filter1272-6"
       x="-0.094272248"
       y="-0.09046597"
       width="1.1885445"
       height="1.1809319"
       color-interpolation-filters="sRGB">
      <feGaussianBlur
         stdDeviation="0.39771105"
         id="feGaussianBlur2" />
    </filter>
    <filter
       id="filter1066-1"
       x="-0.063922505"
       y="-0.056531058"
       width="1.127845"
       height="1.1130621"
       color-interpolation-filters="sRGB">
      <feGaussianBlur
         stdDeviation="0.22705935"
         id="feGaussianBlur5" />
    </filter>
    <linearGradient
       id="linearGradient5352"
       x1="12.189"
       x2="13.579"
       y1="11.042"
       y2="12.031"
       gradientTransform="translate(-0.56907,-0.14784)"
       gradientUnits="userSpaceOnUse">
      <stop
         stop-color="#fee2a2"
         offset="0"
         id="stop8" />
      <stop
         stop-color="#f0a602"
         offset="1"
         id="stop10" />
    </linearGradient>
    <linearGradient
       id="linearGradient6573"
       x1="121.63"
       x2="121.63"
       y1="9.125"
       y2="6.4109001"
       gradientTransform="matrix(1.9521,0,0,1.9521,-237.5,-7.2503)"
       gradientUnits="userSpaceOnUse">
      <stop
         stop-color="#fe650b"
         offset="0"
         id="stop13" />
      <stop
         stop-color="#fe8e00"
         offset="1"
         id="stop15" />
    </linearGradient>
    <linearGradient
       inkscape:collect="always"
       xlink:href="#linearGradient1319"
       id="linearGradient1321"
       x1="15.875478"
       y1="28.434834"
       x2="6.6488433"
       y2="21.565681"
       gradientUnits="userSpaceOnUse"
       gradientTransform="matrix(0.76822014,0,0,0.85662373,-2.6666011,-13.862626)" />
    <linearGradient
       inkscape:collect="always"
       id="linearGradient1319">
      <stop
         style="stop-color:#9d7ed5;stop-opacity:1"
         offset="0"
         id="stop1315" />
      <stop
         style="stop-color:#febc85;stop-opacity:1"
         offset="1"
         id="stop1317" />
    </linearGradient>
  </defs>
  <metadata
     id="metadata20">
    <rdf:RDF>
      <cc:Work
         rdf:about="">
        <dc:format>image/svg+xml</dc:format>
        <dc:type
           rdf:resource="http://purl.org/dc/dcmitype/StillImage" />
      </cc:Work>
    </rdf:RDF>
  </metadata>
  <rect
     style="fill:url(#linearGradient1321);fill-opacity:1;stroke-width:24.3365;stroke-linecap:round;stroke-linejoin:round"
     id="rect873"
     width="11.112281"
     height="11.112281"
     x="0.79373437"
     y="0.79373437"
     rx="5.5013266"
     ry="5.5561404" />
  <g
     id="g1407"
     style="opacity:0.335683"
     transform="matrix(0.85745102,0,0,0.85745106,-4.3536984,-15.336365)">
    <path
       d="m 8.4582082,22.080086 c 0,0.322806 0.322806,0.645606 0.6456065,0.645606 3.2090353,0 5.8104863,2.601451 5.8104863,5.810486 0,0.3228 0.292763,0.645606 0.645606,0.645606 0.322805,0 0.645611,-0.322806 0.645611,-0.645606 0,-3.922075 -3.179528,-7.101703 -7.1017033,-7.101703 -0.3228005,0 -0.6456065,0.322806 -0.6456065,0.645611 z m 0,2.582434 c 0,0.322806 0.322806,0.645612 0.6456065,0.645612 1.7828203,-5e-6 3.2280463,1.445227 3.2280463,3.228046 0,0.3228 0.322806,0.645606 0.645612,0.645606 0.322804,0 0.645605,-0.322806 0.645605,-0.645606 0,-2.495924 -2.023339,-4.519263 -4.5192633,-4.519263 -0.3228005,0 -0.6456065,0.322801 -0.6456065,0.645605 z m 1.2912172,1.93683 c -0.7131099,0 -1.2912172,0.578112 -1.2912172,1.291216 0,0.713076 0.5781416,1.291218 1.2912172,1.291218 0.7131056,0 1.2912176,-0.578107 1.2912176,-1.291218 0,-0.713104 -0.578112,-1.291216 -1.2912176,-1.291216 z"
       fill="#ffffff"
       id="path1398"
       style="fill:#003d7a;fill-opacity:0.223286;stroke-width:0.322805" />
    <path
       d="m 8.6783734,22.129252 c 0,0.322806 0.322806,0.645606 0.6456065,0.645606 3.2090351,0 5.8104861,2.601451 5.8104861,5.810486 0,0.3228 0.292763,0.645606 0.645606,0.645606 0.322805,0 0.645611,-0.322806 0.645611,-0.645606 0,-3.922075 -3.179528,-7.101703 -7.1017031,-7.101703 -0.3228005,0 -0.6456065,0.322806 -0.6456065,0.645611 z m 0,2.582434 c 0,0.322806 0.322806,0.645612 0.6456065,0.645612 1.7828201,-5e-6 3.2280461,1.445227 3.2280461,3.228046 0,0.3228 0.322806,0.645606 0.645612,0.645606 0.322804,0 0.645605,-0.322806 0.645605,-0.645606 0,-2.495924 -2.023339,-4.519263 -4.5192631,-4.519263 -0.3228005,0 -0.6456065,0.322801 -0.6456065,0.645605 z m 1.2912172,1.93683 c -0.7131099,0 -1.2912172,0.578112 -1.2912172,1.291216 0,0.713076 0.5781416,1.291218 1.2912172,1.291218 0.7131054,0 1.2912174,-0.578107 1.2912174,-1.291218 0,-0.713104 -0.578112,-1.291216 -1.2912174,-1.291216 z"
       fill="#ffffff"
       id="path1400"
       style="fill:#003d7a;fill-opacity:0.223286;stroke-width:0.322805" />
    <path
       d="m 8.8796109,22.118089 c 0,0.322806 0.322806,0.645606 0.6456065,0.645606 3.2090356,0 5.8104866,2.601451 5.8104866,5.810486 0,0.3228 0.292763,0.645606 0.645606,0.645606 0.322805,0 0.645611,-0.322806 0.645611,-0.645606 0,-3.922075 -3.179528,-7.101703 -7.1017036,-7.101703 -0.3228005,0 -0.6456065,0.322806 -0.6456065,0.645611 z m 0,2.582434 c 0,0.322806 0.322806,0.645612 0.6456065,0.645612 1.7828206,-5e-6 3.2280466,1.445227 3.2280466,3.228046 0,0.3228 0.322806,0.645606 0.645612,0.645606 0.322804,0 0.645605,-0.322806 0.645605,-0.645606 0,-2.495924 -2.023339,-4.519263 -4.5192636,-4.519263 -0.3228005,0 -0.6456065,0.322801 -0.6456065,0.645605 z m 1.2912171,1.93683 c -0.7131098,0 -1.2912171,0.578112 -1.2912171,1.291216 0,0.713076 0.5781416,1.291218 1.2912171,1.291218 0.713106,0 1.291218,-0.578107 1.291218,-1.291218 0,-0.713104 -0.578112,-1.291216 -1.291218,-1.291216 z"
       fill="#ffffff"
       id="path1402"
       style="fill:#003d7a;fill-opacity:0.223286;stroke-width:0.322805" />
  </g>
  <path
     d="m 2.7780703,3.6009232 c 0,0.2767902 0.276795,0.5535755 0.553572,0.5535755 2.751592,0 4.982215,2.2306175 4.982215,4.9822078 0,0.2767846 0.251024,0.5535751 0.553573,0.5535751 0.276787,0 0.553576,-0.2767905 0.553576,-0.5535751 0,-3.3629878 -2.726286,-6.0893629 -6.089364,-6.0893629 -0.276777,0 -0.553572,0.2767902 -0.553572,0.5535796 z m 0,2.2143108 c 0,0.2767908 0.276795,0.5535802 0.553572,0.5535802 1.528685,-4.2e-6 2.767901,1.2392118 2.767901,2.7678922 0,0.2767847 0.276781,0.5535752 0.553577,0.5535752 0.276782,0 0.553571,-0.2767905 0.553571,-0.5535752 0,-2.140133 -1.734914,-3.875047 -3.875049,-3.875047 -0.276777,0 -0.553572,0.2767862 -0.553572,0.5535746 z m 1.107156,1.660737 c -0.611459,0 -1.107156,0.4957029 -1.107156,1.107155 0,0.6114278 0.495726,1.1071556 1.107156,1.1071556 0.61145,0 1.107153,-0.4956978 1.107153,-1.1071556 0,-0.6114521 -0.495703,-1.107155 -1.107153,-1.107155 z"
     fill="#ffffff"
     id="path8"
     style="fill:#ffffff;fill-opacity:1;stroke-width:0.276795" />
</svg>
