<?xml version="1.0" encoding="UTF-8" standalone="no"?>
<svg
   width="48"
   height="48"
   version="1"
   id="svg7"
   sodipodi:docname="pling-store.svg"
   inkscape:version="1.3.2 (091e20ef0f, 2023-11-25)"
   xmlns:inkscape="http://www.inkscape.org/namespaces/inkscape"
   xmlns:sodipodi="http://sodipodi.sourceforge.net/DTD/sodipodi-0.dtd"
   xmlns="http://www.w3.org/2000/svg"
   xmlns:svg="http://www.w3.org/2000/svg">
  <defs
     id="defs7" />
  <sodipodi:namedview
     id="namedview7"
     pagecolor="#ffffff"
     bordercolor="#999999"
     borderopacity="1"
     inkscape:showpageshadow="2"
     inkscape:pageopacity="0"
     inkscape:pagecheckerboard="0"
     inkscape:deskcolor="#d1d1d1"
     showgrid="true"
     inkscape:zoom="11.921875"
     inkscape:cx="27.176933"
     inkscape:cy="28.728702"
     inkscape:window-width="1920"
     inkscape:window-height="996"
     inkscape:window-x="0"
     inkscape:window-y="0"
     inkscape:window-maximized="1"
     inkscape:current-layer="svg7">
    <inkscape:grid
       id="grid7"
       units="px"
       originx="0"
       originy="0"
       spacingx="1"
       spacingy="1"
       empcolor="#0099e5"
       empopacity="0.30196078"
       color="#0099e5"
       opacity="0.14901961"
       empspacing="5"
       dotted="false"
       gridanglex="30"
       gridanglez="30"
       visible="true" />
  </sodipodi:namedview>
  <path
     style="opacity:0.2;stroke-width:1"
     d="m 23.999997,3.7368416 a 10.359999,10.31579 0 0 0 -10.36,10.3157894 10.359999,10.31579 0 0 0 10.36,10.315789 A 10.359999,10.31579 0 0 0 34.359993,14.052631 10.359999,10.31579 0 0 0 23.999997,3.7368416 Z m 0,4.4210525 a 5.9199989,5.8947369 0 0 1 5.919998,5.8947369 5.9199989,5.8947369 0 0 1 -5.919998,5.894737 5.9199989,5.8947369 0 0 1 -5.92,-5.894737 5.9199989,5.8947369 0 0 1 5.92,-5.8947369 z"
     id="path1" />
  <path
     style="opacity:0.2;stroke-width:1"
     d="m 5.5023944,12.578951 c 0.00952,7.537902 -0.019071,15.076362 0.014386,22.613914 0.1547105,4.854822 4.4778767,9.199631 9.6664616,9.714311 3.344963,0.172495 6.703579,0.04208 10.054429,0.08268 2.618813,-0.04666 5.249198,0.111316 7.858119,-0.118593 5.1751,-0.637048 9.379177,-5.085193 9.399975,-9.944144 0.0084,-7.449349 0.0013,-14.898791 0.0036,-22.348176 -12.332327,0 -24.664655,0 -36.9969796,0 z"
     id="path2" />
  <path
     style="fill:#ff9955;stroke-width:1"
     d="m 23.999997,3 a 10.359999,10.31579 0 0 0 -10.36,10.31579 10.359999,10.31579 0 0 0 10.36,10.315789 A 10.359999,10.31579 0 0 0 34.359993,13.31579 10.359999,10.31579 0 0 0 23.999997,3 Z m 0,4.4210527 a 5.9199989,5.8947369 0 0 1 5.919998,5.8947373 5.9199989,5.8947369 0 0 1 -5.919998,5.894736 5.9199989,5.8947369 0 0 1 -5.92,-5.894736 5.9199989,5.8947369 0 0 1 5.92,-5.8947373 z"
     id="path3" />
  <path
     style="opacity:0.2;fill:#ffffff;stroke-width:1"
     d="m 23.999997,3 a 10.359999,10.31579 0 0 0 -10.36,10.31579 10.359999,10.31579 0 0 0 0.0159,0.305098 10.359999,10.31579 0 0 1 10.3441,-9.8840459 10.359999,10.31579 0 0 1 10.344098,10.0106909 10.359999,10.31579 0 0 0 0.0159,-0.431743 A 10.359999,10.31579 0 0 0 23.999997,3 Z m 5.904099,10.628084 a 5.9199989,5.8947369 0 0 1 -5.904099,5.582442 5.9199989,5.8947369 0 0 1 -5.904102,-5.470189 5.9199989,5.8947369 0 0 0 -0.01589,0.312295 5.9199989,5.8947369 0 0 0 5.92,5.894737 5.9199989,5.8947369 0 0 0 5.919998,-5.894737 5.9199989,5.8947369 0 0 0 -0.01589,-0.424548 z"
     id="path4" />
  <path
     style="fill:#00ccff;stroke-width:1"
     d="m 5.5023944,11.84211 c 0.00952,7.537902 -0.019071,15.076362 0.014386,22.613913 0.1547105,4.854823 4.4778767,9.199632 9.6664616,9.714312 3.344963,0.172495 6.703579,0.04208 10.054429,0.08268 2.618813,-0.04667 5.249198,0.111316 7.858119,-0.118593 5.1751,-0.637048 9.379177,-5.085194 9.399975,-9.944144 0.0084,-7.449349 0.0013,-14.898791 0.0036,-22.348176 -12.332327,0 -24.664655,0 -36.9969796,0 z"
     id="path5" />
  <path
     style="opacity:0.2;stroke-width:1"
     d="m 24.137301,18.476308 c -0.427328,0.01124 -0.861792,0.0651 -1.296446,0.164063 -1.408463,0.314607 -2.840873,0.680245 -4.111913,1.001645 -1.159409,0.238075 -2.303813,1.499941 -2.107264,2.531455 l 3.838747,16.987665 c 0.237075,1.049589 1.428798,1.646362 2.672383,1.335526 1.243583,-0.310835 2.05528,-1.405592 1.818203,-2.45518 l -1.414962,-6.254524 c 0.658887,-0.179203 1.395107,-0.34791 2.024884,-0.467722 3.517941,-0.878725 5.728391,-4.424734 4.938632,-7.919613 -0.683125,-3.008241 -3.370973,-5.001993 -6.362264,-4.923315 z m 0.196562,3.682772 a 2.4084316,2.9435431 78.559579 0 1 2.569764,1.768709 2.4084316,2.9435431 78.559579 0 1 -2.296601,3.003495 2.4084316,2.9435431 78.559579 0 1 -0.04913,0.0072 l -1.633199,0.37703 -1.144687,-4.680098 1.680897,-0.385691 a 2.4084316,2.9435431 78.559579 0 1 0.87297,-0.09067 z"
     id="path6" />
  <path
     style="fill:#ff9955;stroke-width:1"
     d="m 24.137301,17.73972 c -0.427328,0.01125 -0.861792,0.0651 -1.296446,0.164063 -1.408463,0.314607 -2.840873,0.680245 -4.111913,1.001645 -1.159409,0.238075 -2.303813,1.499941 -2.107264,2.531455 l 3.838747,16.987665 c 0.237075,1.049589 1.428798,1.646362 2.672383,1.335526 1.243583,-0.310835 2.05528,-1.405592 1.818203,-2.45518 L 23.536049,31.05037 c 0.658887,-0.179203 1.395107,-0.34791 2.024884,-0.467722 3.517941,-0.878725 5.728391,-4.424733 4.938632,-7.919613 -0.683125,-3.008241 -3.370973,-5.001993 -6.362264,-4.923315 z m 0.196562,3.682772 a 2.4084316,2.9435431 78.559579 0 1 2.569764,1.768709 2.4084316,2.9435431 78.559579 0 1 -2.296601,3.003495 2.4084316,2.9435431 78.559579 0 1 -0.04913,0.0072 l -1.633199,0.377031 -1.144687,-4.680099 1.680897,-0.385691 a 2.4084316,2.9435431 78.559579 0 1 0.87297,-0.09067 z"
     id="path7" />
  <rect
     style="opacity:0.2;fill:#ffffff;stroke-width:1"
     width="36.999996"
     height="0.7368421"
     x="5.5"
     y="11.8421"
     id="rect7" />
</svg>
