<?xml version="1.0" encoding="UTF-8" standalone="no"?>
<svg
   width="48"
   height="48"
   version="1"
   id="svg6"
   sodipodi:docname="around.svg"
   inkscape:version="1.3.2 (091e20ef0f, 2023-11-25)"
   xmlns:inkscape="http://www.inkscape.org/namespaces/inkscape"
   xmlns:sodipodi="http://sodipodi.sourceforge.net/DTD/sodipodi-0.dtd"
   xmlns="http://www.w3.org/2000/svg"
   xmlns:svg="http://www.w3.org/2000/svg">
  <defs
     id="defs6" />
  <sodipodi:namedview
     id="namedview6"
     pagecolor="#ffffff"
     bordercolor="#999999"
     borderopacity="1"
     inkscape:showpageshadow="2"
     inkscape:pageopacity="0"
     inkscape:pagecheckerboard="0"
     inkscape:deskcolor="#d1d1d1"
     inkscape:zoom="6.2265625"
     inkscape:cx="33.40527"
     inkscape:cy="47.61857"
     inkscape:window-width="1920"
     inkscape:window-height="994"
     inkscape:window-x="0"
     inkscape:window-y="0"
     inkscape:window-maximized="1"
     inkscape:current-layer="svg6" />
  <g
     transform="matrix(2.625,0,0,2.625,3,3)"
     id="g6">
    <rect
       width="16"
       height="16"
       rx="8"
       ry="8"
       id="rect1"
       x="0"
       y="0"
       style="fill:#2a3955;fill-opacity:1" />
    <path
       fill="#248afd"
       d="M 9,8 A 3,3 0 0 1 6,11 3,3 0 0 1 3,8 3,3 0 0 1 6,5 3,3 0 0 1 9,8 Z"
       id="path1" />
    <path
       fill="#e97e10"
       d="M 7,8 A 3,3 0 0 0 10,11 3,3 0 0 0 13,8 3,3 0 0 0 10,5 3,3 0 0 0 7,8 Z"
       id="path2" />
    <path
       fill="#e3424a"
       d="M 11,8 A 3,3 0 0 1 8,11 3,3 0 0 1 5,8 3,3 0 0 1 8,5 3,3 0 0 1 11,8 Z"
       id="path3" />
    <path
       fill="#50beee"
       d="M 7,5.18 A 3,3 0 0 0 5,8 3,3 0 0 0 7.01,10.824 3,3 0 0 0 9,8 3,3 0 0 0 7,5.18 Z"
       id="path4" />
    <path
       fill="#fecd38"
       d="M 9,5.18 A 3,3 0 0 0 7,8 3,3 0 0 0 9,10.82 3,3 0 0 0 11,8 3,3 0 0 0 9,5.18 Z"
       id="path5" />
    <path
       fill="#ff90b8"
       d="M 8,5.768 A 3,3 0 0 0 7,8 3,3 0 0 0 8.002,10.234 3,3 0 0 0 9,8 3,3 0 0 0 8,5.768 Z"
       id="path6" />
  </g>
</svg>
