<?xml version="1.0" encoding="UTF-8" standalone="no"?>
<svg
   width="48"
   height="48"
   version="1.1"
   id="svg6"
   sodipodi:docname="blackmagic-Fusion9.svg"
   inkscape:version="1.3.2 (091e20ef0f, 2023-11-25)"
   xmlns:inkscape="http://www.inkscape.org/namespaces/inkscape"
   xmlns:sodipodi="http://sodipodi.sourceforge.net/DTD/sodipodi-0.dtd"
   xmlns="http://www.w3.org/2000/svg"
   xmlns:svg="http://www.w3.org/2000/svg">
  <defs
     id="defs6" />
  <sodipodi:namedview
     id="namedview6"
     pagecolor="#ffffff"
     bordercolor="#999999"
     borderopacity="1"
     inkscape:showpageshadow="2"
     inkscape:pageopacity="0"
     inkscape:pagecheckerboard="0"
     inkscape:deskcolor="#d1d1d1"
     inkscape:zoom="5.953125"
     inkscape:cx="23.349081"
     inkscape:cy="27.380577"
     inkscape:window-width="1920"
     inkscape:window-height="994"
     inkscape:window-x="0"
     inkscape:window-y="0"
     inkscape:window-maximized="1"
     inkscape:current-layer="svg6" />
  <path
     style="opacity:0.2;stroke-width:0.743374"
     d="M 24.802683,3.7525234 A 20.99871,20.630616 0 0 0 18.565761,4.4404024 20.99871,20.630616 0 0 0 3.7160899,29.707728 20.99871,20.630616 0 0 0 29.434235,44.297096 20.99871,20.630616 0 0 0 44.28391,19.029771 20.99871,20.630616 0 0 0 24.802683,3.7525234 Z"
     id="path1" />
  <path
     d="M 24.802708,3.0150594 A 20.999355,20.63125 0 0 0 18.565597,3.7029604 20.999355,20.63125 0 0 0 3.7154666,28.971061 20.999355,20.63125 0 0 0 29.434403,43.560878 20.999355,20.63125 0 0 0 44.284533,18.292777 20.999355,20.63125 0 0 0 24.802708,3.0150594 Z"
     id="path2"
     style="fill:#ffd42a;fill-opacity:1" />
  <ellipse
     style="opacity:0.1;stroke-width:0.743389"
     cx="16.74337"
     cy="29.676338"
     transform="matrix(0.96705209,-0.2545786,0.26311983,0.96476316,0,0)"
     id="circle2"
     rx="17.978485"
     ry="17.70524" />
  <ellipse
     style="fill:#273f57;stroke-width:0.743389"
     cx="16.93664"
     cy="28.964439"
     transform="matrix(0.96705209,-0.2545786,0.26311983,0.96476316,0,0)"
     id="circle3"
     rx="17.978485"
     ry="17.70524" />
  <path
     style="opacity:0.2;stroke-width:0.743374"
     d="m 30.105282,11.844398 c -1.015327,0.02749 -2.023895,0.350061 -2.846105,0.939746 -0.953464,0.683821 -1.629188,1.668083 -2.372974,2.570272 -0.371892,0.451095 -0.766883,0.886778 -1.223106,1.254914 -0.456224,0.368135 -0.966353,0.743508 -1.546829,0.81886 -1.171136,0.152028 -2.390189,-0.433774 -3.4496,-0.797273 -1.101406,-0.414448 -2.186468,-0.934405 -3.358784,-1.056316 -1.617493,-0.168205 -3.30129,0.494089 -4.357775,1.713995 -1.0564923,1.219906 -1.4565683,3.331679 -1.0356143,4.881501 0.4209553,1.54982 1.6512283,2.862408 3.1844723,3.397766 1.533248,0.53536 3.326412,0.277183 4.641946,-0.666313 0.953467,-0.68382 1.629193,-1.668083 2.372974,-2.570272 0.795293,-0.972202 1.630476,-1.929569 2.769938,-2.368794 0.54457,-0.209915 1.173141,-0.148471 1.754827,-0.05469 0.581689,0.09379 1.14407,0.27776 1.694773,0.484985 1.101403,0.414447 2.186467,0.932965 3.358784,1.054876 1.617489,0.168206 3.301287,-0.492649 4.357776,-1.712555 1.056487,-1.219906 1.456568,-2.669683 1.035609,-4.219505 -0.420953,-1.549821 -1.651221,-2.862409 -3.184471,-3.397767 -0.574968,-0.20076 -1.186644,-0.289928 -1.795841,-0.273432 z m 0.610821,11.052455 c -0.746566,0.02026 -1.487168,0.257713 -2.091733,0.692218 -0.701078,0.503868 -1.199142,1.229113 -1.746041,1.893884 -0.273451,0.332386 -0.563926,0.654097 -0.899385,0.925356 -0.33546,0.271258 -0.718066,0.492104 -1.136687,0.602992 -0.418616,0.110887 -0.861309,0.107963 -1.289022,0.03885 -0.427709,-0.0691 -0.843078,-0.20277 -1.248007,-0.355463 -0.809857,-0.305382 -1.60619,-0.688735 -2.468188,-0.778565 -1.189328,-0.12394 -2.426687,0.363231 -3.203512,1.26211 -0.77683,0.898878 -1.071225,2.183837 -0.761698,3.325811 0.309528,1.141975 1.213363,2.109596 2.340749,2.504071 1.127391,0.394476 2.445678,0.204468 3.412981,-0.49074 0.70108,-0.503868 1.199142,-1.229112 1.746042,-1.893885 0.27345,-0.332385 0.563928,-0.654097 0.899384,-0.925355 0.33546,-0.271258 0.718068,-0.492104 1.136685,-0.602992 0.418616,-0.110887 0.86131,-0.107963 1.289024,-0.03885 0.427711,0.06911 0.843079,0.202771 1.248008,0.355463 0.809856,0.305383 1.60619,0.688736 2.468187,0.778565 1.18933,0.12394 2.426685,-0.363231 3.203512,-1.26211 0.776832,-0.898878 1.071223,-2.183838 0.761698,-3.325811 -0.309528,-1.141975 -1.213361,-2.109597 -2.340749,-2.504071 -0.422769,-0.147929 -0.873312,-0.213632 -1.321248,-0.201478 z m -8.01245,11.055334 c -0.171487,0.01042 -0.34221,0.03831 -0.508287,0.08203 -0.664294,0.174876 -1.251298,0.616515 -1.595165,1.201666 -0.343862,0.585152 -0.440197,1.305994 -0.262197,1.958645 0.177997,0.65265 0.627515,1.229365 1.223105,1.567203 0.595591,0.337837 1.329297,0.43248 1.993593,0.257603 0.664294,-0.174876 1.2513,-0.616516 1.595167,-1.201667 0.343864,-0.58515 0.440194,-1.305993 0.262196,-1.958644 -0.177998,-0.652652 -0.627516,-1.229366 -1.223105,-1.567204 -0.446697,-0.253377 -0.970851,-0.37089 -1.485307,-0.339632 z"
     id="path3" />
  <path
     style="fill:#fed909;stroke-width:0.743374"
     d="m 30.105282,11.107241 c -1.015327,0.02749 -2.023895,0.350062 -2.846105,0.939747 -0.953464,0.683821 -1.629188,1.668083 -2.372974,2.570272 -0.371892,0.451095 -0.766883,0.886778 -1.223106,1.254914 -0.456224,0.368135 -0.966353,0.743508 -1.546829,0.81886 -1.171136,0.152028 -2.390189,-0.433774 -3.4496,-0.797273 -1.101406,-0.414448 -2.186468,-0.934405 -3.358784,-1.056316 -1.617493,-0.168206 -3.30129,0.494089 -4.357775,1.713994 -1.0564923,1.219906 -1.4565683,3.33168 -1.0356143,4.881502 0.4209553,1.54982 1.6512283,2.862408 3.1844723,3.397766 1.533248,0.53536 3.326412,0.277183 4.641946,-0.666313 0.953467,-0.68382 1.629193,-1.668083 2.372974,-2.570272 0.795293,-0.972202 1.630476,-1.929569 2.769938,-2.368794 0.54457,-0.209915 1.173141,-0.148471 1.754827,-0.05469 0.581689,0.09379 1.14407,0.27776 1.694773,0.484985 1.101403,0.414447 2.186467,0.932965 3.358784,1.054876 1.617489,0.168206 3.301287,-0.492649 4.357776,-1.712555 1.056487,-1.219906 1.456568,-2.669683 1.035609,-4.219505 -0.420953,-1.549821 -1.651221,-2.862409 -3.184471,-3.397767 -0.574968,-0.20076 -1.186644,-0.289928 -1.795841,-0.273433 z m 0.610821,11.052456 c -0.746566,0.02026 -1.487168,0.257713 -2.091733,0.692218 -0.701078,0.503868 -1.199142,1.229113 -1.746041,1.893884 -0.273451,0.332386 -0.563926,0.654097 -0.899385,0.925355 -0.33546,0.271259 -0.718066,0.492105 -1.136687,0.602993 -0.418616,0.110887 -0.861309,0.107963 -1.289022,0.03885 -0.427709,-0.0691 -0.843078,-0.20277 -1.248007,-0.355463 -0.809857,-0.305382 -1.60619,-0.688735 -2.468188,-0.778565 -1.189328,-0.12394 -2.426687,0.363231 -3.203512,1.26211 -0.77683,0.898878 -1.071225,2.183837 -0.761698,3.32581 0.309528,1.141976 1.213363,2.109597 2.340749,2.504072 1.127391,0.394476 2.445678,0.204468 3.412981,-0.49074 0.70108,-0.503868 1.199142,-1.229112 1.746042,-1.893885 0.27345,-0.332385 0.563928,-0.654097 0.899384,-0.925355 0.33546,-0.271258 0.718068,-0.492104 1.136685,-0.602992 0.418616,-0.110887 0.86131,-0.107963 1.289024,-0.03885 0.427711,0.06911 0.843079,0.202771 1.248008,0.355463 0.809856,0.305383 1.60619,0.688736 2.468187,0.778565 1.18933,0.12394 2.426685,-0.363231 3.203512,-1.26211 0.776832,-0.898878 1.071223,-2.183838 0.761698,-3.325811 -0.309528,-1.141975 -1.213361,-2.109597 -2.340749,-2.504071 -0.422769,-0.147929 -0.873312,-0.213632 -1.321248,-0.201478 z m -8.01245,11.055334 c -0.171487,0.01042 -0.34221,0.03831 -0.508287,0.08203 -0.664294,0.174876 -1.251298,0.616515 -1.595165,1.201666 -0.343862,0.585152 -0.440197,1.305994 -0.262197,1.958645 0.177997,0.65265 0.627515,1.229365 1.223105,1.567203 0.595591,0.337837 1.329297,0.43248 1.993593,0.257603 0.664294,-0.174876 1.2513,-0.616516 1.595167,-1.201667 0.343864,-0.58515 0.440194,-1.305993 0.262196,-1.958644 -0.177998,-0.652652 -0.627516,-1.229366 -1.223105,-1.567204 -0.446697,-0.253377 -0.970851,-0.37089 -1.485307,-0.339632 z"
     id="path4" />
  <path
     style="opacity:0.2;fill:#ffffff;stroke-width:0.743374"
     d="M 24,3.0006684 A 20.999356,20.631251 0 0 0 3.0006443,23.63192 20.999356,20.631251 0 0 0 3.0167688,24.063702 20.999356,20.631251 0 0 1 24,3.7374994 20.999356,20.631251 0 0 1 44.983606,23.936967 20.999356,20.631251 0 0 0 44.999356,23.63192 20.999356,20.631251 0 0 0 24,3.0006684 Z"
     id="path5" />
  <path
     style="opacity:0.2;fill:#ffffff;stroke-width:0.743374"
     d="m 30.105282,11.107241 c -1.015327,0.02749 -2.023895,0.350062 -2.846105,0.939747 -0.953464,0.683821 -1.629188,1.668083 -2.372974,2.570272 -0.371892,0.451095 -0.766883,0.886778 -1.223106,1.254914 -0.456224,0.368135 -0.966353,0.743508 -1.546829,0.81886 -1.171136,0.152028 -2.390189,-0.433774 -3.4496,-0.797273 -1.101406,-0.414448 -2.186468,-0.934405 -3.358784,-1.056316 -1.617493,-0.168206 -3.30129,0.494089 -4.357775,1.713994 -0.850233,0.981747 -1.2664643,2.538048 -1.1806273,3.91729 0.07498,-1.169987 0.4796653,-2.371071 1.1806273,-3.180459 1.056485,-1.219906 2.740282,-1.8822 4.357775,-1.713994 1.172316,0.12191 2.257378,0.641867 3.358784,1.056315 1.059411,0.363499 2.278464,0.949302 3.4496,0.797274 0.580476,-0.07535 1.090605,-0.450725 1.546829,-0.818861 0.456223,-0.368136 0.851214,-0.803818 1.223106,-1.254914 0.743786,-0.902189 1.41951,-1.886451 2.372974,-2.570271 0.82221,-0.589686 1.830778,-0.912256 2.846105,-0.939747 0.609197,-0.0165 1.220873,0.07267 1.795841,0.273433 1.53325,0.535358 2.763518,1.847946 3.184471,3.397767 0.07829,0.288135 0.119526,0.571575 0.142088,0.85196 0.04756,-0.514037 0.0057,-1.044445 -0.142088,-1.588791 -0.420953,-1.54982 -1.651221,-2.862408 -3.184471,-3.397766 -0.574968,-0.20076 -1.186644,-0.289928 -1.795841,-0.273434 z m 0.610821,11.052456 c -0.746566,0.02026 -1.487168,0.257713 -2.091733,0.692218 -0.701078,0.503868 -1.199142,1.229113 -1.746041,1.893884 -0.273451,0.332386 -0.563926,0.654097 -0.899385,0.925355 -0.33546,0.271259 -0.718066,0.492105 -1.136687,0.602993 -0.418616,0.110886 -0.861309,0.107963 -1.289022,0.03885 -0.427709,-0.0691 -0.843078,-0.20277 -1.248007,-0.355463 -0.809857,-0.305382 -1.60619,-0.688735 -2.468188,-0.778565 -1.189328,-0.12394 -2.426687,0.363231 -3.203512,1.26211 -0.646732,0.748343 -0.951964,1.763281 -0.859838,2.741527 0.07968,-0.732681 0.375303,-1.444037 0.859838,-2.004697 0.776825,-0.898878 2.014184,-1.38605 3.203512,-1.26211 0.861998,0.08983 1.658331,0.473184 2.468188,0.778565 0.404929,0.152693 0.820298,0.286363 1.248007,0.355463 0.427713,0.06911 0.870406,0.07203 1.289022,-0.03885 0.418621,-0.110888 0.801227,-0.331734 1.136687,-0.602992 0.335459,-0.271258 0.625934,-0.59297 0.899385,-0.925355 0.546899,-0.664772 1.044963,-1.390017 1.746041,-1.893885 0.604565,-0.434505 1.345167,-0.671962 2.091733,-0.692217 0.447936,-0.01215 0.898479,0.05355 1.321248,0.201477 1.127388,0.394475 2.031221,1.362097 2.340749,2.504072 0.05181,0.191245 0.07961,0.387502 0.09811,0.584283 0.04807,-0.44199 0.01829,-0.891427 -0.09811,-1.321114 -0.309528,-1.141975 -1.213361,-2.109597 -2.340749,-2.504071 -0.422769,-0.147929 -0.873312,-0.213632 -1.321248,-0.201478 z m -8.01245,11.055334 c -0.171487,0.01042 -0.34221,0.03831 -0.508287,0.08203 -0.664294,0.174875 -1.251298,0.616515 -1.595165,1.201666 -0.288858,0.49155 -0.391306,1.076964 -0.314933,1.63916 0.04898,-0.316435 0.152031,-0.625123 0.314933,-0.90233 0.343867,-0.58515 0.930871,-1.02679 1.595165,-1.201666 0.166077,-0.04372 0.3368,-0.07161 0.508287,-0.08203 0.514456,-0.03126 1.03861,0.08626 1.485307,0.339633 0.595589,0.337838 1.045108,0.914552 1.223105,1.567204 0.02849,0.104399 0.03818,0.21243 0.05275,0.319485 0.05436,-0.351477 0.04095,-0.712895 -0.05275,-1.056315 -0.177997,-0.652652 -0.627516,-1.229366 -1.223105,-1.567204 -0.446697,-0.253377 -0.970851,-0.37089 -1.485307,-0.339633 z"
     id="path6" />
</svg>
