<?xml version="1.0" encoding="UTF-8" standalone="no"?>
<svg
   height="48"
   width="48"
   version="1.1"
   id="svg4"
   sodipodi:docname="black-mesa.svg"
   inkscape:version="1.4.2 (unknown)"
   xmlns:inkscape="http://www.inkscape.org/namespaces/inkscape"
   xmlns:sodipodi="http://sodipodi.sourceforge.net/DTD/sodipodi-0.dtd"
   xmlns="http://www.w3.org/2000/svg"
   xmlns:svg="http://www.w3.org/2000/svg">
  <defs
     id="defs4" />
  <sodipodi:namedview
     id="namedview4"
     pagecolor="#ffffff"
     bordercolor="#000000"
     borderopacity="0.25"
     inkscape:showpageshadow="2"
     inkscape:pageopacity="0.0"
     inkscape:pagecheckerboard="0"
     inkscape:deskcolor="#d1d1d1"
     inkscape:zoom="5.6568543"
     inkscape:cx="47.994872"
     inkscape:cy="42.868348"
     inkscape:current-layer="svg4" />
  <g
     id="g4"
     transform="matrix(0.75,0,0,0.75,0.375,0)"
     style="stroke-width:1.33333">
    <ellipse
       cy="32.49123"
       cx="31.5"
       style="opacity:0.2;stroke-width:1.33329"
       id="circle1"
       rx="27.5"
       ry="27.50877" />
    <ellipse
       cy="31.50877"
       cx="31.5"
       style="fill:#ff9955;stroke-width:1.33329"
       id="circle2"
       rx="27.5"
       ry="27.50877" />
    <path
       style="opacity:0.2;stroke-width:1.33329"
       d="m 31.499999,10.87719 c -11.785712,0 -21.6071418,8.84211 -21.6071418,21.614039 0,12.771931 8.8392838,21.614032 21.6071418,21.614032 12.767857,0 21.410717,-8.842101 21.410717,-21.614032 0,-12.771929 -9.625,-21.614039 -21.410717,-21.614039 z m 0,1.964917 c 10.803574,0 19.642858,9.014251 19.642858,19.649122 -0.0073,1.639854 0,2.947368 -0.982142,4.912281 L 42.303573,29.54386 H 23.642855 v 11.789471 h -9.821427 c -1.964284,-2.947367 -1.964284,-4.91228 -1.964284,-8.842102 0,-10.634871 8.839284,-19.649122 19.642855,-19.649122 z"
       id="path2" />
    <path
       style="fill:#ffffff;stroke-width:1.33329"
       d="m 31.499999,9.8947366 c -11.785712,0 -21.6071418,8.8421034 -21.6071418,21.6140344 0,12.771929 8.8392838,21.614036 21.6071418,21.614036 12.767857,0 21.410717,-8.842107 21.410717,-21.614036 0,-12.771931 -9.625,-21.6140344 -21.410717,-21.6140344 z m 0,1.9649134 c 10.803574,0 19.642858,9.014249 19.642858,19.649121 -0.0073,1.639857 0,2.947369 -0.982142,4.91228 l -7.857142,-7.85965 H 23.642855 v 11.789478 h -9.821427 c -1.964284,-2.947369 -1.964284,-4.912282 -1.964284,-8.842108 0,-10.634872 8.839284,-19.649121 19.642855,-19.649121 z"
       id="path3" />
    <path
       style="opacity:0.2;fill:#ffffff;stroke-width:1.33329"
       d="M 31.499999,4.0000001 A 27.499999,27.508771 0 0 0 4,31.508771 27.499999,27.508771 0 0 0 4.0211007,32.084429 27.499999,27.508771 0 0 1 31.499999,4.9824561 27.499999,27.508771 0 0 1 58.978899,31.915571 27.499999,27.508771 0 0 0 59,31.508771 27.499999,27.508771 0 0 0 31.499999,4.0000001 Z"
       id="path4" />
  </g>
</svg>
