<?xml version="1.0" encoding="UTF-8" standalone="no"?>
<svg
   width="48"
   height="48"
   viewBox="0 0 48 48"
   version="1.1"
   id="svg2"
   sodipodi:docname="compton.svg"
   inkscape:version="1.4.2 (unknown)"
   xmlns:inkscape="http://www.inkscape.org/namespaces/inkscape"
   xmlns:sodipodi="http://sodipodi.sourceforge.net/DTD/sodipodi-0.dtd"
   xmlns="http://www.w3.org/2000/svg"
   xmlns:svg="http://www.w3.org/2000/svg">
  <sodipodi:namedview
     id="namedview2"
     pagecolor="#ffffff"
     bordercolor="#000000"
     borderopacity="0.25"
     inkscape:showpageshadow="2"
     inkscape:pageopacity="0.0"
     inkscape:pagecheckerboard="0"
     inkscape:deskcolor="#d1d1d1"
     inkscape:zoom="5.9609375"
     inkscape:cx="69.78768"
     inkscape:cy="34.809961"
     inkscape:current-layer="svg2" />
  <defs
     id="defs2">
    <linearGradient
       id="linear0"
       gradientUnits="userSpaceOnUse"
       x1="0"
       y1="0"
       x2="0"
       y2="1"
       gradientTransform="matrix(73.142855,0,0,73.142855,-3.4285714,-3.4285714)">
      <stop
         offset="0"
         style="stop-color:#2478ff;stop-opacity:1;"
         id="stop1" />
      <stop
         offset="1"
         style="stop-color:#0049bf;stop-opacity:1;"
         id="stop2" />
    </linearGradient>
  </defs>
  <g
     id="surface1"
     transform="matrix(0.65625,0,0,0.65625,3,3)"
     style="stroke-width:1.5238">
    <path
       d="M 29.863281,0 C 28.929688,0.0625 28.007812,0.167969 27.101562,0.308594 L 25.773438,6.96875 c -2.472657,0.644531 -4.800782,1.636719 -6.921876,2.949219 l -5.6875,-3.800781 c -2.671874,1.960937 -5.03125,4.324218 -6.988281,6.996093 l 3.894531,5.84375 c -1.1875,2.0625 -2.128906,4.304688 -2.707031,6.675781 L 0.386719,27.011719 C 0.132812,28.628906 0,30.28125 0,31.964844 c 0,1.6875 0.132812,3.34375 0.386719,4.964844 L 7.5,38.332031 c 0.609375,2.28125 1.539062,4.433594 2.710938,6.414063 L 6.175781,50.8125 C 8.136719,53.492188 10.5,55.855469 13.179688,57.816406 L 19.25,53.769531 c 1.984375,1.175781 4.136719,2.121094 6.414062,2.730469 l 1.40625,7.113281 C 28.691406,63.867188 30.347656,64 32.039062,64 33.71875,64 35.375,63.867188 36.988281,63.613281 l 1.378907,-6.976562 c 2.371093,-0.578125 4.617187,-1.5 6.679687,-2.6875 l 5.835937,3.882812 c 2.675782,-1.960937 5.042969,-4.324219 7.003907,-7 l -3.785157,-5.679687 c 1.308594,-2.121094 2.285157,-4.449219 2.933594,-6.921875 l 6.65625,-1.332031 C 63.832031,35.992188 63.9375,35.070312 64,34.136719 v -4.347657 c -0.0625,-0.929687 -0.167969,-1.84375 -0.308594,-2.746093 L 57.167969,25.738281 C 56.554688,23.167969 55.566406,20.75 54.246094,18.546875 L 57.886719,13.09375 C 55.929688,10.425781 53.566406,8.0625 50.894531,6.105469 l -5.441406,3.632812 c -2.207031,-1.324219 -4.625,-2.292969 -7.195313,-2.90625 L 36.957031,0.304688 C 36.054688,0.164062 35.136719,0.0625 34.210938,0 Z m 2.941407,13.3125 c 4.976562,0 9.652343,1.933594 13.175781,5.449219 l -5.132813,5.144531 c -2.148437,-2.144531 -5.003906,-3.328125 -8.042968,-3.328125 -6.277344,0 -11.382813,5.109375 -11.382813,11.386719 0,6.273437 5.105469,11.382812 11.382813,11.382812 3.039062,0 5.894531,-1.179687 8.042968,-3.324218 l 5.132813,5.140624 c -3.523438,3.515626 -8.199219,5.449219 -13.175781,5.449219 -4.980469,0 -9.664063,-1.941406 -13.1875,-5.460937 -3.519532,-3.523438 -5.460938,-8.207032 -5.460938,-13.1875 0,-4.984375 1.941406,-9.667969 5.460938,-13.191406 3.523437,-3.519532 8.207031,-5.460938 13.1875,-5.460938 z m 0,0"
       id="path2"
       style="fill:#3771c8;stroke-width:1.5238" />
  </g>
</svg>
