<?xml version="1.0" encoding="UTF-8" standalone="no"?>
<svg
   width="48"
   height="48"
   version="1"
   id="svg4"
   sodipodi:docname="cpod.svg"
   inkscape:version="1.3.2 (091e20ef0f, 2023-11-25)"
   xmlns:inkscape="http://www.inkscape.org/namespaces/inkscape"
   xmlns:sodipodi="http://sodipodi.sourceforge.net/DTD/sodipodi-0.dtd"
   xmlns="http://www.w3.org/2000/svg"
   xmlns:svg="http://www.w3.org/2000/svg">
  <defs
     id="defs4" />
  <sodipodi:namedview
     id="namedview4"
     pagecolor="#ffffff"
     bordercolor="#999999"
     borderopacity="1"
     inkscape:showpageshadow="2"
     inkscape:pageopacity="0"
     inkscape:pagecheckerboard="0"
     inkscape:deskcolor="#d1d1d1"
     inkscape:zoom="5.6568543"
     inkscape:cx="24.218407"
     inkscape:cy="43.133514"
     inkscape:window-width="1920"
     inkscape:window-height="994"
     inkscape:window-x="0"
     inkscape:window-y="0"
     inkscape:window-maximized="1"
     inkscape:current-layer="svg4" />
  <rect
     style="opacity:0.2;stroke-width:0.743392"
     width="42"
     height="41.263157"
     x="3"
     y="3.7368424"
     rx="21"
     ry="20.631578"
     id="rect1" />
  <rect
     width="42"
     height="41.263157"
     x="3"
     y="3"
     rx="21"
     ry="20.631578"
     id="rect2"
     style="fill:#ffcc00" />
  <path
     style="opacity:0.1;stroke-width:0.743392"
     d="m 24.000002,6.6842105 c -9.9408,0 -18.0000018,7.9178105 -18.0000018,17.6842105 0,9.7664 8.0592018,17.684211 18.0000018,17.684211 4.803071,-0.0028 9.404605,-1.893195 12.782866,-5.247505 l -1.518463,-1.454095 c -2.978377,2.952678 -7.033193,4.616232 -11.264403,4.620591 -8.771295,0 -15.8818337,-6.985791 -15.8818337,-15.603202 0,-8.617411 7.1105387,-15.6032033 15.8818337,-15.6032033 4.23163,0.00332 8.288135,1.6652583 11.267357,4.6176893 l 1.512553,-1.448288 C 33.403345,8.5798149 28.802237,6.6891569 24.000002,6.6842105 Z m 0,5.2010675 c -7.017036,0 -12.706057,5.589214 -12.706057,12.483143 0,6.893929 5.689021,12.483143 12.706057,12.483143 3.374748,-0.0025 6.610956,-1.325413 8.992614,-3.674417 l -1.51551,-1.45119 c -1.983092,1.947644 -4.673065,3.04203 -7.477104,3.0446 -5.847529,0 -10.58789,-4.657196 -10.58789,-10.402136 0,-5.744941 4.740361,-10.402136 10.58789,-10.402136 2.804039,0.0027 5.494012,1.096956 7.477104,3.044598 l 1.51551,-1.45119 c -2.381319,-2.349749 -5.617568,-3.671226 -8.992614,-3.674415 z m 0,5.201067 c -4.093268,0 -7.412114,3.260617 -7.412114,7.282076 0,4.021457 3.318846,7.282075 7.412114,7.282075 1.947498,-0.0024 3.814315,-0.759202 5.19941,-2.104227 l -1.512557,-1.445385 c -0.98789,0.942021 -2.310152,1.468614 -3.686853,1.468605 -2.923766,0 -5.293945,-2.328598 -5.293945,-5.201068 0,-2.872471 2.370179,-5.201068 5.293945,-5.201068 1.375849,0.0022 2.697696,0.531882 3.683898,1.474411 l 1.518465,-1.456996 c -1.386272,-1.34403 -3.254734,-2.097659 -5.202363,-2.098423 z"
     id="path2" />
  <path
     style="fill:#4f4f4f;stroke-width:0.743392"
     d="m 24.000002,5.9473684 c -9.9408,0 -18.0000018,7.9178116 -18.0000018,17.6842106 0,9.7664 8.0592018,17.68421 18.0000018,17.68421 4.803071,-0.0028 9.404605,-1.893194 12.782866,-5.247505 L 35.264405,34.61419 c -2.978377,2.952678 -7.033193,4.616232 -11.264403,4.620591 -8.771295,0 -15.8818337,-6.985791 -15.8818337,-15.603202 0,-8.617411 7.1105387,-15.6032034 15.8818337,-15.6032034 4.23163,0.00332 8.288135,1.6652588 11.267357,4.6176894 l 1.512553,-1.448288 C 33.403345,7.8429728 28.802237,5.9523151 24.000002,5.9473684 Z m 0,5.2010676 c -7.017036,0 -12.706057,5.589214 -12.706057,12.483143 0,6.893929 5.689021,12.483143 12.706057,12.483143 3.374748,-0.0025 6.610956,-1.325413 8.992614,-3.674417 l -1.51551,-1.45119 c -1.983092,1.947644 -4.673065,3.042029 -7.477104,3.0446 -5.847529,0 -10.58789,-4.657196 -10.58789,-10.402136 0,-5.744941 4.740361,-10.402136 10.58789,-10.402136 2.804039,0.0026 5.494012,1.096956 7.477104,3.044598 l 1.51551,-1.45119 c -2.381319,-2.349749 -5.617568,-3.671226 -8.992614,-3.674415 z m 0,5.201067 c -4.093268,0 -7.412114,3.260617 -7.412114,7.282076 0,4.021457 3.318846,7.282075 7.412114,7.282075 1.947498,-0.0024 3.814315,-0.759202 5.19941,-2.104227 l -1.512557,-1.445385 c -0.98789,0.942021 -2.310152,1.468614 -3.686853,1.468605 -2.923766,0 -5.293945,-2.328598 -5.293945,-5.201068 0,-2.872471 2.370179,-5.201068 5.293945,-5.201068 1.375849,0.0022 2.697696,0.531882 3.683898,1.474411 l 1.518465,-1.456996 c -1.386272,-1.34403 -3.254734,-2.097659 -5.202363,-2.098423 z"
     id="path3" />
  <path
     style="opacity:0.2;fill:#ffffff;stroke-width:0.743392"
     d="M 24.000002,3 C 12.366,3 3,12.201684 3,23.631579 c 0,0.0836 0.00846,0.165136 0.01318,0.247533 0.2636609,-11.201294 9.519866,-20.1422699 20.986822,-20.1422699 11.466953,0 20.723161,8.9409759 20.986817,20.1422699 0.0046,-0.0824 0.01317,-0.163938 0.01317,-0.247533 C 45.000003,12.201684 35.634002,3 24.000002,3 Z"
     id="path4" />
</svg>
