<?xml version="1.0" encoding="UTF-8" standalone="no"?>
<svg
   width="62"
   height="62"
   version="1"
   id="svg7"
   sodipodi:docname="deltachat-unread.svg"
   inkscape:version="1.4 (unknown)"
   xmlns:inkscape="http://www.inkscape.org/namespaces/inkscape"
   xmlns:sodipodi="http://sodipodi.sourceforge.net/DTD/sodipodi-0.dtd"
   xmlns:xlink="http://www.w3.org/1999/xlink"
   xmlns="http://www.w3.org/2000/svg"
   xmlns:svg="http://www.w3.org/2000/svg">
  <defs
     id="defs7">
    <linearGradient
       inkscape:collect="always"
       xlink:href="#linearGradient4375"
       id="linearGradient4381"
       x1="31.957268"
       y1="29.751493"
       x2="-45.041405"
       y2="-18.591616"
       gradientUnits="userSpaceOnUse"
       gradientTransform="matrix(1.1172173,0,0,1.1172173,1.646462,1.8578364)" />
    <linearGradient
       id="linearGradient4375">
      <stop
         style="stop-color:#364e59;stop-opacity:1;"
         offset="0"
         id="stop4377" />
      <stop
         style="stop-color:#364e59;stop-opacity:0;"
         offset="1"
         id="stop4379" />
    </linearGradient>
  </defs>
  <sodipodi:namedview
     id="namedview7"
     pagecolor="#ffffff"
     bordercolor="#000000"
     borderopacity="0.25"
     inkscape:showpageshadow="2"
     inkscape:pageopacity="0.0"
     inkscape:pagecheckerboard="0"
     inkscape:deskcolor="#d1d1d1"
     inkscape:zoom="4.2813106"
     inkscape:cx="42.977494"
     inkscape:cy="86.305348"
     inkscape:window-width="1920"
     inkscape:window-height="998"
     inkscape:window-x="0"
     inkscape:window-y="0"
     inkscape:window-maximized="1"
     inkscape:current-layer="svg7" />
  <g
     id="g2"
     transform="translate(2.0000052,2.0000006)">
    <path
       style="fill:#d9d9d9;fill-opacity:1;stroke:#000000;stroke-width:0.683976;stroke-linejoin:round;stroke-miterlimit:4;stroke-dasharray:none;stroke-opacity:0.439216"
       d="m 28.422644,1.3419874 c -14.952511,0 -27.0806561,12.1281436 -27.0806561,27.0806556 0,14.952512 12.1281451,27.080658 27.0806561,27.080658 17.083278,-0.408535 11.455405,-5.603227 28.235403,1.154745 -8.990332,-15.491224 -1.290351,-15.882134 -1.154745,-28.235403 0,-14.952512 -12.128146,-27.0806556 -27.080658,-27.0806556 z"
       id="path3769"
       inkscape:connector-curvature="0"
       sodipodi:nodetypes="sscccs" />
    <path
       inkscape:connector-curvature="0"
       id="path3799"
       d="M 28.383122,6.1360568 C 16.067372,6.2859274 6.0779348,16.405955 6.0779348,28.732829 c 0,12.326876 9.9894372,22.203777 22.3051872,22.053906 11.709636,-0.04708 8.956156,-6.540918 21.899686,-0.528053 -7.090378,-11.076229 0.240387,-12.55076 0.405507,-22.068717 0,-12.326878 -9.98944,-22.2037791 -22.305193,-22.0539082 z"
       style="fill:url(#linearGradient4381);fill-opacity:1;stroke:none;stroke-width:1.19149"
       sodipodi:nodetypes="sscccs" />
    <g
       transform="matrix(1.3252197,0,0,1.0712553,-0.1914901,-0.19149001)"
       style="font-style:normal;font-weight:normal;font-size:42.1059px;line-height:125%;font-family:Sans;letter-spacing:0px;word-spacing:0px;fill:#ffffff;fill-opacity:1;stroke:none"
       id="text3797">
      <path
         d="m 21.688854,23.636251 q -1.027975,-1.151333 -2.857771,-2.754974 -2.014832,-1.768118 -2.713855,-2.775534 -0.699024,-1.027975 -0.699024,-2.240986 0,-1.809237 1.68588,-2.837212 1.68588,-1.048535 4.399735,-1.048535 2.713855,0 4.728687,0.925178 2.035391,0.925177 2.035391,2.549379 0,0.781261 -0.493428,1.295249 -0.493428,0.513987 -1.151333,0.513987 -0.945737,0 -2.220426,-1.418606 -1.295249,-1.439165 -2.199868,-2.014832 -0.884059,-0.596225 -2.07651,-0.596225 -1.521404,0 -2.50826,0.678463 -0.966297,0.678464 -0.966297,1.726999 0,0.986857 0.801821,1.850356 0.801821,0.863499 4.132461,3.145605 3.556795,2.446581 5.01652,3.824068 1.480285,1.377487 2.405462,3.3512 0.925178,1.973713 0.925178,4.17358 0,3.865188 -2.734414,6.825757 -2.713855,2.94001 -6.352888,2.94001 -3.310081,0 -5.592187,-2.364344 -2.282105,-2.364343 -2.282105,-6.311769 0,-3.803509 2.50826,-6.352888 2.528819,-2.549379 6.208971,-3.083926 z m 0.904619,0.945737 q -5.900579,0.966297 -5.900579,8.100447 0,3.680152 1.459725,5.715543 1.480285,2.035391 3.433438,2.035391 2.035391,0 3.3512,-1.953153 1.315808,-1.973713 1.315808,-5.324913 0,-4.852044 -3.659592,-8.573315 z"
         style="font-family:'Times New Roman';-inkscape-font-specification:'Times New Roman';fill:#ffffff;fill-opacity:1"
         id="path4161" />
    </g>
  </g>
  <path
     id="path905"
     style="fill:#ffffff;stroke:#8c8c8c;stroke-width:0.574;stroke-opacity:0.976471"
     d="m 61.379387,51.733194 c 0,5.214687 -4.225614,9.442938 -9.4403,9.446192 -1.191797,7.44e-4 -2.332206,-0.219263 -3.382543,-0.621407 -3.545395,-1.357429 -6.064517,-4.79011 -6.069537,-8.812997 -0.0065,-5.214683 4.213827,-9.448204 9.428505,-9.457965 5.214678,-0.0098 9.450832,4.207931 9.463846,9.422602"
     sodipodi:nodetypes="cssssc" />
  <path
     style="fill:#42a5f5;fill-opacity:1;stroke:#ffffff;stroke-width:2"
     id="path915"
     sodipodi:type="arc"
     sodipodi:cx="51.917282"
     sodipodi:cy="51.42424"
     sodipodi:rx="8.182107"
     sodipodi:ry="8.182107"
     sodipodi:start="0"
     sodipodi:end="6.2806895"
     sodipodi:open="true"
     sodipodi:arc-type="arc"
     d="m 60.099389,51.42424 a 8.182107,8.182107 0 0 1 -8.177002,8.182105 8.182107,8.182107 0 0 1 -8.187205,-8.171894 8.182107,8.182107 0 0 1 8.166784,-8.192304 8.182107,8.182107 0 0 1 8.197398,8.161672" />
</svg>
