<?xml version="1.0" encoding="UTF-8" standalone="no"?>
<svg
   height="48"
   width="48"
   version="1.1"
   id="svg1886"
   sodipodi:docname="fedora-logo-icon.svg"
   inkscape:version="1.2.2 (b0a8486541, 2022-12-01)"
   xmlns:inkscape="http://www.inkscape.org/namespaces/inkscape"
   xmlns:sodipodi="http://sodipodi.sourceforge.net/DTD/sodipodi-0.dtd"
   xmlns:xlink="http://www.w3.org/1999/xlink"
   xmlns="http://www.w3.org/2000/svg"
   xmlns:svg="http://www.w3.org/2000/svg">
  <defs
     id="defs1890">
    <linearGradient
       id="m"
       x1="68.210472"
       x2="148.52051"
       y1="177.75131"
       y2="258.06134"
       gradientUnits="userSpaceOnUse"
       gradientTransform="matrix(0.37626177,0,0,0.37626188,-16.518336,-57.726176)">
      <stop
         stop-color="#59f"
         offset="0"
         id="stop3371" />
      <stop
         stop-color="#06f"
         offset="1"
         id="stop3373" />
    </linearGradient>
    <linearGradient
       id="l"
       x1="220.30621"
       x2="54.439178"
       y1="207.9187"
       y2="42.051666"
       gradientTransform="matrix(0.16799417,0,0,0.1635966,5.9313038,-1.9414957)"
       gradientUnits="userSpaceOnUse"
       xlink:href="#a-3" />
    <linearGradient
       id="a-3">
      <stop
         stop-color="#2a7fff"
         offset="0"
         id="stop3327"
         style="stop-color:#00ccff;stop-opacity:1" />
      <stop
         stop-color="#0cf"
         offset="1"
         id="stop3329"
         style="stop-color:#0088aa;stop-opacity:1" />
    </linearGradient>
    <linearGradient
       id="linearGradient2356">
      <stop
         offset="0"
         id="stop2" />
      <stop
         offset="1"
         stop-opacity="0"
         id="stop4" />
    </linearGradient>
    <linearGradient
       id="linearGradient1978"
       x1="-59.235001"
       x2="-59.235001"
       y1="0.70410001"
       y2="-11.929"
       gradientTransform="matrix(2.8862356,0,0,2.8862362,194.46533,42.90783)"
       gradientUnits="userSpaceOnUse">
      <stop
         stop-color="#0fd3cd"
         offset="0"
         id="stop2-3" />
      <stop
         stop-color="#52ffb9"
         offset="1"
         id="stop4-6"
         style="stop-color:#80b3ff;stop-opacity:1" />
    </linearGradient>
    <linearGradient
       id="linearGradient1988"
       x1="-59.235001"
       x2="-59.235001"
       y1="0.70410001"
       y2="-11.929"
       gradientTransform="matrix(2.4166181,0,0,2.4166186,166.70888,39.830849)"
       gradientUnits="userSpaceOnUse">
      <stop
         stop-color="#00a0a2"
         offset="0"
         id="stop7" />
      <stop
         stop-color="#2fde8b"
         offset="1"
         id="stop9"
         style="stop-color:#00ccff;stop-opacity:1" />
    </linearGradient>
    <filter
       id="filter1877"
       x="-0.027478284"
       y="-0.021303294"
       width="1.0549566"
       height="1.0426066"
       color-interpolation-filters="sRGB">
      <feGaussianBlur
         stdDeviation="0.072702461"
         id="feGaussianBlur12" />
    </filter>
    <linearGradient
       id="k"
       x1="430.56"
       x2="433.31"
       y1="536.57001"
       y2="524.16998"
       gradientTransform="matrix(1.3951511,0,0,1.3951514,-578.18825,-716.37433)"
       gradientUnits="userSpaceOnUse">
      <stop
         stop-color="#c4e7f9"
         offset="0"
         id="stop15" />
      <stop
         stop-color="#edfafd"
         offset="1"
         id="stop17" />
    </linearGradient>
    <linearGradient
       xlink:href="#linearGradient4202"
       id="linearGradient4208"
       x1="407.79285"
       y1="520.55933"
       x2="408.57147"
       y2="543.7981"
       gradientUnits="userSpaceOnUse"
       gradientTransform="matrix(1.0749997,0,0,1.0499999,-415.21421,-525.98795)" />
    <linearGradient
       id="linearGradient4202">
      <stop
         style="stop-color:#a17bdb;stop-opacity:1;"
         offset="0"
         id="stop7-3" />
      <stop
         style="stop-color:#00ccff;stop-opacity:1;"
         offset="1"
         id="stop9-6" />
    </linearGradient>
    <linearGradient
       xlink:href="#linearGradient2356"
       id="linearGradient4348"
       x1="15.319"
       y1="12.214"
       x2="39.408001"
       y2="36.303001"
       gradientUnits="userSpaceOnUse"
       gradientTransform="matrix(1.0489731,0,0,1.0499998,-1.1942074,-1.2)" />
  </defs>
  <sodipodi:namedview
     id="namedview1888"
     pagecolor="#ffffff"
     bordercolor="#666666"
     borderopacity="1.0"
     inkscape:showpageshadow="2"
     inkscape:pageopacity="0.0"
     inkscape:pagecheckerboard="0"
     inkscape:deskcolor="#d1d1d1"
     showgrid="false"
     inkscape:zoom="4.9166667"
     inkscape:cx="16.881356"
     inkscape:cy="24.508474"
     inkscape:window-width="1920"
     inkscape:window-height="1000"
     inkscape:window-x="0"
     inkscape:window-y="0"
     inkscape:window-maximized="1"
     inkscape:current-layer="svg1886" />
  <linearGradient
     id="a">
    <stop
       offset="0"
       id="stop1845" />
    <stop
       offset="1"
       stop-opacity="0"
       id="stop1847" />
  </linearGradient>
  <linearGradient
     id="b"
     gradientUnits="userSpaceOnUse"
     x1="16"
     x2="34.942"
     xlink:href="#a"
     y1="11"
     y2="29.942" />
  <linearGradient
     id="c"
     gradientTransform="matrix(.70710678 .70710678 -.70710678 .70710678 0 0)"
     gradientUnits="userSpaceOnUse"
     x1="31.021"
     x2="43.104"
     xlink:href="#a"
     y1="-9.896"
     y2="-9.896" />
  <linearGradient
     id="d"
     gradientUnits="userSpaceOnUse"
     x1="23.716"
     x2="26.348"
     xlink:href="#a"
     y1="13.219"
     y2="15.851" />
  <linearGradient
     id="e"
     gradientTransform="matrix(1.0454421 0 0 1.0298842 46.076843 3.856842)"
     gradientUnits="userSpaceOnUse"
     x1="-45.221867"
     x2=".691726"
     y1="-4.91011"
     y2="41.697075">
    <stop
       offset="0"
       stop-color="#2bc0ff"
       id="stop1853" />
    <stop
       offset="1"
       stop-color="#1d99f3"
       id="stop1855" />
  </linearGradient>
  <g
     transform="matrix(2.9395948,0,0,2.9395948,-0.88893041,-824.19187)"
     id="g225">
    <g
       transform="matrix(1.0385,0,0,1.0385,-0.32619,-11.098)"
       stroke-width="0.92729"
       id="g221">
      <circle
         cx="8.467"
         cy="288.53"
         r="6.8790002"
         fill="#225a84"
         style="paint-order:stroke markers fill"
         id="circle219" />
    </g>
    <path
       d="m 8.731,284.035 a 4.234,4.234 0 0 0 -4.233,4.231 v 3.579 c 0,0.364 0.293,0.657 0.657,0.657 h 3.578 a 4.2335001,4.2335001 0 0 0 -0.002,-8.467 z m 1.276,0.928 c 0.17,0 0.291,0.02 0.448,0.06 0.23,0.06 0.417,0.249 0.417,0.468 0,0.264 -0.191,0.457 -0.479,0.457 -0.136,0 -0.186,-0.027 -0.386,-0.027 -0.591,0 -1.07,0.48 -1.071,1.07 v 0.926 c 0,0.084 0.067,0.152 0.15,0.152 h 0.705 a 0.4725,0.4725 0 1 1 0,0.945 H 8.936 v 1.081 a 2.03,2.03 0 0 1 -2.03,2.03 c -0.17,0 -0.291,-0.02 -0.448,-0.061 -0.23,-0.06 -0.418,-0.248 -0.418,-0.467 0,-0.265 0.192,-0.457 0.48,-0.457 0.136,0 0.186,0.026 0.386,0.026 0.591,0 1.07,-0.479 1.071,-1.07 v -0.93 A 0.151,0.151 0 0 0 7.826,289.014 H 7.122 a 0.47250661,0.47250661 0 1 1 0.005,-0.945 h 0.85 v -1.076 a 2.03,2.03 0 0 1 2.03,-2.03 z"
       fill="#ffffff"
       id="path223" />
  </g>
</svg>
