<?xml version="1.0" encoding="UTF-8" standalone="no"?>
<svg
   width="48px"
   height="48px"
   viewBox="0 0 48 48"
   version="1.1"
   id="svg11"
   sodipodi:docname="distributor-logo-pclinuxos.svg"
   inkscape:version="1.2.2 (b0a8486541, 2022-12-01)"
   xmlns:inkscape="http://www.inkscape.org/namespaces/inkscape"
   xmlns:sodipodi="http://sodipodi.sourceforge.net/DTD/sodipodi-0.dtd"
   xmlns="http://www.w3.org/2000/svg"
   xmlns:svg="http://www.w3.org/2000/svg">
  <defs
     id="defs15" />
  <sodipodi:namedview
     id="namedview13"
     pagecolor="#ffffff"
     bordercolor="#000000"
     borderopacity="0.25"
     inkscape:showpageshadow="2"
     inkscape:pageopacity="0.0"
     inkscape:pagecheckerboard="0"
     inkscape:deskcolor="#d1d1d1"
     showgrid="false"
     inkscape:zoom="4.9166667"
     inkscape:cx="15.152542"
     inkscape:cy="24.101695"
     inkscape:window-width="1920"
     inkscape:window-height="1002"
     inkscape:window-x="0"
     inkscape:window-y="0"
     inkscape:window-maximized="1"
     inkscape:current-layer="svg11" />
  <g
     id="surface1"
     transform="matrix(0.96164108,0,0,0.96165967,1.0913376,1.0917067)">
    <path
       style="fill:#3fa3f5;fill-opacity:1;fill-rule:nonzero;stroke:none"
       d="M 42.765625,12.949219 C 39.011719,6.386719 31.945312,1.984375 23.8125,1.984375 c -12.09375,0 -21.828125,9.734375 -21.828125,21.828125 0,3.984375 1.058594,7.714844 2.90625,10.921875 l 36.105469,-20.84375 c 0.585937,-0.335937 1.175781,-0.652344 1.769531,-0.941406 z m 0,0"
       id="path2" />
    <path
       style="fill:#1c87e3;fill-opacity:1;fill-rule:nonzero;stroke:none"
       d="m 42.699219,12.828125 c 3.804687,6.535156 4.082031,14.855469 0.01563,21.898437 C 36.667969,45.199219 23.371094,48.761719 12.898438,42.714844 9.445312,40.722656 6.746094,37.941406 4.890625,34.734375 l 36.105469,-20.84375 c 0.585937,-0.335937 1.152344,-0.691406 1.703125,-1.0625 z m 0,0"
       id="path4" />
    <path
       style="fill:#3f3f3f;fill-opacity:1;fill-rule:nonzero;stroke:none"
       d="m 23.8125,5.953125 c 9.863281,0 17.859375,7.996094 17.859375,17.859375 0,9.863281 -7.996094,17.859375 -17.859375,17.859375 -9.863281,0 -17.859375,-7.996094 -17.859375,-17.859375 0,-9.863281 7.996094,-17.859375 17.859375,-17.859375 z m 0,0"
       id="path6" />
    <path
       style="fill:#dedede;fill-opacity:1;fill-rule:nonzero;stroke:none"
       d="m 37.296875,14.050781 c 0,-0.02734 -0.140625,0.0625 -0.308594,0.199219 -0.425781,0.339844 -0.867187,0.476562 -2.125,0.660156 -1.167969,0.171875 -1.734375,0.367188 -1.882812,0.648438 -0.1875,0.324218 -0.667969,0.589844 -0.769531,0.941406 0.08594,1.132812 1.398437,1.847656 1.421874,2.9375 0,0.335938 -0.03906,0.417969 -0.316406,0.679688 -0.472656,0.453124 -1.070312,0.613281 -2.210937,0.605468 -1.664063,-0.01172 -3.222657,-0.441406 -6.300781,-1.753906 -2.523438,-1.078125 -3.621094,-1.347656 -4.734376,-1.140625 -0.597656,0.109375 -1.507812,0.550781 -1.980468,0.953125 -0.742188,0.636719 -2.128906,2.664062 -3,4.402344 l -0.578125,1.160156 -0.445313,-0.464844 c -0.734375,-0.761718 -0.960937,-1.0625 -0.960937,-1.277344 0,-0.128906 -0.04687,-0.203124 -0.132813,-0.203124 -0.113281,0 -0.128906,0.06641 -0.09375,0.410156 0.04297,0.445312 0.363282,0.984375 1.027344,1.726562 l 0.363281,0.402344 -0.296875,0.945312 c -0.164062,0.523438 -0.34375,1.207032 -0.394531,1.515626 -0.09766,0.539062 -0.117187,0.585937 -0.710937,1.203124 -0.710938,0.742188 -0.808594,0.765626 -1.652344,0.449219 -0.335938,-0.132812 -3.03125,-1.019531 -3.078125,-0.1875 1.453125,-0.07031 3.070312,1.386719 4.359375,1.160157 0.234375,-0.04688 0.449218,-0.191407 0.851562,-0.582032 l 0.542969,-0.523437 c 0.585937,0.609375 1.417969,0.859375 2.1875,1.082031 l -0.371094,0.08984 c -0.507812,0.12891 -0.832031,0.382816 -1.011719,0.78516 -0.152343,0.335938 -0.152343,0.34375 0,0.457031 0.199219,0.144531 1.625,0.148438 1.914063,0.0039 0.167969,-0.08203 0.488281,-0.535157 0.589844,-0.824219 0.78125,0.121093 1.683593,0.230469 2.417969,-0.03516 0.226562,-0.08594 0.410156,-0.128906 0.410156,-0.09375 0,0.03516 -0.164063,0.222657 -0.367188,0.425782 -0.242187,0.242187 -0.363281,0.4375 -0.363281,0.574218 0,0.460938 0.01172,0.464844 1.152344,0.464844 0.765625,0 1.0625,-0.02344 1.085937,-0.09766 v -0.0078 C 21.554688,31.6875 21.582031,31 21.59375,30.207031 c 0.02344,-1.308593 0.03906,-1.460937 0.191406,-1.667969 1.378906,-1.015624 2.996094,-1.5625 4.597656,-1.71875 v 0.25 c 0,0.140626 -0.171874,0.738282 -0.382812,1.328126 l -0.390625,1.070312 -0.429687,0.09766 c -0.488282,0.109375 -0.921876,0.4375 -1.078126,0.816406 -0.1875,0.453126 -0.109374,0.488282 0.976563,0.488282 1.148437,0 1.0625,0.05078 1.671875,-1.023438 0.332031,-0.589844 0.617188,-0.925781 1.574219,-1.878906 l 1.171875,-1.164062 c 1.480468,0.675781 3.421875,1.921874 4.257812,3.332031 0.132813,0.253906 0.101563,0.414062 -0.132812,0.722656 -0.191406,0.246094 -0.199219,0.550781 -0.01563,0.597656 0.324219,0.08203 1.734375,0.07031 1.890625,-0.01563 0.09375,-0.04687 0.171875,-0.167968 0.171875,-0.265625 0,-0.101562 -0.296875,-0.695312 -0.652344,-1.320312 -0.773437,-1.363281 -0.882813,-1.613281 -1.765625,-4.214844 -0.574219,-1.695313 -0.679688,-2.09375 -0.679688,-2.535156 0,-0.917969 0.386719,-1.636719 1.273438,-2.367188 1.039062,-0.824219 0.578125,-2.160156 -0.109375,-2.972656 -0.550781,-0.652344 -0.644531,-0.871094 -0.460937,-1.078125 0.08203,-0.08594 0.25,-0.152344 0.398437,-0.152344 0.429687,0 1.085937,-0.234375 1.820313,-0.65625 0.382812,-0.21875 0.753906,-0.402344 0.824218,-0.402344 0.191406,0 0.433594,-0.292968 0.722656,-0.871093 0.140626,-0.28125 0.257813,-0.527344 0.257813,-0.554688 z m 0,0"
       id="path8" />
  </g>
</svg>
