<?xml version="1.0" encoding="UTF-8" standalone="no"?>
<svg
   width="48"
   height="48"
   viewBox="0 0 12.699752 12.699752"
   version="1.1"
   id="svg1"
   sodipodi:docname="element-desktop.svg"
   inkscape:version="1.3.2 (091e20ef0f, 2023-11-25)"
   xmlns:inkscape="http://www.inkscape.org/namespaces/inkscape"
   xmlns:sodipodi="http://sodipodi.sourceforge.net/DTD/sodipodi-0.dtd"
   xmlns="http://www.w3.org/2000/svg"
   xmlns:svg="http://www.w3.org/2000/svg">
  <defs
     id="defs1" />
  <sodipodi:namedview
     id="namedview1"
     pagecolor="#ffffff"
     bordercolor="#999999"
     borderopacity="1"
     inkscape:showpageshadow="2"
     inkscape:pageopacity="0"
     inkscape:pagecheckerboard="0"
     inkscape:deskcolor="#d1d1d1"
     inkscape:zoom="6.2265625"
     inkscape:cx="32.281054"
     inkscape:cy="30.434128"
     inkscape:window-width="1920"
     inkscape:window-height="994"
     inkscape:window-x="0"
     inkscape:window-y="0"
     inkscape:window-maximized="1"
     inkscape:current-layer="svg1" />
  <circle
     cx="6.3494868"
     cy="6.3448205"
     r="5.5561414"
     style="stroke-width:0.777735;paint-order:stroke markers fill;fill:#00b1b1;fill-opacity:1"
     id="circle1" />
  <path
     fill="#ffffff"
     d="m 5.691523,2.2344893 a 0.493862,0.493862 0 1 0 0,0.987724 2.3044299,2.3044299 0 0 1 2.3052077,2.3044298 0.49386196,0.49386196 0 1 0 0.9869461,0 A 3.2921538,3.2921538 0 0 0 5.691523,2.2344893 Z M 5.5266431,3.7160752 a 3.2921538,3.2921538 0 0 0 -3.2921538,3.2921538 0.49386196,0.49386196 0 1 0 0.9877239,0 2.3044299,2.3044299 0 0 1 2.3044299,-2.3044299 0.49386196,0.49386196 0 1 0 0,-0.9869461 z m 4.4447577,1.4815859 a 0.49386196,0.49386196 0 0 0 -0.493862,0.4938619 2.3044299,2.3044299 0 0 1 -2.3044299,2.3044299 0.493862,0.493862 0 1 0 0,0.987724 A 3.2921538,3.2921538 0 0 0 10.465263,5.691523 0.49386196,0.49386196 0 0 0 9.9714008,5.1976611 Z M 4.2099372,6.679247 a 0.49386196,0.49386196 0 0 0 -0.493862,0.4938619 3.2921538,3.2921538 0 0 0 3.2921538,3.2921531 0.49386196,0.49386196 0 1 0 0,-0.9877227 A 2.3044299,2.3044299 0 0 1 4.7037991,7.1731089 0.49386196,0.49386196 0 0 0 4.2099372,6.679247 Z"
     id="path1"
     style="stroke-width:0.777735" />
</svg>
