<?xml version="1.0" encoding="UTF-8" standalone="no"?>
<svg
   width="48"
   height="48"
   viewBox="0 0 12.699752 12.699752"
   version="1.1"
   id="svg5"
   sodipodi:docname="figma.svg"
   inkscape:version="1.3.2 (091e20ef0f, 2023-11-25)"
   xmlns:inkscape="http://www.inkscape.org/namespaces/inkscape"
   xmlns:sodipodi="http://sodipodi.sourceforge.net/DTD/sodipodi-0.dtd"
   xmlns="http://www.w3.org/2000/svg"
   xmlns:svg="http://www.w3.org/2000/svg">
  <defs
     id="defs5" />
  <sodipodi:namedview
     id="namedview5"
     pagecolor="#ffffff"
     bordercolor="#999999"
     borderopacity="1"
     inkscape:showpageshadow="2"
     inkscape:pageopacity="0"
     inkscape:pagecheckerboard="0"
     inkscape:deskcolor="#d1d1d1"
     inkscape:zoom="6.2265625"
     inkscape:cx="32.762861"
     inkscape:cy="30.755332"
     inkscape:window-width="1920"
     inkscape:window-height="994"
     inkscape:window-x="0"
     inkscape:window-y="0"
     inkscape:window-maximized="1"
     inkscape:current-layer="svg5" />
  <g
     transform="matrix(0.70003044,0,0,0.70003044,0.42341857,0.42341857)"
     id="g5">
    <circle
       cx="8.4659996"
       cy="8.4659996"
       r="7.9369998"
       style="paint-order:stroke markers fill;fill:#293753;fill-opacity:1"
       id="circle1" />
    <g
       stroke-width="0.294"
       transform="translate(16.159,-1.574)"
       id="g4">
      <path
         fill="#09c37b"
         d="m -9.677,12.025 a 1.984,1.984 0 0 0 -1.984,1.984 1.984,1.984 0 0 0 1.984,1.985 1.984,1.984 0 0 0 1.985,-1.985 v -1.984 z"
         id="path1" />
      <path
         fill="#9154dd"
         d="m -9.677,8.056 h 1.985 v 3.969 h -1.985 a 1.98,1.98 0 0 1 -1.984,-1.984 c 0,-1.1 0.885,-1.985 1.984,-1.985 z"
         id="path2" />
      <circle
         cx="-5.7080002"
         cy="10.04"
         r="1.984"
         fill="#01b1f8"
         id="circle2" />
      <path
         fill="#f24e1e"
         d="m -9.677,4.087 a 1.98,1.98 0 0 0 -1.984,1.985 1.98,1.98 0 0 0 1.984,1.984 h 1.985 V 4.087 Z"
         id="path3" />
      <path
         fill="#ff7262"
         d="m -7.692,4.087 h 1.984 c 1.1,0 1.984,0.885 1.984,1.985 a 1.98,1.98 0 0 1 -1.984,1.984 h -1.984 z"
         id="path4" />
    </g>
  </g>
</svg>
