<?xml version="1.0" encoding="UTF-8" standalone="no"?>
<svg
   width="48"
   height="48"
   version="1.1"
   id="svg8"
   sodipodi:docname="jupyter.svg"
   inkscape:version="1.3.2 (091e20ef0f, 2023-11-25)"
   xmlns:inkscape="http://www.inkscape.org/namespaces/inkscape"
   xmlns:sodipodi="http://sodipodi.sourceforge.net/DTD/sodipodi-0.dtd"
   xmlns="http://www.w3.org/2000/svg"
   xmlns:svg="http://www.w3.org/2000/svg">
  <defs
     id="defs8" />
  <sodipodi:namedview
     id="namedview8"
     pagecolor="#ffffff"
     bordercolor="#000000"
     borderopacity="0.25"
     inkscape:showpageshadow="2"
     inkscape:pageopacity="0.0"
     inkscape:pagecheckerboard="0"
     inkscape:deskcolor="#d1d1d1"
     showgrid="true"
     inkscape:zoom="11.984375"
     inkscape:cx="31.958279"
     inkscape:cy="25.324641"
     inkscape:window-width="1920"
     inkscape:window-height="994"
     inkscape:window-x="0"
     inkscape:window-y="0"
     inkscape:window-maximized="1"
     inkscape:current-layer="svg8">
    <inkscape:grid
       id="grid8"
       units="px"
       originx="0"
       originy="0"
       spacingx="1"
       spacingy="1"
       empcolor="#0099e5"
       empopacity="0.30196078"
       color="#0099e5"
       opacity="0.14901961"
       empspacing="5"
       dotted="false"
       gridanglex="30"
       gridanglez="30"
       visible="true" />
  </sodipodi:namedview>
  <circle
     style="opacity:0.2;stroke-width:0.736842"
     cx="23.981579"
     cy="24.368422"
     r="20.631578"
     id="circle1" />
  <circle
     style="fill:#e4e4e4;stroke-width:0.736842"
     cx="23.981579"
     cy="23.631578"
     r="20.631578"
     id="circle2" />
  <path
     style="opacity:0.1;stroke-width:0.736842"
     d="m 33.466982,9.632776 c -0.43691,0.01851 -0.858752,0.166416 -1.21176,0.424547 -0.352932,0.258207 -0.62142,0.615345 -0.771381,1.02611 -0.149961,0.41084 -0.174065,0.857386 -0.07052,1.282279 0.103624,0.424817 0.32974,0.809586 0.651932,1.105263 0.322189,0.295676 0.72496,0.488747 1.157073,0.55551 0.432188,0.06676 0.875781,0.0033 1.272203,-0.181333 0.396422,-0.184676 0.728702,-0.482549 0.955592,-0.856291 0.227042,-0.373814 0.338537,-0.806484 0.319491,-1.243421 -0.02542,-0.585256 -0.283591,-1.136644 -0.715255,-1.532689 C 34.622695,9.816631 34.052279,9.607943 33.46698,9.632776 Z m -9.485403,3.682771 c -2.428021,0 -4.795288,0.779994 -6.775493,2.232114 -1.980145,1.452119 -3.475279,3.504573 -4.277139,5.873149 2.158317,-2.634177 6.306249,-4.421052 11.05551,-4.421052 4.749323,0 8.896763,1.781419 11.049754,4.421052 -0.801859,-2.368576 -2.296992,-4.42103 -4.277139,-5.873149 -1.980203,-1.45212 -4.347471,-2.232114 -6.775493,-2.232114 z m -9.495477,0.0029 c -0.144009,-0.0081 -0.290057,0.0044 -0.431743,0.03886 -0.283373,0.06875 -0.539501,0.21992 -0.736842,0.434621 -0.19734,0.214702 -0.326561,0.483236 -0.3713,0.771381 -0.04474,0.288146 -0.0021,0.583234 0.120888,0.847657 0.122934,0.264357 0.320726,0.486097 0.569902,0.637541 0.249176,0.151511 0.5376,0.22559 0.828947,0.212993 0.38995,-0.01682 0.757681,-0.187642 1.021793,-0.474917 0.264112,-0.287341 0.403146,-0.667837 0.38713,-1.057772 -0.01189,-0.291362 -0.110212,-0.571816 -0.282073,-0.80736 -0.171862,-0.235608 -0.409818,-0.416339 -0.683593,-0.516653 -0.136922,-0.05016 -0.2791,-0.07821 -0.423109,-0.08635 z m -1.557155,15.470806 c 0.801859,2.368578 2.296994,4.421029 4.277139,5.87315 1.980205,1.452119 4.347471,2.232113 6.775493,2.232113 2.428022,0 4.795289,-0.779994 6.775493,-2.232113 1.980146,-1.452121 3.47528,-3.504572 4.277139,-5.87315 -2.158316,2.639632 -6.306187,4.421053 -11.05551,4.421053 -4.749261,0 -8.896761,-1.781421 -11.049754,-4.421053 z m 3.210732,6.633018 c -0.509996,0.02085 -1.002406,0.192816 -1.414679,0.493627 -0.412341,0.300812 -0.726815,0.718107 -0.902343,1.197368 -0.175529,0.479192 -0.20396,0.999287 -0.08347,1.495272 0.120489,0.495985 0.385472,0.945575 0.761307,1.290913 0.375904,0.345269 0.845543,0.570944 1.349918,0.649054 0.504374,0.07811 1.019658,0.0053 1.482319,-0.210115 0.462731,-0.215406 0.851922,-0.563888 1.116777,-1.000206 0.264923,-0.436248 0.393648,-0.940773 0.371299,-1.450658 -0.02991,-0.682074 -0.329116,-1.325499 -0.831825,-1.787417 -0.50271,-0.461851 -1.167178,-0.70571 -1.849302,-0.677838 z"
     id="path2" />
  <path
     style="fill:#767677;stroke-width:0.736842"
     d="m 35.768956,11.009138 c 0.01905,0.436937 -0.09193,0.869633 -0.318968,1.243448 -0.22689,0.373741 -0.559654,0.671798 -0.956076,0.856474 -0.396422,0.184677 -0.838732,0.247575 -1.270921,0.180812 -0.432113,-0.06676 -0.834833,-0.260214 -1.157022,-0.555891 -0.322192,-0.295677 -0.54946,-0.680272 -0.653084,-1.105088 -0.103547,-0.424892 -0.0788,-0.870898 0.07116,-1.281738 0.149962,-0.4107648 0.418393,-0.767851 0.771325,-1.026058 0.353008,-0.258131 0.774625,-0.405859 1.211535,-0.4243707 0.585299,-0.024832 1.1565,0.1837107 1.588162,0.5798297 0.431665,0.396045 0.688473,0.947326 0.713891,1.532582 z"
     id="path3" />
  <path
     style="fill:#f37726;stroke-width:0.736842"
     d="m 23.978917,32.473684 c -4.749262,0 -8.896977,-1.78142 -11.04997,-4.421052 0.801859,2.368577 2.296315,4.420962 4.27646,5.873083 1.980204,1.452119 4.34815,2.23218 6.776172,2.23218 2.428022,0 4.795968,-0.780061 6.776172,-2.23218 1.980146,-1.452121 3.474601,-3.504506 4.27646,-5.873083 -2.158316,2.639632 -6.305971,4.421052 -11.055294,4.421052 z"
     id="path4" />
  <path
     style="fill:#f37726;stroke-width:0.736842"
     d="m 23.984181,16.263158 c 4.749323,0 8.897039,1.78142 11.05003,4.421053 -0.801859,-2.368576 -2.296314,-4.420963 -4.27646,-5.873083 -1.980204,-1.45212 -4.34815,-2.232181 -6.776172,-2.232181 -2.428021,0 -4.795967,0.780061 -6.776172,2.232181 -1.980145,1.45212 -3.4746,3.504507 -4.27646,5.873083 2.158317,-2.634178 6.305972,-4.421053 11.055234,-4.421053 z"
     id="path5" />
  <path
     style="fill:#989798;stroke-width:0.736842"
     d="m 18.821204,37.15032 c 0.02235,0.509885 -0.107093,1.014955 -0.372017,1.451203 -0.264854,0.436318 -0.653182,0.784203 -1.115912,0.999608 -0.462661,0.215407 -0.978904,0.2887 -1.483278,0.210589 -0.504375,-0.07811 -0.974185,-0.304115 -1.350088,-0.649384 -0.375835,-0.345337 -0.640758,-0.794387 -0.761248,-1.290371 -0.120488,-0.495986 -0.09106,-1.016539 0.08447,-1.495731 0.175528,-0.479261 0.489313,-0.895689 0.901654,-1.196502 0.412273,-0.300811 0.904571,-0.472516 1.414568,-0.493368 0.682123,-0.02787 1.34745,0.215818 1.850159,0.677669 0.502709,0.461918 0.80178,1.104213 0.831694,1.786287 z"
     id="path6" />
  <path
     style="fill:#6f7070;stroke-width:0.736842"
     d="m 14.466252,15.524939 c -0.291347,0.0126 -0.579856,-0.06152 -0.829032,-0.213027 -0.249176,-0.151443 -0.447867,-0.37345 -0.5708,-0.637807 -0.123,-0.264423 -0.164766,-0.559404 -0.120026,-0.84755 0.04474,-0.288145 0.173957,-0.556523 0.371297,-0.771225 0.197341,-0.214701 0.453951,-0.366012 0.737324,-0.434765 0.283373,-0.06882 0.580801,-0.052 0.854644,0.04832 0.273776,0.100314 0.511667,0.279636 0.683529,0.515244 0.171861,0.235544 0.269991,0.516853 0.281885,0.808216 0.01602,0.389935 -0.123337,0.770287 -0.387449,1.057628 -0.264111,0.287275 -0.631421,0.458151 -1.021372,0.474971 z"
     id="path7" />
  <path
     style="opacity:0.2;fill:#ffffff;stroke-width:0.736842"
     d="M 23.981579,3 A 20.631579,20.631579 0 0 0 3.35,23.631579 20.631579,20.631579 0 0 0 3.3658306,24.063323 20.631579,20.631579 0 0 1 23.981579,3.7368421 20.631579,20.631579 0 0 1 44.597328,23.936677 20.631579,20.631579 0 0 0 44.613158,23.631579 20.631579,20.631579 0 0 0 23.981579,3 Z"
     id="path8" />
</svg>
