<?xml version="1.0" encoding="UTF-8" standalone="no"?>
<svg
   width="48"
   height="48"
   viewBox="0 0 12.699752 12.699752"
   version="1.1"
   id="svg5"
   sodipodi:docname="java.svg"
   inkscape:version="1.3.2 (091e20ef0f, 2023-11-25)"
   xmlns:inkscape="http://www.inkscape.org/namespaces/inkscape"
   xmlns:sodipodi="http://sodipodi.sourceforge.net/DTD/sodipodi-0.dtd"
   xmlns="http://www.w3.org/2000/svg"
   xmlns:svg="http://www.w3.org/2000/svg">
  <defs
     id="defs5" />
  <sodipodi:namedview
     id="namedview5"
     pagecolor="#ffffff"
     bordercolor="#999999"
     borderopacity="1"
     inkscape:showpageshadow="2"
     inkscape:pageopacity="0"
     inkscape:pagecheckerboard="0"
     inkscape:deskcolor="#d1d1d1"
     inkscape:zoom="6.2265625"
     inkscape:cx="31.31744"
     inkscape:cy="32.361355"
     inkscape:window-width="1920"
     inkscape:window-height="994"
     inkscape:window-x="0"
     inkscape:window-y="0"
     inkscape:window-maximized="1"
     inkscape:current-layer="svg5" />
  <circle
     cx="6.3498759"
     cy="6.3498759"
     r="5.5561414"
     style="fill:#ff9955;stroke-width:0.777746;paint-order:stroke fill markers"
     id="circle1" />
  <circle
     cx="6.3498759"
     cy="6.3498759"
     r="4.7325139"
     opacity="1"
     id="circle2"
     style="fill:#2b3a57;fill-opacity:1" />
  <path
     fill="#ff7f28"
     d="m 6.529537,5.8132421 c 0.3320929,0.3655355 -0.088662,0.6945175 -0.088662,0.6945175 0,0 0.8415095,-0.4176438 0.4573083,-0.9379486 C 6.5349811,5.0829488 6.2588851,4.8426286 7.7575808,4.0065633 c 0,0 -2.3510934,0.5630803 -1.2288216,1.8043456"
     id="path2"
     style="fill-rule:evenodd;stroke-width:0.680518" />
  <path
     d="m 8.3074395,8.2887731 c 0,0 0.1944338,0.1532138 -0.2138771,0.2722073 C 7.3173827,8.7849681 4.8636282,8.8534088 4.1815545,8.5687577 3.9373457,8.4660967 4.3969871,8.3261044 4.5408682,8.294995 4.6925265,8.2638856 4.7780774,8.2693297 4.7780774,8.2693297 4.5066478,8.0842287 3.017285,8.6317543 4.0221188,8.7865236 6.7636352,9.2135002 9.0190672,8.5952007 8.3074395,8.2887731 M 5.4352636,6.2868828 c 0,0 -1.2482649,0.2838733 -0.4425313,0.3880898 0.3422035,0.043553 1.018833,0.033443 1.6519095,-0.016332 0.5171938,-0.041998 1.0351655,-0.1314372 1.0351655,-0.1314372 0,0 -0.1827678,0.07544 -0.314205,0.1617689 C 6.0994494,7.0078433 3.6511391,6.8592959 4.3542117,6.5326471 4.9507346,6.2565511 5.4352636,6.2884383 5.4352636,6.2884383 M 7.6751408,7.4884836 C 8.9630703,6.8460744 8.3673251,6.2293304 7.9520146,6.312548 7.850909,6.3327692 7.8042449,6.3498793 7.8042449,6.3498793 c 0,0 0.037331,-0.056775 0.1088829,-0.080884 0.8243993,-0.2768737 1.4559202,0.8181774 -0.2644299,1.2513759 0,0 0.019443,-0.01711 0.025665,-0.032665"
     id="path3"
     style="fill-rule:evenodd;stroke-width:0.680518;fill:#17a2b8" />
  <path
     fill="#ff7f28"
     d="m 6.8974057,2.6634147 c 0,0 0.7131831,0.6844069 -0.6781851,1.7366826 -1.1137167,0.8438426 -0.2527639,1.3260384 0,1.8743417 C 5.5698118,5.7129142 5.0915046,5.2167192 5.4119315,4.7555223 5.8816836,4.0788927 7.1851677,3.7514662 6.8974057,2.6634147"
     id="path4"
     style="fill-rule:evenodd;stroke-width:0.680518" />
  <path
     d="m 5.5620344,9.2274994 c 1.2365989,0.076218 3.1358282,-0.042775 3.1809368,-0.6027447 0,0 -0.086329,0.2115439 -1.0227217,0.3810902 -1.0553866,0.1897674 -2.3573153,0.1679908 -3.1296063,0.046664 0,0 0.1578802,0.1244376 0.9713912,0.1749904 m 0.056775,-1.8012346 c 0,0 -1.0118335,0.2309873 -0.3585359,0.3149827 0.2768737,0.034998 0.8243992,0.027221 1.3377045,-0.013999 0.4199769,-0.033443 0.8399539,-0.105772 0.8399539,-0.105772 0,0 -0.1485474,0.061441 -0.2550971,0.1306595 C 6.1562241,8.0111216 4.1729994,7.8905727 4.7423016,7.6261427 5.2260528,7.402155 5.6188091,7.4278203 5.6188091,7.4278203"
     id="path5"
     style="fill-rule:evenodd;stroke-width:0.680518;fill:#17a2b8" />
</svg>
