<?xml version="1.0" encoding="UTF-8" standalone="no"?>
<svg
   width="48"
   height="48"
   version="1.1"
   id="svg2"
   sodipodi:docname="qemu-launcher.svg"
   inkscape:version="1.3.2 (091e20ef0f, 2023-11-25)"
   xmlns:inkscape="http://www.inkscape.org/namespaces/inkscape"
   xmlns:sodipodi="http://sodipodi.sourceforge.net/DTD/sodipodi-0.dtd"
   xmlns="http://www.w3.org/2000/svg"
   xmlns:svg="http://www.w3.org/2000/svg">
  <defs
     id="defs2" />
  <sodipodi:namedview
     id="namedview2"
     pagecolor="#ffffff"
     bordercolor="#999999"
     borderopacity="1"
     inkscape:showpageshadow="2"
     inkscape:pageopacity="0"
     inkscape:pagecheckerboard="0"
     inkscape:deskcolor="#d1d1d1"
     inkscape:zoom="6.2265625"
     inkscape:cx="26.659975"
     inkscape:cy="20.63739"
     inkscape:window-width="1920"
     inkscape:window-height="994"
     inkscape:window-x="0"
     inkscape:window-y="0"
     inkscape:window-maximized="1"
     inkscape:current-layer="svg2" />
  <g
     id="g2"
     transform="matrix(0.77777778,0,0,0.77777778,-0.88888896,-0.88888896)">
    <path
       d="M 32,5 C 46.912,5 59,17.088 59,32 59,46.912 46.911,59 32,59 17.089,59 5,46.911 5,32 5,17.089 17.088,5 32,5 Z"
       id="path1"
       style="fill:#2b3955;fill-opacity:1" />
    <path
       fill="#ff8b3c"
       d="M 32,14.495 A 17.609,17.609 0 0 0 14.391,32.104 17.609,17.609 0 0 0 26.445,48.797 c -1.63,-4.52 -2.88,-11.501 -3.637,-14.855 -0.377,-1.486 -0.152,-2.965 0.103,-4.455 0.517,-1.547 0.687,-3.159 1.394,-4.649 1.079,-0.928 1.105,-2.619 2.15,-3.43 0.157,0.093 0.261,0.13 0.334,0.166 l 0.11,0.011 h 0.01 c 0.151,-0.157 -1.464,-1.798 0.033,-1.15 0.058,-0.862 1.41,-0.203 1.43,-0.958 v -0.002 c 0.658,0.544 0.535,0.317 1.42,0.216 1.005,-0.639 1.473,1.514 1.89,0.313 1.236,0.156 2.547,0.546 3.714,0.938 a 5.712,5.712 0 0 1 3.07,1.817 h -0.024 l 0.577,0.752 c 0.071,0.129 0.142,0.264 0.2,0.399 0.233,1.936 2.442,1.909 3.921,2.608 1.266,0.437 2.79,1.101 2.947,2.589 -0.32,-0.068 -1.554,-1.476 -2.526,-1.617 -0.585,-0.035 -1.217,-0.196 -1.806,-0.41 L 38.341,26.469 V 26.457 C 38.175,26.434 37.999,26.41 37.833,26.375 v 0.012 l -4.83,-0.58 c 0.078,0.054 0.165,0.125 0.241,0.196 l 4.954,0.938 v -0.01 l 0.343,0.085 1.385,0.303 c 0.275,0.024 0.55,0.068 0.777,0.112 1.412,0.374 3.083,0.306 4.245,1.268 -0.306,0.565 -1.996,0.244 -2.84,0.172 -0.103,-0.02 -0.216,-0.03 -0.318,-0.054 -0.023,0 -0.035,-0.012 -0.058,-0.012 -1.15,-0.176 -2.325,-0.188 -3.434,0.144 h -0.012 a 5.3,5.3 0 0 0 -1.107,0.484 c -1.599,0.904 -3.569,1.234 -4.897,2.536 -1.292,1.356 -1.221,3.231 -0.995,4.971 h 0.054 v 0.444 c 0.021,0.152 0.046,0.303 0.067,0.452 0.674,3.52 2.475,6.749 3.034,10.3 0.035,0.426 0.093,0.904 0.14,1.37 A 17.609,17.609 0 0 0 49.608,32.104 17.609,17.609 0 0 0 32,14.494 Z m 2.719,8.487 c -0.533,0.014 -0.946,0.208 -1.064,0.54 -0.188,0.529 0.452,1.213 1.431,1.538 0.98,0.335 1.927,0.176 2.117,-0.353 0.188,-0.53 -0.449,-1.222 -1.435,-1.552 a 3.119,3.119 0 0 0 -1.05,-0.173 z"
       id="path2" />
  </g>
</svg>
