<?xml version="1.0" encoding="UTF-8" standalone="no"?>
<svg
   xmlns:dc="http://purl.org/dc/elements/1.1/"
   xmlns:cc="http://creativecommons.org/ns#"
   xmlns:rdf="http://www.w3.org/1999/02/22-rdf-syntax-ns#"
   xmlns:svg="http://www.w3.org/2000/svg"
   xmlns="http://www.w3.org/2000/svg"
   xmlns:xlink="http://www.w3.org/1999/xlink"
   xmlns:sodipodi="http://sodipodi.sourceforge.net/DTD/sodipodi-0.dtd"
   xmlns:inkscape="http://www.inkscape.org/namespaces/inkscape"
   viewBox="0 0 64 64"
   version="1.1"
   id="svg12"
   sodipodi:docname="system-file-manager.svg"
   inkscape:version="1.0.2 (e86c870879, 2021-01-15)">
  <metadata
     id="metadata16">
    <rdf:RDF>
      <cc:Work
         rdf:about="">
        <dc:format>image/svg+xml</dc:format>
        <dc:type
           rdf:resource="http://purl.org/dc/dcmitype/StillImage" />
        <dc:title />
      </cc:Work>
    </rdf:RDF>
  </metadata>
  <sodipodi:namedview
     pagecolor="#ffffff"
     bordercolor="#666666"
     borderopacity="1"
     objecttolerance="10"
     gridtolerance="10"
     guidetolerance="10"
     inkscape:pageopacity="0"
     inkscape:pageshadow="2"
     inkscape:window-width="1920"
     inkscape:window-height="1005"
     id="namedview14"
     showgrid="false"
     inkscape:zoom="9.8125"
     inkscape:cx="15.33758"
     inkscape:cy="32"
     inkscape:window-x="0"
     inkscape:window-y="0"
     inkscape:window-maximized="1"
     inkscape:current-layer="svg12"
     inkscape:document-rotation="0" />
  <defs
     id="defs3051">
    <style
       type="text/css"
       id="current-color-scheme">
      .ColorScheme-Text {
        color:#31363b;
      }
      .ColorScheme-Background {
        color:#eff0f1;
      }
      .ColorScheme-Highlight {
        color:#3daee9;
      }
      .ColorScheme-ViewText {
        color:#31363b;
      }
      .ColorScheme-ViewBackground {
        color:#fcfcfc;
      }
      .ColorScheme-ViewHover {
        color:#93cee9;
      }
      .ColorScheme-ViewFocus{
        color:#3daee9;
      }
      .ColorScheme-ButtonText {
        color:#31363b;
      }
      .ColorScheme-ButtonBackground {
        color:#eff0f1;
      }
      .ColorScheme-ButtonHover {
        color:#93cee9;
      }
      .ColorScheme-ButtonFocus{
        color:#3daee9;
      }
      </style>
    <linearGradient
       inkscape:collect="always"
       xlink:href="#linearGradient4227"
       id="linearGradient4225"
       gradientUnits="userSpaceOnUse"
       x1="396.57144"
       y1="498.798"
       x2="426.57144"
       y2="511.798"
       gradientTransform="matrix(0.94839619,0,0,0.42769568,-363.60237,-187.92607)" />
    <linearGradient
       id="linearGradient4227"
       inkscape:collect="always">
      <stop
         id="stop4229"
         offset="0"
         style="stop-color:#f5f5f5;stop-opacity:1" />
      <stop
         id="stop4231"
         offset="1"
         style="stop-color:#f9f9f9;stop-opacity:1" />
    </linearGradient>
  </defs>
  <path
     style="fill:currentColor;fill-opacity:1;stroke:none"
     d="M 4 6 L 4 11 L 4 20 L 3 20 L 3 21 L 3.0019531 21 C 3.0019031 21.004 3 21.008019 3 21.011719 L 3 57 L 3 58 L 4 58 L 60 58 L 61 58 L 61 57 L 61 21.011719 L 61 21 L 61 16 L 60 16 L 60 11.009766 C 60 11.006766 59.998047 11.004 59.998047 11 L 60 11 L 60 10 L 32 10 L 28 6 L 4 6 z "
     class="ColorScheme-Highlight"
     id="path4" />
  <path
     style="fill-opacity:0.33;fill-rule:evenodd"
     d="M 4 6 L 4 11 L 4 20 L 22 20 L 26 16 L 60 16 L 60 11.009766 C 60 11.006766 59.998047 11.004 59.998047 11 L 60 11 L 60 10 L 32 10 L 28 6 L 4 6 z "
     id="path6" />
  <path
     style="fill:#ffffff;fill-opacity:0.2;fill-rule:evenodd"
     d="M 28 6 L 31 11 L 33 11 L 60 11 L 60 10 L 33 10 L 32 10 L 28 6 z M 26 16 L 22 20 L 3 20 L 3 21 L 23 21 L 26 16 z "
     id="path8" />
  <path
     style="fill-opacity:0.2;fill-rule:evenodd"
     d="M 26 16 L 20 19 L 4 19 L 4 20 L 22 20 L 26 16 z M 3 57 L 3 58 L 4 58 L 60 58 L 61 58 L 61 57 L 60 57 L 4 57 L 3 57 z "
     class="ColorScheme-Text"
     id="path10" />
  <rect
     ry="1.2355354"
     rx="2.5009792"
     y="24.480003"
     x="4.1719551"
     height="7.9979792"
     width="55.847473"
     id="rect4223"
     style="color:#000000;clip-rule:nonzero;display:inline;overflow:visible;visibility:visible;isolation:auto;mix-blend-mode:normal;color-interpolation:sRGB;color-interpolation-filters:linearRGB;solid-color:#000000;solid-opacity:1;fill:url(#linearGradient4225);fill-opacity:1;fill-rule:nonzero;stroke:none;stroke-width:2.41174;stroke-linecap:butt;stroke-linejoin:miter;stroke-miterlimit:4;stroke-dasharray:none;stroke-dashoffset:0;stroke-opacity:1;marker:none;color-rendering:auto;image-rendering:auto;shape-rendering:auto;text-rendering:auto;enable-background:accumulate" />
</svg>
