<?xml version="1.0" encoding="UTF-8" standalone="no"?>
<svg
   height="48"
   width="48"
   version="1.1"
   id="svg6"
   sodipodi:docname="chromium.svg"
   inkscape:version="1.3 (0e150ed6c4, 2023-07-21)"
   xmlns:inkscape="http://www.inkscape.org/namespaces/inkscape"
   xmlns:sodipodi="http://sodipodi.sourceforge.net/DTD/sodipodi-0.dtd"
   xmlns:xlink="http://www.w3.org/1999/xlink"
   xmlns="http://www.w3.org/2000/svg"
   xmlns:svg="http://www.w3.org/2000/svg">
  <defs
     id="defs10">
    <filter
       id="filter6010"
       x="-0.15414564"
       y="-0.15378177"
       width="1.3082913"
       height="1.3075635"
       color-interpolation-filters="sRGB">
      <feGaussianBlur
         stdDeviation="0.35831154"
         id="feGaussianBlur198" />
    </filter>
    <linearGradient
       id="linearGradient5716"
       x1="60.824001"
       x2="60.824001"
       y1="-9.8147001"
       y2="-4.7736001"
       gradientTransform="matrix(2.7658052,0,0,2.6790567,-144.24491,43.509787)"
       gradientUnits="userSpaceOnUse">
      <stop
         stop-color="#88c0d0"
         offset="0"
         id="stop193" />
      <stop
         stop-color="#5e81ac"
         offset="1"
         id="stop195" />
    </linearGradient>
    <linearGradient
       id="linearGradient248"
       x1="61.740002"
       x2="54.282001"
       y1="-3.5393"
       y2="-3.6063001"
       gradientTransform="matrix(0.75551,0,0,0.75551,-37.531,13.848)"
       gradientUnits="userSpaceOnUse"
       xlink:href="#linearGradient6497" />
    <linearGradient
       id="linearGradient6497"
       x1="61.740002"
       x2="54.282001"
       y1="-3.5393"
       y2="-3.6063001"
       gradientUnits="userSpaceOnUse">
      <stop
         stop-color="#81a1c1"
         offset="0"
         id="stop211"
         style="stop-color:#5983ae;stop-opacity:1;" />
      <stop
         stop-color="#6a8fb4"
         offset="1"
         id="stop213" />
    </linearGradient>
    <linearGradient
       id="linearGradient250"
       x1="57.028999"
       x2="62.129002"
       y1="-8.2088003"
       y2="-14.574"
       gradientTransform="matrix(0.75551,0,0,0.75551,-37.531,13.848)"
       gradientUnits="userSpaceOnUse"
       xlink:href="#linearGradient6161" />
    <linearGradient
       id="linearGradient6161"
       x1="57.028999"
       x2="62.129002"
       y1="-8.2088003"
       y2="-14.574"
       gradientUnits="userSpaceOnUse">
      <stop
         stop-color="#5e81ac"
         offset="0"
         id="stop201" />
      <stop
         stop-color="#51739e"
         offset="1"
         id="stop203" />
    </linearGradient>
    <filter
       id="filter6978"
       x="-0.055050323"
       y="-0.03176919"
       width="1.1101006"
       height="1.0635384"
       color-interpolation-filters="sRGB">
      <feGaussianBlur
         stdDeviation="0.26270473"
         id="feGaussianBlur216" />
    </filter>
    <filter
       id="filter1"
       x="-0.055050325"
       y="-0.03176919"
       width="1.1101006"
       height="1.0635384"
       color-interpolation-filters="sRGB">
      <feGaussianBlur
         stdDeviation="0.26270473"
         id="feGaussianBlur1" />
    </filter>
    <filter
       id="filter1168"
       x="-0.018265046"
       y="-0.010525339"
       width="1.0365301"
       height="1.0210507"
       color-interpolation-filters="sRGB">
      <feGaussianBlur
         stdDeviation="0.092017776"
         id="feGaussianBlur226" />
    </filter>
  </defs>
  <sodipodi:namedview
     id="namedview8"
     pagecolor="#ffffff"
     bordercolor="#666666"
     borderopacity="1.0"
     inkscape:showpageshadow="2"
     inkscape:pageopacity="0.0"
     inkscape:pagecheckerboard="0"
     inkscape:deskcolor="#d1d1d1"
     showgrid="true"
     inkscape:zoom="9.8333334"
     inkscape:cx="27.864407"
     inkscape:cy="24.762712"
     inkscape:window-width="1920"
     inkscape:window-height="994"
     inkscape:window-x="0"
     inkscape:window-y="0"
     inkscape:window-maximized="1"
     inkscape:current-layer="svg6">
    <inkscape:grid
       id="grid1"
       units="px"
       originx="0"
       originy="0"
       spacingx="1"
       spacingy="1"
       empcolor="#0099e5"
       empopacity="0.30196078"
       color="#0099e5"
       opacity="0.14901961"
       empspacing="5"
       dotted="false"
       gridanglex="30"
       gridanglez="30"
       visible="true" />
  </sodipodi:namedview>
  <path
     transform="matrix(2.7658056,0,0,2.6790567,-144.24491,43.509786)"
     d="m 63.62,-6.8319 a 2.7894,2.796 0 0 1 -2.7894,2.796 2.7894,2.796 0 0 1 -2.7894,-2.796 2.7894,2.796 0 0 1 2.7894,-2.796 2.7894,2.796 0 0 1 2.7894,2.796 z"
     fill="#5e81ac"
     fill-rule="evenodd"
     filter="url(#filter6010)"
     opacity="0.51139"
     stroke-width="0.3502"
     id="path247" />
  <path
     d="m 31.717274,23.999916 a 7.714865,7.4906208 0 0 1 -7.714855,7.490618 7.714865,7.4906208 0 0 1 -7.71487,-7.490618 7.714865,7.4906208 0 0 1 7.71487,-7.490619 7.714865,7.4906208 0 0 1 7.714855,7.490619 z"
     fill-rule="evenodd"
     stroke-width="0.953282"
     id="path249"
     style="fill:url(#linearGradient5716)" />
  <g
     stroke-width="0.99999"
     id="g257"
     transform="matrix(3.6608453,0,0,3.5460242,-6.8497237,-5.595554)">
    <path
       d="m 3.6564,5.1559 a 5.7366,5.7502 0 0 0 -0.96584,3.1901 5.7366,5.7502 0 0 0 5.7364,5.7504 5.7366,5.7502 0 0 0 0.18662,-0.0036 l 2.3277,-3.7952 -0.65082,-0.13235 a 2.5834,2.5895 0 0 1 -1.8716,0.80892 2.5834,2.5895 0 0 1 -2.5143,-1.9981 z"
       id="path251"
       style="fill:url(#linearGradient248)" />
    <path
       d="m 8.8573,5.8335 c 1.2494,0.20469 2.1446,1.2824 2.1445,2.5514 -0.0016,0.73463 -0.31437,1.434 -0.86045,1.924 l -2.1965,3.7655 c 0.16021,0.01405 0.32094,0.02135 0.48177,0.02187 3.1684,6.6e-5 5.7368,-2.5746 5.7367,-5.7504 -9.82e-4,-0.86468 -0.20663,-1.728 -0.58218,-2.5064"
       id="path253"
       style="fill:#63a5c0;fill-opacity:1" />
    <path
       d="M 5.9456,9.1239 A 2.5834,2.5895 0 0 1 5.83499,8.38498 2.5834,2.5895 0 0 1 8.41839,5.79538 2.5834,2.5895 0 0 1 8.85721,5.833639 l 3.996e-4,-3.898e-4 4.7389004,0.021472 a 5.7366,5.7502 0 0 0 -5.1699004,-3.2587 5.7366,5.7502 0 0 0 -4.7704,2.561"
       id="path255"
       style="fill:url(#linearGradient250)" />
  </g>
  <g
     transform="matrix(2.7658056,0,0,2.6790567,-144.24491,43.509786)"
     fill="#2e3440"
     stroke-width="1.3236"
     id="g265">
    <path
       transform="scale(0.26458)"
       d="m 206.05,-43.479 11.453,19.846 a 12.924,12.955 0 0 1 -0.55273,-3.6973 12.924,12.955 0 0 1 0.42773,-3.2441 z"
       filter="url(#filter6978)"
       opacity="0.13362"
       id="path259" />
    <path
       transform="matrix(-0.13257,-0.22897,0.22897,-0.13257,97.304,41.971)"
       d="m 206.05,-43.479 11.453,19.846 a 12.924,12.955 0 0 1 -0.55273,-3.6973 12.924,12.955 0 0 1 0.42773,-3.2441 z"
       filter="url(#filter6978)"
       opacity="0.13362"
       id="path261" />
    <path
       transform="matrix(-0.13456,0.2278,-0.2278,-0.13456,85.283,-63.45)"
       d="m 205.95,-44.255 12.091,20.982 c -0.36162,-1.1992 -0.77479,-2.6286 -1.0949,-4.0573 0.005,-1.0952 -0.0229,-2.4761 0.25592,-3.535 z"
       filter="url(#filter1168)"
       opacity="0.13362"
       style="mix-blend-mode:normal"
       id="path263" />
  </g>
</svg>
