<?xml version="1.0" encoding="UTF-8" standalone="no"?>
<svg
   width="48"
   height="48"
   version="1.1"
   id="svg7"
   sodipodi:docname="waveform11.svg"
   inkscape:version="1.4 (e7c3feb100, 2024-10-09)"
   xmlns:inkscape="http://www.inkscape.org/namespaces/inkscape"
   xmlns:sodipodi="http://sodipodi.sourceforge.net/DTD/sodipodi-0.dtd"
   xmlns:xlink="http://www.w3.org/1999/xlink"
   xmlns="http://www.w3.org/2000/svg"
   xmlns:svg="http://www.w3.org/2000/svg">
  <defs
     id="defs7">
    <linearGradient
       id="linearGradient7"
       inkscape:collect="always">
      <stop
         style="stop-color:#a8cbfe;stop-opacity:1"
         offset="0"
         id="stop7" />
      <stop
         style="stop-color:#cbbbe9;stop-opacity:1"
         offset="1"
         id="stop8" />
    </linearGradient>
    <linearGradient
       inkscape:collect="always"
       xlink:href="#linearGradient7"
       id="linearGradient8"
       x1="32.616634"
       y1="49.714283"
       x2="32.42321"
       y2="14.279902"
       gradientUnits="userSpaceOnUse" />
  </defs>
  <sodipodi:namedview
     id="namedview7"
     pagecolor="#ffffff"
     bordercolor="#000000"
     borderopacity="0.25"
     inkscape:showpageshadow="2"
     inkscape:pageopacity="0.0"
     inkscape:pagecheckerboard="0"
     inkscape:deskcolor="#d1d1d1"
     inkscape:zoom="11.75"
     inkscape:cx="32.042553"
     inkscape:cy="19.446809"
     inkscape:window-width="1920"
     inkscape:window-height="998"
     inkscape:window-x="0"
     inkscape:window-y="0"
     inkscape:window-maximized="1"
     inkscape:current-layer="svg7" />
  <g
     id="g7"
     transform="matrix(0.73660715,0,0,0.73684211,0.4285712,0.05263142)">
    <circle
       style="opacity:0.2"
       cx="32"
       cy="33"
       r="28"
       id="circle1" />
    <circle
       style="fill:#3c4153"
       cx="32"
       cy="32"
       r="28"
       id="circle2" />
    <path
       style="opacity:0.2"
       d="m 32.003906,10.999831 c -1.940578,0 -2.811158,0.07419 -4.242188,0.367187 -1.182844,0.242245 -3.098974,0.787579 -3.36328,0.957032 -0.06702,0.04293 0.70358,0.843321 3.71875,3.871093 2.090988,2.09972 3.840072,3.820313 3.886718,3.820313 0.04668,0 1.795744,-1.720593 3.886718,-3.820313 3.01517,-3.027772 3.785764,-3.828139 3.718752,-3.871093 -0.264304,-0.169453 -2.180426,-0.714787 -3.363282,-0.957032 -1.431016,-0.293042 -2.301608,-0.367187 -4.242188,-0.367187 z m 13.132812,4.28125 c -0.09112,-0.03719 -8.964844,8.844201 -8.964842,8.972655 0,0.09312 4.442926,4.582032 4.535156,4.582032 0.03148,0 0.449896,-0.398688 0.929686,-0.882814 0.479806,-0.484124 1.448622,-1.440324 2.152344,-2.125 l 1.277344,-1.242186 0.234376,0.355468 c 0.571756,0.882358 1.305282,2.570502 1.652342,3.79297 0.4271,1.504376 0.566408,2.566632 0.566408,4.3125 0,1.486774 -0.04198,1.985544 -0.285156,3.156248 -0.2628,1.265182 -0.644196,2.39751 -1.179688,3.527344 -0.382114,0.80621 -0.910822,1.710938 -1,1.710938 -0.03762,0 -2.988232,-2.9318 -6.558594,-6.515624 l -6.492188,-6.515626 -6.492188,6.515626 c -3.570346,3.583824 -6.520934,6.515624 -6.558593,6.515624 -0.08917,0 -0.617886,-0.904728 -1,-1.710938 -0.685387,-1.446144 -1.154018,-3.04059 -1.390625,-4.734374 -0.100032,-0.716176 -0.100032,-3.182246 0,-3.898438 0.167964,-1.20236 0.455436,-2.376032 0.863281,-3.503906 0.26418,-0.730608 0.932364,-2.113924 1.28125,-2.652344 l 0.234375,-0.355468 1.222656,1.1875 c 0.672736,0.653564 1.641554,1.609792 2.152344,2.125 0.510802,0.515208 0.953196,0.9375 0.984376,0.9375 0.09224,0 4.535156,-4.48891 4.535156,-4.582032 0,-0.04684 -2.00203,-2.094442 -4.44922,-4.55078 -4.301611,-4.317704 -4.45537,-4.463383 -4.578124,-4.386719 -0.249202,0.155653 -1.211532,0.962847 -1.785156,1.496094 -5.179178,4.814621 -7.7554852,11.976465 -6.839844,19.007811 0.467266,3.588088 1.807327,7.015084 3.902344,9.976564 0.746005,1.054554 1.298011,1.702938 2.394531,2.80078 0.965072,0.966224 2.279733,2.113876 2.425781,2.117188 0.03065,6.86e-4 2.972092,-2.923894 6.535156,-6.5 3.563046,-3.576106 6.516162,-6.503906 6.5625,-6.503906 0.0464,0 2.976278,2.902334 6.507812,6.449218 3.531532,3.546898 6.463274,6.476406 6.519532,6.507812 0.253506,0.1415 2.977734,-2.402784 4.140626,-3.867186 1.999106,-2.517448 3.441242,-5.468364 4.199218,-8.582032 0.750084,-3.081324 0.831212,-6.453444 0.226562,-9.496094 C 52.68618,24.13586 50.372664,19.97951 46.957032,16.7928 46.384202,16.258366 45.275118,15.33757 45.136718,15.281081 Z M 32.003906,46.109206 c -0.04654,0 -1.765978,1.692904 -3.820312,3.765624 l -3.734376,3.769532 0.328126,0.125 c 1.542236,0.582746 4.04618,1.077284 5.996094,1.183592 1.176086,0.06404 1.218468,0.0614 2.328124,0 1.218622,-0.06726 2.072074,-0.17344 3.238282,-0.402342 0.861598,-0.16912 2.273376,-0.550408 2.898438,-0.785158 l 0.320312,-0.1211 -3.734376,-3.769532 c -2.05432,-2.07272 -3.773848,-3.765624 -3.820312,-3.765624 z"
       id="path2" />
    <path
       style="fill:#3485fd"
       d="m 33.10259,53.954428 c 1.218622,-0.06726 2.07249,-0.17326 3.238698,-0.402162 0.861598,-0.16912 2.271574,-0.552166 2.896636,-0.786914 l 0.321092,-0.12054 -3.735136,-3.768574 c -2.05432,-2.07272 -3.773156,-3.768588 -3.81962,-3.768588 -0.04654,0 -1.7653,1.695868 -3.819634,3.768588 l -3.735134,3.768574 0.327472,0.12376 c 1.542236,0.582746 4.04568,1.076686 5.995594,1.182994 1.176086,0.06404 1.220376,0.0642 2.330032,0.0028 z"
       id="path3" />
    <path
       style="fill:url(#linearGradient8)"
       d="m 25.44215,43.213538 c 3.563046,-3.576106 6.51619,-6.502018 6.562528,-6.502018 0.0464,0 2.97368,2.902016 6.505214,6.4489 3.531532,3.546898 6.466998,6.474598 6.523256,6.506004 0.253506,0.1415 2.97531,-2.400664 4.138202,-3.865066 1.999108,-2.517448 3.443398,-5.467324 4.201374,-8.580992 0.750084,-3.081324 0.830222,-6.45593 0.225572,-9.49858 -0.911476,-4.586626 -3.22411,-8.741114 -6.639742,-11.927825 -0.57283,-0.534434 -1.683798,-1.457453 -1.822198,-1.513942 -0.09112,-0.03719 -8.964048,8.846319 -8.964048,8.974773 0,0.09312 4.442352,4.580084 4.534582,4.580084 0.03148,0 0.449838,-0.396122 0.929628,-0.880248 0.479806,-0.484126 1.448138,-1.440408 2.15186,-2.125084 l 1.279488,-1.24485 0.232122,0.358228 c 0.571756,0.882358 1.307242,2.567222 1.654304,3.789688 0.427098,1.504378 0.56695,2.568562 0.56695,4.31443 0,1.486776 -0.04556,1.984646 -0.288742,3.15535 -0.2628,1.26518 -0.64111,2.400172 -1.176602,3.530006 -0.382114,0.80621 -0.910876,1.710716 -1.000054,1.710716 -0.03762,0 -2.989676,-2.932232 -6.560038,-6.516056 L 32.00426,27.410998 25.5127,33.927056 c -3.570346,3.583824 -6.522363,6.516056 -6.560022,6.516056 -0.08917,0 -0.617955,-0.904506 -1.000069,-1.710716 -0.685386,-1.446144 -1.153698,-3.040974 -1.390305,-4.734758 -0.100032,-0.716176 -0.100032,-3.185018 0,-3.90121 0.167964,-1.20236 0.45757,-2.374432 0.865416,-3.502306 0.26418,-0.730608 0.931914,-2.112766 1.2808,-2.651186 l 0.232122,-0.358214 1.223176,1.18832 c 0.672736,0.653564 1.641096,1.609862 2.151886,2.12507 0.510802,0.515208 0.954246,0.936764 0.985426,0.936764 0.09224,0 4.535072,-4.486444 4.535072,-4.579566 0,-0.04684 -2.002242,-2.09494 -4.449432,-4.55128 -4.301612,-4.317703 -4.453652,-4.463455 -4.576407,-4.38679 -0.249202,0.155653 -1.213452,0.962952 -1.787076,1.496199 -5.179178,4.814623 -7.7568686,11.976611 -6.841228,19.007957 0.467267,3.588088 1.807417,7.013746 3.902433,9.975226 0.746005,1.054554 1.300946,1.702818 2.397465,2.80066 0.965073,0.966224 2.280104,2.113688 2.426152,2.117 0.03065,6.86e-4 2.970977,-2.924638 6.534041,-6.500744 z"
       id="path4" />
    <path
       style="fill:#984ee5"
       d="m 35.890838,15.197068 c 3.01517,-3.027773 3.784316,-3.828893 3.717302,-3.871847 -0.264304,-0.169452 -2.17968,-0.714332 -3.362536,-0.956577 -1.431016,-0.293042 -2.300764,-0.3686452 -4.241344,-0.3686452 -1.940578,0 -2.810326,0.075644 -4.241356,0.3686452 -1.182844,0.242245 -3.098218,0.787125 -3.362524,0.956577 -0.06702,0.04293 0.70212,0.844074 3.71729,3.871847 2.090988,2.09972 3.839944,3.817679 3.88659,3.817679 0.04668,0 1.795604,-1.717959 3.886578,-3.817679 z"
       id="path5" />
    <path
       style="opacity:0.2;fill:#ffffff"
       d="m 32.003906,10 c -1.940578,0 -2.811157,0.07419 -4.242187,0.367188 -1.182844,0.242243 -3.098975,0.787578 -3.363281,0.957031 -0.02691,0.01723 0.255282,0.326362 0.662109,0.753906 0.72983,-0.233206 1.879346,-0.542629 2.701172,-0.710937 C 29.192749,11.074189 30.063328,11 32.003906,11 c 1.94058,0 2.811172,0.07414 4.242188,0.367188 0.821834,0.168308 1.971344,0.477731 2.701172,0.710937 0.406825,-0.427539 0.689013,-0.736661 0.662109,-0.753906 C 39.345071,11.154766 37.42895,10.609431 36.246094,10.367188 34.815078,10.074144 33.944486,10 32.003906,10 Z m 13.132813,4.28125 c -0.09112,-0.03719 -8.964846,8.844202 -8.964844,8.972656 0,0.01 0.283968,0.291235 0.484375,0.490235 1.29029,-1.388205 8.397296,-8.496837 8.480469,-8.462891 0.1384,0.05649 1.247482,0.977285 1.820312,1.511719 3.415632,3.186711 5.729149,7.343061 6.640625,11.929687 0.228753,1.151144 0.340683,2.350864 0.367188,3.5625 0.03018,-1.55086 -0.0756,-3.095159 -0.367188,-4.5625 C 52.68618,23.13603 50.372663,18.97968 46.957031,15.792969 46.384201,15.258535 45.275119,14.337739 45.136719,14.28125 Z m -26.273438,0.02539 c -0.02435,-0.0051 -0.03934,1.82e-4 -0.05469,0.0098 -0.249202,0.155653 -1.211533,0.962847 -1.785156,1.496094 -4.601351,4.277468 -7.105774,10.408879 -6.972657,16.654297 0.14047,-5.894924 2.617548,-11.605739 6.972657,-15.654297 0.573623,-0.533247 1.535954,-1.340441 1.785156,-1.496094 0.122754,-0.07666 0.276515,0.06901 4.578125,4.386719 2.17634,2.184477 3.579879,3.6287 3.957031,4.046875 0.20509,-0.202666 0.492188,-0.486 0.492188,-0.496094 0,-0.04684 -2.002029,-2.094442 -4.449219,-4.550781 -3.763909,-3.777991 -4.35296,-4.360928 -4.523438,-4.396484 z m 13.140625,13.103515 -6.492187,6.515625 c -3.570346,3.583824 -6.520935,6.515625 -6.558594,6.515625 -0.08917,0 -0.617886,-0.904727 -1,-1.710937 -0.685387,-1.446144 -1.154018,-3.040591 -1.390625,-4.734375 -0.02436,-0.17438 -0.02266,-0.617891 -0.03516,-0.949219 -0.02312,0.612875 -0.02537,1.294376 -0.01367,1.904297 0.0042,-0.308512 0.0031,-0.62358 0.01367,-0.904297 0.0125,0.331328 0.0108,0.774839 0.03516,0.949219 0.236607,1.693784 0.705238,3.288231 1.390625,4.734375 0.382114,0.80621 0.91083,1.710937 1,1.710937 0.03766,0 2.988248,-2.931801 6.558594,-6.515625 l 6.492187,-6.515625 6.492188,6.515625 c 3.570362,3.583824 6.520974,6.515625 6.558594,6.515625 0.08918,0 0.617885,-0.904727 1,-1.710937 0.535491,-1.129834 0.916887,-2.262162 1.179687,-3.527344 0.151012,-0.726962 0.212134,-1.264864 0.246094,-1.871094 0.0039,0.125222 0.01065,0.246998 0.01953,0.361328 0.0041,-0.22295 0.01953,-0.363328 0.01953,-0.646484 0,-0.277832 -0.03142,-0.4671 -0.03906,-0.714844 -0.03396,0.60623 -0.09508,1.144132 -0.246094,1.871094 -0.2628,1.265182 -0.644196,2.39751 -1.179687,3.527344 -0.382115,0.80621 -0.910823,1.710937 -1,1.710937 -0.03762,0 -2.988232,-2.931801 -6.558594,-6.515625 z m 0,17.699219 c -0.04654,0 -1.765978,1.692905 -3.820312,3.765625 l -3.734375,3.769531 0.328125,0.125 c 0.120446,0.04551 0.276627,0.08528 0.410156,0.128907 L 28.183594,49.875 c 2.054334,-2.07272 3.773772,-3.765625 3.820312,-3.765625 0.04646,0 1.765993,1.692905 3.820313,3.765625 l 2.980469,3.007812 c 0.142728,-0.03755 0.340101,-0.08207 0.433593,-0.117187 L 39.558594,52.644531 35.824219,48.875 c -2.05432,-2.07272 -3.773849,-3.765625 -3.820313,-3.765626 z"
       id="path6" />
    <path
       style="opacity:0.1;fill:#ffffff"
       d="M 32,4 A 28,28 0 0 0 4,32 28,28 0 0 0 4.0175781,32.492188 28,28 0 0 1 32,5 28,28 0 0 1 59.974609,32.492188 28,28 0 0 0 60,32 28,28 0 0 0 32,4 Z"
       id="path7" />
  </g>
</svg>
