<?xml version="1.0" encoding="UTF-8" standalone="no"?>
<svg
   width="48"
   height="48"
   version="1.1"
   id="svg10"
   sodipodi:docname="acroread.svg"
   inkscape:version="1.2.1 (9c6d41e410, 2022-07-14)"
   xmlns:inkscape="http://www.inkscape.org/namespaces/inkscape"
   xmlns:sodipodi="http://sodipodi.sourceforge.net/DTD/sodipodi-0.dtd"
   xmlns="http://www.w3.org/2000/svg"
   xmlns:svg="http://www.w3.org/2000/svg">
  <defs
     id="defs14" />
  <sodipodi:namedview
     id="namedview12"
     pagecolor="#ffffff"
     bordercolor="#666666"
     borderopacity="1.0"
     inkscape:showpageshadow="2"
     inkscape:pageopacity="0.0"
     inkscape:pagecheckerboard="0"
     inkscape:deskcolor="#d1d1d1"
     showgrid="true"
     inkscape:zoom="10.429825"
     inkscape:cx="29.051302"
     inkscape:cy="34.516399"
     inkscape:window-width="1920"
     inkscape:window-height="1011"
     inkscape:window-x="0"
     inkscape:window-y="0"
     inkscape:window-maximized="1"
     inkscape:current-layer="svg10">
    <inkscape:grid
       type="xygrid"
       id="grid243"
       originx="0"
       originy="0" />
  </sodipodi:namedview>
  <circle
     cx="24.000019"
     cy="24"
     r="21"
     fill="#3d4144"
     stroke-width="2.93971"
     style="paint-order:stroke fill markers"
     id="circle2" />
  <path
     d="m 18.555561,3.7261268 a 21.000009,21.000009 0 0 0 -6.222303,2.833134 V 21.663707 l 3.112666,-3.112664 3.109565,3.109558 V 3.725815 Z"
     fill="#24a9f7"
     stroke-width="2.93971"
     id="path4" />
  <path
     d="M 10.777787,7.6985488 A 21.000009,21.000009 0 0 0 3,24.000001 21.000009,21.000009 0 0 0 10.777787,40.295229 Z"
     fill-rule="evenodd"
     opacity="0.2"
     stroke-width="4.61054"
     style="paint-order:fill markers stroke"
     id="path6" />
  <path
     d="m 37.006798,17.782442 v 0.0091 c -0.119009,0 -0.24118,-5.08e-4 -0.353955,0.02125 -2.074877,0.237791 -4.229564,4.32989 -4.38411,8.393004 -2.73746,1.734134 -5.650549,3.339312 -8.561776,4.583129 -1.407782,-0.477424 -4.734021,-1.710646 -6.895161,-1.227408 -1.347032,0.293269 -2.310616,1.846597 -2.096341,2.918227 -0.015,-0.03745 -0.04064,-0.07054 -0.04406,-0.112419 0.0046,0.104992 0.04187,0.216824 0.09571,0.329646 0.0048,0.0134 0.0047,0.02934 0.01065,0.0425 -0.0021,-0.01137 -0.0023,-0.0207 -0.0043,-0.03194 0.333236,0.682596 1.417114,1.434073 1.70746,1.434073 1.578968,0.295799 4.821137,-0.675417 6.807115,-1.412761 3.393601,1.5288 7.495992,3.567281 10.48056,5.230247 0.454586,1.211778 1.148778,2.424962 1.932313,3.459017 A 21.000009,21.000009 0 0 0 37.0499,40.453478 c -0.07808,-0.201826 -0.156333,-0.404324 -0.232465,-0.618253 l 0.04104,-0.0425 c 0.204429,0.122821 0.323316,0.194615 0.557513,0.340273 a 21.000009,21.000009 0 0 0 1.58898,-1.468989 c -0.781045,-0.799709 -1.727133,-1.584408 -2.834616,-2.274063 0.03485,0.130236 0.04501,0.270017 0.04407,0.413198 -0.650307,-2.81531 -1.127505,-6.40266 -1.434105,-9.422767 4.680435,-3.358531 7.102591,-7.707944 3.389091,-9.306123 C 37.7486,17.782598 37.3643,17.804379 37.0073,17.782598 Z m 0.252167,0.244577 c 0.286158,0.01519 0.600165,0.08999 0.943364,0.23242 2.552746,1.059799 0.295,3.702617 -3.64428,6.445519 0.04676,-3.92832 0.705593,-6.783619 2.700988,-6.677917 z m -4.78365,10.500005 c 0.359465,2.620409 0.475485,3.652364 0.917548,7.150416 -2.215891,-1.289472 -4.757747,-2.760951 -7.086573,-3.837245 2.246144,-0.921734 4.145326,-2.012026 6.169025,-3.313171 z m -15.606895,2.43359 c 0.428709,0.01365 0.878343,0.06886 1.303399,0.135199 0.06541,0.0056 0.211528,0.01766 0.284083,0.02431 0.930915,0.132079 1.572585,0.251943 2.002155,0.367625 v 0.01671 c 0.265574,0.107814 0.57342,0.242807 0.861315,0.364584 -1.615603,0.986763 -5.901242,1.59102 -6.560957,0.715487 -0.18757,-1.35419 0.871424,-1.663428 2.110034,-1.623917 z"
     fill="#d52337"
     stroke-width="2.93971"
     style="paint-order:stroke fill markers"
     id="path8" />
</svg>
