<?xml version="1.0" encoding="UTF-8" standalone="no"?>
<svg
   xmlns:dc="http://purl.org/dc/elements/1.1/"
   xmlns:cc="http://creativecommons.org/ns#"
   xmlns:rdf="http://www.w3.org/1999/02/22-rdf-syntax-ns#"
   xmlns:svg="http://www.w3.org/2000/svg"
   xmlns="http://www.w3.org/2000/svg"
   xmlns:xlink="http://www.w3.org/1999/xlink"
   xmlns:sodipodi="http://sodipodi.sourceforge.net/DTD/sodipodi-0.dtd"
   xmlns:inkscape="http://www.inkscape.org/namespaces/inkscape"
   version="1.1"
   id="svg2"
   height="48"
   width="48"
   sodipodi:docname="zeal.svg"
   inkscape:version="0.92.3 (2405546, 2018-03-11)">
  <metadata
     id="metadata38">
    <rdf:RDF>
      <cc:Work
         rdf:about="">
        <dc:format>image/svg+xml</dc:format>
        <dc:type
           rdf:resource="http://purl.org/dc/dcmitype/StillImage" />
        <dc:title />
      </cc:Work>
    </rdf:RDF>
  </metadata>
  <sodipodi:namedview
     pagecolor="#ffffff"
     bordercolor="#666666"
     borderopacity="1"
     objecttolerance="10"
     gridtolerance="10"
     guidetolerance="10"
     inkscape:pageopacity="0"
     inkscape:pageshadow="2"
     inkscape:window-width="1920"
     inkscape:window-height="1026"
     id="namedview36"
     showgrid="true"
     inkscape:zoom="16.15"
     inkscape:cx="9.6692898"
     inkscape:cy="20.516902"
     inkscape:window-x="0"
     inkscape:window-y="30"
     inkscape:window-maximized="1"
     inkscape:current-layer="svg2">
    <inkscape:grid
       type="xygrid"
       id="grid890" />
  </sodipodi:namedview>
  <defs
     id="defs4">
    <linearGradient
       inkscape:collect="always"
       id="linearGradient921">
      <stop
         style="stop-color:#000000;stop-opacity:1;"
         offset="0"
         id="stop917" />
      <stop
         style="stop-color:#000000;stop-opacity:0;"
         offset="1"
         id="stop919" />
    </linearGradient>
    <linearGradient
       inkscape:collect="always"
       id="linearGradient898">
      <stop
         style="stop-color:#ac2e2e;stop-opacity:1"
         offset="0"
         id="stop894" />
      <stop
         style="stop-color:#d66133;stop-opacity:1"
         offset="1"
         id="stop896" />
    </linearGradient>
    <linearGradient
       id="linearGradient884"
       y1="8"
       y2="4"
       x2="0"
       gradientUnits="userSpaceOnUse"
       gradientTransform="translate(1)">
      <stop
         id="stop882"
         stop-color="#4d5662"
         offset="0" />
      <stop
         id="stop880"
         stop-color="#2f3943"
         offset="1" />
    </linearGradient>
    <style
       type="text/css"
       id="current-color-scheme">
   .ColorScheme-Text { color:#4d4d4d; }
  </style>
    <style
       type="text/css"
       id="current-color-scheme-2">
   .ColorScheme-Text { color:#4d4d4d; }
  </style>
    <style
       type="text/css"
       id="current-color-scheme-6">
   .ColorScheme-Text { color:#4d4d4d; }
  </style>
    <linearGradient
       inkscape:collect="always"
       xlink:href="#linearGradient884"
       id="linearGradient4521"
       x1="6"
       y1="24"
       x2="14"
       y2="24"
       gradientUnits="userSpaceOnUse" />
    <linearGradient
       inkscape:collect="always"
       xlink:href="#linearGradient898"
       id="linearGradient900"
       x1="39.829269"
       y1="44.919323"
       x2="27.958725"
       y2="3.0806754"
       gradientUnits="userSpaceOnUse" />
    <linearGradient
       inkscape:collect="always"
       xlink:href="#linearGradient921"
       id="linearGradient923"
       x1="29.32811"
       y1="-3.3867626"
       x2="35.199646"
       y2="-3.3867626"
       gradientUnits="userSpaceOnUse" />
    <linearGradient
       inkscape:collect="always"
       xlink:href="#linearGradient921"
       id="linearGradient925"
       x1="17.988281"
       y1="28.523438"
       x2="32.893929"
       y2="43.429085"
       gradientUnits="userSpaceOnUse" />
  </defs>
  <path
     style="fill:url(#linearGradient900);stroke-width:2;stroke-linejoin:bevel;fill-opacity:1"
     d="M 13,44 44,44 44,4 13,4 Z"
     id="path30" />
  <path
     style="fill:url(#linearGradient4521);stroke-width:2;stroke-linejoin:bevel;fill-opacity:1.0"
     d="M 6,44 6,4 14,4 14,44 Z"
     id="path32" />
  <rect
     transform="matrix(0,-1,1,0,0,0)"
     id="rect36"
     height="1"
     y="13"
     x="-44"
     width="40"
     style="fill:#1e242a;stroke-width:2;stroke-linecap:round;stroke-linejoin:bevel;fill-opacity:1" />
  <path
     style="color:#000000;font-style:normal;font-variant:normal;font-weight:normal;font-stretch:normal;font-size:medium;line-height:normal;font-family:sans-serif;font-variant-ligatures:normal;font-variant-position:normal;font-variant-caps:normal;font-variant-numeric:normal;font-variant-alternates:normal;font-feature-settings:normal;text-indent:0;text-align:start;text-decoration:none;text-decoration-line:none;text-decoration-style:solid;text-decoration-color:#000000;letter-spacing:normal;word-spacing:normal;text-transform:none;writing-mode:lr-tb;direction:ltr;text-orientation:mixed;dominant-baseline:auto;baseline-shift:baseline;text-anchor:start;white-space:normal;shape-padding:0;clip-rule:nonzero;display:inline;overflow:visible;visibility:visible;opacity:1;isolation:auto;mix-blend-mode:normal;color-interpolation:sRGB;color-interpolation-filters:linearRGB;solid-color:#000000;solid-opacity:1;vector-effect:none;fill:#2f3943;fill-opacity:1;fill-rule:nonzero;stroke:none;stroke-width:1;stroke-linecap:butt;stroke-linejoin:bevel;stroke-miterlimit:4;stroke-dasharray:2, 1;stroke-dashoffset:0;stroke-opacity:1;color-rendering:auto;image-rendering:auto;shape-rendering:auto;text-rendering:auto;enable-background:accumulate"
     d="m 15,5.5 v 1 h 1 V 6 h 0.5 V 5 h -1 z M 17.5,6 h 2 V 5 h -2 z m 3,0 h 2 V 5 h -2 z m 3,0 h 2 V 5 h -2 z m 3,0 h 2 V 5 h -2 z m 3,0 h 2 V 5 h -2 z m 3,0 h 2 V 5 h -2 z m 3,0 h 2 V 5 h -2 z m 3,0 h 2 V 5 h -2 z m 3,0 H 42 v 0.5 h 1 v -1 L 42.5,5 h -1 z M 15,9.5 h 1 v -2 h -1 z m 27,0 h 1 v -2 h -1 z m -27,3 h 1 v -2 h -1 z m 27,0 h 1 v -2 h -1 z m -27,3 h 1 v -2 h -1 z m 27,0 h 1 v -2 h -1 z m -27,3 h 1 v -2 h -1 z m 27,0 h 1 v -2 h -1 z m -27,3 h 1 v -2 h -1 z m 27,0 h 1 v -2 h -1 z m -27,3 h 1 v -2 h -1 z m 27,0 h 1 v -2 h -1 z m -27,3 h 1 v -2 h -1 z m 27,0 h 1 v -2 h -1 z m -27,3 h 1 v -2 h -1 z m 27,0 h 1 v -2 h -1 z m -27,3 h 1 v -2 h -1 z m 27,0 h 1 v -2 h -1 z m -27,3 h 1 v -2 h -1 z m 27,0 h 1 v -2 h -1 z m -27,3 h 1 v -2 h -1 z m 27,0 h 1 v -2 h -1 z m -27,3 h 0.5 V 43 h 2 V 42 H 16 v -1.5 h -1 z m 27,0 h 1 v -2 H 42 Z M 18.5,43 h 2 v -1 h -2 z m 3,0 h 2 v -1 h -2 z m 3,0 h 2 v -1 h -2 z m 3,0 h 2 v -1 h -2 z m 3,0 h 2 v -1 h -2 z m 3,0 h 2 v -1 h -2 z m 3,0 h 2 v -1 h -2 z m 3,0 h 2 v -1 h -2 z"
     id="path888"
     inkscape:connector-curvature="0" />
  <rect
     style="opacity:1;fill:#1e242a;fill-opacity:1;stroke:none;stroke-width:0.82173836;stroke-linecap:round;stroke-linejoin:round;stroke-miterlimit:4;stroke-dasharray:1.6434768, 0.82173839999999998;stroke-dashoffset:0;stroke-opacity:1;paint-order:normal"
     id="rect902"
     width="7"
     height="2"
     x="6"
     y="14" />
  <rect
     y="30"
     x="6"
     height="2"
     width="7"
     id="rect904"
     style="opacity:1;fill:#1e242a;fill-opacity:1;stroke:none;stroke-width:0.82173836;stroke-linecap:round;stroke-linejoin:round;stroke-miterlimit:4;stroke-dasharray:1.6434768, 0.8217384;stroke-dashoffset:0;stroke-opacity:1;paint-order:normal" />
  <path
     style="opacity:0.3;fill:url(#linearGradient925);fill-opacity:1;stroke:none;stroke-width:1;stroke-linecap:round;stroke-linejoin:round;stroke-miterlimit:4;stroke-dasharray:2, 1;stroke-dashoffset:0;stroke-opacity:1;paint-order:normal"
     d="M 36.978516 17.089844 L 36.210938 17.179688 L 29.367188 22.265625 L 20.583984 27.96875 L 17.988281 28.523438 L 33.464844 44 L 44 44 L 44 24.091797 L 36.978516 17.089844 z "
     id="rect906" />
  <path
     transform="rotate(45)"
     style="opacity:0.3;fill:url(#linearGradient923);fill-opacity:1;stroke:none;stroke-width:1.02734375;stroke-linecap:round;stroke-linejoin:round;stroke-miterlimit:4;stroke-dasharray:2.0546875, 1.02734375000000000;stroke-dashoffset:0;stroke-opacity:1;paint-order:normal"
     d="m 32.333786,-7.8192265 3.151366,-3.1643005 h 9.420869 v 7.5967644 H 29.328109 l 0.184493,-0.6290477 z"
     id="rect911"
     inkscape:connector-curvature="0"
     sodipodi:nodetypes="ccccccc" />
  <path
     style="fill:#ffffff;fill-opacity:1;stroke-width:0.35328367"
     d="m 33.152081,17.001614 c -0.763836,0.0038 -1.602505,0.01403 -2.481164,0.03184 -4.60579,0.09342 -6.586356,0.26397 -7.092552,0.610728 -0.99849,0.683987 -0.435858,1.054308 0.937877,0.616991 1.624656,-0.517191 8.692274,-0.94043 8.692274,-0.520423 0,0.734393 -13.414791,10.44029 -14.429834,10.44029 -0.324315,0 -0.672567,0.136273 -0.773695,0.302755 -0.101121,0.166468 1.347807,0.497351 3.219455,0.735481 1.871654,0.238126 4.900278,0.727192 6.730334,1.086779 1.830055,0.359591 4.606276,0.66977 6.169556,0.689547 2.388126,0.03019 2.991503,-0.08332 3.7751,-0.710427 1.018531,-0.815114 2.541203,-3.529685 1.979901,-3.529685 -0.191603,0 -0.582172,0.459471 -0.867586,1.02101 -0.753721,1.482894 -2.492913,2.186087 -5.406631,2.186087 -2.716208,0 -10.055389,-0.949039 -10.853801,-1.403627 -0.365733,-0.208237 0.824628,-1.292253 4.375896,-3.984339 2.683305,-2.034113 6.016401,-4.488711 7.406538,-5.454255 1.390143,-0.965545 2.527342,-1.85891 2.527342,-1.985645 0,-0.09505 -1.617513,-0.144482 -3.90901,-0.133114 z"
     id="path861"
     inkscape:connector-curvature="0" />
  <rect
     style="opacity:0.2;fill:#000000;fill-opacity:1;stroke:none;stroke-width:2;stroke-linecap:round;stroke-linejoin:round;stroke-miterlimit:4;stroke-dasharray:none;stroke-dashoffset:0;stroke-opacity:1;paint-order:normal"
     id="rect840"
     width="38"
     height="1"
     x="6"
     y="43" />
</svg>
