<?xml version="1.0" encoding="UTF-8" standalone="no"?>
<svg
   width="22"
   height="22"
   version="1.1"
   id="svg1"
   sodipodi:docname="applications-office-symbolic.svg"
   inkscape:version="1.4 (unknown)"
   xmlns:inkscape="http://www.inkscape.org/namespaces/inkscape"
   xmlns:sodipodi="http://sodipodi.sourceforge.net/DTD/sodipodi-0.dtd"
   xmlns="http://www.w3.org/2000/svg"
   xmlns:svg="http://www.w3.org/2000/svg">
  <defs
     id="defs1" />
  <sodipodi:namedview
     id="namedview1"
     pagecolor="#ffffff"
     bordercolor="#000000"
     borderopacity="0.25"
     inkscape:showpageshadow="2"
     inkscape:pageopacity="0.0"
     inkscape:pagecheckerboard="0"
     inkscape:deskcolor="#d1d1d1"
     inkscape:zoom="14.545455"
     inkscape:cx="9.315625"
     inkscape:cy="10.278125"
     inkscape:window-width="1920"
     inkscape:window-height="998"
     inkscape:window-x="0"
     inkscape:window-y="0"
     inkscape:window-maximized="1"
     inkscape:current-layer="svg1" />
  <style
     id="current-color-scheme"
     type="text/css">.ColorScheme-Text {
        color:#dedede;
      }</style>
  <path
     class="ColorScheme-Text"
     d="M 5.375,2 C 4.1479623,2 3.125,3.0229623 3.125,4.25 v 13.5 c 0,1.227039 1.0229623,2.25 2.25,2.25 h 11.25 c 1.227039,0 2.25,-1.022961 2.25,-2.25 v -9 A 1.1251123,1.1251123 0 0 0 18.545409,7.9545916 l -5.625,-5.625 A 1.1251123,1.1251123 0 0 0 12.125,2 Z M 14.179477,2 18.875,6.6955255 V 3.125 C 18.875,2.50175 18.373245,2 17.75,2 Z M 5.375,3.125 h 6.75 L 17.75,8.75 v 9 c 0,0.623245 -0.501745,1.125 -1.125,1.125 H 5.375 C 4.75175,18.875 4.25,18.373245 4.25,17.75 V 4.25 c 0,-0.62325 0.50175,-1.125 1.125,-1.125 z m 2.25,4.5 V 8.75 H 11 V 7.625 Z m 0,2.25 V 11 H 13.25 V 9.875 Z m 0,2.25 v 1.125 h 6.75 v -1.125 z m 0,2.25 V 15.5 H 11 v -1.125 z"
     fill="currentColor"
     id="path1"
     style="stroke-width:1.125" />
</svg>
