<?xml version="1.0" encoding="UTF-8" standalone="no"?>
<svg
   width="22"
   height="22"
   version="1.1"
   id="svg1"
   sodipodi:docname="applications-all-symbolic.svg"
   inkscape:version="1.3.2 (091e20ef0f, 2023-11-25)"
   xmlns:inkscape="http://www.inkscape.org/namespaces/inkscape"
   xmlns:sodipodi="http://sodipodi.sourceforge.net/DTD/sodipodi-0.dtd"
   xmlns="http://www.w3.org/2000/svg"
   xmlns:svg="http://www.w3.org/2000/svg">
  <defs
     id="defs1" />
  <sodipodi:namedview
     id="namedview1"
     pagecolor="#ffffff"
     bordercolor="#999999"
     borderopacity="1"
     inkscape:showpageshadow="2"
     inkscape:pageopacity="0"
     inkscape:pagecheckerboard="0"
     inkscape:deskcolor="#d1d1d1"
     inkscape:zoom="12.245804"
     inkscape:cx="10.942524"
     inkscape:cy="17.883677"
     inkscape:window-width="1920"
     inkscape:window-height="994"
     inkscape:window-x="0"
     inkscape:window-y="0"
     inkscape:window-maximized="1"
     inkscape:current-layer="svg1" />
  <style
     type="text/css"
     id="current-color-scheme">.ColorScheme-Text { color:#f2f2f2; }
.ColorScheme-Background { color:#E9E8E8; }
.ColorScheme-ViewText { color:#31363b; }
.ColorScheme-ViewBackground { color:#ffffff; }
.ColorScheme-ViewHover { color:#000000; }
.ColorScheme-ViewFocus { color:#5a5a5a; }
.ColorScheme-ButtonText { color:#31363b; }
.ColorScheme-ButtonBackground { color:#E9E8E8; }
.ColorScheme-ButtonHover { color:#1489ff; }
.ColorScheme-ButtonFocus { color: #2B74C7; }
</style>
  <path
     style="clip-rule:evenodd;fill:#ffffc1;fill-opacity:0;fill-rule:evenodd;stroke-width:0.688964;stroke-linejoin:round;stroke-miterlimit:1.41421"
     d="M 0,0 V 22 H 22 V 0 Z"
     id="rect817-5-5"
     inkscape:connector-curvature="0" />
  <path
     style="fill:currentColor;fill-opacity:1;stroke-width:1.125"
     d="M 11.000001,2 C 6.0230003,2 2,6.0230004 2,11.000001 2,15.976999 6.0230003,20 11.000001,20 15.976998,20 19.999998,15.976999 19.999998,11.000001 19.999998,6.0230004 15.976998,2 11.000001,2 Z m 0,1.125 c 4.353739,0 7.874997,3.5212507 7.874997,7.875001 0,4.353741 -3.521258,7.874998 -7.874997,7.874998 -4.3537658,0 -7.8750011,-3.521257 -7.8750011,-7.874998 0,-4.3537503 3.5212353,-7.875001 7.8750011,-7.875001 z m 0.843735,6.4338734 v 0 0 0 0 0 c 0,0 -0.03813,0.0088 0,0 z m -0.878621,5.0625096 z"
     id="path58-0"
     sodipodi:nodetypes="ssssssssssccccccccccccccccc"
     class="ColorScheme-Text " />
  <path
     d="M 8.1009478,5.660054 H 7.7954517 c -1.1793664,0 -2.1354504,0.956236 -2.1354504,2.1358351 V 8.101433 c 0,0.5665702 0.2251147,1.1099509 0.6257278,1.5104489 0.4006539,0.4005721 0.9439588,0.6255021 1.5104465,0.6252691 H 10.237077 V 7.7958727 c 0,-0.5665705 -0.225003,-1.1099501 -0.6256509,-1.5106003 C 9.2109611,5.8849661 8.6678553,5.6600385 8.1016621,5.6600385 h -7.643e-4"
     stroke-width="0.381429"
     id="path2618-3"
     style="fill:currentColor;fill-opacity:1"
     class="ColorScheme-Text" />
  <path
     d="m 7.7958077,11.762874 c -0.5665404,0 -1.1100317,0.225111 -1.5105299,0.625767 -0.4005293,0.400609 -0.6254255,0.943957 -0.6252674,1.510446 v 0.305484 c 0,0.566319 0.2250433,1.109506 0.6255407,1.510002 0.4005314,0.400415 0.9437986,0.625426 1.5102119,0.625426 h 0.3058188 c 0.5665694,0 1.1098733,-0.225207 1.5103693,-0.625884 0.4004989,-0.400538 0.6253129,-0.943881 0.6251949,-1.510374 v -2.440898 z"
     stroke-width="0.381429"
     id="path2620-6"
     style="fill:currentColor;fill-opacity:1"
     class="ColorScheme-Text" />
  <path
     d="m 14.20376,11.762874 h -2.440824 v 2.441658 c 0,0.566495 0.225069,1.109645 0.625738,1.510141 0.400619,0.400491 0.943943,0.625424 1.510437,0.625233 h 0.305492 c 0.566298,0 1.109502,-0.225004 1.510002,-0.625423 0.4004,-0.40049 0.625446,-0.943634 0.625446,-1.509986 v -0.305484 c 0,-0.56668 -0.224794,-1.110016 -0.625446,-1.510759 -0.400499,-0.400415 -0.943737,-0.625372 -1.510002,-0.625411 h -7.62e-4"
     stroke-width="0.381429"
     id="path2622-7"
     style="fill:currentColor;fill-opacity:1"
     class="ColorScheme-Text" />
  <path
     d="m 13.898623,5.660054 h -5.34e-4 c -0.566459,0 -1.109722,0.2251722 -1.510291,0.6258058 -0.400463,0.4006502 -0.625427,0.9439547 -0.625163,1.5103706 v 2.4408956 h 2.441286 c 0.566572,0 1.109873,-0.225058 1.510436,-0.6257241 0.400622,-0.400652 0.6255,-0.943955 0.62536,-1.5105251 V 7.795376 c 0,-1.1793696 -0.956252,-2.1353754 -2.135847,-2.1353754 h -0.305527 z"
     stroke-width="0.381429"
     id="path2624-5"
     style="fill:currentColor;fill-opacity:1"
     class="ColorScheme-Text " />
</svg>
