<?xml version="1.0" encoding="UTF-8" standalone="no"?>
<svg
   viewBox="0 0 32 32"
   version="1.1"
   id="svg4"
   sodipodi:docname="folder-inkscape.svg"
   inkscape:version="1.3 (0e150ed6c4, 2023-07-21)"
   xmlns:inkscape="http://www.inkscape.org/namespaces/inkscape"
   xmlns:sodipodi="http://sodipodi.sourceforge.net/DTD/sodipodi-0.dtd"
   xmlns="http://www.w3.org/2000/svg"
   xmlns:svg="http://www.w3.org/2000/svg">
  <sodipodi:namedview
     id="namedview4"
     pagecolor="#ffffff"
     bordercolor="#000000"
     borderopacity="0.25"
     inkscape:showpageshadow="2"
     inkscape:pageopacity="0.0"
     inkscape:pagecheckerboard="0"
     inkscape:deskcolor="#d1d1d1"
     inkscape:zoom="23.96875"
     inkscape:cx="16"
     inkscape:cy="16"
     inkscape:window-width="1920"
     inkscape:window-height="994"
     inkscape:window-x="0"
     inkscape:window-y="0"
     inkscape:window-maximized="1"
     inkscape:current-layer="svg4" />
  <defs
     id="defs3051">
    <style
       type="text/css"
       id="current-color-scheme">&#10;      .ColorScheme-Text {&#10;        color:#31363b;&#10;      }&#10;      .ColorScheme-Background {&#10;        color:#eff0f1;&#10;      }&#10;      .ColorScheme-Highlight {&#10;        color:#3daee9;&#10;      }&#10;      .ColorScheme-ViewText {&#10;        color:#31363b;&#10;      }&#10;      .ColorScheme-ViewBackground {&#10;        color:#fcfcfc;&#10;      }&#10;      .ColorScheme-ViewHover {&#10;        color:#93cee9;&#10;      }&#10;      .ColorScheme-ViewFocus{&#10;        color:#3daee9;&#10;      }&#10;      .ColorScheme-ButtonText {&#10;        color:#31363b;&#10;      }&#10;      .ColorScheme-ButtonBackground {&#10;        color:#eff0f1;&#10;      }&#10;      .ColorScheme-ButtonHover {&#10;        color:#93cee9;&#10;      }&#10;      .ColorScheme-ButtonFocus{&#10;        color:#3daee9;&#10;      }&#10;      </style>
  </defs>
  <path
     style="fill:currentColor;fill-opacity:1;stroke:none"
     d="M 2 3 L 2 10 L 1 10 L 1 29 L 12 29 L 13 29 L 31 29 L 31 8 L 30 8 L 30 5 L 16 5 L 14 3 L 2 3 z "
     class="ColorScheme-Highlight"
     id="path1" />
  <path
     style="fill-opacity:0.33;fill-rule:evenodd"
     d="m 2,3 0,7 9,0 L 13,8 30,8 30,5 16,5 14,3 2,3 Z"
     id="path2" />
  <path
     style="fill:#ffffff;fill-opacity:0.2;fill-rule:evenodd"
     d="M 14 3 L 15 6 L 30 6 L 30 5 L 16 5 L 14 3 z M 13 8 L 11 10 L 1 10 L 1 11 L 12 11 L 13 8 z "
     id="path3" />
  <path
     style="fill-opacity:0.2;fill-rule:evenodd"
     d="M 13 8 L 11 9 L 2 9 L 2 10 L 11 10 L 13 8 z M 1 28 L 1 29 L 31 29 L 31 28 L 1 28 z "
     class="ColorScheme-Text"
     id="path4" />
  <path
     d="m 15.929384,24.499928 c -0.170985,0 -0.329963,-0.02247 -0.467958,-0.07245 -0.282968,-0.103014 -0.465451,-0.311529 -0.513441,-0.587063 -0.04351,-0.249523 -0.126,-0.287527 -0.492456,-0.354036 -0.239476,-0.04353 -0.538449,-0.09805 -0.757423,-0.333041 -0.423963,-0.442041 0.02104,-0.912088 0.187978,-1.089117 0.03041,-0.03202 0.07199,-0.0755 0.105971,-0.115512 -0.209977,-0.116521 -0.70443,-0.279544 -1.018895,-0.383552 -0.74143,-0.245021 -1.20888,-0.411046 -1.439362,-0.652064 -0.121487,-0.124028 -0.174981,-0.284539 -0.146984,-0.448559 0.05754,-0.33953 0.424456,-0.520557 0.812414,-0.711578 0,0 5.05e-4,0 5.05e-4,0 -0.178482,-0.06046 -0.38096,-0.115514 -0.578942,-0.170019 -0.703935,-0.192023 -1.431361,-0.391048 -1.588837,-0.972608 -0.1374893,-0.511556 0.260974,-0.992612 0.57344,-1.310148 l 4.130095,-4.301973 c 0.321964,-0.325035 0.754419,-0.504059 1.209873,-0.498059 0.0023,0 0.0051,0 0.008,0 0.445956,0 0.877408,0.172027 1.208378,0.485557 l 4.295079,4.469489 c 0.436451,0.444057 0.609429,0.8781 0.513444,1.289152 -0.182984,0.788583 -1.255882,1.163125 -2.292267,1.525167 -0.312983,0.10951 -0.633442,0.221012 -0.882912,0.333539 0.0084,0.0051 0.01547,0.0088 0.02305,0.01255 0.379955,0.214039 0.953394,0.537565 0.741423,1.074628 -0.237968,0.616568 -0.688438,0.737093 -1.086398,0.844096 -0.270966,0.07247 -0.549944,0.147015 -0.846419,0.386544 0.147493,0.08297 0.311976,0.207019 0.339978,0.432045 0.01499,0.122015 -0.01063,0.304536 -0.215476,0.482556 -0.438098,0.368496 -1.205029,0.664526 -1.821451,0.664526 z m -1.598341,-1.811189 c 0.07051,0.02551 0.165478,0.04251 0.258972,0.05946 0.358467,0.06495 0.958406,0.174511 1.096397,0.962109 0.123987,0.11451 0.807417,0.02554 1.325867,-0.272031 -0.126484,-0.08196 -0.248978,-0.199531 -0.28097,-0.386551 -0.01999,-0.118007 -0.0075,-0.298534 0.17148,-0.484552 0.512948,-0.527059 1.011895,-0.660565 1.376359,-0.75858 0.325466,-0.08701 0.451951,-0.12852 0.543935,-0.306035 -0.08895,-0.0735 -0.267959,-0.175027 -0.373453,-0.234027 -0.318466,-0.179523 -0.618439,-0.348534 -0.635936,-0.666575 -0.0066,-0.09849 0.01648,-0.28653 0.22548,-0.437048 0.323971,-0.231525 0.842915,-0.413043 1.390865,-0.604566 0.684919,-0.239527 1.719324,-0.60106 1.809321,-0.987112 0.04452,-0.190024 -0.18048,-0.454045 -0.318982,-0.594566 -0.0015,-0.0011 -0.0023,-0.0015 -0.0037,-0.0032 L 16.632939,13.51716 c -0.177961,-0.168018 -0.426434,-0.267532 -0.686913,-0.267532 -0.0054,0 -0.012,0 -0.01851,0 -0.247471,0 -0.482955,0.0985 -0.654436,0.271532 l -4.129522,4.301008 c -0.42446,0.431045 -0.386959,0.590566 -0.386959,0.592062 0.045,0.166514 0.706924,0.347546 1.062393,0.444548 0.432955,0.118015 0.88141,0.240519 1.203376,0.448553 0.229985,0.152511 0.242472,0.357542 0.237473,0.439048 -0.021,0.330028 -0.348457,0.491548 -0.728423,0.678577 -0.06,0.02948 -0.136987,0.06748 -0.210981,0.106522 0.252981,0.110501 0.629939,0.235522 0.888409,0.321025 0.721926,0.238534 1.176892,0.399555 1.403358,0.630074 0.430967,0.44955 -0.01305,0.919597 -0.180479,1.096118 -0.02847,0.03106 -0.06704,0.07202 -0.100508,0.110026 z m 4.53704,-1.140626 h 0.0054 z m -0.007,-0.131519 c -5.04e-4,4.97e-4 -5.04e-4,0.0011 -0.0011,0.0015 5.04e-4,-5.01e-4 5.04e-4,-0.0012 0.0011,-0.0015 z M 12.072541,20.39148 c 0,4.97e-4 5.02e-4,0.0011 5.92e-4,0.0011 -4.98e-4,0 -5.92e-4,-5.01e-4 -5.92e-4,-0.0011 z"
     id="path2-4"
     style="fill:#e5e5e5;fill-opacity:1;stroke-width:0.500007" />
  <path
     d="m 15.599917,17.260133 c -0.04694,0 -0.09395,-0.0092 -0.138987,-0.02652 -0.112489,-0.045 -0.196478,-0.141524 -0.224985,-0.259036 l -0.112477,-0.459058 -0.147992,0.325036 c -0.06106,0.133513 -0.193978,0.219526 -0.34097,0.219526 -4.93e-4,0 -5.9e-4,0 -0.0011,0 l -2.907625,-0.01018 c -0.207103,-5.02e-4 -0.374085,-0.169025 -0.373581,-0.376052 5e-4,-0.207015 0.16848,-0.374041 0.374956,-0.374041 5.01e-4,0 5.92e-4,0 0.0011,0 l 2.664721,0.0097 0.495455,-1.089617 c 0.066,-0.146014 0.215976,-0.235529 0.376457,-0.218525 0.158985,0.015 0.29147,0.129014 0.32947,0.284029 l 0.244971,1.000113 0.678436,-0.436047 c 0.115481,-0.07404 0.261475,-0.07847 0.382961,-0.01344 l 0.220467,0.121019 0.07949,-0.487559 c 0.02149,-0.132511 0.112985,-0.243526 0.238978,-0.291025 0.123982,-0.04698 0.267468,-0.02358 0.370965,0.06246 l 0.510438,0.424053 0.322472,-0.481555 c 0.114498,-0.171519 0.346959,-0.218527 0.519946,-0.103492 0.171992,0.115013 0.218477,0.348042 0.103014,0.520558 l -0.552951,0.827573 c -0.05848,0.08797 -0.152481,0.14752 -0.257978,0.162521 -0.101533,0.01598 -0.21147,-0.01499 -0.29347,-0.08254 l -0.326006,-0.271036 -0.05949,0.363541 c -0.0195,0.12001 -0.09599,0.223025 -0.205469,0.276534 -0.110004,0.05344 -0.237984,0.05052 -0.344466,-0.0085 l -0.489988,-0.268431 -0.932905,0.599562 c -0.06207,0.03997 -0.132983,0.06 -0.203982,0.06 z m 4.266569,6.382705 c -0.248474,0 -0.485947,-0.102 -0.637922,-0.296523 -0.202986,-0.260531 -0.234991,-0.684083 0.153475,-1.043623 0.08794,-0.0815 0.206974,-0.116515 0.327467,-0.09303 0.556943,0.110015 0.820419,0.467553 0.875902,0.739581 0.04452,0.21703 -0.03,0.421059 -0.193465,0.532559 -0.0015,0.0015 -0.0041,0.0022 -0.007,0.0044 -0.161487,0.105993 -0.342966,0.157014 -0.518946,0.157014 z m 0.313975,-0.470547 h 0.0066 z m -8.034703,0.226513 c -0.207981,0 -0.402961,-0.07305 -0.563947,-0.214007 -0.347462,-0.298544 -0.287468,-0.621578 -0.245472,-0.747091 0.137484,-0.409041 0.645436,-0.622066 1.059397,-0.646575 0.008,-4.96e-4 0.01495,-4.96e-4 0.02249,-4.96e-4 0.363963,-0.01604 0.672429,0.108 0.849423,0.345034 0.07754,0.104035 0.09554,0.240537 0.04842,0.361544 -0.16848,0.427051 -0.548947,0.77859 -0.94791,0.874591 -0.075,0.018 -0.149487,0.02706 -0.222473,0.02706 z m -0.04242,-0.759073 c 0.01904,0.0097 0.0465,0.01305 0.08954,0.0032 0.05796,-0.01396 0.120486,-0.04855 0.180486,-0.09602 -0.113492,0.01696 -0.209981,0.05652 -0.269972,0.09301 z m 8.864109,-0.683079 c -0.36296,0 -0.730416,-0.06748 -0.916413,-0.158009 -0.26897,-0.13102 -0.297962,-0.34104 -0.297962,-0.425563 0,-0.03151 0.0041,-0.06251 0.01141,-0.093 0.117984,-0.461556 0.551947,-0.787591 1.085392,-0.818593 0.01027,-0.0011 0.01952,-0.0015 0.0295,-0.0023 0.57694,-0.02347 1.019397,0.293538 1.113892,0.78759 0.04002,0.195018 -0.03252,0.386038 -0.194992,0.51306 -0.181472,0.142488 -0.504434,0.196998 -0.830911,0.196998 z m 0.291461,-0.559057 c 0,0 0,4.93e-4 0,4.93e-4 z"
     id="path4-5"
     style="fill:#e5e5e5;fill-opacity:1;stroke-width:0.500007" />
</svg>
