<?xml version="1.0" encoding="UTF-8" standalone="no"?>
<svg
   viewBox="0 0 64 64"
   version="1.1"
   id="svg4"
   sodipodi:docname="folder-linux.svg"
   inkscape:version="1.4.2 (unknown)"
   xml:space="preserve"
   xmlns:inkscape="http://www.inkscape.org/namespaces/inkscape"
   xmlns:sodipodi="http://sodipodi.sourceforge.net/DTD/sodipodi-0.dtd"
   xmlns="http://www.w3.org/2000/svg"
   xmlns:svg="http://www.w3.org/2000/svg"><sodipodi:namedview
     id="namedview4"
     pagecolor="#ffffff"
     bordercolor="#999999"
     borderopacity="1"
     inkscape:showpageshadow="2"
     inkscape:pageopacity="0"
     inkscape:pagecheckerboard="0"
     inkscape:deskcolor="#d1d1d1"
     showgrid="true"
     inkscape:zoom="11.313709"
     inkscape:cx="32.084969"
     inkscape:cy="32.129163"
     inkscape:window-width="2556"
     inkscape:window-height="1364"
     inkscape:window-x="0"
     inkscape:window-y="0"
     inkscape:window-maximized="1"
     inkscape:current-layer="svg4"><inkscape:grid
       id="grid4"
       units="px"
       originx="0"
       originy="0"
       spacingx="1"
       spacingy="1"
       empcolor="#0099e5"
       empopacity="0.30196078"
       color="#0099e5"
       opacity="0.14902"
       empspacing="5"
       dotted="false"
       gridanglex="30"
       gridanglez="30"
       visible="true" /></sodipodi:namedview><defs
     id="defs3051"><style
       type="text/css"
       id="current-color-scheme">
      .ColorScheme-Text {
        color:#31363b;
      }
      .ColorScheme-Background {
        color:#eff0f1;
      }
      .ColorScheme-Highlight {
        color:#3daee9;
      }
      .ColorScheme-ViewText {
        color:#31363b;
      }
      .ColorScheme-ViewBackground {
        color:#fcfcfc;
      }
      .ColorScheme-ViewHover {
        color:#93cee9;
      }
      .ColorScheme-ViewFocus{
        color:#3daee9;
      }
      .ColorScheme-ButtonText {
        color:#31363b;
      }
      .ColorScheme-ButtonBackground {
        color:#eff0f1;
      }
      .ColorScheme-ButtonHover {
        color:#93cee9;
      }
      .ColorScheme-ButtonFocus{
        color:#3daee9;
      }
      </style></defs><path
     style="fill:currentColor;fill-opacity:1;stroke:none;stroke-width:0.999999"
     d="m 4.0006635,10 v 1 9 0 c -0.5203637,0.02153 -1.0229638,0.505476 -0.999899,1 h 0.00195 c -4.69e-5,0.004 -0.00195,0.008 -0.00195,0.01172 V 56 c 0.00871,0.999392 0.9801138,2.005992 1.999798,2 v 0 H 58.995109 v 0 c 1.011732,0.02205 1.994216,-0.972534 1.999798,-2 V 21.011719 21 17 c 0.05936,-0.589244 -0.407896,-1.006383 -0.999899,-1 v -4 c 0,-0.003 -0.002,0.004 -0.002,0 h 0.002 v 0 c -0.0061,-1.000671 -0.953819,-1.995969 -1.999798,-2 H 31.997836 L 27.99824,6 H 8.0002595 C 5.9630216,5.99492 4.0363539,7.9703236 4.0006635,10 Z"
     class="ColorScheme-Highlight"
     id="path1"
     sodipodi:nodetypes="ccccccsccccccccccscccccccc" /><path
     style="fill-opacity:0.33;fill-rule:evenodd;stroke-width:0.999999"
     d="m 4.0302775,10 -0.029614,1 v 9 H 21.998846 l 3.999596,-4 h 33.996566 v -4 c 0,-0.003 -0.002,0.004 -0.002,0 h 0.002 C 59.988808,10.988725 58.990992,9.9943186 57.99521,10 H 31.997836 L 27.99824,6 H 8.0002595 C 5.9928069,6.00259 3.994256,8.0072001 4.0302775,10 Z"
     id="path2"
     sodipodi:nodetypes="ccccccsccccccc" /><path
     style="fill:#ffffff;fill-opacity:0.2;fill-rule:evenodd;stroke-width:0.999999"
     d="m 27.99824,6 2.999697,5 h 1.999798 24.997475 c 1.212814,-0.06389 2.005543,1.005906 1.999798,2 v -1 c 6e-4,-0.992592 -0.988601,-1.993446 -1.999798,-2 H 32.997735 31.997836 Z m -1.999798,10 -3.999596,4 H 3.0007645 v 1 H 22.998745 Z"
     id="path3"
     sodipodi:nodetypes="cccccccccccccccc" /><path
     style="fill-opacity:0.2;fill-rule:evenodd;stroke-width:0.999999"
     d="m 25.998442,16 -5.999394,3 H 4.0006635 v 1 H 21.998846 Z M 3.0007645,56 c 0.00641,1.008598 0.9937008,2.001463 1.999798,2 v 0 H 58.995109 v 0 0 c 1.002828,0.0016 2.001139,-0.999662 1.999798,-2 z"
     class="ColorScheme-Text"
     id="path4"
     sodipodi:nodetypes="cccccccccccccc" /><path
     d="m 41.774547,46.287334 c -0.156285,-0.142492 -0.390709,-0.24821 -0.546994,-0.326356 -0.234425,-0.09193 -0.39071,-0.211443 -0.546995,-0.349344 -0.234431,-0.142493 -0.312569,-0.303375 -0.390716,-0.473446 l -0.07814,-0.574574 c -0.07814,-0.367728 -0.156285,-0.602159 -0.234424,-0.707876 -0.07815,-0.105725 -0.156285,-0.170078 -0.31257,-0.170078 0.156285,-0.505623 0.234424,-1.029636 0.234424,-1.567442 0,-1.084794 -0.234424,-2.096051 -0.62514,-2.87747 -0.312564,-0.854967 -0.854967,-1.714532 -1.558246,-2.491359 -0.31257,-0.468855 -0.625134,-0.854967 -0.854967,-1.245677 -0.234424,-0.312569 -0.390709,-0.625139 -0.546994,-0.933112 -0.156286,-0.234424 -0.234425,-0.546994 -0.312571,-0.854967 -0.07814,-0.390709 -0.07814,-0.70328 -0.156284,-0.933112 0,-0.234425 -0.07814,-0.546995 -0.07814,-1.011252 C 35.68864,31.224274 35.68864,30.838163 35.610505,30.447447 35.532356,29.822313 35.376073,29.358055 35.219795,28.8892 34.985364,28.498491 34.75094,28.107775 34.43837,27.877948 34.203945,27.643524 33.891376,27.487239 33.583403,27.330954 33.192694,27.174669 32.880123,27.096523 32.65029,27.096523 32.420464,27 32.186033,27 31.956206,27 c -0.62514,0 -1.167537,0.07814 -1.636392,0.234424 -0.468855,0.156285 -0.781419,0.468856 -1.011252,0.781419 -0.266601,0.31257 -0.445867,0.703286 -0.546995,1.089397 -0.101126,0.39071 -0.147089,0.781426 -0.147089,1.323823 0,0.703279 0.03675,1.480107 0.114913,2.261526 0.08733,0.781425 0.124109,1.245683 0.124109,1.401967 0,0.312564 -0.07815,0.70328 -0.225236,1.011252 -0.14709,0.307972 -0.413691,0.70328 -0.818193,1.167537 l -0.583768,0.703279 c -0.468855,0.546995 -0.763035,1.089391 -0.887143,1.636386 -0.156286,0.62514 -0.294187,1.089397 -0.427484,1.401968 -0.124108,0.312569 -0.294187,0.625133 -0.524013,1.043428 l -0.271199,0.491837 c -0.280393,0.524012 -0.413697,0.91932 -0.413697,1.199713 -0.01377,0.04597 -0.01377,0.124108 -0.01377,0.211443 0,0.124109 0.03215,0.225229 0.09193,0.303375 -0.05514,0.06436 -0.09193,0.124108 -0.124109,0.179266 -0.01377,0.03675 -0.03215,0.08734 -0.04597,0.133304 -0.01377,0.03215 -0.03215,0.101121 -0.06895,0.193053 -0.03215,0.09193 -0.07814,0.193058 -0.133298,0.321765 -0.165479,0.09193 -0.271204,0.133303 -0.344746,0.133303 h -0.900936 c -0.170072,0 -0.335551,0.101121 -0.505623,0.29418 -0.170078,0.19306 -0.248217,0.468855 -0.248217,0.809004 0,0.110316 0.03215,0.367728 0.09193,0.77223 0.06436,0.413691 0.09193,0.648116 0.09193,0.726261 0,0.07814 -0.01377,0.156285 -0.03215,0.234424 -0.01377,0.08733 -0.04597,0.156285 -0.07815,0.225236 -0.03215,0.07814 -0.06436,0.14709 -0.110315,0.216041 -0.03215,0.07814 -0.07815,0.156285 -0.133304,0.243619 -0.05514,0.07814 -0.110316,0.165481 -0.160883,0.248217 C 22.023004,48.13517 22,48.268473 22,48.392582 c 0,0.124108 0.05514,0.234424 0.160882,0.330953 0.114914,0.09653 0.271199,0.179267 0.46885,0.239023 0.202253,0.07355 0.390715,0.124108 0.551598,0.160882 0.179266,0.03675 0.381514,0.07355 0.602152,0.105724 0.225236,0.03675 0.367728,0.06436 0.427484,0.07814 0.62973,0.142492 1.355997,0.358532 2.17419,0.638926 0.809004,0.294186 1.411157,0.445873 1.792678,0.445873 0.606749,0 1.043428,-0.243619 1.434137,-0.707876 v 0.02299 c 0.546995,-0.271199 1.323822,-0.4091 2.339672,-0.4091 0.62514,0 1.636392,0.07355 2.882068,0.225236 0.234425,0.473452 0.625141,0.786016 1.245682,0.951496 l 0.546995,0.06436 c 0.31257,0 0.625134,-0.06895 0.854967,-0.211442 0.234424,-0.133305 0.546995,-0.349345 0.854967,-0.65272 l 0.781436,-0.661912 c 0.390709,-0.330959 0.781419,-0.611347 1.167536,-0.84118 0.46885,-0.220638 0.781419,-0.376923 0.933107,-0.455062 0.234431,-0.06895 0.39071,-0.179267 0.546995,-0.335552 0.156284,-0.142499 0.23443,-0.335551 0.23443,-0.602159 0.0044,-0.174669 -0.07355,-0.335551 -0.225235,-0.491836 m -5.36883,-8.255495 c 0.390709,0.07815 0.703279,0.312569 1.011252,0.781425 0.31257,0.468854 0.468855,1.011251 0.468855,1.79267 0,0.560787 -0.07815,1.199713 -0.31257,1.92598 0.07814,0.01377 0.234424,0.03215 0.31257,0.03676 0.07814,0 0.07814,0 0.156285,0.01377 0,0 0.07814,0 0.156285,0.0092 0.468849,0.06436 0.854967,0.211443 1.089391,0.445867 0.234425,0.225236 0.31257,0.427484 0.31257,0.602159 0,0.06895 0,0.101121 -0.07815,0.101121 0,0 -0.07814,-0.04598 -0.07814,-0.14709 -0.07814,-0.101127 -0.156285,-0.211443 -0.234424,-0.326357 -0.07815,-0.124108 -0.234431,-0.23443 -0.547001,-0.335551 -0.234424,-0.110322 -0.625133,-0.16548 -1.011252,-0.16548 -0.234424,0 -0.390709,0.06895 -0.625134,0.202254 -0.156285,0.133297 -0.23443,0.266601 -0.390715,0.395307 -0.07814,0.133297 -0.156279,0.202248 -0.156279,0.202248 -0.07815,0 -0.07815,-0.03675 -0.07815,-0.110316 0.234425,-0.450471 0.546994,-0.740053 0.854967,-0.864162 0.31257,-0.827388 0.390709,-1.470912 0.390709,-1.90759 0,-0.546994 -0.07814,-1.011252 -0.312563,-1.558247 -0.234431,-0.468854 -0.625141,-0.781425 -1.011252,-0.933112 0.0044,-0.08274 0.0044,-0.08274 0.08274,-0.160883 m -4.288627,-7.308596 q 0.351636,-0.234424 0.703278,-0.234424 c 0.312571,0 0.546995,0.07814 0.781419,0.312569 0.156285,0.234424 0.234431,0.546995 0.234431,1.011252 0,0.39071 -0.07815,0.70328 -0.156285,1.167537 -0.156285,-0.07815 -0.23443,-0.156284 -0.390715,-0.156284 -0.07814,0 -0.156279,-0.07815 -0.156279,-0.07815 q 0.468848,-0.117212 0.468848,-0.703279 c 0,-0.234425 -0.07814,-0.39071 -0.156284,-0.625134 -0.156285,-0.156285 -0.312564,-0.31257 -0.546995,-0.31257 q -0.234425,0 -0.468855,0.234424 c -0.156285,0.234431 -0.156285,0.39071 -0.156285,0.70328 0,0.156285 0,0.31257 0.07815,0.390715 -0.07815,0 -0.156285,-0.07815 -0.234424,-0.07815 -0.156286,-0.312569 -0.234431,-0.62514 -0.234431,-1.011251 0,-0.229827 0.07815,-0.386113 0.234431,-0.620543 m 0.859564,0.859564 c 0,-0.07814 -0.07815,-0.07814 -0.07815,-0.156284 0.07815,0 0.156285,-0.07814 0.156285,-0.07814 0.07815,0 0.156285,0.07814 0.234425,0.156285 0.07815,0.07814 0.07815,0.156285 0.07815,0.234424 0,0.07815 0,0.156285 0.07814,0.234431 H 33.28926 c -0.07814,-0.234431 -0.156279,-0.390715 -0.312564,-0.390715 m -0.234431,1.167536 c 0.781425,0.234431 1.167537,0.468855 1.245683,0.62514 0.07814,0 0.07814,0.07814 0.07814,0.156286 0,0.234424 -0.156285,0.390709 -0.31257,0.546994 l -0.70328,0.468855 c -0.781418,0.546994 -1.401961,0.854967 -1.948955,0.854967 -0.390716,0 -0.781425,-0.156285 -1.089398,-0.468855 L 29.54303,34.46486 c -0.07814,-0.07814 -0.156285,-0.234424 -0.234424,-0.390709 0.468855,0.390709 1.011252,0.62514 1.558246,0.62514 0.62514,0 1.401968,-0.312569 2.417817,-1.011251 0,0 0,-0.07815 -0.07815,-0.07815 v -0.156285 c -1.011252,0.781425 -1.792677,1.089398 -2.41781,1.089398 -0.468856,0 -0.933114,-0.234424 -1.401968,-0.62514 -0.07814,-0.156285 -0.156279,-0.234424 -0.156279,-0.234424 0,-0.312571 0.312564,-0.62514 0.781419,-0.933113 0.546994,-0.31257 0.933112,-0.468849 1.167537,-0.468849 0.317168,0 0.859564,0.156279 1.562844,0.468849 M 29.782055,31.58279 v -0.156285 c 0.07814,0 0.07814,-0.07814 0.07814,-0.07814 0.234424,0 0.390709,0.234424 0.390709,0.62514 h -0.156281 c 0,-0.156285 -0.07814,-0.234431 -0.07814,-0.390716 z M 29.3132,31.035795 c 0.07814,-0.234424 0.31257,-0.390709 0.546995,-0.390709 0.312569,0 0.468854,0.156285 0.625139,0.390709 0.156286,0.234425 0.156286,0.468856 0.156286,0.70328 0,0.31257 0,0.468855 -0.07815,0.468855 v 0.07814 h -0.07814 v -0.156284 c 0,-0.234426 -0.07815,-0.46885 -0.156285,-0.70328 -0.156285,-0.156285 -0.23443,-0.234424 -0.390709,-0.234424 -0.156285,0 -0.312571,0.07814 -0.390716,0.234424 -0.156285,0.156285 -0.156285,0.31257 -0.156285,0.547001 0,0.390709 0.07815,0.625133 0.390716,0.781418 -0.07815,0.07815 -0.156286,0.07815 -0.234431,0.156286 -0.31257,-0.312571 -0.422886,-0.625141 -0.422886,-0.933114 0,-0.395306 0.03215,-0.62973 0.188462,-0.942301 m 0.06895,18.469148 c -0.372325,0.468849 -0.827388,0.707877 -1.369791,0.707877 -0.211443,0 -0.786016,-0.179273 -1.728318,-0.524013 -0.942307,-0.344746 -1.77889,-0.57458 -2.500553,-0.680298 v -0.0044 c -0.942302,-0.124108 -1.457126,-0.335551 -1.535265,-0.638926 0,-0.179267 0.101127,-0.427483 0.29418,-0.763035 0.193059,-0.321765 0.289588,-0.638933 0.289588,-0.960692 0,-0.165479 -0.03215,-0.395306 -0.09193,-0.684895 -0.06436,-0.29418 -0.09193,-0.505623 -0.09193,-0.629731 0,-0.271199 0.101126,-0.528611 0.294179,-0.753847 0.147097,-0.07814 0.427484,-0.124108 0.841181,-0.124108 h 0.211442 c 0.101128,-0.0092 0.170072,-0.0092 0.211444,-0.0092 0.179266,-0.03675 0.31257,-0.07815 0.390709,-0.124109 0.07815,-0.05514 0.124108,-0.165479 0.147096,-0.326362 0.01377,-0.170071 0.07814,-0.335552 0.188462,-0.482642 0.110316,-0.147089 0.335551,-0.257411 0.661907,-0.321764 0.257413,0.06436 0.491837,0.179272 0.694085,0.358538 0.211443,0.179267 0.372326,0.358534 0.473453,0.5378 0.114913,0.16548 0.2666,0.395307 0.427483,0.70328 0.170078,0.30338 0.303375,0.52861 0.413697,0.6757 l 0.528604,0.707877 c 0.887144,1.130769 1.333017,2.059278 1.333017,2.799331 -0.0044,0.206846 -0.0044,0.386119 -0.08274,0.537806 m 1.714531,-1.526076 c -0.933112,0 -1.636392,-0.216041 -1.962748,-0.661908 -0.165481,-0.303375 -0.243619,-0.45966 -0.243619,-0.468855 0,-0.03675 0.0092,-0.05514 0.02299,-0.05514 0.179266,0 0.390709,-0.09193 0.546994,-0.280394 0.234425,-0.179267 0.31257,-0.344747 0.31257,-0.505623 0,-0.31257 -0.468855,-0.84118 -1.346803,-1.604215 l -0.827388,-0.537806 c -0.652719,-0.473446 -1.066416,-0.85037 -1.241085,-1.107781 -0.156285,-0.266601 -0.24362,-0.569977 -0.24362,-0.91932 0,-0.473447 0.170078,-1.121568 0.496434,-1.824847 0.326357,-0.781425 0.602153,-1.323823 0.827388,-1.558247 l 0.07814,0.07814 c 0.06436,0 0.101127,0 0.114919,0.07814 -0.271198,0.312569 -0.551591,0.781425 -0.831985,1.480107 -0.289589,0.703279 -0.427483,1.291645 -0.427483,1.82945 0,0.436673 0.170071,0.77223 0.524013,1.011252 -0.03215,-0.188461 -0.04598,-0.372325 -0.04598,-0.551591 0,-0.896339 0.321765,-1.981139 0.951496,-3.148676 l 0.583769,-1.167537 c 0.01377,0 0.03676,-0.156285 0.06895,-0.31257 0.02299,-0.234424 0.142492,-0.546994 0.358532,-1.089391 l 0.491837,-0.933113 c 0.156285,-0.31257 0.23443,-0.625133 0.23443,-0.854967 l 0.46885,0.39071 c 0.23443,0.31257 0.62514,0.390716 1.089397,0.390716 0.546995,0 1.167537,-0.234431 1.948955,-0.781426 l 0.70328,-0.546994 c 0.156285,0.31257 0.312571,0.70328 0.468855,1.089391 0.234431,0.390716 0.390709,0.781425 0.62514,1.167537 0,0.390716 0.07814,0.62514 0.156285,0.933113 0.156285,0.234424 0.234425,0.468855 0.390709,0.703279 l 0.468856,0.703279 c 0.156285,0.312571 0.312569,0.70328 0.390709,1.167538 0.156285,0.546994 0.156285,1.130762 0.156285,1.838639 0,0.468856 0,0.988271 -0.07815,1.590429 -0.156279,-0.114919 -0.312564,-0.170077 -0.468849,-0.170077 -0.234431,0 -0.390716,0.114913 -0.546995,0.367728 -0.156284,0.248217 -0.23443,0.629737 -0.23443,1.135361 v 0.289588 c 0.07815,0.101121 0.07815,0.344747 0.07815,0.730858 -1.020447,1.40656 -2.344269,2.105241 -4.0588,2.105241 m 10.448077,-0.657284 c -0.156285,0.124108 -0.31257,0.21604 -0.547001,0.280393 -0.156285,0.06895 -0.468848,0.193053 -0.781419,0.381514 -0.390709,0.188462 -0.70328,0.404503 -1.011252,0.652719 l -1.323822,1.144556 c -0.07815,0.03676 -0.07815,0.07814 -0.23443,0.133298 -0.07814,0.06436 -0.156279,0.114919 -0.234424,0.170077 -0.07814,0.06436 -0.234425,0.114913 -0.39071,0.14709 q -0.234431,0.06895 -0.468855,0.06895 c -0.62514,0 -1.167537,-0.294186 -1.480107,-0.882546 v -0.01837 l 0.156285,-0.864162 c 0,-0.307973 0,-0.583769 0.07815,-0.827388 0,-0.243619 0.07814,-0.395308 0.07814,-0.468856 v -2.422408 c 0,-0.818193 0.156285,-1.222694 0.546995,-1.222694 0.156285,0 0.23443,0.06895 0.390716,0.202253 0.07814,0.326357 0.156284,0.615945 0.312563,0.864156 0.234431,0.335558 0.547001,0.50563 1.167537,0.50563 0.156285,0 0.390716,-0.06895 0.62514,-0.202248 0.156285,-0.133304 0.390709,-0.271205 0.468855,-0.42749 0.156285,-0.156279 0.31257,-0.303375 0.468855,-0.436672 0.07814,-0.133304 0.234424,-0.202255 0.312564,-0.202255 0.07815,0 0.07815,0.0092 0.07815,0.03215 0.07814,0.08733 0.07814,0.243619 0.156285,0.450471 l 0.07814,0.450465 c 0.07815,0.367728 0.234431,0.648121 0.390709,0.850369 0.234431,0.211444 0.390716,0.335552 0.547001,0.39071 0.156285,0.05514 0.312564,0.142498 0.468849,0.266607 0.156285,0.124108 0.31257,0.29418 0.31257,0.524013 -0.0092,0.193053 -0.08733,0.344746 -0.165474,0.45966 M 31.340306,32.672473 c 0,0 -0.07815,-0.07815 -0.07815,-0.156286 0,-0.07815 0,-0.07815 0.07815,-0.07815 l 0.156286,0.07815 c 0.07814,0.07814 0.156284,0.156286 0.156284,0.234425 0,0.07815 -0.07815,0.07815 -0.07815,0.07815 h -0.07814 c -0.07815,0 -0.07815,-0.07815 -0.156285,-0.156285 m -0.781425,0.07814 c 0,-0.07814 0,-0.156286 0.07815,-0.234426 0.156284,0 0.234424,-0.07815 0.234424,-0.07815 0.07815,0 0.07815,0.07815 0.07815,0.07815 0,0.07814 -0.07815,0.156286 -0.234431,0.312571 h -0.07814 c -0.07815,0 -0.07815,0 -0.07815,-0.07815"
     style="fill:#e5e5e5;fill-opacity:1;stroke-width:0.84049"
     id="path5" /></svg>
