<?xml version="1.0" encoding="UTF-8" standalone="no"?>
<svg
   viewBox="0 0 32 32"
   version="1.1"
   id="svg4"
   sodipodi:docname="folder-projects.svg"
   inkscape:version="1.3 (0e150ed6c4, 2023-07-21)"
   xmlns:inkscape="http://www.inkscape.org/namespaces/inkscape"
   xmlns:sodipodi="http://sodipodi.sourceforge.net/DTD/sodipodi-0.dtd"
   xmlns="http://www.w3.org/2000/svg"
   xmlns:svg="http://www.w3.org/2000/svg">
  <sodipodi:namedview
     id="namedview4"
     pagecolor="#ffffff"
     bordercolor="#000000"
     borderopacity="0.25"
     inkscape:showpageshadow="2"
     inkscape:pageopacity="0.0"
     inkscape:pagecheckerboard="0"
     inkscape:deskcolor="#d1d1d1"
     inkscape:zoom="24.03125"
     inkscape:cx="16"
     inkscape:cy="16"
     inkscape:window-width="1920"
     inkscape:window-height="996"
     inkscape:window-x="0"
     inkscape:window-y="0"
     inkscape:window-maximized="1"
     inkscape:current-layer="svg4" />
  <defs
     id="defs3051">
    <style
       type="text/css"
       id="current-color-scheme">&#10;      .ColorScheme-Text {&#10;        color:#31363b;&#10;      }&#10;      .ColorScheme-Background {&#10;        color:#eff0f1;&#10;      }&#10;      .ColorScheme-Highlight {&#10;        color:#3daee9;&#10;      }&#10;      .ColorScheme-ViewText {&#10;        color:#31363b;&#10;      }&#10;      .ColorScheme-ViewBackground {&#10;        color:#fcfcfc;&#10;      }&#10;      .ColorScheme-ViewHover {&#10;        color:#93cee9;&#10;      }&#10;      .ColorScheme-ViewFocus{&#10;        color:#3daee9;&#10;      }&#10;      .ColorScheme-ButtonText {&#10;        color:#31363b;&#10;      }&#10;      .ColorScheme-ButtonBackground {&#10;        color:#eff0f1;&#10;      }&#10;      .ColorScheme-ButtonHover {&#10;        color:#93cee9;&#10;      }&#10;      .ColorScheme-ButtonFocus{&#10;        color:#3daee9;&#10;      }&#10;      </style>
  </defs>
  <path
     style="fill:currentColor;fill-opacity:1;stroke:none"
     d="M 2 3 L 2 10 L 1 10 L 1 29 L 12 29 L 13 29 L 31 29 L 31 8 L 30 8 L 30 5 L 16 5 L 14 3 L 2 3 z "
     class="ColorScheme-Highlight"
     id="path1" />
  <path
     style="fill-opacity:0.33;fill-rule:evenodd"
     d="m 2,3 0,7 9,0 L 13,8 30,8 30,5 16,5 14,3 2,3 Z"
     id="path2" />
  <path
     style="fill:#ffffff;fill-opacity:0.2;fill-rule:evenodd"
     d="M 14 3 L 15 6 L 30 6 L 30 5 L 16 5 L 14 3 z M 13 8 L 11 10 L 1 10 L 1 11 L 12 11 L 13 8 z "
     id="path3" />
  <path
     style="fill-opacity:0.2;fill-rule:evenodd"
     d="M 13 8 L 11 9 L 2 9 L 2 10 L 11 10 L 13 8 z M 1 28 L 1 29 L 31 29 L 31 28 L 1 28 z "
     class="ColorScheme-Text"
     id="path4" />
  <path
     d="m 18.968506,19.554813 c -0.06963,-0.213768 -0.176148,-0.414303 -0.319216,-0.601603 -0.143356,-0.187092 -0.321339,-0.35326 -0.534147,-0.49846 -0.212929,-0.145052 -0.462532,-0.2596 -0.748954,-0.343752 -0.114798,-0.03042 -0.316718,-0.07827 -0.582682,-0.143247 -0.190093,-0.0463 -0.368304,-0.09375 -0.569198,-0.142113 v -2.359895 c 0.200885,0.05354 0.340451,0.138422 0.489422,0.232818 0.318729,0.201785 0.518573,0.546982 0.57712,1.01573 h 1.54406 c -0.01449,-0.401779 -0.103792,-0.731247 -0.267767,-1.027227 -0.18014,-0.324623 -0.423588,-0.603209 -0.730577,-0.824909 -0.306921,-0.221473 -0.674672,-0.3904 -1.079843,-0.501234 -0.175981,-0.04806 -0.3315,-0.08849 -0.532389,-0.1157 V 13.5 h -1.428568 v 0.740333 c -0.156272,0.02329 -0.338126,0.05457 -0.500581,0.09487 -0.384875,0.0956 -0.722947,0.242592 -1.025695,0.441163 -0.302926,0.198761 -0.543585,0.448929 -0.727774,0.750604 -0.184233,0.301849 -0.274808,0.658928 -0.274808,1.071426 0,0.21395 0.03133,0.423952 0.0927,0.630245 0.06138,0.206283 0.166093,0.40105 0.313451,0.584405 0.14738,0.183351 0.345865,0.349507 0.595687,0.498481 0.249619,0.148939 0.551444,0.269285 0.928027,0.360964 0.207293,0.0523 0.420313,0.101204 0.598889,0.146772 v 2.669328 c -0.2455,-0.06515 -0.488551,-0.165149 -0.684741,-0.300876 -0.204683,-0.141226 -0.358619,-0.311446 -0.473168,-0.533124 -0.106607,-0.206004 -0.157947,-0.45817 -0.165339,-0.726025 h -1.533838 c 0.01531,0.468749 0.11719,0.881561 0.305181,1.23596 0.196392,0.370625 0.458331,0.66875 0.785792,0.905401 0.327289,0.2369 0.70075,0.409735 1.142825,0.524355 0.198264,0.0514 0.422452,0.08839 0.623346,0.116745 V 23.5 h 1.428573 v -0.770974 c 0.22322,-0.02387 0.423153,-0.06008 0.636773,-0.108916 0.417424,-0.09538 0.79564,-0.246335 1.12312,-0.452589 0.32728,-0.206259 0.594216,-0.471607 0.79488,-0.796448 0.200448,-0.324581 0.302348,-0.716183 0.302348,-1.174535 2.4e-5,-0.213796 -0.0335,-0.427766 -0.102948,-0.641716 z m -4.182739,-2.088325 c -0.267864,-0.08355 -0.533756,-0.202863 -0.715417,-0.358215 -0.192427,-0.164162 -0.282899,-0.391388 -0.282899,-0.681811 0,-0.206281 0.05391,-0.378128 0.156345,-0.515671 0.102265,-0.137513 0.221259,-0.246382 0.376786,-0.326584 0.137956,-0.07119 0.308929,-0.124221 0.465183,-0.159328 z m 2.654057,3.343122 c -0.06559,0.148961 -0.171846,0.280715 -0.319265,0.39534 -0.147364,0.11458 -0.351427,0.208212 -0.588768,0.280736 -0.100454,0.03075 -0.183563,0.05452 -0.317482,0.07224 V 19.16708 c 0.223214,0.05855 0.405803,0.119019 0.587636,0.181487 0.179949,0.06127 0.351522,0.166132 0.503058,0.315086 0.151461,0.149 0.230109,0.380134 0.230109,0.6933 3e-5,0.152886 -0.02988,0.303684 -0.09529,0.452663 z"
     id="path25907-1-5"
     style="fill:#e5e5e5;fill-opacity:1;stroke-width:0.0223214" />
</svg>
