<?xml version="1.0" encoding="UTF-8" standalone="no"?>
<svg
   xmlns:dc="http://purl.org/dc/elements/1.1/"
   xmlns:cc="http://creativecommons.org/ns#"
   xmlns:rdf="http://www.w3.org/1999/02/22-rdf-syntax-ns#"
   xmlns:svg="http://www.w3.org/2000/svg"
   xmlns="http://www.w3.org/2000/svg"
   xmlns:sodipodi="http://sodipodi.sourceforge.net/DTD/sodipodi-0.dtd"
   xmlns:inkscape="http://www.inkscape.org/namespaces/inkscape"
   viewBox="0 0 32 32"
   version="1.1"
   id="svg12"
   sodipodi:docname="folder-KDE.svg"
   inkscape:version="1.0.2 (e86c870879, 2021-01-15)">
  <metadata
     id="metadata16">
    <rdf:RDF>
      <cc:Work
         rdf:about="">
        <dc:format>image/svg+xml</dc:format>
        <dc:type
           rdf:resource="http://purl.org/dc/dcmitype/StillImage" />
      </cc:Work>
    </rdf:RDF>
  </metadata>
  <sodipodi:namedview
     pagecolor="#ffffff"
     bordercolor="#666666"
     borderopacity="1"
     objecttolerance="10"
     gridtolerance="10"
     guidetolerance="10"
     inkscape:pageopacity="0"
     inkscape:pageshadow="2"
     inkscape:window-width="1920"
     inkscape:window-height="1007"
     id="namedview14"
     showgrid="false"
     inkscape:zoom="19.625"
     inkscape:cx="7.7707006"
     inkscape:cy="16"
     inkscape:window-x="0"
     inkscape:window-y="0"
     inkscape:window-maximized="1"
     inkscape:current-layer="svg12"
     inkscape:document-rotation="0" />
  <defs
     id="defs3051">
    <style
       type="text/css"
       id="current-color-scheme">
      .ColorScheme-Text {
        color:#31363b;
      }
      .ColorScheme-Background {
        color:#eff0f1;
      }
      .ColorScheme-Highlight {
        color:#3daee9;
      }
      .ColorScheme-ViewText {
        color:#31363b;
      }
      .ColorScheme-ViewBackground {
        color:#fcfcfc;
      }
      .ColorScheme-ViewHover {
        color:#93cee9;
      }
      .ColorScheme-ViewFocus{
        color:#3daee9;
      }
      .ColorScheme-ButtonText {
        color:#31363b;
      }
      .ColorScheme-ButtonBackground {
        color:#eff0f1;
      }
      .ColorScheme-ButtonHover {
        color:#93cee9;
      }
      .ColorScheme-ButtonFocus{
        color:#3daee9;
      }
      </style>
  </defs>
  <path
     style="fill:currentColor;fill-opacity:1;stroke:none"
     d="M 2 3 L 2 10 L 1 10 L 1 29 L 12 29 L 13 29 L 31 29 L 31 8 L 30 8 L 30 5 L 16 5 L 14 3 L 2 3 z "
     class="ColorScheme-Highlight"
     id="path4" />
  <path
     style="fill-opacity:0.33;fill-rule:evenodd"
     d="m 2,3 0,7 9,0 L 13,8 30,8 30,5 16,5 14,3 2,3 Z"
     id="path6" />
  <path
     style="fill:#ffffff;fill-opacity:0.2;fill-rule:evenodd"
     d="M 14 3 L 15 6 L 30 6 L 30 5 L 16 5 L 14 3 z M 13 8 L 11 10 L 1 10 L 1 11 L 12 11 L 13 8 z "
     id="path8" />
  <path
     style="fill-opacity:0.2;fill-rule:evenodd"
     d="M 13 8 L 11 9 L 2 9 L 2 10 L 11 10 L 13 8 z M 1 28 L 1 29 L 31 29 L 31 28 L 1 28 z "
     class="ColorScheme-Text"
     id="path10" />
  <path
     style="color:#d3dae3;fill:#eff0f1;fill-opacity:1;stroke-width:0.477372"
     d="m 16.54604,13 -1.9142,0.2884 v 6.88997 l 1.9142,-0.51156 v -2.66187 l 1.91424,3.13811 1.91426,-0.7144 -2.39278,-2.85713 2.39368,-3.09434 L 18.51821,13 16.54604,16.12324 Z m -3.89761,1.86852 c -0.0451,0 -0.0906,0.0171 -0.12527,0.0525 l -0.75237,0.74877 c -0.0692,0.0687 -0.053,0.16774 0,0.25015 l 0.77857,1.21657 c -0.0573,0.1192 -0.1076,0.2419 -0.14953,0.36737 -0.004,0.01 -0.01,0.0108 -0.01,0.0155 l -1.4123,0.31237 C 10.88173,17.85375 10.8,17.91055 10.8,18.00857 v 0.46785 0.4678 c 0,0.0976 0.082,0.15545 0.17753,0.17666 l 1.4123,0.31254 c 0.006,0.01 0.01,0.0176 0.012,0.0263 0.0416,0.12191 0.0891,0.24129 0.1449,0.35725 l -0.77863,1.21554 c -0.0531,0.0827 -0.0692,0.18109 0,0.25017 l 0.75248,0.7487 c 0.0692,0.0687 0.18105,0.0687 0.25039,0 l 1.22079,-0.77382 c 0.11998,0.0576 0.24354,0.10851 0.37007,0.1507 0.01,0.006 0.0154,0.01 0.0249,0.0105 l 0.31315,1.40448 c 0,0.0976 0.0793,0.1767 0.17758,0.1767 h 1.06271 c 0.0982,0 0.15632,-0.0817 0.1776,-0.1767 l 0.31315,-1.44717 c 0.14383,-0.0543 0.28346,-0.1183 0.41773,-0.19258 l 1.19175,0.8482 c 0.0691,0.0687 0.18105,0.0687 0.25054,0 l 0.75235,-0.74864 c 0.0691,-0.0687 0.0529,-0.1678 0,-0.25029 l -0.45326,-0.68447 -0.0471,0.0172 c -0.1078,0.0406 -0.22917,-0.003 -0.2888,-0.0994 l -0.47668,-0.78128 c -0.39722,0.94535 -1.33521,1.60997 -2.42928,1.60997 -1.4536,0 -2.63204,-1.17263 -2.63204,-2.61919 0,-1.10999 0.69523,-2.05632 1.67494,-2.43762 v -0.52182 l -0.008,0.0159 c -0.0112,0.007 -0.0206,0.01 -0.0315,0.0136 -0.1248,0.042 -0.24685,0.0904 -0.36543,0.14691 l -1.21886,-0.77288 c -0.035,-0.0344 -0.08,-0.0525 -0.12524,-0.0525 z"
     class="ColorScheme-Text"
     id="path10-7" />
</svg>
