<?xml version="1.0" encoding="UTF-8" standalone="no"?>
<svg
   viewBox="0 0 32 32"
   version="1.1"
   id="svg14"
   sodipodi:docname="folder-build.svg"
   inkscape:version="1.3 (0e150ed6c4, 2023-07-21)"
   xmlns:inkscape="http://www.inkscape.org/namespaces/inkscape"
   xmlns:sodipodi="http://sodipodi.sourceforge.net/DTD/sodipodi-0.dtd"
   xmlns="http://www.w3.org/2000/svg"
   xmlns:svg="http://www.w3.org/2000/svg">
  <sodipodi:namedview
     id="namedview16"
     pagecolor="#ffffff"
     bordercolor="#666666"
     borderopacity="1.0"
     inkscape:pageshadow="2"
     inkscape:pageopacity="0.0"
     inkscape:pagecheckerboard="0"
     showgrid="false"
     inkscape:zoom="19.4375"
     inkscape:cx="16.025723"
     inkscape:cy="15.974277"
     inkscape:window-width="1920"
     inkscape:window-height="994"
     inkscape:window-x="0"
     inkscape:window-y="0"
     inkscape:window-maximized="1"
     inkscape:current-layer="svg14"
     inkscape:showpageshadow="2"
     inkscape:deskcolor="#d1d1d1" />
  <defs
     id="defs3051">
    <style
       type="text/css"
       id="current-color-scheme">&#10;      .ColorScheme-Text {&#10;        color:#31363b;&#10;      }&#10;      .ColorScheme-Highlight {&#10;        color:#3daee9;&#10;      }&#10;      </style>
  </defs>
  <path
     style="fill:currentColor;fill-opacity:1;stroke:none"
     d="M 2 3 L 2 10 L 1 10 L 1 29 L 12 29 L 13 29 L 31 29 L 31 8 L 30 8 L 30 5 L 16 5 L 14 3 L 2 3 z "
     class="ColorScheme-Highlight"
     id="path4" />
  <path
     style="fill-opacity:0.33;fill-rule:evenodd"
     d="m 2,3 0,7 9,0 L 13,8 30,8 30,5 16,5 14,3 2,3 Z"
     id="path6" />
  <path
     style="fill:#ffffff;fill-opacity:0.2;fill-rule:evenodd"
     d="M 14 3 L 15 6 L 30 6 L 30 5 L 16 5 L 14 3 z M 13 8 L 11 10 L 1 10 L 1 11 L 12 11 L 13 8 z "
     id="path8" />
  <path
     style="fill-opacity:0.2;fill-rule:evenodd"
     d="M 13 8 L 11 9 L 2 9 L 2 10 L 11 10 L 13 8 z M 1 28 L 1 29 L 31 29 L 31 28 L 1 28 z "
     class="ColorScheme-Text"
     id="path10" />
  <path
     style="fill:#e5e5e5;fill-opacity:1;stroke:none;stroke-width:0.774175"
     d="m 16.172601,12.500001 c -0.09895,0 -0.180472,0.07042 -0.198079,0.16179 l -0.149692,1.026681 c -0.242317,0.09871 -0.468283,0.228491 -0.672863,0.381039 l -0.990396,-0.388598 c -0.08888,-0.03509 -0.192461,-4.6e-5 -0.241929,0.08315 l -0.795343,1.34119 c -0.04948,0.08567 -0.02857,0.190056 0.04689,0.247978 l 0.839189,0.639599 c -0.01593,0.123997 -0.02871,0.249936 -0.02871,0.378015 0,0.128076 0.01278,0.254014 0.02871,0.378015 L 13.1727,17.388462 c -0.07543,0.06037 -0.09635,0.164767 -0.04689,0.247973 l 0.795339,1.341195 c 0.0495,0.0832 0.152214,0.115795 0.241927,0.08315 l 0.99191,-0.3886 c 0.204584,0.15418 0.42904,0.282329 0.671348,0.38104 l 0.149696,1.026683 c 0.01593,0.09057 0.09678,0.161789 0.196565,0.161789 h 1.592192 c 0.09978,0 0.180634,-0.07041 0.196566,-0.161789 l 0.149696,-1.026683 c 0.242313,-0.09871 0.468282,-0.228489 0.672863,-0.38104 l 0.990393,0.3886 c 0.08889,0.03509 0.192462,4.6e-5 0.241929,-0.08315 l 0.795344,-1.341195 c 0.04947,-0.08567 0.02856,-0.190052 -0.04689,-0.247973 l -0.839186,-0.639596 c 0.01592,-0.124 0.02871,-0.249937 0.02871,-0.378013 0,-0.128079 -0.01278,-0.25402 -0.02871,-0.378015 l 0.839189,-0.639599 c 0.07542,-0.06037 0.09635,-0.16477 0.04689,-0.247978 l -0.795344,-1.341193 c -0.0495,-0.08321 -0.15221,-0.115793 -0.24193,-0.08315 l -0.990392,0.388598 c -0.20458,-0.154176 -0.430548,-0.28233 -0.672861,-0.381038 L 17.96136,12.66179 c -0.01593,-0.09055 -0.09679,-0.161789 -0.196569,-0.161789 z m 0.793827,2.516061 c 0.769703,0 1.3926,0.605918 1.3926,1.3548 0,0.748877 -0.622897,1.354801 -1.3926,1.354801 -0.769699,0 -1.392599,-0.605924 -1.392599,-1.354801 0,-0.748882 0.6229,-1.3548 1.392599,-1.3548 z m -3.820957,4.067421 c -0.03057,-0.0064 -0.06274,-0.003 -0.09222,0.01362 L 12.1067,19.627836 c -0.05976,0.03265 -0.08442,0.104968 -0.06504,0.16784 l 0.254027,0.69252 c -0.11099,0.143249 -0.20154,0.300258 -0.272173,0.464201 l -0.719734,0.08466 c -0.06442,0.0079 -0.114111,0.06459 -0.11643,0.133061 l -0.0257,1.10682 c -0.0015,0.07005 0.04596,0.127968 0.110383,0.139108 l 0.7152,0.120966 c 0.03181,0.08276 0.06772,0.166086 0.110376,0.246464 0.04265,0.08037 0.0917,0.155896 0.142138,0.228323 l -0.285787,0.680422 c -0.02483,0.06289 -0.003,0.13505 0.05446,0.170863 l 0.920842,0.576095 c 0.05741,0.03579 0.129687,0.02138 0.172371,-0.02871 l 0.459674,-0.573066 c 0.173082,0.02862 0.350742,0.03421 0.527703,0.01508 l 0.43094,0.594238 c 0.03958,0.05177 0.111876,0.06975 0.170859,0.03629 l 0.946542,-0.530739 c 0.05902,-0.03265 0.08447,-0.104249 0.06348,-0.166327 l -0.254006,-0.694023 c 0.110991,-0.143254 0.20154,-0.298749 0.272169,-0.462691 l 0.719737,-0.08618 c 0.06441,-0.0079 0.114103,-0.06459 0.116427,-0.133065 l 0.02571,-1.10531 c 0.002,-0.07005 -0.04596,-0.127971 -0.110383,-0.139106 l -0.713689,-0.122491 c -0.03181,-0.08276 -0.06771,-0.166084 -0.110383,-0.246463 -0.04269,-0.08037 -0.09169,-0.155898 -0.142134,-0.22832 l 0.285781,-0.680424 c 0.02483,-0.06289 0.003,-0.135047 -0.05446,-0.170861 l -0.920839,-0.576089 c -0.05741,-0.03579 -0.129689,-0.02139 -0.172378,0.02871 l -0.459661,0.57307 c -0.173083,-0.02861 -0.350741,-0.03421 -0.527706,-0.01508 l -0.430939,-0.594225 c -0.01981,-0.02586 -0.04808,-0.043 -0.07864,-0.04988 z m 0.633547,1.743395 c 0.366007,-0.03755 0.734915,0.146823 0.922358,0.498977 0.249919,0.469548 0.08139,1.057719 -0.376504,1.313973 -0.457932,0.256267 -1.030786,0.08397 -1.280709,-0.385572 -0.249923,-0.469547 -0.08141,-1.05771 0.376504,-1.313973 0.114483,-0.06409 0.236353,-0.100898 0.358351,-0.113405 z"
     class="ColorScheme-Text"
     id="path12" />
</svg>
