<?xml version="1.0" encoding="UTF-8" standalone="no"?>
<svg
   width="48"
   height="48"
   version="1.1"
   id="svg23"
   sodipodi:docname="brave-nightly.svg"
   inkscape:version="1.2.1 (9c6d41e410, 2022-07-14)"
   xmlns:inkscape="http://www.inkscape.org/namespaces/inkscape"
   xmlns:sodipodi="http://sodipodi.sourceforge.net/DTD/sodipodi-0.dtd"
   xmlns="http://www.w3.org/2000/svg"
   xmlns:svg="http://www.w3.org/2000/svg">
  <sodipodi:namedview
     id="namedview25"
     pagecolor="#ffffff"
     bordercolor="#666666"
     borderopacity="1.0"
     inkscape:showpageshadow="2"
     inkscape:pageopacity="0.0"
     inkscape:pagecheckerboard="0"
     inkscape:deskcolor="#d1d1d1"
     showgrid="false"
     inkscape:zoom="3.6875"
     inkscape:cx="32"
     inkscape:cy="32"
     inkscape:window-width="1920"
     inkscape:window-height="1011"
     inkscape:window-x="0"
     inkscape:window-y="0"
     inkscape:window-maximized="1"
     inkscape:current-layer="svg23" />
  <defs
     id="defs15">
    <filter
       id="filter4014"
       x="-0.062499932"
       y="-0.057692992"
       width="1.1249999"
       height="1.115386"
       color-interpolation-filters="sRGB">
      <feGaussianBlur
         stdDeviation="1.093751"
         id="feGaussianBlur2" />
    </filter>
    <linearGradient
       id="linearGradient2614"
       x1="32.063999"
       x2="32.063999"
       y1="60.09"
       y2="5.2599001"
       gradientTransform="matrix(0.6999767,0,0,0.6999767,1.6002427,1.6004754)"
       gradientUnits="userSpaceOnUse">
      <stop
         stop-color="#5a00a0"
         offset="0"
         id="stop5" />
      <stop
         stop-color="#8c05eb"
         offset="1"
         id="stop7" />
    </linearGradient>
    <linearGradient
       id="linearGradient4202"
       x1="32.198002"
       x2="32.198002"
       y1="10.2"
       y2="51.834"
       gradientUnits="userSpaceOnUse"
       gradientTransform="matrix(0.6999767,0,0,0.6999767,1.6007409,1.600739)">
      <stop
         stop-color="#fff"
         offset="0"
         id="stop10" />
      <stop
         stop-color="#dfb4fe"
         offset="1"
         id="stop12" />
    </linearGradient>
  </defs>
  <circle
     cx="24"
     cy="24"
     fill="url(#linearGradient2614)"
     stroke-linecap="round"
     stroke-width="0.17029"
     id="circle17"
     style="fill:url(#linearGradient2614)"
     r="21" />
  <path
     d="m 25.000283,9.2479209 c -0.875,0 -3.9375,3.5000001 -4.375,3.5000001 h -2.1875 c -0.875,0 -3.9375,3.0625 -3.9375,3.9375 v 2.625 c 0,0.4375 -3.4808,3.5 -3.5,4.375 -0.0192,0.875 6.125,21.438 7,22.312 0.875,0.874 10.5,8.75 13.125,8.75 h 1.75 c 2.625,0 12.25,-7.875 13.125,-8.75 0.875,-0.875 7.0175,-21.438 7,-22.312 -0.01925,-0.86975 -3.5,-3.9375 -3.5,-4.375 v -2.625 c 0,-0.875 -3.0625,-3.9375 -3.9375,-3.9375 h -2.1875 c -0.4375,0 -3.5,-3.5000001 -4.375,-3.5000001 z m 7,6.1113001 c 0.875,0 1.7395,0.29892 2.625,0.88867 2.625,1.75 6.125,-0.875 7,-0.875 0.875,0 6.125,6.3752 6.125,8.75 0,1.75 -6.5625,5.775 -6.5625,7 0,0.875 1.3125,1.2973 1.3125,3.1523 0,1.2232 -1.75,3.4102 -3.5,3.4102 -1.75,0 -6.1285,-3.4347 -6.125,-4.2852 v -0.52734 c 0,-1.05 3.9375,-2.373 3.9375,-4.375 0,-1.75 -1.3125,-2.3975 -1.3125,-4.375 0,-1.701 3.5,-2.1875 6.125,-2.625 0.875,0 -2.625,-2.8791 -7.4375,0.23242 -1.218,0.7875 1.3125,3.9011 0.875,6.7676 -0.65625,0.6125 -1.8585,0.91992 -3.0625,0.91992 -1.2022,0 -2.4062,-0.30742 -3.0625,-0.91992 -0.4375,-2.8665 2.093,-5.9801 0.875,-6.7676 -4.8125,-3.1115 -8.3125,-0.23242 -7.4375,-0.23242 2.625,0.4375 6.125,0.924 6.125,2.625 0,1.9775 -1.3125,2.625 -1.3125,4.375 0,2.002 3.9375,3.325 3.9375,4.375 v 0.52734 c 0.0035,0.8505 -4.375,4.2852 -6.125,4.2852 -1.75,0 -3.5,-2.1869 -3.5,-3.4102 0,-1.8568 1.3125,-2.2773 1.3125,-3.1523 0,-1.225 -6.5625,-5.25 -6.5625,-7 0,-2.3748 5.25,-8.75 6.125,-8.75 0.875,0 4.375,2.625 7,0.875 0.8855,-0.58975 1.7535,-0.88867 2.625,-0.88867 z m 0,20.84 c 1.75,0 5.6875,2.7113 5.6875,3.2363 0,0.525 -3.9375,4.8125 -5.6875,4.8125 -1.75,0 -5.6875,-4.2875 -5.6875,-4.8125 0,-0.525 3.9375,-3.2363 5.6875,-3.2363 z"
     fill="#390066"
     filter="url(#filter4014)"
     id="path19"
     transform="matrix(0.6999767,0,0,0.6999767,1.6007409,1.600739)" />
  <path
     d="m 19.099458,8.0741936 c -0.612493,0 -2.756228,2.4499894 -3.062607,2.4499894 h -1.53127 c -0.612493,0 -2.756228,2.143748 -2.756228,2.756228 v 1.837438 c 0,0.306261 -2.4365487,2.449989 -2.4499883,3.062609 -0.013495,0.612493 4.2874973,15.006099 4.8999763,15.618579 0.612466,0.611934 7.349755,6.124937 9.187195,6.124937 h 1.224958 c 1.83744,0 8.574715,-5.512457 9.187195,-6.124937 0.612493,-0.612494 4.912156,-15.0061 4.899977,-15.618579 -0.0135,-0.608813 -2.449988,-2.756229 -2.449988,-3.062609 v -1.837438 c 0,-0.612494 -2.143749,-2.756228 -2.756229,-2.756228 H 31.96118 c -0.306261,0 -2.449989,-2.4499894 -3.062608,-2.4499894 z m 4.899978,4.2776974 c 0.612492,0 1.217609,0.209237 1.837438,0.622069 1.837439,1.22496 4.287497,-0.612493 4.899977,-0.612493 0.612494,0 4.287497,4.462631 4.287497,6.124936 0,1.22496 -4.593597,4.042506 -4.593597,4.899977 0,0.612494 0.91872,0.90808 0.91872,2.206607 0,0.856211 -1.22496,2.38713 -2.449989,2.38713 -1.225029,0 -4.289877,-2.404279 -4.287498,-2.99961 v -0.369119 c 0,-0.734976 2.756229,-1.661114 2.756229,-3.062608 0,-1.224959 -0.918719,-1.678264 -0.918719,-3.062608 0,-1.19066 2.449988,-1.531269 4.287497,-1.837439 0.612494,0 -1.837439,-2.015373 -5.206077,0.162689 -0.852572,0.551245 0.91872,2.730819 0.612494,4.737302 -0.45936,0.42875 -1.300907,0.643951 -2.143748,0.643951 -0.841512,0 -1.684285,-0.215194 -2.143749,-0.643951 -0.306262,-2.006553 1.465051,-4.185931 0.612493,-4.737302 -3.368708,-2.178048 -5.818557,-0.162689 -5.206077,-0.162689 1.837439,0.306261 4.287498,0.646807 4.287498,1.837439 0,1.384204 -0.91872,1.837439 -0.91872,3.062608 0,1.401424 2.756229,2.327492 2.756229,3.062608 v 0.369119 c 0.0024,0.595345 -3.062609,2.99961 -4.287498,2.99961 -1.224889,0 -2.449989,-1.530849 -2.449989,-2.38713 0,-1.299717 0.918721,-1.594127 0.918721,-2.206607 0,-0.857471 -4.593598,-3.675017 -4.593598,-4.899977 0,-1.662305 3.675017,-6.124936 4.287497,-6.124936 0.61248,0 3.062608,1.837439 4.899977,0.612493 0.619844,-0.412825 1.22741,-0.622069 1.83744,-0.622069 z m 0,14.587515 c 1.224958,0 3.981116,1.897846 3.981116,2.265404 0,0.367502 -2.756228,3.368709 -3.981116,3.368709 -1.22496,0 -3.981118,-3.001221 -3.981118,-3.368709 0,-0.367481 2.756228,-2.265404 3.981118,-2.265404 z"
     fill="url(#linearGradient4202)"
     id="path21"
     style="fill:url(#linearGradient4202);stroke-width:0.699977" />
</svg>
