<?xml version="1.0" encoding="UTF-8" standalone="no"?>
<svg
   version="1.1"
   viewBox="0 0 32 32"
   id="svg31"
   sodipodi:docname="lftp.svg"
   inkscape:version="1.3 (0e150ed6c4, 2023-07-21)"
   xmlns:inkscape="http://www.inkscape.org/namespaces/inkscape"
   xmlns:sodipodi="http://sodipodi.sourceforge.net/DTD/sodipodi-0.dtd"
   xmlns:xlink="http://www.w3.org/1999/xlink"
   xmlns="http://www.w3.org/2000/svg"
   xmlns:svg="http://www.w3.org/2000/svg"
   xmlns:rdf="http://www.w3.org/1999/02/22-rdf-syntax-ns#"
   xmlns:cc="http://creativecommons.org/ns#"
   xmlns:dc="http://purl.org/dc/elements/1.1/">
  <sodipodi:namedview
     id="namedview33"
     pagecolor="#ffffff"
     bordercolor="#666666"
     borderopacity="1.0"
     inkscape:showpageshadow="2"
     inkscape:pageopacity="0.0"
     inkscape:pagecheckerboard="0"
     inkscape:deskcolor="#d1d1d1"
     showgrid="false"
     inkscape:zoom="7.375"
     inkscape:cx="16"
     inkscape:cy="16.067797"
     inkscape:window-width="1920"
     inkscape:window-height="994"
     inkscape:window-x="0"
     inkscape:window-y="0"
     inkscape:window-maximized="1"
     inkscape:current-layer="svg31" />
  <metadata
     id="metadata2">
    <rdf:RDF>
      <cc:Work
         rdf:about="">
        <dc:format>image/svg+xml</dc:format>
        <dc:type
           rdf:resource="http://purl.org/dc/dcmitype/StillImage" />
      </cc:Work>
    </rdf:RDF>
  </metadata>
  <defs
     id="defs19">
    <linearGradient
       id="e"
       x1="8.4461"
       x2="24.603"
       y1="6.2689"
       y2="24.571"
       gradientUnits="userSpaceOnUse"
       gradientTransform="translate(0.254427,-38.49298)">
      <stop
         stop-opacity=".2088"
         offset="0"
         id="stop4" />
      <stop
         stop-opacity="0"
         offset="1"
         id="stop6" />
    </linearGradient>
    <linearGradient
       id="c"
       x1="30"
       x2=".14963"
       y1="30"
       y2=".069732"
       gradientUnits="userSpaceOnUse"
       gradientTransform="translate(-45.111585,-25.7642)">
      <stop
         stop-color="#da6125"
         offset="0"
         id="stop9" />
      <stop
         stop-color="#e17d4a"
         offset="1"
         id="stop11" />
    </linearGradient>
    <linearGradient
       id="d"
       x1="7.8488"
       x2="14.108"
       y1="3.5121"
       y2="14.183"
       gradientUnits="userSpaceOnUse"
       gradientTransform="translate(0.254427,-38.49298)">
      <stop
         stop-opacity=".2088"
         offset="0"
         id="stop14" />
      <stop
         stop-opacity="0"
         offset="1"
         id="stop16" />
    </linearGradient>
    <linearGradient
       gradientTransform="matrix(0.69997081,0,0,0.69993114,-301.98807,-350.62336)"
       gradientUnits="userSpaceOnUse"
       x2="426.69501"
       y2="499.92099"
       y1="547.67499"
       id="a-6"
       x1="389.32001">
      <stop
         stop-color="#18222a"
         style="stop-color:#1e2b35;stop-opacity:1"
         id="stop216" />
      <stop
         stop-color="#566069"
         offset="1"
         style="stop-color:#6d7983;stop-opacity:1"
         id="stop218" />
    </linearGradient>
    <linearGradient
       id="e-5"
       gradientUnits="userSpaceOnUse"
       x1="21.923"
       x2="23.538"
       xlink:href="#a"
       y1="22.462"
       y2="24.077" />
    <linearGradient
       id="a">
      <stop
         offset="0"
         stop-color="#292c2f"
         id="stop32" />
      <stop
         offset="1"
         stop-opacity="0"
         id="stop34" />
    </linearGradient>
    <linearGradient
       id="f-9"
       gradientUnits="userSpaceOnUse"
       x1="28.385"
       x2="28.385"
       xlink:href="#c-3"
       y1="27.846001"
       y2="3.615" />
    <linearGradient
       id="c-3">
      <stop
         offset="0"
         stop-color="#bf4231"
         id="stop22" />
      <stop
         offset="1"
         stop-color="#e05e4c"
         id="stop24" />
    </linearGradient>
    <linearGradient
       id="g-7"
       gradientUnits="userSpaceOnUse"
       x1="28.385"
       x2="28.385"
       xlink:href="#b"
       y1="27.846001"
       y2="3.615" />
    <linearGradient
       id="b">
      <stop
         offset="0"
         stop-color="#eff0f1"
         id="stop27" />
      <stop
         offset="1"
         stop-color="#fcfcfc"
         id="stop29" />
    </linearGradient>
    <linearGradient
       id="h-3"
       gradientUnits="userSpaceOnUse"
       x1="9.5380001"
       x2="23"
       xlink:href="#a"
       y1="10.615"
       y2="24.077" />
    <linearGradient
       id="i-6"
       gradientUnits="userSpaceOnUse"
       x1="12.769"
       x2="25.691999"
       xlink:href="#a"
       y1="7.3850002"
       y2="20.308001" />
    <linearGradient
       id="j-0"
       gradientUnits="userSpaceOnUse"
       x1="32"
       x2="32"
       xlink:href="#b"
       y1="54"
       y2="9" />
    <linearGradient
       id="k-6"
       gradientUnits="userSpaceOnUse"
       x1="32"
       x2="32"
       xlink:href="#c-3"
       y1="54"
       y2="9" />
    <linearGradient
       id="l-2"
       gradientUnits="userSpaceOnUse"
       x1="37"
       x2="37"
       y1="46"
       y2="38">
      <stop
         offset="0"
         stop-color="#be4434"
         id="stop5-6" />
      <stop
         offset=".25"
         stop-color="#c44837"
         id="stop7-1" />
      <stop
         offset="1"
         stop-color="#cb4c3b"
         id="stop9-8" />
    </linearGradient>
  </defs>
  <rect
     width="27.998837"
     x="-29.999596"
     y="2.0019586"
     rx="13.999418"
     height="27.99725"
     transform="scale(-1,1)"
     style="display:inline;fill:url(#a-6);stroke-width:1.95986;stroke-opacity:0.55"
     id="rect223"
     ry="13.998625" />
  <path
     style="display:inline;opacity:0.3;fill:#000000;fill-opacity:1;stroke-width:1.95986;stroke-opacity:0.55"
     d="M 2.0084,15.650648 C 2.0058,15.76733 2,15.88335 2,16.000701 c 0,7.755296 6.243756,13.998633 13.999375,13.998633 7.755631,0 13.999479,-6.243337 13.999479,-13.998633 0,-0.117351 -0.0053,-0.232702 -0.0084,-0.350053 -0.184866,7.59214 -6.355794,13.648647 -13.99107,13.648647 -7.638075,0 -13.806206,-6.056507 -13.990978,-13.648647"
     id="path225" />
  <path
     d="M 2.0084,16.348019 C 2.0058,16.231337 2,16.115985 2,15.997966 2,8.242737 8.243756,1.999334 15.999375,1.999334 c 7.755631,0 13.999479,6.243403 13.999479,13.998632 0,0.117351 -0.0053,0.233369 -0.0084,0.350053 C 29.805588,8.755882 23.63466,2.699373 15.999384,2.699373 c -7.638075,0 -13.806206,6.056509 -13.990978,13.648646"
     style="display:inline;opacity:0.3;fill:#ffffff;fill-opacity:1;stroke-width:1.95986;stroke-opacity:0.55"
     id="path229" />
  <rect
     style="fill:#3f92f7;stroke-width:0.375758"
     width="18.867922"
     height="2.2450161"
     x="6"
     y="9.3708515"
     rx="1.0483013"
     ry="1.122508"
     id="rect3" />
  <path
     style="fill:#3f92f7;stroke-width:0.375758"
     d="m 21.167176,7.5002099 a 0.80868081,0.77018865 0 0 0 -0.82756,0.770116 v 4.4461861 a 0.80868081,0.77018865 0 0 0 1.212907,0.667081 l 2.021496,-1.111548 2.0215,-1.111545 a 0.80868081,0.77018865 0 0 0 0,-1.3341571 l -2.0215,-1.111548 -2.021496,-1.111554 a 0.80868081,0.77018865 0 0 0 -0.385347,-0.103031 z"
     id="path4" />
  <rect
     style="fill:#c83771;stroke-width:0.376943"
     width="18.867922"
     height="2.2591364"
     x="-26"
     y="20.358242"
     rx="1.0483013"
     ry="1.1295682"
     transform="scale(-1,1)"
     id="rect4" />
  <path
     style="fill:#c83771;stroke-width:0.376943"
     d="m 10.832829,18.475848 a 0.80868071,0.77503286 0 0 1 0.827548,0.774954 v 4.474154 A 0.80868071,0.77503286 0 0 1 10.44748,24.396234 L 8.4259787,23.277694 6.4044813,22.159155 a 0.80868071,0.77503286 0 0 1 0,-1.342552 L 8.4259787,19.698068 10.44748,18.579529 a 0.80868071,0.77503286 0 0 1 0.385349,-0.103681 z"
     id="path5" />
</svg>
