<?xml version="1.0" encoding="UTF-8" standalone="no"?>
<svg
   width="48"
   height="48"
   version="1.1"
   id="svg40"
   sodipodi:docname="opera.svg"
   inkscape:version="1.2.1 (9c6d41e410, 2022-07-14)"
   xmlns:inkscape="http://www.inkscape.org/namespaces/inkscape"
   xmlns:sodipodi="http://sodipodi.sourceforge.net/DTD/sodipodi-0.dtd"
   xmlns:xlink="http://www.w3.org/1999/xlink"
   xmlns="http://www.w3.org/2000/svg"
   xmlns:svg="http://www.w3.org/2000/svg">
  <sodipodi:namedview
     id="namedview42"
     pagecolor="#ffffff"
     bordercolor="#666666"
     borderopacity="1.0"
     inkscape:showpageshadow="2"
     inkscape:pageopacity="0.0"
     inkscape:pagecheckerboard="0"
     inkscape:deskcolor="#d1d1d1"
     showgrid="true"
     inkscape:zoom="4.9166667"
     inkscape:cx="70.576271"
     inkscape:cy="-15.152542"
     inkscape:window-width="1920"
     inkscape:window-height="1010"
     inkscape:window-x="0"
     inkscape:window-y="0"
     inkscape:window-maximized="1"
     inkscape:current-layer="svg40">
    <inkscape:grid
       type="xygrid"
       id="grid710"
       originx="0"
       originy="0" />
  </sodipodi:namedview>
  <defs
     id="defs26">
    <linearGradient
       inkscape:collect="always"
       id="linearGradient975">
      <stop
         style="stop-color:#7e4ace;stop-opacity:1;"
         offset="0"
         id="stop971" />
      <stop
         style="stop-color:#d35f5f;stop-opacity:1"
         offset="0.46867633"
         id="stop1043" />
      <stop
         style="stop-color:#d40055;stop-opacity:1"
         offset="1"
         id="stop973" />
    </linearGradient>
    <linearGradient
       id="linearGradient4317">
      <stop
         style="stop-color:#3b85b5;stop-opacity:1"
         offset="0"
         id="stop2" />
      <stop
         style="stop-color:#7cbcec;stop-opacity:1"
         offset="1"
         id="stop4" />
    </linearGradient>
    <linearGradient
       id="linearGradient4309">
      <stop
         style="stop-color:#3bb566;stop-opacity:1;"
         offset="0"
         id="stop7" />
      <stop
         style="stop-color:#7ceca4;stop-opacity:1"
         offset="1"
         id="stop9" />
    </linearGradient>
    <linearGradient
       id="linearGradient4301">
      <stop
         style="stop-color:#ffa92d;stop-opacity:1;"
         offset="0"
         id="stop12" />
      <stop
         style="stop-color:#ffc169;stop-opacity:1"
         offset="1"
         id="stop14" />
    </linearGradient>
    <linearGradient
       id="linearGradient4293">
      <stop
         style="stop-color:#bf4231;stop-opacity:1;"
         offset="0"
         id="stop17" />
      <stop
         style="stop-color:#f58273;stop-opacity:1"
         offset="1"
         id="stop19" />
    </linearGradient>
    <linearGradient
       xlink:href="#linearGradient4293"
       id="linearGradient4299"
       x1="16"
       y1="20"
       x2="7"
       y2="7"
       gradientUnits="userSpaceOnUse" />
    <linearGradient
       xlink:href="#linearGradient4301"
       id="linearGradient4307"
       x1="39"
       y1="20"
       x2="30"
       y2="7"
       gradientUnits="userSpaceOnUse" />
    <linearGradient
       xlink:href="#linearGradient4309"
       id="linearGradient4315"
       x1="17"
       y1="40.124001"
       x2="10"
       y2="28"
       gradientUnits="userSpaceOnUse" />
    <linearGradient
       xlink:href="#linearGradient4317"
       id="linearGradient4323"
       x1="38"
       y1="42"
       x2="30"
       y2="29"
       gradientUnits="userSpaceOnUse" />
    <linearGradient
       gradientTransform="matrix(1.0499636,0,0,1.0499041,-418.62858,-585.7341)"
       gradientUnits="userSpaceOnUse"
       x2="426.69501"
       y2="499.92099"
       y1="547.67499"
       id="a-6"
       x1="389.32001">
      <stop
         stop-color="#18222a"
         style="stop-color:#1e2b35;stop-opacity:1"
         id="stop216" />
      <stop
         stop-color="#566069"
         offset="1"
         style="stop-color:#6d7983;stop-opacity:1"
         id="stop218" />
    </linearGradient>
    <linearGradient
       id="linearGradient4235">
      <stop
         style="stop-color:#abdaf9;stop-opacity:1"
         offset="0"
         id="stop7-9" />
      <stop
         style="stop-color:#7cbcec;stop-opacity:1"
         offset="1"
         id="stop9-3" />
    </linearGradient>
    <linearGradient
       id="linearGradient4255">
      <stop
         style="stop-color:#000000;stop-opacity:1;"
         offset="0"
         id="stop2-1" />
      <stop
         style="stop-color:#000000;stop-opacity:0;"
         offset="1"
         id="stop4-9" />
    </linearGradient>
    <linearGradient
       id="linearGradient4216">
      <stop
         style="stop-color:#c42c2c;stop-opacity:1"
         offset="0"
         id="stop17-4" />
      <stop
         style="stop-color:#f36856;stop-opacity:1"
         offset="1"
         id="stop19-7" />
    </linearGradient>
    <linearGradient
       id="linearGradient4224">
      <stop
         style="stop-color:#375a7d;stop-opacity:1"
         offset="0"
         id="stop12-8" />
      <stop
         style="stop-color:#54a3d8;stop-opacity:1"
         offset="1"
         id="stop14-4" />
    </linearGradient>
    <linearGradient
       xlink:href="#linearGradient4293"
       id="linearGradient4299-5"
       x1="16"
       y1="20"
       x2="7"
       y2="7"
       gradientUnits="userSpaceOnUse" />
    <linearGradient
       xlink:href="#linearGradient4301"
       id="linearGradient4307-6"
       x1="39"
       y1="20"
       x2="30"
       y2="7"
       gradientUnits="userSpaceOnUse" />
    <linearGradient
       xlink:href="#linearGradient4309"
       id="linearGradient4315-6"
       x1="17"
       y1="40.124001"
       x2="10"
       y2="28"
       gradientUnits="userSpaceOnUse" />
    <linearGradient
       xlink:href="#linearGradient4317"
       id="linearGradient4323-0"
       x1="38"
       y1="42"
       x2="30"
       y2="29"
       gradientUnits="userSpaceOnUse" />
    <filter
       id="d"
       x="-0.035999998"
       y="-0.036000062"
       width="1.072"
       height="1.0720001"
       color-interpolation-filters="sRGB">
      <feGaussianBlur
         stdDeviation="9"
         id="feGaussianBlur238" />
    </filter>
    <linearGradient
       id="a"
       x2="1"
       gradientTransform="matrix(0,27.855134,-27.855134,0,21.623876,10.014044)"
       gradientUnits="userSpaceOnUse"
       xlink:href="#b">
      <stop
         stop-color="#ff5a46"
         offset="0"
         id="stop231"
         style="stop-color:#d40055;stop-opacity:1" />
      <stop
         stop-color="#ff5a46"
         stop-opacity=".88235"
         offset=".3"
         id="stop233" />
      <stop
         stop-color="#7814aa"
         offset="1"
         id="stop235"
         style="stop-color:#7137c8;stop-opacity:1" />
    </linearGradient>
    <linearGradient
       id="b"
       x2="1"
       gradientTransform="matrix(0,24.636573,-24.636573,0,28.840091,12.155627)"
       gradientUnits="userSpaceOnUse">
      <stop
         stop-color="#7814aa"
         offset="0"
         id="stop224"
         style="stop-color:#b380ff;stop-opacity:1" />
      <stop
         stop-color="#ff5a46"
         stop-opacity=".88235"
         offset=".7"
         id="stop226" />
      <stop
         stop-color="#ff5a46"
         offset="1"
         id="stop228"
         style="stop-color:#d40055;stop-opacity:1" />
    </linearGradient>
    <linearGradient
       id="paint1_linear"
       x1="13.26"
       y1="11.1229"
       x2="44.327"
       y2="43.688099"
       gradientUnits="userSpaceOnUse"
       gradientTransform="matrix(1.3888883,0,0,1.3888883,98.388848,-57.136099)">
      <stop
         offset="0.046875"
         stop-color="#00022F"
         stop-opacity="0.4"
         id="stop25" />
      <stop
         offset="0.630208"
         stop-color="#00022F"
         stop-opacity="0"
         id="stop27" />
    </linearGradient>
    <linearGradient
       id="paint2_linear"
       x1="18"
       y1="36"
       x2="18"
       y2="40"
       gradientUnits="userSpaceOnUse"
       gradientTransform="matrix(1.3888883,0,0,1.3888883,98.388848,-57.136099)">
      <stop
         stop-color="#5DC6FF"
         id="stop30" />
      <stop
         offset="1"
         stop-color="#3DAEE9"
         id="stop32" />
    </linearGradient>
    <filter
       id="d-6"
       x="-0.036"
       y="-0.03600006"
       width="1.072"
       height="1.0720001"
       color-interpolation-filters="sRGB">
      <feGaussianBlur
         stdDeviation="9"
         id="feGaussianBlur238-7" />
    </filter>
    <linearGradient
       gradientTransform="matrix(1.049963,0,0,1.0499041,-452.98498,-525.93777)"
       gradientUnits="userSpaceOnUse"
       x2="426.69501"
       y2="499.92099"
       y1="547.67499"
       id="a-6-3"
       x1="389.32001">
      <stop
         stop-color="#18222a"
         style="stop-color:#1e2b35;stop-opacity:1"
         id="stop216-6" />
      <stop
         stop-color="#566069"
         offset="1"
         style="stop-color:#6d7983;stop-opacity:1"
         id="stop218-7" />
    </linearGradient>
    <filter
       id="d-6-5"
       x="-0.036"
       y="-0.03600006"
       width="1.072"
       height="1.0720001"
       color-interpolation-filters="sRGB">
      <feGaussianBlur
         stdDeviation="9"
         id="feGaussianBlur238-7-3" />
    </filter>
    <linearGradient
       inkscape:collect="always"
       xlink:href="#linearGradient975"
       id="linearGradient356-6-9"
       gradientUnits="userSpaceOnUse"
       gradientTransform="matrix(0,27.185639,-27.185641,0,29.113558,10.651083)"
       x2="1" />
    <linearGradient
       inkscape:collect="always"
       xlink:href="#linearGradient975"
       id="linearGradient1016"
       gradientUnits="userSpaceOnUse"
       gradientTransform="matrix(1.1034665,0,0,1.1034663,-2.7104831,-2.2105115)"
       x1="20"
       y1="38"
       x2="20"
       y2="10" />
  </defs>
  <rect
     width="41.998524"
     x="-44.999439"
     y="3.0038495"
     rx="20.999262"
     height="41.99617"
     transform="scale(-1,1)"
     style="display:inline;overflow:visible;fill:url(#a-6-3);stroke-width:2.93982;stroke-opacity:0.55"
     id="rect223"
     ry="20.998085" />
  <path
     style="display:inline;overflow:visible;opacity:0.3;fill:#000000;fill-opacity:1;stroke-width:2.93982;stroke-opacity:0.55"
     d="M 3.0126,23.47711 C 3.0086,23.65214 3,23.82617 3,24.0022 c 0,11.63302 9.36569,20.99809 20.99921,20.99809 11.63351,0 20.999349,-9.36507 20.999349,-20.99809 0,-0.17603 -0.008,-0.34906 -0.0126,-0.52509 -0.2773,11.38829 -9.533759,20.47312 -20.986739,20.47312 -11.4572,0 -20.70945,-9.08483 -20.98661,-20.47312"
     id="path225" />
  <path
     d="M 3.0126,24.52318 C 3.0086,24.34815 3,24.17512 3,23.9981 3,12.36517 12.36569,3 23.99921,3 c 11.63351,0 20.999349,9.36517 20.999349,20.9981 0,0.17602 -0.008,0.35005 -0.0126,0.52508 C 44.708659,13.13489 35.4522,4.05006 23.99922,4.05006 c -11.4572,0 -20.70945,9.08483 -20.98661,20.47312"
     style="display:inline;overflow:visible;opacity:0.3;fill:#ffffff;fill-opacity:1;stroke-width:2.93982;stroke-opacity:0.55"
     id="path229" />
  <g
     transform="matrix(0.05286078,0,0,0.05286078,-3.4215028,-2.6180401)"
     fill="#010101"
     filter="url(#d)"
     opacity="0.2"
     stroke-width="93.632"
     id="g254-2-1"
     style="filter:url(#d-6-5)">
    <path
       d="m 518.75,213.01 c -165.67,0 -300,134.33 -300,300 0,160.9 126.69,292.18 285.73,299.64 4.7761,0.23881 9.4925,0.35821 14.269,0.35821 76.836,0 146.87,-28.896 199.94,-76.358 -35.164,23.343 -76.299,36.716 -120.24,36.716 -71.463,0 -135.4,-35.463 -178.45,-91.343 -33.194,-39.164 -54.627,-97.015 -56.119,-161.97 v -14.149 c 1.4925,-64.955 22.925,-122.87 56.119,-161.97 43.045,-55.881 107.04,-91.343 178.45,-91.343 43.94,0 85.075,13.433 120.24,36.776 -52.776,-47.224 -122.45,-76.06 -198.81,-76.358 h -1.1343 z"
       id="path250-9-2" />
    <path
       d="m 420,343.94 c 27.522,-32.478 63.104,-52.119 101.91,-52.119 87.343,0 158.15,99.045 158.15,221.13 0,122.15 -70.806,221.13 -158.15,221.13 -38.866,0 -74.388,-19.582 -101.91,-52.06 43.045,55.881 106.99,91.343 178.45,91.343 43.94,0 85.075,-13.433 120.24,-36.716 61.433,-54.925 100.06,-134.75 100.06,-223.64 0,-88.836 -38.627,-168.72 -100.06,-223.64 -35.164,-23.343 -76.299,-36.716 -120.24,-36.716 -71.463,0 -135.4,35.463 -178.45,91.343"
       id="path252-1-7" />
  </g>
  <path
     d="m 23.795288,8.3215237 c -8.756997,0 -15.8585155,7.1008243 -15.8585155,15.8585593 0,8.505035 6.6969645,15.444873 15.1041855,15.839485 0.252451,0.01255 0.501719,0.01886 0.754209,0.01886 4.06163,0 7.763643,-1.527494 10.569318,-4.036317 -1.858781,1.233939 -4.033236,1.940851 -6.355917,1.940851 -3.77752,0 -7.157416,-1.874605 -9.432756,-4.828449 -1.75467,-2.070254 -2.88754,-5.12831 -2.966486,-8.562248 v -0.747928 c 0.07926,-3.433592 1.211744,-6.494963 2.966486,-8.562239 2.27534,-2.953924 5.658251,-4.828457 9.432756,-4.828457 2.322681,0 4.497136,0.710083 6.355917,1.944004 -2.789774,-2.4962603 -6.472829,-4.02052 -10.50956,-4.0362814 h -0.0597 z"
     stroke-width="4.94941"
     id="path256-2-0"
     style="fill:url(#linearGradient1016);fill-opacity:1" />
  <path
     d="m 18.574934,15.243105 c 1.454879,-1.716837 3.335702,-2.755036 5.386983,-2.755036 4.617088,0 8.360025,5.235588 8.360025,11.689362 0,6.456913 -3.742875,11.689351 -8.360025,11.689351 -2.05449,0 -3.932104,-1.03513 -5.386983,-2.751896 2.2753,2.953924 5.655532,4.828461 9.43269,4.828461 2.322741,0 4.497189,-0.710086 6.355905,-1.940859 3.247454,-2.90335 5.28928,-7.122956 5.28928,-11.821991 0,-4.695976 -2.041826,-8.918732 -5.28928,-11.822005 -1.858716,-1.233929 -4.033164,-1.940845 -6.355905,-1.940845 -3.777578,0 -7.15739,1.874601 -9.43269,4.828444"
     stroke-width="4.94941"
     id="path258-7-9"
     style="fill:url(#linearGradient356-6-9);fill-opacity:1" />
</svg>
