<?xml version="1.0" encoding="UTF-8" standalone="no"?>
<svg
   height="48"
   width="48"
   version="1.1"
   id="svg10"
   sodipodi:docname="andromeda.svg"
   inkscape:version="1.3.2 (091e20ef0f, 2023-11-25)"
   xmlns:inkscape="http://www.inkscape.org/namespaces/inkscape"
   xmlns:sodipodi="http://sodipodi.sourceforge.net/DTD/sodipodi-0.dtd"
   xmlns="http://www.w3.org/2000/svg"
   xmlns:svg="http://www.w3.org/2000/svg"
   xmlns:rdf="http://www.w3.org/1999/02/22-rdf-syntax-ns#"
   xmlns:cc="http://creativecommons.org/ns#"
   xmlns:dc="http://purl.org/dc/elements/1.1/">
  <metadata
     id="metadata16">
    <rdf:RDF>
      <cc:Work
         rdf:about="">
        <dc:format>image/svg+xml</dc:format>
        <dc:type
           rdf:resource="http://purl.org/dc/dcmitype/StillImage" />
      </cc:Work>
    </rdf:RDF>
  </metadata>
  <defs
     id="defs14" />
  <sodipodi:namedview
     pagecolor="#ffffff"
     bordercolor="#666666"
     borderopacity="1"
     objecttolerance="10"
     gridtolerance="10"
     guidetolerance="10"
     inkscape:pageopacity="0"
     inkscape:pageshadow="2"
     inkscape:window-width="1920"
     inkscape:window-height="994"
     id="namedview12"
     showgrid="false"
     inkscape:zoom="5.6715855"
     inkscape:cx="43.197797"
     inkscape:cy="30.591093"
     inkscape:window-x="0"
     inkscape:window-y="0"
     inkscape:window-maximized="1"
     inkscape:current-layer="svg10"
     inkscape:document-rotation="0"
     inkscape:showpageshadow="2"
     inkscape:pagecheckerboard="0"
     inkscape:deskcolor="#d1d1d1" />
  <path
     d="M 44.999995,23.999999 A 20.999998,21.000001 0 0 1 23.999997,45 20.999998,21.000001 0 0 1 3,23.999999 20.999998,21.000001 0 0 1 23.999997,3 20.999998,21.000001 0 0 1 44.999995,23.999999 Z"
     opacity="1.0"
     id="path2"
     style="fill:#bc5fd3;fill-opacity:1;stroke-width:1.06438" />
  <path
     inkscape:connector-curvature="0"
     d="m 33.576043,14.671925 c 0,-2.485209 -0.98724,-4.8685809 -2.744544,-6.6258849 -1.757303,-1.7573044 -4.140677,-2.7445472 -6.625889,-2.7445472 -2.38e-4,0 -4.7e-4,0 -5.89e-4,0 -2.485215,0 -4.868586,0.9872428 -6.625892,2.7445472 -1.757302,1.757304 -2.744539,4.1406759 -2.744539,6.6258849 0,7.990525 0,18.19271 0,18.19271 H 33.576043 Z M 30.868327,30.156921 V 14.671925 c 0,-1.767134 -0.701974,-3.46179 -1.951508,-4.7113282 -1.249415,-1.2495307 -2.944194,-1.9513886 -4.71121,-1.9513886 -2.38e-4,0 -4.7e-4,0 -5.88e-4,0 -1.767134,0 -3.461797,0.7018579 -4.711328,1.9513886 -1.249531,1.2495382 -1.951508,2.9441942 -1.951508,4.7113282 v 15.484996 z"
     style="clip-rule:evenodd;fill:#2c2c2c;fill-opacity:0.992157;fill-rule:evenodd;stroke-width:0.118417;stroke-linecap:round;stroke-linejoin:round;stroke-miterlimit:1.5"
     id="path11" />
  <g
     transform="matrix(0.1184167,0,0,0.1184167,0.2882815,0.13473429)"
     style="clip-rule:evenodd;fill:#c1dae8;fill-opacity:0.459717;fill-rule:evenodd;stroke-linecap:round;stroke-linejoin:round;stroke-miterlimit:1.5"
     id="g9">
    <path
       inkscape:connector-curvature="0"
       d="M 340.194,141.884 223.778,110.69 184.275,258.116 300.691,289.31 Z"
       style="fill:#ffffff;fill-opacity:0.314848"
       id="path5" />
  </g>
  <g
     transform="matrix(0.1184167,0,0,0.1184167,0.2882815,0.13473429)"
     style="clip-rule:evenodd;fill:#ffffff;fill-opacity:0.746722;fill-rule:evenodd;stroke-linecap:round;stroke-linejoin:round;stroke-miterlimit:1.5"
     id="g17">
    <path
       inkscape:connector-curvature="0"
       d="M 199.833,136.284 83.417,167.478 122.92,314.904 239.336,283.71 Z"
       style="fill:#ffffff;fill-opacity:0.461518"
       id="path13" />
  </g>
  <path
     style="color:#000000;font-style:normal;font-variant:normal;font-weight:normal;font-stretch:normal;font-size:medium;line-height:normal;font-family:sans-serif;font-variant-ligatures:normal;font-variant-position:normal;font-variant-caps:normal;font-variant-numeric:normal;font-variant-alternates:normal;font-variant-east-asian:normal;font-feature-settings:normal;font-variation-settings:normal;text-indent:0;text-align:start;text-decoration:none;text-decoration-line:none;text-decoration-style:solid;text-decoration-color:#000000;letter-spacing:normal;word-spacing:normal;text-transform:none;writing-mode:lr-tb;direction:ltr;text-orientation:mixed;dominant-baseline:auto;baseline-shift:baseline;text-anchor:start;white-space:normal;shape-padding:0;shape-margin:0;inline-size:0;clip-rule:nonzero;display:inline;overflow:visible;visibility:visible;opacity:1;isolation:auto;mix-blend-mode:normal;color-interpolation:sRGB;color-interpolation-filters:linearRGB;solid-color:#000000;solid-opacity:1;vector-effect:none;fill:#f4f8fb;fill-opacity:1;fill-rule:nonzero;stroke:none;stroke-width:0.925264px;stroke-linecap:butt;stroke-linejoin:miter;stroke-miterlimit:4;stroke-dasharray:none;stroke-dashoffset:0;stroke-opacity:1;color-rendering:auto;image-rendering:auto;shape-rendering:auto;text-rendering:auto;enable-background:accumulate;stop-color:#000000;stop-opacity:1"
     d="m 19.369105,22.628368 -5.278701,1.415003 0.240352,0.892735 5.278701,-1.413196 z"
     id="path860" />
  <g
     id="g4362"
     transform="matrix(0.41039143,0.14524158,-0.14524158,0.41039143,196.30573,-408.06865)"
     style="fill:#f4f8fb;fill-opacity:1">
    <path
       id="path846-1"
       style="opacity:1;fill:#f4f8fb;fill-opacity:1;stroke:none;stroke-width:1.22378;stroke-linecap:round;stroke-linejoin:round;stroke-miterlimit:4;stroke-dasharray:none;stroke-dashoffset:0;stroke-opacity:1;paint-order:fill markers stroke"
       d="m -26.680314,1045.0013 c -5.856464,0 -10.602215,4.7483 -10.602228,10.6047 1.3e-5,5.8565 4.745764,10.6023 10.602228,10.6023 5.856466,0 10.604757,-4.7458 10.604768,-10.6023 -1.1e-5,-5.8564 -4.748302,-10.6047 -10.604768,-10.6047 z m 5.016627,3.2614 v 3.0583 l -3.060778,0.6121 v 6.9801 a 3.9909127,3.3550158 0 0 1 0.0254,0.3683 3.9909127,3.3550158 0 0 1 -3.990442,3.3555 3.9909127,3.3550158 0 0 1 -3.990441,-3.3555 3.9909127,3.3550158 0 0 1 3.990441,-3.3554 3.9909127,3.3550158 0 0 1 0.906803,0.089 v -6.528 z" />
  </g>
  <path
     inkscape:connector-curvature="0"
     d="m 5.463801,23.840692 c 0,9.973411 8.397755,18.070509 18.741458,18.070509 10.343696,0 18.741572,-8.097098 18.741572,-18.070509 -6.239377,-0.01257 -12.489292,-0.02262 -18.741572,-0.02262 -6.252288,0 -12.502081,0.01006 -18.741458,0.02262 z"
     style="clip-rule:evenodd;fill:#ffffff;fill-opacity:1;fill-rule:evenodd;stroke-width:0.118417;stroke-linecap:round;stroke-linejoin:round;stroke-miterlimit:1.5"
     id="path19" />
  <path
     style="color:#000000;font-style:normal;font-variant:normal;font-weight:normal;font-stretch:normal;font-size:medium;line-height:normal;font-family:sans-serif;font-variant-ligatures:normal;font-variant-position:normal;font-variant-caps:normal;font-variant-numeric:normal;font-variant-alternates:normal;font-variant-east-asian:normal;font-feature-settings:normal;font-variation-settings:normal;text-indent:0;text-align:start;text-decoration:none;text-decoration-line:none;text-decoration-style:solid;text-decoration-color:#000000;letter-spacing:normal;word-spacing:normal;text-transform:none;writing-mode:lr-tb;direction:ltr;text-orientation:mixed;dominant-baseline:auto;baseline-shift:baseline;text-anchor:start;white-space:normal;shape-padding:0;shape-margin:0;inline-size:0;clip-rule:nonzero;display:inline;overflow:visible;visibility:visible;opacity:1;isolation:auto;mix-blend-mode:normal;color-interpolation:sRGB;color-interpolation-filters:linearRGB;solid-color:#000000;solid-opacity:1;vector-effect:none;fill:#f4f8fb;fill-opacity:1;fill-rule:nonzero;stroke:none;stroke-width:0.925264px;stroke-linecap:butt;stroke-linejoin:miter;stroke-miterlimit:4;stroke-dasharray:none;stroke-dashoffset:0;stroke-opacity:1;color-rendering:auto;image-rendering:auto;shape-rendering:auto;text-rendering:auto;enable-background:accumulate;stop-color:#000000;stop-opacity:1"
     d="m 20.993739,18.479138 -8.887592,2.381832 0.238543,0.892735 8.887594,-2.381832 z"
     id="path868" />
  <path
     style="color:#000000;font-style:normal;font-variant:normal;font-weight:normal;font-stretch:normal;font-size:medium;line-height:normal;font-family:sans-serif;font-variant-ligatures:normal;font-variant-position:normal;font-variant-caps:normal;font-variant-numeric:normal;font-variant-alternates:normal;font-variant-east-asian:normal;font-feature-settings:normal;font-variation-settings:normal;text-indent:0;text-align:start;text-decoration:none;text-decoration-line:none;text-decoration-style:solid;text-decoration-color:#000000;letter-spacing:normal;word-spacing:normal;text-transform:none;writing-mode:lr-tb;direction:ltr;text-orientation:mixed;dominant-baseline:auto;baseline-shift:baseline;text-anchor:start;white-space:normal;shape-padding:0;shape-margin:0;inline-size:0;clip-rule:nonzero;display:inline;overflow:visible;visibility:visible;opacity:1;isolation:auto;mix-blend-mode:normal;color-interpolation:sRGB;color-interpolation-filters:linearRGB;solid-color:#000000;solid-opacity:1;vector-effect:none;fill:#f4f8fb;fill-opacity:1;fill-rule:nonzero;stroke:none;stroke-width:0.925264px;stroke-linecap:butt;stroke-linejoin:miter;stroke-miterlimit:4;stroke-dasharray:none;stroke-dashoffset:0;stroke-opacity:1;color-rendering:auto;image-rendering:auto;shape-rendering:auto;text-rendering:auto;enable-background:accumulate;stop-color:#000000;stop-opacity:1"
     d="m 17.843866,21.410345 -5.14678,1.37886 0.240352,0.894542 5.144973,-1.37886 z"
     id="path864" />
  <rect
     style="paint-order:stroke markers fill;stroke-linejoin:round;stroke-linecap:round;stroke-width:1.74853;fill-opacity:0.992157;"
     id="rect885"
     width="9.4636087"
     height="2.8586917"
     x="19.268194"
     y="29.236071" />
</svg>
