<?xml version="1.0" encoding="UTF-8" standalone="no"?>
<svg
   width="48"
   height="48"
   version="1.1"
   viewBox="0 0 48 48"
   id="svg23"
   sodipodi:docname="audacious.svg"
   inkscape:version="1.2.1 (9c6d41e410, 2022-07-14)"
   xmlns:inkscape="http://www.inkscape.org/namespaces/inkscape"
   xmlns:sodipodi="http://sodipodi.sourceforge.net/DTD/sodipodi-0.dtd"
   xmlns="http://www.w3.org/2000/svg"
   xmlns:svg="http://www.w3.org/2000/svg">
  <sodipodi:namedview
     id="namedview25"
     pagecolor="#ffffff"
     bordercolor="#666666"
     borderopacity="1.0"
     inkscape:showpageshadow="2"
     inkscape:pageopacity="0.0"
     inkscape:pagecheckerboard="0"
     inkscape:deskcolor="#d1d1d1"
     showgrid="false"
     inkscape:zoom="3.6875"
     inkscape:cx="32"
     inkscape:cy="32"
     inkscape:window-width="1920"
     inkscape:window-height="1011"
     inkscape:window-x="0"
     inkscape:window-y="0"
     inkscape:window-maximized="1"
     inkscape:current-layer="svg23" />
  <defs
     id="defs5">
    <clipPath
       id="a">
      <circle
         cx="8.467"
         cy="288.53"
         r="6.8790002"
         fill="#d86eb0"
         stroke-opacity="0.039"
         stroke-width="0.491"
         style="paint-order:stroke markers fill"
         id="circle2" />
    </clipPath>
  </defs>
  <circle
     cx="24"
     cy="24"
     r="21"
     fill="#4d4d4d"
     stroke-width="2.83075"
     style="paint-order:stroke markers fill"
     id="circle7" />
  <circle
     cx="23.999105"
     cy="24"
     r="13.22179"
     opacity="0.15"
     stroke-width="2.82561"
     style="paint-order:stroke markers fill"
     id="circle9" />
  <g
     transform="matrix(3.0527876,0,0,3.0527876,-1.8480013,-856.82065)"
     stroke-width="0.96296"
     id="g13">
    <path
       d="m 11.67,285.5 h -0.82 v 1.075 c -0.61,-0.842 -1.342,-1.219 -2.394,-1.219 -1.818,0 -3.192,1.375 -3.192,3.192 0,1.817 1.385,3.158 3.258,3.158 1.03,0 1.673,-0.332 2.327,-1.208 v 1.064 h 0.82 z m -3.192,0.61 c 1.34,0 2.371,1.042 2.371,2.394 0,1.385 -1.02,2.449 -2.327,2.449 -1.374,0 -2.427,-1.075 -2.427,-2.46 a 2.379,2.379 0 0 1 2.383,-2.383 z"
       fill="#ffffff"
       font-size="11.082px"
       font-weight="400"
       letter-spacing="0"
       stroke-width="0.26674"
       word-spacing="0"
       aria-label="a"
       id="path11" />
  </g>
  <g
     transform="matrix(3.0527876,0,0,3.0527876,-1.8474722,-857.20297)"
     clip-path="url(#a)"
     fill="none"
     stroke="#ffffff"
     stroke-opacity="0.937"
     stroke-width="0.127"
     id="g21">
    <path
       d="m 1.4854,287.74 c 0.719,0.15538 1.3906,0.6252 1.9826,1.9807 0.674,1.544 1.623,2.229 2.772,2.283 1.48,0.07 2.673,-1.226 3.459,-2.385 1.602,-2.362 4.5188,-2.1357 5.8165,-1.2509"
       opacity="0.35"
       id="path15" />
    <path
       d="m 1.4927,288.13 c 0.89388,-0.34988 2.0828,-0.42377 2.8723,0.82673 0.722,1.143 1.576,2.867 4.049,2.709 1.478,-0.095 2.956,-0.71 3.718,-2.15 0.52913,-0.93299 1.2601,-1.8714 2.2929,-2.1036 0.38219,-0.0816 0.65524,-0.0703 0.97604,0.0566"
       opacity="0.35"
       id="path17" />
    <path
       d="m 1.7748,290.25 c 0.94712,-0.44412 2.7457,-0.95337 4.1972,-0.52987 1.297,0.379 2.937,1.847 6.056,1.504 0.824,-0.09 1.522,-0.563 2.183,-1.464 0.4785,-0.6525 0.75018,-1.0197 1.3056,-1.1669"
       opacity="0.35"
       id="path19" />
  </g>
</svg>
