<svg xmlns="http://www.w3.org/2000/svg" width="128" height="128" preserveAspectRatio="xMidYMid meet" viewBox="0 0 128 128">
<path fill="#35b9ab" d="m 98.287072,34.189016 c -5.865872,0 -11.568688,1.695144 -16.647368,4.589648 -4.939676,2.81344 -9.24452,6.6304 -13.078919,10.79936 a 93.31532,93.315312 0 0 0 -4.370339,5.128112 147.96321,147.96321 0 0 0 -3.919931,5.194664 c -0.648208,0.893016 -1.292391,1.788584 -1.937921,2.685016 -1.287038,1.78816 -2.596803,3.5776 -4.095008,5.197648 a 114.59497,114.59497 0 0 1 -4.26877,4.374196 c -3.6406,3.53792 -7.525792,6.9009 -11.817272,9.62944 C 34.758184,83.94432 30.788808,86 26.668392,86 15.6196,86 5.714848,77.23926 5.714848,63.905064 c 0,-13.332904 9.523856,-20.571304 20.953544,-20.571304 6.622328,0 12.477504,2.825384 18.158944,7.714136 l -3.040528,3.127464 7.436248,1.879464 7.434915,1.878616 -2.090273,-7.378776 -2.090282,-7.378768 -3.326528,3.42272 C 43.33848,41.39968 36.114728,37.237976 27.049296,37.237976 12.19016,37.237976 0,47.90464 0,64.28608 c 0,15.61942 12.19016,27.0464 25.906592,27.0464 5.674752,0 11.16908,-1.69046 16.040592,-4.55894 4.367664,-2.57492 8.180672,-5.9712 11.680954,-9.61492 1.181463,-1.22838 2.329512,-2.48832 3.469538,-3.75382 1.476826,-1.64224 2.864107,-3.27168 4.101701,-5.136216 l 1.63186,-2.45632 c 1.001032,-1.506128 1.925883,-2.99904 2.99909,-4.463784 1.976675,-2.699944 4.048235,-5.332904 6.277508,-7.828056 3.739511,-4.187304 7.976189,-8.0832 12.967997,-10.7264 3.960032,-2.097064 8.342384,-3.27168 12.830336,-3.27168 15.620942,0 24.381652,10.857392 24.381652,24.762032 0,12.953164 -8.38116,23.619844 -22.858044,23.619844 -8.274232,0 -15.52872,-2.24384 -23.170794,-8.8512 l 3.540373,-4.30508 -7.564551,-1.25738 -7.565894,-1.25782 2.693036,7.1808 2.695708,7.1808 3.008446,-3.65652 C 80.471608,89.60192 88.545368,94 99.048864,94 116.57164,94 128,80.66582 128,63.903784 128,46.379304 116.19207,34.189016 98.287064,34.189016" />
</svg>
