<?xml version="1.0" encoding="UTF-8" standalone="no"?>
<svg
   xmlns:dc="http://purl.org/dc/elements/1.1/"
   xmlns:cc="http://creativecommons.org/ns#"
   xmlns:rdf="http://www.w3.org/1999/02/22-rdf-syntax-ns#"
   xmlns:svg="http://www.w3.org/2000/svg"
   xmlns="http://www.w3.org/2000/svg"
   xmlns:xlink="http://www.w3.org/1999/xlink"
   xmlns:sodipodi="http://sodipodi.sourceforge.net/DTD/sodipodi-0.dtd"
   xmlns:inkscape="http://www.inkscape.org/namespaces/inkscape"
   width="32"
   height="32"
   version="1.1"
   id="svg38"
   sodipodi:docname="preferences-desktop-display.svg"
   inkscape:version="0.92.5 (2060ec1f9f, 2020-04-08)">
  <metadata
     id="metadata42">
    <rdf:RDF>
      <cc:Work
         rdf:about="">
        <dc:format>image/svg+xml</dc:format>
        <dc:type
           rdf:resource="http://purl.org/dc/dcmitype/StillImage" />
        <dc:title></dc:title>
      </cc:Work>
    </rdf:RDF>
  </metadata>
  <sodipodi:namedview
     pagecolor="#ffffff"
     bordercolor="#666666"
     borderopacity="1"
     objecttolerance="10"
     gridtolerance="10"
     guidetolerance="10"
     inkscape:pageopacity="0"
     inkscape:pageshadow="2"
     inkscape:window-width="1085"
     inkscape:window-height="480"
     id="namedview40"
     showgrid="false"
     inkscape:zoom="7.375"
     inkscape:cx="16"
     inkscape:cy="16"
     inkscape:window-x="0"
     inkscape:window-y="25"
     inkscape:window-maximized="0"
     inkscape:current-layer="svg38" />
  <defs
     id="defs26">
    <linearGradient
       id="b">
      <stop
         stop-color="#2a2c2f"
         id="stop2" />
      <stop
         offset="1"
         stop-color="#424649"
         id="stop4" />
    </linearGradient>
    <linearGradient
       id="a">
      <stop
         stop-color="#60a5e7"
         stop-opacity="0"
         id="stop7" />
      <stop
         offset="1"
         stop-color="#a6f3fb"
         stop-opacity=".258"
         id="stop9" />
    </linearGradient>
    <linearGradient
       id="d">
      <stop
         stop-color="#c6cdd1"
         id="stop12" />
      <stop
         offset="1"
         stop-color="#e0e5e7"
         id="stop14" />
    </linearGradient>
    <linearGradient
       xlink:href="#a"
       id="e"
       y1="535.798"
       y2="520.798"
       x2="0"
       gradientUnits="userSpaceOnUse"
       gradientTransform="matrix(1.25,0,0,1.2,-484.714,-621.958)" />
    <linearGradient
       id="c">
      <stop
         id="stop18" />
      <stop
         offset="1"
         stop-opacity="0"
         id="stop20" />
    </linearGradient>
    <linearGradient
       xlink:href="#b"
       id="f"
       x1="0"
       y1="25"
       x2="0"
       y2="2"
       gradientUnits="userSpaceOnUse" />
    <linearGradient
       xlink:href="#c"
       id="g"
       gradientUnits="userSpaceOnUse"
       x1="393.571"
       y1="519.798"
       x2="410.571"
       y2="536.798"
       gradientTransform="translate(-384.571,-515.798)" />
    <linearGradient
       xlink:href="#d"
       id="h"
       y1="542.798"
       y2="538.798"
       x2="0"
       gradientUnits="userSpaceOnUse"
       gradientTransform="translate(-384.571,-513.798)" />
  </defs>
  <path
     inkscape:connector-curvature="0"
     style="fill:#ffffff"
     id="path832"
     d="M 4,3 C 3.585,3 3.19,3.11 2.83,3.313 2.471,3.514 2.149,3.808 1.877,4.17 1.335,4.893 1,5.892 1,7 V 21 H 31 V 7 C 31,5.892 30.666,4.893 30.123,4.17 A 3.117,3.117 0 0 0 29.17,3.313 2.371,2.371 0 0 0 28,3 Z" />
  <path
     d="M 4,3 C 3.585,3 3.19,3.11 2.83,3.313 2.471,3.514 2.149,3.808 1.877,4.17 1.335,4.893 1,5.892 1,7 V 21 H 31 V 7 C 31,5.892 30.666,4.893 30.123,4.17 A 3.117,3.117 0 0 0 29.17,3.313 2.371,2.371 0 0 0 28,3 Z"
     id="path28"
     style="fill:url(#e)"
     inkscape:connector-curvature="0" />
  <path
     d="M 4,2 C 1.784,2 0,3.784 0,6 v 15 c 0,2.216 1.784,4 4,4 h 24 c 2.216,0 4,-1.784 4,-4 V 6 C 32,3.784 30.216,2 28,2 Z m 0,1 h 24 c 1.662,0 3,1.784 3,4 V 21 H 1 V 7 C 1,4.784 2.338,3 4,3 Z"
     id="path30"
     style="fill:url(#f);paint-order:stroke fill markers"
     inkscape:connector-curvature="0" />
  <path
     d="m 30,4 1,3 V 21 H 1 l 4,4 h 23 c 0.554,0 1.082,-0.11 1.561,-0.312 a 3.989,3.989 0 0 0 1.27,-0.858 c 0.361,-0.361 0.655,-0.79 0.857,-1.27 A 4.008,4.008 0 0 0 32,21 V 6 Z"
     id="path32"
     style="opacity:0.2;fill:url(#g);fill-rule:evenodd"
     inkscape:connector-curvature="0" />
  <path
     d="m 13,25 h 6 v 4 h -6 z"
     id="path34"
     style="fill:url(#h)"
     inkscape:connector-curvature="0" />
  <path
     d="m 10,29 h 12 v 1 H 10 Z"
     id="path36"
     inkscape:connector-curvature="0"
     style="fill:#99a1a7" />
</svg>
