<?xml version="1.0" encoding="UTF-8" standalone="no"?>
<svg
   xmlns:dc="http://purl.org/dc/elements/1.1/"
   xmlns:cc="http://creativecommons.org/ns#"
   xmlns:rdf="http://www.w3.org/1999/02/22-rdf-syntax-ns#"
   xmlns:svg="http://www.w3.org/2000/svg"
   xmlns="http://www.w3.org/2000/svg"
   xmlns:xlink="http://www.w3.org/1999/xlink"
   xmlns:sodipodi="http://sodipodi.sourceforge.net/DTD/sodipodi-0.dtd"
   xmlns:inkscape="http://www.inkscape.org/namespaces/inkscape"
   height="32"
   width="32"
   version="1.1"
   id="svg64"
   sodipodi:docname="hwinfo.svg"
   inkscape:version="0.92.5 (2060ec1f9f, 2020-04-08)">
  <metadata
     id="metadata68">
    <rdf:RDF>
      <cc:Work
         rdf:about="">
        <dc:format>image/svg+xml</dc:format>
        <dc:type
           rdf:resource="http://purl.org/dc/dcmitype/StillImage" />
        <dc:title></dc:title>
      </cc:Work>
    </rdf:RDF>
  </metadata>
  <sodipodi:namedview
     pagecolor="#ffffff"
     bordercolor="#666666"
     borderopacity="1"
     objecttolerance="10"
     gridtolerance="10"
     guidetolerance="10"
     inkscape:pageopacity="0"
     inkscape:pageshadow="2"
     inkscape:window-width="1085"
     inkscape:window-height="480"
     id="namedview66"
     showgrid="false"
     inkscape:zoom="7.375"
     inkscape:cx="1.4237288"
     inkscape:cy="16"
     inkscape:window-x="0"
     inkscape:window-y="25"
     inkscape:window-maximized="0"
     inkscape:current-layer="svg64" />
  <defs
     id="defs27">
    <linearGradient
       xlink:href="#a"
       id="f"
       gradientUnits="userSpaceOnUse"
       gradientTransform="translate(-376.571,-523.798)"
       x1="378.571"
       y1="553.798"
       x2="378.571"
       y2="525.798" />
    <linearGradient
       id="b"
       gradientUnits="userSpaceOnUse"
       x1="402.571"
       x2="406.571"
       xlink:href="#c"
       y1="529.798"
       y2="533.798">
      <stop
         offset="0"
         id="stop3" />
      <stop
         offset="1"
         stop-opacity="0"
         id="stop5" />
    </linearGradient>
    <linearGradient
       id="c"
       gradientUnits="userSpaceOnUse"
       x1="802.643"
       x2="816.643"
       y1="36.236"
       y2="50.236">
      <stop
         offset="0"
         stop-color="#292c2f"
         id="stop8" />
      <stop
         offset="1"
         stop-opacity="0"
         id="stop10" />
    </linearGradient>
    <linearGradient
       id="h"
       gradientUnits="userSpaceOnUse"
       x1="402.571"
       x2="402.571"
       y1="549.798"
       y2="529.798"
       gradientTransform="translate(-376.571,-523.798)">
      <stop
         offset="0"
         stop-color="#197cf1"
         id="stop13" />
      <stop
         offset="1"
         stop-color="#20bcfa"
         id="stop15" />
    </linearGradient>
    <linearGradient
       id="i"
       gradientUnits="userSpaceOnUse"
       x1="18"
       x2="18"
       xlink:href="#d"
       y1="24"
       y2="8" />
    <linearGradient
       id="d"
       gradientUnits="userSpaceOnUse"
       x1="-50"
       x2="-22.15">
      <stop
         offset="0"
         stop-color="#7cbaf8"
         id="stop19" />
      <stop
         offset="1"
         stop-color="#f4fcff"
         id="stop21" />
    </linearGradient>
    <linearGradient
       id="j"
       gradientUnits="userSpaceOnUse"
       x1="391.571"
       x2="397.571"
       xlink:href="#c"
       y1="537.798"
       y2="543.798"
       gradientTransform="translate(-376.571,-523.798)" />
    <linearGradient
       id="k"
       gradientUnits="userSpaceOnUse"
       x1="399.571"
       x2="399.571"
       xlink:href="#d"
       y1="547.798"
       y2="531.798"
       gradientTransform="translate(-376.571,-523.798)" />
    <linearGradient
       id="l"
       gradientUnits="userSpaceOnUse"
       x1="398.571"
       x2="398.571"
       xlink:href="#d"
       y1="547.798"
       y2="531.798"
       gradientTransform="translate(-376.571,-523.798)" />
  </defs>
  <linearGradient
     id="a"
     gradientUnits="userSpaceOnUse"
     x1="378.571"
     x2="378.571"
     y1="553.798"
     y2="525.798"
     gradientTransform="translate(-336.571 -523.798)">
    <stop
       offset="0"
       stop-color="#63984b"
       id="stop29" />
    <stop
       offset="1"
       stop-color="#8fc278"
       id="stop31" />
  </linearGradient>
  <linearGradient
     id="g"
     gradientUnits="userSpaceOnUse"
     x1="392.571"
     x2="406.571"
     xlink:href="#e"
     y1="539.798"
     y2="553.798"
     gradientTransform="translate(-376.571,-523.798)">
    <stop
       offset="0"
       id="stop34" />
    <stop
       offset="1"
       stop-opacity="0"
       id="stop36" />
  </linearGradient>
  <linearGradient
     id="e"
     gradientUnits="userSpaceOnUse"
     x1="389.571"
     x2="399.571"
     y1="536.798"
     y2="546.798">
    <stop
       offset="0"
       stop-color="#292c2f"
       id="stop39" />
    <stop
       offset="1"
       stop-opacity="0"
       id="stop41" />
  </linearGradient>
  <path
     d="M 6,2 C 5.446,2 4.918,2.11 4.44,2.313 A 3.989,3.989 0 0 0 3.17,3.17 C 2.808,3.531 2.514,3.96 2.313,4.44 A 4.008,4.008 0 0 0 2,6 v 1 l 2,2 -2,1 v 16 c 0,0.554 0.11,1.082 0.313,1.56 0.201,0.48 0.495,0.909 0.857,1.27 0.361,0.362 0.79,0.656 1.27,0.858 A 4.008,4.008 0 0 0 6,30 h 20 c 0.554,0 1.082,-0.11 1.56,-0.313 a 3.989,3.989 0 0 0 1.27,-0.857 c 0.362,-0.361 0.656,-0.79 0.858,-1.27 A 4.008,4.008 0 0 0 30,26 V 6 C 30,5.446 29.89,4.918 29.687,4.44 A 3.989,3.989 0 0 0 28.83,3.17 3.989,3.989 0 0 0 27.56,2.313 4.008,4.008 0 0 0 26,2 Z"
     id="path44"
     style="fill:url(#f)"
     inkscape:connector-curvature="0" />
  <path
     d="m 10,30 h 16 c 0.554,0 1.082,-0.11 1.56,-0.313 a 3.989,3.989 0 0 0 1.27,-0.857 c 0.362,-0.361 0.656,-0.79 0.858,-1.27 A 4.008,4.008 0 0 0 30,26 V 10 L 26,6 6,26 Z"
     id="path46"
     style="opacity:0.2;fill:url(#g)"
     inkscape:connector-curvature="0" />
  <path
     d="M 6,6 H 26 V 26 H 6 Z"
     id="path48"
     style="fill:url(#h)"
     inkscape:connector-curvature="0" />
  <path
     d="m 6,27 h 1 v 1 H 6 Z m 1,1 h 1 v 1 H 7 Z m 1,-1 h 1 v 1 H 8 Z m 1,1 h 1 v 1 H 9 Z m 1,-1 h 1 v 1 h -1 z m 1,1 h 1 v 1 h -1 z m 1,-1 h 1 v 1 h -1 z m 13,0 h 1 v 1 h -1 z m -1,1 h 1 v 1 h -1 z m -1,-1 h 1 v 1 h -1 z m -1,1 h 1 v 1 h -1 z m -5,0 h 1 v 1 h -1 z m -1,-1 h 1 v 1 h -1 z m -1,1 h 1 v 1 h -1 z m -1,-1 h 1 v 1 h -1 z m -1,1 h 1 v 1 H 13 Z M 28,7 h 1 v 1 h -1 z m -1,1 h 1 v 1 h -1 z m 1,1 h 1 v 1 h -1 z m -1,1 h 1 v 1 h -1 z m 1,1 h 1 v 1 h -1 z m -1,1 h 1 v 1 h -1 z m 1,1 h 1 v 1 h -1 z m -1,3 h 1 v 1 h -1 z m 1,-1 h 1 v 1 h -1 z m -1,-1 h 1 v 1 h -1 z"
     id="path50"
     inkscape:connector-curvature="0" />
  <path
     d="m 6,25 h 20 v 1 H 6 Z"
     id="path52"
     inkscape:connector-curvature="0"
     style="fill:#1c5593;fill-rule:evenodd" />
  <path
     d="m 16,8 a 8,8 0 0 0 -8,8 8,8 0 0 0 8,8 8,8 0 0 0 8,-8 8,8 0 0 0 -8,-8 z m 0,1 A 7.09,7.09 0 0 1 20.95,11.05 7.098,7.098 0 0 1 23,16 7.092,7.092 0 0 1 20.95,20.95 7.08,7.08 0 0 1 16,23 7.092,7.092 0 0 1 11.05,20.95 7.098,7.098 0 0 1 9,16 c 0,-1.832 0.755,-3.653 2.05,-4.95 A 7.084,7.084 0 0 1 16,9 Z"
     id="path54"
     style="fill:url(#i)"
     inkscape:connector-curvature="0" />
  <path
     d="m 17,11 9,9 v 5 h -7 l -4,-4 v -6 l 1,-1 -1,-1 z"
     id="path56"
     style="opacity:0.2;fill:url(#j)"
     inkscape:connector-curvature="0" />
  <path
     d="m 15,11 h 2 v 2 h -2 z"
     id="path58"
     style="fill:url(#k)"
     inkscape:connector-curvature="0" />
  <path
     d="m 15,14 h 2 v 7 h -2 z"
     id="path60"
     style="fill:url(#l)"
     inkscape:connector-curvature="0" />
  <path
     d="m 3.422,29 c 0.31,0.268 0.634,0.526 1.017,0.688 A 4.008,4.008 0 0 0 6,30 h 20 c 0.554,0 1.082,-0.11 1.56,-0.313 0.384,-0.161 0.707,-0.42 1.018,-0.687 z"
     id="path62"
     inkscape:connector-curvature="0"
     style="fill:#4a7937" />
</svg>
