<?xml version="1.0" encoding="UTF-8" standalone="no"?>
<svg
   xmlns:dc="http://purl.org/dc/elements/1.1/"
   xmlns:cc="http://creativecommons.org/ns#"
   xmlns:rdf="http://www.w3.org/1999/02/22-rdf-syntax-ns#"
   xmlns:svg="http://www.w3.org/2000/svg"
   xmlns="http://www.w3.org/2000/svg"
   xmlns:xlink="http://www.w3.org/1999/xlink"
   xmlns:sodipodi="http://sodipodi.sourceforge.net/DTD/sodipodi-0.dtd"
   xmlns:inkscape="http://www.inkscape.org/namespaces/inkscape"
   height="32"
   width="32"
   version="1.1"
   id="svg48"
   sodipodi:docname="preferences-devices-cpu.svg"
   inkscape:version="0.92.5 (2060ec1f9f, 2020-04-08)">
  <metadata
     id="metadata52">
    <rdf:RDF>
      <cc:Work
         rdf:about="">
        <dc:format>image/svg+xml</dc:format>
        <dc:type
           rdf:resource="http://purl.org/dc/dcmitype/StillImage" />
        <dc:title></dc:title>
      </cc:Work>
    </rdf:RDF>
  </metadata>
  <sodipodi:namedview
     pagecolor="#ffffff"
     bordercolor="#666666"
     borderopacity="1"
     objecttolerance="10"
     gridtolerance="10"
     guidetolerance="10"
     inkscape:pageopacity="0"
     inkscape:pageshadow="2"
     inkscape:window-width="1085"
     inkscape:window-height="480"
     id="namedview50"
     showgrid="false"
     inkscape:zoom="7.375"
     inkscape:cx="16"
     inkscape:cy="16"
     inkscape:window-x="0"
     inkscape:window-y="25"
     inkscape:window-maximized="0"
     inkscape:current-layer="svg48" />
  <defs
     id="defs3">
    <linearGradient
       xlink:href="#a"
       id="c"
       gradientUnits="userSpaceOnUse"
       gradientTransform="translate(-376.571,-523.798)"
       x1="378.571"
       y1="553.798"
       x2="378.571"
       y2="525.798" />
  </defs>
  <linearGradient
     id="a"
     gradientUnits="userSpaceOnUse"
     x1="378.571"
     x2="378.571"
     y1="553.798"
     y2="525.798"
     gradientTransform="translate(-336.571 -523.798)">
    <stop
       offset="0"
       stop-color="#63984b"
       id="stop5" />
    <stop
       offset="1"
       stop-color="#8fc278"
       id="stop7" />
  </linearGradient>
  <linearGradient
     id="e"
     gradientUnits="userSpaceOnUse"
     x1="394.571"
     x2="394.571"
     y1="549.798"
     y2="529.798"
     gradientTransform="translate(-376.571,-523.798)">
    <stop
       offset="0"
       stop-color="#999a9c"
       id="stop10" />
    <stop
       offset="1"
       stop-color="#dcdfdf"
       id="stop12" />
  </linearGradient>
  <linearGradient
     id="f"
     gradientUnits="userSpaceOnUse"
     x1="394.857"
     x2="394.857"
     y1="543.798"
     y2="535.798"
     gradientTransform="translate(-376.571,-523.798)">
    <stop
       offset="0"
       stop-color="#2a2c2f"
       id="stop15" />
    <stop
       offset="1"
       stop-color="#424649"
       id="stop17" />
  </linearGradient>
  <linearGradient
     id="d"
     gradientUnits="userSpaceOnUse"
     x1="392.571"
     x2="406.571"
     xlink:href="#b"
     y1="539.798"
     y2="553.798"
     gradientTransform="translate(-376.571,-523.798)">
    <stop
       offset="0"
       id="stop20" />
    <stop
       offset="1"
       stop-opacity="0"
       id="stop22" />
  </linearGradient>
  <linearGradient
     id="b"
     gradientUnits="userSpaceOnUse"
     x1="389.571"
     x2="399.571"
     y1="536.798"
     y2="546.798">
    <stop
       offset="0"
       stop-color="#292c2f"
       id="stop25" />
    <stop
       offset="1"
       stop-opacity="0"
       id="stop27" />
  </linearGradient>
  <path
     d="M 6,2 C 5.446,2 4.918,2.11 4.44,2.313 A 3.989,3.989 0 0 0 3.17,3.17 C 2.808,3.531 2.514,3.96 2.313,4.44 A 4.008,4.008 0 0 0 2,6 v 1 l 2,2 -2,1 v 16 c 0,0.554 0.11,1.082 0.313,1.56 0.201,0.48 0.495,0.909 0.857,1.27 0.361,0.362 0.79,0.656 1.27,0.858 A 4.008,4.008 0 0 0 6,30 h 20 c 0.554,0 1.082,-0.11 1.56,-0.313 a 3.989,3.989 0 0 0 1.27,-0.857 c 0.362,-0.361 0.656,-0.79 0.858,-1.27 A 4.008,4.008 0 0 0 30,26 V 6 C 30,5.446 29.89,4.918 29.687,4.44 A 3.989,3.989 0 0 0 28.83,3.17 3.989,3.989 0 0 0 27.56,2.313 4.008,4.008 0 0 0 26,2 Z"
     id="path30"
     style="fill:url(#c)"
     inkscape:connector-curvature="0" />
  <path
     d="m 10,30 h 16 c 0.554,0 1.082,-0.11 1.56,-0.313 a 3.989,3.989 0 0 0 1.27,-0.857 c 0.362,-0.361 0.656,-0.79 0.858,-1.27 A 4.008,4.008 0 0 0 30,26 V 10 L 26,6 6,26 Z"
     id="path32"
     style="opacity:0.2;fill:url(#d)"
     inkscape:connector-curvature="0" />
  <path
     d="M 6,6 H 26 V 26 H 6 Z"
     id="path34"
     style="fill:url(#e)"
     inkscape:connector-curvature="0" />
  <path
     d="m 6,25 h 20 v 1 H 6 Z"
     id="path40"
     inkscape:connector-curvature="0"
     style="fill:#616365" />
  <path
     d="m 7,21 h 4 v 1 H 7 Z m 0,2 h 2 v 1 H 7 Z M 22,7 v 3 h 1 V 9 h 1 V 8 H 23 V 7 Z m 2,1 h 1 V 7 h -1 z m 0,1 v 1 h 1 V 9 Z"
     id="path42"
     inkscape:connector-curvature="0"
     style="fill:#484a4b" />
  <path
     d="m 5,27 h 1 v 1 H 5 Z m 1,1 h 1 v 1 H 6 Z m 1,-1 h 1 v 1 H 7 Z m 1,1 h 1 v 1 H 8 Z m 1,-1 h 1 v 1 H 9 Z m 1,1 h 1 v 1 h -1 z m 1,-1 h 1 v 1 h -1 z m 14,0 h 1 v 1 h -1 z m -1,1 h 1 v 1 h -1 z m -1,-1 h 1 v 1 h -1 z m -1,1 h 1 v 1 h -1 z m -1,-1 h 1 v 1 h -1 z m -1,1 h 1 v 1 h -1 z m -1,-1 h 1 v 1 h -1 z m -1,1 h 1 v 1 h -1 z m -6,0 h 1 v 1 H 12 Z M 27,4 h 1 v 1 h -1 z m 1,1 h 1 v 1 h -1 z m -1,1 h 1 v 1 h -1 z m 1,1 h 1 v 1 h -1 z m -1,1 h 1 v 1 h -1 z m 1,1 h 1 v 1 h -1 z m -1,1 h 1 v 1 h -1 z m 1,1 h 1 v 1 h -1 z m -1,1 h 1 v 1 h -1 z m 1,1 h 1 v 1 h -1 z m -1,11 h 1 v 1 h -1 z m 1,-1 h 1 v 1 h -1 z m -1,-1 h 1 v 1 h -1 z m 1,-1 h 1 v 1 h -1 z m -1,-1 h 1 v 1 h -1 z"
     id="path44"
     inkscape:connector-curvature="0" />
  <path
     d="m 3.422,29 c 0.31,0.268 0.634,0.526 1.017,0.688 A 4.008,4.008 0 0 0 6,30 h 20 c 0.554,0 1.082,-0.11 1.56,-0.313 0.384,-0.161 0.707,-0.42 1.018,-0.687 z"
     id="path46"
     inkscape:connector-curvature="0"
     style="fill:#4a7937" />
</svg>
