<?xml version="1.0" encoding="UTF-8" standalone="no"?>
<svg
   xmlns:dc="http://purl.org/dc/elements/1.1/"
   xmlns:cc="http://creativecommons.org/ns#"
   xmlns:rdf="http://www.w3.org/1999/02/22-rdf-syntax-ns#"
   xmlns:svg="http://www.w3.org/2000/svg"
   xmlns="http://www.w3.org/2000/svg"
   xmlns:xlink="http://www.w3.org/1999/xlink"
   xmlns:sodipodi="http://sodipodi.sourceforge.net/DTD/sodipodi-0.dtd"
   xmlns:inkscape="http://www.inkscape.org/namespaces/inkscape"
   width="32"
   height="32"
   version="1.1"
   id="svg65"
   sodipodi:docname="plasma-search.svg"
   inkscape:version="0.92.5 (2060ec1f9f, 2020-04-08)">
  <metadata
     id="metadata69">
    <rdf:RDF>
      <cc:Work
         rdf:about="">
        <dc:format>image/svg+xml</dc:format>
        <dc:type
           rdf:resource="http://purl.org/dc/dcmitype/StillImage" />
        <dc:title></dc:title>
      </cc:Work>
    </rdf:RDF>
  </metadata>
  <sodipodi:namedview
     pagecolor="#ffffff"
     bordercolor="#666666"
     borderopacity="1"
     objecttolerance="10"
     gridtolerance="10"
     guidetolerance="10"
     inkscape:pageopacity="0"
     inkscape:pageshadow="2"
     inkscape:window-width="1085"
     inkscape:window-height="480"
     id="namedview67"
     showgrid="false"
     inkscape:zoom="7.375"
     inkscape:cx="1.4237288"
     inkscape:cy="16"
     inkscape:window-x="0"
     inkscape:window-y="25"
     inkscape:window-maximized="0"
     inkscape:current-layer="svg65" />
  <defs
     id="defs35">
    <linearGradient
       id="a">
      <stop
         stop-color="#1abc9c"
         id="stop2" />
      <stop
         offset="1"
         stop-color="#2980b9"
         id="stop4" />
    </linearGradient>
    <linearGradient
       id="b">
      <stop
         stop-color="#cc4a5e"
         id="stop7" />
      <stop
         offset="1"
         stop-color="#aa478a"
         id="stop9" />
    </linearGradient>
    <linearGradient
       id="c">
      <stop
         stop-color="#334545"
         id="stop12" />
      <stop
         offset="1"
         stop-color="#536161"
         id="stop14" />
    </linearGradient>
    <linearGradient
       xlink:href="#a"
       id="f"
       gradientUnits="userSpaceOnUse"
       gradientTransform="matrix(0.66667,0,0,0.85555,128.191,86.772)"
       x1="418.17"
       y1="503.079"
       x2="384.571"
       y2="531.458" />
    <linearGradient
       xlink:href="#b"
       id="g"
       y1="521.633"
       x1="404.045"
       y2="528.35"
       x2="430.736"
       gradientUnits="userSpaceOnUse"
       gradientTransform="matrix(0.66667,0,0,0.85555,128.191,86.771)" />
    <linearGradient
       xlink:href="#c"
       id="h"
       y1="542.224"
       x1="398.092"
       y2="524.9"
       x2="394.003"
       gradientUnits="userSpaceOnUse"
       gradientTransform="matrix(0.66667,0,0,0.85555,128.191,86.771)" />
    <linearGradient
       xlink:href="#c"
       id="i"
       y1="568.798"
       x1="431.571"
       y2="562.798"
       x2="439.571"
       gradientUnits="userSpaceOnUse"
       gradientTransform="matrix(-0.66667,0,0,0.85555,687.618,52.549)" />
    <linearGradient
       xlink:href="#c"
       id="j"
       y1="581.87"
       x1="406.537"
       y2="572.678"
       x2="423.32"
       gradientUnits="userSpaceOnUse"
       gradientTransform="matrix(-0.66667,0,0,0.85555,687.62,52.549)" />
    <linearGradient
       xlink:href="#c"
       id="k"
       y1="572.334"
       x1="423.054"
       y2="566.766"
       x2="431.225"
       gradientUnits="userSpaceOnUse"
       gradientTransform="matrix(-0.66667,0,0,0.85555,687.618,52.549)" />
    <linearGradient
       xlink:href="#c"
       id="l"
       y1="577.102"
       x1="431.313"
       y2="571.445"
       x2="440.632"
       gradientUnits="userSpaceOnUse"
       gradientTransform="matrix(-0.66667,0,0,0.85555,687.62,52.549)" />
    <linearGradient
       xlink:href="#c"
       id="m"
       y1="577.362"
       x1="430.567"
       y2="591.328"
       x2="423.75"
       gradientUnits="userSpaceOnUse"
       gradientTransform="matrix(-0.66667,0,0,0.85555,687.62,52.549)" />
    <linearGradient
       id="d">
      <stop
         stop-color="#383e51"
         id="stop25" />
      <stop
         offset="1"
         stop-color="#655c6f"
         stop-opacity="0"
         id="stop27" />
    </linearGradient>
    <linearGradient
       id="e">
      <stop
         stop-color="#eff0f1"
         id="stop30" />
      <stop
         offset="1"
         stop-color="#fcfcfc"
         id="stop32" />
    </linearGradient>
  </defs>
  <g
     transform="translate(-384.571,-515.798)"
     id="g63">
    <path
       d="m 389.571,517.798 a 5.004,5.004 0 0 0 -3.54,1.461 4.99,4.99 0 0 0 -1.46,3.54 v 18 a 5.004,5.004 0 0 0 1.46,3.538 4.99,4.99 0 0 0 3.54,1.461 h 22 a 5.004,5.004 0 0 0 3.54,-1.46 4.99,4.99 0 0 0 1.46,-3.54 v -18 a 5.004,5.004 0 0 0 -1.46,-3.539 4.99,4.99 0 0 0 -3.54,-1.46 z"
       id="path37"
       style="fill:url(#f)"
       inkscape:connector-curvature="0" />
    <path
       d="m 410.317,545.798 h 1.254 a 5.004,5.004 0 0 0 3.54,-1.46 4.989,4.989 0 0 0 1.46,-3.54 v -18 a 5.005,5.005 0 0 0 -1.46,-3.54 c -0.077,-0.075 -0.188,-0.108 -0.269,-0.179 l -20.294,15.035 15.77,11.684 z"
       id="path39"
       style="fill:url(#g)"
       inkscape:connector-curvature="0" />
    <path
       d="m 384.688,541.378 c 0.057,0.47 0.098,0.949 0.276,1.37 a 4.989,4.989 0 0 0 2.658,2.657 5.004,5.004 0 0 0 1.95,0.393 h 20.894 l -15.895,-11.744 z"
       id="path41"
       style="fill:url(#h)"
       inkscape:connector-curvature="0" />
    <path
       d="m 400.077,538.133 -5.506,-4.08 v 8.16 z"
       id="path43"
       style="fill:url(#i)"
       inkscape:connector-curvature="0" />
    <path
       d="m 405.582,542.211 v 3.587 h 4.841 l -4.84,-3.587 z"
       id="path45"
       style="fill:url(#j)"
       inkscape:connector-curvature="0" />
    <path
       d="m 400.077,538.133 v 7.665 h 0.666 l 4.84,-3.586 -5.506,-4.08 z"
       id="path47"
       style="fill:url(#k)"
       inkscape:connector-curvature="0" />
    <path
       d="m 394.571,542.212 v 3.586 h 4.84 z"
       id="path49"
       style="fill:url(#l)"
       inkscape:connector-curvature="0" />
    <path
       d="m 405.582,542.211 -4.84,3.587 h 4.84 z"
       id="path51"
       style="fill:url(#m)"
       inkscape:connector-curvature="0" />
    <path
       d="m 416.571,525.769 v -2.97 a 5.005,5.005 0 0 0 -1.46,-3.54 c -0.077,-0.076 -0.188,-0.109 -0.269,-0.18 l -20.294,15.037 z"
       id="path53"
       inkscape:connector-curvature="0"
       style="fill:#aa478a" />
    <path
       d="m 384.695,541.798 c 0.067,0.317 0.146,0.658 0.27,0.95 a 4.989,4.989 0 0 0 2.657,2.658 5.004,5.004 0 0 0 1.95,0.392 h 22 a 5.004,5.004 0 0 0 3.54,-1.46 4.989,4.989 0 0 0 1.066,-1.59 5.35,5.35 0 0 0 0.285,-0.95 z"
       id="path55"
       inkscape:connector-curvature="0"
       style="fill:#ffffff;fill-opacity:0.78399999" />
    <circle
       cx="412.57101"
       cy="543.79797"
       r="1"
       id="circle57"
       style="fill:#4d4d4d" />
    <path
       d="m 386.571,542.798 v 1 h 1 v -1 z m 1,1 v 1 h 1 v -1 z"
       id="path59"
       inkscape:connector-curvature="0"
       style="fill:#4d4d4d" />
    <path
       d="m 399.071,522.798 a 5.5,5.5 0 0 0 -5.5,5.5 5.5,5.5 0 0 0 5.5,5.5 5.5,5.5 0 0 0 3.52,-1.275 l 4.28,4.279 0.704,-0.707 -4.28,-4.281 a 5.5,5.5 0 0 0 1.276,-3.516 5.5,5.5 0 0 0 -5.5,-5.5 z m 0,1 a 4.5,4.5 0 0 1 4.5,4.5 4.5,4.5 0 0 1 -4.5,4.5 4.5,4.5 0 0 1 -4.5,-4.5 4.5,4.5 0 0 1 4.5,-4.5 z"
       id="path61"
       inkscape:connector-curvature="0"
       style="opacity:0.75;fill:#ffffff" />
  </g>
</svg>
