<?xml version="1.0" encoding="UTF-8" standalone="no"?>
<svg
   xmlns:dc="http://purl.org/dc/elements/1.1/"
   xmlns:cc="http://creativecommons.org/ns#"
   xmlns:rdf="http://www.w3.org/1999/02/22-rdf-syntax-ns#"
   xmlns:svg="http://www.w3.org/2000/svg"
   xmlns="http://www.w3.org/2000/svg"
   xmlns:xlink="http://www.w3.org/1999/xlink"
   xmlns:sodipodi="http://sodipodi.sourceforge.net/DTD/sodipodi-0.dtd"
   xmlns:inkscape="http://www.inkscape.org/namespaces/inkscape"
   height="32"
   width="32"
   version="1.1"
   id="svg43"
   sodipodi:docname="preferences-desktop-cryptography.svg"
   inkscape:version="0.92.5 (2060ec1f9f, 2020-04-08)">
  <metadata
     id="metadata47">
    <rdf:RDF>
      <cc:Work
         rdf:about="">
        <dc:format>image/svg+xml</dc:format>
        <dc:type
           rdf:resource="http://purl.org/dc/dcmitype/StillImage" />
        <dc:title></dc:title>
      </cc:Work>
    </rdf:RDF>
  </metadata>
  <sodipodi:namedview
     pagecolor="#ffffff"
     bordercolor="#666666"
     borderopacity="1"
     objecttolerance="10"
     gridtolerance="10"
     guidetolerance="10"
     inkscape:pageopacity="0"
     inkscape:pageshadow="2"
     inkscape:window-width="1085"
     inkscape:window-height="480"
     id="namedview45"
     showgrid="false"
     inkscape:zoom="7.375"
     inkscape:cx="1.4237288"
     inkscape:cy="16"
     inkscape:window-x="0"
     inkscape:window-y="25"
     inkscape:window-maximized="0"
     inkscape:current-layer="svg43" />
  <defs
     id="defs8">
    <linearGradient
       xlink:href="#a"
       id="b"
       gradientUnits="userSpaceOnUse"
       gradientTransform="matrix(0.58696,0,0,0.53846,-227.988,-270.353)"
       x1="388.423"
       y1="557.798"
       x2="388.423"
       y2="505.798" />
    <linearGradient
       id="a"
       gradientTransform="matrix(.58696 0 0 .53846 -227.988 -270.353)"
       gradientUnits="userSpaceOnUse"
       x1="388.423"
       x2="388.423"
       y1="557.798"
       y2="505.798">
      <stop
         offset="0"
         stop-color="#7f8c8d"
         id="stop3" />
      <stop
         offset="1"
         stop-color="#afb0b3"
         id="stop5" />
    </linearGradient>
  </defs>
  <linearGradient
     id="e"
     gradientUnits="userSpaceOnUse"
     x1="400.571"
     x2="400.571"
     y1="522.798"
     y2="535.798"
     gradientTransform="translate(-384.571,-515.798)">
    <stop
       offset="0"
       stop-color="#da4453"
       id="stop10" />
    <stop
       offset="1"
       stop-color="#c72737"
       id="stop12" />
  </linearGradient>
  <linearGradient
     id="d"
     gradientUnits="userSpaceOnUse"
     x1="12"
     x2="26"
     y1="11"
     y2="25">
    <stop
       offset="0"
       stop-color="#292c2f"
       id="stop15" />
    <stop
       offset="1"
       stop-color="#292c2f"
       stop-opacity=".138"
       id="stop17" />
  </linearGradient>
  <linearGradient
     id="c"
     gradientTransform="matrix(0.55555,0,0,0.54843,-1.778,-1.325)"
     gradientUnits="userSpaceOnUse"
     x1="12"
     x2="12"
     y1="48"
     y2="10">
    <stop
       offset="0"
       stop-color="#eef1f2"
       id="stop20" />
    <stop
       offset="1"
       stop-color="#f9fafb"
       id="stop22" />
  </linearGradient>
  <path
     d="M 9,2 C 6.23,2 4,4.23 4,7 V 30 H 28 V 7 C 28,4.23 25.77,2 23,2 Z"
     id="path25"
     style="fill:url(#b)"
     inkscape:connector-curvature="0" />
  <path
     d="m 25,27 h 3 v 3 H 25 Z M 4,27 h 3 v 3 H 4 Z"
     id="path27"
     inkscape:connector-curvature="0"
     style="opacity:0.3;fill:#292c2f" />
  <path
     d="m 7,27 h 18 v 3 H 7 Z"
     id="path29"
     inkscape:connector-curvature="0"
     style="fill:#292c2e" />
  <path
     d="m 9,28 h 9 v 1 H 9 Z m 10,0 h 4 v 1 h -4 z"
     id="path31"
     inkscape:connector-curvature="0"
     style="fill:#f6b44d" />
  <path
     d="M 11,4.064 C 8.239,4.064 6,6.274 6,9 v 5 c 0.706,0.623 1.11,1.565 1.111,2.5 0,0.935 -0.405,1.877 -1.111,2.5 v 3 l 3,3 h 14 l 3,-3 v -3 c -0.706,-0.623 -1.11,-1.565 -1.111,-2.5 0,-0.935 0.405,-1.877 1.111,-2.5 V 9 C 26,6.274 23.761,4.064 21,4.064 Z"
     id="path33"
     style="fill:url(#c)"
     inkscape:connector-curvature="0" />
  <path
     d="M 16,7 V 7.002 A 3,3 0 0 0 13,9.957 L 13.002,10 H 13 v 3 h -2 v 7 l 7,7 h 10 v -9.242 l -9.879,-9.88 z"
     id="path35"
     style="opacity:0.2;fill:url(#d)"
     inkscape:connector-curvature="0" />
  <path
     d="m 4,29 h 24 v 1 H 4 Z"
     id="path37"
     inkscape:connector-curvature="0"
     style="opacity:0.4;fill:#292c2f" />
  <path
     d="m 16,7 c -1.662,0 -3,1.338 -3,3 v 3 h -2 v 7 H 21 V 13 H 19 V 10 C 19,8.338 17.662,7 16,7 Z m 0,1 c 1.246,0 2,0.546 2,2 v 3 h -4 v -3 c 0,-1.454 0.754,-2 2,-2 z"
     id="path39"
     style="fill:url(#e)"
     inkscape:connector-curvature="0" />
  <path
     d="m 4,27 h 3 v 3 z m 21,0 h 3 v 3 h -3 z"
     id="path41"
     inkscape:connector-curvature="0"
     style="opacity:0.2;fill:#292c2f" />
</svg>
