<?xml version="1.0" encoding="UTF-8" standalone="no"?>
<svg
   xmlns:dc="http://purl.org/dc/elements/1.1/"
   xmlns:cc="http://creativecommons.org/ns#"
   xmlns:rdf="http://www.w3.org/1999/02/22-rdf-syntax-ns#"
   xmlns:svg="http://www.w3.org/2000/svg"
   xmlns="http://www.w3.org/2000/svg"
   xmlns:xlink="http://www.w3.org/1999/xlink"
   xmlns:sodipodi="http://sodipodi.sourceforge.net/DTD/sodipodi-0.dtd"
   xmlns:inkscape="http://www.inkscape.org/namespaces/inkscape"
   viewBox="0 0 32 32"
   version="1.1"
   id="svg32"
   sodipodi:docname="preferences-desktop-theme-windowdecorations.svg"
   inkscape:version="0.92.5 (2060ec1f9f, 2020-04-08)">
  <metadata
     id="metadata36">
    <rdf:RDF>
      <cc:Work
         rdf:about="">
        <dc:format>image/svg+xml</dc:format>
        <dc:type
           rdf:resource="http://purl.org/dc/dcmitype/StillImage" />
        <dc:title></dc:title>
      </cc:Work>
    </rdf:RDF>
  </metadata>
  <sodipodi:namedview
     pagecolor="#ffffff"
     bordercolor="#666666"
     borderopacity="1"
     objecttolerance="10"
     gridtolerance="10"
     guidetolerance="10"
     inkscape:pageopacity="0"
     inkscape:pageshadow="2"
     inkscape:window-width="1076"
     inkscape:window-height="480"
     id="namedview34"
     showgrid="false"
     inkscape:zoom="7.375"
     inkscape:cx="1.7627119"
     inkscape:cy="16"
     inkscape:window-x="0"
     inkscape:window-y="25"
     inkscape:window-maximized="0"
     inkscape:current-layer="svg32" />
  <defs
     id="defs14">
    <linearGradient
       id="a"
       x2="0"
       y1="543.8"
       y2="502.66"
       gradientTransform="matrix(.66667 0 0 .63518 -256.38 -317.28)"
       gradientUnits="userSpaceOnUse">
      <stop
         stop-color="#c6cdd1"
         offset="0"
         id="stop2" />
      <stop
         stop-color="#e0e5e7"
         offset="1"
         id="stop4" />
    </linearGradient>
    <linearGradient
       xlink:href="#a"
       id="c"
       gradientUnits="userSpaceOnUse"
       gradientTransform="matrix(0.66667,0,0,0.63518,-256.38,-317.28)"
       y1="543.8"
       x2="0"
       y2="502.66" />
    <linearGradient
       xlink:href="#a"
       id="d"
       gradientUnits="userSpaceOnUse"
       gradientTransform="matrix(0.66667,0,0,0.63518,-256.38,-317.28)"
       y1="543.8"
       x2="0"
       y2="502.66" />
    <linearGradient
       id="b">
      <stop
         stop-color="#555753"
         id="stop9" />
      <stop
         offset="1"
         stop-color="#2e3436"
         id="stop11" />
    </linearGradient>
  </defs>
  <path
     d="M 32,9 31,8 1.123,27 3.555,30 H 28.8 c 1.774,0 3.2,-1.426 3.2,-3.2 z"
     id="path16"
     style="fill:url(#c)"
     inkscape:connector-curvature="0" />
  <path
     d="M 3.2,2 A 3.192,3.192 0 0 0 0,5.2 V 26.8 A 3.19,3.19 0 0 0 3.2,30 H 3.555 L 1.123,27 31,8 32,9 V 5.2 A 3.19,3.19 0 0 0 28.8,2 Z"
     id="path18"
     style="fill:url(#d)"
     inkscape:connector-curvature="0" />
  <path
     d="M 16,6 H 32 V 4.5 A 2.492,2.492 0 0 0 29.5,2 H 16 Z"
     id="path20"
     inkscape:connector-curvature="0"
     style="fill:#566069" />
  <path
     d="M 16,6 V 2 H 2.5 A 2.492,2.492 0 0 0 0,4.5 V 6 Z"
     id="path22"
     inkscape:connector-curvature="0"
     style="fill:#eff0f1" />
  <path
     d="M 0,6 H 32 V 7 H 0 Z"
     id="path24"
     inkscape:connector-curvature="0"
     style="fill:#3daee9" />
  <rect
     ry="2"
     height="20"
     width="30"
     y="8"
     x="1"
     id="rect26"
     style="fill:#ffffff" />
  <rect
     rx="1"
     height="2"
     width="2"
     y="3"
     x="29"
     id="rect28"
     style="fill:#eff0f1" />
  <rect
     x="-3"
     y="3"
     width="2"
     height="2"
     rx="1"
     transform="scale(-1,1)"
     id="rect30"
     style="fill:#566069" />
</svg>
