<?xml version="1.0" encoding="UTF-8" standalone="no"?>
<svg
   xmlns:dc="http://purl.org/dc/elements/1.1/"
   xmlns:cc="http://creativecommons.org/ns#"
   xmlns:rdf="http://www.w3.org/1999/02/22-rdf-syntax-ns#"
   xmlns:svg="http://www.w3.org/2000/svg"
   xmlns="http://www.w3.org/2000/svg"
   xmlns:xlink="http://www.w3.org/1999/xlink"
   xmlns:sodipodi="http://sodipodi.sourceforge.net/DTD/sodipodi-0.dtd"
   xmlns:inkscape="http://www.inkscape.org/namespaces/inkscape"
   viewBox="0 0 32 32"
   version="1.1"
   id="svg37"
   sodipodi:docname="preferences-desktop-theme-applications.svg"
   inkscape:version="0.92.5 (2060ec1f9f, 2020-04-08)">
  <metadata
     id="metadata41">
    <rdf:RDF>
      <cc:Work
         rdf:about="">
        <dc:format>image/svg+xml</dc:format>
        <dc:type
           rdf:resource="http://purl.org/dc/dcmitype/StillImage" />
        <dc:title></dc:title>
      </cc:Work>
    </rdf:RDF>
  </metadata>
  <sodipodi:namedview
     pagecolor="#ffffff"
     bordercolor="#666666"
     borderopacity="1"
     objecttolerance="10"
     gridtolerance="10"
     guidetolerance="10"
     inkscape:pageopacity="0"
     inkscape:pageshadow="2"
     inkscape:window-width="1076"
     inkscape:window-height="480"
     id="namedview39"
     showgrid="false"
     inkscape:zoom="7.375"
     inkscape:cx="1.7627119"
     inkscape:cy="16"
     inkscape:window-x="0"
     inkscape:window-y="25"
     inkscape:window-maximized="0"
     inkscape:current-layer="svg37" />
  <defs
     id="defs17">
    <linearGradient
       id="a"
       x2="0"
       y1="543.8"
       y2="502.66"
       gradientTransform="matrix(.66667 0 0 .63518 -256.38 -317.28)"
       gradientUnits="userSpaceOnUse">
      <stop
         stop-color="#c6cdd1"
         offset="0"
         id="stop2" />
      <stop
         stop-color="#e0e5e7"
         offset="1"
         id="stop4" />
    </linearGradient>
    <linearGradient
       id="c"
       x1="393.41"
       x2="407.41"
       y1="526.65"
       y2="526.65"
       gradientTransform="matrix(1,0,0,0.99999,0.154,0.157)"
       gradientUnits="userSpaceOnUse">
      <stop
         stop-color="#2e3436"
         offset="0"
         id="stop7" />
      <stop
         stop-color="#555753"
         offset="1"
         id="stop9" />
    </linearGradient>
    <linearGradient
       id="b"
       x1="392.57"
       x2="407.57"
       y1="521.8"
       y2="536.8"
       gradientTransform="translate(0,4)"
       gradientUnits="userSpaceOnUse">
      <stop
         offset="0"
         id="stop12" />
      <stop
         stop-opacity="0"
         offset="1"
         id="stop14" />
    </linearGradient>
    <linearGradient
       inkscape:collect="always"
       xlink:href="#a"
       id="linearGradient848"
       gradientUnits="userSpaceOnUse"
       gradientTransform="matrix(0.66667,0,0,0.63518,-256.38,-317.28)"
       y1="543.8"
       x2="0"
       y2="502.66" />
    <linearGradient
       inkscape:collect="always"
       xlink:href="#a"
       id="linearGradient850"
       gradientUnits="userSpaceOnUse"
       gradientTransform="matrix(0.66667,0,0,0.63518,-256.38,-317.28)"
       y1="543.8"
       x2="0"
       y2="502.66" />
  </defs>
  <g
     transform="translate(-384.57,-515.8)"
     id="g35">
    <path
       d="M 32,9 31,8 1.123,27 3.555,30 H 28.8 c 1.774,0 3.2,-1.426 3.2,-3.2 z"
       transform="translate(384.57,515.8)"
       id="path19"
       style="fill:url(#linearGradient848)"
       inkscape:connector-curvature="0" />
    <path
       d="M 3.2,2 A 3.192,3.192 0 0 0 0,5.2 V 26.8 C 0,28.575 1.426,30 3.2,30 H 3.555 L 1.123,27 31,8 32,9 V 5.2 C 32,3.425 30.574,2 28.8,2 Z"
       transform="translate(384.57,515.8)"
       id="path21"
       style="fill:url(#linearGradient850)"
       inkscape:connector-curvature="0" />
    <path
       d="m 387.07,517.8 a 2.492,2.492 0 0 0 -2.5,2.5 v 1.5 h 32 v -1.5 a 2.492,2.492 0 0 0 -2.5,-2.5 z"
       id="path23"
       inkscape:connector-curvature="0"
       style="fill:#566069" />
    <path
       d="m 384.57,521.8 h 32 v 1 h -32 z"
       id="path25"
       inkscape:connector-curvature="0"
       style="fill:#3daee9" />
    <rect
       x="385.57001"
       y="523.79999"
       width="30"
       height="20"
       ry="2"
       id="rect27"
       style="fill:#ffffff" />
    <rect
       x="413.57001"
       y="518.79999"
       width="2"
       height="2"
       rx="1"
       id="rect29"
       style="fill:#eff0f1" />
    <path
       d="m 407.43,526.94 c 0.68,0.686 -1.259,3.732 -4.332,6.805 -1.19,1.189 -2.432,2.261 -3.545,3.06 l 7.017,6.995 h 9 l 0.995,-7.726 z m -9.848,7.85 -0.017,0.013 0.004,0.004 z m 0.137,0.17 1.703,1.714 a 3.013,3.013 0 0 0 -1.703,-1.714 z m 0.695,1.619 c 0.423,0.388 0.4,0.941 0.4,1.304 0,1.169 -1.746,2.92 -5.25,2.92 l 3.006,2.997 h 9 z"
       id="path31"
       style="opacity:0.25;fill:url(#b)"
       inkscape:connector-curvature="0" />
    <path
       d="m 407.14,526.81 a 1.75,7.875 44.998 0 0 -6.514,4.46 1.75,7.875 44.998 0 0 -3.1,3.6 3.037,3.037 0 0 1 1.975,1.975 1.75,7.875 44.998 0 0 3.6,-3.1 1.75,7.875 44.998 0 0 4.33,-6.805 1.75,7.875 44.998 0 0 -0.29,-0.13 m -10.075,9.324 c -3.5,0.938 -0.875,3.154 -3.5,4.67 3.503,0 5.25,-1.752 5.25,-2.92 0,-0.581 0.06,-1.653 -1.75,-1.75 z"
       id="path33"
       style="fill:url(#c)"
       inkscape:connector-curvature="0" />
  </g>
</svg>
