<?xml version="1.0" encoding="UTF-8" standalone="no"?>
<svg
   viewBox="0 0 64 64"
   version="1.1"
   id="svg4"
   sodipodi:docname="folder-raspberrypi.svg"
   inkscape:version="1.4.2 (unknown)"
   xmlns:inkscape="http://www.inkscape.org/namespaces/inkscape"
   xmlns:sodipodi="http://sodipodi.sourceforge.net/DTD/sodipodi-0.dtd"
   xmlns="http://www.w3.org/2000/svg"
   xmlns:svg="http://www.w3.org/2000/svg">
  <sodipodi:namedview
     id="namedview4"
     pagecolor="#ffffff"
     bordercolor="#999999"
     borderopacity="1"
     inkscape:showpageshadow="2"
     inkscape:pageopacity="0"
     inkscape:pagecheckerboard="0"
     inkscape:deskcolor="#d1d1d1"
     showgrid="false"
     inkscape:zoom="5.6568543"
     inkscape:cx="34.206291"
     inkscape:cy="45.873552"
     inkscape:window-width="2556"
     inkscape:window-height="1364"
     inkscape:window-x="0"
     inkscape:window-y="0"
     inkscape:window-maximized="1"
     inkscape:current-layer="svg4">
    <inkscape:grid
       id="grid4"
       units="px"
       originx="0"
       originy="0"
       spacingx="1"
       spacingy="1"
       empcolor="#0099e5"
       empopacity="0.30196078"
       color="#0099e5"
       opacity="0.14902"
       empspacing="5"
       dotted="false"
       gridanglex="30"
       gridanglez="30"
       visible="false" />
  </sodipodi:namedview>
  <defs
     id="defs3051">
    <style
       type="text/css"
       id="current-color-scheme">
      .ColorScheme-Text {
        color:#31363b;
      }
      .ColorScheme-Background {
        color:#eff0f1;
      }
      .ColorScheme-Highlight {
        color:#3daee9;
      }
      .ColorScheme-ViewText {
        color:#31363b;
      }
      .ColorScheme-ViewBackground {
        color:#fcfcfc;
      }
      .ColorScheme-ViewHover {
        color:#93cee9;
      }
      .ColorScheme-ViewFocus{
        color:#3daee9;
      }
      .ColorScheme-ButtonText {
        color:#31363b;
      }
      .ColorScheme-ButtonBackground {
        color:#eff0f1;
      }
      .ColorScheme-ButtonHover {
        color:#93cee9;
      }
      .ColorScheme-ButtonFocus{
        color:#3daee9;
      }
      </style>
  </defs>
  <path
     style="fill:currentColor;fill-opacity:1;stroke:none;stroke-width:0.999999"
     d="m 4.0006635,10 v 1 9 0 c -0.5203637,0.02153 -1.0229638,0.505476 -0.999899,1 h 0.00195 c -4.69e-5,0.004 -0.00195,0.008 -0.00195,0.01172 V 56 c 0.00871,0.999392 0.9801138,2.005992 1.999798,2 v 0 H 58.995109 v 0 c 1.011732,0.02205 1.994216,-0.972534 1.999798,-2 V 21.011719 21 17 c 0.05936,-0.589244 -0.407896,-1.006383 -0.999899,-1 v -4 c 0,-0.003 -0.002,0.004 -0.002,0 h 0.002 v 0 c -0.0061,-1.000671 -0.953819,-1.995969 -1.999798,-2 H 31.997836 L 27.99824,6 H 8.0002595 C 5.9630216,5.99492 4.0363539,7.9703236 4.0006635,10 Z"
     class="ColorScheme-Highlight"
     id="path1"
     sodipodi:nodetypes="ccccccsccccccccccscccccccc" />
  <path
     style="fill-opacity:0.33;fill-rule:evenodd;stroke-width:0.999999"
     d="m 4.0302775,10 -0.029614,1 v 9 H 21.998846 l 3.999596,-4 h 33.996566 v -4 c 0,-0.003 -0.002,0.004 -0.002,0 h 0.002 C 59.988808,10.988725 58.990992,9.9943186 57.99521,10 H 31.997836 L 27.99824,6 H 8.0002595 C 5.9928069,6.00259 3.994256,8.0072001 4.0302775,10 Z"
     id="path2"
     sodipodi:nodetypes="ccccccsccccccc" />
  <path
     style="fill:#ffffff;fill-opacity:0.2;fill-rule:evenodd;stroke-width:0.999999"
     d="m 27.99824,6 2.999697,5 h 1.999798 24.997475 c 1.212814,-0.06389 2.005543,1.005906 1.999798,2 v -1 c 6e-4,-0.992592 -0.988601,-1.993446 -1.999798,-2 H 32.997735 31.997836 Z m -1.999798,10 -3.999596,4 H 3.0007645 v 1 H 22.998745 Z"
     id="path3"
     sodipodi:nodetypes="cccccccccccccccc" />
  <path
     style="fill-opacity:0.2;fill-rule:evenodd;stroke-width:0.999999"
     d="m 25.998442,16 -5.999394,3 H 4.0006635 v 1 H 21.998846 Z M 3.0007645,56 c 0.00641,1.008598 0.9937008,2.001463 1.999798,2 v 0 H 58.995109 v 0 0 c 1.002828,0.0016 2.001139,-0.999662 1.999798,-2 z"
     class="ColorScheme-Text"
     id="path4"
     sodipodi:nodetypes="cccccccccccccc" />
  <path
     d="m 39.141056,35.992258 -0.154842,-0.27958 c 0.0046,-1.995739 -0.907548,-2.808657 -1.969938,-3.428027 0.322591,-0.08602 0.653777,-0.159138 0.744105,-0.567751 0.554848,-0.14194 0.666682,-0.404309 0.722599,-0.679584 0.146235,-0.09892 0.627964,-0.3742 0.576355,-0.84303 0.270971,-0.189251 0.42151,-0.434418 0.344093,-0.778511 0.292478,-0.322591 0.369898,-0.589262 0.245163,-0.834428 0.348395,-0.443021 0.193556,-0.67098 0.04297,-0.89894 0.266675,-0.486035 0.03435,-1.002173 -0.696785,-0.916147 -0.292479,-0.434423 -0.924744,-0.335494 -1.02367,-0.335494 -0.111835,-0.137638 -0.25377,-0.258069 -0.701095,-0.202152 -0.288178,-0.262369 -0.610764,-0.215058 -0.946254,-0.09032 -0.395711,-0.31399 -0.658079,-0.06026 -0.954856,0.03435 -0.47743,-0.154846 -0.589263,0.06026 -0.825825,0.14624 -0.520445,-0.111837 -0.679585,0.129031 -0.933354,0.382796 l -0.292474,-0.0046 c -0.787106,0.464568 -1.178514,1.41082 -1.316153,1.896855 -0.137642,-0.486035 -0.529043,-1.432287 -1.316157,-1.896809 l -0.292481,0.0046 c -0.249461,-0.253763 -0.408611,-0.494631 -0.933351,-0.382793 -0.236568,-0.08603 -0.344092,-0.301092 -0.825822,-0.146243 -0.197853,-0.06026 -0.378499,-0.189252 -0.589262,-0.184956 -0.11183,0.0046 -0.232259,0.04302 -0.365595,0.150548 -0.335497,-0.129038 -0.658079,-0.172048 -0.946259,0.09032 -0.447324,-0.06026 -0.589256,0.06026 -0.701089,0.202153 -0.09892,0 -0.731199,-0.09893 -1.023674,0.335494 -0.731202,-0.08603 -0.963468,0.430112 -0.701098,0.911843 -0.150531,0.232264 -0.305376,0.460223 0.04301,0.903243 -0.124732,0.245167 -0.04732,0.511836 0.245167,0.83443 -0.07744,0.344092 0.07315,0.58926 0.344093,0.778509 -0.05166,0.473127 0.434418,0.7484 0.57636,0.843031 0.05597,0.275276 0.172047,0.533344 0.722592,0.679585 0.09032,0.408611 0.421514,0.481731 0.744102,0.567748 -1.062389,0.619371 -1.97423,1.432288 -1.969931,3.428029 l -0.154841,0.27958 c -1.221532,0.739798 -2.318329,3.126946 -0.602157,5.062472 0.111827,0.606463 0.301079,1.040881 0.46882,1.522609 0.249472,1.944125 1.883912,2.851674 2.314024,2.959198 0.632277,0.481731 1.303256,0.937655 2.215109,1.255943 0.85593,0.88604 1.784975,1.221531 2.722636,1.221531 h 0.04298 c 0.933351,0 1.862405,-0.335491 2.722638,-1.221531 0.907548,-0.318288 1.582829,-0.774212 2.215101,-1.255943 0.430116,-0.107524 2.064557,-1.019371 2.31403,-2.959198 0.16774,-0.481728 0.356992,-0.916146 0.468822,-1.522609 1.720467,-1.939832 0.619372,-4.322674 -0.597863,-5.062472 m -1.101087,-0.344108 c -0.06457,0.804319 -4.189337,-2.800059 -3.479644,-2.920492 1.935525,-0.322585 3.544159,0.825824 3.479644,2.920492 m -4.529127,-8.400176 c 0.03435,0.180651 0.07743,0.296785 0.120434,0.331196 0.227959,-0.249471 0.417209,-0.503244 0.713993,-0.744099 0,0.141927 -0.06885,0.296773 0.107531,0.404303 0.15484,-0.215059 0.374201,-0.408611 0.658073,-0.576351 -0.137638,0.236563 -0.02145,0.313975 0.05165,0.412903 0.215057,-0.18925 0.425812,-0.378498 0.821522,-0.529038 -0.111832,0.133336 -0.262373,0.266668 -0.09892,0.425819 0.223654,-0.141944 0.447315,-0.283882 0.980662,-0.382805 -0.120437,0.133332 -0.365601,0.270969 -0.215061,0.404305 0.279578,-0.111828 0.589262,-0.189254 0.933356,-0.232259 -0.163442,0.137638 -0.30108,0.27097 -0.167749,0.3785 0.301085,-0.09462 0.713994,-0.219361 1.118306,-0.11183 l -0.25807,0.262371 c -0.03006,0.03435 0.59786,0.03006 1.015073,0.03435 -0.150541,0.215056 -0.305382,0.417213 -0.395703,0.78281 0.03869,0.03868 0.245162,0.0172 0.438718,0 -0.197859,0.425817 -0.541948,0.529043 -0.619368,0.713994 0.120432,0.09463 0.288172,0.06885 0.473128,0.0046 -0.141942,0.296781 -0.44302,0.503237 -0.679585,0.744106 0.06026,0.04298 0.163444,0.06885 0.412909,0.03866 -0.21936,0.236563 -0.48173,0.451625 -0.795712,0.645177 0.05596,0.06456 0.245167,0.06456 0.425815,0.06456 -0.28388,0.283878 -0.649474,0.425814 -0.989266,0.610768 0.167744,0.120431 0.292478,0.09032 0.425809,0.08602 -0.240862,0.202154 -0.653777,0.309685 -1.036579,0.425819 0.07315,0.11183 0.146239,0.14624 0.301082,0.180651 -0.404311,0.22796 -0.980667,0.120428 -1.144111,0.236562 0.03869,0.111827 0.150546,0.18925 0.28388,0.249466 -0.649475,0.03867 -2.430156,-0.02575 -2.769952,-1.389278 0.658084,-0.748398 1.87531,-1.617238 3.965672,-2.696828 -1.62584,0.550554 -3.096838,1.290348 -4.322668,2.305421 -1.458095,-0.670979 -0.460224,-2.391445 0.245167,-3.079632 m -1.514011,4.933439 c 1.023678,-0.0129 2.292522,0.761305 2.288217,1.492504 -0.0046,0.645174 -0.890341,1.165612 -2.279614,1.157014 -1.359168,-0.0172 -2.275315,-0.658081 -2.271011,-1.28175 0.0046,-0.511838 1.109697,-1.39788 2.262408,-1.367768 m -5.174297,-0.554909 c 0.15484,-0.03006 0.22796,-0.06456 0.30108,-0.180645 -0.382804,-0.120435 -0.79572,-0.227967 -1.03658,-0.425818 0.13333,0.0046 0.249465,0.03006 0.425814,-0.08602 -0.34409,-0.184947 -0.705393,-0.33119 -0.989269,-0.610763 0.176351,-0.0046 0.3656,-0.0046 0.425812,-0.06456 -0.313983,-0.193554 -0.576353,-0.408609 -0.795707,-0.645172 0.249461,0.03006 0.352693,0.0046 0.412903,-0.0387 -0.236564,-0.240862 -0.537643,-0.447319 -0.679583,-0.744099 0.184956,0.06456 0.352697,0.08602 0.473127,-0.0046 -0.08173,-0.180647 -0.42581,-0.288174 -0.619362,-0.713992 0.193552,0.0172 0.400006,0.03871 0.438721,0 -0.09462,-0.365598 -0.245169,-0.572052 -0.395712,-0.787113 0.41291,-0.0046 1.040886,0.0046 1.015078,-0.03435 l -0.258072,-0.262347 c 0.404312,-0.111828 0.817221,0.0172 1.118306,0.111832 0.133335,-0.107531 -0.0046,-0.240864 -0.16775,-0.378501 0.344095,0.04733 0.65378,0.12473 0.933356,0.232258 0.150546,-0.133335 -0.09893,-0.270971 -0.215061,-0.404304 0.52905,0.09892 0.757009,0.240861 0.980668,0.382803 0.163443,-0.154844 0.0092,-0.288181 -0.09892,-0.425818 0.391405,0.150541 0.597855,0.344093 0.817221,0.533344 0.07315,-0.09892 0.189246,-0.172047 0.05163,-0.412916 0.28388,0.163448 0.498939,0.357003 0.658082,0.576365 0.176347,-0.111836 0.103227,-0.262376 0.107531,-0.404319 0.296774,0.24087 0.481729,0.49464 0.713988,0.744108 0.04735,-0.03435 0.08603,-0.146241 0.120434,-0.33119 0.701093,0.683882 1.70326,2.404352 0.258073,3.088235 -1.230138,-1.015073 -2.701134,-1.750575 -4.322673,-2.305426 2.086064,1.075289 3.303298,1.948429 3.965675,2.68823 -0.339796,1.367771 -2.120477,1.427989 -2.769955,1.389271 0.133337,-0.06456 0.245167,-0.133329 0.283883,-0.249464 -0.172047,-0.111828 -0.748407,-0.0092 -1.152711,-0.236563 m 2.39575,1.045184 c 0.713987,0.120429 -3.415129,3.720506 -3.479649,2.920488 -0.06026,-2.098965 1.548422,-3.247378 3.479649,-2.920488 m -4.331282,8.025977 c -1.006471,-0.808618 -1.324757,-3.169959 0.53335,-4.232347 1.122605,-0.29678 0.378504,4.636652 -0.53335,4.232347 m 3.909762,4.228044 c -0.563454,0.344094 -1.939825,0.202152 -2.916189,-1.20003 -0.658083,-1.178512 -0.576359,-2.374235 -0.11183,-2.722636 0.692487,-0.421512 1.759173,0.146242 2.580697,1.101104 0.718295,0.85593 1.045182,2.374238 0.447322,2.821562 m -1.109697,-5.14419 c -1.027977,-0.675284 -1.217226,-2.228004 -0.41721,-3.445234 0.800013,-1.212932 2.309723,-1.655952 3.337705,-0.980667 1.027976,0.675285 1.217226,2.228002 0.417212,3.445236 -0.800018,1.212923 -2.30973,1.651645 -3.337707,0.980665 m 4.309768,7.548544 c -1.243035,0.05163 -2.464571,-1.01938 -2.447362,-1.389276 -0.0172,-0.54625 1.518313,-0.972065 2.516179,-0.946261 1.006474,-0.04298 2.357037,0.322589 2.357037,0.812926 0.0172,0.468824 -1.221525,1.539817 -2.425854,1.522611 m 2.563494,-5.380758 v 0.0129 c 0,1.268846 -1.131207,2.309725 -2.503274,2.309725 -1.372076,0 -2.503279,-1.040879 -2.503279,-2.309725 v -0.02575 c 0,-1.268843 1.131203,-2.309726 2.503279,-2.309726 1.372067,0 2.503274,1.040883 2.503274,2.309726 z m -1.56991,-3.273165 c -0.800016,-1.212929 -0.610766,-2.769949 0.417214,-3.445235 1.032279,-0.675276 2.537687,-0.232261 3.337701,0.980665 0.800021,1.212931 0.610772,2.769951 -0.417209,3.445232 -1.027978,0.670988 -2.537684,0.227965 -3.337706,-0.980662 m 5.071074,5.118381 c -1.070992,1.488205 -2.524783,1.544121 -3.062425,1.131212 -0.563455,-0.533345 -0.133342,-2.189298 0.64087,-3.096841 0.890344,-1.006475 1.836598,-1.655947 2.494675,-1.144111 0.443019,0.443019 0.705389,2.111875 -0.07315,3.10974 m 0.843026,-3.157051 c -0.911844,0.40431 -1.655943,-4.533429 -0.533339,-4.232344 1.858101,1.062388 1.531209,3.423725 0.533339,4.232344"
     style="fill:#e5e5e5;fill-opacity:1;stroke-width:0.929238"
     id="path5" />
</svg>
