<?xml version="1.0" encoding="UTF-8" standalone="no"?>
<svg
   viewBox="0 0 64 64"
   version="1.1"
   id="svg4"
   sodipodi:docname="folder-openSCAD.svg"
   inkscape:version="1.4.2 (unknown)"
   xml:space="preserve"
   xmlns:inkscape="http://www.inkscape.org/namespaces/inkscape"
   xmlns:sodipodi="http://sodipodi.sourceforge.net/DTD/sodipodi-0.dtd"
   xmlns="http://www.w3.org/2000/svg"
   xmlns:svg="http://www.w3.org/2000/svg"><sodipodi:namedview
     id="namedview4"
     pagecolor="#ffffff"
     bordercolor="#999999"
     borderopacity="1"
     inkscape:showpageshadow="2"
     inkscape:pageopacity="0"
     inkscape:pagecheckerboard="0"
     inkscape:deskcolor="#d1d1d1"
     showgrid="true"
     inkscape:zoom="5.6568543"
     inkscape:cx="27.223611"
     inkscape:cy="36.150834"
     inkscape:window-width="2556"
     inkscape:window-height="1364"
     inkscape:window-x="0"
     inkscape:window-y="0"
     inkscape:window-maximized="1"
     inkscape:current-layer="svg4"><inkscape:grid
       id="grid4"
       units="px"
       originx="0"
       originy="0"
       spacingx="1"
       spacingy="1"
       empcolor="#0099e5"
       empopacity="0.30196078"
       color="#0099e5"
       opacity="0.14902"
       empspacing="5"
       dotted="false"
       gridanglex="30"
       gridanglez="30"
       visible="true" /></sodipodi:namedview><defs
     id="defs3051"><style
       type="text/css"
       id="current-color-scheme">
      .ColorScheme-Text {
        color:#31363b;
      }
      .ColorScheme-Background {
        color:#eff0f1;
      }
      .ColorScheme-Highlight {
        color:#3daee9;
      }
      .ColorScheme-ViewText {
        color:#31363b;
      }
      .ColorScheme-ViewBackground {
        color:#fcfcfc;
      }
      .ColorScheme-ViewHover {
        color:#93cee9;
      }
      .ColorScheme-ViewFocus{
        color:#3daee9;
      }
      .ColorScheme-ButtonText {
        color:#31363b;
      }
      .ColorScheme-ButtonBackground {
        color:#eff0f1;
      }
      .ColorScheme-ButtonHover {
        color:#93cee9;
      }
      .ColorScheme-ButtonFocus{
        color:#3daee9;
      }
      </style></defs><path
     style="fill:currentColor;fill-opacity:1;stroke:none;stroke-width:0.999999"
     d="m 4.0006635,10 v 1 9 0 c -0.5203637,0.02153 -1.0229638,0.505476 -0.999899,1 h 0.00195 c -4.69e-5,0.004 -0.00195,0.008 -0.00195,0.01172 V 56 c 0.00871,0.999392 0.9801138,2.005992 1.999798,2 v 0 H 58.995109 v 0 c 1.011732,0.02205 1.994216,-0.972534 1.999798,-2 V 21.011719 21 17 c 0.05936,-0.589244 -0.407896,-1.006383 -0.999899,-1 v -4 c 0,-0.003 -0.002,0.004 -0.002,0 h 0.002 v 0 c -0.0061,-1.000671 -0.953819,-1.995969 -1.999798,-2 H 31.997836 L 27.99824,6 H 8.0002595 C 5.9630216,5.99492 4.0363539,7.9703236 4.0006635,10 Z"
     class="ColorScheme-Highlight"
     id="path1"
     sodipodi:nodetypes="ccccccsccccccccccscccccccc" /><path
     style="fill-opacity:0.33;fill-rule:evenodd;stroke-width:0.999999"
     d="m 4.0302775,10 -0.029614,1 v 9 H 21.998846 l 3.999596,-4 h 33.996566 v -4 c 0,-0.003 -0.002,0.004 -0.002,0 h 0.002 C 59.988808,10.988725 58.990992,9.9943186 57.99521,10 H 31.997836 L 27.99824,6 H 8.0002595 C 5.9928069,6.00259 3.994256,8.0072001 4.0302775,10 Z"
     id="path2"
     sodipodi:nodetypes="ccccccsccccccc" /><path
     style="fill:#ffffff;fill-opacity:0.2;fill-rule:evenodd;stroke-width:0.999999"
     d="m 27.99824,6 2.999697,5 h 1.999798 24.997475 c 1.212814,-0.06389 2.005543,1.005906 1.999798,2 v -1 c 6e-4,-0.992592 -0.988601,-1.993446 -1.999798,-2 H 32.997735 31.997836 Z m -1.999798,10 -3.999596,4 H 3.0007645 v 1 H 22.998745 Z"
     id="path3"
     sodipodi:nodetypes="cccccccccccccccc" /><path
     style="fill-opacity:0.2;fill-rule:evenodd;stroke-width:0.999999"
     d="m 25.998442,16 -5.999394,3 H 4.0006635 v 1 H 21.998846 Z M 3.0007645,56 c 0.00641,1.008598 0.9937008,2.001463 1.999798,2 v 0 H 58.995109 v 0 0 c 1.002828,0.0016 2.001139,-0.999662 1.999798,-2 z"
     class="ColorScheme-Text"
     id="path4"
     sodipodi:nodetypes="cccccccccccccc" /><path
     d="m 32.053826,29 c -1.072494,0.01333 -2.064988,0.235832 -2.788317,0.584163 -0.745829,0.359998 -1.188326,0.844995 -1.188326,1.355825 0,0.411664 0.312498,0.816662 0.812495,1.16416 0.201666,-0.148333 0.410831,-0.255832 0.607497,-0.351665 0.195832,-0.09667 0.46333,-0.122499 0.813328,-0.124999 0.349998,-0.0033 0.713329,0.075 0.713329,0.075 0.0067,8.33e-4 1.248326,0.536663 1.248326,0.536663 l 0.744995,-0.348331 h 0.0017 c 0,0 0.49333,-0.221665 1.05666,-0.214999 0.0375,0 0.075,0.0025 0.113333,0.005 0.155832,0.01083 0.295831,0.03167 0.54583,0.08917 0.249998,0.05833 0.492497,0.199166 0.647496,0.324998 0.46833,-0.337498 0.747495,-0.732495 0.747495,-1.13666 0,-0.514163 -0.417497,-1.002493 -1.136659,-1.365825 -0.718329,-0.363331 -1.723323,-0.591663 -2.834983,-0.591663 h -0.104166 z m 6.083296,0.119166 c -0.270831,-0.01667 -0.369164,0.01667 -0.579163,0.108333 -0.421664,0.229165 -0.853328,0.45833 -1.287492,0.687495 a 8.2266169,8.2266169 0 0 1 3.937476,6.716626 c 0.348331,-0.177498 0.693329,-0.355831 1.02416,-0.529996 0.964161,-0.703329 1.028328,-2.560818 0.1475,-4.328307 -0.783329,-1.570824 -2.108321,-2.656651 -3.241647,-2.654151 z m -9.012445,0.305831 a 8.0399513,8.0399513 0 0 0 -5.147469,6.799959 c 0.354164,-0.178332 0.714162,-0.353331 1.078327,-0.514163 l 0.0017,-0.0017 h 0.0017 c 0.169999,-0.07167 0.348331,-0.106666 0.53083,-0.110833 0.183332,-0.0042 0.370831,0.02417 0.559997,0.07833 0.378331,0.108333 0.763328,0.321665 1.12916,0.604997 0.733329,0.566663 1.410824,1.428324 1.844155,2.402485 0.479997,1.077494 0.699996,2.109987 0.662496,2.966649 -0.0375,0.857495 -0.343331,1.56249 -0.948327,1.889988 l -0.814162,0.389165 a 7.9949516,7.9949516 0 0 0 3.953309,1.039993 7.9949516,7.9949516 0 0 0 4.444973,-1.342492 c -0.620829,0.240832 -1.233326,0.264999 -1.738323,-0.005 -0.449997,-0.241666 -0.762495,-0.694163 -0.901661,-1.284159 -0.100832,-0.344165 -0.075,-0.59583 -0.08583,-0.955828 0.0125,-0.395831 0.1175,-0.774162 0.172499,-1.039994 0.08667,-0.361664 0.314165,-0.96166 0.64583,-1.554157 0.331664,-0.591663 0.814162,-1.174993 1.342492,-1.673323 0.529163,-0.49833 1.04416,-0.804995 1.419991,-0.901661 0.374998,-0.09667 0.61833,-0.141666 0.869162,-0.144999 0.249998,-0.0025 0.506663,0.03833 0.767495,0.174998 0.643329,0.341665 0.969161,1.079161 0.989994,1.964155 0.06167,-0.188332 0.09,-0.966661 0.107499,-1.270825 a 8.0299514,8.0299514 0 0 0 -4.269141,-7.096624 c 0.372498,0.320831 0.597497,0.699996 0.597497,1.118326 0,0.514997 -0.340831,0.987495 -0.766662,1.269159 a 5.1666354,5.1666354 0 0 1 -1.248326,0.619997 6.0607967,6.0607967 0 0 1 -1.842489,0.314164 c -0.614996,0.0017 -1.04166,0.01 -1.386658,-0.05 a 10.281604,10.281604 0 0 1 -0.703329,-0.138333 c -0.291665,-0.05583 -0.278332,-0.04417 -0.506664,-0.124999 -0.491664,-0.174999 -0.645829,-0.241665 -1.147493,-0.571663 -0.50083,-0.329998 -0.866661,-0.809995 -0.866661,-1.336659 0,-0.613329 0.501663,-1.13916 1.254159,-1.514991 z m 1.248326,2.416652 c 0.045,0.276665 0.122499,0.607497 0.134999,0.942495 0.145832,0.03333 0.294998,0.06417 0.44833,0.08917 0.383331,-0.189166 0.719163,-0.352498 1.058327,-0.516664 l -1.03916,-0.44833 c -0.0025,0 -0.075,-0.0125 -0.179166,-0.0275 a 7.6341205,7.6341205 0 0 0 -0.42333,-0.03917 z m 2.742483,0.242499 -0.724162,0.337498 0.01833,0.531663 c 0.703329,-0.02667 1.359158,-0.144999 1.915822,-0.338331 0.01667,-0.248332 0.09,-0.491664 0.126666,-0.686662 -0.120833,-0.03083 -0.254166,-0.0275 -0.577497,-0.03 -0.323331,-0.0025 -0.758329,0.185832 -0.758329,0.185832 z m 1.541657,-0.09583 c -0.03333,0.1025 -0.06833,0.208332 -0.08917,0.324998 -0.01167,0.06167 -0.01667,0.139999 -0.02333,0.213332 0.222499,-0.08917 0.422497,-0.189165 0.604163,-0.299165 a 1.4541579,1.4541579 0 0 0 -0.491664,-0.239165 z m -2.472485,0.52083 c -0.242498,0.116666 -0.53333,0.254999 -0.819995,0.397498 0.281665,0.025 0.562497,0.04833 0.834995,0.055 z m -6.586627,3.299147 a 1.215826,1.215826 0 0 0 -0.457497,0.0925 c -0.629163,0.277498 -1.255826,0.591663 -1.844155,0.906661 0.08833,0.0083 0.173332,0.02083 0.249998,0.03083 0.323332,0.04333 0.675829,0.181665 1.257493,0.634996 0.233332,0.182499 0.49333,0.452497 0.748328,0.766662 0.272499,0.323331 0.508331,0.703329 0.720829,1.031661 0.144166,0.239998 0.271665,0.479163 0.374998,0.706662 0.125833,0.263332 0.216665,0.534163 0.314165,0.787495 0.09333,0.254999 0.149999,0.514164 0.217499,0.758329 0.065,0.237498 0.08667,0.477497 0.124999,0.703329 0.02667,0.223332 0.0375,0.433331 0.03333,0.628329 -0.0092,0.374165 -0.03667,0.711663 -0.139999,1.012494 -0.03333,0.09583 -0.07667,0.186666 -0.128333,0.273332 a 63.707948,63.707948 0 0 0 1.66749,-0.784162 c 1.04166,-0.56333 1.133327,-2.481652 0.195832,-4.588305 -0.733329,-1.648324 -2.209986,-2.978316 -3.33498,-2.960816 z m 12.033261,0.554997 c 0.154166,0.289165 0.281665,0.753329 0.108333,1.360825 -0.055,0.143332 -0.1,0.314165 -0.179166,0.46333 -0.439997,0.916662 -1.254992,1.341659 -1.490824,1.449158 0,0.03917 -0.0017,0.09333 -0.0325,0.385831 -0.03083,0.291665 -0.0525,0.414164 -0.144999,0.716663 -0.09167,0.304164 -0.189166,0.52333 -0.319998,0.733329 -0.06417,0.08333 -0.124999,0.214165 -0.421664,0.541663 -0.363331,0.225832 -0.839995,0.377498 -1.09416,0.377498 0.141665,0.472497 0.370831,0.855828 0.725829,1.04666 0.559163,0.298331 1.294992,0.199165 2.04332,-0.230832 0.422498,-0.243332 0.844162,-0.592496 1.233326,-1.024994 0.291665,-0.337498 0.554997,-0.696662 0.976661,-1.433324 0.420831,-0.734996 0.678329,-1.71999 0.658329,-2.536652 -0.01833,-0.836661 -0.319998,-1.485824 -0.878328,-1.783322 a 1.2316592,1.2316592 0 0 0 -0.600829,-0.135836 c -0.206666,0 -0.410831,0.05 -0.58333,0.07 z m -0.236665,0.03917 c -0.416664,0.137499 -0.841662,0.391664 -1.248326,0.729162 0.143332,0.159999 0.308331,0.296665 0.509164,0.447498 a 3.1083145,3.1083145 0 0 0 0.757495,0.418331 l 0.04,-0.09417 a 2.6166508,2.6166508 0 0 0 0.08,-0.236665 c 0.114166,-0.399997 0.085,-0.720829 0.01,-0.961661 a 1.3666584,1.3666584 0 0 0 -0.148332,-0.302498 z m -14.314914,0.609997 a 0.66666263,0.66666263 0 0 0 -0.389997,0.129165 c -0.394165,0.307499 -0.649163,0.764996 -0.685829,1.578324 -0.03583,0.814162 0.175832,1.820822 0.644996,2.874983 0.419164,0.941661 1.08166,1.779156 1.781656,2.319986 0.700829,0.541663 1.439157,0.786662 2.067487,0.499997 0.516664,-0.285832 0.614163,-0.832495 0.631663,-1.564157 0.0175,-0.731663 -0.200832,-1.748323 -0.672496,-2.78665 -0.394998,-0.869995 -1.215826,-1.984155 -1.782489,-2.426652 -0.566664,-0.441664 -0.866662,-0.55333 -1.154993,-0.591663 a 2.4958182,2.4958182 0 0 0 -0.439998,-0.03333 z m 12.895756,0.269165 c -0.484997,0.48499 -0.903328,0.997487 -1.208326,1.49665 l 1.203326,0.660829 a 2.6999837,2.6999837 0 0 0 0.442497,-0.259998 2.919149,2.919149 0 0 0 0.887495,-0.993327 3.6124781,3.6124781 0 0 1 -0.786662,-0.449164 c -0.296665,-0.221666 -0.424164,-0.324998 -0.53833,-0.454997 z M 34.66381,38.97578 a 6.2457955,6.2457955 0 0 0 -0.54833,1.429158 l 1.629157,-0.836662 C 35.402972,39.384937 35.019641,39.178272 34.66381,38.975773 Z m 1.183326,0.779162 -1.854155,0.965827 -0.025,0.121666 c 0.188332,0.04417 0.395831,0.106666 0.651663,0.242499 0.355831,0.189165 0.522496,0.324998 0.650829,0.441664 0.04333,-0.05667 0.08583,-0.115833 0.127499,-0.180832 0.284998,-0.456664 0.393331,-0.963328 0.435831,-1.321659 0.01,-0.09 0.0083,-0.181666 0.01333,-0.269165 z"
     id="path5"
     style="fill:#e5e5e5;fill-opacity:1" /></svg>
