<?xml version="1.0" encoding="UTF-8" standalone="no"?>
<svg
   xmlns:dc="http://purl.org/dc/elements/1.1/"
   xmlns:cc="http://creativecommons.org/ns#"
   xmlns:rdf="http://www.w3.org/1999/02/22-rdf-syntax-ns#"
   xmlns:svg="http://www.w3.org/2000/svg"
   xmlns="http://www.w3.org/2000/svg"
   xmlns:sodipodi="http://sodipodi.sourceforge.net/DTD/sodipodi-0.dtd"
   xmlns:inkscape="http://www.inkscape.org/namespaces/inkscape"
   viewBox="0 0 64 64"
   version="1.1"
   id="svg12"
   sodipodi:docname="folder-openSUSE.svg"
   inkscape:version="1.0.2 (e86c870879, 2021-01-15)">
  <metadata
     id="metadata16">
    <rdf:RDF>
      <cc:Work
         rdf:about="">
        <dc:format>image/svg+xml</dc:format>
        <dc:type
           rdf:resource="http://purl.org/dc/dcmitype/StillImage" />
      </cc:Work>
    </rdf:RDF>
  </metadata>
  <sodipodi:namedview
     pagecolor="#ffffff"
     bordercolor="#666666"
     borderopacity="1"
     objecttolerance="10"
     gridtolerance="10"
     guidetolerance="10"
     inkscape:pageopacity="0"
     inkscape:pageshadow="2"
     inkscape:window-width="1920"
     inkscape:window-height="1007"
     id="namedview14"
     showgrid="false"
     inkscape:zoom="9.8125"
     inkscape:cx="32"
     inkscape:cy="32"
     inkscape:window-x="0"
     inkscape:window-y="0"
     inkscape:window-maximized="1"
     inkscape:current-layer="svg12"
     inkscape:document-rotation="0" />
  <defs
     id="defs3051">
    <style
       type="text/css"
       id="current-color-scheme">
      .ColorScheme-Text {
        color:#31363b;
      }
      .ColorScheme-Background {
        color:#eff0f1;
      }
      .ColorScheme-Highlight {
        color:#3daee9;
      }
      .ColorScheme-ViewText {
        color:#31363b;
      }
      .ColorScheme-ViewBackground {
        color:#fcfcfc;
      }
      .ColorScheme-ViewHover {
        color:#93cee9;
      }
      .ColorScheme-ViewFocus{
        color:#3daee9;
      }
      .ColorScheme-ButtonText {
        color:#31363b;
      }
      .ColorScheme-ButtonBackground {
        color:#eff0f1;
      }
      .ColorScheme-ButtonHover {
        color:#93cee9;
      }
      .ColorScheme-ButtonFocus{
        color:#3daee9;
      }
      </style>
  </defs>
  <path
     style="fill:currentColor;fill-opacity:1;stroke:none"
     d="M 4 6 L 4 11 L 4 20 L 3 20 L 3 21 L 3.0019531 21 C 3.0019031 21.004 3 21.008019 3 21.011719 L 3 57 L 3 58 L 4 58 L 60 58 L 61 58 L 61 57 L 61 21.011719 L 61 21 L 61 16 L 60 16 L 60 11.009766 C 60 11.006766 59.998047 11.004 59.998047 11 L 60 11 L 60 10 L 32 10 L 28 6 L 4 6 z "
     class="ColorScheme-Highlight"
     id="path4" />
  <path
     style="fill-opacity:0.33;fill-rule:evenodd"
     d="M 4 6 L 4 11 L 4 20 L 22 20 L 26 16 L 60 16 L 60 11.009766 C 60 11.006766 59.998047 11.004 59.998047 11 L 60 11 L 60 10 L 32 10 L 28 6 L 4 6 z "
     id="path6" />
  <path
     style="fill:#ffffff;fill-opacity:0.2;fill-rule:evenodd"
     d="M 28 6 L 31 11 L 33 11 L 60 11 L 60 10 L 33 10 L 32 10 L 28 6 z M 26 16 L 22 20 L 3 20 L 3 21 L 23 21 L 26 16 z "
     id="path8" />
  <path
     style="fill-opacity:0.2;fill-rule:evenodd"
     d="M 26 16 L 20 19 L 4 19 L 4 20 L 22 20 L 26 16 z M 3 57 L 3 58 L 4 58 L 60 58 L 61 58 L 61 57 L 60 57 L 4 57 L 3 57 z "
     class="ColorScheme-Text"
     id="path10" />
  <path
     style="color:#4d4d4d;font-size:20.4884px;font-family:TrebuchetMS-Bold;fill:#ffffff;fill-opacity:1;fill-rule:evenodd;stroke:none;stroke-width:0.143179;stroke-miterlimit:4"
     d="m 32,27 c -5.52242,0 -10,4.47706 -10,10 0,5.52294 4.47758,10 10,10 5.52242,0 10,-4.47706 10,-10 0,-5.52294 -4.47758,-10 -10,-10 z m 0.0479,1.38489 c 4.75828,0 8.61879,3.85735 8.61879,8.61511 0,4.75826 -3.86103,8.61511 -8.61879,8.61511 -2.56927,0 -4.87475,-1.12606 -6.45303,-2.90976 0.64895,-0.50367 1.73468,-0.38079 3.07182,-0.22837 0.64079,0.0728 1.37127,0.15628 2.12523,0.1731 2.1064,0.0122 4.37282,-0.3722 5.77165,-0.98342 0.90433,-0.3966 1.48335,-0.65779 1.84529,-0.9871 0.13051,-0.10709 0.19904,-0.2859 0.26889,-0.47145 l 0.0479,-0.12524 c 0.0586,-0.14987 0.14276,-0.47238 0.18047,-0.64825 0.0168,-0.077 0.0252,-0.15976 -0.0295,-0.20258 l -0.19521,0.0368 c -0.61378,0.36806 -2.14724,1.06906 -3.5838,1.0976 -1.78014,0.0373 -5.36799,-1.79205 -5.74217,-1.98526 l -0.0368,-0.0442 c -0.0897,-0.21411 -0.62665,-1.48876 -0.74034,-1.75691 2.58254,1.70063 4.72368,2.64192 6.36466,2.78822 1.82448,0.16211 3.24767,-0.834 3.85634,-1.25967 0.11878,-0.0811 0.20956,-0.14461 0.24678,-0.15838 l 0.0405,-0.0663 c -0.10093,-0.6413 -1.05818,-3.74457 -1.77901,-4.48987 -0.19984,-0.20442 -0.35871,-0.40336 -0.6814,-0.593 -2.60904,-1.52067 -8.80386,-2.43651 -9.09392,-2.47883 l -0.0479,0.0147 -0.0184,0.0405 c 0,0 -0.0233,1.28636 -0.0258,1.4291 -0.21258,-0.0703 -0.87173,-0.28616 -1.81585,-0.54512 1.23187,-1.52424 3.11969,-2.87662 6.42358,-2.87662 z m 2.27625,4.55987 c 0.044,-6.7e-4 0.0883,-0.001 0.1326,0 1.46153,0.0525 2.60981,1.28349 2.55985,2.74401 -0.026,0.70655 -0.32389,1.35937 -0.83978,1.84162 -0.51742,0.4848 -1.18993,0.73748 -1.90056,0.71455 -1.45898,-0.0545 -2.60725,-1.28554 -2.55984,-2.74401 0.025,-0.70758 0.3245,-1.36459 0.84345,-1.84531 0.48461,-0.4545 1.10485,-0.70098 1.76428,-0.71086 z m -0.07,0.78084 c -0.42566,0.0259 -0.82734,0.19872 -1.1418,0.49356 -0.35838,0.33645 -0.56983,0.79198 -0.58563,1.28544 -0.0337,1.01956 0.76414,1.87757 1.78268,1.91528 0.49499,0.0153 0.96454,-0.15811 1.32597,-0.49354 0.36041,-0.33798 0.57034,-0.79772 0.58563,-1.28914 0.0341,-1.02108 -0.76733,-1.87592 -1.78637,-1.9116 -0.0617,-0.002 -0.11967,-0.003 -0.18048,0 z m 0.48619,0.92448 c 0.45268,0 0.81768,0.246 0.81767,0.54881 0,0.30129 -0.36499,0.5488 -0.81767,0.5488 -0.45421,0 -0.82136,-0.24803 -0.82136,-0.5488 0,-0.30281 0.36715,-0.54881 0.82136,-0.54881 z"
     id="path2445"
     class="ColorScheme-Text"
     inkscape:connector-curvature="0" />
</svg>
