<?xml version="1.0" encoding="UTF-8" standalone="no"?>
<svg
   viewBox="0 0 64 64"
   version="1.1"
   id="svg4"
   sodipodi:docname="folder-webmin.svg"
   inkscape:version="1.4.2 (unknown)"
   xml:space="preserve"
   xmlns:inkscape="http://www.inkscape.org/namespaces/inkscape"
   xmlns:sodipodi="http://sodipodi.sourceforge.net/DTD/sodipodi-0.dtd"
   xmlns="http://www.w3.org/2000/svg"
   xmlns:svg="http://www.w3.org/2000/svg"><sodipodi:namedview
     id="namedview4"
     pagecolor="#ffffff"
     bordercolor="#999999"
     borderopacity="1"
     inkscape:showpageshadow="2"
     inkscape:pageopacity="0"
     inkscape:pagecheckerboard="0"
     inkscape:deskcolor="#d1d1d1"
     showgrid="false"
     inkscape:zoom="5.6568543"
     inkscape:cx="16.263456"
     inkscape:cy="42.338018"
     inkscape:window-width="2556"
     inkscape:window-height="1364"
     inkscape:window-x="0"
     inkscape:window-y="0"
     inkscape:window-maximized="1"
     inkscape:current-layer="svg4"><inkscape:grid
       id="grid4"
       units="px"
       originx="0"
       originy="0"
       spacingx="1"
       spacingy="1"
       empcolor="#0099e5"
       empopacity="0.30196078"
       color="#0099e5"
       opacity="0.14902"
       empspacing="5"
       dotted="false"
       gridanglex="30"
       gridanglez="30"
       visible="false" /></sodipodi:namedview><defs
     id="defs3051"><style
       type="text/css"
       id="current-color-scheme">
      .ColorScheme-Text {
        color:#31363b;
      }
      .ColorScheme-Background {
        color:#eff0f1;
      }
      .ColorScheme-Highlight {
        color:#3daee9;
      }
      .ColorScheme-ViewText {
        color:#31363b;
      }
      .ColorScheme-ViewBackground {
        color:#fcfcfc;
      }
      .ColorScheme-ViewHover {
        color:#93cee9;
      }
      .ColorScheme-ViewFocus{
        color:#3daee9;
      }
      .ColorScheme-ButtonText {
        color:#31363b;
      }
      .ColorScheme-ButtonBackground {
        color:#eff0f1;
      }
      .ColorScheme-ButtonHover {
        color:#93cee9;
      }
      .ColorScheme-ButtonFocus{
        color:#3daee9;
      }
      </style></defs><path
     style="fill:currentColor;fill-opacity:1;stroke:none;stroke-width:0.999999"
     d="m 4.0006635,10 v 1 9 0 c -0.5203637,0.02153 -1.0229638,0.505476 -0.999899,1 h 0.00195 c -4.69e-5,0.004 -0.00195,0.008 -0.00195,0.01172 V 56 c 0.00871,0.999392 0.9801138,2.005992 1.999798,2 v 0 H 58.995109 v 0 c 1.011732,0.02205 1.994216,-0.972534 1.999798,-2 V 21.011719 21 17 c 0.05936,-0.589244 -0.407896,-1.006383 -0.999899,-1 v -4 c 0,-0.003 -0.002,0.004 -0.002,0 h 0.002 v 0 c -0.0061,-1.000671 -0.953819,-1.995969 -1.999798,-2 H 31.997836 L 27.99824,6 H 8.0002595 C 5.9630216,5.99492 4.0363539,7.9703236 4.0006635,10 Z"
     class="ColorScheme-Highlight"
     id="path1"
     sodipodi:nodetypes="ccccccsccccccccccscccccccc" /><path
     style="fill-opacity:0.33;fill-rule:evenodd;stroke-width:0.999999"
     d="m 4.0302775,10 -0.029614,1 v 9 H 21.998846 l 3.999596,-4 h 33.996566 v -4 c 0,-0.003 -0.002,0.004 -0.002,0 h 0.002 C 59.988808,10.988725 58.990992,9.9943186 57.99521,10 H 31.997836 L 27.99824,6 H 8.0002595 C 5.9928069,6.00259 3.994256,8.0072001 4.0302775,10 Z"
     id="path2"
     sodipodi:nodetypes="ccccccsccccccc" /><path
     style="fill:#ffffff;fill-opacity:0.2;fill-rule:evenodd;stroke-width:0.999999"
     d="m 27.99824,6 2.999697,5 h 1.999798 24.997475 c 1.212814,-0.06389 2.005543,1.005906 1.999798,2 v -1 c 6e-4,-0.992592 -0.988601,-1.993446 -1.999798,-2 H 32.997735 31.997836 Z m -1.999798,10 -3.999596,4 H 3.0007645 v 1 H 22.998745 Z"
     id="path3"
     sodipodi:nodetypes="cccccccccccccccc" /><path
     style="fill-opacity:0.2;fill-rule:evenodd;stroke-width:0.999999"
     d="m 25.998442,16 -5.999394,3 H 4.0006635 v 1 H 21.998846 Z M 3.0007645,56 c 0.00641,1.008598 0.9937008,2.001463 1.999798,2 v 0 H 58.995109 v 0 0 c 1.002828,0.0016 2.001139,-0.999662 1.999798,-2 z"
     class="ColorScheme-Text"
     id="path4"
     sodipodi:nodetypes="cccccccccccccc" /><path
     d="m 42.692847,38.363535 c -0.146967,-0.775128 -0.4703,-1.427426 -0.957401,-1.93994 -0.377917,-0.398152 -0.466094,-0.457451 -1.939985,-1.317301 -0.982592,-0.571813 -1.440295,-0.847137 -1.557868,-0.923382 -0.0038,-0.118597 0,-0.51251 0.0168,-1.418946 0.03777,-1.855229 0.03777,-2.232204 -0.01251,-2.520235 -0.138567,-0.804777 -0.470306,-1.465543 -1.049781,-2.075487 -0.57948,-0.609929 -1.230338,-0.978437 -1.990379,-1.126688 -0.314931,-0.05936 -0.990986,-0.0551 -1.343719,0.01262 -0.692851,0.1313 -1.255533,0.389677 -1.830812,0.838661 l -0.138569,0.110133 -0.07137,-0.05509 c -0.516491,-0.381213 -1.104369,-0.656529 -1.700641,-0.79207 -0.386325,-0.08893 -1.041384,-0.101679 -1.4277,-0.03387 -0.755837,0.135548 -1.364712,0.4744 -1.981981,1.101286 -0.52069,0.529452 -0.839825,1.080096 -0.99939,1.732386 -0.113371,0.45322 -0.117574,0.571818 -0.100801,2.52447 l 0.01251,1.715453 -0.310739,0.186363 c -0.919607,0.550642 -2.464876,1.516378 -2.624442,1.634977 -0.226757,0.169431 -0.566884,0.51675 -0.726449,0.745484 -0.327526,0.465923 -0.558483,1.046211 -0.659262,1.673095 -0.193158,1.16481 0.172169,2.278798 1.016183,3.142876 0.277151,0.279554 0.461907,0.427799 0.764243,0.605698 0.17636,0.10589 0.453503,0.241434 0.634061,0.313444 -0.0078,0.06775 -0.02107,0.24567 -0.02526,0.385448 -0.03358,0.847139 0.176362,1.643442 0.629864,2.359271 0.167966,0.262613 0.587872,0.711595 0.835622,0.889492 0.478696,0.343094 1.066578,0.580292 1.696442,0.694659 0.247751,0.04235 0.340128,0.05074 0.680258,0.03811 0.415711,-0.01262 0.613067,-0.04658 0.948995,-0.165192 0.272945,-0.09324 0.419911,-0.173659 1.977782,-1.050452 l 1.394104,-0.7836 1.020387,0.609941 c 1.667044,0.99115 1.759429,1.046214 1.994578,1.164812 0.373718,0.186371 0.76424,0.300731 1.163157,0.34309 0.113375,0.01262 0.226746,0.01695 0.340126,0.01695 0.407313,0 0.823022,-0.07622 1.26393,-0.224495 0.331733,-0.114358 0.772637,-0.343088 1.028789,-0.529461 0.575275,-0.427797 1.053975,-1.126683 1.28072,-1.863699 0.142771,-0.474392 0.163768,-0.639586 0.167967,-1.287649 l 0.0038,-0.49557 0.117573,-0.04235 c 0.638266,-0.241435 1.263926,-0.690418 1.679643,-1.20717 0.424105,-0.525225 0.667658,-1.033509 0.793632,-1.651917 0.06306,-0.30497 0.05463,-0.978439 -0.01251,-1.334242 M 33.849169,38.11781 c -0.20996,0.105892 -0.335928,0.220253 -0.4787,0.444744 -0.146972,0.228725 -0.209959,0.44474 -0.209959,0.694651 0,0.326149 0.09663,0.56758 0.327533,0.821721 0.209951,0.228729 0.264548,0.266849 1.981985,1.274943 1.881197,1.105511 2.036562,1.262232 2.145744,1.715445 0.04618,0.182136 0.02945,0.448986 -0.03358,0.61418 -0.151173,0.385447 -0.365324,0.609938 -0.705453,0.728538 -0.167971,0.05936 -0.394716,0.07622 -0.558483,0.0465 -0.302335,-0.05509 -0.613068,-0.228723 -3.292102,-1.821342 -0.583684,-0.343089 -0.82303,-0.432042 -1.192549,-0.432042 -0.0078,0 -0.01251,0 0,0.01262 -0.398914,0.0038 -0.470296,0.0465 -1.692243,0.745482 -0.97419,0.559107 -1.83921,1.046213 -2.057564,1.160574 -0.298135,0.152481 -0.701253,0.279553 -0.898609,0.279553 -0.100802,0 -0.277141,-0.05074 -0.403117,-0.110121 -0.230948,-0.11437 -0.491294,-0.393924 -0.604665,-0.656535 -0.06725,-0.156721 -0.0882,-0.48287 -0.03778,-0.660768 0.08392,-0.296495 0.218352,-0.465925 0.583669,-0.724301 0.314933,-0.224494 0.57948,-0.38545 1.784628,-1.075861 1.091766,-0.622643 1.406697,-0.809015 1.541066,-0.906433 0.172172,-0.122837 0.352733,-0.351568 0.445109,-0.550642 0.07557,-0.165193 0.08817,-0.224497 0.09662,-0.419333 0.01251,-0.292266 -0.04619,-0.499809 -0.214155,-0.758185 -0.27714,-0.427805 -0.697053,-0.622645 -1.179952,-0.550643 -0.268738,0.04235 -0.424105,0.105891 -0.919607,0.389686 -0.646658,0.36426 -0.785228,0.44474 -1.629252,0.948785 -0.839823,0.499819 -1.058177,0.618416 -1.314319,0.703127 -0.617273,0.207549 -0.953201,0.169429 -1.247135,-0.131305 -0.24775,-0.254137 -0.38212,-0.567583 -0.38212,-0.876783 0,-0.275321 0.07137,-0.487102 0.218353,-0.656535 0.180561,-0.207542 0.457701,-0.398154 1.482283,-1.003858 0.39052,-0.23296 0.978393,-0.584523 1.305925,-0.783601 l 0.726445,-0.444743 c 0.377926,-0.228725 0.608875,-0.554875 0.709652,-0.99962 0.0078,-0.03811 0.02526,-0.114361 0.04198,-2.130549 0.01675,-1.863707 0.02107,-2.007713 0.05886,-2.194085 0.07976,-0.393922 0.193158,-0.635359 0.382122,-0.834434 0.18056,-0.186363 0.461902,-0.296496 0.772633,-0.296496 0.335928,0 0.663463,0.131312 0.873414,0.351566 0.218354,0.228721 0.289745,0.457455 0.314933,1.016561 0.01251,0.182134 0.0078,1.118222 0,2.083961 -0.01251,1.516369 -0.01251,1.791685 0.01675,1.965355 0.06306,0.381211 0.260348,0.703123 0.55429,0.906435 0.289737,0.199076 0.650861,0.262614 1.016185,0.182137 0.499697,-0.11437 0.881808,-0.537941 0.969994,-1.088572 0.02526,-0.152491 0.03357,-0.635359 0.05031,-2.151728 0.01676,-1.791693 0.02107,-1.952651 0.05885,-2.139024 0.07976,-0.393912 0.188956,-0.635349 0.382112,-0.834423 0.180564,-0.186374 0.461905,-0.296505 0.772644,-0.296505 0.335925,0 0.663451,0.131312 0.873413,0.351566 0.214152,0.224495 0.289731,0.457455 0.31493,1.003858 0.0078,0.173659 0.0078,1.122453 -0.0038,2.109366 v 0.0551 c -0.02107,1.956889 -0.02107,1.956889 0.134378,2.295743 0.155363,0.343089 0.331729,0.470162 1.079165,0.906438 0.92381,0.533697 2.3851,1.402007 2.561459,1.516375 0.415711,0.27108 0.642469,0.478632 0.734845,0.681944 0.100801,0.224494 0.109179,0.533694 0.02946,0.804781 -0.08819,0.283792 -0.373727,0.635349 -0.617269,0.758184 -0.121774,0.05936 -0.121774,0.05936 -0.348531,0.05936 -0.27714,0 -0.55428,-0.0636 -0.831419,-0.186373 -0.07976,-0.03388 -0.718051,-0.393914 -1.545281,-0.876785 -1.889596,-1.097036 -1.889596,-1.097036 -2.254921,-1.152107 -0.23515,-0.03811 -0.461895,0 -0.688651,0.114369"
     style="fill:#e5e5e5;fill-opacity:1;stroke-width:0.0390608"
     id="path1-6" /></svg>
