<?xml version="1.0" encoding="UTF-8" standalone="no"?>
<svg
   viewBox="0 0 64 64"
   version="1.1"
   id="svg4"
   sodipodi:docname="folder-health.svg"
   inkscape:version="1.4.2 (unknown)"
   xmlns:inkscape="http://www.inkscape.org/namespaces/inkscape"
   xmlns:sodipodi="http://sodipodi.sourceforge.net/DTD/sodipodi-0.dtd"
   xmlns="http://www.w3.org/2000/svg"
   xmlns:svg="http://www.w3.org/2000/svg">
  <sodipodi:namedview
     id="namedview4"
     pagecolor="#ffffff"
     bordercolor="#999999"
     borderopacity="1"
     inkscape:showpageshadow="2"
     inkscape:pageopacity="0"
     inkscape:pagecheckerboard="0"
     inkscape:deskcolor="#d1d1d1"
     showgrid="true"
     inkscape:zoom="11.313709"
     inkscape:cx="31.952386"
     inkscape:cy="32.129163"
     inkscape:window-width="2556"
     inkscape:window-height="1364"
     inkscape:window-x="0"
     inkscape:window-y="0"
     inkscape:window-maximized="1"
     inkscape:current-layer="svg4">
    <inkscape:grid
       id="grid4"
       units="px"
       originx="0"
       originy="0"
       spacingx="1"
       spacingy="1"
       empcolor="#0099e5"
       empopacity="0.30196078"
       color="#0099e5"
       opacity="0.14902"
       empspacing="5"
       dotted="false"
       gridanglex="30"
       gridanglez="30"
       visible="true" />
  </sodipodi:namedview>
  <defs
     id="defs3051">
    <style
       type="text/css"
       id="current-color-scheme">
      .ColorScheme-Text {
        color:#31363b;
      }
      .ColorScheme-Background {
        color:#eff0f1;
      }
      .ColorScheme-Highlight {
        color:#3daee9;
      }
      .ColorScheme-ViewText {
        color:#31363b;
      }
      .ColorScheme-ViewBackground {
        color:#fcfcfc;
      }
      .ColorScheme-ViewHover {
        color:#93cee9;
      }
      .ColorScheme-ViewFocus{
        color:#3daee9;
      }
      .ColorScheme-ButtonText {
        color:#31363b;
      }
      .ColorScheme-ButtonBackground {
        color:#eff0f1;
      }
      .ColorScheme-ButtonHover {
        color:#93cee9;
      }
      .ColorScheme-ButtonFocus{
        color:#3daee9;
      }
      </style>
  </defs>
  <path
     style="fill:currentColor;fill-opacity:1;stroke:none;stroke-width:0.999999"
     d="m 4.0006635,10 v 1 9 0 c -0.5203637,0.02153 -1.0229638,0.505476 -0.999899,1 h 0.00195 c -4.69e-5,0.004 -0.00195,0.008 -0.00195,0.01172 V 56 c 0.00871,0.999392 0.9801138,2.005992 1.999798,2 v 0 H 58.995109 v 0 c 1.011732,0.02205 1.994216,-0.972534 1.999798,-2 V 21.011719 21 17 c 0.05936,-0.589244 -0.407896,-1.006383 -0.999899,-1 v -4 c 0,-0.003 -0.002,0.004 -0.002,0 h 0.002 v 0 c -0.0061,-1.000671 -0.953819,-1.995969 -1.999798,-2 H 31.997836 L 27.99824,6 H 8.0002595 C 5.9630216,5.99492 4.0363539,7.9703236 4.0006635,10 Z"
     class="ColorScheme-Highlight"
     id="path1"
     sodipodi:nodetypes="ccccccsccccccccccscccccccc" />
  <path
     style="fill-opacity:0.33;fill-rule:evenodd;stroke-width:0.999999"
     d="m 4.0302775,10 -0.029614,1 v 9 H 21.998846 l 3.999596,-4 h 33.996566 v -4 c 0,-0.003 -0.002,0.004 -0.002,0 h 0.002 C 59.988808,10.988725 58.990992,9.9943186 57.99521,10 H 31.997836 L 27.99824,6 H 8.0002595 C 5.9928069,6.00259 3.994256,8.0072001 4.0302775,10 Z"
     id="path2"
     sodipodi:nodetypes="ccccccsccccccc" />
  <path
     style="fill:#ffffff;fill-opacity:0.2;fill-rule:evenodd;stroke-width:0.999999"
     d="m 27.99824,6 2.999697,5 h 1.999798 24.997475 c 1.212814,-0.06389 2.005543,1.005906 1.999798,2 v -1 c 6e-4,-0.992592 -0.988601,-1.993446 -1.999798,-2 H 32.997735 31.997836 Z m -1.999798,10 -3.999596,4 H 3.0007645 v 1 H 22.998745 Z"
     id="path3"
     sodipodi:nodetypes="cccccccccccccccc" />
  <path
     style="fill-opacity:0.2;fill-rule:evenodd;stroke-width:0.999999"
     d="m 25.998442,16 -5.999394,3 H 4.0006635 v 1 H 21.998846 Z M 3.0007645,56 c 0.00641,1.008598 0.9937008,2.001463 1.999798,2 v 0 H 58.995109 v 0 0 c 1.002828,0.0016 2.001139,-0.999662 1.999798,-2 z"
     class="ColorScheme-Text"
     id="path4"
     sodipodi:nodetypes="cccccccccccccc" />
  <path
     d="m 39,33 c 0.56,0 1,0.43 1,1 a 1,1 0 0 1 -1,1 c -0.569999,0 -1,-0.45 -1,-1 0,-0.57 0.430001,-1 1,-1 M 22,27 v 9 c 0,2.96 2.19,5.500001 5.14,5.91 0.62,3.01 3.28,5.09 6.36,5.09 A 6.5000001,6.5000001 0 0 0 40,40.5 v -3.69 c 1.16,-0.42 2,-1.52 2,-2.81 a 3,3 0 0 0 -3,-3 3,3 0 0 0 -3,3 c 0,1.29 0.84,2.4 2,2.81 v 3.6 c 0,2.500001 -2,4.5 -4.5,4.5 -2,0 -3.68,-1.209999 -4.28,-3.01 C 32,41.3 34,38.800001 34,36 v -9 h -4 v 3 h 2 v 6 a 4.0000001,4.0000001 0 0 1 -4,4 4.0000001,4.0000001 0 0 1 -4,-4 v -6 h 2 v -3 z"
     id="path5"
     style="fill:#e5e5e5;stroke-width:0.915074;fill-opacity:1" />
</svg>
